<?xml version="1.0" encoding="utf-8"?>
<!-- Generator: Adobe Illustrator 14.0.0, SVG Export Plug-In . SVG Version: 6.00 Build 43363)  -->
<!DOCTYPE svg PUBLIC "-//W3C//DTD SVG 1.1//EN" "http://www.w3.org/Graphics/SVG/1.1/DTD/svg11.dtd">
<svg version="1.1" xmlns="http://www.w3.org/2000/svg" xmlns:xlink="http://www.w3.org/1999/xlink" x="0px" y="0px" width="200px"
	 height="200px" viewBox="44 746 200 200" enable-background="new 44 746 200 200" xml:space="preserve">
<g id="Layer_1">
</g>
<g id="svg12082">
	<g id="layer3" transform="translate(0,-5.4498)">
		<path id="path30" fill="#EFE4BC" d="M182.444,909.272l-18.636,25.671H244l-38.313-171.435h-53.376L44,934.913h85.461
			l-12.238-25.762l26.393-44.296c0.708,2.743,2.065,8.117,2.277,8.948c-1.346,2.349-21.82,37.726-21.82,37.726
			s30.182-24.941,31.568-26.104c0.495,0.616,22.34,27.106,22.34,27.106s-10.273-34.273-10.982-36.603
			c0.525-0.841,3.948-6.275,6.125-9.768l9.321,43.081V909.272z M144.557,863.275l16.834-28.233h4.98l6.123,28.233H144.557z"/>
		<path id="path34" fill="#1D0B09" d="M96.637,870.553l33.549-21.037l-11.531-20.667l32.452-15.647l-10.467-18.446l24.952-11.114
			l-11.237-16.485L50.177,931.481l56.994-35.864L96.637,870.553z"/>
		<path id="path46" fill="#B91134" d="M163.202,875.422c0.881-1.376,5.457-8.645,5.457-8.645h-20.965c0,0,1.6,6.185,1.954,7.571
			c-0.972,1.66-12.836,22.148-12.836,22.148s16.916-13.979,19.284-15.963c1.671,2.014,13.584,16.469,13.584,16.469
			s-5.901-19.698-6.488-21.581"/>
		<path id="path50" fill="#B91134" d="M235.204,928.171l-35.187-157.923h-39.73l9.788,15.036l-24.658,11.082l10.618,18.413
			l-32.411,15.52l10.854,20.12l-33.579,21.139l10.355,25.356l-50.319,31.177h56.624l-9.118-18.757l48.9-80.417h15.152l18.302,81.987
			l-12.754,17.269H235.204z"/>
		<path id="path54" fill="#1D0B09" d="M239.637,931.542l-36.663-164.786H158.01l2.277,3.506h39.73l35.187,157.918h-57.162
			l12.764-17.259l-18.312-81.991h-15.152l-48.9,80.413l9.135,18.767H60.936l-5.549,3.462h68.302l-10.792-22.3l46.348-77.317h10.103
			l17.491,78.117l-15.72,21.5h68.519V931.542z"/>
	</g>
</g>
</svg>
