<?xml version="1.0" encoding="utf-8"?>
<!-- Generator: Adobe Illustrator 14.0.0, SVG Export Plug-In . SVG Version: 6.00 Build 43363)  -->
<!DOCTYPE svg PUBLIC "-//W3C//DTD SVG 1.1//EN" "http://www.w3.org/Graphics/SVG/1.1/DTD/svg11.dtd">
<svg version="1.1" xmlns="http://www.w3.org/2000/svg" xmlns:xlink="http://www.w3.org/1999/xlink" x="0px" y="0px" width="200px"
	 height="200px" viewBox="44 746 200 200" enable-background="new 44 746 200 200" xml:space="preserve">
<g id="Layer_1">
	<g>
		<path fill="#0F437C" d="M242.731,869.552c0.007-0.146,0.018-0.244,0.018-0.407c0-0.539-0.046-1.202-0.212-1.962
			c-0.448-2.093-1.57-3.626-2.396-4.743l-0.647-0.942c0,0.006-0.288-0.712-0.288-0.712c-0.116-0.311-0.251-0.679-0.423-1.084
			c1.769-1.461,2.485-3.079,2.774-4.18c0.604-2.352-0.063-4.785-1.794-6.499c-1.719-1.705-4.263-2.478-7.136-2.271
			c-0.089-3.731-1.812-5.847-2.781-6.945c-0.007-0.183-0.007-0.375-0.007-0.375c-0.02-2.18-0.052-6.218-3.287-9.471
			c-0.698-0.702-0.788-0.917-1.064-1.618c0,0-0.332-0.785-0.424-1.003c-0.179-0.436-0.659-1.455-2.204-2.609l-3.661-2.727
			l-2.493,3.881c-1.378,2.128-1.55,4.198-1.667,5.57c0,0-0.058,0.542-0.088,0.766c-0.11,0.118-0.302,0.314-0.302,0.314l-1.179,1.289
			l-0.129,0.16c-1.681,2.099-1.962,3.874-1.962,8.134c0,0-0.007,0.208-0.019,0.41c-0.116,0.141-0.263,0.327-0.263,0.327
			c-1.41,1.821-1.462,4.013-1.499,5.605c0,0-0.071,1.304-0.071,1.324c-4.083,0.59-84.75,12.22-86.557,12.479
			c-5.172,0.693-7.562,4.781-7.183,8.279c0.656,6.028,4.909,7.826,8.677,7.503c2.387-0.205,60.999-8.948,81.812-12.057
			c-0.166,0.827-0.288,1.694-0.288,2.627c0,1.141,0.192,2.359,0.622,3.605c-0.327,0.76-0.597,1.59-0.712,2.548
			c-0.069,0.565-0.103,1.09-0.103,1.587c0,3.342,1.431,5.198,2.719,6.191c2.045,1.581,4.788,1.703,8.089,0.536
			c3.43,0.635,7.192,0.285,10.596-1.013c3.191,0.608,6.442-1.279,8.058-2.257c0,0,0.038-0.025,0.045-0.028
			c0.069,0.003,0.154,0.003,0.154,0.003l2.23-0.063l0.365-0.074c1.474-0.275,4.212-0.788,5.448-3.563
			c0.365-0.808,0.5-1.606,0.5-2.359C243.999,871.811,243.103,870.207,242.731,869.552"/>
		<path fill="#CD1141" d="M241.089,870.512l-0.134-0.243c0,0-0.071-0.084-0.141-0.15c0.006-0.036,0.006-0.084,0.006-0.084
			c0.019-0.241,0.039-0.545,0.039-0.892c0-0.433-0.032-0.948-0.16-1.542c-0.365-1.675-1.308-2.957-2.058-3.986l-0.781-1.147
			l-0.424-0.999c-0.23-0.642-0.532-1.465-1.173-2.373c2.378-1.345,3.192-3.018,3.467-4.069c0.431-1.667-0.044-3.386-1.274-4.602
			c-1.525-1.51-3.955-2.059-6.718-1.607c-0.128-0.172-0.244-0.342-0.372-0.508c0,0-0.5-0.744-0.609-0.914
			c0.008-0.131,0.014-0.267,0.014-0.395c0-3.266-1.499-4.961-2.416-6.006c0,0-0.262-0.313-0.358-0.43
			c-0.007-0.254-0.045-1.122-0.045-1.122c-0.013-2.022-0.039-5.403-2.712-8.085c-0.987-0.987-1.18-1.474-1.494-2.278l-0.436-1.035
			c-0.108-0.222-0.365-0.773-1.475-1.677l-2.089-1.692l-1.469,2.281c-1.109,1.721-1.25,3.42-1.353,4.664l-0.16,1.236
			c-0.083,0.346-0.262,0.548-0.813,1.087l-1.007,1.089l-0.147,0.19c-1.186,1.479-1.526,2.563-1.526,6.893
			c0,0.949-0.096,1.187-0.096,1.202c-0.007,0.006-0.256,0.32-0.256,0.32l-0.347,0.429c-1.02,1.312-1.052,2.972-1.089,4.437
			l-0.09,1.586c-0.103,0.708-0.237,1.145-0.385,1.445c-1.84,0.266-86.998,12.547-87.795,12.658
			c-4.459,0.601-5.771,4.075-5.547,6.131c0.615,5.677,4.852,5.929,6.646,5.779c2.436-0.212,68.211-10.028,84.568-12.478
			c-0.474,1.436-1.013,3.111-1.013,4.978c0,1.198,0.218,2.459,0.814,3.767c-0.442,0.833-0.795,1.666-0.91,2.642
			c-0.058,0.47-0.084,0.913-0.084,1.319c0,2.563,1.02,3.936,1.955,4.653c2.263,1.748,5.314,0.78,6.929,0.109
			c3.314,0.702,6.98,0.266,10.288-1.07c2.68,0.98,5.808-0.9,7.436-1.894l0.371-0.218c0.174-0.106,0.315-0.112,0.937-0.061
			l1.725-0.046l0.391-0.073c1.365-0.257,3.243-0.612,4.063-2.461c0.237-0.517,0.334-1.039,0.334-1.546
			C242.114,872.506,241.57,871.358,241.089,870.512"/>
		<path fill="#0F437C" d="M207.508,828.168c-0.634-1.586-2.449-6.134,0.354-10.031c1.069-1.301,0.576-2.708,0.397-3.103
			c-0.179-0.394-0.916-1.689-2.77-1.656h-0.103l-0.109,0.009c-5.698,0.564-8.852,7.23-12.191,14.281
			c-0.346,0.721-0.762,1.494-1.16,2.253c-0.153-0.029-0.301-0.087-0.456-0.105c-0.55-0.061-1.069,0.003-1.596,0.061
			c-0.019-0.094-0.013-0.179-0.038-0.273c-0.122-0.337-0.391-0.596-0.628-0.868c0.462-0.116,1.038-0.266,1.038-0.266
			c1.564-0.41,2.136-2.032,2.308-2.717c0.116-0.458,0.173-0.92,0.173-1.378c0-1.042-0.295-2.051-0.878-2.936
			c-0.922-1.397-2.449-2.333-4.186-2.561c-3.34-0.443-6.967,2.353-8.454,6.185c-1.199,1.362-2.571,2.333-3.904,2.997
			c-0.339-2.728-2.032-4.695-4.52-5.137c-2.705-0.484-5.473,1.003-6.596,3.525c-0.045,0.099-0.064,0.215-0.108,0.32
			c-0.546-0.936-1.276-1.711-2.256-2.103c-7.173-2.871-12.635,5.801-17.449,13.448c-1.924,3.052-3.735,5.933-5.479,7.9
			c-0.146,0.162-0.215,0.197-0.332,0.307c0.044-0.503,0.162-1.118,0.514-1.875c0.036-0.089,6.581-15.611,6.581-15.611l-9.042,0.903
			c0,0-0.101,0.263-0.167,0.446c-0.824-0.417-1.719-0.76-2.764-0.894c-8.064-1.026-13.034,6.144-15.002,13.194
			c-0.115,0.369-0.813,1.772-1.464,2.93c-2.62,4.656-4.863,5.955-5.743,6.035c-0.07-0.25-0.135-0.495-0.135-0.892
			c0-2.471,1.216-7.5,2.566-10.836c0.208-0.576,0.291-1.09,0.291-1.531c0-1.183-0.591-1.888-0.914-2.186
			c-0.695-0.648-1.927-1.087-3.298-0.379c-1.531,0.917-3.063,1.452-4.498,1.799c0.016-0.228,0.081-0.481,0.081-0.695
			c0-0.628-0.081-1.195-0.264-1.686c-0.86-2.311-2.582-3.83-4.719-4.173c-2.155-0.343-4.358,0.577-5.764,2.4
			c-0.923,1.192-1.392,2.615-1.392,4.121c0,0.942,0.183,1.918,0.557,2.885c0.356,0.909,0.98,1.769,1.724,2.569
			c-0.826,1.696-1.768,3.522-2.706,5.174c-2.748,4.843-5.28,8.314-8.74,11.967c-0.146,0.15-0.251,0.298-0.36,0.446
			c0.094-0.251,0.191-0.502,0.279-0.761c0.729-2.188,1.077-4.4,1.077-6.577c0-4.557-1.616-8.89-4.551-12.457
			c4.521-3.579,7.278-8.771,7.278-14.21c0-1.071-0.129-2.148-0.34-3.218c0.664-0.218,1.324-0.436,2.04-0.654
			c2.517-0.648,2.311-2.91,2.279-3.164c-0.036-0.256-0.393-2.487-3.071-2.449c-1.328,0.02-2.614,0.106-3.877,0.234
			c-2.659-3.599-7.267-6.422-14.256-6.4c-7.492,0.164-11.965,4.147-14.402,7.461c-3.337,4.535-4.377,9.772-3.676,12.596l0.37,1.491
			l1.521,0.551c0.931,0.292,1.925,0.064,2.658-0.608c2.215-1.802,3.561-2.288,3.88-2.321l0.329-0.033
			c-3.791,5.128-6.095,11.519-8.311,17.717c-2.323,6.49-4.517,12.625-8.039,15.9L44,864.559l0.267,1.495
			c0.296,1.689,0.513,5.298,0.356,8.937c-0.02,1.271,0.549,2.298,1.511,2.814c0.96,0.519,2.088,0.41,3.014-0.273
			c5.949-4.458,9.973-16.622,13.517-27.357c1.471-4.438,2.879-8.679,4.181-11.602c-0.168,0.776-0.174,1.593,0.007,2.395
			c0.832,3.163,3.479,4.823,6.602,4.205c0,0,0.297-0.135,0.64-0.291c0.957,1.46,1.477,3.585,1.477,5.918
			c0,1.817-0.31,3.758-0.951,5.581c-0.834,2.361-3.455,7.835-9.832,7.696c-1.385-0.037-2.817-0.646-3.098-0.793
			c-1.631-0.956-3.108-0.254-3.775,0.807c-0.688,1.104-0.629,2.786,0.812,3.87c-0.147-0.12,0.085,0.089,0.085,0.089
			c1.39,1.253,4.65,4.191,11.115,3.939c5.413-0.233,10.475-4.058,13.236-9.775c-0.008,0.077-0.028,0.156-0.028,0.228
			c0,0.843,0.398,1.465,0.595,1.718c0.714,0.93,2.206,1.605,4.071,0.445c1.047-0.65,2.447-1.574,3.96-2.965
			c2.564-2.355,5.093-5.603,7.952-10.21c0.134-0.216,1.59-2.581,3.015-5.542c0.311,0.004,0.636-0.014,0.957-0.032
			c-0.713,2.09-1.459,4.627-1.459,7.024c0,2.681,0.935,5.147,3.897,6.487c3.33,1.511,8.75,0.25,13.885-5.257
			c1.204,1.597,2.867,2.635,4.96,2.84c2.067,0.07,4.276-0.945,5.949-2.128c1.232,0.888,2.924,1.733,5.18,1.493
			c3.302-0.339,6.584-2.903,10.044-7.823l2.031-3.112c2.032-3.195,5.078-7.944,7.455-10.441c-0.173,0.471-0.372,0.983-0.763,1.641
			c-1.994,3.361-3.891,6.849-3.891,9.852c0,0.702,0.103,1.381,0.339,2.025c0.526,1.471,1.68,2.57,3.237,3.086
			c6.377,2.125,13.114-3.352,18.269-14.599c0.646-0.186,1.288-0.4,1.924-0.666c-0.738,1.583-1.213,3.087-1.213,4.394
			c0,2.229,0.911,4.013,2.148,5.215c3.185,3.07,8.768,2.899,12.915-0.103c1.782,1.009,3.872,1.628,6.091,1.663
			c4.801,0.077,9.031-2.119,11.602-6.012C208.828,837.584,209.283,832.624,207.508,828.168 M63.565,827.057
			c-0.036-0.62-0.116-3.814,1.789-5.814c1.224-1.279,3.138-1.868,5.688-1.756c0.597,0.025,1.55,0.222,2.561,0.654
			c-3.846,1.725-7.2,4.169-10.019,7.24L63.565,827.057z M68.274,835.887c0.034-0.046,0.063-0.109,0.096-0.155l0.524-0.724
			c1.673-2.33,3.634-5.038,9.324-7.974c-0.019,1.442-0.379,4.577-2.845,7.627l-0.031,0.042c-0.086,0.109-0.201,0.205-0.314,0.305
			c-2.198-1.097-4.531-0.976-6.268,0.423C68.588,835.572,68.429,835.726,68.274,835.887z M200.515,831.909
			c-0.212,4.484-2.847,5.98-5.275,6.471c1.654-2.525,3.064-5.157,4.314-7.5c0.256-0.465,0.512-0.939,0.769-1.41
			c0.09,0.544,0.219,1.06,0.219,1.688C200.541,831.399,200.534,831.65,200.515,831.909z M183.939,840.335
			c-0.597,0.211-1.161,0.301-1.449,0.048c-0.191-0.164-0.274-0.427-0.274-0.764c0-0.465,0.172-1.066,0.513-1.717
			c0.242-0.478,0.607-0.939,1.024-1.376c-0.064,0.407-0.257,0.82-0.257,1.231C183.496,838.633,183.669,839.491,183.939,840.335z
			 M187.626,827.679c0,0,0.159,0.176,0.249,0.272c-0.57-0.154-1.161-0.266-1.916-0.007l0.052-0.009
			c-0.033,0.003-0.071-0.017-0.109-0.029c-0.008-0.029-0.02-0.061-0.02-0.094c0-0.599,0.334-1.215,0.731-1.547
			c0.146-0.118,0.237-0.169,0.352-0.24C187.041,826.838,187.4,827.428,187.626,827.679z M163.658,835.004
			c0.199-0.439,0.275-0.784,0.416-1.188c0.071,0.141,0.097,0.308,0.167,0.436c0.328,0.592,0.827,0.987,1.288,1.424
			c-1.998,3.625-3.916,5.965-5.102,6.724c0.41-1.492,1.558-3.903,2.27-5.378L163.658,835.004z M127.589,848.023
			c-0.104,0.046-0.197,0.087-0.476-0.034c-0.14-0.065-0.546-1.081-0.114-3.257c0.835-4.16,3.531-7.537,4.849-7.537
			c0.167,0,0.192,0.04,0.21,0.069c0.095,0.141,0.178,0.451,0.178,0.952c0,0.705-0.174,1.789-0.752,3.288
			C129.421,846.889,127.98,847.857,127.589,848.023z"/>
		<path fill="#CD1141" d="M205.054,829.207c-0.647-1.615-3.091-7.474,0.673-12.702c0.212-0.263,0.198-0.397-0.192-0.391
			c-4.147,0.411-6.833,5.929-10.063,12.759c-0.686,1.429-1.474,2.935-2.312,4.425c-1.147-0.971-4.916-1.73-6.493,2.039
			c-0.918,2.189-0.52,4.275,0.705,5.933c-0.32,0.314-0.647,0.622-0.969,0.886c-3.833,3.089-8.844-0.126-6.012-5.556
			c1.391-2.662,4.82-4.752,6.134-5.278c0.635-0.247,1.32-1.138,0.282-0.779c-1.257,0.438-3.045-0.256-3.41-1.563
			c-0.539-1.875,0.308-3.811,1.551-4.85c3.153-2.622,4.986-0.083,4.66,1.426c-0.179,0.555,0.218,0.145,0.378-0.49
			c0.455-1.8-0.917-3.243-2.654-3.474c-2.313-0.301-5.158,2.164-5.974,5.144c-2.68,3.137-6.391,4.862-9.333,5.167
			c0.474-1.41,0.764-2.654,0.699-3.317c-0.34-3.993-4.923-3.692-6.115-0.997c-1.172,2.622-0.808,6.554,2.506,7.038
			c-2.486,5.142-6.685,11.605-9.858,10.891c-3.774-0.862-0.229-6.862,2.007-11.694c1.782-3.843,1.039-6.032-0.398-6.606
			c-7.422-2.968-13.812,13.649-20.005,20.643c-3.955,4.462-6.354,0.1-4.173-4.596l4.74-11.252l-2.938,0.294l-0.948,2.447
			c-0.382-0.978-1.893-2.448-4.176-2.74c-6.424-0.818-10.479,5.326-12.124,11.229c-0.226,0.801-1.38,2.93-1.72,3.545
			c-3.37,5.996-7.02,8.33-9.483,7.141c-3.19-1.542,0.238-12.329,1.426-15.262c0.21-0.59,0.092-0.782-0.288-0.59
			c-2.778,1.67-6.31,2.641-9.103,2.502c0.709-1.963,1.088-3.672,0.756-4.554c-1.824-4.919-8.334-1.84-6.366,3.233
			c0.421,1.099,1.302,2.147,2.547,2.884c-1.101,2.382-2.5,5.135-3.706,7.263c-3.176,5.593-5.912,9.096-9.132,12.496
			c-0.805,0.851-0.104,0.583,0.267,0.356c1.114-0.699,2.296-1.507,3.56-2.664c2.428-2.237,4.859-5.416,7.48-9.643
			c1.011-1.628,2.472-4.347,3.631-6.993c1.061,0.241,2.264,0.304,3.618,0.061c0.755-0.134,2.176-0.77,2.747-1.028
			c0.156-0.073,0.203,0.128,0.203,0.128c-0.287,2.741-5.834,12.32-0.484,14.746c2.988,1.353,8.631-0.656,13.562-7.894
			c0.354,2.868,1.763,4.993,4.458,5.25c2,0.067,4.831-1.76,5.688-2.933c1.611,1.469,5.626,6.221,13.087-4.404
			c1.791-2.551,6.402-10.493,9.947-14.098c3.725-3.781,6.551-0.426,3.191,5.221c-2.436,4.111-5.473,9.698-1.763,10.932
			c6.122,2.031,12.052-6.102,15.608-14.341c4.024-0.622,8.858-4.327,10.179-5.687c0.096,0.946,0.615,2.241,1.481,2.664
			c-1.699,1.278-3.5,2.65-4.514,3.967c-6.154,8.736,3.647,12.768,9.614,7.644c0.263-0.221,0.507-0.472,0.764-0.712
			c1.563,1.343,3.775,2.195,6.231,2.233C203.002,844.84,208.065,836.773,205.054,829.207 M97.896,838.665
			c-1.917-3.15,3.141-5.09,3.036-1.563c-0.014,0.455-0.422,1.599-1.048,3.069C99.022,839.856,98.326,839.367,97.896,838.665z
			 M133.954,842.511c-2.251,5.878-4.754,9.384-7.891,7.986c-4.838-2.149,0.374-16.041,5.783-16.038
			C134.215,834.459,136.096,836.925,133.954,842.511z M170.158,827.412c1.224,0.469,1.224,1.792,0.146,4.513
			c-0.468-0.055-0.903-0.148-1.281-0.304C166.946,830.774,168.189,826.665,170.158,827.412z M187.798,835.828
			c1.372-2.803,3.391-1.369,3.993-0.266c-0.967,1.528-1.981,2.975-3.024,4.206C187.567,838.742,187.067,837.328,187.798,835.828z
			 M203.162,832.12c-0.321,7.004-5.501,8.781-8.243,9.138c-1.756,0.225-3.398-0.029-4.699-0.596
			c5.275-6.188,8.538-15.387,11.141-17.602C201.188,824.8,203.515,827.424,203.162,832.12z"/>
		<path fill="#CD1141" d="M84.386,821.451c1.404-0.503,2.891-1.009,4.549-1.522c0.379-0.096,0.672-0.253,0-0.244
			c-1.534,0.023-3.304,0.129-5.195,0.391c-2.13-3.823-6.427-6.577-12.964-6.554c-12.337,0.266-16.45,12.852-15.511,16.634
			c0.017,0.063,0.112,0.154,0.21,0.063c2.304-1.875,4.233-2.906,5.442-3.003c-0.19-3.327,0.962-10.884,10.242-10.468
			c2.081,0.096,5.636,1.247,7.838,4.311c-5.143,1.439-10.644,4.311-15.049,9.973c-7.935,10.206-9.39,27.393-17.067,34.533
			c0.359,2.067,0.554,5.942,0.396,9.544c-0.008,0.388,0.202,0.282,0.317,0.195c8.662-6.493,13.687-34.446,18.658-41.225
			c2.233-3.051,4.483-6.881,13.871-10.951c0.327,0.814,0.576,1.708,0.708,2.717c0.232,1.856-0.096,6.458-3.418,10.567
			c-0.757,0.978-2.068,1.788-2.449,1.718c-0.485-0.397-0.425-0.271-0.967-0.644c-2.876-1.536-5.048,0.729-4.561,2.846
			c0.374,1.423,1.533,2.535,3.52,2.146c0.609-0.121,1.632-1.034,1.83-0.87c6.884,5.694,3.41,25.498-10.055,25.203
			c-2.042-0.054-3.988-0.933-4.325-1.131c-0.326-0.199-0.333-0.1-0.12,0.06c1.092,0.95,3.696,3.733,9.543,3.508
			c10.901-0.472,18.704-18.682,6.851-29.012C84.259,836.142,86.917,827.746,84.386,821.451"/>
		<path fill="#0F437C" d="M239.294,871.593c-0.628-0.67-0.603-1.052-0.545-1.734c0.032-0.465,0.084-1.042-0.083-1.795
			c-0.257-1.217-0.987-2.202-1.686-3.157l-0.922-1.368l-0.565-1.32c-0.301-0.823-0.608-1.679-1.596-2.692
			c-0.084-0.092-0.16-0.179-0.237-0.265l-0.833-1.052c2.699-0.794,4.487-2.141,4.897-3.736c0.237-0.914-0.025-1.823-0.712-2.503
			c-0.98-0.978-3.142-1.648-6.281-0.738c-0.007-0.013-0.02-0.025-0.02-0.041c-0.25-0.529-0.622-1.064-1.006-1.593
			c-0.039-0.058-0.084-0.122-0.122-0.18c-0.219-0.317-0.513-0.767-0.718-1.116c-0.115-0.247-0.204-0.474-0.19-0.656
			c0.198-2.872-0.988-4.225-1.86-5.211c-0.384-0.436-0.717-0.814-0.819-1.205c-0.116-0.43-0.116-1.051-0.122-1.772
			c-0.013-1.9-0.032-4.506-2.083-6.561c-1.288-1.298-1.609-2.093-1.968-3.009l-0.384-0.906c-0.136-0.334-0.674-0.766-0.898-0.934
			l-0.321-0.237l-0.217,0.337c-0.809,1.259-0.917,2.535-1.014,3.65l-0.205,1.577c-0.236,0.979-0.801,1.535-1.404,2.121l-0.813,0.879
			l-0.167,0.21c-0.75,0.942-1.052,1.484-1.052,5.532c0,1.895-0.308,2.256-0.846,2.913l-0.308,0.382
			c-0.577,0.741-0.609,1.91-0.635,3.144l-0.116,1.853c-0.031,0.24-0.07,0.462-0.109,0.667l-0.219,0.865
			c-0.006,0.007-0.006,0.007-0.006,0.011c0,0.003,0,0.01,0,0.01c-0.243,0.766-0.551,1.197-0.903,1.509
			c-0.038,0.029-0.078,0.059-0.109,0.073c-0.236,0.037-2.609,0.376-6.448,0.931l-0.641,0.083c-0.014,0-0.014,0.014-0.019,0.014
			c-2.417,0.346-5.354,0.772-8.642,1.247c-0.006,0-0.006-0.004-0.006-0.004l-1.73,0.254c-18.524,2.672-47.056,6.781-61.715,8.893
			c-0.031,0-0.058-0.018-0.09-0.017l-1.89,0.305c-4.619,0.668-7.437,1.07-7.437,1.07c-2.986,0.401-3.884,2.526-3.751,3.772
			c0.113,1.041,0.457,4.22,4.405,3.878c0.415-0.032,2.772-0.363,6.45-0.895c0.02,0,0.032,0.01,0.054,0.01l1.96-0.304
			c12.737-1.847,37.2-5.484,55.673-8.237l0.174-0.016l0.993-0.157c7.577-1.13,14.057-2.097,18.153-2.708
			c0.03,0.006,0.063,0.014,0.088,0.006l2.866-0.441c0.006,0,0.006-0.007,0.013-0.01c0.448-0.066,0.827-0.119,1.102-0.163
			c-0.089,0.937-0.377,1.927-0.73,2.983c-0.48,1.413-0.988,2.938-0.988,4.548c0,1.192,0.314,2.437,1.097,3.728
			c-0.038,0.08-0.103,0.253-0.103,0.253c-0.706,1.142-1.006,1.875-1.108,2.719c-0.045,0.381-0.064,0.74-0.064,1.077
			c0,1.355,0.378,2.34,1.121,2.909c1.097,0.849,2.937,0.709,5.449-0.395c3.378,0.896,7.339,0.456,10.698-1.166
			c1.795,1.233,4.647-0.472,6.211-1.42l0.385-0.229c0.77-0.456,1.461-0.396,2.135-0.344l1.18-0.01l0.397-0.076
			c1.128-0.213,2.186-0.407,2.563-1.258C240.192,873.725,239.999,872.839,239.294,871.593 M130.377,872.316
			c-3.604,0.52-5.903,0.84-6.307,0.875c-2.847,0.243-3.417-1.573-3.591-3.189c-0.007-0.048-0.007-0.099-0.007-0.153
			c0-0.772,0.53-2.416,3.103-2.757l6.109-0.882c0.505,0.382,0.933,1.308,1.122,2.479
			C131.041,870.144,130.865,871.563,130.377,872.316z M185.144,864.221c-17.166,2.558-38.424,5.715-50.818,7.521
			c0.449-1.102,0.451-2.584,0.271-3.675c-0.163-1.021-0.49-1.851-0.908-2.434l50.796-7.322
			C184.862,859.917,185.195,861.722,185.144,864.221z M188.676,861.121c-0.128-1.25-0.347-2.326-0.583-3.329l3.325-0.48
			L188.676,861.121z M191.572,863.263l2.231-3.146c0.09,0.844,0.142,1.756,0.122,2.795
			C193.156,863.026,192.374,863.141,191.572,863.263z M197.534,862.371c0.019-1.031-0.032-1.942-0.122-2.778l2.559,2.416
			C199.182,862.125,198.368,862.25,197.534,862.371z M202.027,858.766c-0.378-0.35-1.93-1.779-2.8-2.583l5.051-0.728
			C203.578,856.478,202.321,858.333,202.027,858.766z M207.258,860.919c-0.865,0.132-1.839,0.273-2.903,0.434l2.725-3.63
			C207.207,858.627,207.284,859.673,207.258,860.919z M236.493,852.532c0.366,0.366,0.558,0.806,0.558,1.279
			c0,0.151-0.02,0.308-0.058,0.461c-0.346,1.346-2.069,2.538-4.596,3.238c-0.218-0.296-0.423-0.703-0.597-1.122
			c-0.077-0.184-0.141-0.365-0.191-0.532c0-0.019-0.019-0.026-0.025-0.042c-0.159-0.436-0.275-0.83-0.34-1.08
			c-0.109-0.459-0.18-0.883-0.219-1.257c-0.024-0.34-0.03-0.657-0.03-0.923c0,0-0.015-0.112-0.039-0.257c0-0.057,0-0.118,0-0.162
			c0-0.008,0-0.02,0-0.029v-0.032c0-0.032-0.014-0.061-0.02-0.089C233.764,851.167,235.66,851.707,236.493,852.532z
			 M230.327,854.026c0.032,0.246,0.077,0.494,0.142,0.753c0,0.006,0.007,0.013,0.007,0.019s0,0.01,0,0.017
			c0.007,0.01,0.007,0.019,0.007,0.025c0.057,0.247,0.127,0.5,0.205,0.757c-0.488-0.011-0.937-0.105-1.347-0.28
			C229.667,854.901,229.994,854.472,230.327,854.026z M229.379,850.491c-0.781,1.105-1.705,2.295-2.788,3.452
			c-0.854-0.458-2.251-1.545-3.174-2.429c0.313-0.046,0.628-0.094,0.942-0.142L229.379,850.491z M228.02,858.292
			c-0.448,0.003-0.872-0.013-1.243-0.052c0.108-0.112,0.225-0.219,0.34-0.33C227.404,858.061,227.705,858.189,228.02,858.292z
			 M216.597,855.311c-0.069-0.72-0.236-1.367-0.479-1.864c-0.058-0.118-0.136-0.211-0.205-0.327
			c1.076-0.353,2.211-0.645,3.377-0.887c1.481,1.503,3.603,3.178,4.853,4.018c-0.365,0.299-0.744,0.584-1.134,0.862l-0.962-0.329
			C220.487,856.237,218.393,855.522,216.597,855.311z M218.949,859.292c-1.128,0.438-2.34,0.794-3.647,1.019
			c0.403-0.666,0.699-1.313,0.904-1.945c0.673,0.1,1.327,0.354,1.955,0.616C218.417,859.093,218.681,859.195,218.949,859.292z
			 M214.315,848.574c0.025-1.103,0.045-2.145,0.469-2.676l0.294-0.365c0.668-0.808,1.02-1.33,1.02-3.416
			c0-3.933,0.295-4.301,0.885-5.035l0.174-0.224l0.749-0.796c0.614-0.609,1.32-1.298,1.615-2.5l0.218-1.695
			c0.083-0.945,0.23-1.917,0.725-2.878c0.141,0.128,0.257,0.25,0.281,0.308c0.013,0.022,0.378,0.887,0.378,0.887
			c0.379,0.956,0.731,1.856,2.142,3.267c1.826,1.832,1.839,4.149,1.853,6.012c0.006,0.772,0.013,1.439,0.147,1.965
			c0.142,0.577,0.559,1.038,0.993,1.531c0.757,0.856,1.68,1.908,1.68,4.058c0,0.18,0,0.372-0.019,0.574c0,0.028,0,0.061,0,0.09
			l-3.514,0.603c0.879-2.136,0.258-4.788-0.635-6.548c-0.096-0.192-0.32-0.262-0.513-0.159c-0.179,0.096-0.249,0.332-0.153,0.522
			c0.878,1.739,1.48,4.413,0.378,6.343l-0.628,0.105c-2.962,0.438-6,0.906-8.647,1.777L214.315,848.574z M211.488,860.287
			c-0.166,0.026-0.378,0.055-0.615,0.098c0.032-2.363-0.282-4.058-0.692-5.779l1.66-0.237c0.024,0.003,0.045,0.029,0.071,0.029
			c0.455,0,0.743,0.182,0.922,0.576C213.367,856.138,212.713,858.676,211.488,860.287z M239.218,874.05
			c-0.218,0.471-1.084,0.635-2.012,0.812l-0.404,0.077h-0.975c-0.717-0.062-1.602-0.127-2.57,0.439l-0.391,0.236
			c-1.366,0.827-4.199,2.545-5.558,1.379l-0.187-0.164l-0.224,0.106c-1.226,0.614-5.615,2.505-10.501,1.156l-0.128-0.031
			l-0.121,0.054c-2.274,1.019-3.937,1.204-4.813,0.532c-0.699-0.542-0.949-1.638-0.75-3.269c0.084-0.716,0.353-1.362,0.987-2.395
			l0.314-0.851l-0.127-0.07c-1.789-2.762-0.942-5.303-0.122-7.762c5.308-0.24,9.025-1.404,12.097-3.499
			c3.159,0.798,7.274,0.674,9.998-0.295c0.571,0.709,0.82,1.337,1.052,1.984l0.615,1.429l0.987,1.462
			c0.646,0.888,1.321,1.802,1.552,2.853c0.069,0.343,0.095,0.642,0.095,0.918c0,0.229-0.019,0.448-0.031,0.644
			c-0.02,0.186-0.033,0.371-0.033,0.555c0,0.538,0.122,1.082,0.737,1.711c0.373,0.685,0.571,1.25,0.571,1.653
			C239.275,873.845,239.257,873.954,239.218,874.05z"/>
		<path fill="#0F437C" d="M219.213,842.344c0.083,0.196,0.006,0.427-0.192,0.519c-0.77,0.376-1.423,1.289-1.614,2.276
			c-0.188,0.955,0.058,1.881,0.691,2.611c0.142,0.16,0.129,0.403-0.024,0.552c-0.154,0.142-0.393,0.128-0.533-0.036
			c-0.801-0.913-1.108-2.08-0.878-3.284c0.242-1.231,1.045-2.341,2.038-2.824C218.892,842.068,219.116,842.151,219.213,842.344"/>
		<path fill="#0F437C" d="M231.27,861.77c0.205,0.014,0.365,0.191,0.36,0.406c-0.026,0.488,0.582,0.978,1.288,1.551
			c1.236,1.008,2.936,2.385,2.224,4.923c-0.057,0.205-0.27,0.321-0.469,0.266c-0.205-0.061-0.313-0.278-0.256-0.484
			c0.57-2.028-0.717-3.078-1.967-4.089c-0.834-0.679-1.623-1.32-1.578-2.211C230.886,861.92,231.059,861.756,231.27,861.77"/>
		<path fill="#0F437C" d="M235.218,870.269c-0.115,0.513-0.282,0.628-0.417,0.666l-0.782-0.012l-0.852-0.047
			c-0.533,0.062-1.063,0.293-1.476,0.625l-1.32,1.056l-0.308,0.128c-0.557,0.128-1.108,0.087-1.68-0.131
			c-0.198-0.074-0.41,0.025-0.486,0.227c-0.071,0.202,0.031,0.427,0.23,0.501c0.712,0.275,1.397,0.327,2.102,0.163l0.596-0.266
			l1.334-1.063c0.302-0.248,0.706-0.42,1.09-0.466l0.661,0.042l1.108-0.01c0.706-0.211,0.879-0.984,0.936-1.236
			c0.046-0.209-0.083-0.417-0.281-0.466C235.469,869.933,235.264,870.063,235.218,870.269 M231.691,871.503L231.691,871.503z"/>
		<path fill="#0F437C" d="M224.475,863.279c0.827,1.329,0.885,3.047,0.173,4.706c-0.154,0.35,0.007,0.715,0.558,1.305
			c0,0,0.192,0.177,0.16,0.35c-0.031,0.17-0.045,0.313-0.218,0.33c-0.121,0.01-0.32,0.024-0.487-0.142
			c-0.359-0.388-1.121-1.195-0.711-2.157c0.621-1.42,0.575-2.872-0.109-3.978c-0.116-0.179-0.065-0.423,0.109-0.541
			C224.135,863.038,224.365,863.094,224.475,863.279"/>
		<path fill="#0F437C" d="M216.61,864.484c0.73,0.743,0.487,1.846-0.142,2.554l-0.928,0.801c-0.841,0.622-1.341,1.045-1.117,1.826
			c0.058,0.212-0.057,0.425-0.256,0.483c-0.205,0.059-0.41-0.056-0.468-0.264c-0.385-1.353,0.602-2.087,1.39-2.677l0.827-0.698
			c0.211-0.241,0.654-0.972,0.16-1.472c-0.147-0.151-0.147-0.395,0-0.545C216.225,864.333,216.463,864.333,216.61,864.484"/>
		<path fill="#0F437C" d="M214.796,873.467c0.333,0.904,1.264,1.43,2.108,1.195l1.078-0.486l1.128-0.517
			c0.448-0.142,0.851-0.006,1.211,0.117c0.289,0.096,0.532,0.179,0.737,0.107l0.313-0.099l-0.013,0.013
			c0.013-0.013,0.52-0.197,0.654-0.07c0.358,0.341-0.167,0.583-0.013,0.48l-0.597,0.383l-0.091,0.024
			c-0.447,0.167-0.864,0.025-1.23-0.1c-0.288-0.096-0.538-0.179-0.755-0.112l-0.994,0.462c0,0-1.23,0.552-1.236,0.552
			c-1.219,0.336-2.538-0.397-3.006-1.67c-0.078-0.201,0.019-0.427,0.218-0.504C214.507,873.17,214.726,873.265,214.796,873.467"/>
		<path fill="#0F437C" d="M221.68,833.797c0.193,0.088,0.276,0.32,0.193,0.516c-0.359,0.837-0.328,1.974,0.076,2.968
			c0.314,0.763,0.795,1.314,1.334,1.522c0.192,0.073,0.295,0.298,0.218,0.5c-0.069,0.202-0.288,0.301-0.479,0.231
			c-0.744-0.288-1.372-0.981-1.77-1.948c-0.481-1.19-0.506-2.562-0.064-3.584C221.27,833.8,221.488,833.709,221.68,833.797"/>
		<path fill="#EEB210" d="M223.789,849.174c0.014,0,0.019,0,0.024-0.003c1.36-0.231,3.905-0.667,4.276-0.73
			c0.014,0.024,0.032,0.054,0.045,0.079c0.18,0.414,0.463,0.837,0.776,1.276c-0.936,0.157-4.66,0.804-4.66,0.804
			c-0.892,0.132-1.782,0.273-2.68,0.417c-1.295,0.208-1.994,0.337-2.25,0.423c-1.353,0.283-2.68,0.604-3.916,1.035
			c-0.41-0.41-0.896-0.665-1.441-0.752c0.045-0.177,0.083-0.353,0.122-0.542c2.658-0.929,5.813-1.406,8.877-1.865
			C222.963,849.315,223.295,849.261,223.789,849.174"/>
		<path fill="#EEB210" d="M233.153,859.843c-2.41,0.77-5.736,0.897-8.55,0.33c0.076-0.058,0.166-0.131,0.242-0.196
			c0.109-0.086,0.218-0.165,0.328-0.253c0.333-0.27,0.666-0.551,0.936-0.811c1.487,0.32,4.48,0.095,5.961-0.436
			c0.295,0.438,0.642,0.881,1.039,1.316C233.129,859.814,233.148,859.837,233.153,859.843"/>
		<path fill="#EEB210" d="M205.771,855.241c0.263-0.033,0.563-0.067,0.781-0.094c0.052,0.231,0.18,0.777,0.275,1.164
			c0.025,0.118,0.046,0.249,0.076,0.371c-0.269,0.35-3.447,4.593-3.621,4.824c-0.25,0.037-2.077,0.308-2.365,0.345
			c-0.237-0.221-3.429-3.243-3.68-3.477c-0.109-0.635-0.236-1.237-0.371-1.826c0.449-0.071,1.166-0.177,1.392-0.208
			c0.242,0.225,3.589,3.301,3.589,3.301c0.07,0.073,0.18,0.105,0.29,0.096c0.108-0.014,0.205-0.076,0.269-0.167
			c0,0,2.743-4.035,2.896-4.26"/>
		<path fill="#EEB210" d="M196.093,856.639l0.364,1.719c0.192,1.073,0.327,2.23,0.327,3.631c0,0.156,0,0.32,0,0.48
			c-0.417,0.062-1.558,0.239-2.102,0.326c0-0.124,0.006-0.26,0.006-0.381c0-1.244-0.103-2.304-0.261-3.288
			c-0.014-0.157-0.059-0.42-0.116-0.714c-0.045-0.208-0.084-0.413-0.122-0.612c-0.071-0.314-0.135-0.615-0.191-0.855
			c0.186-0.029,0.448-0.067,0.73-0.109"/>
		<path fill="#EEB210" d="M185.233,858.221c0.519-0.076,1.647-0.239,2.096-0.308c0.341,1.431,0.648,3.004,0.686,5.042v0.836
			c-0.417,0.059-1.577,0.22-2.114,0.293c0-0.138,0.007-0.275,0.007-0.404C185.907,861.414,185.586,859.73,185.233,858.221"/>
		<path fill="#EEB210" d="M188.771,863.68c0.007-0.35,0.007-0.689-0.005-1.016c0-0.164,0-0.299,0-0.368
			c0.14-0.193,3.513-4.876,3.691-5.129c0.173-0.021,0.474-0.057,0.781-0.096c0.09,0.423,0.34,1.66,0.398,1.952
			c-0.198,0.292-2.93,4.145-3.103,4.384c-0.142,0.022-0.623,0.1-1.097,0.178C189.221,863.615,189.003,863.647,188.771,863.68"/>
		<path fill="#EEB210" d="M208.015,860.809c0-0.119,0.007-0.241,0.007-0.356c0-1.475-0.142-2.654-0.334-3.672
			c0.007-0.036,0.007-0.068,0-0.106c-0.166-0.823-0.282-1.312-0.364-1.629c0.519-0.076,1.653-0.239,2.101-0.304
			c0.386,1.603,0.707,3.167,0.707,5.295c0,0.147-0.007,0.301-0.015,0.458C209.533,860.584,208.835,860.687,208.015,860.809"/>
		<path fill="#EEB210" d="M227.937,857.016c0.046-0.051,0.09-0.104,0.142-0.159c0.281-0.32,0.635-0.73,0.801-0.917
			c0.622,0.295,1.32,0.458,2.07,0.431c0.09,0.225,0.192,0.45,0.295,0.682c0.083,0.183,0.174,0.356,0.27,0.525
			c0.014,0.025,0.031,0.055,0.044,0.084c0.014,0.018,0.02,0.038,0.026,0.055c-1.135,0.201-2.59,0.169-3.885-0.431
			C227.731,857.247,227.821,857.145,227.937,857.016"/>
		<path fill="#EEB210" d="M220.084,858.798c-0.532-0.087-1.07-0.298-1.641-0.538c-0.636-0.266-1.301-0.498-2.013-0.62
			c0.122-0.537,0.18-1.047,0.186-1.538c1.699,0.223,3.687,0.898,5.18,1.421c0,0,0.219,0.069,0.397,0.13
			c-0.653,0.41-1.346,0.789-2.069,1.135C220.116,858.792,220.097,858.798,220.084,858.798"/>
		<path fill="#EEB210" d="M224.757,855.725c-1.052-0.68-3.026-2.221-4.544-3.68c0.397-0.073,0.794-0.141,1.192-0.208
			c0.327-0.054,0.685-0.109,1.102-0.169c0.802,0.868,2.391,2.166,3.521,2.83c-0.393,0.385-1.045,1.024-1.045,1.024
			s-0.085,0.074-0.168,0.157C224.795,855.692,224.777,855.709,224.757,855.725"/>
		<path fill="#EEB210" d="M213.726,852.494c0.532,0.058,1.013,0.308,1.378,0.763l0.019,0.025c0.116,0.151,0.225,0.32,0.321,0.513
			c0.269,0.555,0.423,1.263,0.43,2.062c0,0.021,0,0.045,0,0.064c0,0.311-0.032,0.63-0.083,0.967c0,0.042-0.015,0.083-0.02,0.122
			c-0.192,1.084-0.654,2.266-1.469,3.432c-0.159,0.019-0.327,0.05-0.493,0.064c-0.025,0-0.052,0.003-0.084,0.003
			c-0.404,0.038-0.82,0.052-1.242,0.064v-0.434l-0.014,0.003c0.756-1.224,1.308-2.791,1.308-4.121c0-0.512-0.078-0.987-0.257-1.381
			c-0.155-0.326-0.371-0.574-0.635-0.75C213.231,853.529,213.508,853.074,213.726,852.494"/>
		<path fill="#EEB210" d="M212.136,862.698c0.129-0.441,0.231-0.881,0.29-1.313c0-0.01,0-0.017,0-0.021
			c0.531-0.014,1.551-0.052,2.186-0.174c0.018,0,0.031-0.024,0.051-0.031c2.065-0.27,3.909-0.821,5.557-1.575
			c0.52-0.15,2.168-1.058,3.064-1.73c0,0,0-0.003,0.007-0.009c0.597-0.414,1.161-0.855,1.692-1.308
			c0.025-0.017,0.058-0.017,0.076-0.036l0.424-0.394l0.032-0.039c1.756-1.577,3.161-3.301,4.302-4.888
			c0.121,0.187,0.242,0.392,0.314,0.609c0.037,0.112,0.069,0.225,0.069,0.327c0,0.019,0,0.587,0,0.788
			c-0.014,0.021-0.032,0.053-0.032,0.053c-4.749,6.572-8.962,10.033-18.249,10.534C211.996,863.243,212.072,862.978,212.136,862.698
			"/>
		<path fill="#EEB210" d="M132.73,865.743c0.503,0.381,0.931,1.288,1.123,2.451c0.069,0.439,0.104,0.882,0.104,1.295
			c0,0.996-0.214,1.855-0.573,2.381c-0.252,0.041-1.423,0.222-2.178,0.333c0.283-0.679,0.459-1.451,0.459-2.25
			c0-0.489-0.046-0.971-0.114-1.394c-0.174-1.087-0.563-1.875-1.03-2.464C131.26,865.98,132.472,865.785,132.73,865.743"/>
		<path fill="#0F437C" d="M213.796,814.637h-1.032v2.903h-0.698v-2.903h-1.031v-0.628h2.762 M218.476,817.542h-0.698v-2.811h-0.014
			l-0.993,2.811h-0.673l-0.962-2.811h-0.014v2.811h-0.699v-3.533h1.212l0.795,2.305h0.013l0.827-2.305h1.205L218.476,817.542
			L218.476,817.542z"/>
	</g>
</g>
<g id="svg12082">
</g>
</svg>
