<?xml version="1.0" encoding="utf-8"?>
<!-- Generator: Adobe Illustrator 14.0.0, SVG Export Plug-In . SVG Version: 6.00 Build 43363)  -->
<!DOCTYPE svg PUBLIC "-//W3C//DTD SVG 1.1//EN" "http://www.w3.org/Graphics/SVG/1.1/DTD/svg11.dtd">
<svg version="1.1" xmlns="http://www.w3.org/2000/svg" xmlns:xlink="http://www.w3.org/1999/xlink" x="0px" y="0px" width="200px"
	 height="200px" viewBox="44 746 200 200" enable-background="new 44 746 200 200" xml:space="preserve">
<g id="Layer_1">
</g>
<g id="svg12082">
</g>
<g id="svg31568">
	<g>
		<g id="layer4">
			<path id="path16452" fill="#FFFFFF" d="M160.174,765.546c-1.695,0-3.801,0.374-6.559,1.043c-5.174,1.235-7.9,4.07-10.526,6.792
				c-1.316,1.356-2.553,2.635-4.063,3.705l-2.373,1.808c-1.09,0.888-1.253,1.018-3.716,1.627c-6.8,1.687-16.216,6.096-16.611,6.278
				c0.095-0.087-0.694,0.27-0.694,0.27c-2.705,1.061-6.073,2.382-10.163,4.8c-1.432,0.844-3.295,1.557-5.821,2.217
				c-2.742,0.652-5.643,1.548-8.143,1.617c-6.631-0.469-13.481-1.53-20.234-2.374l-0.921-0.087c-2.2-0.208-3.319-0.252-4.934,0.905
				c-0.494,0.113-1.116,0.513-1.843,1.183c-0.793,0.113-2.016,0.409-2.549,1.461c-2.477,0.634-4.474,0.583-4.523,2.739
				c0,1.73,2.102,2.539,3.815,3.2c0.58,0.574,1.679,1.166,3.668,1.487c0.768,0.487,1.828,0.687,2.895,0.773
				c1.122,1,3.764,2.357,9.788,2.296c7.084-0.626,13.625-1.087,19.607-1.478c0.331,0.13,1.353,0.539,2.716,1.07
				c-1.812,0.93-3.759,2.217-5.069,4.191c-0.205,0.322-0.673,1.009-0.673,1.826c0,0.348,0.084,0.713,0.294,1.087
				c0.858,1.511,2.605,2.122,15.432,1.548c0.821,0.147,5.379,0.958,10.59,1.547c0,0.21-0.063,0.384-0.063,0.384v0.084
				c0,2.274,1.4,3.369,1.863,3.742c-0.073-0.089,0.605,0.427,0.605,0.427l2.042,1.252c0,0,3.5,1.911,4.947,2.71
				c-2.621,2-4.446,3.853-4.932,6.742c-1.853,2.495-2.052,5.042-0.895,7.605c0,0.089-2.147,5.479-3.037,7.995
				c-0.221-0.795-0.562-1.532-1.137-2.089c-0.863-0.869-2.3-2.511-2.668-3.132c-0.637-1.079-1.658-1.8-2.842-2
				c-1.306-0.216-2.658,0.199-3.816,1.168c-2,1.658-4.421,2.026-8.11,1.2c-3.475-0.8-5.801,0.084-6.905,2.6
				c-0.427,1.11-0.69,2.006-1.021,3.138c-1.221-14.601-7.206-20.027-12.37-21.88c-5.243-1.895-10.577-1.405-15.001,1.369
				c-3.649,2.295-6.445,6-7.666,10.179c-0.607,1.121-1.06,2.342-1.414,3.568c-3.663,4.095-6.684,9.127-8.718,14.642
				c-2.302,4.985-3.779,10.548-4.228,15.99C44.071,874.33,44,875.846,44,877.33c0,8.305,2.006,15.306,5.89,20.411
				c2.867,3.789,7.584,6.331,12.286,6.657c5.352,0.385,10.355-1.441,14.887-5.405c8.722-8.721,14.007-21.29,15.952-32.62
				c1.222-0.643,2.5-1.443,3.769-2.453c-0.473,1.073-0.968,2.115-1.379,3.195c-2.458,5.404-4,11.268-4,15.146v0.732
				c0.279,4.857,2.163,7.973,5.579,9.283c2.857,1.09,6.91,0.469,9.868-1.494c1.195-0.801,4.021-2.885,6.827-5.947
				c2.105,1.937,4.747,2.036,5.752,2.036c5.185,0,11.658-4.326,16.369-10.516c1.721,1.548,3.758,2.668,6.146,2.863
				c6.427,0.474,12.343-3.769,15.159-7.905c1.789-2.652,2.983-5.011,3.91-7.521c0.505,1.668,1.273,3.258,2.516,4.459
				c1.685,1.668,3.984,2.541,6.453,2.463c-10.838,3.878-47.996,17.146-47.996,17.146c-19.763,7.068-39.527,14.122-59.286,21.2
				c-0.447,0.164-0.85,0.563-1.036,1.016l-1.398,3.374c-0.23,0.601-0.151,1.095,0.198,1.679c0.882,1.227,1.757,2.453,2.631,3.68
				c0.3,0.437,0.806,0.694,1.332,0.721c8.064,0.121,19.263,2.463,25.135,6.616c0.7,0.5,1.645,0.395,2.236-0.221
				c8.773-8.396,18.263-12.559,29.463-17.917c3.615-1.721,52.121-21.837,81.137-33.516c14.132-5.647,25.279-10.137,27.453-11.147
				c2.815-1.3,12.121-6.253,13.637-15.457c0.311-1.106,0.511-2.496,0.511-3.917c0-4.574-2.773-8.216-7.705-10.458v0.095
				c-0.453-2.416-1.779-5.668-4.453-10.716c-0.562-1.053-1.294-2.227-1.294-3.353c0.104-1.29,0.547-2.532,0.894-3.827
				c0.185-0.626-0.125-1.221-0.426-1.663c-0.421-0.443-1.047-0.608-1.642-0.46c-3.4,0.843-6.806,1.687-10.206,2.528
				c-0.573,0.2-0.863,0.516-1.236,0.942c-1.427,1.642-2.947,4.431-5.253,9.653c0,0-0.437,0.905-1.016,2.095
				c-0.09-0.905-0.121-1.811-0.348-2.653c-1.421-4.921-6.447-7.932-11.221-6.695c-2.189,0.563-4.295,1.731-6.216,3.358
				c0.637-2.168,1.158-4.358,1.384-6.6c0.085-0.532,0.085-1.063,0.085-1.579c0-3.12-1.069-5.667-3.164-7.415
				c-2.357-1.974-5.957-1.383-7.531-0.792c-7.264,2.765-13.837,14.175-17.253,23.106l-2.731,7.227c0,0-0.405,1.468-0.826,2.963
				c-0.354-1.105-0.727-2.079-1.121-2.932c-1.984-4.442-5.174-6.032-7.4-6.858c-3.957-1.437-8.494-0.695-12.468,2.068
				c-1.253,0.869-2.269,1.974-3.09,3.174c-0.405,0.495-0.848,1.21-1.269,1.932c0.105-0.237,0.09-0.506,0.115-0.705
				c0-0.332-0.173-0.626-0.357-0.921c0.227-0.464,0.278-0.584,0.506-1.037c0.12-0.084,0.331-0.105,0.331-0.105
				c0.974-0.416,2.442-2.258,2.911-3.084c0.305-0.547,0.426-1.115,0.426-1.652c0-0.542-0.216-0.942-0.41-1.368
				c0.089-0.442,0.115-0.911,0.115-0.911c-0.211-0.732-0.826-2.963-9.573-7.463c-0.09-0.084-1.321-0.748-2.185-1.242
				c0.2-0.137,0.506-0.305,0.89-0.479c0.326-0.084,1.121-0.163,1.121-0.163l2.773-0.295c23.4-2.61,26.731-13.645,28.721-20.253
				l0.085-0.278c0.5-1.644,0.752-3.461,0.752-5.365v-0.783l-0.132-3.356v-0.479c0,0,0.111-1.991,0.111-2.008
				c0,0.183,1.374-1.626,1.374-1.626c1.373-1.687,2.969-3.722,3.384-5.757c0.637-0.356,1.59-0.87,1.59-0.87l6.2-2.504
				c0.6-0.243,1.025-0.809,1.078-1.443v-0.165c0-0.6-0.278-1.147-0.789-1.47c-2.016-1.27-3.079-1.417-5.168-1.704
				c-0.138,0-2.801-0.296-2.801-0.296c-0.084,0-1.1-0.156-1.805-0.27c-0.568-0.669-1.548-1.626-3.438-2.626
				c-1.147-0.617-2.426-0.913-4.132-0.896L160.174,765.546z M183.652,841.74L183.652,841.74c-0.337,1.495-0.563,3.053-0.626,4.706
				c-2.211,2.874-4.311,5.095-5.663,5.953c-0.501,0.32-0.849,0.463-1.127,0.573c-0.089-0.278-0.089-0.579-0.089-0.937
				c0-0.853,0.142-1.974,0.367-3.321c2.669-2.21,5.017-4.547,7.101-6.974H183.652z M74.363,842.467c0.353,0,0.716,0.126,1.07,0.326
				c1.653,0.963,2.729,7.963,2.729,11.874h-0.016c-3.683-1.601-6.3-6.001-6.365-9.632c-0.026-0.947,0.208-1.411,0.888-2.042
				C73.198,842.646,73.776,842.435,74.363,842.467L74.363,842.467z M212.652,850.184c0.842,1.957,2.964,2.931,4.637,3.562
				c-2.731,0.984-6.516,2.342-11.121,3.984C208.941,855.277,211.147,852.93,212.652,850.184L212.652,850.184z M130.999,856.809
				c0.105,0,0.11,0.705-0.089,2.469c-0.101,1.289-0.495,2.236-0.495,3.385l-0.652,3.146c-1.474,1.895-1.579,2.559-2.269,2.959
				c1.2-2.827,3.068-11.943,3.469-11.959H130.999z M116.852,856.894c-0.663,1.874-1.137,3.226-1.137,3.226s-2.621,7.611-3.026,8.769
				c-1.347,2.017-3.2,3.868-4.62,5c0.168-1.6,0.552-3.374,1.283-5.426C111.325,864.246,114.21,859.799,116.852,856.894z
				 M144.763,858.625c1.158,0.447,2.263,0.795,3.438,0.994c-0.106,0.564-0.164,0.773-0.348,1.18c-0.732,1.689-2.037,3.2-2.332,3.2
				c-0.253,0-0.853-2.054-0.853-4.337C144.668,859.33,144.757,858.973,144.763,858.625z M187.562,858.846
				c1.969,1.727,4.411,2.721,7.326,2.974c-5.246,1.874-11.025,3.948-17.194,6.147C181.363,865.678,184.916,862.277,187.562,858.846
				L187.562,858.846z M62.52,863.146c3.823,3.69,8.475,5.638,14.146,5.796c-0.613,3.32-1.508,6.895-2.648,10
				c-1.789,3.842-3.82,6.71-5.675,7.963c-1.361,0.916-1.897,0.984-3.158,0.721c-3.489-0.721-4.935-7.321-4.935-13.458
				C60.475,870.583,60.823,866.566,62.52,863.146L62.52,863.146z"/>
		</g>
		<g id="layer2">
			<path id="path16680" d="M159.973,767.242c-1.505,0.087-3.426,0.365-5.931,0.974c-7.147,1.713-9.189,6.835-14,10.227
				c-3.659,2.609-2.643,2.722-6.643,3.704c-6.711,1.67-16.3,6.165-16.3,6.165c-2.848,1.123-6.357,2.427-10.742,5.001
				c-1.722,1.026-3.79,1.756-6.237,2.391c-2.742,0.722-5.758,1.635-8.547,1.679h-0.367c-0.812-0.087-1.658-0.14-2.532-0.217
				c-6.325-0.626-14.129-1.905-17.518-2.183c-3.103-0.279-3.54-0.487-4.969,0.669c0,0-0.84-0.087-1.908,1.252
				c-0.494,0.087-2.782,0.252-1.233,1.4c-8.699,0.461-3.218,2.313-1.743,2.896c0,0,0.383,0.965,3.404,1.348
				c0,0,0.209,0.591,2.978,0.705c0,0,1.376,2.321,8.981,2.234c6.425-0.374,10.463-0.808,13.62-1.069
				c2.155-0.208,4.234-0.234,6.266-0.391c2.373,1.018,4.942,1.948,7.189,2.783c0,0-5.779,1.295-8.357,5.174
				c-0.984,1.496-1.132,2.426,13.705,1.765c0,0,6.104,1.104,12.579,1.756c-0.663,1.537-0.627,3.337,0.795,4.39
				c2.646,1.811,5.499,3.21,8.431,4.811c1.038,0.689,0.596,1.173-0.146,1.721c-3.269,1.794-4.442,3.773-5.059,6.453
				c-0.531,0.769-0.932,1.61-1.2,2.495c-0.526,1.773-0.357,3.495,0.442,4.8c-2.937,6.969-5.531,14.695-7.705,21.027
				c-1.016,3.047-2.021,5.983-2.895,8.451c-1.984,3.027-5.031,5.67-6.626,6.621c-0.622,0.354-1.069,0.375-1.132,0.327
				c-0.068-0.085-0.295-0.452-0.284-1.479c0-2.189,0.584-4.71,1.516-7.311c2.384-5.121,5.758-10.062,8.506-12.853
				c1.115-1.157,2.589-4.067,2.315-5.531c0.062-0.885-0.295-1.747-0.874-2.321c-0.853-0.858-2.447-2.637-2.942-3.452
				c-0.379-0.643-0.952-1.058-1.642-1.185c-0.795-0.121-1.643,0.142-2.405,0.795c-2.437,2.016-5.41,2.495-9.621,1.537
				c-2.637-0.605-4.2-0.105-4.916,1.621c-1.084,2.589-1.674,4.721-2.042,6.684c-0.469,0.584-1.269,1.211-2.037,1.68
				c0.09-18.09-6.113-24.243-11.483-26.164c-4.737-1.715-9.532-1.263-13.488,1.216c-3.396,2.132-5.887,5.537-6.975,9.332
				c-0.653,1.19-1.174,2.469-1.513,3.774c-3.67,4.032-6.621,9.016-8.603,14.4c-2.249,4.858-3.683,10.188-4.129,15.536
				c-0.807,9.88,1.035,18.096,5.346,23.77c2.562,3.405,6.801,5.694,11.037,5.973c4.864,0.353,9.45-1.32,13.619-4.983
				c4.995-4.89,8.905-10.985,11.288-17.069c2.066-4.932,3.566-10.621,4.274-15.347c3.058-1.489,6.3-4.063,7.926-6.747
				c0.632,0.174,1.301,0.258,1.958,0.273c-1.773,2.89-3.227,5.984-4.326,8.932c-2.689,5.916-4.084,11.783-3.895,15.174
				c0.095,1.521,0.368,6.199,4.474,7.758c2.326,0.89,5.806,0.348,8.29-1.311c1.483-0.994,4.81-3.426,7.794-7.127
				c1.616,2.916,4.59,2.905,5.742,2.905c5.116,0,11.806-4.747,16.152-11.216c1.563,2.111,3.816,3.385,6.495,3.59
				c5.731,0.426,11.059-3.416,13.59-7.158c1.643-2.416,3.026-4.847,4.063-7.895c1.016-2.084,1.778-4.311,2.378-7.137
				c0.101-0.09,0.185-0.158,0.279-0.227c-0.294,2.32-0.336,4.816-0.216,6.511c0.189,2.036,1.121,4.011,2.574,5.427
				c1.373,1.347,3.236,2.047,5.263,1.973c5.495-0.215,13.2-6.604,17.4-12.815c1.989,2.505,4.711,3.815,8.227,3.984
				c5.468,0.243,10.441-3.079,15.2-10.2c0.736-1.089,1.441-2.315,2.137-3.621c0.227,1.568,0.947,3.063,1.974,4.1
				c1.279,1.27,3.842,2.627,6.842,2.254c5-0.637,8.821-3.827,10.474-8.4c1.432,1.221,1.632,2.399,1.632,2.71
				c-1.147,1.385-2.694,2.521-4.079,3.374c-2.553,1.574-5.947,2.826-7.753,3.506c-6.769,2.51-53.342,19.131-94.437,33.799
				c-22.442,8.011-45.197,16.158-64.401,23.011l-1.399,3.39l2.616,3.68c10.833,0.084,18.559,1.868,24.903,6.173l1.151,0.827
				l0.987-1.037c6.737-6.979,19.674-13.206,29.253-17.379c25.932-11.326,53.236-22.248,80.984-33.438
				c14.105-5.668,25.253-10.146,27.374-11.121c5.247-2.421,11.516-7.368,12.647-14.158c0.3-1.12,0.469-2.315,0.469-3.636
				c0-4.121-2.748-7.405-7.585-9.321c-0.084-2.537-3.484-9.337-5.452-12.773c-0.521-1.132-0.584-2.616-0.227-3.921l0.679-2.748
				l-10.084,2.563c-1.731,1.158-4.053,6.748-5.332,9.621c-1.194,2.71-3.2,6.668-4.81,9.832l-0.085,0.089
				c-3.958,7.8-6.558,10.758-9.579,10.884c-0.273,0-0.563,0-0.805-0.084c2.932-1.879,4.884-3.921,6.105-5.531
				c1.778-2.306,3.311-5.311,4.031-8.185c0.969-2.679,1.147-5.442,0.452-7.832c-1.147-4.047-5.226-6.516-9.095-5.5
				c-3.842,1-7.415,3.979-10.079,8.421c-0.562,0.932-1.721,3.016-2.684,5.789c-1.306,2.695-2.932,7.038-2.984,11.842
				c-2.132,2.837-4.61,5.601-6.4,6.743c-1.8,1.12-2.716,1.078-2.853,1.01c-0.411-0.227-0.764-0.5-0.921-1.553
				c-0.195-1.374,0-3.163,0.363-5.441c5.037-4.053,9.053-8.505,11.916-13.243c1.552-2.547,3.026-5.663,4.152-8.816
				c1.315-3.195,2.142-6.5,2.5-9.874c0.353-3.242-0.516-5.842-2.464-7.477c-1.615-1.339-4.409-1.009-5.789-0.478
				c-6.595,2.496-12.932,13.381-16.273,22.086c-1.101,2.505-2.021,4.948-2.674,7.106c-0.663,2.173-1.2,4.079-1.7,6.026
				c-0.553,0.411-1.084,0.811-1.6,1.147c-0.295-3.094-1.095-5.11-1.899-6.921c-1.706-3.811-4.316-5.163-6.4-5.942
				c-3.421-1.258-7.49-0.51-10.985,1.942c-1.853,1.295-2.968,2.758-3.862,4.963c-1.016,1.942-1.753,3.916-1.895,5.942
				c-1.363,2.179-6.411,11.348-5.253,21.705c-1.605,2.126-3.084,3.938-5.311,4.652c-0.342,0.111-1.227,0.085-1.437-0.152
				c-0.385-0.379-0.284-1.269-0.138-1.873c1.19-4.906,6.632-20.848,9.832-29.169l1.2-3.132l-0.806,0.221
				c0.174-0.373,0.232-0.837,0.295-1.2c0.521-0.747,0.947-1.568,1.2-2.453c0.373-0.089,0.679-0.147,0.826-0.21
				c0.389-0.163,1.579-1.458,2.105-2.363c0.51-0.921-0.105-1.826-0.105-1.826c1.337-2.174-8.105-6.895-8.758-7.248
				c-2.784-1.468-3.2-1.842-3.264-1.9c-0.847-1.237,0.969-2.342,2.353-2.968c1.416-0.206,2.832-0.348,4.242-0.505
				c22.601-2.511,25.363-12.781,27.337-19.312c0.321-1.086,0.759-2.904,0.664-5.53c-0.2-5.722-0.243-2.018,0-6.079
				c0.084-1.365,5.11-5.469,4.879-8.313c0,0,2.162-1.243,4.278-2.104c1.153-0.47,2.816-1.174,4.511-1.783
				c-1.642-1.026-2.722-1.235-3.99-1.409c-2.025-0.278-3.451-0.312-5.81-0.661c0,0-0.59-1.374-3.279-2.809
				c-0.921-0.496-2.031-0.721-3.558-0.678L159.973,767.242z M185.331,818.84c0.084,1.584-0.357,2.879-0.941,4.227
				c-1.574,3.647-3.843,7.4-6.301,10.531c0.669-2.026,1.353-4.152,2.253-6.174C181.558,824.693,183.441,820.172,185.331,818.84z
				 M220.269,831.198c0.289,0.827,0.646,1.663,1.011,2.489c-1.217,0.374-2.2,0.879-2.99,1.406
				C218.947,833.693,219.61,832.34,220.269,831.198L220.269,831.198z M201.521,832.446c0.779,0.547,0.464,1.805,0.063,2.668
				c-0.879,1.78-2.784,3.006-5.242,4.28c0.084-0.795,0.326-1.679,0.669-2.453c1.025-2.295,2.205-3.595,2.857-4.01
				C200.342,832.625,201.058,832.12,201.521,832.446z M74.38,840.793c6.336-0.347,5.68,13.789,5.588,16.174
				c-2.207-0.264-4.152-1.221-5.901-2.905c-2.469-2.399-4.446-6.637-3.696-11.037C70.98,841.919,72.039,840.861,74.38,840.793z
				 M149.121,841.367c0.568-0.1,1.168,0.1,1.679,0.458c1.042,0.721,1.679,2.995,1.494,6.089c-1.468-0.09-2.531-0.904-3.468-1.863
				c-0.932-1.189-1.4-2.531-1.385-3.784C147.904,841.74,148.505,841.467,149.121,841.367z M224.284,842.541
				c-0.295,0.374-1.11,0.763-2.216,0.763c-0.548,0-1.016-0.189-1.311-0.537c0.895-0.384,2.284-0.562,3.705-0.521
				C224.41,842.356,224.41,842.383,224.284,842.541L224.284,842.541z M143.268,856.22c2.264,1.2,4.811,1.895,7.174,1.952
				c-0.278,1.09-0.441,2.221-0.937,3.158c-1.989,3.747-3.053,4.305-4.227,4.373c-2.558-1.041-2.463-6.884-2-9.483H143.268z
				 M62.142,860.34c4.203,4.99,9.591,7.217,16.629,6.869c-0.559,3.868-1.74,8.484-3.14,12.284
				c-2.247,4.827-5.775,10.779-10.809,9.769c-5.991-1.253-6.877-12.769-6.036-19.705C59.172,866.035,60.313,863.062,62.142,860.34z"
				/>
			<path id="path3840" d="M224.721,870.771v-3.12h-1.11v-0.642h2.99v0.642h-1.111v3.12H224.721z"/>
			<path id="path3842" d="M227.348,870.771v-3.762h1.142l0.68,2.572l0.673-2.572h1.153v3.762h-0.717v-2.963l-0.747,2.963H228.8
				l-0.747-2.963v2.963H227.348z"/>
		</g>
		<g id="layer6">
			<path id="path16496" fill="#F1491C" d="M147.242,812.643c7.415-2.557,10.395-6.957,12.447-10.626
				c0.283-0.504,0.494-0.992,0.684-1.47c2.2-5.565,2.442-8.452,1.826-10.73c-0.084-0.54-0.278-0.992-0.494-1.2
				c0,0,0.989,2.452-2.584,5.331c-0.705-0.192-1.548-0.531-2.59-1.122c0,0,1.658-0.087,2.831,0.313c0,0-2.147-2.296-5.642-4.096
				c0,0,1.416-0.243,2.305-0.374c-1.01-0.487-3.226-0.748-6.036-2.713c-1.737-1.922-1.321-2.965-1.321-2.965
				c-1.079,1.965-0.331,3.278-0.331,3.278s1.278,0.983,1.741,1.443c1.68,1.626,1.774,2.14,1.774,2.14
				c-1.453-1.296-7.011-2.453-7.011-2.453l2.21,1.383c-2.437-0.905-5.584-1.183-5.584-1.183l1.211,0.852
				c-3.773-0.183-5.879,0.331-7.016,0.826c-0.89,0.375-1.158,0.653-1.158,0.731c-0.09,0.086-0.09,0.096-0.09,0.096
				s0.227,0,0.568-0.087c1.153,0.104,3.427,0.331,3.706,0.408l-0.574-0.678c0,0,1.82-0.496,4.147,0.321l-0.584-0.617v-0.087
				c0.084,0,2.199,0.166,4.105,1.157l-0.621-0.739l-0.085-0.087c0.27,0.087,4.758,1.2,6.237,2.87
				c-1.463-0.73-4.479-1.765-8.479-0.374l0.854-1.043c0,0-2.374,0.287-5.742,1.722l0.705-0.756
				c-1.264,0.547-2.863,1.122-3.758,2.495c-0.563,0.861,0.226,2.479,1.974,1.965c0.173,1.018,1.194,1.531,2.21,1.2
				c0.363,1.043,1.348,1.722,2.879,1.174c1.084,2.156,3.006,1.27,3.579,0.896c0.279,0.695,1.158,0.817,1.611,0.896
				c-0.906,1.965-2.59,2.922-4.61,3.539c-1.47,2.722-8.774,5.287-17.321,7.565c-4.144,0.87-8.364,1.678-8.59,1.852
				c-0.179,0.131-0.095,0.374,0.269,0.443c0.273,0.087,2.853,0.644,4.236,0.829c0.316,0.084,0.905,0.084,1.227,0.126
				c0,0-0.61,1.173-0.605,2.342c0,1.374,1.126,2.174,1.516,2.363l1.811-0.252c-0.121-0.374-0.2-0.8,0.174-1.432
				c1.147-1.974,5.553-2.374,6.727-2.516C135.904,815.13,140.752,814.877,147.242,812.643L147.242,812.643z"/>
			<path id="path16500" fill="#F1491C" d="M107.257,802.834c0.553-1.722,3.647-3.313,3.647-3.313
				c4.558-5.556,15.227-7.704,15.227-7.704c-1.026-1.148-4.742-1.409-4.742-1.409c0.063-0.27-0.068-1.878-0.068-1.878
				c-8.221,1.2-11.9,3.87-14.637,5.443c-2.842,1.643-5.348,2.13-9.216,3.261c-0.989,0.296-4.174,0.661-5.69,0.809l-0.367,0.209
				l3.062,0.861l-3.681,0.261c1.786,0.087,5.317,0.47,5.317,0.47c-0.311,0.087-4.062,0.409-4.062,0.409
				c0.815-0.096,7.463,1.226,7.463,1.226c-0.3,0.139-4.348,0.33-4.348,0.33c2.927,0.087,7.38,1.026,7.38,1.026
				c-0.264,0.087-3.995,0.635-3.995,0.635c0.432-0.148,5.689,2.287,5.689,2.287c0.61-1.104,3.011-2.921,3.011-2.921"/>
			<path id="path16548" fill="#F1491C" d="M68.577,802.399c1.488,0,15.197,0.844,24.685,0.626c0,0-23.051-0.896-29.368-1.417
				C63.894,801.608,66.782,802.382,68.577,802.399"/>
			<path id="path16552" fill="#F1491C" d="M59.537,799.486c0,0,1.493,0.853,3.755,0.975c2.275,0.13,19.056,1.191,27.668,1.452
				C90.96,801.913,65.861,800.138,59.537,799.486"/>
			<path id="path16556" fill="#F1491C" d="M87.958,799.086c0,0-18.813-1.878-22.391-1.704c-1.033,0.087-0.772,0.435-0.772,0.435
				C66.315,797.651,87.958,799.086,87.958,799.086"/>
			<path id="path16560" fill="#F1491C" d="M73.08,795.765c-3.256-0.331-3.442,0-3.442,0c3.108,0.139,20.068,2.435,20.068,2.435
				s-13.377-2.079-16.626-2.417"/>
			<path id="path16564" fill="#F1491C" d="M73.601,804.208c3.263,0.113,16.06-0.295,16.06-0.295s-16.641-0.166-19.729-0.452
				C69.931,803.46,70.357,804.112,73.601,804.208"/>
			<path id="path16568" fill="#F1491C" d="M88.472,798.538c0,0-11.855-1.539-16.238-1.974c-6.365-0.652-5.599,0.087-5.599,0.087
				c2.649-0.122,21.837,1.939,21.837,1.939"/>
			<path id="path16668" fill="#F1491C" d="M129.036,816.677c-3.4,0.694-3.026,2.773-3.026,2.773l1.442-0.231
				C127.011,817.704,129.036,816.677,129.036,816.677"/>
			<path id="path16676" fill="#F1491C" d="M137.558,828.999c0,0,0.479,0.715,0.253,1.516c0,0.279,0,0.579,0,0.868
				c0.852-0.863,1.505-1.784,1.095-2.363c0,0,2.389-2.105-11.601-8.863c0,0-0.442,0.095-1.026,0.147l2.548,1.463
				c1.547,0.832,10.079,5.058,8.736,7.232"/>
			<path id="path16712" fill="#F1491C" d="M225.679,843.461c-0.958,1.032-2.016,1.505-3.626,1.505c-3.237,0-4.61-3.768-2.11-6.168
				c1.51-1.426,4.084-1.905,7.258-1.552C227.694,840.235,226.815,842.225,225.679,843.461 M200.505,828.141
				c1.121-0.721,2.61-1.147,3.453-0.448c0.91,0.748,1.095,1.974,0.773,3.774c-0.89,5-4.016,8.053-10.321,10.626
				C194.41,835.419,198.584,829.398,200.505,828.141 M154.615,849.235c-3.363,1.104-5.511-0.521-6.974-2.017
				c-1.258-1.299-1.937-3.021-1.857-4.863c0.084-2.321,1.205-4.494,2.92-5.537c1.332-0.8,3.069-0.8,4.485,0.2
				C155.626,838.741,155.999,844.035,154.615,849.235 M147.357,866.824c-0.758,0.496-1.742,0.664-2.442,0.517
				c-3.758-0.795-4.09-7.264-3.342-11.147c0.384-2.074,0.721-4.342,1.721-6.289c3.332,2.6,7.653,3.584,10.669,3.025
				C152.895,858.598,150.331,864.873,147.357,866.824 M82.493,858.678c-4.29,0.279-7.165-1.059-9.594-3.416
				c-2.789-2.705-4.523-6.627-4.523-10.216c0-3.553,1.469-6.732,3.837-8.306c1.787-1.194,3.882-1.374,5.951-0.521
				C83.175,838.314,83.554,849.704,82.493,858.678 M77.938,878.373c-1.608,3.898-4.257,9.01-7.707,11.314
				c-2.101,1.416-3.562,1.68-5.743,1.217c-7.173-1.511-8.326-13.584-7.359-21.563c0.667-5.437,2.982-10.958,6.412-15.174
				c4.496,6.374,10.255,8.722,18.554,7.774C81.634,866.888,79.932,873.566,77.938,878.373 M184.905,814.772
				c3.305-3.173,4.132,0.294,3.121,3.558c-2.295,7.347-7.685,16.689-13.284,21.116C176.216,832.246,182.236,817.33,184.905,814.772
				 M233.026,835.825c0.542-2.305-2.811-8.71-4.253-11.426c-0.452-0.853-0.805-1.511-1.026-1.974
				c-0.705-1.521-0.815-3.252-0.373-4.931l-6.938,1.726c-1.468,1.674-3.236,5.432-4.716,8.79c-1.226,2.784-3.227,6.711-4.905,10.011
				c-3.773,7.447-6.773,11.615-10.974,11.789c-2.553,0.121-3.884-1.269-5.269-4.037c4.837-1.905,8.374-4.705,10.61-7.632
				c2.879-3.757,3.658-8.052,2.773-11.131c-0.852-2.984-3.941-5.158-7.078-4.342c-3.442,0.905-6.68,3.674-9.068,7.679
				c-2.242,3.716-4.438,9.568-3.947,15.237c-1.874,2.747-5.722,7.837-8.675,9.679c-1.684,1.068-3.426,1.643-4.521,1.058
				c-0.963-0.5-1.563-1.273-1.778-2.773c-0.306-2.243,0.146-5.147,1.031-9.337c11.531-8.79,16.863-18.695,17.89-28.442
				c0.242-2.21-0.105-4.541-1.88-6.028c-0.988-0.817-3.146-0.574-4.131-0.191c-6.868,2.609-13.853,15.93-16.532,24.698
				c-1.121,3.674-1.805,6.416-2.457,9.327c0,0-3.985,3.221-5.385,3.542c0-4.411-0.89-6.794-1.879-9
				c-1.432-3.2-3.573-4.369-5.458-5.063c-3.063-1.121-6.479-0.332-9.353,1.668c-2.085,1.474-4.179,4.248-3.711,8.063
				c-2.637,3.131-4.895,8.879-5.263,13.336c-0.231,2.785-0.231,5.559,0.221,7.822c-1.384,2.562-5.306,7.979-8.474,8.441
				c-1.174,0.163-2.3,0-2.899-0.747c-0.648-0.812-0.795-1.932-0.453-3.348c1.227-5.036,6.694-21.079,9.905-29.4
				c-0.916,0.258-6.879,2.179-7.879,2.458c-2.758,6.853-7.348,21.195-9.975,28.332c-2.041,3.547-5.694,6.842-7.736,8.042
				c-1.7,0.999-3.963,1.073-3.957-2.579c0.067-8.143,7.025-19.773,11.937-24.769c0.673-0.705,0.437-1.658,0.062-2.058
				c-0.758-0.758-2.547-2.731-3.179-3.795c-0.094-0.147-0.247-0.327-0.516-0.379c-0.278-0.089-0.668,0.095-1.053,0.427
				c-2.826,2.352-6.337,2.946-11.042,1.895c-2.689-0.616-2.932,0.226-3.174,1.026c-0.226,0.8-0.432,2.932-0.61,3.937
				c-0.489,2.663-3.816,5.011-6.604,6.222c0.614-15.4-3.115-24.854-10.301-27.438c-4.211-1.505-8.46-1.189-12.043,1.058
				c-3.782,2.379-6.511,6.7-6.771,11.395c-7.42,7.269-11.503,17.79-12.249,26.948c-0.775,9.452,0.961,17.289,5.009,22.615
				c2.376,3.147,6.252,5.09,9.828,5.343c4.402,0.321,8.58-1.248,12.402-4.595c8.227-7.201,13.464-21.5,13.978-31.9
				c3.709-1.115,8.745-4.953,9.798-8.195c2.105,1.41,5.127,0.638,7.906,0.132c-7.701,7.679-12.001,21.042-11.7,26.348
				c0.146,2.416,0.699,5.263,3.399,6.306c1.848,0.705,4.784,0.162,6.779-1.164c2.974-1.994,6.747-5.326,9.395-9.505
				c0.458,4.858,3.264,5.017,5.074,5.017c4.773,0,12.147-5.316,16.247-12.922c1.216,3.416,3.668,5.068,6.511,5.295
				c5,0.373,9.773-2.989,12.095-6.416c2.811-4.158,4.621-8.184,5.426-14.61c0,0,3.068-1.88,5.174-3.536
				c-0.731,2.109-1.258,7.441-1.025,10.178c0.146,1.758,0.947,3.305,2.047,4.385c1.026,1.016,2.427,1.559,4.031,1.494
				c5.374-0.226,13.916-7.658,17.464-14.347c1.989,4.052,4.963,5.347,8.311,5.516c4.942,0.216,9.368-2.916,13.731-9.463
				c2.147-3.185,4.121-7.626,5.916-11.442c1.937-4.263,3.873-8.574,5.752-10.369c-0.084,2.968,3.306,9.248,4.506,10.995
				c-7.947-0.521-10.896,4.148-11.053,6.7c-0.105,1.726,0.642,3.447,1.558,4.342c0.984,0.984,3.063,2.079,5.463,1.773
				c4.622-0.589,8.843-3.92,9.779-9.399c3.548,1.79,4.332,4.252,4.295,5.484c-0.126,3.822-3.71,6.453-6.39,8.116
				c-2.685,1.653-6.185,2.958-8.063,3.653c-6.789,2.505-53.353,19.131-94.432,33.789c-29.758,10.627-55.867,19.942-62.278,22.264
				l0.888,1.236c13.376,0.711,19.268,2.442,24.942,6.4c7.38-7.689,19.2-12.752,29.479-17.61
				c3.916-1.879,52.748-22.105,81.332-33.585c14.079-5.652,25.222-10.146,27.29-11.084c5.573-2.578,10.737-5.926,10.737-12.853
				c0-4.5-3.858-6.974-7.512-8.169"/>
			<path id="path16716" fill="#F1491C" d="M130.252,837.277c2.348,0,4.868-2.164,5.652-4.853c0.801-2.658-0.468-4.827-2.815-4.827
				c-2.342,0-4.879,2.168-5.674,4.827C126.636,835.114,127.904,837.277,130.252,837.277"/>
		</g>
		<g id="layer7">
			<path id="path16508" fill="#B0B7BB" d="M125.052,795.999c-1.32,0.331-3.157,0.965-4.068,2.087c0,0,2.8,1.287,8.748-0.417
				c-5.517,1.443-8.09,0.244-8.09,0.244C122.415,796.964,123.825,796.365,125.052,795.999z"/>
			<path id="path16512" fill="#B0B7BB" d="M124.679,800.025c-6.2,0.678-9.274,0-9.274,0c0.668-0.904,1.316-1.147,1.974-1.547
				c-0.831,0.339-2.031,0.991-2.604,1.861c0,0,2.968,0.678,9.268,0c-1.031,0.565-1.831,1.295-1.831,1.295
				c6.442,0.817,11.042-1.078,12.231-1.644c-1.842,0.713-5.947,2.026-11.616,1.348C122.825,801.338,123.679,800.599,124.679,800.025
				L124.679,800.025z"/>
			<path id="path16516" fill="#B0B7BB" d="M130.104,803.312c3.316-0.075,6.164-0.979,6.674-2.699
				C135.81,802.473,132.273,803.103,130.104,803.312z"/>
			<path id="path16520" fill="#B0B7BB" d="M139.131,801.53c-1.194,2.035-3.595,2.809-5.395,2.983
				C135.373,804.599,138.036,804.034,139.131,801.53z"/>
			<path id="path16524" fill="#B0B7BB" d="M141.974,802.156c-0.969,1.991-2.922,3.409-5.211,3.157
				C138.488,805.339,140.452,804.417,141.974,802.156z"/>
			<path id="path16528" fill="#B0B7BB" d="M114.178,809.26c-6.357,1-8.926,0.156-8.926,0.156s0.231-0.348,0.742-0.704
				c-0.863,0.452-1.489,1.13-1.489,1.13s2.61,0.705,8.968-0.295c10.911-1.722,14.874-3.409,15.9-3.931
				C127.694,806.338,123.452,807.799,114.178,809.26"/>
			<path id="path16532" fill="#B0B7BB" d="M112.236,802.434c-0.405,0.217-1.269,0.739-1.774,1.469c0,0,2.479,1.096,9.796-0.208
				c-7.011,1.157-9.158-0.096-9.158-0.096C111.415,803.112,111.842,802.729,112.236,802.434L112.236,802.434z"/>
			<path id="path16540" fill="#B0B7BB" d="M148.721,800.538c0.442-0.113,1.047-0.372,2.005-1.354
				c1.59-1.626,1.884-2.487,2.479-3.457c-0.548,0.698-1.705,2.119-2.595,2.92c-1.017,0.914-1.574,1.263-2.242,1.498
				c-1.652,3.987-4.896,4.785-5.063,4.823c-0.6,1.833-6.979,4.22-15.415,6.251c5.973-1.062,15.23-3.672,15.752-5.803
				C144.863,805.147,147.547,803.704,148.721,800.538z"/>
			<path id="path16572" fill="#B0B7BB" d="M145.931,799.73c1.764-1.131,3.29-3.486,3.784-4.38c-1.441,1.894-3.047,3.371-4.452,4.17
				c-1.674,0.957-2.758,0.279-3.358-0.687C142.147,799.773,143.53,801.26,145.931,799.73L145.931,799.73z"/>
			<path id="path16580" fill="#B0B7BB" d="M135.146,796.262c0.348,0.296,0.68,0.537,1.669,0.372
				c0.573-0.139,1.853-0.913,2.542-1.452c0.484-0.382,1.053-0.93,1.563-1.548c-0.896,0.922-1.843,1.555-2.217,1.798
				c-1.162,0.748-1.853,0.854-2.01,0.88c-1.147,0.2-1.816-0.376-1.974-0.95C134.721,795.649,134.868,796.01,135.146,796.262
				L135.146,796.262z"/>
			<path id="path16584" fill="#B0B7BB" d="M143.289,794.398c-1.542,1.641-2.89,2.806-4.315,3.087
				c-0.848,0.167-1.538,0.073-2.111-0.901c0.084,0.365,0.295,0.901,0.948,1.206c0.32,0.13,1.188,0.217,1.842-0.157
				C140.784,796.982,142.368,795.868,143.289,794.398L143.289,794.398z"/>
			<path id="path16596" fill="#B0B7BB" d="M164.963,770.538l0.779,2c0,0-0.827,0.939-1.8,2.678c0,0,5.8-2.113,11.441-2.618
				c0,0-0.374-0.218-0.769-0.322c-0.921-0.243-3.826-0.748-7.199-0.765c-0.348,0-0.896-0.226-1.296-0.478
				C165.415,770.59,164.963,770.538,164.963,770.538L164.963,770.538z M166.974,772.155c0.6,0,1.278,0.087,1.789,0.131l-2.59,0.765
				C166.173,773.051,165.689,772.155,166.974,772.155z"/>
			<path id="path16600" fill="#B0B7BB" d="M166.184,775.677c0,0-0.226,0.94-0.263,1.504c1.868-1.339,5.174-2.93,8.932-4.252
				c-3.864,0.896-7.158,1.713-10.653,2.965C164.889,775.808,166.184,775.677,166.184,775.677z"/>
			<path id="path16612" fill="#B0B7BB" d="M160.536,774.459c0.158-0.278,0-0.313-0.146-0.087c-0.484,0.565-1.253,0.853-1.922,0.896
				c-0.842,0.087-1.521-0.74-1.547-1.583c-0.084-1.679,1.489-2.192,2.505-1.679c0.637,0.322,0.895,0.661,1.269,1.261
				c0.442,0.087,0.932-0.087,1.2-0.139c-0.416-0.487-1.605-1.6-2.815-1.696c-2.464-0.382-2.975,2.295-2.975,2.295
				c0.458,1.548,1.584,2.07,2.269,2.061c1.237,0,1.932-0.974,2.163-1.348V774.459z"/>
			<path id="path16592" fill="#B0B7BB" d="M139.025,797.642c0.29,0.931,0.863,1.47,1.731,1.531c0.574,0,1.269-0.113,1.853-0.487
				c1.563-1.035,3.242-2.574,4.079-3.696c-1.421,1.505-2.663,2.357-4.1,3.252C140.678,799.443,139.531,798.564,139.025,797.642z"/>
			<path id="path16544" fill="#B0B7BB" d="M147.157,800.773c0.053-0.126,0.053-0.162,0.142-0.375
				c-0.936,0.058-1.726-0.336-1.946-0.627C145.615,800.536,146.668,800.703,147.157,800.773z"/>
			<path id="path16536" fill="#B0B7BB" d="M107.679,806.556c0.137-0.445,0.516-0.796,0.899-1.191
				c-0.484,0.348-1.184,0.938-1.353,1.513c0.432,0.317,3.605,1.087,19.163-2.348C120.768,805.668,112.152,807.342,107.679,806.556z"
				/>
		</g>
		<g id="layer8">
			<path id="path16608" fill="#FFFFFF" d="M159.173,773.546h0.559c0,0-0.148-1.095-1.395-0.991
				C158.337,772.555,159.104,772.642,159.173,773.546"/>
			<path id="path16616" fill="#FFFFFF" d="M165.642,773.286c0,0-0.574,0.756-0.842,1.27c0,0,4.242-1.565,8.758-2.131
				C170.837,772.512,169.868,772.251,165.642,773.286L165.642,773.286z"/>
			<path id="path16620" fill="#FFFFFF" d="M175.39,772.607c0,0-0.38-0.234-0.774-0.331c-0.226-0.087-3.058-0.739-7.205-0.791
				c0,0-0.747-0.13-1.447-0.583c-0.685-0.444-1.005-0.365-1.005-0.365l0.258,0.6c0,0,0.957,0.982,2.342,0.817
				C168.863,771.79,172.716,771.825,175.39,772.607z"/>
			<path id="path16624" fill="#FFFFFF" d="M127.215,795.512c0,0-0.989,0.139-2.163,0.487c-1.227,0.366-2.652,0.965-3.426,1.914
				c0,0,2.6,1.2,8.105-0.244c0.51-0.139,1.053-0.279,1.615-0.479c0,0-6.305,1.435-8.39,0.461
				C122.957,797.651,123.825,796.478,127.215,795.512"/>
			<path id="path16628" fill="#FFFFFF" d="M124.199,800.956l1.759-1.435c0,0-7.391,1.052-8.864-0.121c0,0,0.4-0.73,1.737-1.496
				c0,0-0.669,0.191-1.426,0.557c-0.748,0.365-1.596,0.878-2.043,1.583c0,0,2.969,0.669,9.273,0
				c-1.026,0.556-1.836,1.304-1.836,1.304c5.652,0.713,9.895-0.635,11.663-1.357c0.579-0.243,0.895-0.391,0.895-0.391
				c-7.574,2.148-11.158,1.348-11.158,1.348"/>
			<path id="path16636" fill="#FFFFFF" d="M139.136,801.512c-1.163,1.122-2.562,2.504-5.441,3
				C135.547,804.364,137.825,803.782,139.136,801.512z"/>
			<path id="path16640" fill="#FFFFFF" d="M141.974,802.13c-1.643,1.408-2.927,2.669-5.227,3.191
				C138.721,805.408,140.836,804.035,141.974,802.13z"/>
			<path id="path16644" fill="#FFFFFF" d="M105.168,809.434c0,0,2.652,0.826,9.01-0.174c9.274-1.469,13.511-2.922,15.206-3.644
				c0.694-0.304,0.947-0.479,0.947-0.479c-15.963,5.017-24.016,3.861-24.016,3.861c0-0.374,1.073-1,1.073-1
				c-0.521,0.147-1.006,0.426-1.395,0.713C105.489,809.078,105.168,809.434,105.168,809.434"/>
			<path id="path16648" fill="#FFFFFF" d="M113.073,801.903c0,0-0.38,0.191-0.826,0.531c-0.396,0.287-0.854,0.687-1.169,1.173
				c0,0,2.174,1.27,9.174,0.087c1.332-0.217,2.826-0.539,4.532-0.965c0,0-10.206,1.661-12.29,0.426
				C112.494,803.156,112.12,802.747,113.073,801.903"/>
			<path id="path16672" fill="#FFFFFF" d="M129.252,803.382L129.252,803.382c1.91-0.128,6.647-0.62,7.616-2.948
				c-1.821,1.609-4.764,2.669-7.627,2.948"/>
			<path id="path16652" fill="#FFFFFF" d="M127.452,804.312c0,0-21.242,3.696-17.979,0.356c0,0-0.501,0.313-0.975,0.757
				c-0.363,0.33-0.726,0.739-0.831,1.139c0.505,0.087,3.926,1.087,18.105-1.896"/>
			<path id="path16656-0" fill="#FFFFFF" d="M148.379,800.151c0.353-0.121,0.694-0.279,1.053-0.516
				c1.594-1.18,2.926-2.708,4.078-4.316c0,0-4.731,6.027-7.926,4.511c-0.137-0.063-0.273-0.148-0.396-0.237l0,0
				c0.069,0.089,0.147,0.2,0.259,0.29l0.068,0.068c0.39,0.279,0.999,0.5,1.769,0.458c-0.059,0.155-0.111,0.247-0.158,0.357
				c-1.269,2.76-4.674,3.514-4.674,3.514c-1.1,2.745-10.305,5.766-18.143,7.772c4.111-0.883,17.905-4.119,19-7.071
				C143.31,804.981,146.642,804.267,148.379,800.151z"/>
			<path id="path16660-9" fill="#FFFFFF" d="M143.342,794.356c0.152-0.147,0.247-0.242,0.247-0.242s-5.005,4.395-6.663,2.389
				c-0.068-0.074-0.095-0.108-0.147-0.203c0.405-0.072,0.815-0.249,1.147-0.396c1.442-0.794,2.368-1.643,2.821-2.085
				c0.205-0.205,0.311-0.326,0.311-0.326s-4.101,3.658-6.295,1.826l0,0l0,0l-0.053-0.058c0,0.032,0,0.066,0,0.1
				c0.105,0.368,0.573,1.195,2.026,0.948c0.063,0.167,0.121,0.258,0.163,0.337c0.248,0.484,0.784,1.179,2.157,0.84
				C141.131,796.977,142.763,794.898,143.342,794.356L143.342,794.356z"/>
			<path id="path16664-4" fill="#FFFFFF" d="M141.946,799.024c0.417,0.601,1.447,1.548,3.337,0.5
				c0.237-0.142,0.574-0.336,0.848-0.542c1.837-1.384,2.963-2.768,3.484-3.436c0.195-0.258,0.253-0.369,0.253-0.369
				s-5.348,5.736-7.716,3.92c-0.053-0.053-0.111-0.085-0.147-0.116c-0.096-0.087-0.174-0.2-0.258-0.321l0,0
				c0.173-0.063,0.542-0.221,1.089-0.547c1.658-0.984,3.343-2.579,3.969-3.184c0.152-0.163,0.247-0.258,0.247-0.258
				s-0.126,0.116-0.342,0.3c-0.068,0.068-0.179,0.143-0.347,0.285c-1.574,1.31-5.506,4.229-7.153,2.54
				c-0.11-0.112-0.189-0.24-0.247-0.335c0.052,0.156,0.073,0.279,0.142,0.405c0.3,0.548,1.258,1.312,2.637,0.794
				C141.741,798.661,141.831,798.881,141.946,799.024L141.946,799.024z"/>
		</g>
	</g>
</g>
</svg>
