<?xml version="1.0" encoding="utf-8"?>
<!-- Generator: Adobe Illustrator 14.0.0, SVG Export Plug-In . SVG Version: 6.00 Build 43363)  -->
<!DOCTYPE svg PUBLIC "-//W3C//DTD SVG 1.1//EN" "http://www.w3.org/Graphics/SVG/1.1/DTD/svg11.dtd">
<svg version="1.1" xmlns="http://www.w3.org/2000/svg" xmlns:xlink="http://www.w3.org/1999/xlink" x="0px" y="0px" width="200px"
	 height="200px" viewBox="44 746 200 200" enable-background="new 44 746 200 200" xml:space="preserve">
<g id="Layer_1">
	<g>
		<g>
			<path fill="#FFFFFF" d="M44.251,846.002c0-55.091,44.66-99.751,99.752-99.751c55.087,0,99.749,44.66,99.749,99.751
				s-44.662,99.752-99.749,99.752C88.912,945.754,44.251,901.093,44.251,846.002z"/>
			<path fill="#FFFFFF" d="M44,846c0-55.225,44.773-100,99.999-100l0,0C199.23,746,244,790.775,244,846l0,0
				c0,55.23-44.77,100-100.001,100l0,0C88.773,946,44,901.23,44,846L44,846z M44.498,846c0,27.478,11.138,52.353,29.146,70.357l0,0
				c18.009,18.009,42.881,29.146,70.354,29.146l0,0c27.48,0,52.354-11.138,70.366-29.146l0,0
				c17.999-18.005,29.141-42.881,29.141-70.357l0,0c0-27.477-11.14-52.354-29.141-70.355l0,0
				c-18.013-18.01-42.886-29.143-70.366-29.143l0,0c-27.475,0-52.346,11.131-70.354,29.143l0,0
				C55.636,793.646,44.498,818.523,44.498,846L44.498,846L44.498,846z"/>
		</g>
		<path fill="#E03A3E" d="M148.107,862.052v-31.949h17.115c6.438,0,9.199,1.529,9.199,8.994c0,3.919-0.745,5.974-2.985,7.093
			c2.985,1.679,2.985,4.853,2.985,7.652c0,7.091-3.136,8.21-9.199,8.21C157.385,862.052,148.107,862.052,148.107,862.052z"/>
		<path fill="#005A9B" d="M50.892,846.002c0-51.421,41.687-93.109,93.112-93.109c51.419,0,93.107,41.687,93.107,93.109
			c0,51.422-41.688,93.107-93.107,93.107C92.579,939.109,50.892,897.424,50.892,846.002z M144.004,914.775
			c37.98,0,68.773-30.793,68.773-68.773c0-37.982-30.795-68.773-68.773-68.773c-37.985,0-68.775,30.791-68.775,68.773
			C75.229,883.982,106.019,914.775,144.004,914.775z"/>
		<g>
			<g>
				<path fill="#E03A3E" d="M174.279,865.439c-6.398,9.946-17.571,16.538-30.275,16.538c-19.867,0-35.974-16.109-35.974-35.976
					c0-19.868,16.106-35.974,35.974-35.974c13.097,0,24.562,7.001,30.853,17.463l17.708-17.257
					c-10.986-14.882-28.645-24.542-48.561-24.542c-33.311,0-60.311,27.001-60.311,60.309c0,33.307,27,60.309,60.311,60.309
					c19.699,0,37.197-9.449,48.206-24.062L174.279,865.439z"/>
			</g>
		</g>
		<path fill="#E03A3E" d="M133.366,851.976v-21.873h10.822v22.13c0,7.952-1.866,9.819-8.173,9.819c-4.703,0-7.165,0-11.271,0
			c-5.188,0-6.869-3.358-6.869-10.377v-21.573h10.824v21.873C128.699,854.961,133.366,854.961,133.366,851.976"/>
		<path fill="#FFFFFF" d="M164.105,838.821c-0.042-1.311-1.27-1.216-4.612-1.216v4.478c1.865,0,4.612,0.187,4.612-1.491V838.821z"/>
		<path fill="#FFFFFF" d="M164.025,851.819c-0.573-1.524-0.894-1.338-4.532-1.338v4.479c2.333,0,4.532,0.185,4.532-1.492
			C164.025,853.048,164.137,852.132,164.025,851.819z"/>
		<g>
			<g>
				<path fill="#E03A3E" d="M196.045,862.052c5.826,0,8.839-1.586,8.839-6.738c0-0.635-0.04-6.512-0.031-7.163
					c0.031-3.733-2.658-6.16-6.423-6.16s-6.544,0-7.799,0c-2.117,0-1.646-3.078-1.646-4.013c0-1.492,4.407-1.958,4.407,0.468
					c0,0.652,0,1.119,0,1.494h11.492c0-7.467-1.345-9.836-8.839-9.836c-1.74,0.037-8.125,0.037-10.096,0.037
					c-4.808,0-7.426,1.867-7.608,7.467c-0.176,5.597,0,3.172,0,5.225c0,2.052-0.321,6.624,5.964,6.624c3.371,0,7.214,0,7.934,0
					c2.243,0,1.794,2.613,1.794,2.613v1.68c0,1.866-3.79,1.961-4.64,0.411c-0.565-1.025-0.27-2.649-0.27-2.649H178.34
					c0,2.238-1.213,10.543,5.305,10.543C189.562,862.052,196.045,862.052,196.045,862.052z"/>
			</g>
		</g>
		<g>
			<g>
				<path fill="#005A9B" d="M191.128,867.991h-1.854v5.048h-1.251v-5.048h-1.854v-1.095h4.958V867.991L191.128,867.991z
					 M199.534,873.039h-1.255v-4.886h-0.031l-1.778,4.886h-1.211l-1.723-4.886h-0.026v4.886h-1.254v-6.143h2.173l1.431,4.013h0.028
					l1.487-4.013h2.159V873.039L199.534,873.039z"/>
			</g>
		</g>
	</g>
</g>
<g id="svg12082">
</g>
<g id="svg31568">
</g>
</svg>
