<?xml version="1.0" encoding="utf-8"?>
<!-- Generator: Adobe Illustrator 14.0.0, SVG Export Plug-In . SVG Version: 6.00 Build 43363)  -->
<!DOCTYPE svg PUBLIC "-//W3C//DTD SVG 1.1//EN" "http://www.w3.org/Graphics/SVG/1.1/DTD/svg11.dtd">
<svg version="1.1" xmlns="http://www.w3.org/2000/svg" xmlns:xlink="http://www.w3.org/1999/xlink" x="0px" y="0px" width="200px"
	 height="200px" viewBox="44 746 200 200" enable-background="new 44 746 200 200" xml:space="preserve">
<g id="Layer_1">
	<g>
		<g>
			<path fill="#FF0028" d="M156.418,914.363c55.693,0,87.582-36.359,87.582-69.362c0-39.519-44.139-67.365-91.271-67.365v0.003
				c-37.837,0-64.067,22.39-78.328,39.342C54.818,840.262,44,843.229,44,843.229c15.166,13.285,22.302,20.046,29.34,27.663
				C93.202,892.382,109.65,914.363,156.418,914.363L156.418,914.363z"/>
			<g>
				<path d="M155.449,904.992c-40.459,0-56.367-17.353-75.103-37.25c-7.683-8.154-12.489-15.525-24.93-24.704l2.557,5.913
					c11.96,9.787,16.902,16.858,24.584,25.013c18.734,19.896,34.37,35.556,74.828,35.556c35.426,0,62.841-17.497,75.736-39.037
					l-1.94-4.531C218.289,887.491,190.869,904.992,155.449,904.992z"/>
				<path d="M156.483,803.684c-39.566,0-55.104,26.304-55.104,38.898c0,7.305,2.129,13.724,5.749,19.194
					c-2.372-4.448-2.93-11.15-2.93-15.485c0-12.603,14.938-37.991,53.63-37.991c23.266,0,40.828,10.742,46.724,20.064h29.298
					c-0.537-1.063-1.846-4.619-1.846-4.619h-27.977C198.133,814.424,179.751,803.684,156.483,803.684z"/>
				<path fill="#FFFFFF" d="M80.347,867.742c18.735,19.896,34.644,37.249,75.103,37.249c35.42,0,62.84-17.502,75.732-39.041h-27.666
					c-12.942,9.831-28.801,17.761-48.958,17.761c-18.607,0-38.046-7.76-47.429-21.935c-3.62-5.471-5.749-11.891-5.749-19.194
					c0-12.595,15.536-38.898,55.104-38.898c23.268,0,41.649,10.741,47.545,20.061h27.977c-12.975-25.622-46.47-41.064-79.966-41.064
					c-32.899,0-58.036,18.976-72.468,36.066c-19.12,22.649-24.154,24.292-24.154,24.292
					C67.857,852.217,72.664,859.588,80.347,867.742z"/>
			</g>
			<g>
				<polygon points="172.97,840.01 166.743,840.01 166.743,837.028 157.442,837.028 157.442,843.092 160.506,843.092 
					160.506,840.092 166.639,840.092 169.807,843.076 176.031,843.076 176.031,834.798 172.97,831.735 				"/>
				<polygon points="147.11,859.453 150.135,862.517 150.175,862.517 176.031,862.517 176.031,854.425 172.97,851.36 
					172.97,859.453 				"/>
				<polygon points="157.442,848.287 157.442,854.346 160.506,854.346 160.506,851.354 168.163,851.354 168.163,846.154 
					165.098,843.092 165.098,848.287 				"/>
				<polygon points="147.11,837.028 150.135,840.092 150.175,840.092 151.22,840.092 151.22,837.028 				"/>
				<polygon points="111.529,837.028 114.589,840.092 115.678,840.092 115.678,837.028 				"/>
				<polygon points="111.529,859.453 114.589,862.517 129.113,862.517 129.113,857.416 126.05,854.353 126.05,859.453 				"/>
				<polygon points="133.812,846.871 137.041,854.353 138.782,854.353 136.873,849.935 141.483,846.154 141.483,840.059 
					138.421,836.997 138.421,843.092 				"/>
				<polygon points="121.899,848.224 121.899,854.353 124.963,854.353 124.963,851.287 129.09,851.287 127.776,848.224 				"/>
				<polygon points="140.508,859.453 132.6,859.453 135.663,862.517 143.572,862.517 143.572,857.416 140.508,854.353 				"/>
				<polygon points="132.195,840.092 132.195,838.341 130.623,837.028 121.899,837.028 121.899,843.117 124.963,843.117 
					124.963,840.092 				"/>
				<polygon fill="#FFFFFF" points="157.442,837.028 166.743,837.028 166.743,840.01 172.97,840.01 172.97,831.735 147.11,831.735 
					147.07,831.735 147.07,837.028 147.11,837.028 151.22,837.028 151.22,840.092 151.22,854.346 147.11,854.346 147.11,854.353 
					147.07,854.353 147.07,859.453 147.11,859.453 172.97,859.453 172.97,851.36 166.743,851.36 166.743,854.346 160.506,854.346 
					157.442,854.346 157.442,848.287 165.098,848.287 165.098,843.092 160.506,843.092 157.442,843.092 				"/>
				<path fill="#FFFFFF" d="M140.508,854.353h-1.725h-1.742l-3.229-7.481l4.608-3.779v-6.095l-6.26-5.263h-20.632v5.294h4.148v3.063
					v14.261h-4.148v5.101h14.521v-5.101h-1.087h-3.063v-6.129h5.877l1.314,3.063l3.509,8.166h7.908V854.353z M124.963,843.117
					h-3.064v-6.089h8.724l1.572,1.312v1.752v1.771l-1.5,1.254H124.963z"/>
				<polygon points="179.541,837.028 182.56,840.092 182.602,840.092 183.646,840.092 183.646,837.028 				"/>
				<polygon points="199.172,840.092 199.172,838.341 197.603,837.028 189.869,837.028 189.869,854.346 192.932,854.346 
					192.932,840.092 				"/>
				<polygon points="205.396,854.32 199.139,859.453 179.541,859.453 182.56,862.517 182.602,862.517 200.25,862.517 
					208.459,855.79 208.459,840.059 205.396,836.997 				"/>
				<polygon points="225.859,848.287 218.011,848.287 211.785,843.092 221.646,851.354 227.422,851.354 227.422,849.592 				"/>
				<polygon points="236.67,851.354 233.608,848.287 233.646,854.249 227.392,859.512 219.631,859.512 219.604,859.512 
					217.973,858.135 217.973,859.582 211.785,859.582 214.848,862.646 221.034,862.646 221.034,861.196 222.668,862.572 
					222.694,862.572 228.64,862.572 236.697,855.964 				"/>
				<polygon points="227.422,840.01 227.422,838.345 225.831,837.016 219.702,837.024 218.104,838.358 218.104,841.794 
					219.658,843.092 221.167,843.092 221.167,841.419 222.764,840.089 227.329,840.081 230.485,843.076 236.67,843.076 
					236.67,834.798 233.608,831.735 233.608,840.01 				"/>
				<polygon points="219.49,854.302 221.153,854.314 217.973,851.304 217.973,853.042 				"/>
				<path fill="#FFFFFF" d="M205.396,854.32v-17.323l-6.257-5.263h-19.598h-0.044v5.294h0.044h4.105v3.063v14.254h-4.105v0.007
					h-0.044v5.101h0.044h19.598L205.396,854.32z M192.932,854.346h-3.062v-17.317h7.733l1.569,1.312v1.752v13l-1.5,1.253H192.932z"
					/>
				<polygon fill="#FFFFFF" points="217.973,858.135 219.604,859.512 219.631,859.512 227.392,859.512 233.646,854.249 
					233.608,848.287 227.386,843.092 221.167,843.092 219.658,843.092 218.104,841.794 218.104,838.358 219.702,837.024 
					225.831,837.016 227.422,838.345 227.422,840.01 233.608,840.01 233.608,831.735 227.422,831.735 227.422,833.084 
					225.819,831.735 218.138,831.735 211.785,836.997 211.785,843.092 218.011,848.287 225.859,848.287 227.422,849.592 
					227.422,851.354 227.422,853.085 225.912,854.351 221.153,854.314 219.49,854.302 217.973,853.042 217.973,851.304 
					211.785,851.304 211.785,859.582 217.973,859.582 				"/>
			</g>
		</g>
		<path d="M227.477,896.152h-1.992v5.412h-1.345v-5.412h-1.987v-1.178h5.324V896.152L227.477,896.152z M236.482,901.559h-1.346
			v-5.241h-0.03l-1.908,5.241h-1.293l-1.843-5.241h-0.032v5.247h-1.348v-6.59h2.329l1.533,4.304h0.029l1.599-4.304h2.311
			L236.482,901.559L236.482,901.559z"/>
	</g>
</g>
<g id="svg12082">
</g>
<g id="svg31568">
</g>
</svg>
