<?xml version="1.0" encoding="utf-8"?>
<!-- Generator: Adobe Illustrator 14.0.0, SVG Export Plug-In . SVG Version: 6.00 Build 43363)  -->
<!DOCTYPE svg PUBLIC "-//W3C//DTD SVG 1.1//EN" "http://www.w3.org/Graphics/SVG/1.1/DTD/svg11.dtd">
<svg version="1.1" xmlns="http://www.w3.org/2000/svg" xmlns:xlink="http://www.w3.org/1999/xlink" x="0px" y="0px" width="200px"
	 height="200px" viewBox="44 746 200 200" enable-background="new 44 746 200 200" xml:space="preserve">
<g id="Layer_1">
</g>
<g id="svg12082">
</g>
<g id="svg31568">
</g>
<g id="CLEVELAND_INDIANS">
	<g>
		<g>
			<g>
				<g>
					<g>
						<path fill="#FFFFFF" stroke="#FFFFFF" stroke-width="0.262" d="M177.149,762.396c0.25-0.249,3.625-3.612,7.443-6.169
							c4.464-2.997,19.399-10.226,19.399-10.226l16.778,22.13c0,0,2.145,2.699,1.444,5.886c-1.01,4.545-8.013,33.626-8.013,33.626
							s-1.71,10.595-5.475,17.019c-7.084,12.082-13.53,22.728-13.53,22.728l0.205,2.678c0,0,2.389-2.153,4.142-3.653
							c1.749-1.5,4.126,0.89,8.872,4.139c4.75,3.247,8.001,11.745,8.251,13.244c0.251,1.503-0.251,7.5-1.503,11.249
							c-1.248,3.748-5.551,11.307-5.551,11.307s4.253,5.247,1.753,12.998c-2.5,7.747-9.007,13.24-9.508,13.741
							c-0.497,0.501-8.402,4.462-12.189,4.118c-1.578-0.143-7.314,6.195-9.745,8.729c-3.078,3.198-10.829,9.092-13.333,11.322
							c-4.724,4.214-17.687,9.064-28.452,8.722c-8.031-0.257-15.51-1.495-18.512-2.245c-3.001-0.748-10.5-3.749-13.997-7.497
							c-3.5-3.748-12.745-15.243-14.995-19.247c-2.252-3.999-8.556-9.276-9.015-9.771c-2.936-3.193-7.74-7.985-7.74-7.985
							c-5.328-6.176-5.88-12.187-5.88-18.003c0-3.013,1.243-4.728,7.337-10.821c2.686-2.685,6.378-4.307,8.61-6.298
							c3.09-2.751,4.414-5.667,5.644-8.206c2.86-5.901,4.997-10.757,8.747-24.254c0,0,5.06-13.463,8.055-17.462
							c3.001-3.999,14.739-11.744,29.981-13.244c15.246-1.499,20.751-2,23.744-1.25c3.002,0.751,3.198,0.82,3.198,0.82l0.627,0.243
							l3.194,1.616L177.149,762.396z"/>
					</g>
				</g>
				<g>
					<path fill="#091336" d="M180.528,768.029c0.223-0.227,2.022-5.017,5.678-7.037c3.694-2.038,16.823-9.09,16.823-9.09
						l12.943,18.627c0,0,1.55,1.773,0.909,4.671c-0.921,4.132-9.865,39.525-9.865,39.525s-2.23,9.024-5.983,14.635
						c-7.064,10.548-12.782,17.97-12.782,17.97l0.455,16.277c0,0,5.455-8.549,7.043-9.916c1.595-1.365,3.863-3.86,8.182-0.91
						c4.318,2.955,7.273,10.683,7.496,12.046c0.231,1.359-0.223,6.814-1.359,10.221c-1.141,3.414-5.455,12.046-5.455,12.046
						s3.86,4.77,1.592,11.816c-2.272,7.045-9.542,11.363-9.997,11.814c-0.458,0.454-4.519,1.914-7.963,1.606
						c-1.433-0.131-9.767,8.313-11.98,10.613c-2.801,2.909-9.843,8.267-12.12,10.297c-4.295,3.828-16.079,8.24-25.868,7.929
						c-7.3-0.234-14.101-1.359-16.827-2.042c-2.729-0.682-9.542-3.409-12.726-6.814c-3.183-3.41-11.59-13.86-13.632-17.498
						c-2.047-3.637-7.78-8.437-8.191-8.883c-2.674-2.904-7.042-7.259-7.042-7.259c-4.84-5.616-8.203-11.002-7.027-16.353
						c0.59-2.67,0.675-6.354,7.945-9.989c7.273-3.637,11.011-9.157,12.964-13.183c2.599-5.362,4.544-9.781,7.95-22.05
						c0,0,5.684-15.903,8.407-19.54c2.729-3.636,13.396-10.677,27.258-12.04c13.861-1.364,18.857-1.819,21.589-1.135
						c2.725,0.682,9.312,4.545,9.312,4.545l0.539,0.356l1.818,1.063L180.528,768.029z"/>
				</g>
				<g>
					<path fill="#ED1D33" d="M189.615,863.688c0,0,6.815-8.86,9.547-10.225c0,0,1.021-0.683,2.157,0.569
						c1.132,1.249,5.227,6.588,6.132,9.315c0.91,2.728,2.39,3.863,0.683,9.092c-1.703,5.224-4.534,10.803-5,11.36
						c-0.975,1.159-1.422,1.834-3.187,0.331c0,0,3.757,4.892,3.757,10.802c0,5.905-3.295,8.86-4.542,9.997
						c-1.252,1.137-4.724,3.398-7.39,3.976c-2.029,0.442-4.769,0.455-4.769,0.455s-15.112,14.77-18.634,17.382
						c-3.521,2.615-9.542,7.843-15.902,9.662c-6.363,1.816-13.636,2.723-22.726,1.586c-4.952-0.619-14.391-2.789-18.255-6.444
						c-2.496-2.365-8.442-8.552-12.645-15.028c-4.204-6.476-6.479-8.062-9.203-11.245c-2.729-3.186-8.408-7.612-10.113-10.112
						c-1.703-2.5-5.114-8.067-4.886-11.477c0.454-6.803,5.225-8.859,6.36-9.542c1.137-0.682,6.142-3.182,7.96-5.228
						c1.816-2.045,5.678-6.364,6.47-8.748c0.798-2.385,2.501-5.224,4.203-10.794c1.56-5.081,5.865-19.763,11.138-28.627
						c0,0,2.041-3.181,5.678-3.181c3.636,0,13.407-0.681,13.407-0.681s5.111-7.501,8.349-9.487c0,0,1.819-1.363,2.613-1.023
						c0.798,0.339-1.25,2.215-1.25,2.215s-5,5.168-5.907,7.327c0,0-0.452,1.023,0.907,1.023c1.365,0,13.808-0.283,16.989-0.17
						c3.179,0.114,4.997,1.478,6.134,2.612c0,0,14.954,19.162,20.336,24.768c5.455,5.682,10.709,16.214,10.709,16.214
						C188.68,861.045,188.817,864.636,189.615,863.688z"/>
				</g>
				<g>
					<g>
						<path fill="#FFFFFF" d="M188.251,865.737c0,0,1.43-3.282,0.484-5.373c-1.436-3.159-4.552-8.388-8.178-13.229
							c-0.87-1.166-11.604-13.656-11.604-13.656l-10.647-13.317c0,0-1.81-3.245-6.75-3.392c-3.035-0.09-15.841,0.133-15.841,0.133
							s-2.896,0.351-1.851-1.292c1.179-1.855,2.415-3.371,4.06-5.183c1.046-1.154,5.213-4.989,1.838-3.962
							c-2.206,0.672-5.863,4.533-9.906,10.419l-12.005,0.581c0,0-4.627-0.708-7.25,3.539c-3.454,5.604-6.624,14.681-6.624,14.681
							l8.311-13.079l2.021,8.259l31.354,0.169l4.216-7.669c0,0,3.54-0.255,7.504,10.956c1.256,3.563,1.437,2.45,9.35,9.693
							C174.656,851.265,188.251,865.737,188.251,865.737z"/>
						<path fill="#091336" d="M102.405,838.767l9.429-17.61c0,0,1.094-1.888,1.661,0.157c0.566,2.044,4.316,18.746,4.433,19.881
							c0,0,0.452,3.749-1.027,0.341c-1.473-3.407-4.312-11.02-4.771-13.974c0,0-0.567-3.296-1.474-0.228
							c0,0-6.36,13.18-7.725,15.111c-1.363,1.932-2.501,3.863-2.048,1.705C101.338,841.991,102.405,838.767,102.405,838.767z"/>
					</g>
					<g>
						<path fill="#091336" d="M140.536,839.038c1.939-3.279,3.521-8.748,8.746-17.611c0.816-1.383,1.305-1.782,2.615-0.113
							c4.996,6.362,11.188,23.574,11.017,25.107c0,0,0.232,3.067-1.021,1.475c-2.296-2.917-7.84-20.107-9.997-22.608
							c0,0-1.252-0.792-2.839,2.501c0,0-6.365,12.725-7.727,14.656c-1.363,1.932-2.5,3.863-2.046,1.705
							C139.737,841.991,140.183,839.631,140.536,839.038z"/>
					</g>
					<g>
						<polygon fill="#091336" points="114.859,832.105 114.63,830.516 146.217,829.835 145.077,831.651 						"/>
					</g>
				</g>
				<g>
					<path fill="#091336" d="M106.677,865.052c2.275-0.224,0.683,1.367,0.683,1.367c-2.727,2.042-3.649,8.179-3.86,11.13
						c-0.222,3.069-0.359,7.153-0.359,7.153s-5.281-1.418-10.112-3.74c-1.17-0.563-4.423-0.787-6.191,0.827
						c-1.208,1.11-2.424,4.623-1.741,9.852c0.678,5.224,2.729,1.129,2.729,1.129c3.637,5.682,12.265,19.319,17.718,27.047
						c4.877,6.907,10.514,8.051,12.502,9.086c4.063,2.12,15.449,3.411,22.723,2.501c5.863-0.736,9.995-2.501,11.81-4.318
						c1.818-1.818,16.593-10.001,20.68-16.361c4.091-6.36,2.273-12.27,0.909-17.266c-1.36-5-6.592-4.772-6.592-4.772
						c-7.497,0.223-26.354-2.501-26.354-2.501c-0.229-0.909-1.59-4.091-5.001-6.359c-3.407-2.276-1.359,2.041-1.359,2.041
						c-0.229,0,2.953,5.228,2.953,5.228s-3.863,2.728-4.771,2.951c-0.911,0.23-3.411-0.451-7.73,1.818
						c-4.312,2.272-7.724,1.817-10.901,2.272c-3.184,0.458-5.933,0.216-7.289-2.272c-0.924-1.706-2.866-2.978-2.03-12.497
						c0.678-7.747,1.028-8.397,1.823-9.993c0.83-1.679,3.164-3.633,7.719-6.592c5.556-3.609,8.408-8.636,8.408-8.636
						c-0.682,0.912-4.996,4.317-4.996,4.317l-2.958-9.77l-4.543-13.635c-1.818,0.909-4.089,4.09-5.225,7.954
						c-1.136,3.86-3.919,12.398-5.906,17.723c-1.53,4.4-2.277,5.302-2.5,5.563C98.252,865.811,103.955,865.194,106.677,865.052z"/>
				</g>
				<g>
					<path fill="#091336" d="M136.216,866.87c0,0,7.271-11.812,8.184-14.767c0.907-2.955,3.86-12.955,6.589-15.452
						c0,0,1.817-1.364,2.953-0.227c1.134,1.134,6.588,9.089,9.088,17.721c2.5,8.637,4.104,19.108,7.509,25.014
						c0,0-13.896-7.566-18.19-8.996C145.123,867.756,136.216,866.87,136.216,866.87z"/>
				</g>
				<g>
					<path fill="#FFFFFF" d="M114.177,850.74c-0.678-2.445-4.317-13.182-4.317-13.182c-2.042,2.273-9.993,25.444-10.45,26.803
						l8.822-1.009c-0.029-1.43,0.496-6.741,2.03-7.955l3.233,0.215l-0.921-3.404C112.915,851.522,113.665,850.926,114.177,850.74z"
						/>
				</g>
				<path fill="#FFFFFF" d="M160.638,853.672c-1.694-7.727-8.062-15.657-8.062-15.657c-3.633,2.726-6.815,15.677-7.268,17.044
					c-0.452,1.359-5.916,10.671-5.916,10.671s3.528,0.347,6.368,0.905c2.678,0.528,8.41,2.501,8.41,2.501
					c-0.787-1.754-0.186-8.41,1.659-10.268l4.118,0.377l-2.257-3.22C157.949,855.563,158.38,854.4,160.638,853.672z"/>
				<g>
					<path fill="#FFFFFF" d="M162.349,892.777c0,0,6.588-0.231,7.272-0.458c0,0,3.183-0.678,3.405,2.045
						c0.228,2.728,0.921,9.993-0.439,12.721c0,0,1.576,1.822-10.921,11.141c-12.497,9.314-13.63,11.134-22.72,11.589
						c-9.09,0.45-18.861-1.592-20.68-2.5c0,0-7.366-3.656-12.044-9.547c-6.135-7.724-9.09-14.084-17.95-27.49
						c-1.035-1.563-0.146-5.316,0.682-5.909c0.996-0.717,3.051,0.073,4.772,0.909c1.444,0.7,9.771,3.409,9.771,3.633
						c0,0.231,1.359,4.318,3.634,5.909c2.272,1.591,8.634,5,18.857,1.363c0,0,4.089-3.178,9.545-3.863
						c0.729-0.32,2.966-1.337,4.318-3.032C140.929,891.622,154.509,892.854,162.349,892.777z"/>
				</g>
				<g>
					<path fill="#091336" d="M97.362,902.658c0,3.06-2.157-12.043-1.25-14.77c0,0,0.91,3.409,1.136,7.273
						C97.479,899.025,97.362,901.977,97.362,902.658z"/>
				</g>
				<g>
					<g>
						<path fill="#091336" d="M108.04,916.18c0,3.059-3.634-13.066-2.271-18.634c0,0,0.908,3.408,1.138,7.272
							C107.133,908.68,108.04,915.499,108.04,916.18z"/>
					</g>
				</g>
				<g>
					<g>
						<g>
							<path fill="#091336" d="M119.661,920.904c0.234,3.401-3.061-12.274-1.615-21.539c0,0,0.79,6.278,0.879,10.146
								C119.016,913.38,119.613,920.226,119.661,920.904z"/>
						</g>
					</g>
				</g>
				<g>
					<g>
						<g>
							<path fill="#091336" d="M134.628,924.243c0,3.059-3.521-15.902-2.157-21.469c0,0,0.906,3.408,1.137,7.269
								C133.83,913.907,134.628,923.565,134.628,924.243z"/>
						</g>
					</g>
				</g>
				<g>
					<path fill="#091336" d="M162.232,902.886c0,3.059-1.927-4.884-1.021-7.611c0,0,0.681-3.749,0.908,0.115
						C162.349,899.249,162.232,902.203,162.232,902.886z"/>
				</g>
				<path fill="#091336" d="M124.856,895.955c0,0,14.882,2.273,19.2,2.047c0,0,0.911-0.456,1.136,1.817
					c0.228,2.27,1.932,14.658,2.387,16.245c0.457,1.592-0.892-15.358-1.252-16.473c-0.495-1.537,1.028-1.706,1.028-1.818
					c0,0,13.174-2.045,15.447-3.066c2.273-1.024,5.794-2.843,6.365-3.065l-4.658,0.678c0,0-13.406,4.045-18.974,4.142
					c-6.599,0.115-14.769-0.89-19.027-2.046L124.856,895.955z"/>
				<path d="M160.984,840.513"/>
				<path fill="#091336" d="M159.849,839.832c0,0,14.315,11.59,20.225,20.225c0,0,4.996,14.314,6.815,16.811
					c0,0,1.363,3.413,1.595,0c0.224-3.405-0.231-11.129-0.231-11.129s-29.54-32.495-31.358-32.95L159.849,839.832z"/>
				<g>
					<path fill="#091336" d="M191.888,872.098c0.543-4.441,6.137-8.859,8.406-9.997c0,0,3.186-1.591,1.591,1.818
						c-1.591,3.406-1.817,2.728-1.817,2.728s3.637,8.634,3.412,10.679c-0.23,2.041-1.818,5.905-5.913,1.359
						c0,0,2.046,1.363,3.413-0.223c1.36-1.596-2.05-7.844-2.05-9.774c0-0.228-2.949,2.5-3.636,6.592
						C195.293,875.28,190.752,881.417,191.888,872.098z"/>
				</g>
				<g>
					<path fill="#ED1D33" d="M183.251,768.938c0,0,1.179-4.765,4.781-6.651c3.544-1.857,3.57-1.926,3.57-1.926l3.69,5.623
						l-2.1-6.417l2.216-1.137l2.272,3.011l-0.852-3.691l5.852-3.126l7.608,11.247l-4.984,3.654c0,0,4.646-1.949,6.014-2.062
						l1.193,1.646l-5.735,3.933c0,0,5.62-1.839,6.983-2.058l1.006,1.506l-1.749,6.792l-7.605,5.124l7.034-2.569l-1.694,7.383
						l-7.621,5.965c0,0,7.158-3.859,7.158-3.636c0,0.226-7.27,6.475-7.27,6.475l6.537-3.864l-1.018,4.205l-3.702,3.75l3.021-1.083
						l-2.497,10.509c0,0-11.656,8.072-11.656,8.296c0,0.225,2.955-1.134,3.748-1.59c0,0-1.133,1.701-1.133,1.475
						c0-0.223,4.542-1.475,4.542-1.475s-7.042,5.223-7.042,4.999c0-0.225,9.426-4.659,9.426-4.659s-1.333,4.108-2.354,6.152
						c-1.005,2.003-4.498,7.055-4.498,7.055l-7.124,2.927l5.171-0.228l-0.853,1.25l-4.202,1.364l3.467-0.455l-5.405,7.266
						c0,0-4.422-7.379-4.083-9.085c0,0,1.479-6.135,1.021-8.407c0,0-1.021,4.318-2.385,5.339l-9.881-18.518L183.251,768.938z"/>
				</g>
				<line fill="none" x1="199.046" y1="769.279" x2="198.364" y2="768.938"/>
				<g>
					<g>
						<path fill="#091336" d="M178.824,806.088c0,0,0,4.319,2.608,6.476C181.433,812.564,180.3,806.884,178.824,806.088z"/>
					</g>
					<g>
						<path fill="#091336" d="M180.073,800.295c0,0,0.909,5.566,3.521,7.726C183.595,808.02,181.549,801.09,180.073,800.295z"/>
					</g>
				</g>
				<g>
					<g>
						<path fill="#091336" d="M184.276,779.959c0,0,2.728,10.453,5.339,12.61C189.615,792.569,185.752,780.753,184.276,779.959z"/>
					</g>
				</g>
				<g>
					<g>
						<path fill="#091336" d="M192.685,764.849c0,0-0.342,2.612,1.588,4.43C194.272,769.279,193.706,765.756,192.685,764.849z"/>
					</g>
				</g>
				<g>
					<path fill="#091336" d="M198.364,768.595c-0.231,0.458-10.452,40.903-11.593,48.401c0,0,11.253-41.014,12.273-47.718
						L198.364,768.595z"/>
				</g>
				<path fill="#091336" d="M185.185,823.358c0,0,0.116-2.386,0.909-3.409C186.094,819.949,186.094,821.881,185.185,823.358z"/>
				<g>
					<path fill="#091336" d="M190.868,813.588c-3.059,0.695,11.583-7.5,14.084-7.385
						C204.952,806.202,193.363,813.019,190.868,813.588z"/>
				</g>
				<g>
					<path fill="#091336" d="M197.747,781.42c-3.059,0.696,11.588-7.499,14.089-7.385
						C211.836,774.036,200.247,780.852,197.747,781.42z"/>
				</g>
				<g>
					<path fill="#091336" d="M199.674,793.375c-1.526,0.347,5.798-3.748,7.042-3.692
						C206.716,789.683,200.921,793.093,199.674,793.375z"/>
				</g>
				<g>
					<path fill="#091336" d="M162.317,907.424c0.228,0,1.349,2.692,1.349,3.366c0,0.675-0.898,2.47-0.898,2.47l-0.673-2.246
						L162.317,907.424z"/>
				</g>
				<path fill="#ED1D33" d="M128.14,894.754c0,0,3.768-2.019,6.699-2.386c2.408-0.3,5.068-3.158,5.068-3.158
					s-0.145,1.533,8.368,2.631c8.514,1.095,14.685,0.909,14.685,0.909s-10.416,3.426-18.01,3.783
					C137.788,896.872,129.153,895.089,128.14,894.754z"/>
			</g>
		</g>
	</g>
</g>
</svg>
