<?xml version="1.0" encoding="utf-8"?>
<!-- Generator: Adobe Illustrator 14.0.0, SVG Export Plug-In . SVG Version: 6.00 Build 43363)  -->
<!DOCTYPE svg PUBLIC "-//W3C//DTD SVG 1.1//EN" "http://www.w3.org/Graphics/SVG/1.1/DTD/svg11.dtd">
<svg version="1.1" xmlns="http://www.w3.org/2000/svg" xmlns:xlink="http://www.w3.org/1999/xlink" x="0px" y="0px" width="200px"
	 height="200px" viewBox="44 746 200 200" enable-background="new 44 746 200 200" xml:space="preserve">
<g id="Layer_1">
</g>
<g id="svg12082">
</g>
<g id="svg31568">
</g>
<g id="CLEVELAND_INDIANS">
</g>
<g id="svg2562">
	<g id="layer1" transform="translate(-258.07108,-451.64)">
		<g id="g8" transform="matrix(1.25,0,0,1.25,302.34967,479.91637)">
			<path id="path10" fill="#4C3576" d="M35.813,657.124l-5.741,11.905h13.499l37.736-28.7L49.63,668.924h2.339l29.976-21.473
				l-24.13,21.578h2.657l24.661-16.476l-18.814,16.371l2.658,0.105l22.109-13.073l-16.476,12.969l2.552,0.213l21.579-11.588
				l-15.839,11.375h48.473l-10.631-14.139l-4.252,0.638l-4.145-7.121l-21.26-19.134l-11.798-10.843l-14.352,18.284l-7.972-2.445
				l-13.287,21.153l-3.615-0.638l-1.593,2.764L35.813,657.124z"/>
		</g>
		<g id="g12" transform="matrix(1.25,0,0,1.25,329.69467,485.976)">
			<path id="path14" fill="#FFFFFF" d="M26.904,647.918l9.248-15.201l7.973,2.126l13.18-17.22l9.503,11.066l-0.425,1.169
				l-2.168-1.393l-2.445,2.233l-1.277-5.527l-3.082,3.721l-1.595-2.339l-12.756,10.63l-2.552-2.126l-6.696,8.185l-1.169-1.062
				L26.904,647.918z"/>
		</g>
		<g id="g16" transform="matrix(1.25,0,0,1.25,416.86892,526.4985)">
			<path id="path18" fill="#FFFFFF" d="M21.581,618.157l-2.809-5.227l-1.964,1.151c0,0,2.009,2.163,2.541,2.483
				C19.881,616.882,21.581,618.157,21.581,618.157z"/>
		</g>
		<g id="g20" transform="matrix(1.25,0,0,1.25,259.00247,451.64)">
			<path id="path22" fill="#161413" d="M162.283,686.548h31.088v-2.339c0,0-5.528-0.105-5.528,0
				c-0.755-8.161-7.324-30.939-28.855-46.891c-11.02-8.653-25.662-15.114-44.702-15.719c-24.342,0.85-34.015,7.76-44.113,14.244
				c-26.469,18.709-29.87,48.153-29.87,48.153h-5.209v2.445h32.163l1.158-2.338H61.56c0,0,5.848-36.993,49.216-41.564
				c-0.106,0.107,3.402-3.826,3.402-3.826l3.827,3.826c0,0,5.846,0.638,9.673,1.807c3.827,1.169,7.44,2.763,7.44,2.763
				s-12.642,1.178-13.18,14.67c0.941,11.737,10.947,13.819,13.712,13.819c2.763,0,13.606-0.32,14.988-13.819
				c0-3.083-0.744-4.997-0.744-4.997s5.421,3.934,10.311,11.906c4.891,7.973,6.059,15.307,6.059,15.307h-5.88L162.283,686.548z"/>
		</g>
		<g id="g24" transform="matrix(1.25,0,0,1.25,410.17392,557.21187)">
			<path id="path26" fill="#161413" d="M17.583,611.286v-1.914h11.215v2.178c0,0-2.019-0.425-2.604,0.958
				c-0.585,1.383-0.425,9.195-0.425,9.195s-0.16,7.6,0.107,8.239c0.265,0.636,0.477,2.072,1.646,2.231s1.329,0.372,1.329,0.372
				v1.702H17.637v-1.861c0,0,1.699-0.106,2.23-1.009c0.532-0.905,0.425-1.808,0.425-1.808v-8.133l-0.105-7.758
				c0,0,0.159-0.905-0.372-1.436C19.285,611.711,18.54,611.286,17.583,611.286z"/>
		</g>
		<g id="g28" transform="matrix(1.25,0,0,1.25,302.34967,556.04687)">
			<path id="path30" fill="#161413" d="M42.296,609.507c6.909,0,11.959,4.678,11.959,13.128c0,8.45-5.049,12.862-12.596,13.287
				c-7.441-0.425-11.587-5.048-11.587-13.394C30.072,614.185,35.6,609.932,42.296,609.507z M35.919,623.273
				c0.956,10.258,5.102,10.47,7.175,10.47s6.484-3.083,5.155-12.384c-1.328-9.302-5.155-9.673-7.07-9.673
				C39.639,611.899,34.961,613.013,35.919,623.273z"/>
		</g>
		<g id="g32" transform="matrix(1.25,0,0,1.25,264.82889,551.07437)">
			<path id="path34" fill="#161413" d="M48.13,636.923v2.128H34.417v-2.073c0,0,2.817-0.214,3.295-1.434
				c0.479-1.223,0.372-1.595,0.372-1.595s0-17.805,0-18.922c0-1.116-1.01-1.753-1.966-2.02c-0.958-0.264-1.648-0.264-1.648-0.264
				v-2.233c0,0,1.541,0.106,3.295,0c1.753-0.106,4.89-0.425,7.971-0.425c3.083,0,12.756,0.053,12.756,7.919
				c0.372,6.112-5.634,7.602-5.634,7.602s-0.159,0.691,0.426,1.009c0.584,0.319,0.743,0.637,0.743,0.637s2.18,3.933,2.498,4.519
				c0.32,0.583,1.701,3.666,2.498,4.25c0.796,0.586,2.816,0.958,2.816,0.958v2.125h-8.291l-7.121-11.745
				c0,0-0.798-0.319-1.117-0.319c-0.319,0-0.85,0.159-0.85,0.159l-0.106,6.537c0,0-0.159,1.753,0.691,2.445
				C45.898,636.871,48.13,636.923,48.13,636.923z M46.908,624.542c0.849-0.108,4.836-1.064,4.464-6.433
				c0-5.581-4.092-5.898-5.527-5.898c-1.434,0-1.488,0.212-1.488,0.212v12.223C44.356,624.646,46.057,624.646,46.908,624.542z"/>
		</g>
		<g id="g36" transform="matrix(1.25,0,0,1.25,315.55642,536.62562)">
			<path id="path38" fill="#FFFFFF" d="M33.432,612.288l-2.658-0.531l-2.232,3.402L33.432,612.288z"/>
		</g>
		<g id="g40" transform="matrix(1.25,0,0,1.25,428.19642,537.55812)">
			<path id="path42" fill="#FFFFFF" d="M15.496,612.392l3.083-0.744l2.127,2.87L15.496,612.392z"/>
		</g>
		<g id="g44" transform="matrix(1.25,0,0,1.25,388.26767,491.8805)">
			<path id="path46" fill="#FFFFFF" d="M33.195,616.939c0,0,4.677,0.212,7.123,2.339c5.739,4.358,4.677,8.291,4.677,8.291
				l-0.745,0.105c0,0-0.531-1.595-0.956-1.595c-0.425,0-0.479,0.319-0.479,0.319l0.267,0.957h-0.904c0,0-0.32-1.435-0.905-1.435
				c-0.584,0-0.371,0.584-0.371,0.584l-0.054,0.957l-0.744-0.054c0,0-0.691-1.7-1.223-1.221c-0.53,0.478-0.159,0.69-0.159,0.69
				s0.533,0.851-0.052,0.851c-0.584,0-1.116-0.691-1.116-0.691s-0.319-0.798-0.637-0.532c-0.319,0.266-0.266,0.638-0.266,0.638
				l0.425,0.85l-0.638,0.266c0,0-1.169-0.957-1.435-0.957c-0.266,0-0.849,0.425-0.477,0.638c0.371,0.212,0.744,0.425,0.744,0.69
				c0,0.266-0.373,0.373-0.373,0.373l-0.531,0.159c0,0-1.063-1.116-1.434-0.691c-0.373,0.425,0.159,0.85,0.159,0.85l0.372,0.532
				l-0.425,0.319c0,0-0.745-0.107-0.957-0.265c-0.213-0.16-0.691-0.426-0.851-0.107c-0.159,0.319,0.16,0.638,0.16,0.638l0.744,0.531
				l-0.851,0.531c0,0-1.062-0.638-1.274-0.425c-0.213,0.213-0.32,0.798-0.32,0.798l0.852,0.479l-0.161,0.425l-0.53,0.159
				c0,0-0.798-0.266-1.063-0.159c-0.266,0.106-0.266,0.797-0.266,0.797s0.373,0.425,0.586,0.425c0.212,0,0.798,0.054,0.425,0.373
				c-0.373,0.319-0.531,0.319-0.531,0.319s-1.329-0.319-1.542,0.265c-0.212,0.585,0.585,0.69,0.585,0.69s0.797-0.052,0.744,0.214
				c-0.054,0.266-0.266,0.531-0.266,0.531l-0.849,0.107c0,0-0.745,0.107-0.798,0.585c-0.054,0.477,0.584,0.53,0.584,0.53
				s0.904-0.159,0.744,0.372c-0.159,0.532-1.009,0.586-1.009,0.586s-0.691,0-0.691,0.426c0,0.425,0.318,0.637,0.318,0.637
				s1.223-0.106,1.117,0.372c-0.106,0.479-0.584,0.426-0.584,0.426s-7.122-2.871-7.122-10.258c-0.107-1.276-0.054-2.711-0.054-2.711
				s0.159-0.638,0.532-0.106c0.372,0.531,0.425,0.585,0.744,0.585c0.32,0,0.213-0.798,0.213-0.798l-0.107-0.638
				c0,0,0.266-0.213,0.532-0.213c0.265,0,0.744,1.329,1.062,1.329s0.745-0.319,0.745-0.319s-0.053-0.425-0.159-0.638
				c-0.107-0.212-0.32-0.531-0.32-0.531l0.797-0.319c0,0,0.425,0.532,0.638,0.745c0.212,0.213,0.584,0.425,0.798,0.318
				c0.212-0.106,0.106-0.531,0.106-0.531l-0.532-0.904l0.798-0.266c0,0,0.85,0.903,1.116,0.903c0.266,0,0.479-0.318,0.479-0.318
				s0.053-0.319-0.106-0.585c-0.159-0.266-0.638-0.425-0.159-0.797c0.478-0.372,0.797,0,0.797,0s0.532,0.638,0.797,0.638
				c0.266,0,0.691-0.479,0.425-0.85c-0.265-0.373-0.638-0.373-0.638-0.373l0.213-0.584c0,0,0.479-0.159,0.904,0.053
				c0.425,0.213,1.275,0.426,1.275-0.053s-0.371-0.638-0.371-0.638l-0.479-0.212c0,0,0.054-0.585,0.319-0.585
				c0.266,0,0.531-0.159,0.904,0c0.372,0.16,0.425,0.213,0.745,0.106c0.318-0.106,0.212-0.584-0.213-0.85
				c-0.425-0.266-0.745-0.053-0.691-0.532c0.053-0.477,0.797-0.318,0.797-0.318l1.063,0.053l0.372-0.637
				c0,0-0.213-0.373-0.424-0.373c-0.213,0-0.745-0.106-0.745-0.479c0-0.372,0.425-0.372,0.797-0.372c0.372,0,1.116,0,1.169-0.213
				c0.054-0.212,0.054-0.691,0.054-0.691s-0.744,0.053-0.957-0.054C33.247,617.311,33.195,616.939,33.195,616.939z"/>
		</g>
		<g id="g48" transform="matrix(1.25,0,0,1.25,272.51929,554.57062)">
			<path id="path50" fill="#C9CCD1" d="M33.527,609.679h3.03v24.395h-3.03V609.679z"/>
		</g>
		<g id="g52" transform="matrix(1.25,0,0,1.25,289.22217,554.57062)">
			<path id="path54" fill="#C9CCD1" d="M31.592,609.679c0,0,5.421,0.636,5.421,5.792s-5.315,6.166-5.315,6.166
				s1.648-1.488,1.648-6.219C33.346,610.688,31.592,609.679,31.592,609.679z"/>
		</g>
		<g id="g56" transform="matrix(1.25,0,0,1.25,284.56029,575.31187)">
			<path id="path58" fill="#C9CCD1" d="M32.132,607.861c0,0,1.701-0.586,2.232-0.586c0.532,0,1.383,0,1.383,0
				s1.541,1.542,1.913,2.339c0.371,0.798,4.464,7.708,4.464,7.708H37.66L32.132,607.861z"/>
		</g>
		<g id="g60" transform="matrix(1.25,0,0,1.25,304.21492,560.70687)">
			<path id="path62" fill="#C9CCD1" d="M34.904,608.968c0,0-2.337,3.455-1.912,9.62c0,6.748,3.029,10.469,3.029,10.469
				s-6.166,0.055-6.166-9.778C29.961,611.04,34.904,608.968,34.904,608.968z"/>
		</g>
		<g id="g64" transform="matrix(1.25,0,0,1.25,326.66479,559.93062)">
			<path id="path66" fill="#C9CCD1" d="M27.255,609.058c0,0,6.218,1.487,6.218,9.725s-4.677,10.684-4.677,10.684
				s1.488-1.967,1.488-10.472C29.594,611.661,27.255,609.058,27.255,609.058z"/>
		</g>
		<g id="g68" transform="matrix(1.25,0,0,1.25,258.07108,597.52937)">
			<path id="path70" fill="#161413" d="M35.2,604.703h159.022v2.658h-6.697v4.039H42.003v-4.252H35.2V604.703z"/>
		</g>
		<g id="g72" transform="matrix(1.25,0,0,1.25,340.25979,556.27937)">
			<path id="path74" fill="#161413" d="M25.68,622.821c0-7.442,4.677-13.341,13.341-13.341c3.296,0,5.368,1.222,5.368,1.222
				s1.223-0.797,1.541-0.797c0.319,0,0.319,0.427,0.319,0.427l0.319,8.131H45.08c0,0-1.276-6.644-6.431-6.644
				c-5.155,0-7.282,5.473-7.282,10.895c0,5.42,2.977,10.63,7.441,10.63c4.465,0,7.016-5.9,7.016-5.9s0.159-0.372,0.531-0.372
				s0.851,0.159,0.851,0.159l0.053,0.531l-1.914,7.602c0,0-1.912-0.214-2.763-0.214c-0.851,0-5.527,0.531-6.272,0.531
				C35.566,635.682,25.68,634.62,25.68,622.821z"/>
		</g>
		<g id="g76" transform="matrix(1.25,0,0,1.25,342.04692,561.09562)">
			<path id="path78" fill="#C9CCD1" d="M28.608,618.968c0,5.792,3.03,9.62,3.03,9.62s-6.166-1.011-6.166-9.355
				s5.422-10.311,5.422-10.311s0.319,0.106,0.106,0.533C30.788,609.879,28.608,613.174,28.608,618.968z"/>
		</g>
		<g id="g80" transform="matrix(1.25,0,0,1.25,416.27267,560.20187)">
			<path id="path82" fill="#C9CCD1" d="M16.876,609.025h2.816v20.622h-2.816V609.025z"/>
		</g>
		<g id="g84" transform="matrix(1.25,0,0,1.25,372.49855,557.13437)">
			<path id="path86" fill="#161413" d="M21.946,611.348l0.106-1.914h11.215v1.967c0,0-2.498-0.053-2.657,1.328
				c-0.16,1.381-0.213,7.919-0.213,7.919l6.855-7.758c0,0,0.319-0.373,0.213-0.747c0-0.689-1.17-0.848-1.17-0.848v-1.914h9.142
				v2.073c0,0-2.71-0.106-3.775,0.797c-1.488,0.744-6.378,6.697-6.378,6.697s2.127,2.658,3.35,4.464
				c1.223,1.808,4.305,6.856,4.783,7.228c0.478,0.373,0.691,1.17,1.967,1.542c1.275,0.372,1.488,0.212,1.488,0.212v1.966H34.861
				v-2.072c0,0,1.915,0.212,1.915-0.691c0-0.903-0.745-2.711-2.073-4.253c-1.329-1.541-3.242-4.145-4.146-4.252
				c-0.053,0.958,0,7.334,0,7.334s0.105,1.062,0.904,1.595c0.796,0.531,1.86,0.372,1.86,0.372v1.966H21.999v-1.912
				c0,0,2.391,0,2.604-1.434c0.213-1.436,0.213-1.756,0.213-1.756V613.42c0,0,0-1.277-1.01-1.647
				C22.797,611.401,21.946,611.348,21.946,611.348z"/>
		</g>
		<g id="g88" transform="matrix(1.25,0,0,1.25,428.74017,557.28937)">
			<path id="path90" fill="#161413" d="M15.751,611.384v-2.02h18.603l0.37,6.006h-1.753c0,0,0.479-3.35-1.913-3.35s-6.697,0-6.697,0
				v8.345c0,0,1.86,0.213,2.552,0.213c0.691,0,2.817-0.266,2.923-1.169c0.107-0.903,0.477-1.912,0.477-1.912h1.276v8.45h-1.382
				c0,0-0.182-2.464-1.594-2.711c-1.223-0.213-1.754-0.266-2.232-0.266c-0.479,0-1.967,0.319-1.967,0.319v7.388
				c0,0,0.266,0.958,1.382,0.958c1.116,0,4.677,0,5.049,0c0.372,0,1.753-0.319,2.126-0.905c0.373-0.584,1.328-3.242,1.328-3.242
				h1.541l-0.584,6.75H15.433v-2.072c0,0,2.02,0.159,2.711-0.373c0.69-0.53,0.85-0.744,0.85-0.744l-0.106-17.113
				c0,0,0.159-1.648-1.01-2.233C16.708,611.116,15.751,611.384,15.751,611.384z"/>
		</g>
		<g id="g92" transform="matrix(1.25,0,0,1.25,435.84892,560.04687)">
			<path id="path94" fill="#C9CCD1" d="M14.609,609.043h2.816v20.942h-2.816V609.043z"/>
		</g>
		<g id="g96" transform="matrix(1.25,0,0,1.25,459.27017,551.07437)">
			<path id="path98" fill="#161413" d="M19.709,610.084c3.668,0,5.9,0.903,5.9,0.903s0.372,0.161,0.584,0
				c0.213-0.159,0.691-0.638,0.691-0.638h1.063l0.478,8.397l-1.86-0.158c0,0-0.851-6.061-6.272-6.061
				c-4.305,0.533-3.242,4.519-1.86,5.211c2.923,3.081,11.162,5.898,11.162,13.498s-6.909,8.877-8.452,8.877
				c-1.541,0-5.74-1.117-6.324-1.17c-0.585-0.053-1.062,0.797-1.062,0.797h-0.904l-0.956-8.981l1.541-0.053
				c0,0,1.276,3.295,2.126,4.092c0.852,0.797,1.808,2.658,4.572,2.658c2.763,0,3.72-2.286,3.72-4.305s-3.401-4.784-4.677-5.581
				c-1.277-0.798-7.017-3.242-7.017-9.567S16.041,610.084,19.709,610.084z"/>
		</g>
		<g id="g100" transform="matrix(1.25,0,0,1.25,461.98892,557.36687)">
			<path id="path102" fill="#C9CCD1" d="M12.963,609.354c0,0-0.106,2.127,1.595,3.933c2.657,3.614,11.215,5.794,11.215,12.384
				c-0.372,4.838-2.711,5.953-2.711,5.953s0.266-1.011,0.266-3.667c0-3.614-5.367-6.592-5.367-6.592s-6.378-3.612-6.378-7.972
				C11.582,609.779,12.963,609.354,12.963,609.354z"/>
		</g>
		<g id="g104" transform="matrix(1.25,0,0,1.25,400.23017,508.03775)">
			<path id="path106" fill="#FFFFFF" d="M18.788,627.983l0.106-0.371c0,0,1.116,0.531,1.222,0.319
				c0.107-0.213,0.054-0.798,0.054-0.798l-0.692-0.425c0,0-0.744,0-0.637-0.585c0.105-0.584,0.585-0.159,0.585-0.159l0.69,0.319
				v-1.116c0,0-0.85-0.318-0.85-0.744s0.266-0.426,0.266-0.426l0.85,0.584c0,0,0.424-0.106,0.424-0.372s-0.052-0.479-0.052-0.479
				l-0.852-0.796c0,0-0.105-0.585,0.32-0.585c0.425,0,0.745,0.691,0.745,0.691s0.477-0.212,0.425-0.584
				c-0.053-0.372-0.32-0.691-0.32-0.691s-0.479-0.479-0.372-0.798c0.105-0.32,0.479-0.266,0.479-0.266s0.319,0.798,0.637,0.798
				s0.691-0.478,0.531-0.798c-0.159-0.318-0.584-1.009-0.584-1.009s0.053-0.425,0.318-0.425c0.266,0,0.798,0.85,0.798,0.85
				s0.585,0.213,0.585-0.266c0-0.478-0.16-1.01-0.16-1.01s-0.372-0.478,0.054-0.691c0.425-0.212,0.425,0.213,0.531,0.425
				c0.106,0.212,0.373,0.798,0.584,0.532c0.213-0.266,0.373-0.744,0.373-0.744s-0.213-0.372-0.213-0.745
				c0-0.372,0.213-0.532,0.213-0.532s0.425-0.531,0.477-0.212c0.054,0.319,0.054,0.851,0.106,1.01
				c0.054,0.16,0.692,0.16,0.745-0.105c0.053-0.266,0.106-0.426,0.106-0.426s-0.213-0.425-0.053-0.744
				c0.159-0.319-0.053-0.479,0.266-0.479c0.32,0,0.533,0.691,0.533,0.691s0,0.638,0.264,0.585c0.266-0.053,0.585-0.531,0.585-0.956
				c0-0.425,0.159-0.904,0.531-0.956c0.373-0.054,0.053,1.01,0.053,1.01s0.266,0.478,0.479,0.371
				c0.212-0.106,0.477-0.371,0.477-0.371l0.427-1.223h0.584c0,0-0.213,1.116,0.052,1.17c0.267,0.054,0.638-0.106,0.638-0.106
				s0.159-0.692,0.32-0.904c0.159-0.213,0.69-0.266,0.69-0.266s0.16,0,0.105,0.32c-0.052,0.318-0.424,0.85,0,0.956
				c0.426,0.106,0.798,0,0.798,0s0.266-1.382,0.85-1.329c0.585,0.053-0.106,0.957-0.106,0.957s0.055,0.478,0.425,0.585
				c0.373,0.106,0.851-0.585,0.851-0.585s0.266-0.532,0.584-0.426c0.32,0.107-0.319,0.957-0.319,0.957s0.638,0.85,0.638,1.116
				c0,0.265-0.585,5.474-5.527,8.822C25.166,630.588,18.788,627.983,18.788,627.983z"/>
		</g>
		<g id="g108" transform="matrix(1.25,0,0,1.25,388.88892,492.0355)">
			<path id="path110" fill="#FFFFFF" d="M20.846,625.531c-0.213,0.267-0.532,0.213-0.532,0.213l-0.266-0.16
				c0,0,1.701-4.623,5.103-6.59c3.4-1.967,5.58-2.073,5.58-2.073l-0.371,0.797l0.159,0.479c0,0,0.904,0.531,0.531,0.904
				c-0.371,0.373-0.903-0.213-0.903-0.213s0-0.637-0.425-0.212c-0.425,0.425-0.105,1.01-0.105,1.01s0.797,0.69,0.425,1.063
				c-0.373,0.372-0.691-0.319-0.691-0.319s-0.266-0.584-0.585-0.266c-0.319,0.319-0.159,0.85-0.159,0.85s0.744,1.169,0.159,1.223
				c-0.584,0.053-0.85-1.063-0.85-1.063s-0.584,0.584-0.584,0.85s0.69,0.957,0.106,1.329c-0.584,0.372-0.691-0.585-0.691-0.585
				s-0.32-0.744-0.638-0.372c-0.319,0.372-0.106,0.956-0.106,0.956s0.213,1.009-0.266,1.009c-0.477,0-0.584-0.371-0.584-0.371
				s0.052-1.116-0.319-0.904c-0.373,0.212-0.426,0.797-0.426,0.797s0.319,1.275-0.373,1.275c-0.69,0-0.37-0.85-0.37-0.85
				s-0.107-0.851-0.48-0.692s-0.373,0.638-0.373,0.638l-0.159,1.117l-0.743,0.158c0,0,0.159-0.69,0.052-0.956
				c-0.106-0.266-0.265-0.373-0.531-0.373c-0.265,0-0.531,0.479-0.531,0.479S21.058,625.266,20.846,625.531z"/>
		</g>
		<g id="g112" transform="matrix(1.25,0,0,1.25,404.81392,491.80237)">
			<path id="path114" fill="#161413" d="M18.416,616.948c0,0,0.957,0.479,0.691,0.797c-0.266,0.319-0.584-0.053-0.584-0.053
				l-0.32-0.425L18.416,616.948z"/>
		</g>
		<g id="g116" transform="matrix(1.25,0,0,1.25,446.84017,507.5715)">
			<path id="path118" fill="#C9CCD1" d="M26.943,619.427c1.701,3.03,2.923,7.282-1.17,9.992c-4.093,2.711-8.397-0.319-9.62-2.817
				c-1.222-2.498-2.817-6.325,1.648-9.619C21.256,615.122,25.242,616.398,26.943,619.427z"/>
		</g>
		<g id="g120" transform="matrix(1.25,0,0,1.25,449.48267,510.67937)">
			<path id="path122" fill="#161413" d="M24.245,617.738c0.477,0.797,1.966,3.348-2.127,6.377c-4.093,3.031-7.123,0.585-7.495-0.477
				c-0.372-1.064-1.594-4.2,2.71-6.538C21.639,614.762,23.765,616.941,24.245,617.738z"/>
		</g>
		<g id="g124" transform="matrix(1.25,0,0,1.25,427.65392,482.01362)">
			<path id="path126" fill="#C9CCD1" d="M24.54,618.082c0,0,3.136,2.764,4.039,3.668c0.904,0.903,6.645,5.9,1.914,10.629
				c-4.731,4.731-10.63-1.541-11.216-2.179c-0.584-0.638-1.434-1.594-1.913-2.073c-0.478-0.478-1.805-1.648-1.805-1.648l0.425-0.585
				c0,0,0.795,0.638,1.009,0.691c0.214,0.053,0.745,0,0.745,0s6.059-5.474,6.43-5.899c0.373-0.425,0.266-1.169,0.266-1.435
				c0-0.267-0.425-0.851-0.425-0.851L24.54,618.082z"/>
		</g>
		<g id="g128" transform="matrix(1.25,0,0,1.25,433.01267,487.06362)">
			<path id="path130" fill="#161413" d="M15.576,624.247l6.43-5.952c0,0,0.479-0.797,1.065-0.266
				c0.584,0.532,2.975,2.339,2.656,4.943c-0.319,2.604-2.923,5.421-5.899,4.996c-2.976-0.425-4.252-2.445-4.252-2.445
				S14.937,625.097,15.576,624.247z"/>
		</g>
		<g id="g132" transform="matrix(1.25,0,0,1.25,401.86267,467.56537)">
			<path id="path134" fill="#C9CCD1" d="M29.335,619.755l2.285,1.381c0,0-1.062,11.268-1.01,11.534
				c0.054,0.266,0.106,0.638,0.425,1.01c0.319,0.371,0.479,0.371,0.479,0.371l-0.106,0.373l-5.634-2.498l0.318-0.691l1.01,0.531
				c0,0,0.903,0.265,1.009-0.585c0.107-0.85,0.16-3.029,0.16-3.029l-3.666-1.967l-2.18,1.967c0,0-0.477,0.637-0.158,1.01
				c0.318,0.372,1.168,0.797,1.168,0.797l-0.212,0.638l-4.677-2.125l0.425-0.638c0,0,0.85,0.797,1.966-0.16
				C22.053,626.717,29.335,619.755,29.335,619.755z"/>
		</g>
		<g id="g136" transform="matrix(1.25,0,0,1.25,412.03892,471.60462)">
			<path id="path138" fill="#161413" d="M20.397,619.288l-0.159,4.198l-2.87-1.381L20.397,619.288z"/>
		</g>
		<g id="g140" transform="matrix(1.25,0,0,1.25,374.98392,457.69962)">
			<path id="path142" fill="#C9CCD1" d="M27.133,628.658l1.222,0.159c0,0,0.213,0.159,0.426,0.531
				c0.213,0.373,2.02,4.146,2.02,4.146s0.745,0.957,1.807,1.116c1.063,0.159,3.189,0.319,3.189,0.319s0.106-0.371-0.426-0.691
				c-0.531-0.319-1.541-1.009-2.231-2.923c-0.85-1.542-1.542-2.711-1.542-2.711s2.977-0.478,3.242-2.71
				c0.266-2.232-1.238-3.611-3.773-4.146c-2.755-0.578-4.466-0.585-4.466-0.585l-3.188-0.266l-0.266,0.585l1.701,0.797
				c0,0-0.904,9.407-1.01,9.673c-0.106,0.266-1.062,0.585-1.382,0.585c-0.319,0-0.743-0.054-0.743-0.054l-0.054,0.531l6.696,0.904
				l0.107-0.585l-1.063-0.319c0,0-0.849,0-0.744-1.222C26.761,630.571,27.133,628.658,27.133,628.658z"/>
		</g>
		<g id="g144" transform="matrix(1.25,0,0,1.25,383.21892,459.71862)">
			<path id="path146" fill="#161413" d="M20.705,626.085l0.691-5.314c0,0,0.797-0.107,1.594,0.106
				c0.798,0.212,2.764,1.01,2.392,2.817c-0.373,1.807-1.063,2.817-2.87,2.71C20.705,626.298,20.705,626.085,20.705,626.085z"/>
		</g>
		<g id="g148" transform="matrix(1.25,0,0,1.25,344.22092,458.25262)">
			<path id="path150" fill="#C9CCD1" d="M29.847,622.316c2.867-1.482,8.344-1.116,9.726,2.232c1.383,3.348,0.956,7.015-3.455,9.035
				c-4.412,2.02-8.983-0.106-9.938-3.082C25.222,627.525,26.55,624.016,29.847,622.316z"/>
		</g>
		<g id="g152" transform="matrix(1.25,0,0,1.25,348.02829,460.185)">
			<path id="path154" fill="#161413" d="M28.341,621.035c1.541-0.425,4.359,0.213,5.582,3.561c1.221,3.348,0.477,6.218-1.649,6.909
				c-2.125,0.691-5.102,0.425-6.484-4.358C24.781,622.895,26.801,621.46,28.341,621.035z"/>
		</g>
		<g id="g156" transform="matrix(1.25,0,0,1.25,317.80867,469.89562)">
			<path id="path158" fill="#C9CCD1" d="M28.281,622.568l5.793-3.082l0.213,0.479c0,0-0.744,0.318-0.956,0.744
				c-0.212,0.425-0.373,0.637-0.373,0.637l4.623,8.664l3.508-1.966c0,0,0.852-0.585,0.904-1.01c0.054-0.425,0.373-2.286,0.373-2.286
				l0.426,0.106l0.53,3.136l-9.302,5.261l-0.266-0.691c0,0,1.382-0.585,1.01-1.594c-0.372-1.01-4.092-7.548-4.092-7.548
				s-0.266-0.691-0.798-0.691c-0.532,0-1.063,0.318-1.063,0.318L28.281,622.568z"/>
		</g>
		<g id="g160" transform="matrix(1.25,0,0,1.25,294.58229,483.95575)">
			<path id="path162" fill="#C9CCD1" d="M33.682,621.95c3.029-3.508,6.697-4.093,9.514-1.913c2.816,2.179,3.72,6.112,0.903,9.566
				c-2.817,3.455-6.377,3.934-9.62,1.966C32.033,629.763,30.971,625.937,33.682,621.95z"/>
		</g>
		<g id="g164" transform="matrix(1.25,0,0,1.25,297.30079,487.29675)">
			<path id="path166" fill="#161413" d="M32.251,619.809c1.039-1.627,3.614-2.338,6.537-0.479c2.923,1.86,4.359,5.155,2.338,7.229
				c-2.02,2.073-4.784,1.648-7.016-0.159C31.879,624.593,30.656,622.307,32.251,619.809z"/>
		</g>
		<g id="g168" transform="matrix(1.25,0,0,1.25,278.57892,508.89225)">
			<path id="path170" fill="#C9CCD1" d="M37.289,628.576c-3.045-1.07-4.464-5.37-2.763-9.302c1.489-2.764,2.125-2.71,2.551-3.189
				c0.054-0.372,0-0.584,0.107-0.85c0.105-0.267,3.135,1.275,3.135,1.275l-0.266,0.372c0,0-0.265,0.054-0.743,0.054
				s-2.233-0.372-3.827,2.604c-1.595,2.977,1.275,5.529,2.817,6.273c1.541,0.743,5.601,1.823,7.334-2.18
				c0.986-2.286-0.106-3.827-0.106-3.827l-0.638-0.903l0.373-0.691l2.445,2.285c0,0-0.53,0.85-0.637,1.276
				c-0.106,0.425-0.691,2.71-0.957,3.189C45.847,625.439,43.135,630.701,37.289,628.576z"/>
		</g>
		<g id="g172" transform="matrix(1.25,0,0,1.25,484.02017,605.17562)">
			<path id="path174" fill="#161413" d="M9.03,606.515c0-1.487,1.212-2.698,2.712-2.698c1.495,0,2.698,1.211,2.698,2.698
				c0,1.502-1.204,2.713-2.698,2.713C10.241,609.228,9.03,608.017,9.03,606.515z M14.116,606.515c0-1.311-1.062-2.373-2.373-2.373
				c-1.318,0-2.38,1.062-2.38,2.373c0,1.325,1.062,2.388,2.38,2.388C13.053,608.903,14.116,607.84,14.116,606.515z M13.089,608.031
				h-0.44l-0.864-1.395h-0.68v1.395h-0.368v-3.023h1.317c0.255,0,0.51,0.013,0.737,0.148c0.227,0.128,0.34,0.397,0.34,0.652
				c0,0.594-0.419,0.814-0.956,0.828L13.089,608.031z M11.672,606.346c0.425,0,1.083,0.07,1.083-0.547
				c0-0.467-0.411-0.523-0.785-0.523h-0.865v1.07H11.672z"/>
		</g>
		<g id="g176" transform="matrix(1.25,0,0,1.25,378.67404,560.04687)">
			<path id="path178" fill="#C9CCD1" d="M21.231,609.043h2.817v20.783h-2.817V609.043z"/>
		</g>
		<g id="g180" transform="matrix(1.25,0,0,1.25,387.49142,572.98187)">
			<path id="path182" fill="#C9CCD1" d="M20.21,609.672l2.02-2.127c0,0,1.966,1.808,3.88,4.784c1.913,2.975,4.464,7.016,4.464,7.016
				h-4.146c0,0,0.159-1.702-1.807-4.094C22.867,612.595,20.21,609.672,20.21,609.672z"/>
		</g>
	</g>
</g>
</svg>
