<?xml version="1.0" encoding="utf-8"?>
<!-- Generator: Adobe Illustrator 14.0.0, SVG Export Plug-In . SVG Version: 6.00 Build 43363)  -->
<!DOCTYPE svg PUBLIC "-//W3C//DTD SVG 1.1//EN" "http://www.w3.org/Graphics/SVG/1.1/DTD/svg11.dtd">
<svg version="1.1" xmlns="http://www.w3.org/2000/svg" xmlns:xlink="http://www.w3.org/1999/xlink" x="0px" y="0px" width="200px"
	 height="200px" viewBox="44 746 200 200" enable-background="new 44 746 200 200" xml:space="preserve">
<g id="Layer_1">
	<g>
		<path fill="#FFFFFF" d="M91.326,762.706c-5.177,5.5-10.165,16.416-10.881,23.817c-0.232,2.366-0.345,4.561-0.345,6.619
			c0,7.419,1.519,13.098,4.825,18.633c4.155,6.927,10.728,12.624,19.013,16.469c7.817,3.625,19.072,8.676,20.415,9.227
			c0.462,0.184,1.058,0.464,1.694,0.776c-2.58,1.87-4.099,2.967-5.324,3.862c-6.966-1.589-15.728-0.368-17.763,0.114
			c-8.275,1.958-15.865,5.688-21.373,10.5c-5.612,4.907-9.817,10.542-11.243,15.081c-1.592,5.044-1.081,8.63,1.52,10.647
			c3.825,2.98,8.769-0.069,10.383-1.079c3.332-2.106,9.462-5.96,17.185-7.101c6.72-1.001,15.73-0.085,19.871,2.62
			c0,2.449,0,5.337,0,7.321c-0.997,0.913-2.059,1.883-2.059,1.883c-1.045,1.045-1.599,2.472-1.599,3.95
			c0,0.689,0.119,1.392,0.368,2.067c0.703,1.883,2.283,2.678,2.283,2.678c13.361,8.138,13.355,8.138,22.345,13.62
			c-0.127,0.048-0.395,0.057-0.495,0.101c-1.185,0.522-3.934,2.243-3.934,7.045v19.554l11.623,11.105
			c2.573,2.581,5.075,3.003,6.712,2.893c2.036-0.122,3.881-1.115,5.185-2.796c0,0,7.738-9.928,12.53-16.077
			c3.552,5.495,9.152,14.151,9.152,14.151c-0.062-0.098,0.131,0.302,0.131,0.302c0.649,1.396,2.006,4.293,5.175,5.113
			c1.405,0.365,3.635,0.408,6.221-1.471c3.475-2.527,11.556-8.831,12.942-10.219l0.256-0.259c0.956-0.939,2.414-2.378,2.414-4.745
			v-18.666c0-2.007-1.076-4.544-3.547-5.536c-1.8-0.724-3.864-0.724-6.329,1.281c-1.094,0.896-2.972,2.252-5.708,4.32
			c-1.584-2.528-2.426-3.88-3.625-5.79c2.349-2.962,7.939-10.008,11.062-13.948c0.402,0.32,1.219,0.961,1.219,0.961l0.137,0.092
			c3.287,2.189,5.794,1.379,6.993,0.698c3.265-1.844,3.33-5.952,3.273-7.165l0.01-15.678l-9.88-10.219
			c-1.432-1.614-3.428-2.444-5.482-2.273c-2.099,0.172-4.038,1.356-5.171,3.17c-0.531,0.764-5.227,6.667-10.104,12.741
			c0-4.521,0-17.912,0-20.516c0.606-0.605,1.229-1.232,1.229-1.232c0.882-0.768,2.888-3.247,2.888-6.145
			c0-0.694-0.119-1.409-0.391-2.133c-0.575-1.519-1.936-3.236-4.96-3.946c0.887-3.433,1.242-6.75,1.278-9.31
			c0.003-0.242,0.008-0.479,0.008-0.72c0-6.847-1.584-12.619-4.692-17.171c-3.713-5.413-6.58-7.229-10.547-9.749l-1.027-0.649
			c-4.622-2.95-28.864-15.691-29.896-16.236c-0.087-0.044-9.296-4.604-9.296-4.604c-6.079-3.077-6.514-5.232-6.514-6.399
			c0-0.075,0.004-0.141,0.009-0.207c0.137-0.707,1.79-3.262,5.262-3.262c3.561,0,6.058,0.114,10.745,1.685
			c7.422,2.488,7.633,5.513,7.638,6.632c-0.022,0.272-0.246,3.406-0.246,3.406l15.438,10.547l23.135-29.707l-18.785-12.567
			l-2.484,2.494c-0.839,0.833-1.361,1.307-1.668,1.541c-0.365-0.062-1.339-0.229-1.339-0.229l-4.144-1.571
			c-6.521-2.633-17.438-7.048-27.375-7.048C108.297,746,99.177,754.257,91.326,762.706"/>
		<path fill="#C4CDD3" d="M93.65,764.953c-4.681,4.978-9.357,15.196-10.002,21.863c-0.213,2.234-0.33,4.31-0.33,6.246
			c0,6.807,1.37,11.982,4.354,16.965c3.809,6.351,9.876,11.592,17.553,15.156c8.168,3.788,19.103,8.686,20.301,9.179
			c2.239,0.908,5.632,2.756,6.527,3.713c-1.172,0.847-10.121,7.338-10.692,7.751c-5.886-1.91-15.144-0.843-17.769-0.22
			c-7.761,1.834-14.844,5.303-19.95,9.761c-5.098,4.455-9.026,9.652-10.258,13.562c-1.114,3.556-0.997,5.891,0.369,6.948
			c1.314,1.023,3.445,0.606,6.51-1.291c3.271-2.065,10.064-6.333,18.522-7.593c6.259-0.935,12.562-0.211,17.28,0.961
			c0,0,3.645,1.124,6.528,3.064c0,0.896,0,10.125,0,10.823c-0.501,0.448-3.064,2.796-3.064,2.796
			c-0.425,0.421-0.601,0.992-0.601,1.536c0,0.316,0.062,0.623,0.162,0.887c0.232,0.632,0.852,0.952,0.852,0.952l31.852,19.414
			c0,0,7.572-5.776,8.889-6.781c0.514,0.864,1.172,1.957,1.533,2.559c-0.69,0.848-8.85,10.819-9.855,12.045
			c-1.148-1.02-7.119-6.343-7.119-6.343c-1.772-1.633-3.154-1.392-3.818-1.103c-1.202,0.527-1.892,1.958-1.892,3.925v18.132
			l10.641,10.17c1.685,1.682,3.155,1.966,4.098,1.905c1.05-0.066,2.011-0.593,2.714-1.487c0,0,12.295-15.789,15.503-19.901
			c1.211,1.869,11.78,18.22,11.78,18.22l0.356,0.711c0.53,1.132,1.325,2.836,2.944,3.257c1.023,0.263,2.151-0.05,3.367-0.931
			c3.458-2.523,11.424-8.761,12.557-9.897l0.264-0.26c0.781-0.773,1.4-1.387,1.4-2.331v-18.702c0-0.882-0.497-1.992-1.462-2.4
			c-0.645-0.277-1.698-0.338-3.02,0.935c0.062-0.053-6.417,4.842-8.617,6.505c-0.85-1.36-6.333-10.1-6.899-11.004
			c0.72-0.896,13.704-17.268,14.7-18.519c0.983,0.777,3.758,2.954,3.758,2.954c1.413,0.939,2.563,1.132,3.484,0.609
			c1.647-0.931,1.567-3.73,1.55-4.046V871.16l-9.024-9.346c-0.729-0.82-1.668-1.229-2.658-1.146
			c-1.023,0.084-2.012,0.698-2.573,1.594c-0.479,0.759-7.458,9.48-12.365,15.591c-1.275-1.02-3.086-1.752-4.063-2.075
			c0-1.203,0-23.827,0-24.497c0.325-0.325,2.396-2.428,2.396-2.428c0.338-0.297,1.72-1.896,1.72-3.566
			c0-0.322-0.044-0.642-0.162-0.958c-0.526-1.391-2.142-2.093-4.803-2.093c-0.044,0-0.877,0.074-1.685,0.153
			c1.958-4.438,2.528-9.208,2.577-12.588c0.008-0.225,0.013-0.443,0.013-0.668c0-6.158-1.382-11.293-4.113-15.275
			c-3.313-4.837-5.662-6.334-9.564-8.809l-1.04-0.663c-4.512-2.875-28.671-15.573-29.698-16.109
			c-0.021-0.013-9.237-4.578-9.237-4.578c-7.265-3.679-8.424-6.865-8.424-9.529c0-0.123,0-0.242,0.009-0.36
			c0.075-2.195,3.218-6.47,8.687-6.47c3.801,0,6.671,0.132,11.842,1.86c6.721,2.257,9.985,5.522,9.985,9.99
			c-0.004,0.004-0.113,1.589-0.113,1.589l11.197,7.651l18.948-24.326l-13.44-8.989l-0.518,0.513
			c-2.889,2.893-3.004,2.866-6.094,2.251c-0.808-0.162-2.546-0.869-4.754-1.76c-6.302-2.546-16.854-6.812-26.146-6.812
			C109.519,749.31,101.31,756.71,93.65,764.953 M122.084,847.493l12.049-8.748v-0.447c-0.14-2.033-5.908-4.706-7.939-5.583
			c-1.146-0.493-12.245-5.439-20.223-9.143c-7.351-3.411-13.157-8.414-16.777-14.458c-2.643-4.42-4.933-10.152-3.777-22.13
			c0.603-6.232,5.145-16.158,9.529-20.818c7.392-7.949,15.283-15.082,30.603-15.082c8.945,0,19.3,4.183,25.488,6.681
			c2.375,0.966,4.1,1.659,5.074,1.853c3.393,0.68,4.292,0.557,7.155-2.23c0.991,0.663,9.353,6.259,10.666,7.132
			c-1.062,1.365-15.824,20.313-16.753,21.517c-1.146-0.782-8.271-5.649-8.986-6.141c0.022-0.312,0.045-0.64,0.045-0.64
			c0-5.312-3.768-9.24-11.192-11.729c-5.412-1.817-8.556-1.958-12.403-1.958c-6.677,0-10.36,5.329-10.456,8.177
			c-0.176,4.604,2.73,8.164,9.39,11.539c0.013,0,9.229,4.569,9.229,4.569c0.233,0.123,25.103,13.185,29.545,16.025l1.05,0.667
			c3.828,2.436,5.942,3.77,9.059,8.313c2.603,3.814,3.886,8.832,3.784,14.91c-0.053,3.551-0.618,8.722-2.971,13.226l-0.76,1.443
			l4.691-0.439c1.686,0.01,2.832,0.352,3.056,0.953c0.295,0.782-0.693,2.242-1.062,2.567l-3.062,3.12l0.061,0.286v26.155
			l0.638,0.192c1.417,0.414,3.914,1.423,4.6,2.367l0.68,0.935l0.725-0.899c1.265-1.567,12.343-15.337,13.059-16.47
			c0.271-0.43,0.749-0.729,1.221-0.772c0.43-0.031,0.828,0.154,1.188,0.558c0,0,7.339,7.606,8.581,8.884c0,0.681,0,13.817,0,13.817
			c0,0.066,0.005,0.136,0.005,0.211c0,0.864-0.211,1.997-0.654,2.247c-0.281,0.157-0.874-0.031-1.572-0.501
			c0-0.005-5.094-4.004-5.094-4.004l-16.575,20.889l8.59,13.7l10.24-7.739c0.637-0.61,1.022-0.72,1.186-0.654
			c0.21,0.092,0.381,0.501,0.381,0.772v18.703c0,0.206-0.407,0.606-0.873,1.07l-0.276,0.272c-0.992,0.992-8.722,7.071-12.352,9.708
			c-0.763,0.554-1.395,0.773-1.883,0.649c-0.804-0.21-1.365-1.412-1.773-2.291l-0.475-0.921l-13.131-20.317l-17.045,21.875
			c-0.271,0.343-0.732,0.765-1.422,0.804c-0.824,0.052-1.77-0.43-2.729-1.387c0,0-9.595-9.174-10.126-9.673
			c0-0.725,0-17.379,0-17.379c0-1.427,0.435-2.124,0.834-2.304c0.446-0.193,1.167,0.104,1.917,0.794
			c0.014,0.014,8.508,7.585,8.508,7.585l11.82-14.441l-3.2-5.329c0,0-8.629,6.589-9.489,7.253
			c-1.006-0.61-30.88-18.818-30.927-18.848c-0.031-0.072-0.062-0.159-0.062-0.264c0-0.119,0.031-0.233,0.079-0.286l3.573-3.257
			l0.015-0.399v-12.206l-0.414-0.26c-2.408-1.545-4.357-2.678-7.834-3.556c-5.864-1.483-12.777-1.742-17.592-0.974
			c-8.815,1.404-15.839,5.718-19.206,7.848c-3.241,2.006-4.253,1.571-4.488,1.392c-0.489-0.387-0.724-1.929,0.246-5.018
			c1.122-3.563,4.94-8.571,9.724-12.761c4.896-4.274,11.709-7.602,19.197-9.37c2.94-0.697,12.087-1.606,17.258,0.276l0.448,0.158
			L122.084,847.493z"/>
		<path fill="#231F20" d="M205.556,940.168h-1.336v3.64h-0.908v-3.64h-1.325v-0.79h3.567 M211.607,943.808h-0.899v-3.521h-0.021
			l-1.278,3.521h-0.877l-1.237-3.521h-0.022v3.521h-0.904v-4.43h1.566l1.032,2.894h0.021l1.062-2.894h1.558V943.808L211.607,943.808
			z"/>
		<path fill="#231F20" d="M205.441,885.969v-13.285l-8.31-7.471l-23.012,28.569l-3.23-5.156c2.799-2.095,6.416-4.78,6.821-4.982
			c0.657-0.333,2.317-1.326,3.15-1.326c0.751,0-1.167-3.322-6.646-3.322v-29.398l3.156-3.489c0,0-3.841,0.605-5.653,0.052
			c-0.383-0.118-1.023-0.425-1.813-0.833c1.031-1.646,1.959-3.511,2.652-5.688c3.767-11.913,1.299-22.908-7.642-29.685
			c-6.272-4.753-32.052-17.798-32.052-17.798s-15.595-7.642-17.275-9.323c-1.202-1.203-3.647-3.073-3.647-8.967
			c0-3.516,3.911-7.392,5.596-8.186c2.705-1.282,3.586-1.887,9.051-1.967c3.094-0.043,5.97,0.698,6.355,0.742
			c3.401,0.36,11.457,3.016,15.617,8.638c1.584,1.589,1.9,6.25,1.9,6.25l6.483,4.153l14.121-18.436l-7.647-5.148
			c-2.159,2.327-6.307,2.488-7.967,1.664c-1.663-0.833-15.92-6.026-17.943-6.671c-3.819-1.22-12.123-2.133-16.605-1.471
			c-4.485,0.667-11.846,2.028-17.608,8.143c-6.721,7.137-6.809,12.869-6.809,15.941c0,4.819,1.247,11.188,6.641,16.583
			c7.783,7.777,19.599,12.65,22.259,14.12c4.727,2.611,19.606,10.398,21.753,11.649c9.143,5.316,12.628,10.965,11.636,18.106
			c-0.052,0.351-0.163,0.68-0.241,1.014c-4.004-2.353-9.63-5.899-11.891-8.155c0,0-1.366,1.453-2.243,2.322l-6.628,4.964
			c0.782-3.222,0.874-8.73,0.737-9.279c-0.171-0.667-0.665-5.983-5.313-9.301c-3.156-2.256-10.215-6.478-16.276-9.468
			c-2.604-1.286-11.07-6.404-15.117-9.775c0,0-6.972-6.5-8.052-10.49c-2.081-4.569-2.164-15.362-1.082-16.442
			c0,0-2.655,2.989-4.482,8.972c-0.892,2.919-1.494,6.724-1.494,9.301c0,4.315,0.744,11.873,5.485,18.269
			c2.083,2.818,5.356,6.022,8.814,8.313c4.236,2.792,8.498,4.433,8.783,4.639c1.163,0.83,12.129,5.456,13.125,5.957
			c0.991,0.5,6.017,2.835,7.084,3.406c3.788,2.024,5.736,3.323,6.931,6.545l-11.365,8.511c0,0,0.5,0.908,0.5,2.32
			c0,0,0,0.399,0,1.076c-1.531-0.505-3.09-0.949-4.648-1.216c-7.471-1.272-12.017-1.194-17.934,0.267
			c-6.562,1.62-13.453,4.267-19.93,10.745c-7.314,7.312-7.225,12.216-7.225,12.216l7.305-4.311
			c6.111-3.438,14.153-5.486,19.85-5.486c13.576,0,20.622,3.919,22.583,6.102c0,6.812,0,12.877,0,13.163
			c0,2.617-0.784,2.945-1.368,3.445c-0.225,0.193-0.414,0.207-1.203,0.747c0,0,1.001,0.373,1.247,0.623
			c0.662,0.496,26.52,16.113,26.52,16.113l10.012-7.335l4.942,7.874L152.46,920.68l-9.467-8.638v16.113l10.798,9.968l19.058-23.931
			l15.648,24.923l12.626-10.126v-15.946l-10.13,7.637l-10.267-16.371l18.567-23.32 M140.915,850.097l5.898-4.32
			c1.602,1.335,3.49,2.547,5.368,3.627c-0.123,0.108-0.225,0.191-0.225,0.191s-6.799,5.82-11.043,6.418L140.915,850.097
			L140.915,850.097z M151.242,887.962l-10.327-6.307v-15.648c4.326-0.768,14.883-5.798,20.344-11.263
			c0.07,1.03,0.049,11.486,0.031,18.571l-6.343-10.1l-9.657,6.864v12.29l5.342-3.542l4.004,6.377L151.242,887.962z"/>
	</g>
</g>
<g id="svg12082">
</g>
<g id="svg31568">
</g>
</svg>
