<?xml version="1.0" encoding="utf-8"?>
<!-- Generator: Adobe Illustrator 14.0.0, SVG Export Plug-In . SVG Version: 6.00 Build 43363)  -->
<!DOCTYPE svg PUBLIC "-//W3C//DTD SVG 1.1//EN" "http://www.w3.org/Graphics/SVG/1.1/DTD/svg11.dtd">
<svg version="1.1" xmlns="http://www.w3.org/2000/svg" xmlns:xlink="http://www.w3.org/1999/xlink" x="0px" y="0px" width="200px"
	 height="200px" viewBox="44 746 200 200" enable-background="new 44 746 200 200" xml:space="preserve">
<g id="Layer_1">
	<path fill="#021540" d="M191.071,781.851c-7.667-4.765-19.293-4.934-27.679-0.952v29.341c9.546-4.531,18.852-4.531,27.679,0.956
		V781.851 M163.393,857.713c9.546,4.531,18.852,4.531,27.679-0.955v-31.489c-8.827-5.486-18.133-5.486-27.679-0.955V857.713z
		 M163.393,910.911l10.982,5.248c4.773-2.861,11.923-6.203,16.696-7.63v-37.223c-8.827,5.49-18.133,5.49-27.679,0.959V910.911z
		 M137.159,788.531v115.938l9.065,1.435V778.275C141.929,778.747,137.159,781.613,137.159,788.531z M90.878,749.644h91.608
		c22.423,0,37.694,15.271,37.694,36.263c0,20.036-5.733,99.239,1.902,132.161c-20.987-1.431-41.984,8.114-56.303,26.244
		c-14.787-8.112-24.327-9.067-41.026-9.067c-13.36,0-32.449,4.295-47.236,10.018c-5.631,2.182-3.816-0.717-0.479-5.482
		c8.587-12.271,25.765-27.437,43.895-34.598V782.088c-6.676,6.684-9.538,13.836-9.538,27.196v72.998
		c0,12.879-4.773,21.946-11.929,28.152c-7.16,6.2-16.223,8.11-20.991,9.064c-4.773,0.952-6.681,0-2.867-4.772
		c3.818-4.773,7.636-8.589,7.636-25.766v-34.826c-3.817,1.426-8.449,5.336-10.973,9.062c-2.508,3.695-4.771,2.64-4.771-1.432
		c0-11.453,7.152-22.42,15.743-26.715v-8.59c-3.817,1.431-8.11,5.249-10.973,9.063c-2.661,3.549-4.771,2.814-4.771-1.43
		c0-11.45,7.152-22.424,15.743-26.717c0-17.653,7.156-23.858,18.609-30.058c-16.462-2.845-31.252-21.93-32.966-31.318
		C74.176,748.708,83.718,749.627,90.878,749.644z"/>
</g>
<g id="svg12082">
</g>
<g id="svg31568">
</g>
<g id="CLEVELAND_INDIANS">
</g>
<g id="svg2562">
</g>
</svg>
