<?xml version="1.0" encoding="utf-8"?>
<!-- Generator: Adobe Illustrator 14.0.0, SVG Export Plug-In . SVG Version: 6.00 Build 43363)  -->
<!DOCTYPE svg PUBLIC "-//W3C//DTD SVG 1.1//EN" "http://www.w3.org/Graphics/SVG/1.1/DTD/svg11.dtd">
<svg version="1.1" xmlns="http://www.w3.org/2000/svg" xmlns:xlink="http://www.w3.org/1999/xlink" x="0px" y="0px" width="200px"
	 height="200px" viewBox="44 746 200 200" enable-background="new 44 746 200 200" xml:space="preserve">
<g id="Layer_1">
	<g>
		<path fill="#B32317" d="M196.089,875.554c-1.92-0.384-4.013-1.787-3.756-4.443c0.165-1.766,1.112-2.917,2.418-3.625
			c0.881-0.479,2.208-0.878,3.163-1.137c-0.324-0.647-0.898-0.84-1.036-0.824c-1.594,0.132-5.312,3.348-6.681,8.425
			c-0.734,2.73-0.55,4.336-0.209,5.18c0.169,0.405,0.366,0.623,0.511,0.723c0.07,0.055,0.131,0.073,0.171,0.093
			C192.634,879.782,194.639,878.371,196.089,875.554 M89.053,850.033c-2.719-0.195-6.174,0.814-9.341,3.601
			c-3.373,2.966-6.354,8.44-9.054,14.459l2.341,0.239c1.194,0.128,2.361,0.287,3.514,0.396c1.01,0.093,2.008,0.136,2.999,0.045
			c1.998-0.185,3.083-1.271,3.13-1.409C83.452,865.044,87.126,855.24,89.053,850.033z M150.801,867.826
			c-0.429,0.459-0.938,0.905-1.526,1.309c-1.781,1.219-3.429,1.636-5.04,1.783c-0.804,0.072-1.623,0.072-2.333,0.046l-4.556,12.685
			c-0.435,1.206-0.34,1.67-0.294,1.784c0.045,0.04,0.195,0.176,0.354,0.229c0.945,0.341,2.645,0.221,4.202-0.111
			c1.81-0.378,4-1.066,5.571-1.667l5.234-14.576C151.813,868.927,151.236,868.437,150.801,867.826z M105.189,883.072l0.252,0.289
			c0.432,0.494,0.378,1.299-0.108,1.731l-0.956,0.844c-0.427,0.38-0.767,1.121-0.704,1.805c0.153,1.687,0.99,2.393,3.741,2.165
			c2.553-0.212,3.546-1.388,3.62-2.269c0.053-0.627-0.37-1.526-2.178-2.527L105.189,883.072z M112.562,871.17
			c-0.593-0.337-1.09-0.464-2.141-0.372c-1.912,0.167-2.371,0.805-2.463,1.266c-0.004,0.028-0.004,0.064,0.024,0.12
			c0.032,0.068,0.12,0.186,0.313,0.312c1.387,0.907,4.646,2.543,7.351,4.066c3.842,2.16,7.154,5.438,6.562,10.677
			c-0.896,7.871-9.85,10.358-15.537,10.822c-4.379,0.366-7.127-0.442-9.602-1.872c-1.712,1.199-4.068,2.609-7.077,3.653
			c-9.303,3.215-14.965-2.711-14.41-9.696c0.186-2.362,1.813-7.784,3.629-13.086c-0.339,0.046-0.703,0.084-1.087,0.129
			c-3.615,0.366-8.633,0.131-11.282-0.052l-3.063,7.385c3.455,11.531,1.443,24.191-5.508,32.407c-2.361,2.78-6.1,4.802-9.259,4.418
			c-3.646-0.441-5.582-3.804-4.728-9.625c0.615-4.189,1.649-8.238,3.025-12.793c1.333-4.403,2.579-8.845,4.837-14.864
			c-0.057-0.126-0.174-0.357-0.418-0.704c-0.571-0.792-1.474-1.695-2.496-2.607c-0.51-0.453-1.542-1.255-2.469-2.035
			c-0.535-0.455-1.034-0.9-1.415-1.287c-0.205-0.208-0.435-0.456-0.632-0.715c-0.143-0.197-0.506-0.686-0.642-1.364
			c-0.67-3.359,3.143-6.386,6.911-7.411c2.921-0.797,5.808-0.9,7.945-0.885c3.346-7.399,7.38-14.319,14.332-19.465
			c6.554-4.846,12.365-6.75,20.177-6.908c4.47-0.085,5.932,0.231,6.973,0.924c1.609,1.078,1.908,2.919,1.365,4.399
			c-0.25,0.728-3.299,9.641-6.459,19.136c-3.259,9.788-6.649,20.196-7.14,22.686c-0.592,3.011-0.193,3.861-0.065,4.001
			c0.021,0.007,0.107,0.047,0.207,0.042c0.216,0,0.523-0.073,0.916-0.221c0.899-0.335,1.994-0.919,2.959-1.533
			c-0.263-1.028-0.379-2.231-0.059-3.45c0.439-1.665,1.44-3.331,3.299-4.587c1.451-0.983,3.7-1.756,5.798-1.467
			c-2.219-1.715-4.147-4.101-3.932-7.495c0.405-6.382,5.702-9.51,14.16-10.205c3.698-0.305,6.906,0.228,9.139,2.171
			c1.733-1.394,3.969-2.363,6.273-2.834c2.101-0.428,3.962-0.605,5.879-0.687l2.586-7.223c0.567-1.58,2.026-2.337,2.894-2.689
			c1.014-0.412,2.165-0.646,3.185-0.776c1.737-0.212,3.174-0.193,4.261,0.231c1.295,0.507,2.605,1.97,1.93,3.87l-2.223,6.305
			l0.641-0.064c2.258-0.245,6.005-1.721,6.043-1.736c0.787-0.316,1.415-0.051,1.608,0.574c0.931-0.488,1.906-0.797,2.72-0.921
			c2.614-0.388,4.841,0.553,6.488,2.121c4.468,0.422,6.981-0.982,7.477-1.604l1.042-1.316c0.117-0.148,0.804-0.461,0.993-0.454
			l0.64,0.031c0.609,0.023,1.119,0.244,1.387,0.371c0.278,0.132,0.609,0.317,0.974,0.557c0.636,0.414,1.351,0.971,2.055,1.62
			c0.712,0.649,1.336,1.295,1.808,1.849c0.277,0.32,0.494,0.606,0.65,0.833c0.432,0.659,0.58,1.282,0.584,1.732
			c0.003,0.733-0.444,1.643-0.995,2.242c-0.166,0.182-0.331,0.345-0.425,0.432c-1.755,1.846-3.395,4.578-4.808,8.089
			c-2.206,5.498-0.642,7.188-0.573,7.21c1.543,0.587,3.681,0.473,5.429-0.198c-2.813-7.966,2.29-17.643,5.558-20.986
			c5.097-5.204,14.243-8.041,19.888-3.473c1.1,0.89,2.486,2.552,3.35,5.001c0.609-0.358,1.274-0.764,1.951-1.185
			c1.591-0.993,3.529-2.407,4.251-2.946c2.493-2.997,6.398-5.097,11.81-5.543c5.15-0.427,8.452,0.507,10.694,3.993
			c0.742,1.168,1.515,3.059,1.291,5.22c-0.332,3.201-2.842,5.151-5.442,5.366c-3.411,0.282-6.154-2.308-5.39-6.022
			c-0.016-0.07-0.039-0.148-0.062-0.226c-0.016-0.05-0.031-0.1-0.047-0.15c-0.096-0.057-0.186-0.108-0.265-0.146
			c-0.09-0.046-0.152-0.07-0.205-0.081c-0.155-0.036-0.427-0.047-1.237,0.023c-1.539,0.123-2.491,1.1-2.668,2.361
			c-0.09,0.564-0.044,0.847,0.192,1.176c0.31,0.448,1.006,1.055,2.556,1.994l4.665,2.814c4.199,2.544,6.384,6.916,5.854,11.06
			c-0.203,1.568-0.828,3.317-1.393,4.47l0.062,0.076c0.108,0.135,0.346,0.355,0.812,0.604c0.701-1.399,2.096-2.395,3.734-2.529
			c2.455-0.199,4.477,1.513,4.856,3.94c0.432,2.721-1.548,4.453-2.359,5.111c-3.733,3.023-11.682,6.938-17.628,9.02
			c-13.354,4.672-31.352,8.13-52.734,9.784c-22.217,1.716-36.59-0.159-57.14-0.762c-6.745-0.197-13.57-0.414-19.631-0.438
			c-5.929-0.023-11.116,0.135-14.724,0.695c-3.256,0.507-5.469,1.19-6.952,1.843c0.68,0.713,1.092,1.656,1.187,2.669
			c0.274,2.942-2.315,4.61-4.568,4.805c-2.581,0.229-7.672-1.239-7.161-6.606c0.506-5.323,8.473-8.691,17.118-10.152
			c7.8-1.326,19.654-1.144,31.916-1.435c13.699-0.326,28.864,0.504,41.981,0.271c27.268-0.488,51.34-3.871,66.179-7.841
			c-5.604,0.294-9.942-1.487-12.026-4.344c-1.109-1.486-1.898-3.345-2.018-5.629c-0.09-1.667,0.184-5.096,2.918-7.192
			c2.852-2.184,7.244-2.449,9.668,0.499l0.729,0.885c0.356,0.439,0.326,1.236-0.068,1.644l-0.797,0.824
			c-0.633,0.653-0.959,1.345-0.857,2.195c0.255,2.184,1.29,2.834,3.904,2.62c1.941-0.161,3.239-1.762,3.372-2.976
			c0.171-1.527-0.827-2.993-2.089-3.781l-4.688-2.919c-2.261-1.406-4.418-3.66-5.462-6.322c-1.376,1.023-2.834,2.07-4.009,2.839
			c-0.221,3.592-2.184,9.549-7.213,13.466c-3.561,2.775-7.179,4.53-12.197,3.897c-1.747-0.222-3.146-0.725-4.121-1.191l-0.133-0.062
			c-3.569,1.979-7.96,3.128-11.951,2.586c-2.808-0.371-5.723-1.319-7.508-3.913c-2.537-3.668-2.389-7.874-1.593-11.461
			c0.344-1.535,1.034-3.627,1.703-5.472c-0.501-0.006-0.957-0.033-1.365-0.071l-6.902,19.992c-0.48,1.366-1.442,2.162-2.568,2.545
			c-0.37,0.127-0.804,0.224-1.306,0.3c-0.355,0.049-0.754,0.098-1.206,0.154c-1.306,0.169-3.069,0.28-3.637,0.239
			c-0.764-0.059-1.947-0.496-2.596-1.45c-2.363,0.78-5.054,1.516-7.468,1.862c-9.34,1.341-15.801-2.825-12.613-12.127
			c0.598-1.736,2.798-7.704,4.222-11.54c-1.002,0.047-1.987,0.128-2.819,0.244c-1.188,0.162-2.055,0.316-2.696,0.584
			c-0.315,0.132-0.496,0.255-0.604,0.375c0,0.17-0.005,0.343-0.017,0.506c-0.012,0.185-0.044,0.568-0.175,0.964
			c-0.811,2.478-2.552,3.471-4.891,3.664c-2.623,0.213-6.13-1.673-5.651-5.25c-0.016-0.081-0.045-0.175-0.075-0.278
			C112.604,871.272,112.584,871.219,112.562,871.17z"/>
		<path fill="#231F20" d="M121.688,831.258c0.023-0.07,0.385-0.569,0.439-0.611l21.778-15.992c0.315-0.231,1.107-0.231,1.424,0.004
			l7.329,5.393l-2.797-8.729c-0.125-0.375,0.123-1.133,0.44-1.364l7.33-5.401h-9.062c-0.391,0-1.032-0.464-1.151-0.843l-2.799-8.729
			l-2.799,8.729c-0.124,0.379-0.761,0.843-1.151,0.843h-27.836c-0.076,0-0.656-0.19-0.718-0.235l-10.938-8.127
			c-1.172-0.873-0.74-2.211,0.716-2.211h31.757l9.816-30.587c0.456-1.404,1.851-1.404,2.296,0l9.819,30.587h31.77
			c1.462,0,1.896,1.345,0.713,2.214l-25.7,18.904l9.818,30.587c0.449,1.403-0.68,2.235-1.863,1.37l-25.701-18.909l-25.701,18.909
			c-1.18,0.866-2.313,0.033-1.859-1.37L121.688,831.258"/>
		<path fill="#E7D2AD" d="M59.202,893.448c-0.854,2.304-1.951,5.319-2.949,8.342c-1.396,4.209-2.569,8.316-2.747,10.636
			c-0.02,0.252-0.015,0.439,0,0.583c0.14-0.127,0.31-0.32,0.495-0.55C57.641,907.98,59.604,898.919,59.202,893.448 M54.606,875.584
			c0.525,0.495,1.051,1.027,1.52,1.535l0.66-1.729C56.035,875.401,55.298,875.469,54.606,875.584z M193.533,871.228
			c0.125-1.302,0.786-2.123,1.79-2.664c0.79-0.429,2.088-0.815,3.071-1.078c0.341-0.093,0.672-0.179,0.959-0.247
			c-0.09-2.046-1.633-3.009-2.576-2.932c-2.35,0.197-6.325,4.052-7.743,9.317c-1.55,5.743,0.518,7.658,1.791,7.546
			c2.96-0.244,5.552-2.66,7.089-6.763c-0.259,0.021-0.479,0.026-0.609,0.032C195.456,874.51,193.331,873.342,193.533,871.228z
			 M68.872,869.14l0.292,0.026c1.152,0.12,2.581,0.263,3.705,0.379c1.204,0.127,2.38,0.29,3.536,0.394
			c1.081,0.097,2.149,0.151,3.214,0.052c2.177-0.198,3.876-1.404,4.16-2.217c0.888-2.551,5.232-14.123,6.921-18.702
			c-0.032-0.013-0.064-0.02-0.091-0.027c-3.279-0.77-7.773,0.222-11.69,3.665C75.027,856.132,71.739,862.553,68.872,869.14z
			 M151.177,865.277c-0.522,0.932-1.344,1.999-2.583,2.845c-1.569,1.077-3.009,1.446-4.469,1.576
			c-1.11,0.105-2.255,0.059-3.051-0.007l-4.865,13.534c-0.933,2.602-0.088,3.27,0.791,3.587c1.287,0.464,3.282,0.268,4.859-0.064
			c2.071-0.433,4.639-1.264,6.267-1.921l5.779-16.102c-1.141-0.508-2.219-1.361-2.567-2.493
			C151.236,865.903,151.191,865.584,151.177,865.277z M62.499,884.459c3.531,11.312,1.579,23.733-5.142,31.671
			c-4.402,5.199-13.508,6.885-11.872-4.23c0.604-4.133,1.628-8.121,2.984-12.614c1.346-4.438,2.598-8.923,4.905-15.029
			c0.047-0.133,0.05-0.607-0.665-1.608c-0.649-0.903-1.639-1.888-2.678-2.811c-0.514-0.461-1.56-1.272-2.488-2.057
			c-0.507-0.426-0.979-0.846-1.338-1.21c-0.188-0.189-0.373-0.395-0.523-0.6c-0.121-0.162-0.34-0.472-0.42-0.867
			c-0.451-2.258,2.308-4.962,6.046-5.979c3.127-0.855,6.242-0.873,8.402-0.828c3.382-7.619,7.346-14.592,14.268-19.716
			c6.349-4.696,11.924-6.521,19.493-6.667c4.511-0.095,5.599,0.262,6.279,0.714c1.067,0.711,1.286,1.918,0.894,2.961
			c-0.206,0.599-3.279,9.587-6.467,19.159c-3.278,9.855-6.689,20.338-7.18,22.844c-1.159,5.913,0.903,5.856,2.659,5.206
			c1.269-0.468,2.804-1.356,3.969-2.165c-0.391-1.086-0.648-2.39-0.316-3.648c0.367-1.4,1.208-2.811,2.798-3.885
			c2.15-1.452,5.675-2.091,7.592,0.112l0.836,0.962l-0.951,0.839c-0.7,0.624-1.214,1.738-1.116,2.842
			c0.25,2.689,2.022,3.524,5.044,3.27c2.776-0.228,4.578-1.597,4.726-3.378c0.121-1.392-0.894-2.653-2.798-3.711l-4.517-2.506
			c-3.16-1.748-6.673-4.218-6.413-8.331c0.345-5.408,4.734-8.382,13.055-9.068c4.071-0.333,7.138,0.417,8.986,2.641
			c1.616-1.632,4.015-2.803,6.562-3.326c2.33-0.471,4.354-0.63,6.501-0.687l2.864-7.996c0.385-1.068,1.401-1.646,2.21-1.975
			c0.879-0.356,1.919-0.575,2.887-0.696c1.684-0.214,2.875-0.155,3.671,0.154c0.932,0.359,1.604,1.26,1.233,2.319l-2.855,8.088
			c0.703-0.038,1.499-0.108,2.539-0.219c2.446-0.261,6.35-1.818,6.35-1.818s-0.23,1.318-0.405,2.18
			c1.138-1.37,3.074-2.246,4.475-2.449c2.338-0.348,4.313,0.553,5.763,2.079c4.899,0.569,8.081-0.885,8.967-2.011l1.044-1.316
			l0.634,0.028c0.364,0.017,0.707,0.155,0.935,0.264c0.231,0.108,0.52,0.267,0.824,0.477c0.568,0.366,1.226,0.888,1.898,1.499
			c0.684,0.624,1.276,1.23,1.71,1.74c0.239,0.274,0.424,0.524,0.559,0.719c0.309,0.465,0.377,0.856,0.377,1.057
			c0,0.316-0.252,0.949-0.675,1.401c-0.153,0.174-0.31,0.322-0.378,0.388c-1.91,1.994-3.626,4.895-5.08,8.505
			c-2.154,5.351-1.159,8.33,0.118,8.814c2.218,0.844,5.28,0.468,7.409-0.719c-3.447-7.467,1.573-17.383,4.859-20.752
			c4.91-5.015,13.346-7.364,18.271-3.378c1.121,0.908,2.69,2.846,3.363,5.861c0.93-0.498,2.11-1.188,3.333-1.957
			c1.716-1.07,3.831-2.621,4.454-3.096c2.25-2.765,5.859-4.782,11.067-5.212c4.957-0.409,7.697,0.5,9.58,3.445
			c0.647,1.004,1.294,2.616,1.11,4.416c-0.263,2.55-2.253,4.104-4.346,4.277c-2.749,0.229-4.793-1.812-4.061-4.778
			c0.018-0.046-0.2-1.132-0.501-1.316c-0.873-0.542-1.053-0.643-2.641-0.512c-2.061,0.166-3.499,1.543-3.77,3.403
			c-0.24,1.533,0.2,2.505,3.329,4.4l4.666,2.82c3.842,2.319,5.731,6.247,5.272,9.848c-0.203,1.562-0.89,3.376-1.439,4.398
			c-0.061,0.421,0.086,1.606,2.876,2.54c0.187-1.559,1.463-2.81,3.073-2.938c1.799-0.146,3.282,1.085,3.569,2.908
			c0.309,1.982-1.114,3.309-1.919,3.966c-3.587,2.899-11.388,6.757-17.272,8.82c-13.224,4.628-31.112,8.068-52.433,9.72
			c-22.166,1.713-36.509-0.163-57.011-0.762c-6.759-0.201-13.595-0.423-19.663-0.443c-6.009-0.022-11.258,0.138-14.912,0.714
			c-5.088,0.789-7.834,2.029-9.251,3.042c1.433,0.278,2.339,1.415,2.471,2.797c0.181,1.971-1.561,3.303-3.477,3.471
			c-2.363,0.205-6.248-1.134-5.85-5.273c0.403-4.257,7.212-7.562,16.115-9.068c7.758-1.318,19.546-1.126,31.739-1.412
			c13.699-0.324,28.862,0.508,41.977,0.271c28.233-0.51,53.096-4.108,67.914-8.281c4.179-1.175,7.337-2.362,10.271-3.656
			c-1.078-0.364-2.067-0.873-2.889-1.488c-2.559,1.637-5.643,2.856-8.523,3.098c-5.714,0.468-9.843-1.296-11.671-3.803
			c-0.982-1.307-1.678-2.942-1.786-4.978c-0.084-1.538,0.209-4.433,2.444-6.145c2.508-1.926,6.122-1.986,8.017,0.309l0.724,0.885
			l-0.796,0.823c-0.809,0.828-1.35,1.871-1.195,3.2c0.359,3.082,2.219,3.943,5.203,3.689c2.504-0.205,4.274-2.258,4.468-4.057
			c0.237-2.148-1.143-4.017-2.65-4.956l-4.688-2.922c-2.563-1.596-4.882-4.31-5.428-7.311c-1.898,1.441-4.263,3.188-5.864,4.183
			c0.008,3.161-1.747,9.273-6.759,13.182c-3.424,2.664-6.727,4.233-11.316,3.654c-1.607-0.203-2.878-0.667-3.761-1.087
			c-0.255-0.119-0.479-0.236-0.669-0.349c-3.491,2.088-7.875,3.295-11.768,2.771c-2.693-0.355-5.186-1.229-6.685-3.405
			c-2.242-3.247-2.165-7.045-1.395-10.488c0.45-2.014,1.523-5.01,2.315-7.093c-0.496,0.072-1.044,0.127-1.629,0.127
			c-0.961,0-1.759-0.097-2.341-0.198l-7.231,20.938c-0.335,0.967-0.993,1.512-1.809,1.792c-0.312,0.107-0.679,0.184-1.102,0.25
			c-0.348,0.052-0.734,0.097-1.18,0.152c-1.302,0.165-2.964,0.262-3.396,0.232c-0.819-0.067-1.918-0.673-1.964-1.78
			c-2.528,0.901-5.62,1.807-8.358,2.204c-8.978,1.287-14.029-2.551-11.301-10.52c0.692-2.021,3.558-9.757,4.838-13.19
			c-1.62-0.016-3.373,0.091-4.739,0.284c-1.173,0.155-2.188,0.332-2.994,0.673c-0.676,0.274-1.11,0.628-1.359,1.137
			c0,0.085,0.003,0.171,0.003,0.257c0.004,0.173,0,0.358-0.009,0.526c-0.011,0.159-0.033,0.414-0.116,0.658
			c-0.627,1.911-1.875,2.667-3.841,2.83c-2.282,0.189-4.774-1.465-4.334-4.015c0.02-0.114-0.227-1.196-0.536-1.385
			c-0.909-0.554-1.654-0.779-3.06-0.649c-2.067,0.178-3.292,0.938-3.543,2.234c-0.119,0.618,0.174,1.254,0.868,1.704
			c1.406,0.911,4.688,2.57,7.418,4.105c3.688,2.075,6.46,4.976,5.95,9.472c-0.777,6.817-8.666,9.267-14.435,9.744
			c-4.529,0.372-7.109-0.559-9.557-2.117c-1.689,1.245-4.157,2.826-7.417,3.954c-8.492,2.938-13.297-2.346-12.813-8.435
			c0.194-2.453,2.148-8.785,4.235-14.713c-0.781,0.159-1.774,0.31-3.021,0.432c-3.99,0.411-9.728,0.06-11.938-0.103L62.499,884.459z
			"/>
		<polyline fill="#E7D2AD" points="118.205,846.066 122.842,831.637 144.619,815.647 154.96,823.252 151.009,810.942 
			161.35,803.338 148.57,803.338 144.619,791.029 140.668,803.338 112.834,803.338 101.895,795.209 134.531,795.209 
			144.619,763.775 154.709,795.209 187.353,795.209 160.942,814.639 171.03,846.066 144.619,826.638 118.205,846.066 		"/>
		<path fill="#231F20" d="M58.868,890.734c-0.861,2.304-2.422,6.456-3.811,10.65c-1.387,4.187-2.614,8.443-2.807,10.94
			c-0.189,2.51,1.326,2.659,2.724,0.943c4.339-5.34,6.377-16.498,5.208-21.873C59.748,889.377,59.057,890.239,58.868,890.734
			 M56.311,879.311l0.212,0.287l2.074-5.409l-0.257-0.026c-2.13-0.171-4.356,0.085-6.065,0.727l-0.346,0.128l0.299,0.221
			C53.584,876.221,55.503,878.204,56.311,879.311z M197.256,873.166c-1.521,0.058-2.562-0.85-2.474-1.819
			c0.081-0.823,0.449-1.291,1.137-1.665c1.276-0.693,4.632-1.413,4.632-1.413c0.464-3.316-1.896-5.395-3.878-5.229
			c-3.146,0.263-7.381,4.793-8.849,10.252c-1.492,5.522,0.104,9.4,3.105,9.149c4.138-0.343,7.284-4.072,8.761-9.45
			C199.691,872.991,197.782,873.148,197.256,873.166z M72.74,870.813c2.424,0.255,4.72,0.658,6.991,0.445
			c2.36-0.214,4.703-1.544,5.232-3.064c0.915-2.616,5.459-14.728,7.039-19.02c0.291-0.69-0.348-1.189-1.107-1.372
			c-3.734-0.873-8.626,0.271-12.804,3.948c-4.454,3.912-8.055,11.397-11.061,18.479C67.019,870.234,70.5,870.582,72.74,870.813z
			 M60.516,869.592c3.439-7.87,7.32-14.891,14.202-19.978c6.143-4.547,11.465-6.286,18.777-6.43
			c4.556-0.092,5.253,0.301,5.566,0.511c0.499,0.332,0.625,0.874,0.399,1.453c-0.118,0.354-3.239,9.475-6.473,19.194
			c-3.301,9.92-6.729,20.478-7.223,22.999c-1.23,6.258,1.107,7.852,4.323,6.653c1.726-0.637,3.83-1.934,5.076-2.924
			c-0.537-1.172-0.956-2.555-0.638-3.761c0.289-1.122,0.96-2.261,2.28-3.15c1.964-1.332,4.669-1.57,5.95-0.109
			c-0.98,0.876-1.681,2.382-1.539,3.92c0.348,3.766,3.139,4.698,6.396,4.428c2.98-0.256,5.646-1.805,5.881-4.547
			c0.182-2.191-1.45-3.823-3.452-4.929l-4.515-2.51c-3.235-1.793-5.965-3.904-5.76-7.132c0.278-4.399,3.732-7.211,11.898-7.882
			c4.753-0.391,7.514,0.792,8.776,3.561c1.172-2.011,3.835-3.638,6.919-4.261c2.562-0.521,4.734-0.649,7.142-0.685l3.159-8.816
			c0.374-1.048,2.248-1.611,4.065-1.845c3.281-0.405,3.711,0.368,3.564,0.783l-3.473,9.833c1.285,0.008,2.416-0.047,4.471-0.27
			c2.644-0.284,4.584-1.062,4.584-1.062s-0.511,2.737-2.984,4.432c-1.357,0.928-2.582,1.246-3.882,1.365
			c-1.832,0.17-3.779-0.108-3.779-0.108l-5.198,14.47c-1.104,3.07-0.167,4.608,1.552,5.219c1.641,0.598,3.947,0.317,5.533-0.016
			c2.38-0.506,5.39-1.507,7.003-2.211l6.419-17.864c-1.362-0.258-2.715-1.145-2.991-2.064c-0.603-1.968,1.874-3.908,4.217-4.259
			c2.022-0.298,3.717,0.548,4.961,2.035c5.342,0.731,9.253-0.75,10.564-2.423l0.646-0.808c0.45,0.019,1.606,0.753,2.868,1.909
			c1.299,1.185,2.231,2.294,2.231,2.575c0,0.263-0.674,0.862-0.674,0.862c-2.066,2.16-3.878,5.225-5.369,8.948
			c-2.076,5.161-1.709,9.515,0.841,10.485c2.924,1.104,6.937,0.432,9.364-1.389l0.136-0.108l-0.09-0.146
			c-3.893-6.775,0.896-16.746,4.197-20.129c4.709-4.809,12.403-6.664,16.594-3.276c1.078,0.876,2.846,3.083,3.165,6.752
			c0.925-0.364,2.943-1.488,4.973-2.757c1.883-1.187,4.24-2.918,4.672-3.259c1.996-2.519,5.298-4.454,10.292-4.866
			c4.746-0.392,6.904,0.492,8.425,2.868c0.536,0.843,1.055,2.165,0.907,3.59c-0.193,1.868-1.631,3.013-3.194,3.143
			c-1.975,0.168-3.238-1.159-2.736-3.2c0.086-0.352-0.122-2.125-1.065-2.713c-1.138-0.704-1.594-0.844-3.402-0.692
			c-2.6,0.213-4.555,1.994-4.91,4.477c-0.363,2.367,0.719,3.746,3.928,5.688l4.669,2.823c3.465,2.094,5.054,5.558,4.668,8.588
			c-0.187,1.471-0.886,3.256-1.381,4.095c-0.452,1.568,0.618,3.761,5.938,4.801c-0.496-0.486-0.642-1.04-0.636-1.433
			c0.023-1.052,0.845-1.941,1.941-2.035c1.109-0.088,2.033,0.646,2.224,1.841c0.189,1.217-0.662,2.123-1.465,2.771
			c-3.426,2.772-11.077,6.576-16.895,8.609c-13.094,4.586-30.865,8.014-52.121,9.657c-22.112,1.709-36.425-0.167-56.878-0.77
			c-6.769-0.198-13.614-0.409-19.691-0.437c-6.093-0.02-11.409,0.143-15.108,0.724c-8.679,1.352-11.759,4.205-11.702,5.96
			l0.016,0.448c0,0,0.645-0.796,1.689-0.88c1.322-0.113,2.055,0.679,2.15,1.692c0.096,0.987-0.8,1.948-2.329,2.079
			c-2.093,0.186-4.77-0.975-4.492-3.88c0.296-3.141,5.909-6.383,15.067-7.934c7.722-1.307,19.442-1.109,31.565-1.4
			c13.696-0.323,28.857,0.508,41.97,0.276c28.304-0.512,53.278-4.117,68.229-8.324c6.115-1.723,10.076-3.464,14.306-5.539
			c-2.783,0.151-5.62-0.896-7.172-2.423c-2.569,1.81-5.794,3.169-8.718,3.41c-5.464,0.455-9.076-1.264-10.553-3.287
			c-0.847-1.118-1.447-2.521-1.543-4.287c-0.072-1.411,0.221-3.738,1.945-5.064c2.142-1.639,4.956-1.508,6.285,0.112
			c-0.979,1.014-1.758,2.416-1.546,4.244c0.476,4.045,3.221,5.092,6.556,4.81c3.108-0.26,5.359-2.775,5.622-5.196
			c0.306-2.795-1.482-5.072-3.246-6.173l-4.691-2.922c-3.007-1.875-5.346-5.205-4.89-8.348l0.065-0.46
			c-1.785,1.41-5.551,4.292-7.78,5.679l-0.08,0.047l-0.013,0.098c-0.488,3.889-2.151,9.509-6.777,13.112
			c-3.274,2.555-6.252,3.924-10.394,3.401c-2.91-0.364-4.575-1.666-4.575-1.666c-3.398,2.219-7.82,3.51-11.614,3.004
			c-2.573-0.34-4.618-1.145-5.811-2.869c-1.947-2.823-1.936-6.19-1.206-9.481c0.741-3.309,3.194-9.287,3.194-9.287
			s-1.624,0.77-3.731,0.77c-1.955,0-3.157-0.429-3.157-0.429l-7.602,22.02c-0.387,1.104-1.329,1.129-3.062,1.352
			c-1.293,0.163-2.845,0.245-3.143,0.222c-0.599-0.047-0.894-0.41-0.748-0.831l0.65-1.783c-2.683,1.105-6.935,2.528-10.499,3.043
			c-8.553,1.232-12.206-2.211-9.935-8.838c0.895-2.612,5.439-14.817,5.439-14.817c-2.059-0.139-4.754-0.035-6.702,0.231
			c-2.314,0.316-4.683,0.738-5.459,2.854c0,0,0.072,0.921-0.04,1.259c-0.435,1.323-1.167,1.829-2.751,1.965
			c-1.821,0.149-3.233-1.122-2.987-2.528c0.054-0.34-0.17-2.106-1.13-2.693c-1.149-0.699-2.158-0.976-3.815-0.831
			c-2.203,0.19-4.245,1.083-4.672,3.266c-0.248,1.268,0.427,2.372,1.42,3.018c1.419,0.921,4.733,2.602,7.487,4.146
			c3.527,1.983,5.737,4.484,5.314,8.211c-0.65,5.732-7.441,8.137-13.289,8.619c-4.666,0.388-7.008-0.687-9.5-2.398
			c-1.625,1.252-4.203,3.066-7.777,4.306c-7.646,2.643-11.563-1.972-11.155-7.133c0.205-2.574,2.62-10.183,5.024-16.763
			c0,0-0.914,0.682-5.187,1.117c-4.945,0.504-12.62-0.18-12.62-0.18l-4.103,9.884l0.023,0.067
			c3.618,11.082,1.703,23.174-4.778,30.833c-4.512,5.327-10.926,5.288-9.675-3.217c0.599-4.068,1.609-8.002,2.946-12.434
			c1.338-4.414,2.586-8.871,4.877-14.951c0.604-1.604-1.575-3.945-3.682-5.822c-1.04-0.934-4.22-3.279-4.371-4.029
			c-0.23-1.134,1.461-3.502,5.136-4.503C54.997,869.434,58.374,869.525,60.516,869.592z"/>
		<polyline fill="#B32317" points="144.619,825.126 120.506,842.865 123.866,832.39 144.619,817.155 157.257,826.452 
			152.428,811.411 165.069,802.117 149.447,802.117 144.619,787.071 139.791,802.117 113.225,802.117 105.577,796.43 
			135.409,796.43 144.619,767.73 153.828,796.43 183.639,796.43 159.522,814.17 168.735,842.865 144.619,825.126 		"/>
	</g>
</g>
<g id="svg12082">
</g>
<g id="svg31568">
</g>
<g id="CLEVELAND_INDIANS">
</g>
<g id="svg2562">
</g>
</svg>
