<?xml version="1.0" encoding="utf-8"?>
<!-- Generator: Adobe Illustrator 14.0.0, SVG Export Plug-In . SVG Version: 6.00 Build 43363)  -->
<!DOCTYPE svg PUBLIC "-//W3C//DTD SVG 1.1//EN" "http://www.w3.org/Graphics/SVG/1.1/DTD/svg11.dtd">
<svg version="1.1" xmlns="http://www.w3.org/2000/svg" xmlns:xlink="http://www.w3.org/1999/xlink" x="0px" y="0px" width="200px"
	 height="200px" viewBox="44 746 200 200" enable-background="new 44 746 200 200" xml:space="preserve">
<g id="Layer_1">
	<g>
		<path fill="#004684" d="M106.12,925.082c3.446-1.727,4.42-4.22,4.908-6.745c0.184-0.953-0.385-1.004-1.022-0.291
			c-3.641,3.392-10.783,4.119-15.411-4.958c-2.396-4.697-4.737-8.423-7.643-10.736c7.424-2.697,12.489-9.03,12.096-15.767
			c-0.487-8.17-8.817-14.318-19.622-13.593c-22.388,1.476-28.851,21.656-21.574,23.405c5.534,1.334,8.332-3.899,8.778-7.663
			c-1.39,1.296-4.497,2.257-3.945-2.193c0.521-4.226,7.66-9.664,16.729-10.353c6.335-0.449,11.477,5.031,11.784,11.288
			c0.261,5.51-3.266,10.598-8.406,12.729c-2.228-0.608-4.783-0.565-7.826,0.269c-0.163-11.553,1.157-18.003,4.634-21.729
			c-2.014,0.684-4.219,1.91-6.082,4.082c-6.569,7.872-4.316,30.718-5.921,38.394c-0.721,4.143-5.265,6.33-7.38,2.661
			c-4.658,6.893,3.154,12.664,9.3,9.393c2.924-1.549,7.151-5.671,6.369-15.633c-0.445-5.583-0.74-10.416-0.868-14.644
			c1.876-0.432,4.958-0.329,7.21,3.864C84.772,911.624,91.084,932.587,106.12,925.082"/>
		<path fill="#004684" d="M220.474,879.799c0.58-2.482,0.481-5.218-0.254-7.9c-2.525-9.168-0.632-12.341,1.099-13.901
			c-20.447-2.674-20.516,28.274-29.976,31.506c-1.603,0.546-3.152-0.815-3.308-2.872c13.263-15.845,10.979-37.86-0.645-38.979
			c-2.881-0.28-5.79,2.453-5.741,7.46c0,0-0.014,26.145,0.005,28.684c0.014,2.537,0,3.443,0.072,4
			c0.05,0.366,0.129,0.691,0.201,1.024c-0.547,0.512-1.098,1.025-1.678,1.513c-4.122,3.469-4.808,2.247-5.179-0.882l0.014-19.597
			l-6.682,1.715c0,0-0.039,0.619-0.029,1.452c-0.882-0.833-2.599-1.026-3.91-0.995c-7.886,0.2-13.907,13.351-11.767,23.404
			c-1.379,1.574-3.334,3.374-5.529,5.343l0.02-23.234l-6.77,1.885l-0.063,17.576c-0.009,0.312-0.018,0.988-0.031,1.92
			c-0.889,3.334-3.564,5.15-4.974,4.945c-1.433-0.214-1.848-2.675-1.813-3.812l0.005-18.78l-6.425,1.633
			c0.159,7.496-2.816,10.732-6.193,11.946c-1.086-4.246-3.624-7.621-7.655-8.271c-1.987-0.317-3.68,0.214-4.895,1.21
			c-8.881,2.881-10.594,17.493-6.829,23.565c2.227,3.701,5.104,4.509,6.68,4.66c9.267,0.896,13.764-8.827,13.274-17.367
			c2.33-0.752,4.266-2.105,5.412-3.859l-0.129,5.565c0.018,3.719,0.504,9.158,4.744,9.168c3.223,0.008,6.325-2.343,8.912-5.283
			c0,0.863-0.005,1.774-0.005,2.696c-4.433,4.267-8.591,9.014-10.305,13.979c-0.106,0.326-0.205,0.659-0.295,0.996
			c-7.467,2.019-13.75,3.646-17.579,4.5c-23.26,5.22-29.911,11.626-30.983,19.589c8.117-9.087,17.635-5.557,20.327-3.938
			c0.645-1.406,4.018-6.256,12.186-9.394c4.949-1.906,10.125-3.769,15.394-5.607c-0.02,6.739,3.036,13.716,9.451,12.622
			c4.941-0.839,8.582-4.138,8.519-17.268l0.004-0.74c27.615-8.938,55.159-16.566,74.278-23.179
			C231.347,895.07,229.26,883.253,220.474,879.799 M113.238,890.519c1.659,0.638,2.881,2.569,3.599,4.976
			c-2.412-0.026-4.449-0.657-5.028-0.991C108.314,892.501,110.625,889.519,113.238,890.519 M111.984,909.91
			c-6.363,0.017-6.272-10.878-4.376-14.609c0.564,0.745,1.33,1.445,2.36,2.034c2.465,1.419,5.09,2.014,7.548,1.976
			C117.88,904.455,116.224,909.901,111.984,909.91 M210.31,880.859c0.021-0.004,0.047-0.004,0.063-0.004
			c0.337-0.039,0.663-0.064,0.979-0.078c0.018-0.004,0.034-0.004,0.052-0.004c0.321-0.015,0.629-0.018,0.954,0
			c0.013,0,0.025,0,0.039,0.004c0.325,0.014,0.652,0.048,0.999,0.099c0.014,0.004,0.021,0.009,0.039,0.009
			c0.039,0.004,0.082,0.017,0.128,0.025c-0.518,2.343-1.828,4.099-4.45,4.634c-5.805,1.188-5.589-3.821-1.132-4.394
			C208.869,881.043,209.612,880.932,210.31,880.859 M213.54,862.451c-2.485,2.406-0.047,9.262,0.266,14.89
			c0.008,0.18,0.004,0.355,0.008,0.531c-1.97-0.292-4.073-0.312-6.91,0.034c-2.274,0.277-3.911,1.057-4.998,2.068
			C204.642,873.135,208.848,863.216,213.54,862.451 M193.247,857.719c1.914,6.806-0.026,15.743-5.086,23.59
			c0.003-7.569,0.023-23.926,0-25.91C188.114,851.849,191.735,852.356,193.247,857.719 M161.385,878.235
			c2.346-4.531,6.723-3.09,7.334-0.508c0.025,4.689-0.099,9.04-0.088,10.482c0.023,3.832-2.796,8.479-5.85,8.296
			C158.319,896.249,158.046,884.658,161.385,878.235 M140.42,911.253c-0.003,2.637-0.008,5.209-0.014,7.32
			c-2.14,0.59-4.243,1.167-6.295,1.722c0.034-0.086,0.06-0.17,0.098-0.261C135.543,917.005,137.784,914.069,140.42,911.253
			 M137.776,935.183c-2.881,0.752-4.646-3.962-4.689-8.821c2.432-0.83,4.868-1.658,7.318-2.466
			C140.386,932.13,140.048,934.584,137.776,935.183 M220.422,895.683c-13.882,4.148-45.679,13.354-73.268,21.023l0.01-11.879
			c2.434-2.145,4.869-4.192,7.035-6.128c0.807,2.284,9.161,6.787,14.458-2.925c2.441,7.569,11.006-1.478,12.994-3.008
			c0.487-0.376,0.954-0.765,1.415-1.159c2.791,4.075,8.919,2.987,12.429-0.39c1.829-1.761,3.646-4.739,4.862-7.454
			c0.295,2.902,3.54,5.65,9.379,5.016c4.747-0.525,7.881-2.792,9.579-5.887c0.32,0.146,0.661,0.295,1.017,0.458
			C227.265,886.543,225.628,894.126,220.422,895.683"/>
		<path fill="#004684" d="M227.299,861.797h-1.545v4.191h-1.043v-4.191h-1.539v-0.915h4.123v0.915H227.299z M234.277,865.988h-1.044
			v-4.059h-0.023l-1.479,4.059h-1.006l-1.423-4.059h-0.034v4.059h-1.034v-5.106h1.808l1.18,3.338h0.026l1.234-3.338h1.795V865.988
			L234.277,865.988z"/>
		<path fill="#004684" d="M227.299,861.797h-1.545v4.191h-1.043v-4.191h-1.539v-0.915h4.123v0.915H227.299z M234.277,865.988h-1.044
			v-4.059h-0.023l-1.479,4.059h-1.006l-1.423-4.059h-0.034v4.059h-1.034v-5.106h1.808l1.18,3.338h0.026l1.234-3.338h1.795V865.988
			L234.277,865.988z"/>
		<path fill="#004684" d="M227.299,861.797h-1.545v4.191h-1.043v-4.191h-1.539v-0.915h4.123v0.915H227.299z M234.277,865.988h-1.044
			v-4.059h-0.023l-1.479,4.059h-1.006l-1.423-4.059h-0.034v4.059h-1.034v-5.106h1.808l1.18,3.338h0.026l1.234-3.338h1.795V865.988
			L234.277,865.988z"/>
		<polygon fill="#004684" points="100.911,779.786 100.911,849.042 137.484,870.443 174.057,849.042 174.057,779.786 		"/>
		<path fill="#8E6C22" d="M172.688,754.689c2.397,0,4.343-1.948,4.343-4.347c0-2.398-1.945-4.342-4.343-4.342
			c-2.393,0-4.343,1.944-4.343,4.342C168.346,752.741,170.296,754.689,172.688,754.689"/>
		<path fill="#8E6C22" d="M172.253,757.527h-0.897c0,5.719-4.629,10.365-10.344,10.365c-5.713,0-10.309-4.65-10.309-10.368h-2.756
			c0,5.718-4.633,10.368-10.342,10.368c-5.712,0-10.31-4.676-10.31-10.386l-2.778,0.025c0,5.719-4.629,10.36-10.344,10.36
			c-5.714,0-10.326-4.668-10.326-10.379l-2.991-0.034v20.349h73.23v-20.301h-2.73"/>
		<path fill="#8E6C22" d="M102.394,754.689c2.403,0,4.343-1.948,4.343-4.347c0-2.398-1.941-4.342-4.343-4.342
			c-2.397,0-4.342,1.944-4.342,4.342C98.052,752.741,99.997,754.689,102.394,754.689"/>
		<path fill="#8E6C22" d="M126.016,754.689c2.403,0,4.348-1.948,4.348-4.347c0-2.398-1.944-4.342-4.348-4.342
			c-2.397,0-4.338,1.944-4.338,4.342C121.678,752.741,123.619,754.689,126.016,754.689"/>
		<path fill="#8E6C22" d="M149.375,754.689c2.398,0,4.344-1.948,4.344-4.347c0-2.398-1.945-4.342-4.344-4.342
			c-2.402,0-4.348,1.944-4.348,4.342C145.027,752.741,146.973,754.689,149.375,754.689"/>
		<path fill="#231F20" d="M114.43,799.878c0-3.966-2.667-5.236-5.057-5.21l-0.786-0.025v-2.047h8.997h6.581v2.089
			c-2.227,0.167-4.514,1.53-4.514,5.193l-0.003,12.327l1.086-0.602c2.242-3.163,8.137-11.558,9.354-13.981
			c1.513-2.97-0.79-2.97-3-2.97v-2.068h13.805v2.068h-0.979c-1.495,0-3.359,0-5.842,3.06c-3.167,3.923-9.471,13.42-9.471,13.42
			c9.65,0.722,13.279,13.968,15.762,15.764c-1.419-9.459,5.578-21.26,15.844-20.802c1.145,0.048,2.563-0.094,5.838,0.804
			c3.282,0.906,3.578-0.718,4.018-2.517h2.445v15.583h-2.112c-0.18-2.701-1.52-11.625-10.162-11.891
			c-8.793-0.269-10.436,9.903-10.566,16.844c-0.436,25.675,17.443,24.853,20.721,16.575c0.469-1.214,0.269-1.546-0.274-1.808
			c-3.89-1.885,0.624-6.933,3.129-2.517c1.141,2.021-0.91,11.62-11.62,11.62c-16.643,0-21.514-23.242-27.699-30.807
			c-4.829-5.889-8.77-3.244-10.249-1.803l-0.061,4.052l0.034,7.206c0,3.971,2.672,5.236,5.06,5.21l0.782,0.026v2.056h-8.45h-8.454
			v-2.056l0.787-0.026c2.389,0.026,5.056-1.239,5.056-5.21L114.43,799.878"/>
		<path fill="#FFFFFF" d="M112.968,798.417c0-3.966-2.663-5.231-5.053-5.21l-0.791-0.021v-2.056h9.001h6.581v2.094
			c-2.233,0.167-4.513,1.526-4.513,5.192l-0.003,12.335l1.08-0.611c2.248-3.167,8.139-11.562,9.359-13.976
			c1.51-2.975-0.79-2.975-3.003-2.975v-2.068h13.805v2.068h-0.975c-1.496,0-3.359,0-5.838,3.069
			c-3.176,3.915-9.476,13.416-9.476,13.416c9.649,0.718,13.279,13.963,15.753,15.763c-1.409-9.458,5.582-21.259,15.849-20.806
			c1.149,0.046,2.564-0.09,5.843,0.807c3.273,0.902,3.572-0.723,4.013-2.522h2.446v15.583h-2.116
			c-0.176-2.702-1.519-11.621-10.156-11.891c-8.795-0.269-10.445,9.908-10.564,16.845c-0.439,25.674,17.437,24.857,20.716,16.574
			c0.479-1.209,0.265-1.543-0.266-1.804c-3.894-1.893,0.616-6.936,3.12-2.522c1.146,2.027-0.909,11.626-11.619,11.626
			c-16.644,0-21.511-23.247-27.7-30.808c-4.826-5.898-8.766-3.244-10.245-1.808l-0.064,4.057l0.04,7.21
			c0,3.958,2.665,5.227,5.055,5.202l0.786,0.025v2.056h-8.454h-8.455v-2.056l0.791-0.025c2.389,0.025,5.053-1.244,5.053-5.202
			V798.417"/>
	</g>
</g>
<g id="svg12082">
</g>
<g id="svg31568">
</g>
<g id="CLEVELAND_INDIANS">
</g>
<g id="svg2562">
</g>
</svg>
