<?xml version="1.0" encoding="utf-8"?>
<!-- Generator: Adobe Illustrator 14.0.0, SVG Export Plug-In . SVG Version: 6.00 Build 43363)  -->
<!DOCTYPE svg PUBLIC "-//W3C//DTD SVG 1.1//EN" "http://www.w3.org/Graphics/SVG/1.1/DTD/svg11.dtd">
<svg version="1.1" xmlns="http://www.w3.org/2000/svg" xmlns:xlink="http://www.w3.org/1999/xlink" x="0px" y="0px" width="200px"
	 height="200px" viewBox="44 746 200 200" enable-background="new 44 746 200 200" xml:space="preserve">
<g id="Layer_1">
	<g>
		<path fill="#FFFFFF" d="M154.979,946h56.997c-5.263-3.576-9.916-9.837-11.989-17.007l-15.934-54.67
			c-1.723-5.889,1.078-11.772,5.557-15.753c-6.358-1.96-11.998-6.364-13.767-12.46l-8.931-30.604
			c12.69-4.249,20.955-11.763,20.955-20.499c0-11.404-14.109-20.744-33.757-23.417L146.647,746h-8.349l-7.455,25.596
			c-19.655,2.672-33.783,12.008-33.783,23.412c0,8.736,8.284,16.25,20.983,20.499l-8.921,30.604
			c-1.761,6.096-7.419,10.502-13.777,12.46c4.469,3.98,7.29,9.864,5.566,15.753l-15.942,54.67C82.86,936.163,78.242,942.424,73,946
			h56.996c-4.664-3.576-7.206-9.837-5.114-17.007l1.4-4.755h32.419l1.382,4.755C162.167,936.163,159.623,942.424,154.979,946
			 M137.571,885.51l4.921-16.914l4.912,16.914H137.571z"/>
		<path fill="#003263" d="M202.392,942.125c-2.727-3.553-4.883-7.69-6.156-12.026l-15.831-54.311
			c-2.498-8.616,2.137-14.744,2.745-15.721c-5.501-2.977-9.527-7.517-11.058-12.874l-9.63-33.055
			c13.583-3.617,22.845-10.818,22.845-19.131c0-10.51-14.883-19.283-34.595-21.223l-6.958-23.895h-2.524l-6.958,23.895
			c-19.729,1.935-34.621,10.708-34.621,21.223c0,8.312,9.271,15.514,22.854,19.131l-9.629,33.055
			c-1.558,5.359-5.566,9.897-11.068,12.874c0.618,0.977,5.263,7.104,2.737,15.721L88.72,930.099
			c-1.262,4.336-3.428,8.474-6.155,12.026h39.469c-3.179-7.031-1.511-12.155-0.083-16.979l1.401-4.801h38.262l1.409,4.801
			c1.401,4.824,3.078,9.948-0.101,16.979 M132.346,889.398l10.146-34.74l10.109,34.74H132.346z"/>
		<path fill="#CD1141" d="M152.969,803.512h0.01l-5.078-17.449l0,0l0.996,3.474c-2.073-0.115-4.222-0.193-6.405-0.193v11.321
			l30.401,104.215l6.984,23.905l12.018,7.192c-0.84-1.823-1.595-3.694-2.166-5.61l-15.132-51.79
			c-2.378-8.096-1.069-11.589,0.654-16.474c-4.543-3.488-7.565-8.025-9.041-13.141l-11.481-39.446c-0.009,0-0.018,0.005-0.027,0.005
			"/>
		<path fill="#CD1141" d="M146.05,779.695l-3.558-12.201v12.123C143.69,779.617,144.878,779.65,146.05,779.695"/>
		<path fill="#CD1141" d="M104.902,929.417l9.714,6.561c-0.525-3.267-0.027-7.564,0.902-10.615l3.226-11.149l-6.671-9.331"/>
		<polyline fill="#CD1141" points="124.163,895.538 142.492,832.781 142.492,800.665 112.072,904.88 172.895,904.88 
			160.766,895.538 		"/>
		<polyline fill="#8F0028" points="142.492,832.781 160.766,895.538 172.895,904.88 142.492,800.665 		"/>
		<path fill="#8F0028" d="M191.895,935.978l-12.017-7.192l-6.985-23.905h-60.82l30.42-104.215v-11.321
			c2.185,0,4.331,0.079,6.404,0.193l-0.996-3.474c-0.267-0.018-0.543-0.027-0.819-0.037c-1.493-0.078-3.022-0.124-4.589-0.124
			c-1.853,0-3.659,0.06-5.418,0.161l-5.087,17.449l0,0l-1.733,6.008c-0.009,0-0.018,0-0.018-0.005l-11.492,39.446
			c-1.475,5.114-4.469,9.653-9.04,13.142c1.715,4.884,3.032,8.377,0.664,16.473l-15.149,51.789
			c-0.572,1.918-1.291,3.787-2.177,5.612h21.574l-9.714-6.562l7.17-24.536l6.672,9.331h47.468l3.271,11.151
			c0.867,3.05,1.365,7.349,0.867,10.615"/>
		<path fill="#8F0028" d="M142.492,767.495l-3.558,12.201c1.17-0.045,2.359-0.078,3.558-0.078"/>
		<path fill="#C4CDD3" d="M131.987,803.512L131.987,803.512c-11.013-1.317-18.837-4.64-18.837-8.506
			c0-4.451,10.302-8.156,23.924-8.943c1.759-0.102,3.565-0.161,5.418-0.161c1.566,0,3.096,0.045,4.589,0.124
			c0.276,0.009,0.554,0.019,0.819,0.037l0,0c13.612,0.789,23.925,4.483,23.925,8.943c0,3.866-7.834,7.188-18.847,8.506h-0.01
			l1.733,6.008c0.009,0,0.019-0.005,0.028-0.005c14.181-2.128,24.355-7.801,24.355-14.509c0-7.985-14.505-14.56-33.037-15.312
			c-1.171-0.046-2.358-0.078-3.558-0.078c-1.198,0-2.387,0.032-3.557,0.078c-18.569,0.751-33.047,7.327-33.047,15.312
			c0,6.708,10.155,12.385,24.347,14.509c0,0.005,0.009,0.005,0.019,0.005"/>
		<path fill="#003263" d="M213.496,937.301h-1.687v4.6h-1.142v-4.6h-1.687v-1h4.516 M221.145,941.898h-1.143v-4.455h-0.027
			l-1.621,4.455h-1.106l-1.557-4.455h-0.027v4.455h-1.143v-5.598h1.972l1.3,3.654h0.037l1.345-3.654h1.972L221.145,941.898
			L221.145,941.898z"/>
	</g>
</g>
<g id="svg12082">
</g>
<g id="svg31568">
</g>
<g id="CLEVELAND_INDIANS">
</g>
<g id="svg2562">
</g>
</svg>
