<?xml version="1.0" encoding="utf-8"?>
<!-- Generator: Adobe Illustrator 14.0.0, SVG Export Plug-In . SVG Version: 6.00 Build 43363)  -->
<!DOCTYPE svg PUBLIC "-//W3C//DTD SVG 1.1//EN" "http://www.w3.org/Graphics/SVG/1.1/DTD/svg11.dtd">
<svg version="1.1" xmlns="http://www.w3.org/2000/svg" xmlns:xlink="http://www.w3.org/1999/xlink" x="0px" y="0px" width="200px"
	 height="200px" viewBox="44 746 200 200" enable-background="new 44 746 200 200" xml:space="preserve">
<g id="Layer_1">
	<g>
		<path fill="#005A9B" d="M216.139,798.378c-0.346,2.744-2.863,3.8-2,6.997c3.889,4.578,7.646,6.559,7.646,14.01
			c1.914-1.799,9.404-2.914,11.389,2.73c4.906,13.95-16.76,24.822-31.895,31.323c-16.289,7.001-31.889,13.01-40.617,16.761
			c-1.361,6.403-4.182,22.72-14.428,23.496c-5.673,0.434-6.34-9.789-3.017-16.532c-13.532,4.518-22.762,12.743-24.276,16.85
			c-12.091,1.293-14.04-0.35-14.082-0.435c9.331-13.966,31.941-22.317,43.545-26.525c0,0,5.689-8.403,9.039-12.437l0.596-3.969
			c-1.295,3.455-6.826,8.318-10.51,2.471c-0.773,2.244-2.072,7.54-6.214,7.722c-1.814,0.085-2.937-1.472-3.887-2.684
			c-0.758,2.419-3.479,8.229-8.314,7.542c-4.532-0.651-5.749-8.171-5.208-12.184c0,0.169-1.167,2.054-2.383,2.846
			c-0.1,14.503-7.981,22.464-16.234,16.951l-6.856,6.231c-0.979,0.091-1.867-0.266-2.313-1.071l6.706-9.61
			c-2.361-12.453,4.916-25.665,13.845-22.953c2.704,0.818,3.912,3.24,4.53,5.867c1.011-0.508,2.181-1.456,3.043-2.321
			c0.142-4.315,6.605-16.178,13.759-11.4l4.352-20.328c0,0,3.889-2.052,5.471-1.767c-1.582,8.065-6.266,30.293-5.827,37.831
			c0.097,1.528,3.452,0.032,4.159-5.539c-0.457-20.673,12.625-24.644,15.424-20.405l0.672-2.731c0,0,2.941-1.889,5.246-1.962
			c-0.576,4.483-1.908,13.406-2.947,20.058l4.576-7.428c0.529-15.964,10.029-22.119,14.629-18.666
			c4.404,3.298-1.715,16.151-8.438,17.08c-0.258,7.709,8.018,4.145,11.146-4.493c2.705-7.467,3.398-9.704,4.26-15.233
			c-1.143-2.276-1.238-7.04,1.064-8.351c2.895-1.647,1.656,3.247,3.402,3.167c2.74-0.12,5.9-1.026,7.574,0.69
			c2.879,2.956-1.791,8.799-2.652,12.038c-0.861,3.238-0.783,5.956,0.906,5.715c2.926-0.419,8.541-16.638,9.578-21.929
			C208.133,794.455,216.848,792.829,216.139,798.378z M156.428,864.144c0,0,0.611-2.732,0.771-3.896
			c-0.402,0.657-2.055,3.314-3.055,4.806C154.865,864.809,156.428,864.144,156.428,864.144z M212.811,809.791
			c-1.465,4.938-6.52,27.556-14.711,25.172c-8.219-2.397-2.033-16.453-1.223-19.085c-0.795,0.034-1.879-0.125-2.723-0.296
			c-1.729,8.121-6.592,28.926-17.684,29.215c-3.5,0.092-5.086-2.537-6.133-4.264c-2.324,3.458-4.426,7.429-6.844,10.796
			c-0.6,3.361-1.234,7.923-1.656,10.976c44.799-16.295,60.189-22.242,65.795-30.732c1.344-2.027,3.561-7.171,0.492-9.305
			c-2.059-1.433-5.359,0.582-6.236,1.492c-2.824,2.949-5.637,5.858-9.863,5.141c-2.965-0.507-4.402-3.921-2.244-5.961
			c1.434-1.373,2.922,0.602,4.217-0.042C216.525,821.625,217.779,815.552,212.811,809.791z M180.215,821.588
			c-1.545-0.932-4.953,4.95-4.855,9.187C179.41,829.538,181.652,822.45,180.215,821.588z M157.877,831.068
			c-6.711,0.805-8.189,18.471-3.652,17.615c2.387-0.448,3.814-3.831,4.674-6.528c0.809-2.539,0.762-5.577,1.027-7.018
			C160.414,832.555,159.158,830.92,157.877,831.068z M135.685,841.521c-6.737-0.7-8.624,16.747-4.513,16.896
			c2.402,0.09,4.117-2.335,4.979-5.754c0.184-0.733,0.979-7.436,1.096-8.201C137.368,843.678,136.844,841.641,135.685,841.521z
			 M111.932,851.791c0.948,1.751,5.458,2.182,5.099,1.202C117.232,848.182,111.701,847.563,111.932,851.791z M109.352,854.834
			c-2.79,3.826-2.461,12.967,0.926,13.626c4.155,0.806,7.171-6.488,6.853-10.488C114.812,858.058,110.864,857.592,109.352,854.834z
			 M155.299,872.135c0,0-2.551,1.218-5.572,2.364c-2.314,3.604-3.631,11.825-0.863,10.612
			C152.244,883.619,153.721,879.564,155.299,872.135z"/>
		<path fill="#005A9B" d="M95.31,876.549c-8.738,15.915-23.065,11.978-27.557,12.066c-6.192,9.991-16.793,13.702-18.798,12.406
			c-2.662-1.709,1.604-13.718,14.994-15.691c4.326-5.181-1.409-36.946,16.85-46.218c0.429,0,1.038,0.171,0.775,0.777
			c-9.937,8.727-6.077,22.289-8.682,34.641c-1.149,5.477-2.26,9.044-2.894,10.479c2.877,0.122,4.09,0.466,7.254-0.104
			c8.425-1.534,12.13-9.792,13.912-17.628c2.377-10.506,2.028-24.03-6.05-28.593c-15.048-8.517-41.351,14.886-33.085,24.845
			c1.699,2.044,9.886,0.603,13.648-11.372c0.606,1.031,0.606,2.535-0.115,4.693c-4.468,13.417-12.61,14.47-16.153,12.639
			c-3.615-1.868-3.78-7.675-3.085-11.288c3.556-18.31,33.607-33.937,47.287-20.529C103.09,846.964,101.234,865.757,95.31,876.549z
			 M55.054,894.488c2.534,0.539,5.788-2.594,7.255-5.185C58.681,889.938,55.427,891.579,55.054,894.488z"/>
		<path fill="#EE3E42" d="M154.104,764.386c0-9.912,8.033-17.948,17.939-17.948s17.947,8.037,17.947,17.948
			c0,9.908-8.039,17.941-17.947,17.941C162.137,782.327,154.104,774.293,154.104,764.386z M166.201,762.816
			c2.318-7.554-1.682-12.476-2.193-13.059c-5.152,2.84-8.65,8.322-8.65,14.628c0,2.866,0.717,5.563,1.998,7.918
			C158.396,772.006,163.957,770.105,166.201,762.816z M177.754,766.362c-2.223,7.269,1.291,11.965,1.994,12.814
			c5.328-2.785,8.977-8.357,8.977-14.791c0-2.739-0.668-5.312-1.832-7.597C186.117,756.999,180.072,758.838,177.754,766.362z
			 M176.516,765.981c2.504-8.124,8.664-10.562,9.426-10.835c-2.996-4.49-8.102-7.45-13.898-7.45c-2.236,0-4.361,0.446-6.312,1.244
			c0.48,0.654,4.201,6.131,1.711,14.258c-2.377,7.741-7.918,10.268-9.084,10.722c3.018,4.32,8.02,7.15,13.686,7.15
			c2.109,0,4.117-0.404,5.973-1.116C177.295,778.917,174.148,773.714,176.516,765.981z"/>
		<polygon fill="#EE3E42" points="86.167,889.722 76.077,908.651 76.347,909.529 77.228,909.265 87.304,890.33 87.035,889.45 		"/>
		<polygon fill="#EE3E42" points="108.604,896.457 101.402,912.51 101.729,913.36 102.587,913.043 109.785,896.983 109.456,896.131 
					"/>
		<polygon fill="#EE3E42" points="134.605,886.159 131.935,894.542 132.36,895.357 133.171,894.935 135.833,886.551 
			135.416,885.736 		"/>
		<polygon fill="#EE3E42" points="130.07,900.734 115.85,945.623 116.271,946.438 117.082,946.013 131.298,901.126 130.879,900.312 
					"/>
		<polygon fill="#EE3E42" points="149.271,895.611 145.738,912.103 146.244,912.869 147.014,912.366 150.537,895.886 
			150.043,895.112 		"/>
		<polygon fill="#EE3E42" points="133.468,803.537 115.574,835.498 115.829,836.379 116.707,836.134 134.594,804.168 
			134.346,803.287 		"/>
		<polygon fill="#EE3E42" points="183.326,782.105 177.4,809.861 177.939,810.705 178.789,810.158 184.723,782.404 184.184,781.558 
					"/>
		<polygon fill="#EE3E42" points="172.643,788.134 166.275,815.027 166.805,815.883 167.666,815.354 174.033,788.465 
			173.504,787.608 		"/>
		<polygon fill="#EE3E42" points="166.074,787.435 155.385,820.371 155.844,821.265 156.74,820.81 167.43,787.873 166.969,786.976 
					"/>
		<polygon fill="#EE3E42" points="150.98,772.437 137.082,796.731 137.349,797.704 138.32,797.439 152.221,773.143 151.947,772.17 
					"/>
		<polygon fill="#EE3E42" points="159.088,783.899 148.938,805.711 149.281,806.658 150.229,806.313 160.379,784.5 160.035,783.552 
					"/>
		<polygon fill="#EE3E42" points="164.275,883.322 160.973,901.209 161.482,901.963 162.242,901.449 165.555,883.555 
			165.037,882.805 		"/>
		<path fill="#005A9B" d="M238.195,834.808h-0.904v2.456h-0.609v-2.456h-0.904v-0.537h2.418V834.808L238.195,834.808z
			 M242.287,837.264h-0.609v-2.383h-0.01l-0.867,2.383h-0.588l-0.846-2.383h-0.004v2.383h-0.615v-2.992h1.055l0.697,1.955h0.016
			l0.725-1.955h1.051v2.992H242.287z"/>
	</g>
</g>
<g id="svg12082">
</g>
<g id="svg31568">
</g>
<g id="CLEVELAND_INDIANS">
</g>
<g id="svg2562">
</g>
</svg>
