<?xml version="1.0" encoding="utf-8"?>
<!-- Generator: Adobe Illustrator 14.0.0, SVG Export Plug-In . SVG Version: 6.00 Build 43363)  -->
<!DOCTYPE svg PUBLIC "-//W3C//DTD SVG 1.1//EN" "http://www.w3.org/Graphics/SVG/1.1/DTD/svg11.dtd">
<svg version="1.1" xmlns="http://www.w3.org/2000/svg" xmlns:xlink="http://www.w3.org/1999/xlink" x="0px" y="0px" width="200px"
	 height="200px" viewBox="44 746 200 200" enable-background="new 44 746 200 200" xml:space="preserve">
<g id="Layer_1">
	<g>
		<path fill="#8A8D8F" d="M174.979,861.023l18.45,47.272h36.117l-50.222-125.552l-32.114,58.976l-26.877-49.836l-3.468-6.434
			l-1.673-3.113l-2.242,5.616l-3.49,8.721c-4.011,3.022-7.418,5.935-10.45,8.838c-13.793,13.229-15.04,23.061-11.359,29.972
			c0.56,0.944,1.22,1.85,1.957,2.716c2.722,3.186,6.499,5.8,10.083,7.51c0.092,0.041,0.175,0.082,0.268,0.118
			c0.189,0.094,0.386,0.183,0.579,0.268c0.244,0.106,0.709,0.307,1.03,0.444c0.151,0.064,0.28,0.116,0.324,0.136
			c0.005,0,0.014,0,0.03,0.007c-0.358-0.153-0.848-0.396-1.197-0.574h-0.002v0.001c-0.266-0.134-0.52-0.281-0.787-0.424
			c-0.128-0.075-0.266-0.148-0.397-0.227c-0.025-0.016-0.052-0.032-0.082-0.044c-0.23-0.14-0.463-0.283-0.692-0.424
			c-0.169-0.107-0.337-0.217-0.501-0.327c-0.08-0.05-0.162-0.105-0.244-0.163c-0.106-0.073-0.223-0.144-0.324-0.216
			c-0.995-0.69-1.765-1.365-2.231-1.79c-0.136-0.12-0.305-0.288-0.456-0.434l17.568-44.857l1.519-3.875l1.093-2.788l0.008,0.003
			l0.801,1.484l1.088,2.014l30.176,55.841l32.067-59.34l44.569,113.853H196.13L175.581,851.8l-28.32,52.422L118.934,851.8
			l-0.026,0.058l-0.243,0.632v-0.009l-20.311,51.917H70.6l22.779-58.188c0.071,0.017,0.147,0.026,0.222,0.038
			c-1.085-0.194-2.103-0.412-2.985-0.621c-0.009,0-0.017,0-0.026,0c0.011,0,0.02,0.005,0.021,0.01
			c-0.031-0.01-0.276-0.038-0.673-0.1c0,0,0,0-0.01,0l-25.067,62.759h36.091l18.503-47.272l27.749,50.859L174.979,861.023z
			 M92.408,839.35c-1.144-1.406-1.979-2.719-2.556-3.749c-0.73-1.311-1.048-2.168-1.048-2.168c-0.259-0.861-0.482-1.857-0.641-3.001
			c-1.332-9.697,7.725-20.221,19.653-29.633L92.408,839.35z"/>
		<path fill="#8A8D8F" d="M142.436,767.68c26.293-12.462,44.153-21.679,44.157-21.68l-6.576,2.514
			c-0.648,0.301-14.527,6.632-16.966,7.701c-14.389,6.319-33.697,14.868-41.713,18.959c-1.602,0.814-4.194,2.231-7.068,3.909
			c-27.345,17.18-47.396,36.421-37.208,58.537c-11.674-13.548-1.438-33.439,10.902-47.186c8.244-9.198,12.144-13,16.348-19.829
			c3.298-5.348,5.415-10.963,5.229-16.614c0.215,0.1-4.399-2.23-4.399-2.23c0.559,1.814-0.639,12.834-7.742,22.542
			c-7.774,10.604-34.594,34.042-26.46,56.116c4.508,12.22,16.082,14.658,18.995,15.118c0.225,0.016,0.441,0.075,0.653,0.09
			C65.348,832.618,71.955,800.375,142.436,767.68z"/>
		<path fill="#8A8D8F" d="M120.336,791.883c12.628-8.215,25.599-14.758,32.024-17.849l-2.535-1.196
			c-11.189,5.606-20.142,10.552-27.508,15.11c-1.051,0.651-2.071,1.294-3.061,1.932L120.336,791.883z"/>
		<path fill="#2177BD" d="M122.318,787.949c7.366-4.558,16.317-9.504,27.503-15.11l-3.844-1.803l-1.818-0.859
			c-7.484,3.742-18.011,9.487-27.291,15.273l2.391,4.431C120.247,789.242,121.268,788.6,122.318,787.949z"/>
		<path fill="#2177BD" d="M101.567,846.54c-0.322-0.136-0.786-0.339-1.029-0.444c-0.193-0.085-0.39-0.175-0.58-0.268
			c-0.094-0.036-0.177-0.077-0.267-0.118c-3.584-1.711-7.36-4.325-10.083-7.51c-0.737-0.866-1.397-1.771-1.957-2.716
			c-3.679-6.912-2.434-16.743,11.359-29.972c3.032-2.905,6.439-5.816,10.45-8.838l3.49-8.721c-1.242,0.807-2.451,1.615-3.602,2.408
			c-35.071,24.126-32.401,40.387-22.475,48.716c1.736,1.485,3.729,2.864,5.735,3.833c2.76,1.335,5.378,2.577,8.17,3.447
			c0.322,0.096,0.639,0.175,0.957,0.283c0.028,0.002,0.108,0.028,0.164,0.049l0.005-0.002
			C101.869,846.668,101.735,846.609,101.567,846.54z"/>
		<path fill="#F26822" d="M87.964,790.434c-12.341,13.747-22.576,33.638-10.902,47.186c-10.187-22.116,9.863-41.356,37.208-58.537
			c2.874-1.678,5.469-3.094,7.068-3.909c8.016-4.092,27.324-12.641,41.713-18.959c2.438-1.069,16.317-7.4,16.966-7.701
			c0.016-0.006,0.029-0.013,0.029-0.013s-29.268,11.12-35.091,13.398c-0.078,0.027,0,0-0.026,0.008
			c-2.766,0.678-6.676,1.375-9.468,1.267c-2.217-0.065-5.979-0.53-10.248-2.322c-1.28-0.541-8.748-3.621-15.038-6.564
			c-0.209-0.099-0.42-0.195-0.634-0.295c0.186,5.65-1.932,11.266-5.229,16.614C100.106,777.434,96.208,781.236,87.964,790.434z"/>
		<polygon fill="#FFD107" points="115.475,795.151 116.14,806.195 116.257,808.041 116.257,808.035 146.14,862.876 147.305,865.061 
			148.488,862.876 178.182,808.141 178.184,808.155 179.325,790.546 147.258,849.886 117.081,794.044 115.993,792.03 
			115.193,790.546 115.31,792.492 		"/>
		<polygon fill="#2177BD" points="81.63,896.525 81.628,896.528 92.679,896.525 		"/>
		<polygon fill="#2177BD" points="148.491,884.18 147.253,886.469 146.021,884.186 147.253,886.472 		"/>
		<polygon fill="#2177BD" points="213.616,898.448 213.677,898.593 200.074,898.593 176.423,838.108 147.258,892.067 
			118.094,838.108 94.411,898.648 80.804,898.648 81.082,897.93 80.8,898.648 70.6,904.398 98.354,904.398 118.664,852.482 
			118.907,851.86 118.933,851.803 147.261,904.225 175.579,851.803 196.128,904.398 223.893,904.398 213.677,898.593 		"/>
		<polygon fill="#2177BD" points="193.288,846.687 212.315,895.226 212.759,896.366 213.616,898.448 		"/>
		<polygon fill="#8A8D8F" points="94.411,898.648 118.094,838.108 147.258,892.067 176.423,838.108 200.074,898.593 
			213.677,898.593 213.616,898.448 212.759,896.366 212.759,896.366 201.845,896.366 176.74,831.946 148.491,884.18 
			147.253,886.472 146.021,884.186 117.856,832.093 92.679,896.525 81.628,896.528 81.082,897.93 80.804,898.648 		"/>
		<path fill="#F26822" d="M116.14,806.195l-0.675-11.04l-0.16-2.66l-0.118-1.954l-1.095,2.788l-1.518,3.875l-17.568,44.858
			c0.151,0.146,0.32,0.313,0.457,0.435c0.468,0.423,1.236,1.099,2.23,1.789c0.097,0.07,0.208,0.14,0.312,0.208
			c0.019,0.014,0.042,0.028,0.064,0.04c0.059,0.043,0.124,0.087,0.19,0.13c0.166,0.11,0.334,0.219,0.504,0.327
			c0.228,0.14,0.461,0.283,0.691,0.424c0.029,0.013,0.057,0.028,0.081,0.044c0.108,0.062,0.218,0.123,0.327,0.183
			c0.072,0.043,0.146,0.078,0.218,0.119c0.212,0.118,0.421,0.234,0.64,0.347l15.533-38.068L116.14,806.195z"/>
		<path fill="#F26822" d="M70.6,904.398l10.2-5.75l0.282-0.719l0.546-1.401l0.002-0.002h-0.002l0.014-0.021l18.799-49.703
			c0.006,0,0.009-0.005,0.009-0.005c-0.17,0.008-0.342,0.016-0.513,0.018c-0.135,0.004-0.266,0.004-0.4,0.004
			c-2.062-0.011-4.102-0.282-5.936-0.571c-0.074-0.012-0.15-0.021-0.222-0.038L70.6,904.398z"/>
		<polygon fill="#F26822" points="193.288,846.687 213.616,898.448 213.677,898.593 223.893,904.398 179.325,790.546 
			178.184,808.155 		"/>
		<path fill="#010101" d="M81.642,896.505l-0.014,0.021h0.002h11.051l25.178-64.434l28.163,52.094l1.232,2.282l1.239-2.288
			l28.247-52.234l25.104,64.42h10.915l0,0l-0.444-1.14l-19.026-48.539l-15.104-38.531l-0.004-0.014l-29.692,54.735l-1.184,2.185
			l-1.166-2.185l-29.883-54.841v0.005l-15.533,38.068l0.002-0.001c0.35,0.18,0.839,0.421,1.197,0.574
			c-0.017-0.005-0.025-0.007-0.03-0.005c-0.044-0.02-0.173-0.073-0.324-0.137c0.167,0.07,0.301,0.129,0.338,0.147l-0.003,0.001
			h-0.002c-0.096,0-0.951,0.089-1.451,0.109c0,0-0.003,0.005-0.009,0.005L81.642,896.505z"/>
		<rect x="107.801" y="920.491" fill="#010101" width="5.054" height="25.31"/>
		<polygon fill="#010101" points="192.535,933.511 191.918,934.651 191.292,933.511 184.059,920.119 173.911,946 179.298,946 
			184.235,933.398 184.783,931.991 185.507,933.32 191.918,945.182 198.326,933.32 199.05,931.991 199.602,933.398 204.522,946 
			209.899,946 199.769,920.119 		"/>
		<path fill="#010101" d="M143.464,920.491l-10.174,25.31h5.396l2.401-5.902h9.988l2.411,5.902h5.39l-10.169-25.31H143.464z
			 M143.126,934.838l3.088-7.074l2.827,7.074H143.126z"/>
		<rect x="229.224" y="919.945" fill="#010101" width="5.058" height="25.866"/>
		<polygon fill="#010101" points="70.61,933.511 70.001,934.651 69.378,933.511 62.138,920.119 52,946 57.379,946 62.307,933.398 
			62.864,931.991 63.582,933.32 70.001,945.182 76.403,933.32 77.124,931.991 77.674,933.398 82.597,946 87.975,946 77.85,920.119 
					"/>
	</g>
</g>
<g id="svg12082">
</g>
<g id="svg31568">
</g>
<g id="CLEVELAND_INDIANS">
</g>
<g id="svg2562">
</g>
</svg>
