<?xml version="1.0" encoding="utf-8"?>
<!-- Generator: Adobe Illustrator 14.0.0, SVG Export Plug-In . SVG Version: 6.00 Build 43363)  -->
<!DOCTYPE svg PUBLIC "-//W3C//DTD SVG 1.1//EN" "http://www.w3.org/Graphics/SVG/1.1/DTD/svg11.dtd">
<svg version="1.1" xmlns="http://www.w3.org/2000/svg" xmlns:xlink="http://www.w3.org/1999/xlink" x="0px" y="0px" width="200px"
	 height="200px" viewBox="44 746 200 200" enable-background="new 44 746 200 200" xml:space="preserve">
<g id="Layer_1">
	<g>
		<polygon fill="#FFFFFF" points="244,862.821 244,862.821 244,862.821 		"/>
		<path fill="#09152F" d="M87.932,849.99c0-14.922,5.858-28.869,16.318-39.33c10.462-10.6,24.548-16.318,39.332-16.318
			c14.923,0,28.87,5.718,39.47,16.318c10.46,10.461,16.319,24.408,16.319,39.33c0,30.683-24.965,55.65-55.789,55.65
			c-14.783,0-28.869-5.719-39.33-16.319C93.79,878.863,87.932,864.916,87.932,849.99L87.932,849.99z"/>
		<path fill="#FFFFFF" d="M89.327,849.99c0-14.505,5.578-28.172,15.9-38.354c10.32-10.321,23.85-15.899,38.354-15.899
			s28.173,5.578,38.494,15.899c10.18,10.182,15.899,23.85,15.899,38.354c0,29.987-24.408,54.254-54.394,54.254
			c-14.505,0-28.034-5.578-38.354-15.898C94.905,878.164,89.327,864.495,89.327,849.99L89.327,849.99z"/>
		<path fill="#9F1D20" d="M143.582,812.752c-20.502,0-37.238,16.738-37.238,37.239c0,9.903,3.905,19.388,10.877,26.36
			c7.113,6.975,16.458,10.881,26.361,10.881c10.042,0,19.386-3.906,26.358-10.881c7.115-6.973,10.88-16.457,10.88-26.36
			c0-9.901-3.765-19.247-10.88-26.36C162.968,816.657,153.624,812.752,143.582,812.752L143.582,812.752z"/>
		<path fill="#FFFFFF" d="M143.582,814.147c-19.805,0-35.845,16.039-35.845,35.843c0,19.806,16.04,35.844,35.845,35.844
			c19.804,0,35.982-16.038,35.982-35.844C179.564,830.188,163.386,814.147,143.582,814.147L143.582,814.147z"/>
		<polygon fill="#9F1D20" points="120.987,822.237 121.962,823.353 120.291,827.536 119.454,826.42 		"/>
		<path fill="#9F1D20" d="M116.034,827.054l4.116-0.772l-0.977-1.115l-1.762,0.331C116.938,826.001,116.479,826.521,116.034,827.054
			L116.034,827.054z"/>
		<polygon fill="#9F1D20" points="123.777,825.305 124.474,826.561 122.522,830.605 121.686,829.35 		"/>
		<polygon fill="#9F1D20" points="117.082,828.651 117.919,829.768 122.382,829.35 121.545,828.234 		"/>
		<polygon fill="#9F1D20" points="126.148,828.792 126.846,830.188 124.474,833.953 123.777,832.697 		"/>
		<polygon fill="#9F1D20" points="119.175,831.303 120.011,832.557 124.474,832.697 123.637,831.441 		"/>
		<polygon fill="#9F1D20" points="128.1,832.557 128.658,833.953 125.868,837.44 125.449,836.044 		"/>
		<polygon fill="#9F1D20" points="120.987,834.371 121.545,835.625 126.148,836.184 125.449,834.789 		"/>
		<polygon fill="#8F3326" points="129.774,836.462 130.192,837.857 127.123,841.065 126.705,839.67 		"/>
		<polygon fill="#9F1D20" points="122.522,837.44 122.94,838.834 127.403,839.81 126.846,838.415 		"/>
		<polygon fill="#8F3326" points="131.029,840.507 131.309,841.901 127.821,844.831 127.543,843.297 		"/>
		<polygon fill="#8F3326" points="123.637,840.786 123.917,842.182 128.239,843.576 127.961,842.182 		"/>
		<polygon fill="#8F3326" points="131.866,844.553 131.866,846.086 128.239,848.596 128.1,847.062 		"/>
		<polygon fill="#8F3326" points="124.474,844.133 124.613,845.528 128.658,847.342 128.519,845.946 		"/>
		<polygon fill="#8F3326" points="132.145,848.735 132.145,850.271 128.1,852.361 128.239,850.968 		"/>
		<polygon fill="#8F3326" points="124.892,847.48 124.892,849.014 128.798,851.245 128.798,849.852 		"/>
		<polygon fill="#8F3326" points="132.145,853.06 131.866,854.455 127.684,856.126 127.961,854.732 		"/>
		<polygon fill="#8F3326" points="125.031,850.968 124.892,852.501 128.519,855.151 128.658,853.617 		"/>
		<polygon fill="#8F3326" points="131.586,857.244 131.17,858.638 126.846,859.895 127.263,858.498 		"/>
		<polygon fill="#8F3326" points="124.752,854.455 124.474,855.849 127.821,858.916 128.1,857.523 		"/>
		<polygon fill="#8F3326" points="130.61,861.287 130.192,862.685 125.729,863.519 126.287,862.125 		"/>
		<polygon fill="#8F3326" points="124.056,857.939 123.637,859.336 126.705,862.685 127.123,861.287 		"/>
		<polygon fill="#9F1D20" points="129.354,865.332 128.658,866.588 124.196,867.007 124.752,865.61 		"/>
		<polygon fill="#9F1D20" points="123.218,861.147 122.522,862.544 125.172,866.168 125.729,864.916 		"/>
		<polygon fill="#9F1D20" points="127.543,869.098 126.705,870.354 122.242,870.213 123.08,868.958 		"/>
		<polygon fill="#9F1D20" points="121.824,864.356 121.126,865.75 123.358,869.656 124.056,868.262 		"/>
		<polygon fill="#9F1D20" points="125.312,872.725 124.474,873.841 120.011,873.283 120.848,872.168 		"/>
		<polygon fill="#9F1D20" points="120.15,867.424 119.313,868.68 121.126,872.725 121.962,871.609 		"/>
		<path fill="#9F1D20" d="M122.8,876.072l-0.975,1.116l-2.258-0.583c-0.455-0.411-0.9-0.833-1.334-1.267l0.243-0.244L122.8,876.072
			L122.8,876.072z"/>
		<path fill="#9F1D20" d="M118.199,870.354l-0.979,1.115l1.358,4.208c0.024,0.024,0.049,0.051,0.074,0.073l0.939-1.073
			L118.199,870.354L118.199,870.354z"/>
		<path fill="#9F1D20" d="M166.249,877.809l-0.909-1.039l1.533-4.324l0.976,1.115l-1.469,4.141
			C166.338,877.737,166.291,877.772,166.249,877.809L166.249,877.809z"/>
		<path fill="#9F1D20" d="M171.201,872.94l-4.05,0.761l0.976,1.115l1.685-0.315C170.292,873.994,170.754,873.474,171.201,872.94
			L171.201,872.94z"/>
		<polygon fill="#9F1D20" points="163.524,874.677 162.688,873.421 164.642,869.379 165.478,870.631 		"/>
		<polygon fill="#9F1D20" points="170.221,871.469 169.245,870.213 164.781,870.631 165.617,871.888 		"/>
		<polygon fill="#8F3326" points="161.154,871.189 160.456,869.936 162.828,866.03 163.524,867.424 		"/>
		<polygon fill="#8F3326" points="168.129,868.68 167.291,867.424 162.828,867.285 163.524,868.68 		"/>
		<polygon fill="#8F3326" points="159.062,867.424 158.505,866.168 161.293,862.544 161.853,863.937 		"/>
		<polygon fill="#8F3326" points="166.314,865.75 165.617,864.356 161.154,863.799 161.853,865.192 		"/>
		<polygon fill="#8F3326" points="157.529,863.659 157.111,862.125 160.179,858.916 160.597,860.312 		"/>
		<polygon fill="#8F3326" points="164.781,862.544 164.362,861.147 159.9,860.173 160.318,861.567 		"/>
		<polygon fill="#8F3326" points="156.273,859.613 155.995,858.08 159.481,855.151 159.621,856.687 		"/>
		<polygon fill="#8F3326" points="163.665,859.336 163.246,857.801 159.062,856.406 159.341,857.939 		"/>
		<polygon fill="#8F3326" points="155.436,855.432 155.298,853.895 159.062,851.385 159.201,852.92 		"/>
		<polygon fill="#8F3326" points="162.828,855.988 162.688,854.455 158.505,852.641 158.645,854.034 		"/>
		<polygon fill="#8F3326" points="155.019,851.245 155.158,849.712 159.062,847.62 159.062,849.153 		"/>
		<polygon fill="#8F3326" points="162.41,852.501 162.271,850.968 158.505,848.735 158.505,850.271 		"/>
		<polygon fill="#8F3326" points="155.158,847.062 155.436,845.528 159.481,843.854 159.341,845.248 		"/>
		<polygon fill="#8F3326" points="162.271,849.014 162.41,847.48 158.785,844.831 158.645,846.364 		"/>
		<polygon fill="#8F3326" points="155.716,842.878 155.995,841.343 160.318,840.09 160.038,841.623 		"/>
		<polygon fill="#8F3326" points="162.55,845.528 162.828,844.133 159.481,841.065 159.201,842.459 		"/>
		<polygon fill="#8F3326" points="156.551,838.693 157.111,837.3 161.572,836.462 161.017,837.857 		"/>
		<polygon fill="#8F3326" points="163.108,842.182 163.524,840.786 160.597,837.44 160.179,838.834 		"/>
		<polygon fill="#8F3326" points="157.947,834.789 158.645,833.394 163.108,833.115 162.41,834.371 		"/>
		<polygon fill="#8F3326" points="164.083,838.834 164.642,837.44 161.992,833.812 161.434,835.209 		"/>
		<polygon fill="#9F1D20" points="159.761,830.884 160.597,829.628 165.06,829.768 164.224,831.022 		"/>
		<polygon fill="#9F1D20" points="165.478,835.625 166.175,834.371 163.943,830.466 163.246,831.719 		"/>
		<polygon fill="#9F1D20" points="161.853,827.258 162.828,826.142 167.291,826.699 166.314,827.816 		"/>
		<polygon fill="#9F1D20" points="167.014,832.557 167.849,831.303 166.035,827.258 165.199,828.373 		"/>
		<path fill="#9F1D20" d="M164.362,823.91l1.115-1.116l2.146,0.554c0.482,0.431,0.953,0.873,1.409,1.329l-0.209,0.209
			L164.362,823.91L164.362,823.91z"/>
		<polygon fill="#9F1D20" points="168.966,829.628 169.94,828.513 168.546,824.329 167.571,825.445 		"/>
		<path fill="#09152F" d="M90.723,849.99c0-29.149,23.71-52.858,52.859-52.858c29.288,0,52.999,23.709,52.999,52.858
			c0,29.289-23.711,52.998-52.999,52.998C114.433,902.99,90.723,879.28,90.723,849.99L90.723,849.99z M143.582,811.358
			c-21.34,0-38.633,17.293-38.633,38.632s17.293,38.634,38.633,38.634c21.338,0,38.632-17.295,38.632-38.634
			S164.92,811.358,143.582,811.358L143.582,811.358z"/>
		<path fill="#AB823A" d="M109.69,874.399c-3.905-5.44-6.833-11.578-7.81-18.133c1.115,6.975,3.487,13.669,7.671,19.248
			L109.69,874.399L109.69,874.399z"/>
		<path fill="#AB823A" d="M104.809,879.28c-4.742-6.418-8.369-13.948-9.624-21.897c1.255,7.81,4.044,15.342,8.647,21.758
			L104.809,879.28L104.809,879.28z"/>
		<path fill="#AB823A" d="M103.972,872.445l0.698,0.417c-3.766-6.414-6.417-13.807-6.694-21.337c0.277,7.67,2.231,15.2,6.137,21.896
			L103.972,872.445L103.972,872.445z"/>
		<polygon fill="#AB823A" points="104.67,873.561 105.365,879.28 109.132,879.697 		"/>
		<polygon fill="#AB823A" points="109.132,879.697 109.551,875.933 104.67,873.561 		"/>
		<path fill="#AB823A" d="M117.639,891.971c1.396,0.976,2.93,1.674,4.323,2.512l4.465-1.813c-1.396-0.558-2.79-1.116-4.047-1.813
			L117.639,891.971L117.639,891.971z"/>
		<path fill="#AB823A" d="M127.403,893.088l-4.463,1.814c1.533,0.695,3.068,1.256,4.603,1.814l4.184-2.232
			c-0.278,0-0.418-0.14-0.557-0.14C129.912,893.925,128.658,893.645,127.403,893.088L127.403,893.088z"/>
		<path fill="#AB823A" d="M108.295,884.44c1.116,1.255,2.372,2.369,3.627,3.486l4.603-0.694c-1.114-0.838-2.23-1.813-3.347-2.79
			h-4.883V884.44z"/>
		<path fill="#AB823A" d="M112.758,888.484c1.256,1.115,2.652,2.094,4.046,2.929l4.462-1.114c-1.255-0.697-2.511-1.534-3.767-2.372
			L112.758,888.484L112.758,888.484z"/>
		<path fill="#AB823A" d="M128.519,897.132c1.674,0.418,3.208,0.836,4.882,1.257l3.765-2.791c-1.533-0.139-2.93-0.418-4.323-0.835
			L128.519,897.132L128.519,897.132z"/>
		<path fill="#AB823A" d="M104.39,879.978c0.279,0.277,0.419,0.558,0.698,0.836c0.836,1.115,1.674,1.953,2.51,2.93h4.742
			c-1.115-1.116-2.231-2.092-3.208-3.208L104.39,879.978L104.39,879.978z"/>
		<path fill="#AB823A" d="M134.376,898.525c1.675,0.42,3.208,0.559,4.883,0.698l3.486-3.067c-1.535,0-2.929-0.14-4.463-0.419
			L134.376,898.525L134.376,898.525z"/>
		<path fill="#AB823A" d="M125.031,887.508c-1.254-0.698-2.369-1.256-3.486-1.951l1.255,4.601c1.257,0.698,2.652,1.396,4.046,1.954
			L125.031,887.508L125.031,887.508z"/>
		<path fill="#AB823A" d="M132.006,893.785l-2.371-4.323c-1.114-0.42-2.369-0.978-3.626-1.536l1.812,4.463
			c1.116,0.418,2.371,0.838,3.487,1.256C131.586,893.645,131.727,893.785,132.006,893.785L132.006,893.785z"/>
		<path fill="#AB823A" d="M116.523,881.789c-0.976-0.835-1.952-1.674-2.79-2.648v4.743c1.116,0.975,2.232,1.951,3.487,2.788
			L116.523,881.789L116.523,881.789z"/>
		<path fill="#AB823A" d="M120.568,884.858c-1.114-0.698-2.093-1.396-3.207-2.231l0.698,4.741c1.254,0.838,2.509,1.535,3.765,2.371
			L120.568,884.858L120.568,884.858z"/>
		<path fill="#AB823A" d="M134.516,890.856c-1.255-0.278-2.51-0.558-3.766-0.975l2.371,4.183c1.395,0.28,2.789,0.698,4.323,0.838
			L134.516,890.856L134.516,890.856z"/>
		<path fill="#AB823A" d="M112.898,878.304c-0.698-0.698-1.256-1.396-1.814-2.231c-0.277-0.28-0.558-0.558-0.697-0.838l-0.557,4.743
			c0.977,1.116,1.952,2.231,3.068,3.207V878.304L112.898,878.304z"/>
		<path fill="#AB823A" d="M139.537,891.693c-1.255-0.141-2.51-0.28-3.905-0.557l2.789,3.905c1.533,0.138,3.067,0.277,4.463,0.277
			L139.537,891.693L139.537,891.693z"/>
		<path fill="#AB823A" d="M177.613,874.399c3.905-5.44,6.694-11.578,7.669-18.133c-0.975,6.975-3.346,13.669-7.531,19.248
			L177.613,874.399L177.613,874.399z"/>
		<path fill="#AB823A" d="M182.354,879.28c4.882-6.418,8.509-13.948,9.625-21.897c-1.116,7.81-3.906,15.342-8.509,21.758
			L182.354,879.28L182.354,879.28z"/>
		<path fill="#AB823A" d="M183.331,872.445l-0.837,0.417c3.905-6.414,6.417-13.807,6.694-21.337
			c-0.277,7.67-2.091,15.2-5.996,21.896L183.331,872.445L183.331,872.445z"/>
		<polygon fill="#AB823A" points="182.494,873.561 181.937,879.28 178.17,879.697 		"/>
		<polygon fill="#AB823A" points="178.17,879.697 177.751,875.933 182.494,873.561 		"/>
		<path fill="#AB823A" d="M169.522,891.971c-1.394,0.976-2.788,1.674-4.323,2.512l-4.323-1.813c1.396-0.558,2.789-1.116,4.044-1.813
			L169.522,891.971L169.522,891.971z"/>
		<path fill="#AB823A" d="M159.761,893.088l4.602,1.814c-1.534,0.695-3.068,1.256-4.602,1.814l-4.186-2.232
			c0.141,0,0.42-0.14,0.558-0.14C157.389,893.925,158.645,893.645,159.761,893.088L159.761,893.088z"/>
		<path fill="#AB823A" d="M178.868,884.44c-1.115,1.255-2.371,2.369-3.486,3.486l-4.741-0.694c1.255-0.838,2.369-1.813,3.485-2.79
			h4.742V884.44z"/>
		<path fill="#AB823A" d="M174.544,888.484c-1.396,1.115-2.649,2.094-4.046,2.929l-4.601-1.114c1.394-0.697,2.648-1.534,3.766-2.372
			L174.544,888.484L174.544,888.484z"/>
		<path fill="#AB823A" d="M158.645,897.132c-1.534,0.418-3.069,0.836-4.743,1.257l-3.765-2.791c1.394-0.139,2.927-0.418,4.323-0.835
			L158.645,897.132L158.645,897.132z"/>
		<path fill="#AB823A" d="M182.912,879.978c-0.279,0.277-0.559,0.558-0.836,0.836c-0.698,1.115-1.536,1.953-2.371,2.93h-4.743
			c1.115-1.116,2.094-2.092,3.068-3.208L182.912,879.978L182.912,879.978z"/>
		<path fill="#AB823A" d="M152.926,898.525c-1.674,0.42-3.347,0.559-5.021,0.698l-3.348-3.067c1.394,0,2.93-0.14,4.323-0.419
			L152.926,898.525L152.926,898.525z"/>
		<path fill="#AB823A" d="M162.271,887.508c1.114-0.698,2.231-1.256,3.346-1.951l-1.114,4.601c-1.395,0.698-2.65,1.396-4.047,1.954
			L162.271,887.508L162.271,887.508z"/>
		<path fill="#AB823A" d="M155.158,893.785l2.371-4.323c1.256-0.42,2.509-0.978,3.627-1.536l-1.675,4.463
			c-1.257,0.418-2.37,0.838-3.486,1.256C155.716,893.645,155.436,893.785,155.158,893.785L155.158,893.785z"/>
		<path fill="#AB823A" d="M170.639,881.789c1.115-0.835,1.953-1.674,2.928-2.648v4.743c-1.114,0.975-2.37,1.951-3.486,2.788
			L170.639,881.789L170.639,881.789z"/>
		<path fill="#AB823A" d="M166.594,884.858c1.115-0.698,2.232-1.396,3.209-2.231l-0.558,4.741c-1.256,0.838-2.511,1.535-3.905,2.371
			L166.594,884.858L166.594,884.858z"/>
		<path fill="#AB823A" d="M152.647,890.856c1.257-0.278,2.511-0.558,3.766-0.975l-2.231,4.183c-1.395,0.28-2.927,0.698-4.323,0.838
			L152.647,890.856L152.647,890.856z"/>
		<path fill="#AB823A" d="M174.403,878.304c0.559-0.698,1.257-1.396,1.815-2.231c0.278-0.28,0.416-0.558,0.696-0.838l0.558,4.743
			c-0.976,1.116-2.091,2.231-3.207,3.207L174.403,878.304L174.403,878.304z"/>
		<path fill="#AB823A" d="M147.627,891.693c1.396-0.141,2.649-0.28,3.905-0.557l-2.789,3.905c-1.395,0.138-2.93,0.277-4.463,0.277
			L147.627,891.693L147.627,891.693z"/>
		<path fill="#09152F" d="M132.564,863.381c-2.372,1.114-4.743,2.369-6.975,3.904l-0.977,0.557l1.396,3.348l2.649,2.789l0.836-0.138
			c4.185-1.116,8.647-1.536,12.971-1.536c6.695,0,12.692,1.115,15.901,2.094l1.534,0.418l1.115-0.976
			c11.993-10.322,36.121-5.999,59.694-0.558c9.203,2.091,19.942,3.625,22.035-3.905c0.418-1.674,0.139-3.628-0.836-5.302
			c-0.42-0.695-0.978-1.394-1.675-1.951l-2.093-2.094c-1.115-1.254-2.649-2.231-4.463-3.067c-0.279-0.14-0.558-0.14-0.697-0.277
			c0,0-0.14,0-0.278-0.141c-0.558-1.535-1.674-3.486-2.372-4.881c0.837-0.14,1.674-0.56,2.372-1.256
			c1.115-0.976,1.674-2.231,1.674-3.487c0.14-1.812-0.559-3.346-1.814-4.601c-0.277-0.28-1.115-1.116-1.673-1.675
			c-1.256-1.395-3.348-2.511-5.857-2.929c-0.558,0-1.115-0.14-1.813-0.14c-1.952,0-4.045,0.557-5.719,1.813
			c-0.138-0.14-0.138-0.14-0.138-0.28c-0.141-0.14-1.813-1.673-2.094-1.951c-0.138-0.14-0.138-0.14-0.138-0.14
			c-0.141-0.141-0.28-0.28-0.419-0.28c-2.371-1.951-6.416-1.951-8.647-1.672c-0.28-0.42-0.418-0.697-0.698-0.838
			c-0.836-1.115-2.231-1.674-3.625-1.674c-0.14,0-0.42,0-0.558,0c-0.141,0-0.28,0-0.28,0c-0.138,0-0.277,0-0.417,0
			c-0.419,0.141-0.697,0.141-0.977,0.28c-0.138,0-0.278,0-0.278,0.138c-0.279,0-0.417,0-0.417,0.141
			c-1.116,0.419-2.094,1.115-2.79,2.091l0,0c-0.14,0.141-0.278,0.141-0.278,0.279c-1.258-1.257-3.348-2.65-6.974-3.068
			c-3.068-0.28-6.558,0.698-10.042,2.93c-0.141,0-0.419,0.277-0.419,0.277c-0.837,0.419-1.674,1.116-2.371,1.674
			c-0.418-0.698-0.836-1.394-1.256-1.951c-0.418-0.42-1.813-1.813-2.091-2.093c-0.141,0-0.141-0.14-0.28-0.14
			c-0.697-0.697-1.534-1.115-2.372-1.258c-0.138,0-0.277,0-0.416,0l-2.232-0.14c-9.345,0.28-16.736,1.118-26.918,2.093l-0.837,0.14
			l-0.558,1.534c-0.141,0.139-0.141,0.419-0.279,0.558c-1.114-0.698-2.511-1.114-3.904-1.255c-5.719-0.14-10.88,3.486-14.367,6.833
			l-1.394-1.534c-0.14-0.14-0.279-0.14-0.279-0.277c-0.14,0-0.278-0.141-0.278-0.141c-2.093-1.395-5.161-0.978-7.393,0
			c-0.836,0.278-1.953,0.836-3.067,1.396c-0.837-0.698-1.813-0.978-2.93-0.978c-0.558,0-1.256,0.141-1.813,0.419
			c-0.557-1.952-1.812-3.766-3.486-5.438l-1.953-1.954c-2.231-2.231-5.16-4.045-8.647-5.16c-0.418-0.141-0.697-0.278-0.697-0.278
			c-2.092-0.561-4.464-1.116-6.974-1.256c-0.279,0-0.696,0-0.837,0c-0.139,0-0.419,0-0.557,0
			c-19.248-0.833-26.641,7.812-27.199,15.343c0,0.698,0,1.396,0,2.092c0.278,2.231,1.116,4.186,2.37,5.719
			c0.14,0.279,0.42,0.419,0.558,0.698l1.954,1.954c0.417,0.417,0.835,0.695,1.395,1.115c-0.419,0-0.697,0.138-0.697,0.138
			c-0.28,0.141-0.558,0.141-0.697,0.141c-3.068,0.975-5.72,2.371-7.951,4.322l0,0C46.092,861.147,44,865.332,44,869.656
			c0,4.743,1.812,9.207,5.299,12.553l1.954,2.092c3.067,2.93,8.646,6.556,18.548,6.556c21.061,0,32.497-11.019,32.915-21.897
			c0-0.835,0-1.535,0-2.231c0.418,0.279,0.698,0.696,0.836,0.836c1.116,0.977,2.512,1.535,4.186,1.535
			c3.626,0.14,6.833-2.231,9.064-4.604c1.813,1.258,3.907,1.397,4.883,1.397C122.8,865.891,127.263,865.891,132.564,863.381
			L132.564,863.381z M66.454,870.493c-1.673,1.535-2.65,3.767-2.65,6.138c0,0.975,0.279,2.092,0.698,3.066
			c-0.558-0.14-0.976-0.277-1.396-0.277l0,0c-1.255-0.419-2.37-0.978-3.208-1.674c-1.115-1.396-1.674-3.347-1.674-5.301
			c0-5.021,4.045-9.064,9.064-9.064c1.813,0,3.487,0.418,4.883,1.255c0.418,0.837,0.559,1.534,0.559,2.371c0,0.278,0,0.557,0,0.835
			C70.36,867.842,68.127,868.819,66.454,870.493L66.454,870.493z M88.351,840.367c0,1.814-1.953,3.348-4.741,4.186l2.23-5.161
			l-2.092-1.951h0.14c1.534,0.277,2.93,0.695,4.185,1.533c0,0,0,0.141,0.14,0.141C88.351,839.529,88.351,839.949,88.351,840.367
			L88.351,840.367z M86.957,866.588c0,0.559,0,1.116-0.14,1.674c-0.837-2.789-2.372-5.44-4.463-7.673l-1.812-1.812
			c-0.141-0.14-0.279-0.279-0.419-0.417c1.813,0.556,3.347,1.395,4.743,2.509C86.26,862.544,86.957,864.636,86.957,866.588
			L86.957,866.588z"/>
		<path fill="#AB823A" d="M108.993,826.561h-0.141c0.141-0.419,0-0.559,0-0.559l-4.742-2.788l0,0l3.487,5.16l-6.275-0.698h-0.14
			l4.881,2.93c0,0,0.14,0,0.419-0.28l0.14,0.141l-1.395,2.231l-0.14-0.141c0.14-0.277,0.14-0.417,0-0.417l-5.997-3.627
			c-0.14-0.14-0.14-0.14-0.42,0.139h-0.138l2.092-3.347l0.14,0.141c-0.14,0.14-0.14,0.279,0,0.417c0.14,0,3.067,0.28,3.486,0.419
			c-0.977-1.395-1.812-2.789-1.953-2.928c-0.14-0.139-0.278,0-0.419,0.14l-0.14-0.14l2.093-3.347h0.14
			c-0.14,0.419-0.14,0.419,0,0.558l5.998,3.627c0,0,0.139,0,0.419-0.279l0.14,0.14L108.993,826.561L108.993,826.561z"/>
		<path fill="#AB823A" d="M112.618,821.958l-0.141-0.14c0.28-0.279,0.141-0.419,0.141-0.419l-5.021-4.882
			c-0.14-0.14-0.14-0.14-0.418,0.14l-0.141-0.14l2.092-2.231l0.14,0.14c-0.278,0.279-0.14,0.419-0.14,0.419l5.021,4.882
			c0.141,0.14,0.141,0.14,0.419-0.14l0.141,0.14L112.618,821.958L112.618,821.958z"/>
		<path fill="#AB823A" d="M118.199,814.566l4.183-2.929c0.141,0,0.141-0.14,0-0.419l0.141-0.139l1.533,2.231h-0.14
			c-0.279-0.14-0.279-0.279-0.419-0.14l-6.555,4.463v-0.14c0.278-0.278,0.278-0.418,0.14-0.559l-3.906-5.717
			c-0.14-0.14-0.14-0.14-0.558,0v-0.14l2.512-1.674l0.14,0.14c-0.28,0.14-0.28,0.279-0.28,0.419L118.199,814.566L118.199,814.566z"
			/>
		<path fill="#AB823A" d="M126.009,811.915v-0.278c0.14,0,0.14-0.14,0.14-0.279c0-0.139-4.323-5.719-4.463-5.998
			c-0.141-0.139-0.141-0.139-0.279-0.139v-0.14l2.65-0.836v0.14c-0.14,0.14-0.278,0.14-0.278,0.278
			c0.14,0.14,2.231,2.93,2.927,3.906l0,0c0-1.115-0.139-4.602-0.139-4.742c0-0.14-0.279-0.14-0.418-0.14v-0.14l3.347-1.115v0.14
			c0,0-0.141,0.14-0.141,0.279c0,0,2.231,3.068,2.651,3.906h0.139c-0.139-0.698-0.139-4.602-0.139-4.742
			c0-0.14-0.279-0.14-0.42-0.14v-0.14l2.372-0.838v0.14c-0.141,0-0.141,0.14-0.141,0.279c0,0.279,0,7.252,0,7.393
			c0.141,0.279,0.28,0.14,0.421,0.14v0.14l-2.93,1.115v-0.279c0.14,0,0.28-0.14,0.14-0.279c-0.14-0.418-1.813-2.789-2.928-4.463
			h-0.141c0.141,1.813,0.141,5.161,0.279,5.439c0,0.14,0.14,0.14,0.28,0.14l0.139,0.14L126.009,811.915L126.009,811.915z"/>
		<path fill="#AB823A" d="M140.095,806.616c-0.418,1.115-0.418,1.255-0.418,1.395s0,0.14,0.277,0.14v0.14l-2.649,0.14v-0.14
			c0.14-0.14,0.278-0.14,0.418-0.418c0-0.279,2.371-6.974,2.371-7.112c0-0.139-0.141-0.14-0.279-0.14v-0.14l3.905-0.14v0.14
			c-0.28,0-0.28,0.14-0.28,0.279c0,0.138,1.954,4.463,2.93,6.694c0.14,0.419,0.28,0.419,0.418,0.419v0.14l-2.928,0.14v-0.14
			c0.278,0,0.278-0.14,0.278-0.14c0-0.14-0.418-1.255-0.558-1.395L140.095,806.616L140.095,806.616z M140.373,805.36h2.79
			l-1.535-3.487L140.373,805.36L140.373,805.36z"/>
		<path fill="#AB823A" d="M156.412,802.431c0-0.14,0-0.279-0.417-0.279l0.138-0.279l2.93,0.698v0.14
			c-0.418,0-0.418,0.14-0.418,0.279l-0.978,3.906c-0.556,2.51-2.509,2.929-4.741,2.51c-2.231-0.557-3.905-1.812-3.207-4.323
			l0.836-3.906c0-0.14,0-0.279-0.417-0.418l0.139-0.14l2.93,0.697v0.139c-0.419,0-0.419,0-0.419,0.14l-0.977,3.906
			c-0.278,1.115,0.279,1.674,1.535,1.953c1.115,0.279,1.953,0,2.092-1.115L156.412,802.431L156.412,802.431z"/>
		<path fill="#AB823A" d="M165.06,814.147l0.14-0.14c0.141,0,0.278,0.14,0.278-0.14c0.14-0.14-0.278-3.347-0.278-3.766l-1.813,0.557
			l-0.976,1.534c0,0.14,0,0.14,0.277,0.419v0.14l-2.787-1.534l0.138-0.14c0.28,0.14,0.418,0.14,0.418,0l3.349-6.137
			c0.139-0.14,0.139-0.14-0.14-0.419v-0.137l2.789,1.534l-0.14,0.14c-0.417-0.14-0.417-0.14-0.557,0l-1.256,2.37h0.139
			c1.534-0.419,3.767-0.836,3.905-0.976c0-0.14,0-0.279-0.139-0.279v-0.14l3.347,1.813v0.14c-0.419-0.14-0.558-0.14-0.977,0
			l-3.347,0.697l0.418,5.439c0.141,0.279,0.141,0.419,0.28,0.419v0.14L165.06,814.147L165.06,814.147z"/>
		<path fill="#AB823A" d="M175.938,819.029l-0.141-0.14c0-0.139,0.141-0.278-0.139-0.557l-2.093-1.953l-0.837,1.115l3.487,3.208
			c0.14,0.139,0.14,0.139,0.418-0.14l0.141,0.14l-1.813,1.952v-0.14c0.14-0.279,0.14-0.279,0-0.419l-5.439-5.161l0.138-0.139
			c0.28,0.279,0.42,0.279,0.42,0.139l4.741-5.021c0.141-0.14,0.141-0.279-0.14-0.557l0.14-0.14l5.438,5.16
			c0.141,0.14,0.279,0,0.559-0.139l0.14,0.139l-1.813,1.813l-0.14-0.14c0.14-0.279,0.279-0.279,0.14-0.419l-3.486-3.347
			l-0.837,0.976l1.954,1.953c0.277,0.14,0.418,0.14,0.558,0l0.138,0.14L175.938,819.029L175.938,819.029z"/>
		<path fill="#AB823A" d="M182.494,827.816l-0.141-0.141c0.141-0.14,0.279-0.277,0.141-0.558l-1.535-2.371l-1.257,0.838l2.651,4.045
			c0.139,0.14,0.139,0.14,0.558,0v0.14l-2.093,1.396l-0.139-0.141c0.139-0.279,0.278-0.279,0.139-0.419l-4.046-6.275l0.141-0.141
			c0.277,0.279,0.418,0.279,0.418,0.279l5.857-3.766c0.139-0.14,0.279-0.279,0-0.558l0.279-0.14l3.905,6.276
			c0.139,0.141,0.278,0.141,0.558,0l0.139,0.141l-2.231,1.395l-0.139-0.141c0.279-0.14,0.279-0.277,0.279-0.418l-2.651-4.044
			l-0.976,0.697l1.396,2.37c0.277,0.28,0.417,0.28,0.558,0.141l0.138,0.14L182.494,827.816L182.494,827.816z"/>
		<path fill="#B68F64" d="M168.686,833.115L168.686,833.115L168.686,833.115z"/>
		<path fill="#AB823A" d="M240.653,864.775c-0.279-0.558-0.696-1.114-1.395-1.675c-0.28-0.416-1.675-1.813-2.092-2.091
			c-1.115-1.256-2.789-2.372-5.441-3.347c-0.695-2.092-2.231-4.464-3.066-6.138c-0.279-0.42-0.559-0.837-0.836-1.395
			c0.418,0.14,0.836,0.278,1.256,0.278c0.976,0,1.952-0.278,2.789-0.976c0.695-0.698,1.114-1.675,1.114-2.651
			c0.14-1.395-0.419-2.51-1.395-3.486c-0.278-0.419-1.674-1.675-1.953-1.953c-1.256-1.394-3.627-2.231-6.416-2.371
			c-2.231-0.14-4.463,0.838-5.998,2.512c-0.278-0.558-0.558-0.977-0.976-1.396c0-0.141-1.674-1.674-1.952-1.953
			c-0.141-0.14-0.279-0.279-0.419-0.419c-2.371-1.812-6.555-1.116-8.369-0.836c-0.14-0.14-0.696-0.28-0.835-0.42
			c-0.141-0.418,0-0.975-0.279-1.254c-0.697-0.838-1.674-1.256-2.65-1.256c-2.092-0.14-3.905,0.836-5.159,2.649
			c-0.28,0.418-0.42,1.674-0.558,2.092c-0.279-0.14-0.838-0.558-0.977-0.697c-0.975-1.256-2.371-3.766-6.416-4.185
			s-9.066,1.812-13.39,5.857c0,0.141-0.14,0.278-0.279,0.278c0-0.138,0-0.138,0-0.278c-0.139-1.534-0.559-2.649-1.255-3.347
			c-0.419-0.419-1.815-1.814-2.093-2.094c-0.837-0.696-1.674-1.115-2.649-1.115c0,0-0.141,0-0.279,0
			c-0.557,0-0.977,0.141-1.395,0.419l0.138-0.419c-9.204,0.419-17.711,1.115-26.916,2.093l-0.279,0.836
			c-0.977,2.231,0.419,3.069,1.114,3.487l-0.277,0.557c-0.279-0.419-1.813-1.812-2.231-2.23c-0.977-0.976-2.372-1.533-4.184-1.674
			c-5.16-0.14-10.321,3.208-14.227,7.393c-0.138-0.14-0.138-0.278-0.278-0.419c-0.14-0.14-1.675-1.675-2.091-2.091
			c-0.141-0.141-0.28-0.279-0.421-0.279c-1.533-1.116-4.183-0.698-5.996,0.14c-0.976,0.418-2.511,1.116-3.766,1.812
			c-0.697-0.837-1.674-1.254-2.789-1.254c-0.837,0-1.813,0.417-2.79,1.114c-0.278-2.231-1.396-4.602-3.487-6.555
			c-0.277-0.419-1.533-1.673-1.951-1.952c-3.348-3.487-9.206-6.137-16.877-6.415c-18.131-0.561-25.243,7.253-25.662,14.225
			c-0.278,2.929,0.697,5.578,2.51,7.393c0.279,0.278,1.675,1.534,1.953,1.952c1.115,0.977,2.371,1.674,3.905,1.813
			c0,0,0.14,0,0.279,0l-0.42,0.978c-4.463,0.559-8.646,2.232-11.854,4.882c-3.487,2.929-5.3,6.694-5.3,10.74
			c0,4.464,1.674,8.51,4.883,11.576c0.278,0.42,1.533,1.675,1.952,2.094c2.789,2.789,8.229,6.138,17.573,6.138
			c20.223,0,31.242-10.322,31.52-20.642c0.141-2.095-0.14-4.047-0.558-5.859c0.14-0.277,0.42-0.558,0.558-0.836
			c0.141,0.559,0.28,0.977,0.42,1.394c0.14,0.421,0.418,0.698,0.697,0.977c0.419,0.279,1.675,1.813,2.092,2.094
			c0.697,0.558,1.675,1.115,3.208,1.115c3.626,0.138,6.974-2.789,9.065-5.161c1.534,1.813,3.766,1.952,5.021,1.952
			c1.394,0.14,8.508,0,16.317-6.555c0.279,0.279,1.674,1.674,1.813,1.813c0.558,0.558,1.395,0.976,2.37,1.256
			c-1.674,0.558-3.207,1.115-4.742,1.675c-4.184,1.533-7.949,3.626-11.297,5.716l0.836,2.094l1.954,1.951
			c4.463-0.975,9.064-1.534,13.389-1.534c6.974,0,13.111,1.116,16.319,2.092l0.696,0.28l0.557-0.558
			c12.554-10.74,37.1-6.277,61.089-0.697c12.692,2.929,18.969,1.951,20.363-3.069C241.768,867.704,241.49,866.168,240.653,864.775
			L240.653,864.775z M172.452,856.964c0.14,0.141,1.395,0.836,1.534,1.116c-1.952-0.141-5.439-0.418-7.393-0.418
			c0.558-0.418,1.115-0.838,1.675-1.396c0.559-0.561,0.977-1.116,1.534-1.812C170.36,855.571,171.336,856.267,172.452,856.964
			L172.452,856.964z M167.291,840.507c0,0.558-0.14,1.395-0.557,2.37c-0.837,2.93-2.372,5.439-3.767,7.112l4.184-9.624
			C167.151,840.507,167.291,840.507,167.291,840.507L167.291,840.507z M197.697,856.964c0.139,0.698,0.558,1.396,1.115,2.092
			c0.418,0.28,1.674,1.533,2.092,1.954c0,0.138,0.138,0.138,0.278,0.277c-3.627-0.698-7.531-1.394-11.576-1.951
			c2.511-0.976,5.16-2.512,7.811-4.604C197.417,855.432,197.417,856.267,197.697,856.964L197.697,856.964z M214.014,860.729
			c-0.14,1.257,0.279,2.371,1.115,3.347c0.139,0.141,0.418,0.28,0.559,0.559c-2.231-0.559-4.884-1.254-7.811-1.952
			c3.905-0.838,7.53-4.463,10.319-8.368c0.14,0.141,0.14,0.277,0.279,0.417c0.418,0.418,0.837,0.975,1.114,1.395
			C216.245,856.687,214.294,858.36,214.014,860.729L214.014,860.729z M81.377,861.567c-0.419-0.28-1.672-1.674-1.952-1.954
			c-0.837-0.836-1.813-1.674-2.789-2.369l0.277-0.838c3.628,0.28,6.696,1.674,8.927,3.487c1.673,1.951,2.51,4.323,2.51,6.694
			c0,1.812-0.697,4.184-2.37,6.555c0-0.14,0-0.418,0-0.697C85.98,868.399,84.306,864.495,81.377,861.567L81.377,861.567z
			 M89.747,840.367c0,3.068-3.906,5.857-8.37,5.857l2.789-6.555l-1.952-1.952l-15.341,1.534c3.208-2.79,9.764-3.628,14.924-3.487
			c2.929,0.14,5.438,0.976,7.252,2.231C89.467,838.693,89.885,839.529,89.747,840.367L89.747,840.367z M56.83,872.445
			c0-5.718,4.742-10.459,10.461-10.459c2.231,0,4.323,0.698,5.857,1.675c0.558,0.975,0.977,2.092,0.977,3.346
			c0,0.697-0.141,1.535-0.558,2.372c-0.28-0.141-0.697-0.141-0.978-0.141c-1.951,0-3.905,0.835-5.161,2.232
			c-1.395,1.257-2.231,3.206-2.231,5.16c0,1.812,0.698,3.486,1.814,4.741c-3.348,0-6.138-0.975-8.229-2.649
			C57.528,877.048,56.83,874.816,56.83,872.445L56.83,872.445z M99.091,851.245c-0.978,1.675-2.093,3.487-2.93,4.604
			c-0.279-0.277-0.697-0.697-0.977-0.975c-0.14-0.28-0.419-0.557-0.558-0.978c1.812-0.835,3.208-1.812,4.464-2.927
			C99.091,850.968,99.091,851.105,99.091,851.245L99.091,851.245z"/>
		<path fill="#FFFFFF" d="M168.686,833.115L168.686,833.115L168.686,833.115z"/>
		<path fill="#FFFFFF" d="M140.514,835.209l-0.279,0.835c-0.976,2.232,0.419,3.07,1.116,3.488l-0.978,2.231c0-0.28,0-0.559,0-0.837
			c-0.278-2.649-2.51-4.603-5.718-4.742c-6.137-0.141-12.273,4.742-16.316,9.763c0.418-0.977,0.557-1.675,0.557-2.65
			c0.141-1.115-0.419-1.951-1.254-2.511c-1.535-1.114-4.186-0.696-5.998,0.141c-0.977,0.419-2.511,1.114-3.767,1.812
			c-0.696-0.836-1.674-1.256-2.788-1.256s-2.511,0.698-3.626,1.813c-1.675,1.674-2.652,3.905-2.652,5.997
			c0,0.697,0.141,1.396,0.28,1.951c-0.978,1.675-2.093,3.21-3.069,4.326c-0.976-1.396-2.231-2.512-3.486-3.486
			c4.742-2.232,7.531-5.999,7.811-10.602c0.14-6.274-7.531-13.249-20.363-13.808c-18.131-0.558-25.243,7.253-25.662,14.226
			c-0.418,4.743,2.37,8.787,6.276,9.204c1.395,0.14,2.789-0.278,3.766-1.114l-1.814,4.043c-4.463,0.559-8.646,2.232-11.854,4.882
			c-3.487,2.929-5.3,6.694-5.3,10.74c0,4.464,1.674,8.51,4.883,11.576c2.789,2.928,8.228,6.277,17.572,6.277
			c20.224,0,31.102-10.319,31.521-20.643c0.14-2.092-0.14-4.046-0.557-5.855c1.812-2.512,3.765-5.439,5.021-7.95
			c0.418,0,0.976-0.141,1.534-0.418c-0.837,1.253-2.092,3.207-2.092,3.207c-1.534,2.231-2.651,5.438-1.534,7.67
			c0.558,0.975,1.674,2.232,4.043,2.232c3.628,0.14,6.976-2.93,8.928-5.299c1.533,1.951,3.905,2.091,5.02,2.091
			c1.535,0,8.788,0,16.877-6.973c0.278,0.696,0.558,1.254,0.976,1.812c1.116,1.256,2.79,1.954,5.161,2.094
			c3.067,0,5.856-0.978,8.229-3.209c1.115,1.115,2.51,1.813,4.186,2.231c-6.137,0.698-12.135,2.092-17.575,4.187
			c-4.184,1.533-7.948,3.626-11.297,5.716l0.837,2.094c4.464-1.115,9.065-1.536,13.39-1.536c6.974,0,13.111,1.115,16.317,2.094
			l0.698,0.277l0.557-0.558c12.554-10.74,36.961-6.276,60.95-0.698c12.691,2.79,18.968,1.955,20.363-3.065
			c0.417-1.257,0.139-2.79-0.697-4.187c-1.116-1.812-3.348-4.184-8.509-5.716c-0.558-2.371-2.371-5.438-3.487-7.531
			c-0.277-0.42-0.557-0.979-0.836-1.396c0.419,0.141,0.836,0.279,1.256,0.279c0.977,0,1.954-0.279,2.649-0.977
			c0.837-0.698,1.257-1.674,1.257-2.649c0.14-3.348-3.068-5.719-7.809-5.859c-3.487-0.139-6.836,2.232-7.951,5.441
			c-3.627,4.601-5.718,6.555-6.972,7.391c0.277-0.559,0.834-1.255,1.533-2.37c0.418-0.42,0.976-0.977,1.674-1.675
			c1.813-1.952,4.186-4.322,4.045-6.974c-0.14-1.255-0.696-2.231-1.675-3.066c-2.508-1.954-7.112-1.396-8.647-1.256
			c-0.139-0.419-0.417-0.977-0.835-1.394c-0.698-0.698-1.674-1.116-2.649-1.116c-2.093-0.14-3.906,0.836-5.161,2.649
			c-0.28,0.418-0.559,0.976-0.836,1.533c-0.559-1.396-2.231-3.765-7.113-4.322c-4.045-0.419-9.065,1.812-13.391,5.856
			c-0.975,1.115-1.951,2.231-2.79,3.348c0.421-1.953,0.698-3.766,0.559-5.299c-0.278-3.348-2.369-4.464-4.044-4.604
			c0,0-0.141,0-0.279,0c-0.558,0-0.976,0.14-1.395,0.419l0.139-0.419C158.225,833.534,149.718,834.23,140.514,835.209
			L140.514,835.209z M67.432,871.469c-1.396,1.256-2.231,3.208-2.231,5.161c0,1.812,0.697,3.485,1.812,4.741
			c-3.767-0.14-6.834-1.256-8.928-3.207c-2.092-1.954-3.207-4.604-3.207-7.671c0-5.718,4.602-10.461,10.46-10.461
			c4.883,0,8.787,3.068,8.787,6.975c0,0.835-0.141,1.535-0.558,2.372c-0.28-0.141-0.697-0.141-0.978-0.141
			C70.639,869.237,68.686,870.073,67.432,871.469L67.432,871.469z M82.632,876.77c0.837-1.953,1.396-4.045,1.396-6.276
			c0-6.137-3.766-11.577-9.764-14.505l0.697-1.533c8.368,0.695,13.389,6.555,13.389,12.133
			C88.351,869.237,86.678,873.421,82.632,876.77L82.632,876.77z M79.564,846.225h-1.115l3.765-8.507l-16.597,1.674l-0.277,0.696
			c-0.42,0.977-0.42,1.673-0.28,2.371c-0.696-0.698-1.395-1.116-2.092-1.396c0-1.256,0.559-2.371,1.396-3.348
			c3.067-3.207,10.042-4.044,15.48-3.905c5.579,0.14,10.042,3.207,9.904,6.555C89.606,843.854,85.004,846.504,79.564,846.225
			L79.564,846.225z M132.424,841.483c0,0.558-0.418,1.533-1.256,2.789c-0.559,1.115-2.094,3.067-4.603,4.323
			c0.976-1.533,1.952-3.068,2.93-4.323C130.891,842.599,131.866,841.761,132.424,841.483L132.424,841.483z M123.917,856.546
			c-0.14,0-0.14,0-0.14,0c0-0.14-0.141-0.697,0.14-2.091c3.767-0.421,8.925-2.512,12.412-5.579
			C129.635,855.708,125.729,856.687,123.917,856.546L123.917,856.546z M200.904,847.202c-2.231,2.929-4.186,6.692-3.207,9.762
			c0.278,1.396,1.394,3.067,4.602,3.766c5.438,1.257,10.599-3.625,14.227-8.786c0.558,0.976,1.256,1.813,1.952,2.789
			c0.418,0.418,0.837,0.976,1.115,1.394c-3.347,0.561-5.299,2.234-5.578,4.604c-0.14,1.257,0.279,2.371,1.114,3.347
			c0.141,0.141,0.418,0.28,0.559,0.559c-7.391-1.813-19.246-4.741-32.218-6.137C188.631,857.523,195.466,854.314,200.904,847.202
			L200.904,847.202z M194.348,845.528c0.559-0.697,1.117-1.533,1.396-2.37c0,0,0,0.14,0.141,0.14
			c0.14,0.419,0.277,0.697,0.558,1.115c-3.767,4.322-11.019,9.065-15.482,8.788c-1.114,0-1.395-0.14-1.534-0.14
			c-0.141-0.141-0.141-0.418-0.141-0.559c0-0.277,0.141-0.836,0.418-1.952C186.817,851.525,191.838,848.596,194.348,845.528
			L194.348,845.528z M188.352,838.834c0.14,0,0.14,0,0.14,0c0.14,0.14,0.14,1.115-0.558,2.37c-1.114,1.953-3.208,3.905-5.997,4.323
			C184.308,841.343,186.957,838.693,188.352,838.834L188.352,838.834z M160.318,849.712l4.881-11.436
			c0.418,0.976,1.115,1.813,2.092,2.23c0,0.558-0.14,1.395-0.557,2.37c-1.675,5.439-5.021,9.205-6.556,9.066
			c-0.141,0-0.278,0-0.278,0C159.761,851.803,159.761,850.688,160.318,849.712L160.318,849.712z M146.092,853.339
			c0-0.279,0.14-1.256,0.977-3.208l6.556-15.062c-0.698,1.952,0.696,2.928,1.256,3.208l-3.628,8.228
			C148.463,852.224,146.928,853.339,146.092,853.339L146.092,853.339z M161.017,857.939c1.812-0.694,3.625-1.951,5.158-3.625
			c1.116-1.115,2.092-2.371,2.929-3.766c0,0.419,0,0.836,0,1.254c0.141,2.79,1.674,4.743,4.185,5.998
			C168.966,857.663,164.92,857.663,161.017,857.939L161.017,857.939z M231.866,864.636c0,0.557-0.141,0.975-0.697,1.396
			c-0.696,0.417-2.37,1.115-6.275,0.557c1.533-0.278,2.789-1.114,3.766-2.094c0.558-0.557,1.115-1.395,1.255-2.229
			C231.03,862.821,232.006,863.659,231.866,864.636L231.866,864.636z"/>
		<path fill="#09152F" d="M142.745,858.08c2.37,0,5.44-0.557,8.51-3.766c0.835,1.674,3.067,2.93,5.717,2.93
			c8.368,0.418,15.2-12.274,14.644-19.526c-0.139-2.093-1.255-3.209-2.649-3.209c0,0-0.14,0-0.279,0
			c-1.256,0.14-2.231,1.115-2.371,2.371c0,1.395,0.976,2.512,2.371,2.649c0.14,0.837,0,2.092-0.558,3.767
			c-1.674,5.16-5.438,10.181-8.088,10.043c-2.231,0-1.674-2.79-0.976-4.325l6.276-14.365l-10.321,0.558
			c-0.975,2.372,2.093,1.534,1.115,3.486l-3.627,8.37c-2.231,4.603-4.323,7.67-6.556,7.67c-1.673-0.14-1.533-1.951-0.14-5.161
			l6.138-14.086l-10.461,0.975c-0.976,2.512,2.092,1.535,1.256,3.35l-3.765,8.228c-2.512,2.788-9.484,10.04-15.203,9.9
			c-1.674-0.14-1.814-2.092-0.836-4.741c5.438-0.14,16.597-5.438,16.039-12.133c-0.141-1.814-1.674-3.348-4.323-3.487
			c-8.229-0.278-16.877,9.763-19.248,15.761c-0.836,1.115-3.486,4.324-4.882,4.324c-0.837-0.141-0.558-1.257,0.418-2.79l4.884-7.253
			c1.533-2.371,1.674-3.208,1.674-4.323c0.14-2.371-3.348-2.092-5.301-1.116c-1.395,0.559-3.906,1.813-4.882,2.372
			c-0.278-0.979-1.115-1.675-2.231-1.675c-1.674,0-4.882,2.93-4.882,6.415c0,0.837,0.14,1.534,0.557,1.952
			c-1.812,3.069-4.043,5.719-4.741,6.555c-1.674-2.648-4.045-4.602-6.417-6.135c4.604-1.396,9.066-4.604,9.345-10.182
			c0.14-5.44-7.253-11.996-18.966-12.414c-29.013-0.974-27.338,19.809-19.249,20.645c2.092,0.278,4.045-1.256,4.184-3.487
			c0.28-2.092-1.255-3.905-3.347-4.184c-0.696-7.67,10.042-9.904,18.412-9.624c6.135,0.28,11.295,3.626,11.155,7.949
			c-0.141,4.185-5.16,7.531-11.576,7.253c-0.975,0-2.369-0.141-3.066-0.141l3.487-8.089l-13.391,1.256
			c-1.255,3.069,2.511,1.813,1.395,4.323l-4.463,10.461c-9.484,0.694-16.877,6.834-16.877,14.225
			c0.14,8.648,7.253,16.459,21.2,16.459c19.805,0,29.847-9.904,30.126-19.248c0.14-2.372-0.141-4.464-0.698-6.138
			c2.231-2.93,4.463-6.415,5.579-8.927c1.533-0.138,3.765-0.976,6.694-2.927c-1.533,2.091-4.323,6.415-5.161,7.67
			c-1.812,2.789-3.207,7.671,1.396,7.811c4.045,0.138,7.95-4.743,9.204-6.277c0.838,2.79,3.07,3.067,4.884,3.067
			c1.952,0.141,9.762-0.277,17.991-8.646C137.444,855.708,138.699,857.939,142.745,858.08L142.745,858.08z M132.98,839.81
			c2.651,0.14-1.114,9.902-9.064,11.018C126.287,845.669,130.75,839.81,132.98,839.81L132.98,839.81z M74.265,870.911
			c-0.558-0.14-1.114-0.28-1.675-0.28c-3.346,0-5.996,2.652-5.996,5.999c0,3.067,2.37,5.579,5.3,5.857
			c-1.255,0.14-2.65,0.279-4.044,0.279c-9.484,0-14.367-5.578-14.367-12.273c0-6.558,5.301-11.855,11.855-11.855
			c5.577,0,10.181,3.766,10.181,8.368C75.52,868.399,75.102,869.656,74.265,870.911L74.265,870.911z M76.775,881.372
			c3.487-1.952,5.856-6.138,5.856-10.879c0-6.137-4.183-11.438-10.182-13.807l1.675-3.628c9.9,0.28,15.619,7.393,15.619,13.529
			C89.747,871.189,85.841,878.441,76.775,881.372L76.775,881.372z"/>
		<path fill="#09152F" d="M228.938,860.312c2.511,0.836,4.463,2.51,4.324,4.464c-0.14,1.257-0.836,5.298-13.529,2.231
			c-14.365-3.486-61.926-17.016-91.492,1.815c12.273-2.79,24.547-0.42,29.01,0.975c12.971-11.299,38.216-6.696,62.202-1.115
			c15.901,3.625,17.994,0.277,18.69-2.093c0.559-1.953-1.115-6.277-9.205-8.369c-0.418-2.788-1.952-5.438-3.068-7.393
			c-1.115-1.812-2.092-3.346-2.231-5.158c0-0.419,0.419-1.256,1.256-1.534c0,0.138,0,0.278,0,0.418c0,1.395,0.976,2.51,2.231,2.51
			c1.396,0,2.512-0.977,2.512-2.231c0.138-2.93-3.068-4.323-6.417-4.464c-2.93-0.138-5.856,1.954-6.694,4.742
			c-6.835,8.925-9.205,8.647-9.764,8.508c-0.977-0.278-0.139-2.092,1.953-4.882c1.533-2.091,5.579-4.883,5.438-7.95
			c-0.278-3.627-6.276-3.347-9.064-2.928c-0.418,0.139-0.697,0.139-0.978,0.139c0-0.139,0-0.139,0-0.139
			c0-1.396-1.115-2.511-2.37-2.651c-3.766-0.14-5.998,4.464-4.604,7.532c0.28,0.697,0.698,1.114,1.257,1.395
			c-3.485,4.881-11.855,10.739-17.573,10.46c-2.649-0.138-2.789-0.836-2.928-1.952c0-0.697,0.278-2.092,0.976-3.487
			c15.062,2.512,22.175-12.551,9.623-13.944c-7.949-0.838-18.55,9.762-17.991,16.594c0.277,5.302,6.414,5.72,8.088,5.859
			c4.045,0.138,14.783-1.813,22.315-12.972c1.395,0,3.067-0.277,4.741-0.836c-5.159,5.021-10.739,13.809-3.067,15.622
			c5.438,1.115,10.88-5.3,14.086-10.183c1.114,3.068,3.906,5.3,5.3,8.089c-3.905,0-6.417,1.257-6.555,3.486
			c-0.28,2.93,3.766,4.604,6.833,4.604C225.031,865.61,228.659,864.356,228.938,860.312L228.938,860.312z M188.352,837.44
			c4.185,0.277-0.696,10.459-8.646,9.622C181.937,842.459,185.702,837.3,188.352,837.44L188.352,837.44z M222.521,861.705
			c-0.417,2.094-4.322,1.256-4.045-0.558c0.139-1.115,1.954-1.672,4.045-1.812C222.662,860.032,222.662,860.869,222.521,861.705
			L222.521,861.705z"/>
		<path fill="#09152F" d="M200.347,874.12h-0.976v2.789h-0.836v-2.789h-0.977v-0.697h2.789L200.347,874.12L200.347,874.12z
			 M205.228,876.909h-0.697v-2.789l0,0l-1.114,2.789h-0.697l-0.977-2.789l0,0v2.789h-0.698v-3.486h1.258l0.836,2.372l0,0
			l0.836-2.372h1.256v3.486H205.228z"/>
	</g>
</g>
<g id="svg12082">
</g>
<g id="svg31568">
</g>
<g id="CLEVELAND_INDIANS">
</g>
<g id="svg2562">
</g>
</svg>
