<?xml version="1.0" encoding="utf-8"?>
<!-- Generator: Adobe Illustrator 14.0.0, SVG Export Plug-In . SVG Version: 6.00 Build 43363)  -->
<!DOCTYPE svg PUBLIC "-//W3C//DTD SVG 1.1//EN" "http://www.w3.org/Graphics/SVG/1.1/DTD/svg11.dtd">
<svg version="1.1" id="Layer_1" xmlns="http://www.w3.org/2000/svg" xmlns:xlink="http://www.w3.org/1999/xlink" x="0px" y="0px"
	 width="200px" height="200px" viewBox="44 746 200 200" enable-background="new 44 746 200 200" xml:space="preserve">
<g>
	<path fill="#042244" d="M135.728,746h16.59c6.225,0.926,12.484,1.776,18.553,3.519c15.075,4.353,29.29,12.048,40.742,22.824
		c3.833,2.987,6.825,6.855,10.002,10.487c13.399,16.491,21.485,37.29,22.386,58.545v8.975c-0.74,18.488-7,36.601-17.382,51.865
		c-3.002,4.278-6.145,8.486-9.916,12.128c-2.407,2.257-4.599,4.738-7.061,6.936c-16.291,14.219-37.311,22.985-58.904,24.355h-12.658
		c-8.986-0.42-17.897-2.261-26.383-5.238c-3.982-1.311-7.855-2.938-11.518-4.974c-6.444-2.917-12.398-6.805-17.952-11.167
		c-3.878-2.727-7.029-6.285-10.422-9.562c-6.039-5.984-10.857-13.079-15.061-20.439c-7.024-12.698-11.417-26.938-12.243-41.447
		c-0.675-4.023-0.716-8.186,0.171-12.173c-0.105-4.403,0.43-8.781,1.205-13.104c3.188-17.162,11.138-33.348,22.385-46.666
		c2.252-2.382,4.589-4.693,6.926-7c5.013-5.273,10.951-9.571,17.11-13.414c8.441-5.093,17.612-8.961,27.134-11.503
		C124.795,747.591,130.304,747.026,135.728,746L135.728,746z"/>
	<path fill="#FEFFFE" d="M133.226,749.418c15.745-1.751,31.926,0.335,46.65,6.204c18.143,7.159,33.993,19.973,44.835,36.184
		c9.156,13.56,14.74,29.5,16.081,45.801c1.396,16.261-1.346,32.867-8.016,47.772c-10.287,23.26-30.11,42.098-53.891,51.128
		c-15.356,5.915-32.231,7.761-48.513,5.439c-18.982-2.642-37.085-11.162-51.265-24.052c-11.222-10.105-20.027-22.879-25.477-36.969
		c-5.989-15.431-7.89-32.406-5.548-48.783c2.892-20.764,12.793-40.481,27.748-55.172
		C91.117,761.646,111.716,751.784,133.226,749.418L133.226,749.418z"/>
	<path fill="#042244" d="M136.713,751.899c16.761-1.271,33.883,1.881,48.952,9.392c17.262,8.44,31.776,22.34,41.022,39.181
		c7.82,14.159,11.893,30.381,11.628,46.556c-0.12,16.387-4.728,32.692-13.079,46.786c-8.07,13.67-19.668,25.237-33.347,33.293
		c-13.564,8.006-29.18,12.549-44.936,12.929c-16.526,0.57-33.167-3.388-47.687-11.292c-15.325-8.307-28.259-20.944-36.91-36.075
		c-8.36-14.529-12.708-31.346-12.393-48.111c0.14-19.403,6.645-38.661,18.122-54.292c11.623-15.91,28.318-28.079,47.097-34.088
		C122.158,753.896,129.408,752.52,136.713,751.899L136.713,751.899z"/>
	<path fill="#FEFFFE" d="M142.571,760.385c2.662-0.045,5.313,0.24,7.971,0.24c-0.021,0.866-0.035,1.731-0.045,2.597
		c-1.331-0.71-2.812-0.926-4.304-0.845c-0.02,0.77-0.034,1.535-0.055,2.306c1.051-0.005,2.106-0.015,3.157-0.015
		c-0.04,0.82-0.085,1.646-0.14,2.467c-0.961-0.466-2.021-0.565-3.078-0.596c-0.015,1.021-0.024,2.041-0.034,3.062
		c2.105,0.395,4.218,0.08,6.179-0.756c-0.42,0.961-0.866,1.911-1.281,2.877c-2.932-0.075-5.873-0.021-8.791-0.385
		c0.346-0.386,0.695-0.761,1.057-1.126c0.069-2.582,0.31-5.154,0.345-7.735C143.612,761.646,142.912,761.065,142.571,760.385
		L142.571,760.385z"/>
	<path fill="#FEFFFE" d="M128.917,761.99c1.396-0.545,2.872-0.795,4.333-1.08c-0.28,0.826-0.86,1.661-0.591,2.577
		c0.626,3.087,1.331,6.153,1.962,9.24c-1.141-0.21-2.342-0.359-3.312-1.051c-2.511-1.65-4.938-3.427-7.465-5.062
		c0.4,1.996,0.741,4.012,1.347,5.964c0.45,0.35,0.905,0.695,1.346,1.065c-1.461,0.445-2.972,0.735-4.498,0.821
		c0.275-0.636,0.936-1.187,0.79-1.932c-0.365-2.592-1.04-5.139-1.636-7.69c-0.375-0.229-1.116-0.695-1.486-0.926
		c1.171-0.4,2.377-0.681,3.603-0.87c2.657,2.092,5.56,3.857,8.326,5.799C130.769,766.564,131.435,763.276,128.917,761.99
		L128.917,761.99z"/>
	<path fill="#FEFFFE" d="M162.104,762.807c2.347-0.601,4.743,0.18,6.864,1.16c-0.17,0.941-0.339,1.881-0.495,2.827
		c-1.285-1.476-3.326-2.901-5.323-1.892c-0.26,0.986,0.761,1.521,1.371,2.057c1.326,1.076,3.152,1.852,3.737,3.577
		c0.49,1.577-0.906,2.938-2.316,3.308c-2.477,0.881-5.019-0.26-7.275-1.246c-0.045-1.141-0.079-2.286-0.104-3.427
		c1.346,1.616,3.202,3.151,5.433,3.042c0.796,0.045,1.692-0.61,1.227-1.471c-1.36-1.701-3.692-2.387-4.788-4.333
		C159.688,765.003,160.604,763.202,162.104,762.807L162.104,762.807z"/>
	<path fill="#FEFFFE" d="M106.857,769.07c1.376-0.675,2.651-1.716,4.218-1.896c-0.5,0.846-0.605,1.806-0.02,2.632
		c1.37,2.771,2.986,5.429,4.202,8.275c-4.232,0.38-7.955-2.182-11.982-3.067c0.865,1.566,1.636,3.188,2.507,4.749
		c0.39,0.755,1.315,0.89,2.001,1.295c-1.376,0.651-2.627,1.767-4.208,1.832c1.261-1.727-0.561-3.373-1.181-4.964
		c-1.041-1.631-1.416-4.157-3.692-4.463c0.966-0.71,2.021-1.291,3.107-1.796c3.102,1.306,6.339,2.281,9.541,3.307
		c-0.9-1.74-1.801-3.481-2.762-5.188C108.009,769.551,107.433,769.316,106.857,769.07L106.857,769.07z"/>
	<path fill="#FEFFFE" d="M179.677,769.821c4.178-1.091,9.206,1.436,10.347,5.709c0.73,2.441-0.78,5.143-3.127,6.004
		c-4.354,1.491-9.856-1.371-10.772-5.959C175.563,773.073,177.215,770.462,179.677,769.821L179.677,769.821z"/>
	<path fill="#042244" d="M181.178,771.812c3.326-1.115,7.404,2.361,5.898,5.849c-1.171,3.047-5.448,2.717-7.2,0.415
		C178.016,776.235,178.676,772.703,181.178,771.812L181.178,771.812z"/>
	<path fill="#FEFFFE" d="M87.985,781.779c0.971-1.356,2.381-2.287,3.722-3.237c-0.02,0.391-0.06,1.171-0.08,1.562
		c1.767,2.256,3.583,4.478,5.449,6.659c0.386,0.04,1.156,0.13,1.541,0.175c-1.121,1.186-2.342,2.281-3.763,3.087
		c-0.02-0.815,0.061-1.736-0.585-2.356c-1.602-1.951-3.188-3.917-4.839-5.824C89.07,781.829,88.346,781.794,87.985,781.779
		L87.985,781.779z"/>
	<path fill="#FEFFFE" d="M113.822,786.052c12.073-6.148,26.018-8.551,39.451-6.804c13.909,1.721,27.208,7.96,37.46,17.512
		c5.028,4.748,9.587,10.126,12.799,16.28c-0.846,0.15-1.691,0.301-2.532,0.455c-6.523-11.177-16.501-20.299-28.188-25.847
		c-12.138-5.819-26.112-7.735-39.356-5.344c-14.234,2.457-27.548,9.842-37.194,20.578c-4.398,4.868-8.036,10.412-10.817,16.352
		c-1.026,0.085-2.047,0.165-3.072,0.24C88.565,805.14,99.898,793.106,113.822,786.052L113.822,786.052z"/>
	<path fill="#FEFFFE" d="M196.848,781.084c0.835-0.445,1.671-0.886,2.507-1.326c2.406,2.347,4.889,4.633,7.479,6.779
		c-0.825,0.455-1.65,0.926-2.461,1.401c-0.376-1.101-1.076-2.017-1.917-2.792c-1.766,1.956-3.547,3.893-5.308,5.849
		c0.02,0.426,0.069,1.281,0.094,1.706c-1.47-0.814-2.641-2.041-3.767-3.262c0.385-0.075,1.15-0.225,1.535-0.305
		c1.933-1.776,3.563-3.863,5.409-5.734C199.414,782.37,198.174,781.64,196.848,781.084L196.848,781.084z"/>
	<path fill="#FEFFFE" d="M108.413,795.474c12.488-8.901,28.329-13.049,43.569-11.198c19.238,2.137,37.29,13.729,46.832,30.626
		c-2.837,2.307-4.398,6.034-4.179,9.666c0.116,4.062,2.156,7.986,5.363,10.473c2.732,2.081,5.859,3.772,8.017,6.509
		c1.365,1.597,0.26,4.538-1.946,4.553c0.045-0.315,0.125-0.945,0.164-1.256c-0.29,0.016-0.87,0.045-1.155,0.061
		c0.05-0.28,0.16-0.841,0.215-1.116l-0.425,0.105c-1.941-3.348-5.404-5.539-9.206-6.094c-0.15,4.988-0.025,9.981-0.065,14.975
		c-0.335-0.195-1.005-0.585-1.341-0.781c-0.024-0.225-0.075-0.67-0.096-0.895l-0.439-0.3c0.04-7.08,0.03-14.16,0.016-21.24
		c0.034-3.467-1.162-7.109-4.053-9.221c-2.412-3.066-6.24-5.088-10.212-4.528c-6.905,0.946-13.774,2.202-20.614,3.533
		c-0.03,1.035-0.061,2.071-0.105,3.106c-0.295-0.104-0.875-0.32-1.165-0.431c-0.005-0.805-0.005-1.615-0.005-2.421
		c-4.653,0.855-9.267,1.891-13.885,2.896c-0.45,0.04-1.351,0.125-1.801,0.165c-0.15,1.211-0.21,2.487-0.966,3.513
		c-0.159-0.985-0.285-1.972-0.395-2.957c-5.149,1.251-10.298,2.512-15.436,3.808c0.04,1.096,0.09,2.196,0.205,3.292
		c-0.516-0.155-1.03-0.315-1.536-0.475c-0.005-0.826-0.01-1.651-0.016-2.472c-5.168,1.501-10.387,2.826-15.524,4.418
		c0.015,0.815,0.04,1.631,0.074,2.451c-0.489,0.165-0.976,0.335-1.46,0.506c0-0.866,0-1.727,0-2.592
		c-4.809,1.49-9.632,2.941-14.405,4.548c-0.13-0.931-0.296-1.856-0.42-2.787c8.221-0.605,16.726-2.366,23.575-7.185
		c4.703-3.257,7.926-8.726,7.795-14.529c-0.58-0.251-1.16-0.501-1.726-0.786c-0.301-1.641-2.321-1.471-3.492-2.127
		c-0.341,3.208-2.737,5.694-5.624,6.881c-7.58,3.291-16.025,2.441-24.071,2.756C93.043,809.612,99.943,801.463,108.413,795.474
		L108.413,795.474z"/>
	<path fill="#FEFFFE" d="M77.913,791.656c0.82-1.062,1.636-2.127,2.537-3.117c0.149,0.324,0.45,0.98,0.6,1.311
		c2.037,1.306,4.259,2.302,6.364,3.487c0.836,0.561,1.856,0.495,2.812,0.57c-0.951,1.296-1.906,2.587-2.962,3.793
		c-0.266-0.666-0.245-1.606-1.036-1.906c-1.671-0.981-3.372-1.901-5.088-2.803c1.36,2.742,2.892,5.398,4.178,8.181
		c-3.288,0.761-6.5-0.681-9.752-0.976c1.507,1.541,2.912,3.192,4.498,4.653c0.41,0.03,1.231,0.095,1.642,0.125
		c-0.775,1.171-1.517,2.401-2.647,3.268c-0.425-2.212-2.421-3.487-3.762-5.124c-1.156-1.051-2.012-2.906-3.863-2.592
		c0.621-1.226,1.486-2.286,2.327-3.362c2.611,0.65,5.293,0.95,7.925,1.526C80.465,796.324,79.309,793.922,77.913,791.656
		L77.913,791.656z"/>
	<path fill="#B51234" d="M138.339,794.763c0.815-2.146,2.512-4.604,5.153-4.048c-1.011,1.201-2.017,2.437-2.597,3.913
		c0.345,0.021,1.031,0.064,1.376,0.085c0.185,2.531,0.525,5.059,1.101,7.535c-0.495-0.03-1.491-0.101-1.986-0.13
		c-0.931-2.231-1.687-4.568-1.781-7.005C139.289,795.027,138.654,794.848,138.339,794.763L138.339,794.763z"/>
	<path fill="#B51234" d="M127.311,791.881c0.781-0.391,1.682-0.431,2.527-0.565c-0.976,1.051-1.852,2.196-2.396,3.537
		c0.346,0.016,1.025,0.041,1.366,0.056c-0.761,1.951-0.695,4.037-0.05,6.004c-0.62-0.005-1.236-0.005-1.852-0.01
		c-0.726-1.501-1.006-3.137-1.261-4.768c-0.16-0.141-0.48-0.426-0.641-0.565C125.54,794.218,126.11,792.781,127.311,791.881
		L127.311,791.881z"/>
	<path fill="#B51234" d="M131.614,795.233c0.596-2.196,2.257-4.793,4.873-4.442c-0.966,1.155-1.856,2.381-2.387,3.808
		c0.345,0.02,1.03,0.06,1.376,0.08c-0.495,2.256-0.02,4.533,0.391,6.759c-0.701-0.06-1.401-0.119-2.097-0.18
		c-0.795-1.861-1.221-3.868-1.011-5.889C132.475,795.333,131.899,795.263,131.614,795.233L131.614,795.233z"/>
	<path fill="#B51234" d="M145.049,795.133c0.659-2.371,2.906-4.668,5.554-4.002c-1.086,1.08-2.167,2.201-2.812,3.617
		c0.425,0.06,1.275,0.17,1.696,0.225c0.225,2.662,0.73,5.289,0.891,7.955c-0.67-0.08-1.341-0.154-2.006-0.234
		c-0.746-2.437-1.376-4.909-1.682-7.44C146.279,795.223,145.458,795.163,145.049,795.133L145.049,795.133z"/>
	<path fill="#B51234" d="M152.063,795.543c0.615-2.336,2.831-4.643,5.433-4.143c-1.021,1.261-2.146,2.467-2.831,3.958
		c0.659,0.15,1.325,0.295,1.99,0.44c0.21,2.491,0.54,4.978,0.641,7.484c-0.69-0.095-1.375-0.194-2.061-0.295
		c-0.626-2.387-1.046-4.828-1.191-7.295C153.384,795.644,152.724,795.594,152.063,795.543L152.063,795.543z"/>
	<path fill="#B51234" d="M120.592,793.732c0.655-1.137,2.001-1.276,3.177-1.391c-0.971,1.011-1.866,2.105-2.302,3.462
		c0.341,0.01,1.026,0.04,1.371,0.055c-0.63,1.792-0.665,3.703-0.149,5.529c-0.461,0.01-1.382,0.025-1.842,0.029
		c-0.48-1.466-0.815-2.992-0.73-4.543C118.836,796.179,120.001,794.562,120.592,793.732L120.592,793.732z"/>
	<path fill="#B51234" d="M162.1,792.707c0.825-0.121,1.666,0.04,2.496,0.09c-1.045,1.176-2.051,2.406-2.672,3.867
		c0.641,0.175,1.276,0.381,1.901,0.615c0.916,2.532,1.201,5.289,0.896,7.966c-0.811-0.17-1.615-0.34-2.426-0.51
		c-0.146-2.657-0.596-5.289-1.187-7.881c-0.71-0.095-1.415-0.195-2.121-0.29C159.748,795.088,160.688,793.637,162.1,792.707
		L162.1,792.707z"/>
	<path fill="#B51234" d="M115.208,794.798c0.54-0.796,1.605-0.815,2.432-1.121c-0.7,1.096-1.276,2.267-1.666,3.513
		c0.32,0,0.966,0.01,1.291,0.01c-0.631,1.631-0.756,3.402-0.03,5.023c-0.625,0.104-1.251,0.205-1.876,0.311
		C114.112,800.227,113.302,796.984,115.208,794.798L115.208,794.798z"/>
	<path fill="#B51234" d="M166.107,798.13c0.64-1.511,1.41-2.962,2.326-4.322c0.681,0.05,1.366,0.104,2.052,0.154
		c-0.186,1.512-0.815,2.897-1.481,4.248c0.851,0.186,1.701,0.386,2.552,0.596c0.601,2.477,0.896,5.033,0.591,7.58
		c-0.926-0.091-1.852-0.186-2.772-0.28c-0.015-2.571,0.07-5.184-0.655-7.681C167.844,798.33,166.978,798.235,166.107,798.13
		L166.107,798.13z"/>
	<path fill="#B51234" d="M172.981,799.266c0.611-1.36,1.121-2.767,1.411-4.232c0.621,0.085,1.246,0.17,1.871,0.26
		c-0.064,1.467-0.285,2.922-0.551,4.368c0.601,0.075,1.207,0.146,1.812,0.215c0.937,2.552,1.411,5.273,1.052,7.99
		c-0.826-0.069-1.651-0.14-2.473-0.215c-0.016-2.666-0.21-5.398-1.346-7.85C174.162,799.621,173.572,799.446,172.981,799.266
		L172.981,799.266z"/>
	<path fill="#B51234" d="M108.679,800.047c0.796-1.832,1.621-4.223,3.893-4.563c-0.701,1.081-1.4,2.172-2.021,3.308
		c0.275,0.02,0.821,0.055,1.096,0.075c-0.59,1.575-0.355,3.227,0.165,4.773c-0.39,0.185-1.181,0.545-1.57,0.725
		C109.244,803.123,109.044,801.537,108.679,800.047L108.679,800.047z"/>
	<path fill="#FEFFFE" d="M213.199,796.358c0.185-0.255,0.555-0.765,0.74-1.021c0.73,0.881,1.351,1.847,2.016,2.777
		c-1.505,2.937-3.187,5.784-4.737,8.701c-0.5,0.81-0.476,1.791-0.615,2.706c-1.287-1.136-2.091-2.677-3.067-4.062
		c1.661,0.386,2.441-1.446,2.747-2.722c-0.686-1.181-1.551-2.242-2.316-3.372c-0.921,0.18-1.837,0.354-2.757,0.51
		c-0.141,0.365-0.416,1.086-0.556,1.451c-0.921-1.275-2.081-2.451-2.517-4.003c0.9,0.221,1.816,0.661,2.768,0.416
		C207.665,797.27,210.438,796.845,213.199,796.358L213.199,796.358z"/>
	<path fill="#B51234" d="M179.786,796.499c0.596,0.1,1.19,0.2,1.792,0.3c0.149,1.406,0.26,2.817,0.33,4.233
		c3.031,1.071,3.632,5.044,2.831,7.795c-0.9-0.165-1.801-0.34-2.701-0.515c0.84-2.843,0.17-6.335-2.702-7.726
		C179.586,799.236,179.696,797.865,179.786,796.499L179.786,796.499z"/>
	<path fill="#B51234" d="M103.426,803.073c0.945-1.881,1.666-4.383,3.837-5.163c-0.46,1.275-2.597,2.807-1.246,4.088
		c0.006,1.246,0.065,2.502,0.556,3.673c-0.58,0.305-1.161,0.605-1.746,0.9C104.306,805.425,103.87,804.249,103.426,803.073
		L103.426,803.073z"/>
	<path fill="#042244" d="M210.021,798.926c0.951-0.141,1.907-0.271,2.868-0.396c-0.466,0.83-0.937,1.661-1.401,2.491
		C210.997,800.321,210.512,799.626,210.021,798.926L210.021,798.926z"/>
	<path fill="#B51234" d="M184.76,799.096c2.066,2.156,4.873,3.718,6.174,6.52c0.586,1.181,0.41,2.537,0.386,3.808
		c-0.735-0.045-1.466-0.1-2.202-0.15c0.396-2.957-1.15-6.229-3.968-7.399C185.025,800.942,184.88,800.021,184.76,799.096
		L184.76,799.096z"/>
	<path fill="#B51234" d="M99.143,807.057c1.025-2.071,1.741-4.458,3.537-6.02c-0.42,1.356-1.021,2.652-1.4,4.018
		c-0.431,1.116,0.24,2.207,0.515,3.272c-0.505,0.365-1.011,0.735-1.516,1.101C99.878,808.647,99.503,807.856,99.143,807.057
		L99.143,807.057z"/>
	<path fill="#B51234" d="M95.945,809.093c0.775-1.566,1.4-3.282,2.776-4.438c-0.625,1.927-1.791,3.888-1.15,5.979
		c0.44,0.94-0.57,1.296-1.146,1.771C96.08,811.354,95.34,810.193,95.945,809.093L95.945,809.093z"/>
	<path fill="#042244" d="M146.068,808.172c2.352-3.177,7.49-2.837,9.688,0.346c0.78,1.846,1.296,4.048,0.254,5.903
		c-1.204,2.712-4.477,3.883-7.249,3.143C145.059,816.272,143.437,811.209,146.068,808.172L146.068,808.172z"/>
	<path fill="#B51234" d="M149.076,808.657c2.291-1.341,5.578,0.72,5.243,3.393c0.125,2.922-3.907,4.583-5.954,2.562
		C146.404,813.085,146.839,809.688,149.076,808.657L149.076,808.657z"/>
	<path fill="#A5ACAF" d="M155.755,808.518c3.253,1.015,3.828,5.778,1.896,8.26c-1.941,2.917-6.449,3.262-8.891,0.785
		c2.772,0.74,6.044-0.431,7.249-3.142C157.051,812.564,156.536,810.363,155.755,808.518L155.755,808.518z"/>
	<path fill="#B51234" d="M93.318,815.682c-1.646-1.766,0.186-4.047,1.231-5.599c-0.23,1.432-0.48,2.872-0.315,4.328
		C93.929,814.837,93.624,815.257,93.318,815.682L93.318,815.682z"/>
	<path fill="#A5ACAF" d="M121.662,811.414c0.565,0.285,1.146,0.535,1.727,0.785c0.13,5.804-3.092,11.272-7.796,14.53
		c-6.85,4.818-15.354,6.579-23.575,7.185c0.125,0.931,0.29,1.856,0.42,2.786c-0.32,0.101-0.641,0.206-0.96,0.315
		c-0.006,1.081-0.011,2.162-0.011,3.242c0.4,0.146,0.801,0.301,1.201,0.466c-0.485,0.495-0.561,1.191-0.551,1.856
		c0.041,10.907,0.025,21.814,0.016,32.721c-0.901-0.479-2.007-0.915-2.392-1.95c-0.24-1.581-0.075-3.188-0.11-4.778
		c-0.01-12.309,0.025-24.611-0.016-36.915c7.886-0.655,16.017-1.881,22.936-5.979c3.402-2.036,6.385-5.004,7.836-8.746
		C121.117,815.172,121.228,813.25,121.662,811.414L121.662,811.414z"/>
	<path fill="#B51234" d="M114.572,817.698c2.037-0.98,3.553-2.717,4.684-4.638c-0.546,2.065-1.156,4.173-2.446,5.914
		c-2.627,3.672-6.755,5.914-10.928,7.399c-5.924,2.052-12.219,2.887-18.468,3.042c-0.194,14.229-0.039,28.47-0.08,42.698
		c-0.189,2.053,1.071,3.764,2.843,4.654c-4.318,1.94-8.852,3.392-13.174,5.328c1.771-1.881,2.877-4.403,2.771-7.015
		c-0.021-14.835,0.005-29.67-0.015-44.511c-3.803,0.316-7.646,1.062-11.082,2.768c-2.172,1.086-4.354,3.092-4.208,5.729
		c-0.08,1.757,1.035,3.197,1.977,4.568c-1.687-0.175-3.503-0.646-4.508-2.132c-2.097-3.017-1.622-7.189,0.114-10.262
		c2.312-3.888,6.585-6.039,10.752-7.39c7.786-2.457,16.031-2.752,24.132-2.807C102.92,820.91,109.149,820.46,114.572,817.698
		L114.572,817.698z"/>
	<path fill="#B51234" d="M203.512,815.287c4.168-0.446,8.361-0.661,12.544-0.937c0.015,3.868,0.005,7.735-0.021,11.603
		c-3.688-1.176-5.754-4.902-5.979-8.595c-1.697,0.234-3.673,0.5-4.648,2.106c-1.701,2.887-0.865,6.844,1.676,8.976
		c3.223,2.776,7.186,4.788,9.736,8.296c2.922,3.973,2.092,10.276-2.031,13.113c-1.461,1.091-3.332,1.161-5.073,1.321
		c-3.978,0.255-7.939,0.695-11.897,1.141c0.005-3.897-0.025-7.79,0.015-11.688c3.612,1.182,5.719,4.764,5.938,8.421
		c1.667-0.125,3.412-0.35,4.788-1.391c2.372-1.541,3.062-5.184,1.281-7.41c-2.786-3.808-7.54-5.443-10.542-9.006
		c-2.352-3.082-3.212-7.426-1.701-11.062C198.549,817.679,200.775,815.557,203.512,815.287L203.512,815.287z"/>
	<path fill="#A5ACAF" d="M218.277,814.466c0.825-0.04,1.646-0.075,2.477-0.115c0.024,5.685,0.03,11.373-0.005,17.057
		c-3.173-0.62-6.359-1.996-8.281-4.718c1.821,0.966,3.738,1.746,5.764,2.167C218.302,824.058,218.217,819.259,218.277,814.466
		L218.277,814.466z"/>
	<path fill="#042244" d="M158.857,819.345c6.84-1.331,13.71-2.587,20.614-3.533c3.972-0.56,7.8,1.462,10.212,4.528
		c0.91,2.111,1.62,4.358,1.61,6.68c0.045,6.859-0.045,13.729,0.024,20.588c-0.165,1.587,1.231,2.482,2.402,3.192l0.439,0.301
		c0.021,0.225,0.071,0.67,0.096,0.895c0.016,0.996,0,1.997-0.01,2.998c-4.639,0.53-9.257,1.19-13.875,1.855
		c-0.284,0.03-0.86,0.096-1.146,0.125c0.005-8.971,0-17.941,0.005-26.913c0.025-1.535-0.38-3.047-1.085-4.402
		c-0.791-1.086-2.072-1.491-3.322-1.762c-0.035,11.283-0.011,22.561-0.08,33.838c-3.413,0.605-6.82,1.245-10.253,1.731l-0.689,0.115
		c-0.261,0.044-0.786,0.135-1.046,0.18c-0.011-0.165-0.03-0.501-0.035-0.666c0.016-10.847,0.024-21.699,0-32.546
		c0.07-1.276-0.666-2.497-1.791-3.088c-0.7-0.396-1.437-0.715-2.177-1.011C158.797,821.416,158.827,820.38,158.857,819.345
		L158.857,819.345z"/>
	<path fill="#B51234" d="M161.579,821.081c5.804-0.866,11.547-2.112,17.367-2.853c2.906-0.399,6.163,0.386,8.085,2.727
		c1.626,1.972,1.956,4.634,2.017,7.1c0.03,6.68-0.035,13.354,0.021,20.034c-0.126,2.201,1.735,3.662,3.382,4.758
		c-3.628,0.53-7.265,1-10.897,1.471c0.045-7.931,0-15.855,0.025-23.786c-0.035-2.536-0.446-5.368-2.382-7.199
		c-1.701-1.632-4.233-1.877-6.465-1.517c-0.396,1.361-0.13,2.832-0.19,4.238c-0.034,9.856,0.091,19.723-0.061,29.58
		c-2.396,0.751-4.928,0.945-7.395,1.396c-0.005-9.316-0.015-18.637,0.006-27.953c-0.021-1.606,0.145-3.277-0.425-4.813
		C164.11,822.826,162.725,822.001,161.579,821.081L161.579,821.081z"/>
	<path fill="#042244" d="M143.697,822.496c4.618-1.005,9.231-2.041,13.884-2.896c0,0.806,0,1.616,0.006,2.422
		c0.04,10.527-0.07,21.054,0.049,31.576c-0.085,1.546,1.161,2.602,2.492,3.087c0.16,0.085,0.471,0.261,0.63,0.351
		c0.065,0.255,0.195,0.766,0.261,1.021c-0.055,0.716-0.135,1.426-0.21,2.142c-3.192,0.735-6.504,1.511-9.752,0.61
		c-1.291-0.99-2.718-1.876-3.643-3.252c-1.391-2.042-1.861-4.563-1.871-7c-0.05-6.845,0.045-13.689-0.034-20.533
		c0.07-1.547-1.026-2.742-2.282-3.468c-0.405-0.186-0.811-0.355-1.216-0.516c0-1.011,0-2.017,0.011-3.017
		C142.441,822.887,143.282,822.627,143.697,822.496L143.697,822.496z"/>
	<path fill="#A5ACAF" d="M206.784,823.567c-0.22-1.366,0.165-2.832,1.342-3.652c0.455,1.195,0.926,2.382,1.4,3.572
		c-0.445,1.496-0.13,3.013,0.325,4.463C208.565,826.719,206.945,825.483,206.784,823.567L206.784,823.567z"/>
	<path fill="#A5ACAF" d="M189.684,820.34c2.891,2.111,4.087,5.754,4.053,9.221c0.015,7.08,0.024,14.16-0.016,21.24
		c-1.171-0.711-2.567-1.606-2.402-3.192c-0.069-6.859,0.021-13.729-0.024-20.589C191.304,824.698,190.594,822.451,189.684,820.34
		L189.684,820.34z"/>
	<path fill="#A5ACAF" d="M157.587,822.021c0.29,0.11,0.87,0.325,1.165,0.431c0.74,0.296,1.477,0.615,2.177,1.011
		c-0.226-0.069-0.671-0.215-0.896-0.285c0.08,11.168-0.109,22.34,0.096,33.508c-1.331-0.485-2.577-1.541-2.492-3.088
		C157.517,843.075,157.627,832.548,157.587,822.021L157.587,822.021z"/>
	<path fill="#A5ACAF" d="M141.896,822.661c0.451-0.04,1.352-0.125,1.802-0.165c-0.415,0.13-1.256,0.391-1.676,0.525
		c-0.011,1-0.011,2.006-0.011,3.017c0.405,0.16,0.811,0.331,1.216,0.516c-0.14,1.666-0.205,3.338-0.18,5.009
		c0.069,9.512-0.061,19.027,0.069,28.544c-1.461-0.335-2.611-1.546-2.491-3.102c-0.11-11.263,0.045-22.525-0.09-33.788
		c0.11,0.985,0.235,1.971,0.395,2.957C141.686,825.148,141.746,823.872,141.896,822.661L141.896,822.661z"/>
	<path fill="#B51234" d="M144.407,824.758c3.593-0.801,7.17-1.721,10.823-2.217c0.015,10.337-0.046,20.68,0.029,31.016
		c-0.09,2.082,1.176,3.798,2.883,4.844c-2.307,0.47-4.969,1-7.045-0.451c-2.537-1.516-3.192-4.688-3.292-7.419
		c-0.091-7.16,0.074-14.325-0.076-21.484C147.694,827.024,145.929,825.769,144.407,824.758L144.407,824.758z"/>
	<path fill="#042244" d="M125.1,827.024c5.139-1.295,10.287-2.557,15.436-3.808c0.135,11.263-0.021,22.525,0.09,33.788
		c-0.12,1.556,1.031,2.767,2.492,3.102c0.234,0.091,0.71,0.266,0.945,0.355c0.03,1.066,0.05,2.137,0.045,3.207
		c-11.567,2.752-23.07,5.779-34.448,9.231c-2.882,0.891-5.999,0.686-8.855-0.215c-3.737-1.911-5.81-5.979-5.924-10.087
		c-0.181-6.494,0.045-13.004-0.101-19.503c0.04-1.216-1.176-1.901-2.111-2.372c-0.4-0.165-0.801-0.319-1.201-0.465
		c0-1.081,0.006-2.162,0.011-3.242c0.319-0.11,0.64-0.216,0.96-0.315c4.773-1.606,9.597-3.058,14.405-4.548c0,0.865,0,1.726,0,2.592
		c0.034,7.945-0.061,15.895,0.049,23.841c0.03,2.156,0.286,5.028,2.808,5.679c0.666,0.056,1.336,0.104,2.006,0.141
		c0-8.621,0.016-17.247-0.005-25.873c0.181-1.556-1.126-2.621-2.396-3.202c-0.235-0.135-0.705-0.405-0.94-0.54
		c-0.015-0.14-0.045-0.415-0.061-0.551c-0.035-0.82-0.06-1.636-0.075-2.451c5.139-1.591,10.357-2.917,15.525-4.418
		c0.006,0.82,0.011,1.646,0.016,2.472c0.024,8.4-0.025,16.806,0.021,25.212c-0.05,1.966,0.855,4.118,2.922,4.652
		c0.449,0.016,1.355,0.051,1.806,0.071c0-8.586,0.025-17.167-0.005-25.753c0.08-1.491-0.98-2.727-2.316-3.242
		c-0.226-0.115-0.671-0.351-0.891-0.465C125.189,829.221,125.14,828.12,125.1,827.024L125.1,827.024z"/>
	<path fill="#FEFFFE" d="M160.033,823.177c0.226,0.07,0.67,0.215,0.896,0.285c1.126,0.591,1.862,1.811,1.792,3.087
		c0.024,10.847,0.015,21.699,0,32.547c-0.562-0.36-1.132-0.7-1.701-1.04c-0.065-0.256-0.196-0.766-0.261-1.021
		c-0.16-0.09-0.47-0.266-0.63-0.351C159.923,845.517,160.113,834.345,160.033,823.177L160.033,823.177z"/>
	<path fill="#A5ACAF" d="M174.823,823.897c1.251,0.271,2.531,0.676,3.322,1.761c-0.226,0.256-0.666,0.771-0.891,1.026
		c-0.055,11.057-0.12,22.115-0.01,33.172c-3.958,0.881-7.985,1.431-11.978,2.106c-0.03-0.735-0.065-1.466-0.11-2.196
		c-0.165-0.075-0.501-0.226-0.666-0.3c3.433-0.486,6.84-1.126,10.253-1.731C174.812,846.457,174.788,835.18,174.823,823.897
		L174.823,823.897z"/>
	<path fill="#B51234" d="M127.371,828.876c3.603-0.976,7.235-1.837,10.862-2.707c0.056,10.297-0.05,20.6,0.05,30.896
		c-0.074,2.176,1.206,4.082,3.168,4.963c-10.978,2.411-21.82,5.413-32.577,8.666c-2.797,0.851-6.104,0.75-8.495-1.101
		c-2.392-1.881-3.203-5.094-3.192-8.011c0.015-5.674,0-11.348,0.02-17.021c-0.035-1.226,0.051-2.552-0.641-3.632
		c-0.62-1.046-1.781-1.566-2.757-2.212c3.553-1.275,7.175-2.321,10.772-3.457c0.025,7.95-0.01,15.906,0.016,23.856
		c0,2.291,0.479,4.873,2.396,6.359c2.021,1.546,4.763,1.431,7.1,0.795c-0.075-9.396,0.045-18.798-0.05-28.194
		c0.085-2.161-1.696-3.542-3.282-4.647c3.572-0.996,7.109-2.132,10.737-2.912c0.045,8.186,0,16.371,0.02,24.557
		c-0.035,2.286,0.751,4.822,2.787,6.089c1.916,1.226,4.298,0.806,6.434,0.641c0.085-9.432,0.035-18.867,0.031-28.299
		C130.934,831.308,129.037,829.887,127.371,828.876L127.371,828.876z"/>
	<path fill="#FEFFFE" d="M177.255,826.685c0.225-0.255,0.665-0.771,0.891-1.026c0.705,1.356,1.11,2.867,1.085,4.403
		c-0.005,8.971,0,17.942-0.005,26.913c0.285-0.03,0.861-0.095,1.146-0.125c0.307-0.01,0.911-0.024,1.217-0.034
		c0.084,0.829,0.135,1.66,0.195,2.496c4.957-0.791,9.94-1.376,14.92-2.031c-0.05-0.847-0.096-1.691-0.146-2.532
		c0.355-0.06,1.071-0.18,1.426-0.24c0.035,0.9,0.065,1.801,0.101,2.702c2.887-0.33,5.783-0.551,8.67-0.836
		c-2.376,14.94-10.262,28.96-21.969,38.566c-11.479,9.526-26.434,14.771-41.349,14.395c-20.218-0.27-39.901-11.112-50.943-28.044
		c1.085-0.405,2.161-0.841,3.236-1.271c-0.01-0.911-0.02-1.816-0.024-2.722c-0.826-0.271-1.651-0.546-2.472-0.815
		c-0.021-0.261-0.065-0.786-0.085-1.046c-0.256-0.035-0.766-0.105-1.016-0.136c0.01-10.906,0.025-21.814-0.016-32.722
		c-0.01-0.665,0.065-1.36,0.551-1.855c0.936,0.47,2.151,1.155,2.111,2.371c0.146,6.5-0.08,13.009,0.101,19.503
		c0.114,4.108,2.187,8.176,5.924,10.087c3.127,2.862,7.765,3.287,11.673,1.977c11.257-3.372,22.654-6.254,34.087-8.961
		c-0.064-1.121-0.125-2.242-0.189-3.363c-0.655-0.17-1.306-0.335-1.957-0.505c-0.104,0.611-0.205,1.222-0.31,1.837
		c0.005-1.07-0.015-2.142-0.045-3.207c-0.235-0.09-0.711-0.266-0.945-0.355c-0.131-9.517,0-19.032-0.07-28.544
		c-0.024-1.671,0.04-3.343,0.18-5.009c1.256,0.726,2.353,1.921,2.282,3.468c0.08,6.845-0.015,13.688,0.034,20.533
		c0.011,2.437,0.48,4.958,1.871,7c0.926,1.376,2.353,2.262,3.644,3.252c3.042,3.638,8.15,2.547,12.143,1.517
		c0.11-0.936,0.21-1.881,0.601-2.742l0.689-0.115c0.166,0.075,0.501,0.226,0.666,0.3c0.045,0.731,0.08,1.462,0.11,2.196
		c3.992-0.675,8.021-1.225,11.978-2.106C177.135,848.799,177.199,837.741,177.255,826.685L177.255,826.685z"/>
	<path fill="#A5ACAF" d="M123.769,829.842c0.506,0.16,1.021,0.319,1.536,0.475c0.22,0.115,0.666,0.351,0.891,0.466
		c-0.056,8.1,0.015,16.205-0.04,24.306c-0.025,1.556,0.215,3.103,0.556,4.618c-2.066-0.535-2.972-2.687-2.922-4.652
		C123.744,846.647,123.794,838.242,123.769,829.842L123.769,829.842z"/>
	<path fill="#FEFFFE" d="M126.195,830.782c1.336,0.516,2.396,1.751,2.317,3.242c0.029,8.586,0.005,17.166,0.005,25.753
		c-0.45-0.021-1.356-0.056-1.807-0.071c-0.34-1.516-0.58-3.062-0.556-4.618C126.21,846.988,126.141,838.883,126.195,830.782
		L126.195,830.782z"/>
	<path fill="#A5ACAF" d="M68.402,836.101c2.691-1.852,5.988-2.512,9.161-3.017c0,0.855,0,1.711,0,2.571
		c-2.662,0.516-5.659,0.921-7.636,2.962c-1.156,1.206-0.601,2.896-0.25,4.303c-1.111-0.74-2.486-1.456-2.832-2.866
		C66.271,838.547,67.141,836.941,68.402,836.101L68.402,836.101z"/>
	<path fill="#A5ACAF" d="M106.843,834.745c0.485-0.171,0.971-0.341,1.461-0.506c0.015,0.135,0.045,0.41,0.06,0.551
		c0.235,0.135,0.706,0.405,0.941,0.54c-0.016,7.915,0.015,15.836-0.021,23.751c-0.005,1.736,0.205,3.463,0.415,5.184
		c-2.521-0.65-2.776-3.522-2.807-5.679C106.782,850.64,106.878,842.69,106.843,834.745L106.843,834.745z"/>
	<path fill="#A5ACAF" d="M218.457,835.064c2.643,2.197,4.558,5.449,4.453,8.967c0.511,6.114-4.873,11.757-10.933,11.933
		c-0.274,1.761-0.55,3.532-1.085,5.238c0.28-1.806,0.53-3.612,0.811-5.414c-0.676,0.105-1.346,0.221-2.017,0.341
		c-0.16,0.455-0.341,0.9-0.541,1.341c0-0.325,0.005-0.965,0.011-1.286c-0.806,0.056-1.602,0.116-2.402,0.19
		c-2.887,0.285-5.784,0.506-8.67,0.835c-0.035-0.9-0.065-1.801-0.101-2.701c4.658-0.455,9.316-0.956,13.984-1.296
		c5.674-0.626,9.356-6.74,8.775-12.128C220.674,838.862,219.608,836.896,218.457,835.064L218.457,835.064z"/>
	<path fill="#FEFFFE" d="M109.305,835.33c1.271,0.58,2.576,1.646,2.396,3.202c0.02,8.626,0.005,17.251,0.005,25.872
		c-0.671-0.035-1.341-0.084-2.007-0.141c-0.21-1.721-0.42-3.446-0.415-5.183C109.319,851.166,109.289,843.245,109.305,835.33
		L109.305,835.33z"/>
	<path fill="#A5ACAF" d="M70.063,843.091c0.815,0.51,1.646,1,2.486,1.471c0.025,0.76,0.05,1.521,0.075,2.281
		c-3.092,1.116-6.92,0.931-9.347-1.516c2.237,0.635,4.578,0.65,6.78-0.125C70.059,844.496,70.059,843.791,70.063,843.091
		L70.063,843.091z"/>
	<path fill="#A5ACAF" d="M194.256,851.995c0.336,0.196,1.006,0.586,1.341,0.781c-0.005,0.65-0.01,1.301-0.01,1.957
		c0.24,0,0.726,0.009,0.971,0.015c0.05,0.841,0.096,1.686,0.146,2.532c-4.979,0.654-9.963,1.239-14.92,2.03
		c-0.061-0.835-0.111-1.666-0.195-2.496c-0.306,0.01-0.91,0.025-1.217,0.034c4.618-0.665,9.236-1.325,13.875-1.855
		C194.256,853.992,194.271,852.992,194.256,851.995L194.256,851.995z"/>
	<path fill="#042244" d="M206.754,856.374c0.801-0.075,1.597-0.135,2.402-0.19c-0.006,0.321-0.01,0.961-0.01,1.286
		c-2.597,15.461-10.957,29.836-23.125,39.722c-11.854,9.746-27.26,15.065-42.609,14.675c-21.27-0.22-41.923-11.812-53.391-29.694
		c0.825-0.296,1.651-0.581,2.472-0.881c11.042,16.932,30.726,27.773,50.944,28.044c14.915,0.375,29.87-4.868,41.348-14.395
		C196.492,885.334,204.378,871.314,206.754,856.374L206.754,856.374z"/>
	<path fill="#FEFFFE" d="M209.687,856.129c0.67-0.12,1.341-0.235,2.017-0.341c-0.281,1.802-0.53,3.608-0.811,5.414
		c-2.853,13.435-10.042,25.883-20.118,35.194c-12.645,11.867-30.041,18.517-47.382,18.052
		c-22.355-0.095-44.085-12.374-55.958-31.271c0.856-0.351,1.717-0.69,2.587-1.005c11.468,17.882,32.122,29.475,53.391,29.694
		c15.351,0.391,30.756-4.929,42.609-14.675c12.168-9.886,20.528-24.261,23.125-39.722
		C209.346,857.029,209.526,856.584,209.687,856.129L209.687,856.129z"/>
	<path fill="#A5ACAF" d="M161.019,858.056c0.57,0.34,1.141,0.681,1.701,1.04c0.005,0.165,0.024,0.5,0.035,0.666
		c0.26-0.046,0.785-0.136,1.046-0.181c-0.391,0.86-0.49,1.807-0.601,2.742c-3.992,1.03-9.101,2.121-12.143-1.516
		c3.247,0.9,6.559,0.124,9.751-0.61C160.884,859.48,160.964,858.771,161.019,858.056L161.019,858.056z"/>
	<path fill="#042244" d="M117.204,875.271c25.217-7.205,50.909-13.039,77.012-15.855c0.01,0.785,0.021,1.571,0.024,2.356
		c0.006,1.406,0.006,2.807,0.011,4.213c-18.343,2.352-36.615,6.885-53.216,15.181c-5.804,3.002-11.393,6.609-15.876,11.412
		c-7.31-5.338-16.221-8.751-25.332-8.745c-0.005-0.961-0.005-1.927-0.005-2.888C105.502,878.724,111.36,876.998,117.204,875.271
		L117.204,875.271z"/>
	<path fill="#B51234" d="M202.441,859.116c0.961,0.24,1.921,0.47,2.887,0.705c-0.26,0.671-0.52,1.346-0.775,2.021
		c-1.211-0.255-2.422-0.561-3.532-1.11C201.486,860.192,201.967,859.651,202.441,859.116L202.441,859.116z"/>
	<path fill="#A5ACAF" d="M194.241,861.772c0.795-0.115,1.591-0.235,2.392-0.351c-0.104,2.172,0.29,4.418-0.175,6.539
		c-13.93,1.756-27.743,4.804-40.933,9.677c-10.207,3.857-20.443,8.666-28.149,16.602c-0.74-0.551-1.48-1.106-2.217-1.661
		c4.483-4.804,10.072-8.41,15.876-11.412c16.602-8.296,34.874-12.829,53.216-15.182C194.246,864.58,194.246,863.179,194.241,861.772
		L194.241,861.772z"/>
	<path fill="#A5ACAF" d="M144.418,861.833c0.65,0.17,1.301,0.335,1.956,0.505c0.064,1.121,0.125,2.241,0.189,3.362
		c-11.433,2.707-22.83,5.589-34.087,8.962c-3.908,1.31-8.546,0.885-11.673-1.977c2.856,0.9,5.974,1.105,8.855,0.215
		c11.378-3.452,22.881-6.479,34.448-9.231C144.212,863.054,144.312,862.443,144.418,861.833L144.418,861.833z"/>
	<path fill="#B51234" d="M181.143,863.409c3.572-0.511,7.145-1.045,10.747-1.306c0.005,0.61,0.01,1.226,0.02,1.841
		c-16.105,2.237-32.101,6.1-47.016,12.668c-7.235,3.293-14.405,7.19-19.988,12.949c-6.229-3.978-13.159-7.12-20.589-7.86
		c3.963-1.541,8.07-2.667,12.133-3.897C137.698,871.729,159.272,866.671,181.143,863.409L181.143,863.409z"/>
	<path fill="#B51234" d="M197.913,866.105c0.48-0.585,0.967-1.16,1.456-1.736c1.271,0.686,2.603,1.251,4.003,1.616
		c-0.29,0.721-0.586,1.446-0.871,2.167C200.836,867.802,199.335,867.001,197.913,866.105L197.913,866.105z"/>
	<path fill="#B51234" d="M191.359,871.549c0.686-0.62,1.376-1.23,2.076-1.836c1.771,0.5,3.947,2.651,5.653,1.081
		c0.74,0.24,1.477,0.5,2.217,0.755c-0.311,0.666-0.63,1.326-0.945,1.981c-0.771-0.23-1.531-0.47-2.292-0.7
		c-0.57,0.32-1.121,0.905-1.836,0.63C194.496,873.15,192.91,872.354,191.359,871.549L191.359,871.549z"/>
	<path fill="#B51234" d="M185.591,876.012c0.765-0.659,1.546-1.301,2.331-1.936c1.946,1.001,3.743,2.927,6.094,2.571
		c1.217,0.205,2.327,0.801,3.513,1.136c-0.605,0.751-1.056,1.802-2.021,2.122c-1.08-0.07-1.996-0.726-2.946-1.171
		C189.888,879.574,187.722,877.229,185.591,876.012L185.591,876.012z"/>
	<path fill="#A5ACAF" d="M93.233,876.482c0.821,0.271,1.646,0.545,2.472,0.815c0.006,0.905,0.016,1.812,0.025,2.723
		c-1.076,0.43-2.152,0.865-3.237,1.271c-0.82,0.3-1.646,0.585-2.472,0.881c-0.871,0.314-1.731,0.654-2.587,1.005
		c-3.542,1.466-7.135,2.808-10.667,4.288c0-0.956,0.005-1.906,0.01-2.856c5.414-2.267,10.888-4.368,16.396-6.38
		C93.193,877.644,93.213,877.063,93.233,876.482L93.233,876.482z"/>
	<path fill="#B51234" d="M180.651,881.306c-0.22-0.99,1.271-1.405,1.842-2.021c1.62,0.556,2.832,2.092,4.568,2.547
		c0.335-0.195,0.67-0.391,1.011-0.58c1.186,1.24,2.901,1.466,4.518,1.661c-0.63,0.665-1.226,1.386-1.991,1.896
		c-1.621,0.061-3.107-0.63-4.478-1.405C184.094,884.168,182.253,882.312,180.651,881.306L180.651,881.306z"/>
	<path fill="#B51234" d="M173.902,885.188c0.811-0.466,1.486-1.366,2.446-1.486c1.821,1.066,4.253,3.333,6.284,1.501
		c0.661,1.892,2.521,2.672,4.238,3.348c-0.746,0.48-1.387,1.291-2.297,1.416c-1.605-0.36-2.956-1.366-4.197-2.401
		C177.945,888.33,175.648,886.704,173.902,885.188L173.902,885.188z"/>
	<path fill="#B51234" d="M166.827,889.156c0.806-0.42,1.612-0.836,2.422-1.246c1.461,1.331,3.268,2.171,5.194,2.597
		c0.479-0.31,0.97-0.615,1.455-0.921c0.931,1.947,3.087,2.612,4.983,3.223c-0.721,0.695-1.596,1.181-2.432,1.716
		c-1.836-0.525-3.652-1.256-4.993-2.672C170.936,892.323,168.534,890.893,166.827,889.156L166.827,889.156z"/>
	<path fill="#FEFFFE" d="M207.745,889.336c0.63-0.6,1.61-0.716,2.412-0.425c0.715,0.385,0.8,1.296,1.146,1.961
		c0.91-0.53,2.156-0.98,3.077-0.21c1.261,0.891,1.12,2.712,0.67,4.003c-0.92,1.871-2.177,3.567-3.582,5.108
		c-0.04-0.306-0.12-0.911-0.16-1.211c-1.977-1.416-3.888-2.947-5.959-4.229c-0.36-0.024-1.081-0.074-1.44-0.1
		C205.198,892.618,206.164,890.707,207.745,889.336L207.745,889.336z"/>
	<path fill="#FEFFFE" d="M80.785,888.946c1.266,2.021,3.367,3.682,3.747,6.148c0.056,1.481-1.46,2.087-2.716,1.866
		c0.646,1.606-0.521,3.788-2.407,3.463c-3.052-0.32-4.338-3.617-6.204-5.619c1.727,0.045,2.872-1.376,4.183-2.266
		C78.634,891.457,80.455,890.747,80.785,888.946L80.785,888.946z"/>
	<path fill="#042244" d="M206.744,892.538c0.626-0.666,1.182-1.892,2.287-1.636c1.23,0.811,0.024,2.141-0.391,3.077
		C208.005,893.499,207.375,893.019,206.744,892.538L206.744,892.538z"/>
	<path fill="#042244" d="M79.97,893.965c-0.24-0.927,1-1.267,1.485-1.847c0.541,0.771,1.331,1.517,1.116,2.562
		C81.695,895.495,80.545,894.745,79.97,893.965L79.97,893.965z"/>
	<path fill="#B51234" d="M161.044,893.129c0.064-0.985,1.606-0.99,2.312-1.476c1.616,1.69,3.833,2.592,6.123,2.866
		c-0.324,0.461-1.09,0.756-0.935,1.421c1.32,0.946,2.916,1.352,4.442,1.826c-1.896,1.981-4.772,0.836-6.654-0.545
		c-0.516-0.386-0.66-1.04-0.9-1.591C163.891,894.96,162.27,894.314,161.044,893.129L161.044,893.129z"/>
	<path fill="#B51234" d="M104.546,892.599c1.611,0.524,2.657,1.826,2.892,3.518C105.932,895.46,104.896,894.189,104.546,892.599
		L104.546,892.599z"/>
	<path fill="#042244" d="M209.887,894.85c0.314-1.07,1.065-1.956,2.071-2.446c1.016-0.27,1.966,0.695,1.716,1.711
		c-0.34,0.881-0.98,1.597-1.546,2.337C211.388,895.905,210.642,895.37,209.887,894.85L209.887,894.85z"/>
	<path fill="#042244" d="M76.182,896.146c0.831-0.626,1.687-1.221,2.587-1.736c0.53,1.006,1.516,1.957,1.271,3.192
		c-0.305,0.891-1.476,1.116-2.181,0.57C77.178,897.606,76.707,896.847,76.182,896.146L76.182,896.146z"/>
	<path fill="#B51234" d="M154.344,895.785c0.741-0.31,1.486-0.609,2.232-0.915c2.026,1.517,4.423,2.406,6.925,2.727
		c-0.48,0.456-1.046,0.806-1.606,1.146c0.725,1.422,2.357,1.771,3.712,2.332c-2.006,1.682-5.729,0.135-6.169-2.392
		C157.611,897.997,155.595,897.377,154.344,895.785L154.344,895.785z"/>
	<path fill="#B51234" d="M108.984,895.53c0.87,0.255,1.696,0.631,2.496,1.046c0.39,0.94,0.831,1.856,1.271,2.776
		C111.09,898.537,109.314,897.526,108.984,895.53L108.984,895.53z"/>
	<path fill="#FEFFFE" d="M199.284,899.288c0.931-0.861,1.826-1.756,2.717-2.657c0.11,0.756,0.205,1.576,0.866,2.071
		c1.565,1.472,2.937,3.173,4.657,4.458c0.296,0.056,0.876,0.166,1.166,0.221c-0.755,0.815-1.506,1.69-2.562,2.131
		c-0.921,2.021-2.822,4.078-5.243,3.738c-2.632-1.057-3.663-4.488-6.585-4.969c0.916-0.86,1.801-1.745,2.682-2.642
		c0.025,1.861,1.841,2.776,2.907,4.048c0.811,0.726,1.836,2.111,3.066,1.391c1.446-0.655,2.758-2.892,1.137-4.068
		C202.557,901.705,201.436,899.588,199.284,899.288L199.284,899.288z"/>
	<path fill="#B51234" d="M114.058,897.642c0.846,0.4,1.676,0.836,2.501,1.291c0.381,0.896,0.786,1.781,1.196,2.672
		C115.793,901.164,114.393,899.588,114.058,897.642L114.058,897.642z"/>
	<path fill="#B51234" d="M148.33,898.042c0.74-0.245,1.48-0.49,2.227-0.735c1.672,1.575,3.688,2.736,5.914,3.322
		c-0.41,0.205-1.24,0.61-1.656,0.815c0.976,0.745,2.046,1.341,3.137,1.901c-2.006,1.046-5.293,0.075-5.424-2.442
		C151.027,900.108,149.477,899.333,148.33,898.042L148.33,898.042z"/>
	<path fill="#B51234" d="M119.471,899.673c0.82,0.2,1.616,0.496,2.387,0.846c0.605,1.071,1.421,1.997,2.146,2.982
		C121.902,903.105,120.111,901.76,119.471,899.673L119.471,899.673z"/>
	<path fill="#B51234" d="M142.776,899.743c0.856-0.17,1.712-0.325,2.577-0.455c1.36,1.386,3.087,2.297,4.748,3.268
		c-0.325,0.109-0.98,0.329-1.311,0.435c0.561,0.63,1.141,1.25,1.716,1.871c-1.646,0.46-3.207-0.05-4.304-1.341
		c0.206-0.346,0.416-0.686,0.621-1.025C145.363,901.774,143.822,901.049,142.776,899.743L142.776,899.743z"/>
	<path fill="#B51234" d="M124.824,900.754c0.766,0.05,1.526,0.115,2.292,0.186c0.846,1.07,1.826,2.031,2.922,2.852
		c-0.576,0.25-1.15,0.505-1.722,0.771C126.575,904.011,126.091,901.935,124.824,900.754L124.824,900.754z"/>
	<path fill="#B51234" d="M136.633,900.879c0.806-0.186,1.621-0.324,2.437-0.426c1.536,1.082,3.007,2.287,4.823,2.888
		c-0.34,0.189-1.011,0.57-1.346,0.761c0.54,0.55,1.086,1.095,1.631,1.641c-0.801,0.025-1.597,0.055-2.392,0.086
		c-0.871-0.666-1.812-1.376-1.666-2.602C138.859,902.6,137.674,901.825,136.633,900.879L136.633,900.879z"/>
	<path fill="#FEFFFE" d="M90.526,902.02c0.065-0.29,0.195-0.865,0.266-1.156c0.751,0.722,1.511,1.432,2.267,2.152
		c-0.916,3.497-2.692,6.885-2.566,10.567c-1.041-0.951-2.062-1.916-3.058-2.907c1.621,0.11,1.486-1.752,1.901-2.822
		c-0.961-0.841-1.892-1.706-2.817-2.576c-1.016,0.58-2.727,0.715-2.552,2.292c-0.91-0.876-1.826-1.741-2.731-2.622
		C84.562,904.946,87.395,902.885,90.526,902.02L90.526,902.02z"/>
	<path fill="#B51234" d="M130.834,901.254c0.875-0.05,1.746-0.08,2.621-0.101c1.352,1.342,3.043,2.227,4.733,3.053
		c-0.545,0.02-1.636,0.055-2.182,0.069c0.085,0.291,0.261,0.866,0.346,1.151c-1.376-0.166-2.917-0.631-3.228-2.182
		C132.35,902.6,131.574,901.944,130.834,901.254L130.834,901.254z"/>
	<path fill="#042244" d="M88.05,904.616c0.906-0.33,1.802-0.665,2.712-0.98c-0.284,0.891-0.575,1.771-0.855,2.666
		C89.281,905.742,88.665,905.182,88.05,904.616L88.05,904.616z"/>
	<path fill="#FEFFFE" d="M185.556,910.671c1.055-0.686,2.081-1.411,3.081-2.167c0.04,0.38,0.116,1.146,0.15,1.526
		c1.181,1.852,2.577,3.558,3.803,5.389c1.671-0.846,3.072-2.132,3.933-3.803c0.149,0.855,0.3,1.722,0.46,2.582
		c-1.946,1.485-3.947,2.896-5.969,4.288c0.035-0.341,0.104-1.012,0.14-1.352C189.253,915.028,188.292,911.846,185.556,910.671
		L185.556,910.671z"/>
	<path fill="#FEFFFE" d="M97.451,912.167c-0.865-1.392,0.365-3.323,1.946-3.243c2.171,0.105,3.982,1.526,5.414,3.042
		c-0.436,0.55-0.871,1.106-1.306,1.656c-0.611-1.495-2.017-3.257-3.838-2.757c-0.476,1.592,1.235,2.697,1.851,3.998
		c0.996,1.171,1.076,3.337-0.66,3.862c-2.712,0.796-5.203-1.086-6.915-2.986c0.281-0.776,0.561-1.551,0.846-2.321
		c0.806,2.036,2.447,3.902,4.793,3.982C100.458,915.309,98.042,913.968,97.451,912.167L97.451,912.167z"/>
	<path fill="#FEFFFE" d="M176.274,917.024c1.16-2.472,3.842-3.606,6.318-4.312c0.306,0.636,0.606,1.28,0.905,1.926
		c-2.086,0.04-4.662,0.775-5.333,3.018c-0.7,2.432,2.066,4.658,4.338,3.888c1.736-0.391,2.907-1.842,4.152-3.002
		c-0.159,0.9,0.406,2.132-0.44,2.816c-1.94,1.656-4.668,2.607-7.199,1.986C176.489,922.584,175.088,919.391,176.274,917.024
		L176.274,917.024z"/>
	<path fill="#FEFFFE" d="M108.613,913.958c2.017,0.976,4.033,1.936,6.104,2.797c-0.305,0.585-0.525,1.235-0.961,1.751
		c-0.915-0.801-1.921-1.501-3.092-1.866c-0.279,0.65-0.56,1.306-0.835,1.967c0.83,0.335,1.656,0.675,2.486,1
		c-0.271,0.596-0.535,1.195-0.806,1.801c-0.695-0.59-1.436-1.125-2.196-1.626c-0.45,0.846-0.891,1.701-1.336,2.562
		c1.535,1.055,3.287,1.78,5.188,1.59c-0.605,0.597-1.221,1.187-1.831,1.782c-2.276-0.996-4.493-2.127-6.784-3.103
		c1.751-0.65,2.082-2.602,2.867-4.072C108.019,917.075,109.18,915.629,108.613,913.958L108.613,913.958z"/>
	<path fill="#FEFFFE" d="M118.985,918.496c2.062,0.811,4.469,0.926,6.234,2.356c1.156,0.926,0.726,2.917-0.7,3.327
		c0.561,0.73,1.37,1.445,1.235,2.466c0.03,1.316-1.311,2.268-2.517,2.388c-2.432,0.29-4.708-0.846-7.024-1.371
		c1.536-0.91,1.566-2.812,2.102-4.322C118.71,921.748,119.561,920.152,118.985,918.496L118.985,918.496z"/>
	<path fill="#042244" d="M121.348,920.662c1.19,0.165,2.506,0.741,2.371,2.156c-1.011,0.245-2.041,0.215-3.057,0.065
		C120.893,922.143,121.122,921.403,121.348,920.662L121.348,920.662z"/>
	<path fill="#FEFFFE" d="M156.146,921.963c1.196-0.38,2.437-0.6,3.668-0.851c-0.115,0.355-0.346,1.07-0.461,1.426
		c0.355,2.188,0.861,4.349,1.341,6.51c1.856-0.135,3.657-0.7,5.074-1.956c-0.2,0.875-0.41,1.751-0.615,2.632
		c-2.367,0.47-4.724,0.996-7.095,1.456c0.95-1.547,0.074-3.232-0.176-4.854C157.506,924.795,157.576,922.964,156.146,921.963
		L156.146,921.963z"/>
	<path fill="#FEFFFE" d="M134.121,922.008c0.971,0.15,1.946,0.28,2.922,0.4c1.466,3.293,1.926,7.125,4.248,9.967
		c-1.396-0.115-2.787-0.275-4.179-0.42c0.2-0.2,0.601-0.611,0.801-0.815c-0.285-0.887-0.585-1.762-0.875-2.638
		c-1.222-0.109-2.437-0.265-3.663-0.295c-0.625,0.57-0.955,1.376-1.426,2.066c0.16,0.295,0.476,0.886,0.631,1.181
		c-1.221-0.12-2.441-0.226-3.662-0.336c1.831-1.641,2.861-3.902,4.207-5.914C133.695,924.225,134.671,923.229,134.121,922.008
		L134.121,922.008z"/>
	<path fill="#FEFFFE" d="M144.728,922.818c1.321-0.07,2.643-0.11,3.963-0.165c-0.275,0.466-0.785,0.846-0.806,1.427
		c0.171,2.146,0.285,4.297,0.355,6.454c1.881,0.154,3.753-0.15,5.354-1.191c-0.32,0.841-0.641,1.687-0.966,2.527
		c-2.472,0.075-4.928,0.359-7.4,0.4c0.23-0.261,0.691-0.786,0.921-1.052c-0.05-2.441-0.36-4.863-0.45-7.305
		C145.373,923.549,145.053,923.184,144.728,922.818L144.728,922.818z"/>
	<path fill="#042244" d="M120.302,924.155c1.355,0.21,2.651,0.785,3.422,1.976c-0.521,2.021-2.717,1.406-4.173,0.991
		C119.781,926.121,120.046,925.141,120.302,924.155L120.302,924.155z"/>
	<path fill="#042244" d="M134.03,926.717c0.49-0.806,0.966-1.637,1.691-2.252c0.26,0.82,0.505,1.651,0.74,2.486
		C135.652,926.876,134.842,926.796,134.03,926.717L134.03,926.717z"/>
</g>
</svg>
