<?xml version="1.0" encoding="utf-8"?>
<!-- Generator: Adobe Illustrator 14.0.0, SVG Export Plug-In . SVG Version: 6.00 Build 43363)  -->
<!DOCTYPE svg PUBLIC "-//W3C//DTD SVG 1.1//EN" "http://www.w3.org/Graphics/SVG/1.1/DTD/svg11.dtd">
<svg version="1.1" xmlns="http://www.w3.org/2000/svg" xmlns:xlink="http://www.w3.org/1999/xlink" x="0px" y="0px" width="200px"
	 height="200px" viewBox="44 746 200 200" enable-background="new 44 746 200 200" xml:space="preserve">
<g id="Layer_1">
	<g>
		<path fill="#FFFFFF" d="M143.997,946C199.227,946,244,901.227,244,846.001C244,790.774,199.227,746,143.997,746
			C88.772,746,44,790.774,44,846.001C44,901.227,88.772,946,143.997,946"/>
		<path fill="#F37937" d="M219.75,801.444l-1.764-2.97c0,0.394,0.047,2.947-0.694,3.323c0.216,1.745-0.301,3.692-0.976,4.842
			l1.764,2.135c0.873-1.765,1.275-4.486,1.154-5.884C219.45,802.152,219.686,802.251,219.75,801.444"/>
		<path fill="#F37937" d="M214.73,794.016l-1.85-2.046c-0.282,1.023-1.117,1.398-1.952,2.046c0.461,2.041,1.399,5.011,0.835,7.981
			l2.036,2.14c0.47-3.346,0.188-6.875-0.364-8.633C214.083,795.039,214.73,794.016,214.73,794.016"/>
		<path fill="#F37937" d="M207.954,787.981l-1.661-1.67c-0.281,1.023-1.397,1.389-2.234,2.041c0.93,1.671,1.672,5.387,1.306,9.192
			l2.589,1.854c0.189-5.753-0.647-8.075-1.567-9.84C207.4,788.911,207.954,787.981,207.954,787.981"/>
		<path fill="#F37937" d="M199.049,784.641c1.023-0.653,2.036-1.765,2.036-1.765l-2.224-1.3c-0.647,1.3-1.482,1.206-2.318,1.854
			c0.929,1.675,2.693,5.105,2.318,8.915l2.599,1.853C201.085,788.258,200.438,785.012,199.049,784.641"/>
		<path fill="#F37937" d="M191.897,777.494c-0.646,0.924-2.318,1.577-3.153,2.224c0.93,1.67,2.693,3.805,2.318,7.616l2.975,1.666
			c-0.188-4.824-1.304-7.888-2.693-8.258c1.39-0.652,3.069-2.323,3.069-2.323"/>
		<path fill="#F37937" d="M181.415,776.19c0.928,1.671,2.589,4.181,2.224,7.986l2.976,1.482c-0.197-4.641-1.306-7.798-2.694-8.164
			c1.85-0.84,3.435-2.604,3.435-2.604l-2.786-0.924C183.92,775.266,182.25,775.542,181.415,776.19"/>
		<path fill="#F37937" d="M172.688,773.313c0.93,1.671,2.413,3.711,2.046,7.521l2.777,1.111c-0.563-5.757-1.116-7.239-2.506-7.61
			c1.671-0.929,3.717-2.877,3.717-2.877l-2.881-0.746C175.193,772.014,173.514,772.667,172.688,773.313"/>
		<path fill="#F37937" d="M167.667,767.838c-0.647,1.3-2.31,1.947-3.153,2.599c0.929,1.671,2.599,4.453,2.233,8.264l2.881,0.835
			c-0.562-5.57-1.22-7.986-2.608-8.357c1.023-0.652,3.528-2.875,3.528-2.875"/>
		<path fill="#F37937" d="M158.948,765.609c-1.117,1.3-3.257,2.323-4.082,2.97c0.919,1.67,3.341,4.363,2.965,8.169l2.601,0.371
			c-0.741-6.123-1.858-7.053-3.246-7.423c1.022-0.652,4.822-3.623,4.822-3.623"/>
		<path fill="#F37937" d="M150.961,763.938c-1.951,2.229-3.717,3.059-4.549,3.711c1.482,0.746,2.691,3.251,2.322,7.057l2.969,0.746
			c-0.179-4.833-1.295-6.687-2.691-7.057c1.022-0.653,5.011-4.181,5.011-4.181"/>
		<path fill="#F37937" d="M134.348,766.721c0.157,0.131,0.692,0.305,1.154,0.675c0.825,0.671,1.989,2.595,1.909,6.799l2.596,0.188
			c-0.139-4.829-1.35-6.372-1.819-6.762c-0.345-0.375-1.08-0.436-1.429-0.525c1.964-0.779,5.01-3.994,5.01-3.994l-2.688-0.277
			C138.615,763.938,135.18,766.073,134.348,766.721"/>
		<path fill="#F37937" d="M124.317,762.916l-2.785,0.282c-0.276,1.482-1.109,3.34-1.944,3.988c0.924,1.675,0.924,4.087-0.561,7.151
			l2.784-0.188c1.482-3.711,1.116-5.57,0.282-6.869C123.116,766.631,124.317,762.916,124.317,762.916"/>
		<path fill="#F37937" d="M133.23,762.545l-3.247,0.465c-0.649,1.3-2.416,3.251-3.245,3.899c0.877,0.371,1.571,1.206,1.39,7.24
			l2.923-0.183c-0.184-6.686-1.438-6.686-1.907-6.686C130.165,766.631,133.23,762.545,133.23,762.545"/>
		<path fill="#F37937" d="M111.881,768.115c0.886,0.296,0.448,1.375-0.117,2.777c-0.498,1.243-1.134,2.191-1.833,3.627l2.782-0.184
			c1.861-3.158,3.252-6.221,1.861-6.592c1.021-0.647,2.319-3.899,2.319-3.899l-3.062,0.835
			C113.46,766.355,112.713,767.462,111.881,768.115"/>
		<path fill="#F37937" d="M104.881,769.138c0.238,1.45-0.264,2.745-2.373,5.94l2.611-0.338c2.543-3.28,2.32-4.819,2.294-5.945
			c1.099-0.671,2.38-3.261,2.38-3.261l-2.777,0.521C106.521,767.407,105.799,768.467,104.881,769.138"/>
		<path fill="#F37937" d="M67.879,818.707c-0.929-3.158,0.386-6.157,0.946-8.381l-1.875-0.53c-1.487,3.158-1.114,6.123-0.559,8.356
			c-1.485,1.482-2.667,2.379-3.596,5.166l1.47,0.929C64.451,822.207,66.023,820.194,67.879,818.707"/>
		<path fill="#F37937" d="M71.591,811.096c-0.997,3.378-1.111,6.499-0.557,8.727c-1.489,1.488-3.594,2.553-4.524,5.34l1.841,0.938
			c0.742-2.042,2.684-4.791,4.729-5.354c-0.927-3.153,0.096-6.598,0.654-8.822"/>
		<path fill="#004784" d="M87.614,904.005l5.567,0.01v-10.596c-1.901-0.732-3.755-1.512-5.567-2.328"/>
		<path fill="#004784" d="M80.558,903.995l5.567,0.01v-13.607c-1.924-0.92-3.789-1.896-5.567-2.937"/>
		<path fill="#004784" d="M219.853,880.739c-0.055,0-0.158,0-0.271,0v11.366c1.501-2.469,2.898-5.012,4.156-7.621l-3.631-3.491
			C220.107,880.993,219.986,880.862,219.853,880.739"/>
		<path fill="#004784" d="M154.097,908.771c-1.305,2.046-4.345,4.899-6.384,6.016l-1.487-1.304c2.013-0.92,4.418-3.5,5.712-5.302
			l-71.02-0.095c16.073,16.329,38.411,26.466,63.078,26.466c7.838,0,15.449-1.023,22.685-2.947c2.083-1.145,3.115-2.168,3.782-3.152
			l1.379,0.534l-1.68,1.624c1.313-0.413,2.627-0.854,3.913-1.323l-1.671,0.262c2.787-1.116,4.373-2.533,5.855-4.016l1.201,0.3
			c-1.709,1.849-2.328,2.177-3.444,2.73c11.702-4.562,22.204-11.534,30.894-20.308l-53.397-0.075 M133.974,912.281l-1.7-1.952
			c2.227,0.376,7.085,0.188,11.17-0.365l1.116,1.389C141.585,912.094,137.5,912.47,133.974,912.281z M136.791,915.81
			c7.951,0.094,9.528-0.374,10.828-0.929l1.579,1.482c-2.972,0.742-4.591,1.127-10.528,1.314L136.791,915.81z M144.27,922.577
			l-2.413-1.67c2.971,0.364,8.055-0.376,11.021-1.399l1.867,1.295C151.77,921.554,147.61,922.765,144.27,922.577z M148.365,925.655
			c3.714-0.366,6.501-1.221,8.913-3.257l1.2,0.656c0.93,0.921-4.073,3.707-7.968,3.896L148.365,925.655z M174.64,924.115
			l1.296,0.376c-2.233,2.411-2.788,2.974-4.834,4.081l-1.295-0.544C172.228,926.912,173.335,925.796,174.64,924.115z
			 M170.819,922.191l1.305,0.742c-2.027,2.393-3.415,3.115-5.424,4.214l0.506,0.169c1.117,0.375-2.309,3.5-5.489,3.876l-2.534-0.545
			c4.373-0.994,5.95-2.44,6.917-3.697l0.14,0.048l-1.069-0.461C167.948,925.421,168.972,924.416,170.819,922.191z M166.625,919.667
			l1.483,1.032c-1.306,2.046-3.501,3.379-5.547,4.496l-0.433-0.244l0.433,0.328c1.304,0.179-0.761,2.957-6.513,4.063l-2.158-0.723
			c6.034-1.285,7.16-2.928,7.9-3.857l-0.899-0.506C163.312,923.139,165.696,921.338,166.625,919.667z M162.177,916.308l1.493,1.304
			c-1.305,2.046-3.886,3.867-5.932,4.982l-1.482-0.928C158.668,920.549,161.258,917.987,162.177,916.308z M157.682,912.037
			l1.296,1.502c-1.296,2.14-3.867,4.852-5.913,5.969l-1.67-1.117C153.807,917.274,156.949,913.21,157.682,912.037z"/>
		<path fill="#004784" d="M215.377,880.739c-1.774,1.521-3.791,2.995-5.979,4.394v19.041h1.305c1.681-1.924,3.275-3.923,4.786-5.988
			v-17.446C215.442,880.739,215.396,880.739,215.377,880.739"/>
		<path fill="#004784" d="M157.128,858.574c0.376-0.46,0.563-0.892,0.563-1.22c0-0.16-0.047-0.292-0.132-0.404
			c-0.319-0.356-1.323-0.534-2.562,0.207c-1.989,1.184-3.538,3.229-4.307,4.843C152.68,861.624,155.627,860.451,157.128,858.574"/>
		<path fill="#004784" d="M79.07,886.568c-2.191-1.352-4.25-2.796-6.128-4.346c-0.038,0-0.098,0-0.18,0v16.32
			c1.387,1.878,2.841,3.698,4.369,5.452h1.938"/>
		<path fill="#004784" d="M202.343,904.164l5.574,0.01v-18.111c-1.765,1.061-3.622,2.093-5.574,3.068"/>
		<path fill="#004784" d="M195.285,904.155l5.573,0.009v-14.292c-1.791,0.862-3.659,1.688-5.573,2.486"/>
		<path fill="#004784" d="M188.237,904.145l5.565,0.011v-11.197c-1.821,0.732-3.678,1.418-5.565,2.074"/>
		<path fill="#004784" d="M64.711,885.404c1.215,2.44,2.541,4.814,3.969,7.112V882.26C68.158,882.739,66.476,884.231,64.711,885.404
			"/>
		<path fill="#004784" d="M225.879,861.229v-8.914h-4.459v5.198h-3.716v-47.53h-10.398v24.133h-7.789v-28.215l-1.417-1.225v-3.341
			l-3.05-1.379v-4.068h-5.077v4.068l-3.04,1.379v3.341l-1.407,1.225v5.565h-7.554v-16.338h-6.307v-7.794h-4.082v-4.086h-9.291v4.086
			h-3.342v12.993h-5.03v-15.146l-1.927-1.304v-6.494l-2.966-2.229v-9.048l-1.107-1.294l-0.45-4.35h-0.614l-0.55,4.35l-1.196,1.294
			v9.047l-2.964,2.229v6.494l-1.927,1.304v13.185h-8.373v-10.289h-12.251v10.022l-2.603,1.117v18.192h-8.909v-15.222l-0.93-0.929
			v-7.982h-0.924l-2.189-8.399c0.075-0.403,0.127-0.91,0.127-1.478c0-1.268-0.241-1.759-0.532-1.759
			c-0.285,0-0.521,0.493-0.521,1.759c0,0.624,0.055,1.192,0.149,1.605l-2.236,8.272h-0.93v7.982l-0.931,0.928v16.563h-9.836
			c0,0,0-0.417,0-1.098c-0.558,2.229-2.024,5.94-1.3,9l-0.238-0.15l0.795,0.563c-2.046,0.558-5.387,3.346-6.128,5.387l-1.859-1.493
			c0.922-2.759,3.28-3.374,6.04-5.199l-0.658-0.409c-0.109-2.712-0.096-5.725,1.387-8.882l1.962,1.182c0-2.768,0-9.957,0-11.153
			c0-1.67-2.418-1.712-2.418-1.712v-2.988l-2.042-0.558l-0.182-1.281l-0.559-0.184l-0.555,0.184l-0.188,1.281l-2.041,0.558v2.988
			c0,0-2.411-0.141-2.411,1.901c0,0.929,0,15.958,0,15.958l-3.902,2.562v9.469l-1.489,0.835v7.245l-1.387,0.83v13.46h-0.28h-2.505
			v-13.367H64.72l-1.669-14.546l-0.835-0.028l-1.769,14.574h-1.015v10.683h-2.139c0,0-1.331,1.116-1.265,1.68
			c0.308,2.759,0.742,5.471,1.298,8.136c0.027,0.16,0.063,0.31,0.101,0.47c0.101,0.47,0.202,0.948,0.314,1.427
			c1.456,6.268,3.587,12.294,6.309,17.98c1.928-1.304,3.858-3.097,3.875-3.115l0.213-0.197h5.301l0.211,0.169
			c16.425,13.721,46.913,19.558,66.152,20.487l-1.372-0.62c1.854-1.304,4.271-4.156,4.454-4.908l1.384,1.681
			c-0.845,1.351-2.233,2.928-3.465,3.895c1.194,0.047,2.344,0.075,3.437,0.085c21.549,0.196,54.977-8.633,70.404-22.092l0.217-0.188
			h5.303h0.309l0.695,0.703l3.237,3.115c2.891-6.24,5.077-12.856,6.447-19.772l-0.893-2.064 M74.005,829.288l-1.853-1.482
			c0.917-2.764,3.842-3.515,5.342-4.979l-0.332-0.16c-0.367-3.716-0.842-6.118,0.271-9.271l2.144,1.097
			c-0.559,2.229-1.116,6.128-0.188,9.282l0.559,0.319C77.906,824.651,74.747,827.251,74.005,829.288z M98.514,842.285
			c-0.188-2.229,1.888-6.015,3.914-8.938l1.67,2.425c-1.661,1.849-3.883,5.542-3.73,8.498l0.555,0.615
			c-2.598,0.375-7.329,1.301-8.631,3.158l-1.656-2.431c2.593-2.036,4.613-1.938,8.39-2.758L98.514,842.285z M100.556,850.832
			l-0.188,2.318c-1.646,0.253-3.381,0.853-4.596,1.68l-0.817-1.942l0.4-0.206C97.211,851.752,99.259,851.197,100.556,850.832z
			 M95.087,825.276l1.94,1.976c-0.739,2.028-2.391,6.26-2.046,9.774l0.563,0.62c-2.6,0.371-6.504,2.412-7.801,4.271l-1.454-1.986
			c1.653-2.581,5.842-3.749,7.36-4.312l-0.523-0.573C92.572,832.633,93.412,830.099,95.087,825.276z M88.422,830.427l-0.539-0.671
			c-1.065-0.652,0.604-5.828,1.905-8.835l1.952,1.684c-0.731,2.022-2.464,5.851-2.372,8.896l0.605,0.76
			c-3.53,0.93-6.782,2.516-7.128,3.951l-1.754-1.586C81.615,832.464,85.994,831.353,88.422,830.427z M122.276,881.464
			c-0.371-1.482,0.186-2.225,0.746-3.718l1.295,2.046c-0.552,1.296-0.552,3.529-0.552,3.529l-0.502-0.62l1.053,2.103
			c-1.856-0.563-7.05-0.375-8.54-0.375l1.49-1.942c2.207-0.189,3.693-0.282,5.898,0.084L122.276,881.464z M118.079,890.885
			c3.479-0.366,8.13-0.619,9.673-0.272l-0.642-0.787c-0.018-1.239,2.065-3.95,3.806-5.866c0,0,1.89,0.386,3.097,0.085
			c-1.606,1.802-3.235,3.538-4.139,4.74c-0.872,1.173-1.124,2.44-0.776,3.434l0.734,0.901c-1.855-0.364-8.555-0.271-10.408-0.085
			L118.079,890.885z M134.348,897.426c-0.392,0.629,1.029,1.953,1.134,2.046h0.004h-0.004c-1.86-0.375-9.709-0.085-11.564,0.104
			l-1.755-2.516c3.527-0.376,10.295-0.01,11.627,0.742c1.307,0.731,0.092,0,0.092,0l-1.307-0.451
			c-0.927-2.224,4.383-7.366,5.134-8.474l1.536,2.299C135.899,894.573,135.002,896.364,134.348,897.426z M204.182,846.828
			c0,0-3.949,0.061-6.653,0.098c1.371,0.704,5.734,2.948,5.734,2.948l-0.657,0.909c-0.834,1.147-1.145,2.18-1.145,3.249
			c0,1.191,0.385,2.432,0.845,3.933c0.638,2.083,1.39,4.523,1.39,7.715c0,1.275-0.122,2.664-0.413,4.194
			c-0.798,4.204-6.26,12.754-17.334,10.781c-1.97-0.356-3.923-1.558-5.658-2.759c-3.125,2.666-7.235,3.96-10.802,3.144
			c-2.834-0.647-4.937-2.533-5.921-5.077c-7.16,6.963-16.82,6.202-20.255,4.194l-0.028-0.009c-0.935-0.582-1.605-1.314-2.292-2.046
			c-1.621,1.596-5.236,4.252-9.499,3.771c-2.83-0.394-4.969-1.989-6.187-4.627c-0.758-1.65-1.123-3.688-1.123-5.902
			c0-2.628,0.656-5.435,1.621-8.192c-1.805,2.815-3.618,5.753-5.317,8.559c-2.503,4.14-4.669,7.715-6.128,9.619l-0.289,0.376
			h-11.869l0.942-1.475c1.835-2.891,4.411-10.979,6.03-18.618c-3.277,6.804-9.381,17.285-17.104,20.278
			c-2.933,1.137-5.828,1.071-8.609-0.187c-2.079-0.938-3.433-2.656-3.915-4.975c-1.021-4.908,2.104-12.087,5.578-15.924l0.164-0.18
			l10.439-3.743l-1.712,2.468c-2.373,3.406-4.566,8.446-3.936,10.22c0.099,0.281,0.248,0.376,0.437,0.432
			c4.225,1.21,11.188-14.902,16.28-26.668c3.706-8.586,7.214-16.695,10.119-20.19l0.286-0.343l12.341-0.094l1.614-0.009
			l-0.755,1.422c-2.258,4.214-4.515,13.771-6.328,21.453c0,0-0.642,2.59-1.25,5.029c1.164-1.899,2.365-3.866,2.365-3.866
			c4.992-8.296,11.205-18.628,16.209-23.658l0.281-0.282h14.999l-0.778,1.417c-6.232,11.378-22.79,41.585-19.33,47.328
			c0.069,0.113,0.107,0.113,0.129,0.113c0.259,0.028,0.739-0.263,1.15-0.602c-0.043-0.432-0.082-0.872-0.082-1.313
			c0-8.267,6.456-17.173,14.923-20.112c5.256-1.825,10.454-0.765,12.94,2.629c0.938,1.276,1.399,2.75,1.399,4.327
			c0,2.092-0.825,4.362-2.46,6.55c-1.604,2.147-5.762,5.724-14.939,6.831c0.366,1.22,0.976,1.971,2.233,2.036
			c7.423,0.394,13.768-7.967,16.066-12.407c0,0,4.672-10.151,5.725-12.441c-2.158,0.09-9.348,0.366-9.348,0.366l4.569-9.32
			c0,0,8.138-0.137,9.188-0.149c0.449-0.972,4.775-10.117,4.775-10.117l12.857-0.104c0,0-3.81,7.996-4.805,10.065
			c2.562-0.038,17.051-0.263,17.051-0.263L204.182,846.828z"/>
		<path fill="#004784" d="M176.554,868.325c1.341-1.578,3.425-4.205,5.367-6.673c7.235-9.15,10.689-13.243,12.669-14.68
			c-4.055,0.061-7.564,0.118-8.117,0.126c-0.038,0.075-9.375,19.922-9.375,19.922C176.845,867.517,176.693,867.931,176.554,868.325"
			/>
		<path fill="#004784" d="M186.557,871.432c0,0.168,0.02,0.338,0.067,0.498c0.149,0.506,0.534,0.807,0.844,0.872
			c0.985,0.207,1.896,0.018,2.702-0.573c1.296-0.919,2.141-2.701,2.28-3.895c0.112-0.9,0.15-1.736,0.15-2.524
			c0-1.595-0.168-3.003-0.356-4.476c0,0-0.056-0.536-0.085-0.883c-1.417,1.689-2.898,3.557-4.598,6.223
			c0.271,0.291,1.182,1.257,1.182,1.257l-0.647,0.667C187.103,869.592,186.557,870.597,186.557,871.432"/>
		<path fill="#004784" d="M108.777,904.034l5.572,0.008v-4.504c-1.852-0.394-3.715-0.815-5.572-1.268"/>
		<path fill="#004784" d="M94.666,904.015l5.571,0.009v-8.155c-1.88-0.581-3.738-1.22-5.571-1.895"/>
		<path fill="#004784" d="M115.834,904.052h5.567v-3.191c-1.832-0.3-3.692-0.639-5.567-1.013"/>
		<path fill="#004784" d="M101.725,904.023l5.569,0.011v-6.147c-1.865-0.479-3.724-0.995-5.569-1.558"/>
		<path fill="#004784" d="M181.18,904.137l5.566,0.01v-8.606c-1.83,0.619-3.688,1.192-5.566,1.736"/>
		<path fill="#004784" d="M122.889,901.104v2.956l42.695,0.057v-3.163c-7.639,1.389-15.007,2.121-21.361,2.064
			C138.323,902.963,130.882,902.362,122.889,901.104"/>
		<path fill="#004784" d="M174.122,904.127l5.574,0.01v-6.43c-1.856,0.526-3.716,1.005-5.574,1.445"/>
		<path fill="#004784" d="M167.074,904.117l5.566,0.01v-4.618c-1.867,0.434-3.727,0.826-5.566,1.174"/>
		<path fill="#F37937" d="M79.389,823.774c-0.929-3.154-0.371-7.053,0.189-9.282l-2.145-1.097c-1.111,3.153-0.639,5.556-0.271,9.271
			l0.331,0.16c-1.499,1.463-4.425,2.214-5.342,4.979l1.853,1.482c0.742-2.037,3.901-4.636,5.942-5.194"/>
		<path fill="#F37937" d="M81.984,825.351l0.657,0.408c-2.76,1.825-5.118,2.439-6.039,5.199l1.858,1.493
			c0.742-2.041,4.082-4.829,6.128-5.387l-0.795-0.563l0.239,0.15c-0.725-3.059,0.741-6.771,1.3-9l-1.961-1.183
			C81.888,819.627,81.873,822.638,81.984,825.351"/>
		<path fill="#F37937" d="M89.973,832.263l-0.606-0.76c-0.091-3.045,1.641-6.875,2.373-8.897l-1.953-1.684
			c-1.3,3.007-2.97,8.184-1.904,8.835l0.539,0.671c-2.429,0.924-6.806,2.036-7.332,4.199l1.754,1.586
			C83.189,834.778,86.441,833.191,89.973,832.263"/>
		<path fill="#F37937" d="M93.649,835.618c-1.518,0.563-5.706,1.731-7.36,4.312l1.454,1.985c1.298-1.858,5.202-3.899,7.802-4.271
			l-0.564-0.62c-0.344-3.514,1.307-7.746,2.046-9.774l-1.939-1.976c-1.675,4.824-2.515,7.358-1.962,9.769"/>
		<path fill="#F37937" d="M95.771,854.83c1.215-0.825,2.949-1.427,4.596-1.68l0.188-2.318c-1.297,0.365-3.346,0.92-5.201,1.85
			l-0.4,0.206"/>
		<path fill="#F37937" d="M92.293,848.043c1.302-1.859,6.033-2.783,8.631-3.158l-0.555-0.616c-0.153-2.956,2.068-6.649,3.73-8.497
			l-1.67-2.427c-2.028,2.924-4.102,6.711-3.914,8.939l0.512,0.568c-3.777,0.821-5.797,0.723-8.389,2.759"/>
		<path fill="#F37937" d="M117.268,882.486l-1.49,1.942c1.49,0,6.685-0.188,8.54,0.375l-1.053-2.103l0.503,0.62
			c0,0,0-2.233,0.551-3.529l-1.295-2.046c-0.562,1.493-1.116,2.235-0.745,3.718l0.889,1.106
			C120.96,882.204,119.476,882.299,117.268,882.486"/>
		<path fill="#F37937" d="M129.833,893.118l-0.733-0.9c-0.348-0.995-0.098-2.262,0.776-3.435c0.903-1.201,2.531-2.938,4.139-4.739
			c-1.209,0.299-3.098-0.086-3.098-0.086c-1.74,1.915-3.823,4.628-3.805,5.866l0.641,0.787c-1.544-0.347-6.194-0.093-9.673,0.273
			l1.348,2.148C121.278,892.847,127.978,892.753,129.833,893.118"/>
		<path fill="#F37937" d="M132.573,897.351l1.307,0.451c0,0,1.216,0.731-0.092,0c-1.333-0.751-8.099-1.118-11.627-0.742l1.754,2.516
			c1.856-0.188,9.705-0.479,11.564-0.104c-0.103-0.093-1.525-1.417-1.133-2.046c0.655-1.06,1.553-2.853,4.896-6.25l-1.536-2.299
			C136.956,889.984,131.646,895.127,132.573,897.351"/>
		<path fill="#F37937" d="M144.27,897.548l-1.385-1.681c-0.184,0.751-2.6,3.604-4.453,4.908l1.372,0.62
			c0.337,0.018,0.669,0.027,1.001,0.047C142.035,900.476,143.424,898.898,144.27,897.548"/>
		<path fill="#F37937" d="M143.443,909.964c-4.084,0.554-8.943,0.741-11.17,0.365l1.7,1.952c3.526,0.188,7.611-0.188,10.586-0.929"
			/>
		<path fill="#F37937" d="M147.619,914.881c-1.3,0.555-2.877,1.023-10.828,0.929l1.877,1.868c5.938-0.188,7.557-0.573,10.529-1.314"
			/>
		<path fill="#F37937" d="M152.877,919.508c-2.967,1.023-8.05,1.764-11.021,1.399l2.412,1.67c3.342,0.188,7.501-1.023,10.477-1.774"
			/>
		<path fill="#F37937" d="M158.479,923.055l-1.201-0.656c-2.412,2.036-5.199,2.891-8.912,3.257l2.146,1.295
			C154.405,926.762,159.408,923.974,158.479,923.055"/>
		<path fill="#F37937" d="M146.226,913.482l1.487,1.304c2.039-1.116,5.079-3.97,6.384-6.016l-0.582-0.591h-1.577
			C150.644,909.982,148.238,912.563,146.226,913.482"/>
		<path fill="#F37937" d="M153.064,919.508c2.046-1.117,4.617-3.829,5.913-5.969l-1.296-1.502c-0.732,1.173-3.875,5.237-6.287,6.354
			"/>
		<path fill="#F37937" d="M157.737,922.595c2.046-1.116,4.627-2.936,5.931-4.981l-1.491-1.305c-0.92,1.68-3.511,4.241-5.922,5.358"
			/>
		<path fill="#F37937" d="M161.793,924.763c-0.742,0.93-1.868,2.572-7.902,3.857l2.158,0.723c5.752-1.106,7.817-3.885,6.513-4.063
			l-0.432-0.328l0.432,0.244c2.046-1.117,4.243-2.449,5.547-4.496l-1.483-1.032c-0.928,1.671-3.312,3.472-5.733,4.589"/>
		<path fill="#F37937" d="M166.239,926.996l-0.14-0.047c-0.967,1.258-2.544,2.702-6.917,3.697l2.534,0.544
			c3.181-0.374,6.606-3.499,5.489-3.875l-0.506-0.169c2.009-1.098,3.396-1.82,5.424-4.215l-1.305-0.741
			c-1.848,2.225-2.871,3.229-5.649,4.347"/>
		<path fill="#F37937" d="M171.102,928.573c2.046-1.107,2.599-1.671,4.832-4.082l-1.294-0.375c-1.305,1.681-2.413,2.796-4.834,3.913
			"/>
		<path fill="#FFFFFF" d="M220.473,879.249h-0.309h-5.303l-0.215,0.187c-15.43,13.457-48.856,22.289-70.405,22.092
			c-1.094-0.01-2.243-0.037-3.437-0.085c-0.332-0.019-0.664-0.028-1.001-0.047c-19.239-0.93-49.728-6.766-66.153-20.486l-0.21-0.17
			H68.14l-0.213,0.197c-0.018,0.018-1.946,1.812-3.876,3.116c0.216,0.45,0.44,0.9,0.662,1.351c1.765-1.173,3.446-2.665,3.967-3.144
			v10.257c1.286,2.075,2.649,4.083,4.085,6.025v-16.319c0.082,0,0.142,0,0.179,0c1.879,1.548,3.937,2.994,6.128,4.346v17.427h-1.937
			c1.214,1.397,2.486,2.768,3.786,4.091l71.021,0.094h1.576l53.397,0.075c1.304-1.323,2.571-2.685,3.792-4.081h-1.305v-19.042
			c2.188-1.399,4.204-2.872,5.979-4.393c0.019,0,0.064,0,0.112,0v17.445c1.444-1.97,2.806-3.997,4.092-6.08v-11.365
			c0.112,0,0.216,0,0.271,0c0.132,0.121,0.255,0.253,0.255,0.253l3.63,3.491c0.236-0.469,0.451-0.948,0.667-1.416l-3.237-3.116
			 M86.125,904.005l-5.567-0.01v-16.536c1.778,1.042,3.644,2.018,5.567,2.938V904.005z M93.183,904.015l-5.567-0.01v-12.914
			c1.812,0.816,3.667,1.596,5.567,2.328V904.015z M100.237,904.023l-5.571-0.009v-10.043c1.833,0.677,3.691,1.313,5.571,1.896
			V904.023z M107.294,904.034l-5.569-0.011v-7.694c1.846,0.562,3.703,1.079,5.569,1.558V904.034z M114.349,904.042l-5.573-0.01
			v-5.762c1.858,0.451,3.721,0.872,5.573,1.267V904.042z M121.4,904.052h-5.566v-4.204c1.875,0.374,3.734,0.713,5.566,1.013V904.052
			z M165.584,904.117l-42.695-0.057v-2.956c7.993,1.258,15.435,1.858,21.333,1.914c6.355,0.057,13.722-0.676,21.362-2.064V904.117z
			 M172.641,904.127l-5.566-0.01v-3.435c1.84-0.348,3.699-0.742,5.566-1.174V904.127z M179.697,904.137l-5.573-0.01v-4.975
			c1.857-0.44,3.716-0.919,5.573-1.445V904.137z M186.746,904.145l-5.566-0.008v-6.86c1.878-0.545,3.735-1.117,5.566-1.737V904.145z
			 M193.803,904.155l-5.565-0.011v-9.111c1.888-0.657,3.744-1.341,5.565-2.073V904.155z M200.858,904.164l-5.573-0.009v-11.797
			c1.915-0.798,3.782-1.624,5.573-2.486V904.164z M207.917,904.174l-5.574-0.01V889.13c1.952-0.976,3.81-2.007,5.574-3.068V904.174z
			"/>
		<path fill="#F37937" d="M143.997,752.175c-51.735,0-93.827,42.089-93.827,93.826c0,51.734,42.093,93.823,93.827,93.823
			c51.739,0,93.828-42.089,93.828-93.823C237.825,794.264,195.736,752.175,143.997,752.175 M224.405,883.067
			c-0.217,0.469-0.433,0.948-0.667,1.417c-1.258,2.609-2.656,5.152-4.157,7.621c-1.286,2.083-2.646,4.11-4.091,6.08
			c-1.512,2.065-3.106,4.064-4.786,5.988c-1.22,1.398-2.487,2.76-3.792,4.082c-8.69,8.774-19.19,15.747-30.893,20.308
			c1.117-0.554,1.735-0.882,3.444-2.73l-1.201-0.3c-1.482,1.482-3.069,2.899-5.856,4.016l1.671-0.263
			c-1.286,0.47-2.599,0.911-3.913,1.324l1.68-1.624l-1.379-0.535c-0.666,0.986-1.697,2.009-3.781,3.154
			c-7.236,1.924-14.847,2.946-22.686,2.946c-24.668,0-47.005-10.136-63.077-26.465c-1.3-1.323-2.572-2.692-3.786-4.092
			c-1.528-1.754-2.983-3.574-4.368-5.452c-1.437-1.942-2.8-3.951-4.086-6.024c-1.426-2.3-2.754-4.673-3.968-7.113
			c-0.221-0.45-0.446-0.901-0.661-1.352c-2.722-5.687-4.852-11.713-6.309-17.98c-0.112-0.479-0.213-0.957-0.313-1.427
			c-0.038-0.158-0.073-0.309-0.102-0.47c-1.231-5.865-1.881-11.946-1.881-18.175c0-11.834,2.336-23.133,6.568-33.455
			c-0.279,1.328-0.216,2.458,0.107,3.749c-1.484,1.487-2.524,3.186-3.155,5.57l1.213,0.742c0.387-1.943,1.942-4.453,3.24-5.941
			c-0.922-3.158,0.474-4.94,1.032-7.17l-1.007-0.258c5.962-13.012,14.984-24.339,26.146-33.057c-0.55,0.972-1.187,2.205-1.48,3.167
			l1.303-0.835c0,0,1.517-2.515,2.973-4.425c2.846-2.046,5.812-3.928,8.887-5.631l-2.42,1.403c-2.394,2.815-2.712,4.632-3.586,6.701
			l2.802-0.708c0.498-1.773,1.84-5.415,4.366-8.023c12.401-6.621,26.548-10.379,41.563-10.379c33.739,0,63.113,18.957,78.062,46.777
			c0.122,0.877,0.507,3.102-0.122,3.416c0.217,1.746-0.779,3.692-1.444,4.847l0.741,2.506c1.155-1.393,2.019-3.932,1.906-5.33
			c0.797-0.596,0.431-1.712,0.421-2.519c0.678,1.379,1.323,2.777,1.925,4.195c-0.094,0.511-0.422,1.956-1.022,2.702
			c0.337,1.619-0.404,3.271-1.089,4.481l0.928,2.322c0.413-0.282,1.616-3.387,1.587-5.101c0.45-0.591,0.562-1.229,0.675-1.778
			c0.536,1.393,1.042,2.796,1.511,4.222c-0.085,0.705-0.31,2.065-0.862,2.586c0.347,1.559-0.404,2.665-0.873,3.688l0.835,2.318
			c0,0,1.398-3.107,1.361-4.223c0.226-0.521,0.44-0.826,0.516-1.234c0.488,1.671,0.92,3.351,1.304,5.053
			c-0.31,1.455-1.135,2.825-1.783,4.308l0.179,1.393c0,0,1.117-1.393,2.101-3.373c0.217,1.056,0.404,2.112,0.574,3.176
			c-0.179,0.536-0.976,2.838-1.464,3.163l0.188,1.023c0,0,0.985-1.319,1.558-2.252c0.554,3.988,0.846,8.052,0.846,12.186
			c0,5.92-0.593,11.701-1.699,17.294C229.482,870.212,227.296,876.827,224.405,883.067z"/>
		<path fill="#F37937" d="M192.648,829.776c-2.112,0.014-7.677,0.061-8.588,0.07c-0.459,0.976-4.775,10.106-4.775,10.106
			s-8.174,0.137-9.196,0.15c-0.357,0.718-1.812,3.674-2.647,5.372c2.205-0.085,9.271-0.356,9.271-0.356s-7.037,15.276-7.057,15.313
			c-2.703,5.218-9.516,13.936-17.897,13.485c-1.745-0.093-3.906-0.967-4.343-4.589l-0.117-0.986l0.986-0.084
			c9.377-0.826,13.262-4.279,14.745-6.269c2.354-3.162,2.73-6.298,1.051-8.596c-1.989-2.71-6.314-3.494-10.755-1.952
			c-8.185,2.843-14.503,12.153-13.543,19.941l0.059,0.46l-0.329,0.33c-0.259,0.263-1.609,1.539-3.011,1.397
			c-0.628-0.065-1.159-0.395-1.555-1.004c-0.476-0.778-0.697-1.83-0.697-3.125c0-8.22,9.005-26.067,19.198-44.724
			c-2.383,0-10.212,0-10.926,0c-4.803,4.956-10.819,14.931-15.684,23.011c0,0-4.25,6.941-4.374,7.13
			c-1.051,1.605-1.407,2.14-2.247,1.765c-0.418-0.188-0.585-0.441-0.585-0.874c0-0.45,0.185-1.098,0.451-2.065l2.118-8.551
			c1.77-7.494,3.764-15.715,5.901-20.491c-2.13,0.014-9.136,0.066-9.941,0.075c-2.695,3.439-6.049,11.148-9.609,19.383
			c-7.684,17.777-13.125,29.311-18.566,27.743c-0.828-0.234-1.423-0.797-1.718-1.632c-0.147-0.414-0.214-0.883-0.214-1.39
			c0-2.458,1.544-5.771,2.924-8.192c-2.069,0.742-4.237,1.521-4.557,1.633c-2.727,3.087-5.156,8.37-5.156,12.416
			c0,0.582,0.054,1.144,0.158,1.67c0.362,1.736,1.286,2.919,2.818,3.613c2.334,1.051,4.667,1.098,7.133,0.141
			c8.746-3.387,15.688-18.206,17.608-22.663c1.045-2.432,1.439-3.331,2.44-3.05c0.552,0.169,0.729,0.525,0.729,1.116
			c0,0.423-0.087,0.967-0.199,1.651c0,0-0.139,0.901-0.139,0.921c-1.22,7.16-3.89,16.9-6.26,21.715c2.094,0,6.806,0,7.544,0
			c1.393-1.904,3.408-5.217,5.747-9.074c2.726-4.514,5.825-9.628,8.589-13.523c2.59-3.641,2.919-4.111,3.84-3.548
			c0.916,0.545,0.662,1.052-1.367,5.049c-3.602,5.632-4.856,13.43-2.864,17.756c0.944,2.036,2.53,3.219,4.684,3.521
			c4.099,0.46,7.724-2.863,8.476-3.783l0.765-0.938l0.741,0.966c0.69,0.892,1.517,1.624,2.576,2.29
			c2.693,1.558,11.78,2.554,18.368-4.27l0.104-0.141l1.126-0.667l0.554-0.254l0.413,1.042c0,0,0.196,0.516,0.3,0.713
			c1.041,2.844,3.162,3.867,4.758,4.241c3.19,0.732,7.001-0.486,9.723-3.097l0.563-0.554l0.657,0.461
			c1.68,1.191,3.64,2.459,5.433,2.778c10.634,1.895,14.678-6.955,15.109-9.245c0.272-1.416,0.376-2.684,0.376-3.848
			c0-2.898-0.686-5.115-1.305-7.141c-0.478-1.567-0.929-3.032-0.929-4.524c0-1.088,0.365-2.204,1.005-3.371
			c-1.399-0.723-4.037-2.078-4.524-2.332c-1.698,0.774-8.483,9.354-12.585,14.544c-7.188,9.111-7.273,9.065-8.248,8.588
			l-0.808-0.949c-0.413-1.238,0.45-3.247,1.004-4.326c0,0,9.356-19.883,9.347-19.846l0.46-1.111c0,0,16.518-0.259,17.699-0.272
			c0.319-0.793,1.521-3.716,2.177-5.321c-2.44,0.028-17.23,0.263-17.23,0.263S191.663,831.84,192.648,829.776 M148.313,862.919
			c0.501-2.271,2.762-5.668,5.699-7.413c1.877-1.106,3.933-1.031,4.992,0.188c0.356,0.412,0.608,0.986,0.608,1.661
			c0,0.713-0.271,1.529-0.984,2.421c-2.28,2.853-7.104,4.458-9.44,4.308l-1.109-0.065L148.313,862.919z M185.123,866.881l0.394-0.62
			c2.027-3.276,3.716-5.302,5.339-7.255l1.277-1.558l1.474-1.744l0.553,5.396c0.263,2.215,0.544,4.503,0.197,7.461
			c-0.188,1.595-1.229,3.912-3.06,5.235c-1.258,0.892-2.722,1.201-4.223,0.883c-1.061-0.225-1.951-1.089-2.29-2.204
			c-0.074-0.273-0.142-0.62-0.142-1.042c0-0.874,0.462-2.083,1.541-3.425C185.901,867.716,185.123,866.881,185.123,866.881z"/>
		<path fill="#FFFFFF" d="M184.783,872.473c0.338,1.117,1.23,1.981,2.29,2.206c1.502,0.318,2.966,0.009,4.223-0.883
			c1.83-1.323,2.872-3.643,3.06-5.237c0.347-2.956,0.065-5.246-0.196-7.46l-0.555-5.396l-1.473,1.745l-1.276,1.559
			c-1.624,1.952-3.312,3.979-5.34,7.255l-0.395,0.618c0,0,0.78,0.835,1.061,1.127c-1.079,1.342-1.54,2.553-1.54,3.426
			C184.643,871.853,184.71,872.199,184.783,872.473 M187.562,866.674c1.699-2.666,3.181-4.533,4.599-6.223
			c0.028,0.347,0.085,0.883,0.085,0.883c0.188,1.474,0.356,2.881,0.356,4.476c0,0.788-0.037,1.624-0.149,2.524
			c-0.142,1.193-0.986,2.976-2.28,3.895c-0.808,0.591-1.719,0.78-2.703,0.573c-0.31-0.065-0.694-0.364-0.845-0.872
			c-0.048-0.16-0.065-0.33-0.065-0.498c0-0.835,0.544-1.84,1.539-2.834l0.646-0.667
			C188.744,867.931,187.835,866.965,187.562,866.674z"/>
		<path fill="#FFFFFF" d="M195.698,827.833l-12.857,0.104c0,0-4.326,9.146-4.776,10.116c-1.051,0.014-9.187,0.15-9.187,0.15
			l-4.57,9.319c0,0,7.189-0.276,9.348-0.365c-1.052,2.289-5.725,12.441-5.725,12.441c-2.3,4.438-8.643,12.8-16.066,12.406
			c-1.258-0.065-1.866-0.816-2.233-2.035c9.179-1.108,13.335-4.685,14.94-6.833c1.633-2.186,2.459-4.458,2.459-6.549
			c0-1.577-0.461-3.051-1.399-4.326c-2.487-3.396-7.686-4.456-12.941-2.631c-8.467,2.939-14.923,11.847-14.923,20.114
			c0,0.441,0.04,0.882,0.083,1.313c-0.411,0.339-0.893,0.629-1.151,0.601c-0.021,0-0.058,0-0.128-0.112
			c-3.461-5.744,13.098-35.951,19.329-47.329l0.779-1.417H141.68l-0.281,0.282c-5.004,5.03-11.217,15.362-16.209,23.658
			c0,0-1.201,1.967-2.365,3.867c0.609-2.439,1.25-5.029,1.25-5.029c1.813-7.682,4.071-17.239,6.327-21.454l0.755-1.421l-1.614,0.009
			l-12.341,0.094l-0.285,0.343c-2.904,3.496-6.412,11.603-10.12,20.19c-5.09,11.767-12.054,27.879-16.279,26.668
			c-0.188-0.055-0.338-0.15-0.437-0.432c-0.631-1.773,1.562-6.813,3.935-10.221l1.713-2.468l-10.44,3.745l-0.164,0.178
			c-3.472,3.838-6.597,11.019-5.576,15.925c0.48,2.318,1.834,4.036,3.913,4.976c2.783,1.256,5.678,1.323,8.611,0.187
			c7.723-2.993,13.825-13.476,17.103-20.279c-1.619,7.639-4.195,15.729-6.03,18.618l-0.942,1.475h11.869l0.289-0.375
			c1.459-1.905,3.625-5.48,6.128-9.619c1.699-2.806,3.513-5.744,5.317-8.56c-0.965,2.759-1.621,5.565-1.621,8.193
			c0,2.214,0.365,4.252,1.123,5.902c1.218,2.637,3.358,4.232,6.187,4.626c4.263,0.479,7.878-2.177,9.499-3.771
			c0.688,0.732,1.359,1.465,2.292,2.046l0.028,0.01c3.435,2.008,13.095,2.769,20.255-4.195c0.985,2.545,3.087,4.43,5.921,5.077
			c3.566,0.816,7.677-0.479,10.802-3.143c1.735,1.201,3.688,2.402,5.658,2.759c11.074,1.971,16.536-6.578,17.334-10.783
			c0.291-1.528,0.413-2.918,0.413-4.193c0-3.191-0.752-5.631-1.39-7.714c-0.46-1.503-0.845-2.741-0.845-3.933
			c0-1.071,0.311-2.102,1.145-3.25l0.657-0.91c0,0-4.363-2.243-5.734-2.946c2.704-0.039,6.653-0.099,6.653-0.099l3.764-9.193
			c0,0-14.489,0.226-17.051,0.263C191.889,835.828,195.698,827.833,195.698,827.833 M205.062,839.606
			c-0.655,1.605-1.856,4.528-2.176,5.321c-1.183,0.014-17.699,0.272-17.699,0.272l-0.46,1.111c0.01-0.037-9.347,19.846-9.347,19.846
			c-0.554,1.079-1.418,3.088-1.004,4.326l0.807,0.949c0.977,0.478,1.061,0.523,8.248-8.588c4.102-5.19,10.887-13.77,12.586-14.544
			c0.487,0.254,3.125,1.609,4.523,2.332c-0.639,1.166-1.004,2.283-1.004,3.371c0,1.492,0.451,2.957,0.929,4.524
			c0.619,2.026,1.305,4.242,1.305,7.141c0,1.164-0.104,2.432-0.376,3.848c-0.432,2.29-4.477,11.14-15.109,9.245
			c-1.792-0.319-3.753-1.587-5.433-2.778l-0.658-0.461l-0.562,0.554c-2.723,2.61-6.532,3.829-9.723,3.097
			c-1.596-0.374-3.717-1.397-4.759-4.241c-0.104-0.197-0.299-0.713-0.299-0.713l-0.414-1.042l-0.553,0.254l-1.127,0.667
			l-0.104,0.141c-6.587,6.823-15.674,5.827-18.368,4.27c-1.06-0.666-1.886-1.398-2.575-2.29l-0.741-0.966l-0.766,0.938
			c-0.751,0.921-4.375,4.243-8.475,3.783c-2.153-0.301-3.739-1.483-4.685-3.521c-1.992-4.325-0.737-12.124,2.865-17.756
			c2.029-3.997,2.282-4.504,1.367-5.049c-0.922-0.563-1.25-0.093-3.84,3.548c-2.764,3.896-5.863,9.01-8.589,13.523
			c-2.34,3.857-4.355,7.17-5.748,9.074c-0.736,0-5.45,0-7.543,0c2.37-4.812,5.039-14.555,6.26-21.715c0-0.019,0.139-0.92,0.139-0.92
			c0.112-0.686,0.199-1.23,0.199-1.652c0-0.591-0.179-0.947-0.729-1.116c-1.002-0.281-1.396,0.618-2.44,3.05
			c-1.921,4.458-8.862,19.276-17.609,22.663c-2.466,0.957-4.798,0.91-7.133-0.141c-1.531-0.694-2.457-1.877-2.817-3.613
			c-0.104-0.526-0.158-1.088-0.158-1.67c0-4.046,2.43-9.329,5.156-12.416c0.318-0.112,2.486-0.891,4.557-1.633
			c-1.38,2.421-2.924,5.734-2.924,8.192c0,0.507,0.066,0.976,0.213,1.39c0.296,0.835,0.89,1.397,1.719,1.632
			c5.441,1.567,10.883-9.966,18.565-27.742c3.562-8.236,6.914-15.945,9.61-19.384c0.805-0.009,7.811-0.061,9.94-0.075
			c-2.137,4.776-4.132,12.998-5.9,20.491l-2.118,8.551c-0.268,0.967-0.451,1.615-0.451,2.065c0,0.433,0.167,0.686,0.584,0.874
			c0.84,0.375,1.196-0.159,2.248-1.765c0.124-0.188,4.373-7.13,4.373-7.13c4.863-8.08,10.882-18.056,15.684-23.011
			c0.714,0,8.542,0,10.927,0c-10.194,18.657-19.198,36.504-19.198,44.724c0,1.295,0.222,2.347,0.697,3.125
			c0.396,0.609,0.926,0.938,1.555,1.004c1.4,0.142,2.752-1.135,3.011-1.397l0.328-0.33l-0.059-0.46
			c-0.959-7.788,5.359-17.099,13.544-19.941c4.439-1.542,8.766-0.758,10.755,1.952c1.681,2.299,1.304,5.434-1.052,8.596
			c-1.482,1.99-5.367,5.442-14.744,6.269l-0.986,0.084l0.117,0.986c0.437,3.622,2.598,4.496,4.343,4.589
			c8.381,0.45,15.193-8.268,17.896-13.485c0.019-0.039,7.058-15.313,7.058-15.313s-7.065,0.273-9.271,0.356
			c0.835-1.699,2.29-4.654,2.647-5.372c1.022-0.014,9.195-0.15,9.195-0.15s4.316-9.132,4.776-10.106
			c0.911-0.01,6.476-0.056,8.588-0.07c-0.986,2.065-4.814,10.093-4.814,10.093S202.625,839.634,205.062,839.606z M194.591,846.973
			c-1.979,1.437-5.435,5.529-12.669,14.68c-1.943,2.468-4.026,5.095-5.368,6.673c0.142-0.395,0.292-0.808,0.544-1.305
			c0,0,9.338-19.846,9.375-19.92C187.026,847.091,190.536,847.033,194.591,846.973z"/>
		<path fill="#FFFFFF" d="M158.631,859.775c0.712-0.892,0.984-1.708,0.984-2.421c0-0.676-0.254-1.249-0.609-1.661
			c-1.061-1.22-3.116-1.295-4.993-0.188c-2.936,1.746-5.198,5.144-5.698,7.413l-0.234,1.099l1.11,0.065
			C151.524,864.233,156.349,862.629,158.631,859.775 M154.998,857.157c1.238-0.741,2.242-0.563,2.562-0.207
			c0.085,0.114,0.132,0.244,0.132,0.404c0,0.328-0.188,0.76-0.564,1.22c-1.501,1.877-4.447,3.05-6.438,3.425
			C151.459,860.387,153.009,858.341,154.998,857.157z"/>
		<polyline fill="#004784" points="227.099,844.72 227.079,844.72 225.963,841.614 224.283,841.614 224.283,846.363 225.26,846.363 
			225.26,842.581 225.287,842.581 226.61,846.363 227.549,846.363 228.929,842.581 228.948,842.581 228.948,846.363 
			229.923,846.363 229.923,841.614 228.253,841.614 		"/>
		<polyline fill="#004784" points="219.582,842.458 221.018,842.458 221.018,846.363 221.984,846.363 221.984,842.458 
			223.421,842.458 223.421,841.614 219.582,841.614 		"/>
	</g>
</g>
<g id="svg12082">
</g>
<g id="svg31568">
</g>
<g id="CLEVELAND_INDIANS">
</g>
<g id="svg2562">
</g>
</svg>
