<?xml version="1.0" encoding="utf-8"?>
<!-- Generator: Adobe Illustrator 14.0.0, SVG Export Plug-In . SVG Version: 6.00 Build 43363)  -->
<!DOCTYPE svg PUBLIC "-//W3C//DTD SVG 1.1//EN" "http://www.w3.org/Graphics/SVG/1.1/DTD/svg11.dtd">
<svg version="1.1" xmlns="http://www.w3.org/2000/svg" xmlns:xlink="http://www.w3.org/1999/xlink" x="0px" y="0px" width="200px"
	 height="200px" viewBox="44 746 200 200" enable-background="new 44 746 200 200" xml:space="preserve">
<g id="Layer_1">
	<g>
		<path fill="#FFFFFF" stroke="#FFFFFF" stroke-width="0.5877" d="M7218.837,7645.277c-2.438,4.812-9.872,18.5-9.485,20.523
			c0.48,2.512,2.055,4.428,1.979,6.965c-0.05,1.572-1.985,5.439-3.489,6.526c-1.259,0.907-5.062,8.043-20.085,0.963l-2.007-1.058
			c-14.529-8.039-10.977-15.297-10.977-16.85c0-1.854,1.998-5.688,3.246-6.646c2.012-1.546,4.485-1.396,6.805-2.473
			c1.867-0.875,7.51-12.213,9.984-17.006l0.039-0.107c-49.488-24.303-83.552-75.2-83.552-134.059
			c0-82.435,66.83-149.265,149.265-149.265c82.436,0,149.266,66.83,149.266,149.265c0,82.436-66.83,149.266-149.266,149.266
			c-14.543,0-28.597-2.079-41.889-5.959L7218.837,7645.277z"/>
		<path fill="#FC1921" d="M7310.404,7445.783c2.517,1.566,5.261,3.033,7.347,4.908l23.97-30.517
			c4.913,4.281,8.823,8.417,12.65,14.433l-27.979,24.561c2.26,2.576,5.166,7.668,6.987,11.215l28.75-19.906
			c0.55,1.073,2.117,7.637,1.867,9.559l-28.22,18.234c0.455,2.035,0.771,2.481,1.106,5.184c0,0,32.472-18.421,32.487-18.653
			c-3.542-34.866-33.861-63.302-69.663-63.302c-14.872,0-28.646,4.697-39.925,12.686c-0.19,0.135,1.869,32.676,1.869,32.676
			c2.289-1.432,5.125-2.766,6.269-3.146l-0.571-29.678c2.77-2.195,6.537-4.008,9.448-5.061l-0.67,32.158
			c4.008-0.951,11.163-1.527,13.456-1.047l5.82-35.023c7.063-0.668,14.121,0.099,20.326,2.104l-13.551,35.209
			c2.684,0.821,5.577,2.053,8.221,3.407"/>
		<path fill="none" stroke="#FFFFFF" stroke-width="2.2041" d="M7286.66,7541.208c28.023,0,50.738-22.722,50.738-50.739
			c0-28.025-22.715-50.742-50.738-50.742s-50.743,22.717-50.743,50.742C7235.917,7518.486,7258.637,7541.208,7286.66,7541.208z"/>
		<path fill="#FC1921" d="M7244.924,7555.453c-1.412,2.329-12.27,8.79-14.615,5.148c-3.91-6.071,8.041-15.715,5.781-18.412
			c-1.359-1.615-6.973,2.603-11.557,7.881c0,0-2.547,4.88-6.016,11.029l-8.156,0.071c-0.5-0.377,10.377-16.298,8.266-18.151
			c-3-2.621-20.595,25.819-28.863,19.78c-0.695-0.512-2.562-2.624-0.076-7.938c-3.701,4.886-12.697,8.841-16.484,5.559
			c-8.127-7.044,13.936-30.667,22.833-22.48c0.696,0.638,0.948,1.26,0.896,1.754l1.196-1.885l8.045-0.072
			c-3.655,9.843-11.235,18.748-9.291,20.147c3.384,2.435,22.839-27.389,29.462-20.891c2.057,2.021,1.915,4.664,1.379,6.104
			c4.691-4.893,14.598-9.605,17.799-6.281c3.896,4.037-7.959,15.966-5.349,17.631c1.481,0.947,6.042-2.536,6.042-2.536
			 M7179.284,7555.41c4.358,4.835,17.543-10.475,14.856-14.801C7190.572,7536.122,7175.384,7551.083,7179.284,7555.41z"/>
		<path fill="#FC1921" d="M7267.668,7546.346c7.393,0.592,15.95-3.896,14.373-7.41c-0.93-2.072-6.518-1.259-9.811,0.094
			L7267.668,7546.346z M7291.758,7552.52c-8.088,7.346-16.791,10.088-19.658,7.897c-4.781-3.653-0.424-8.401-2.852-10.448
			c-0.664-0.554-1.775-0.699-3.591-0.57l9.399-14.584c5.045-2.584,13.289-3.978,14.672,0.744
			c1.932,6.596-7.273,12.303-13.658,13.357c4.859,0.891,0.054,6.299,5.027,6.949c2.213,0.293,8.666-4.321,12.039-8.986"/>
		<path fill="#FC1921" d="M7325.467,7549.889c-12.592,9.047-29.176,11.872-32.701,4.161c-5.813-12.713,26.438-28.647,30.25-18.911
			c2.709,6.916-10.131,13.102-20.711,13.198c-0.445,0.004-0.293-0.108-0.332,0.004c-0.924,2.681,0.383,5.616,5.344,5.574
			s12.326-2.099,19.324-8.338 M7302.721,7545.797c6.387-0.83,12.789-6.154,11.719-8.593
			C7312.932,7533.786,7304.098,7539.941,7302.721,7545.797z"/>
		<path fill="#FC1921" d="M7370.137,7539.989c-4.15,4.228-10.093,7.239-10.843,7.819c-11.747,9.047-29.151,12.367-33.028,4.828
			c-6.586-12.818,26.274-27.527,28.82-18.568c1.854,6.525-9.589,12.104-19.283,12.853c-0.441,0.039-0.293-0.108-0.328,0.007
			c-0.927,2.678,0.381,5.621,5.342,5.571c4.959-0.046,10.332-2.386,17.684-6.888c1.643-1.01,8.555-4.824,11.93-9.479
			 M7336.107,7544.166c7.273-0.286,13.812-6.092,11.936-8.708C7345.707,7532.189,7336.617,7539.643,7336.107,7544.166z"/>
		<path fill="#FC1921" d="M7364.875,7543.566c0.549,5.674-5.07,5.832-5.352,5.562c-0.866,0.95-0.199,5.04,4.131,5.253
			c7.199,0.362,7.092-9.106,6.14-12.625c-0.649-2.407-0.175-5.043,0.206-7.358c0.953-5.797,8.464-11.84,11.125-9.947
			c1.818,1.301,0.818,5.617-4.098,9.855c-0.922,0.894-1.522,1.041-0.188,3.783c1.446,2.977,3.925,10.139-0.116,15.605
			c-3.156,4.271-8.562,4.849-13.052,4.087c-2.872-0.489-6.085-2.396-7.411-4.548
			C7350.501,7543.921,7362.396,7537.529,7364.875,7543.566z"/>
		<path fill="#0C2D82" d="M7287.803,7515.884c1.081-1.507,2.096-2.905,3.092-4.229c0.239-0.319,0.877-1.403,1.195-2.216
			c1.734-4.449-2.631-11.25-8.762-14.142c-6.094-2.873-12.63-2.272-14.586,0.634c-0.489,0.723-1.081,1.648-1.196,2.026
			c-0.68,2.228-1.444,4.422-2.272,6.812c-9.666-6.455-15.342-13.385-12.715-18.396c4.873-9.294,20.09-7.728,35.982,0.079
			c15.895,7.803,26.643,19.652,22.15,28.181C7308.029,7519.695,7298.917,7519.592,7287.803,7515.884z"/>
		<path fill="#0C2D82" d="M7306.857,7534.792c-0.812,0.296-2.83,1.376-4.391,2.363c-3.15-3.582-14.222-11.253-20.144-13.31
			c-0.091-0.029,1.501-2.115,1.501-2.115c6.105,2.479,20.646,10.916,22.936,13.016"/>
		<g>
			<path fill="#0C2D82" d="M7335.686,7535.971c1.316-0.936,4.9-2.396,5.002-2.531c0.119-0.49,0.188-1.463,0.188-1.463
				c3.817-17.939-3.962-32.539-10.065-38.266c-5.959-5.589-3.125-1.413-1.146,1.146c1.406,1.815,2.08,2.881,2.671,4.004
				c3.104,5.891,1.633,5.16-2.479,0.955c-8.111-8.287-22.234-18.797-35.211-25.284c-17.717-8.86-39.412-13.075-51.433-12.694
				c4.961-2.29,7.685-2.536,12.783-3.052c4.521-0.457,2.75-1.354,0-1.146c-9.658,0.738-31.181,1.076-34.54,17.939
				c-2.855,14.318,8.777,26.527,20.036,30.916c9.786,3.814,20.138,8.361,20.138,8.361l1.049-3.207
				c-5.727-3.056-15.707-6.34-20.992-8.396c-6.873-2.671-19.172-12.136-17.561-25.003c2.674-21.354,42.809-14.324,69.469-0.953
				c11.551,5.795,27.014,17.03,34.612,24.363c8.709,8.403,10.235,11.219,10.808,20.108
				C7339.039,7527.203,7337.527,7532.095,7335.686,7535.971"/>
			<text transform="matrix(1 0 0 1 -6505.8574 -5942.416)" fill="#0C2D82" font-family="'Helvetica'" font-size="9"> </text>
		</g>
		<path fill="none" stroke="#FC1921" stroke-width="1.0213" stroke-linecap="round" stroke-linejoin="round" d="M7339.202,7414.514
			c2.675-3.439,9.508-12.236,12.024-14.128"/>
		<polyline fill="none" stroke="#FC1921" stroke-width="1.0213" stroke-linecap="round" stroke-linejoin="round" points="
			7339.968,7398.859 7345.312,7406.493 7355.234,7409.93 		"/>
		<polyline fill="none" stroke="#FC1921" stroke-width="1.0213" stroke-linecap="round" stroke-linejoin="round" points="
			7334.242,7404.202 7341.496,7411.457 7349.512,7415.271 		"/>
		<path fill="#FC1921" d="M7403.1,7501.54c0-78.821-63.896-142.722-142.715-142.722c-70.221,0-128.598,50.721-140.5,117.521
			l13.848-14.667c17.164-53.467,67.293-92.163,126.461-92.163c73.336,0,132.791,59.451,132.791,132.79l0.08,0.105
			c-0.863,24.806-5.724,35.441-14.613,41.854l-0.791,6.518c3.902-3.002,15.723-15.502,23.051-30.602
			c1.991-4.109,2.543-14.719,2.479-18.398L7403.1,7501.54z"/>
		<path fill="#FC1921" d="M7385.871,7546.229c-18.028,51.947-67.404,87.315-125.486,87.819
			c-69.363,0.601-132.197-57.979-132.197-131.319l0,0c-1.035-14.821,3.248-24.315,6.748-30.752
			c3.597-6.623,11.256-15.36,18.045-14.031c10.521,2.066,3.754,15.803-5.182,31.381c-8.732,15.229-19.314,31.223-10.799,40.427
			c6.893,7.451,21.002,5.756,29.632-2.81l-26.623,49.98l11.817,0.088l51.41-97.046l-11.906,0.33l-21.021,39.114
			c-6.773,6.347-17.779,12.174-24.07,7.826c-12.484-8.621,36.408-55.317,18.416-70.502c-14.369-12.125-29.979,5.979-34.928,14.564
			c-4.053,7.035-11.701,17.858-11.879,31.191l0.01-0.574c0,78.816,63.899,142.714,142.718,142.714
			c67.2,0,123.556-46.448,138.706-108.991c0.574-2.295,1.187-5.099,1.187-5.099
			C7396.459,7536.845,7385.871,7546.229,7385.871,7546.229z"/>
		
			<line fill="none" stroke="#FC1921" stroke-width="1.0213" stroke-linecap="round" stroke-linejoin="round" x1="7184.234" y1="7428.633" x2="7196.258" y2="7426.914"/>
		<path fill="none" stroke="#FC1921" stroke-width="1.0213" stroke-linecap="round" stroke-linejoin="round" d="M7163.626,7407.656
			c28.673,22.9,47.043,58.158,47.043,97.707c0,10.699-1.219,19.828-3.715,29.771"/>
		<path fill="none" stroke="#FC1921" stroke-width="1.0213" stroke-linecap="round" stroke-linejoin="round" d="M7195.812,7564.906
			c-6.367,11.812-14.619,22.438-24.426,31.432c-4.58,4.197-3.174,1.78-3.174,1.78"/>
		<polyline fill="none" stroke="#FC1921" stroke-width="1.0213" stroke-linecap="round" stroke-linejoin="round" points="
			7177.375,7406.884 7167.066,7410.701 7163.633,7421.197 		"/>
		
			<line fill="none" stroke="#FC1921" stroke-width="1.0213" stroke-linecap="round" stroke-linejoin="round" x1="7173.173" y1="7415.666" x2="7182.336" y2="7412.229"/>
		
			<line fill="none" stroke="#FC1921" stroke-width="1.0213" stroke-linecap="round" stroke-linejoin="round" x1="7176.229" y1="7419.1" x2="7185.771" y2="7416.043"/>
		
			<line fill="none" stroke="#FC1921" stroke-width="1.0213" stroke-linecap="round" stroke-linejoin="round" x1="7180.046" y1="7423.684" x2="7192.26" y2="7421.771"/>
		
			<line fill="none" stroke="#FC1921" stroke-width="1.0213" stroke-linecap="round" stroke-linejoin="round" x1="7190.732" y1="7436.848" x2="7203.902" y2="7435.702"/>
		<polyline fill="none" stroke="#FC1921" stroke-width="1.0213" stroke-linecap="round" stroke-linejoin="round" points="
			7187.486,7454.021 7195.505,7445.627 7208.863,7445.245 		"/>
		<polyline fill="none" stroke="#FC1921" stroke-width="1.0213" stroke-linecap="round" stroke-linejoin="round" points="
			7191.113,7462.232 7199.514,7454.021 7212.3,7454.789 		"/>
		
			<line fill="none" stroke="#FC1921" stroke-width="1.0213" stroke-linecap="round" stroke-linejoin="round" x1="7168.021" y1="7425.586" x2="7172.221" y2="7415.666"/>
		
			<line fill="none" stroke="#FC1921" stroke-width="1.0213" stroke-linecap="round" stroke-linejoin="round" x1="7172.982" y1="7430.551" x2="7177.182" y2="7420.246"/>
		
			<line fill="none" stroke="#FC1921" stroke-width="1.0213" stroke-linecap="round" stroke-linejoin="round" x1="7175.658" y1="7434.749" x2="7181.002" y2="7424.635"/>
		
			<line fill="none" stroke="#FC1921" stroke-width="1.0213" stroke-linecap="round" stroke-linejoin="round" x1="7179.279" y1="7439.52" x2="7185.389" y2="7430.359"/>
		
			<line fill="none" stroke="#FC1921" stroke-width="1.0213" stroke-linecap="round" stroke-linejoin="round" x1="7182.908" y1="7445.055" x2="7189.779" y2="7437.609"/>
		<polyline fill="none" stroke="#FC1921" stroke-width="1.0213" stroke-linecap="round" stroke-linejoin="round" points="
			7194.74,7473.109 7203.52,7464.331 7217.26,7465.475 		"/>
		
			<line fill="none" stroke="#FC1921" stroke-width="1.0213" stroke-linecap="round" stroke-linejoin="round" x1="7206.955" y1="7474.827" x2="7219.359" y2="7478.07"/>
		
			<line fill="none" stroke="#FC1921" stroke-width="1.0213" stroke-linecap="round" stroke-linejoin="round" x1="7206.764" y1="7474.445" x2="7203.137" y2="7478.07"/>
		
			<line fill="none" stroke="#FC1921" stroke-width="1.0213" stroke-linecap="round" stroke-linejoin="round" x1="7209.436" y1="7486.852" x2="7220.889" y2="7490.855"/>
		
			<line fill="none" stroke="#FC1921" stroke-width="1.0213" stroke-linecap="round" stroke-linejoin="round" x1="7200.273" y1="7494.863" x2="7209.244" y2="7485.896"/>
		<polyline fill="none" stroke="#FC1921" stroke-width="1.0213" stroke-linecap="round" stroke-linejoin="round" points="
			7222.986,7506.129 7210.391,7500.784 7200.273,7508.797 		"/>
		<polyline fill="none" stroke="#FC1921" stroke-width="1.0213" stroke-linecap="round" stroke-linejoin="round" points="
			7200.466,7520.63 7210.201,7514.143 7222.029,7518.915 		"/>
		<polyline fill="none" stroke="#FC1921" stroke-width="1.0213" stroke-linecap="round" stroke-linejoin="round" points="
			7197.605,7531.51 7208.863,7526.928 7220.697,7531.889 		"/>
		
			<line fill="none" stroke="#FC1921" stroke-width="1.0213" stroke-linecap="round" stroke-linejoin="round" x1="7206.955" y1="7535.134" x2="7212.872" y2="7540.102"/>
		
			<line fill="none" stroke="#FC1921" stroke-width="1.0213" stroke-linecap="round" stroke-linejoin="round" x1="7204.091" y1="7546.587" x2="7206.193" y2="7548.305"/>
		
			<line fill="none" stroke="#FC1921" stroke-width="1.0213" stroke-linecap="round" stroke-linejoin="round" x1="7211.035" y1="7551.738" x2="7212.938" y2="7552.952"/>
		
			<line fill="none" stroke="#FC1921" stroke-width="1.0213" stroke-linecap="round" stroke-linejoin="round" x1="7204.475" y1="7559.182" x2="7208.482" y2="7562.809"/>
		
			<line fill="none" stroke="#FC1921" stroke-width="1.0213" stroke-linecap="round" stroke-linejoin="round" x1="7195.314" y1="7565.673" x2="7202.564" y2="7572.35"/>
		
			<line fill="none" stroke="#FC1921" stroke-width="1.0213" stroke-linecap="round" stroke-linejoin="round" x1="7194.359" y1="7566.625" x2="7186.154" y2="7565.859"/>
		<polyline fill="none" stroke="#FC1921" stroke-width="1.0213" stroke-linecap="round" stroke-linejoin="round" points="
			7197.221,7581.324 7190.732,7573.111 7181.002,7571.971 		"/>
		<polyline fill="none" stroke="#FC1921" stroke-width="1.0213" stroke-linecap="round" stroke-linejoin="round" points="
			7175.837,7578.448 7185,7579.4 7191.107,7587.993 		"/>
		<polyline fill="none" stroke="#FC1921" stroke-width="1.0213" stroke-linecap="round" stroke-linejoin="round" points="
			7170.493,7583.793 7179.273,7586.464 7185.764,7593.334 		"/>
		<polyline fill="none" stroke="#FC1921" stroke-width="1.0213" stroke-linecap="round" stroke-linejoin="round" points="
			7167.25,7588.755 7175.076,7591.044 7180.802,7597.533 		"/>
		<polyline fill="none" stroke="#FC1921" stroke-width="1.0213" stroke-linecap="round" stroke-linejoin="round" points="
			7173.928,7601.924 7170.111,7595.816 7165.15,7593.909 		"/>
		<path fill="none" stroke="#FC1921" stroke-width="1.0213" stroke-linecap="round" stroke-linejoin="round" d="M7327.373,7556.501
			c4.197,7.635,22.521,30.151,32.439,35.118"/>
		
			<line fill="none" stroke="#FC1921" stroke-width="1.0213" stroke-linecap="round" stroke-linejoin="round" x1="7320.5" y1="7555.738" x2="7324.316" y2="7555.357"/>
		<polyline fill="none" stroke="#FC1921" stroke-width="1.0213" stroke-linecap="round" stroke-linejoin="round" points="
			7333.096,7558.409 7330.044,7561.461 7321.646,7562.991 		"/>
		
			<line fill="none" stroke="#FC1921" stroke-width="1.0213" stroke-linecap="round" stroke-linejoin="round" x1="7325.083" y1="7569.857" x2="7336.532" y2="7569.477"/>
		<polyline fill="none" stroke="#FC1921" stroke-width="1.0213" stroke-linecap="round" stroke-linejoin="round" points="
			7346.457,7567.952 7340.35,7575.203 7331.189,7577.881 		"/>
		<polyline fill="none" stroke="#FC1921" stroke-width="1.0213" stroke-linecap="round" stroke-linejoin="round" points="
			7351.036,7572.913 7345.503,7579.785 7335.389,7584.364 		"/>
		
			<line fill="none" stroke="#FC1921" stroke-width="1.0213" stroke-linecap="round" stroke-linejoin="round" x1="7339.968" y1="7588.943" x2="7348.365" y2="7583.982"/>
		<polyline fill="none" stroke="#FC1921" stroke-width="1.0213" stroke-linecap="round" stroke-linejoin="round" points="
			7358.29,7580.934 7352.943,7587.418 7344.93,7592.764 		"/>
		
			<line fill="none" stroke="#FC1921" stroke-width="1.0213" stroke-linecap="round" stroke-linejoin="round" x1="7356" y1="7575.969" x2="7349.893" y2="7584.364"/>
		
			<line fill="none" stroke="#FC1921" stroke-width="1.0213" stroke-linecap="round" stroke-linejoin="round" x1="7341.496" y1="7561.846" x2="7335.77" y2="7568.336"/>
		<polyline fill="none" stroke="#FC1921" stroke-width="1.0213" stroke-linecap="round" stroke-linejoin="round" points="
			7361.723,7585.13 7359.051,7590.477 7351.801,7595.434 		"/>
		<path fill="#FC1921" d="M7238.566,7594.023c-7.988,13.949-28.168,51.955-34.953,67.64c-1.773,4.096-2.191,5.948-0.432,8.015
			c0.338,0.4,0.885,1.397,0.977,1.758c0.367,1.403-1.232,3.228-2.073,3.778c-1.745,1.136-5.502,1.425-12.251-1.665
			c-6.747-3.09-8.441-6.847-8.544-8.931c-0.049-1.004,0.483-3.366,1.836-3.899c0.345-0.134,1.472-0.279,1.994-0.238
			c2.704,0.211,4.183-1.545,6.456-5.388c9.304-15.729,29.176-52.354,36.117-66.473c4.066-8.279,26.606-52.015,37.574-83.677
			c0.823-2.385,1.586-4.697,2.267-6.93c0.114-0.378,0.706-1.304,1.194-2.025c1.955-2.905,8.494-3.506,14.59-0.635
			c6.125,2.888,10.492,9.691,8.755,14.137c-0.315,0.814-0.952,1.9-1.192,2.221c-0.999,1.32-2.043,2.746-3.124,4.248
			C7271.837,7538.098,7247.645,7578.176,7238.566,7594.023z M7187.881,7661.745c0.115,0.323,0.533,0.743,1.66,0.479
			c0.453-0.113,0.809-0.533,1.376-1.162c0.949-1.057,2.103-2.676,2.431-4.336c0.213-0.715-0.223-0.377-0.384-0.045
			c-0.165,0.33-3.173,4.147-4.757,4.56C7187.988,7661.301,7187.877,7661.188,7187.881,7661.745z M7213.828,7624.46
			c-2.057,4.104-14.537,28.124-20.148,35.379c-0.152,0.193-0.296,0.375-0.441,0.545c-0.146,0.208-0.524,0.392-0.67,0.546
			c-0.176,0.188-0.114,0.336-0.227,0.438c-0.095,0.111,0.053,0.214-0.02,0.318c-0.086,0.133-0.389,0.26-0.496,0.385
			c-0.253,0.271-0.164,0.516-0.375,0.716c-0.371,0.364-0.965,0.585-0.965,0.585c-0.658,0.119-0.432,1,0.121,1.213
			c0.306,0.118,0.611,0.314,0.92,0.496c0.246,0.146,0.496,0.245,0.746,0.591c0.197,0.272-0.129,0.675-0.147,1.05
			c-0.021,0.291,0.099,0.573-0.114,0.783c-0.297,0.287-0.943,0.438-1.482,0.28c-0.641-0.191-1.469-0.688-2.23-1.054
			c-0.947-0.455-1.787-0.76-2.031-0.729c-0.22,0.03-0.713,0.155-0.863,0.383c-0.105,0.15-0.151,0.352,0.132,0.592
			c0.128,0.104,0.522,0.334,0.746,0.459c0.348,0.197,0.653,0.521,1.094,0.742c0.174,0.086,0.332-0.06,0.49,0.01
			c0.213,0.094,0.427,0.41,0.67,0.533c0.289,0.146,0.681,0.389,0.95,0.51c0.18,0.078,0.354,0.416,0.521,0.527
			c0.102,0.065,0.197-0.088,0.292-0.043c0.322,0.16,0.599,0.215,0.806,0.374c0.354,0.289,0.778,0.587,1.187,0.74
			c0.667,0.249,1.301-0.004,1.563-1.206c0.424-1.932,0.953-4.143,1.379-5.631c0.089-0.319,0.32-0.982,0.642-1.887
			c0.062-0.17-0.092-0.352-0.022-0.537c1.281-3.536,3.912-9.788,5.576-13.4c2.213-4.816,12.295-23.045,12.403-23.378
			C7213.939,7624.457,7214.695,7622.96,7213.828,7624.46z M7228.309,7596.211c1.68-3.238,51.808-88.62,56.344-96.432
			c0,0,1.332,0.759,1.121,1.861c-4.566,6.877-33.221,54.988-35.605,59.644c-2.381,4.651-19.631,34.137-30.463,55.185
			c0,0,43.841-74.712,45.579-77.816c1.708-3.059,20.681-33.698,21.827-35.448c0,0,1.195-1.972,1.14-1.86
			c-2.985-4.087-8.548-6.367-13.616-6.212c-0.421,1.987-18.693,46.695-24.324,57.55
			C7244.948,7563.016,7230.477,7592.227,7228.309,7596.211L7228.309,7596.211z M7209.675,7640.372
			c3.013-5.646,42.914-77.853,68.482-116.757c0.704-1.07,11.893-17.723,11.948-18.485c0.062-0.86-0.571-1.868-0.904-2.144
			c-0.559,0.895-6.811,10.99-12.253,19.447c-23.433,38.008-64.513,110.735-66.902,116.336c-0.088,0.215-0.606,1.66-0.696,1.856
			c-0.127,0.274,0.063,0.088-0.146,0.368c-0.564,0.742-1.068,2.068-1.564,2.852c-0.125,0.196-0.259,0.383-0.387,0.58
			c-0.05,0.088,0.014,0.227-0.029,0.317c-0.119,0.268-0.299,0.51-0.404,0.788c-0.041,0.096,0.021,0.232-0.027,0.312
			c-0.334,0.546-0.43,1.091-0.831,1.58c-0.056,0.065,0.015,0.218-0.033,0.308c-0.03,0.059-0.171,0.07-0.185,0.123
			c-0.21,0.75-0.749,1.234-1.088,1.889c-0.049,0.087-0.016,0.211-0.014,0.322c-0.107-0.029-0.189,0.026-0.209,0.115
			c-0.06,0.271-0.168,0.512-0.257,0.756c-0.075,0.203-0.303,0.401-0.348,0.584c-0.104,0.414-0.513,0.657-0.487,1.097
			c-0.324,0.11-0.22,0.222-0.229,0.327c-0.01,0.103-0.1,0.189-0.166,0.264c-0.275,0.295-0.406,0.702-0.528,1.088
			c-0.101,0.324-0.36,0.561-0.476,0.873c-0.026,0.064,0.017,0.154-0.021,0.203c-0.103,0.164,0.099,0.328,0.065,0.468
			c-0.045,0.17-0.443,0.456-0.516,0.604c-0.039,0.086-0.082,0.052-0.125,0.127c-0.416,0.679-0.322,1.353-0.687,2.033
			c-0.062,0.119-0.298,0.315-0.371,0.414c-0.493,0.627-0.365,1.426-0.838,2.01c0.079,0.332-0.194,0.568-0.233,0.881
			c-0.01,0.082,0.057,0.146,0.042,0.229c-0.028,0.284-0.131,0.519-0.184,0.78c-0.185,0.976-0.351,1.883-0.624,2.917
			c-0.2,0.768-0.717,1.105-0.814,1.936c-0.027,0.244,0.193,0.25,0.209,0.332c0.022,0.125,0.045,0.244,0.139,0.314
			c0.082,0.066,0.174-0.018,0.199-0.104c0.209-0.625,0.224-1.068,0.506-1.674c0.115-0.246-0.242-0.582-0.162-0.853
			c0.257-0.813,1.147-1.522,1.384-2.338c0.388-0.154,0.063-0.582,0.213-0.884c0.046-0.082,0.129-0.099,0.211-0.135
			c0.146-0.065-0.146-0.283-0.082-0.404c0.2-0.387,0.621-0.741,0.874-1.104c0.17-0.242,0.377-0.469,0.477-0.707
			c0.174-0.418,0.42-0.684,0.42-1.087c0.002-0.473,0.521-0.86,0.5-1.328c-0.006-0.124,0.142-0.231,0.168-0.337
			c0.134-0.615,0.199-1.189,0.43-1.775c0.074-0.19,0.02-0.426,0.02-0.648c0.289,0.027-0.039-0.34,0.217-0.333
			c-0.078-0.272,0.069-0.545,0.158-0.744c0.368-0.797,0.654-1.649,0.828-2.565c0.039-0.209,0.217-0.363,0.289-0.563
			c0.036-0.099-0.029-0.252,0.026-0.312c0.146-0.154,0.217-0.344,0.407-0.48c0.035-0.02-0.006-0.131,0.019-0.195
			c0.089-0.254,0.408-0.365,0.447-0.668c0.01-0.049,0.157-0.063,0.181-0.121c0.292-0.748,0.627-1.352,0.816-2.109
			c0.105-0.424,0.666-0.734,0.629-1.205c-0.004-0.032,0.158-0.059,0.174-0.118c0.15-0.489,0.131-0.903,0.43-1.33
			c0.053-0.083-0.003-0.217,0.026-0.319c0.021-0.088,0.378-0.106,0.397-0.139c0.252-0.395,0.049-1.021,0.19-1.427
			c0.075-0.226,0.499-0.333,0.634-0.511c0.092-0.119,0.069-0.272,0.178-0.363c0.025-0.021-0.026-0.073-0.023-0.08
			c0.062-0.148,0.072-0.23,0.197-0.35c0.06-0.051,0.096-0.162,0.066-0.265c0.082,0.067,0.029-0.118,0.111-0.054
			c-0.003-0.059-0.003-0.107-0.003-0.164 M7242.264,7564.552c3.506-4.821,20.674-40.86,29.252-66.747l-1.101,0.229
			C7269.504,7501.411,7260.624,7529.618,7242.264,7564.552z"/>
		<path fill="#0C2D82" d="M7261.555,7446.514c8.686-6.01,29.684-11.18,48.475-1.049c13.845,7.465,23.857,19.754,26.719,37.691
			l-10.496,6.016c-9.921-11.263-18.893-17.941-25.766-21.378c-6.869-3.433-22.9-10.305-38.168-11.065L7261.555,7446.514z
			 M7317.238,7454.891l-5.164,2.357l-5.139-2.977l0.599,5.623l-4.491,3.879l5.762,1.098l2.221,5.559l3.052-5.062l5.71-0.292
			l-3.723-4.423L7317.238,7454.891z M7331.975,7477.666l-3.42-0.025l-2.049-2.931l-1.104,3.22l-3.44,0.973l2.868,2.065l-0.208,3.604
			l2.96-1.987l3.189,1.294l-0.907-3.363L7331.975,7477.666z M7289.771,7444.568l-2.475,4.156l-5.039,0.406l3.145,3.643l-1.266,4.896
			l4.566-2.025l4.248,2.813l-0.315-5.022l3.856-2.975l-4.748-1.291L7289.771,7444.568z M7269.723,7446.001l-0.986,3.039
			l-3.188,0.994l2.557,1.894l-0.103,3.334l2.647-1.968l3.147,1.19l-0.937-3.188l2.05-2.48l-3.245-0.135L7269.723,7446.001z"/>
		<path fill="#0C2D82" d="M7358.277,7564.76h-2.27v6.176h-1.533v-6.176h-2.264v-1.34h6.064v1.34H7358.277z M7368.553,7570.936
			h-1.535v-5.979h-0.035l-2.174,5.979h-1.482l-2.105-5.979h-0.031v5.979h-1.539v-7.516h2.662l1.748,4.907h0.035l1.819-4.907h2.64
			v7.516H7368.553z"/>
	</g>
	<g>
		<path fill="#FFFFFF" d="M144.066,754.002c-38.648,0.285-88.036,23.042-100.043,86.238L44,840.364l100.066,99.986L244,840.46
			C231.974,771.509,173.371,753.774,144.066,754.002"/>
		<path fill="#CD1141" d="M144.104,758.802c27.335-0.211,82.013,16.336,93.298,80.464c-0.023,0-93.326,93.256-93.326,93.256
			c0-0.051-93.001-92.971-93.305-93.271C61.985,780.301,108.055,759.068,144.104,758.802"/>
		<path fill="#FFFFFF" d="M144.097,767.456c-47.286,0.431-78.362,36.365-83.598,69.959l-0.085,0.547l83.69,83.363l83.282-83.363
			l-0.085-0.54c-5.105-33.602-35.992-69.536-83.187-69.966h-0.011"/>
		<path fill="#00529B" d="M144.104,769.619c45.75,0.423,75.745,35.045,80.957,67.607c-0.801,0.801-79.468,79.549-80.957,81.039
			c-1.498-1.489-80.556-80.229-81.365-81.039C68.074,804.664,98.258,770.042,144.104,769.619"/>
		<path fill="#FFFFFF" d="M210.711,824.226h-1.763v4.797h-1.187v-4.797h-1.763v-1.042h4.712 M218.694,829.023h-1.187v-4.646h-0.03
			l-1.693,4.646h-1.147l-1.641-4.646h-0.021v4.646h-1.193v-5.839h2.062l1.362,3.811h0.024l1.408-3.811h2.056V829.023
			L218.694,829.023z"/>
		<path fill="#FFFFFF" d="M96.087,809.226l-0.824,0.053v11.552l1.055-0.2c3.927-0.747,6.14-3.295,5.781-6.648
			C101.727,810.589,99.701,808.991,96.087,809.226"/>
		<path fill="#FFFFFF" d="M184.22,830.952c0-0.131-0.009-0.25-0.017-0.362c0,0-0.208-0.566-0.208-0.586
			c-0.385-0.243-0.993-0.28-1.685-0.107c-1.209,0.3-2.342,1.14-2.896,2.134l-0.021,0.026c-1.218,1.449-1.787,3.276-1.633,4.139
			c0.039,0.211,0.115,0.354,0.285,0.45l0.724,0.247c1.154-0.016,3.003-1.074,4.118-2.363
			C183.787,833.469,184.22,831.983,184.22,830.952"/>
		<path fill="#FFFFFF" d="M199.815,826.047c0,0-0.485-0.361-0.815-0.596c-0.177-0.305-1.501-2.499-1.501-2.499l-6.437,4.597
			l0.069,1.082c0.022,0.358,0.031,0.704,0.031,1.051c0,2.529-0.632,4.669-1.802,6.355c0.979-1.759,1.332-3.364,1.332-4.63
			c0-1.182-0.255-2.087-0.446-2.603c-1.34-3.595-5.29-5.782-9.378-5.193c-1.424,0.208-5.004,1.22-7.46,5.536
			c-0.562-2.337-1.594-6.59-1.64-6.806c0.139-0.143,2.155-2.175,3.526-3.562l9.139-0.023v-12.995c0,0-2.587,0-3.025,0
			c0-0.52,0-20.093,0-20.093c-0.048-0.143-3.026-4.963-3.026-4.963l-0.078-0.126l-9.222-0.042c-0.1,0.019-7.13,2.671-7.13,2.671
			l-18.053-0.015c0,0-17.33,0-17.334,0c0-0.016-6.938-2.637-6.938-2.637c-0.097-0.019-9.173,0.023-9.173,0.023h-0.147l-3.06,4.947
			c0,0-0.038,19.717-0.038,20.237c-0.073,0-0.216,0-0.382,0c-1.143-1.205-2.575-2.229-4.292-3.019
			c-7.544-3.468-18.204-1.886-23.767,3.534c-3.599,3.519-5.354,7.818-4.696,11.491c0.4,2.264,1.721,4.046,3.626,4.9
			c2.598,1.167,4.566,0.678,5.759,0.069c0.816-0.423,1.491-1.016,2.049-1.67c0,7.453,0,14.858,0,15.521
			c-1.991,2.328-3.173,4.719-3.173,6.859c0,0.654,0.097,1.281,0.292,1.878c0.616,1.87,2.175,3.153,4.272,3.522
			c2.342,0.416,4.9-0.32,6.856-1.96c1.894-1.59,2.979-3.86,2.979-6.24c0,0,0-9.955,0-12.119c3.969-1.504,7.756-3.337,10.262-6.355
			c0,8.75,0,21.611,0,21.618c-0.019,0.158-0.034,0.324-0.034,0.481c0,1.505,0.669,2.814,1.897,3.654
			c1.604,1.098,3.953,1.171,5.712,0.188c1.524-0.858,2.375-2.328,2.375-4.061c0-0.092-0.003-0.185-0.007-0.272
			c0,0,0.003-9.689,0.003-10.187c0.05-0.023,0.076-0.042,0.119-0.055c0.011,0.039,0.016,0.047,0.03,0.082c0,0.558,0,9.558,0,9.558
			c0.035,2.56,1.494,4.488,3.903,5.316c-0.042,0.196-0.088,0.404-0.13,0.602H89.161l-0.123,0.019
			c-2.321,0.295-3.896,2.028-3.896,4.242c0,0.081,0,0.156,0.011,0.234c0.104,2.278,1.875,4.045,4.112,4.111c0,0,12.441,0,28.567,0
			c-2.78,5.151-5.447,7.838-7.507,9.878c-2.471,2.444-4.173,4.126-4.173,8.276c0,0.354,0.017,0.72,0.035,1.112l0.016,0.242
			c0,0,26.969,0,33.147,0c0.051-1.4-0.139-2.475-0.312-3.422c0,0-0.235-2.439-0.235-2.451c0.076-0.848-0.308-1.377-0.793-2.052
			c-0.423-0.589-0.904-1.259-1.077-2.229l-0.497-0.716c0,0-0.693-1.367-0.693-1.386c0.046-0.47-0.165-0.784-0.535-1.301
			c0,0-0.806-1.582-0.809-1.609c-0.192-1.117,0.07-1.832,0.293-2.469c0.2-0.558,0.373-1.038,0.239-1.816
			c0,0-0.005-0.047-0.005-0.057c0.393,0,0.782,0,1.17,0c0.031,0.206,0.054,0.406,0.054,0.589c0,0.688-0.186,1.208-0.357,1.682
			c-0.154,0.431-0.297,0.816-0.297,1.324c0,0.158,0.017,0.331,0.051,0.517l0.611,1.15c0.362,0.505,0.759,1.062,0.759,1.852
			c0,0.074,0,0.15-0.013,0.23l0.374,0.481c0,0,0.808,1.363,0.808,1.343c0.124,0.689,0.485,1.193,0.874,1.729
			c0.527,0.732,1.12,1.56,1.013,2.83l0.22,2.152c0.184,0.991,0.377,2.129,0.322,3.628c0.039,0,0.081,0,0.093,0
			c0,0.37,0,1.391,0,1.575c-0.339,0.259-2.163,1.763-2.329,4.153c-0.008,0.112-0.016,0.224-0.016,0.335
			c0,1.612,0.812,3.219,2.424,4.781l-0.079,3.609v0.266h7.394v-4.068c1.54-1.379,2.348-2.976,2.348-4.589
			c0-0.112,0-0.223-0.009-0.335c-0.168-2.391-2-3.896-2.34-4.152c0-0.186,0-1.205,0-1.575c0.532,0,34.406,0,34.406,0l0.016-0.243
			c0.031-0.392,0.039-0.762,0.039-1.115c0-4.146-1.702-5.829-4.173-8.273c-2.056-2.036-4.721-4.719-7.499-9.877
			c10.908,0,18.593,0,19.092,0c1.68,2.155,3.881,3.333,6.236,3.172c2.364-0.166,4.428-1.621,5.39-3.792l0.069-0.158l0.038-0.165
			c0.671-2.761-0.107-4.488-0.877-5.441c-1.68-2.084-4.489-2.245-5.628-2.219h-9.47c0.9-0.139,1.787-0.369,2.648-0.723
			c1.602-0.658,2.94-1.672,4.143-2.788c4.55,3.989,8.183,3.854,10.438,3.01c3.381-1.258,5.59-4.908,5.959-7.697
			c0.093-0.659,0.14-1.291,0.14-1.891C208.971,832.7,204.127,829.182,199.815,826.047 M172.732,830.489
			c-0.601,1.336-1.094,2.926-1.416,4.831c0-1.89,0-3.83,0-3.83c-0.086-1.039-0.332-1.89-0.678-2.594
			C171.454,829.519,172.216,830.097,172.732,830.489z M172.986,819.1c0,0-3.303,2.907-3.357,2.845c0,0.012,1.471,4.785,1.471,4.785
			c0.008,0.015,0.008,0.031,0.008,0.046c0,0.05-0.022,0.1-0.068,0.131c-0.055,0.039-0.131,0.039-0.186-0.004
			c0,0-3.564-2.755-3.564-2.898c-0.015,0.012-3.74,2.898-3.74,2.898c-0.054,0.043-0.132,0.043-0.186,0.004
			c-0.047-0.031-0.069-0.081-0.069-0.131c0-0.016,0.008-0.031,0.008-0.046c0,0,1.433-4.623,1.524-4.627
			c-0.008-0.003-3.411-3.002-3.411-3.002c-0.03-0.027-0.054-0.072-0.054-0.119c0-0.019,0-0.035,0.017-0.053
			c0.022-0.062,0.076-0.1,0.146-0.1l3.787,0.104l1.74-4.962c0.022-0.065,0.085-0.107,0.146-0.107c0.069,0,0.131,0.043,0.154,0.107
			c0,0,1.602,4.562,1.602,4.843c0,0.012,0,0.012-0.008,0.016c0.016,0,3.935,0,3.935,0c0.069,0,0.123,0.039,0.146,0.1
			C173.048,818.988,173.032,819.057,172.986,819.1z M154.918,805.391c0.5,0,10.602,0,11.001,0c0.039,0.158,0.454,2.226,0.955,4.685
			c-0.462,1.17-1.979,4.928-2.563,6.398c-1.578-4.893-5.235-8.373-9.393-8.526C154.918,807.636,154.918,805.8,154.918,805.391z
			 M137.26,818.826c0.351,0,0.59,0,0.59,0c0.062,0,0.12,0.038,0.149,0.1c0.02,0.062,0,0.131-0.046,0.173c0,0-0.3,0.262-0.704,0.616
			c-0.971,0.847-2.614,2.271-2.656,2.229c0.003,0.012,1.475,4.785,1.475,4.785c0.006,0.015,0.006,0.031,0.006,0.046
			c0,0.05-0.022,0.1-0.068,0.131c-0.058,0.039-0.131,0.039-0.181-0.004c0,0-3.564-2.755-3.568-2.898
			c-0.012,0.012-3.737,2.898-3.737,2.898c-0.058,0.043-0.136,0.043-0.192,0.004c-0.042-0.031-0.062-0.081-0.062-0.131
			c0-0.016,0-0.031,0.004-0.046c0,0,1.424-4.623,1.516-4.627c-0.003-0.003-3.401-3.002-3.401-3.002
			c-0.031-0.027-0.051-0.072-0.051-0.119c0-0.019,0-0.035,0.012-0.053c0.02-0.062,0.076-0.1,0.144-0.1l3.791,0.104l1.74-4.961
			c0.023-0.066,0.08-0.108,0.149-0.108c0.062,0,0.127,0.043,0.147,0.108c0,0,1.604,4.562,1.604,4.842
			c0,0.012-0.003,0.012-0.003,0.012C133.923,818.826,136.166,818.826,137.26,818.826z M119.957,818.803c0,0,2.656-13,2.736-13.412
			c0.408,0,10.509,0,11.006,0c0,0.409,0,2.245,0,2.556c-5.173,0.188-9.623,5.497-10.178,12.322l-0.124,3.989
			c-0.347-0.266-0.708-0.508-1.104-0.693c-1.816-0.863-3.72-0.647-5.267-0.2c0-1.324,0-3.01,0-4.569L119.957,818.803z M107,818.979
			c-2.137,4.389-6.849,6.482-11.903,8.218v13.45c0,1.852-0.831,3.573-2.351,4.85c-1.575,1.324-3.699,1.944-5.536,1.62
			c-1.378-0.239-2.341-1.012-2.726-2.163c-0.126-0.385-0.188-0.8-0.188-1.238c0-1.929,1.205-4.305,3.379-6.541c0,0,0-25.96,0-26.553
			c-2.066,0.966-3.591,2.917-3.591,4.134c0,0.088,0.007,0.176,0.023,0.254c0.15,0.696,0.917,0.824,1.536,0.808l0.209-0.003
			l-0.031,0.211c-0.027,0.154-0.647,3.834-3.107,5.158c-1.216,0.654-2.656,0.612-4.296-0.119c-1.385-0.62-2.309-1.901-2.617-3.603
			c-0.547-3.103,1.02-6.817,4.2-9.932c4.992-4.869,14.978-6.333,21.807-3.195c0.889,0.408,1.662,0.896,2.383,1.428
			c1.848,1.378,3.091,3.138,3.652,5.201c0.293,1.062,0.417,2.202,0.344,3.411C108.074,816.162,107.639,817.664,107,818.979z
			 M167.704,848.932c0.463,0.092,0.917,0.147,1.363,0.169h-1.324C167.735,849.048,167.72,848.986,167.704,848.932z M195.159,851.034
			c1.763-0.042,5.728,0.57,4.581,5.273c-1.348,3.065-6.006,4.165-8.916-0.531h-101.5c-2.738-0.08-3.227-4.334-0.039-4.742H195.159z
			 M170.022,849.101c1.693-0.08,3.286-0.572,4.572-1.289c0.454-0.254,0.693-0.538,1.032-0.804c2.163,1.112,4.25,1.81,6.252,2.095
			h-11.856V849.101z M207.076,840.671c-0.262,1.952-1.932,5.185-4.827,6.271c-1.809,0.678-4.804,0.743-8.793-2.991
			c0.078-0.135,1.926-3.33,3.305-3.711c1.446,1.463,2.739,2.03,3.656,1.598c0.731-0.347,1.169-1.328,1.169-2.576
			c0-0.196-0.006-0.396-0.03-0.604c-0.2-1.906-1.431-4.338-4.188-5.085c-0.284,1.055-2.956,10.367-9.754,13.168
			c-3.611,1.486-7.776,0.82-12.356-1.855c-0.162,0.429-0.786,0.963-1.524,1.379c-2.702,1.505-6.675,1.893-9.801-1.394
			c-0.501,0.382-7.36,5.428-13.089-0.392c-0.4,0.365-3.395,2.936-6.932,2.794c-1.752-0.072-3.308-0.854-4.658-2.263
			c-0.339,0.347-2.363,2.306-5.2,2.336c-1.759,0.02-3.435-0.772-4.969-2.294c-1.132,1.632-4.566,2.575-7.142,1.897
			c-1.952-0.513-3.041-1.848-3.075-3.768l0.003-9.812c-0.396-1.81-1.751-1.671-2.148-1.586c-0.915,0.193-1.67,0.927-1.547,1.552
			v10.536c0.058,1.174-0.461,2.132-1.467,2.698c-1.179,0.658-2.79,0.611-3.849-0.104c-0.862-0.593-1.248-1.548-1.09-2.668v-29.535
			c-0.163-1.371,0.368-2.553,1.458-3.249c1.125-0.72,2.588-0.763,3.646-0.111c0.92,0.566,1.412,1.562,1.412,2.833
			c0,0.173-0.007,0.358-0.03,0.542c0,0,0,11.133,0,11.714c0.796-0.462,3.772-2.01,6.282-0.828c1.748,0.824,2.825,2.806,3.2,5.917
			v8.45c0.099,1.208,1.258,1.809,2.351,1.782c0.989-0.022,2.001-0.581,2.035-1.771l0.005-7.834
			c-0.107-1.497,0.415-2.721,1.432-3.352c0.844-0.535,1.909-0.554,2.772-0.057c1.03,0.596,1.592,1.817,1.543,3.356v7.291
			c-0.066,0.846,0.254,1.543,0.893,1.956c0.654,0.418,1.51,0.449,2.176,0.085c0.704-0.393,1.086-1.162,1.074-2.175v-19.582
			c-0.096-2.468,0.35-4.192,1.359-5.258c0.777-0.824,1.89-1.236,3.395-1.263c1.718-0.047,3.103,0.639,3.996,1.979
			c0.827,1.236,1.229,2.972,1.229,5.097c0,3.849-1.329,8.974-3.901,14.72c-0.229,1.216-0.322,2.121-0.322,2.817
			c0,1.286,0.312,1.883,0.623,2.501c0,0,0.131,0.255,0.135,0.282c0.985,0.843,2.083,1.143,3.002,0.819
			c0.795-0.277,1.833-1.138,2.295-3.63l0.009-18.465c-0.178-2.233,0.207-3.873,1.146-4.871c1.086-1.146,2.702-1.274,4.143-1.25
			c1.332,0.042,2.532,0.866,3.395,2.321c0.323,0.555,0.585,1.251,0.801,2.006c0.323,1.12,0.492,2.451,0.485,3.984
			c-0.031,3.503-1.056,8.006-3.818,13.376c-1.048,3.884,0.092,5.651,0.854,6.359c0.909,0.835,2.233,1.074,3.465,0.631
			c1.339-0.485,2.247-1.655,2.448-3.115v-6.767c-0.161-1.848,1.309-3.234,2.795-3.364c1.294-0.107,2.757,0.704,2.994,3.345
			l-0.006,8.478c0.353,0.872,1.123,1.354,1.855,1.173c0.716-0.173,1.485-1.069,1.316-3.037c0.762-10.797,6.636-12.476,8.415-12.734
			c3.271-0.473,6.406,1.231,7.467,4.058c1.356,3.661-1.154,7.984-6.666,11.471c-0.016,0.073-0.031,0.166,0.099,0.262
			c0.571,0.458,2.765,0.37,5.044-0.809c2.378-1.232,6.298-4.404,5.905-11.987l4.003-2.852l0.101,0.162c0,0,0.569,0.951,0.569,0.978
			l1.131,0.827c4.32,3.142,8.416,6.125,8.416,11.534C207.191,839.54,207.153,840.094,207.076,840.671z"/>
		<path fill="#FFFFFF" d="M143.949,817.102c-0.215-0.131-0.454-0.146-0.693-0.043l-0.104,0.054v11.644l0.205-0.035
			c0.962-0.146,1.554-2.491,1.855-7.372C145.159,820.031,144.815,817.633,143.949,817.102"/>
		<path fill="#FFFFFF" d="M155.764,817.102c-0.216-0.131-0.455-0.146-0.692-0.043l-0.107,0.054v11.644l0.206-0.035
			c0.956-0.146,1.562-2.563,1.856-7.387C156.98,820.031,156.625,817.633,155.764,817.102"/>
		<path fill="#CD1141" d="M89.324,855.776h101.5c2.91,4.696,7.568,3.595,8.916,0.531c1.146-4.703-2.818-5.315-4.581-5.273H89.284
			C86.098,851.442,86.586,855.696,89.324,855.776"/>
		<path fill="#CD1141" d="M104.188,805.766c-0.719-0.532-1.492-1.02-2.382-1.428c-6.829-3.138-16.814-1.674-21.807,3.195
			c-3.179,3.114-4.747,6.829-4.2,9.932c0.308,1.702,1.231,2.983,2.617,3.603c1.641,0.731,3.079,0.773,4.296,0.119
			c2.46-1.324,3.081-5.004,3.106-5.158l0.031-0.211l-0.208,0.003c-0.621,0.016-1.385-0.112-1.536-0.809
			c-0.015-0.077-0.023-0.165-0.023-0.254c0-1.216,1.525-3.168,3.592-4.134c0,0.592,0,26.553,0,26.553
			c-2.175,2.237-3.38,4.612-3.38,6.541c0,0.438,0.062,0.854,0.189,1.238c0.385,1.151,1.348,1.926,2.727,2.163
			c1.836,0.324,3.96-0.295,5.535-1.62c1.521-1.278,2.352-2.999,2.352-4.85v-13.449c5.054-1.736,9.766-3.831,11.903-8.219
			c0.639-1.317,1.074-2.817,1.185-4.604c0.073-1.209-0.051-2.348-0.344-3.411C107.281,808.902,106.036,807.143,104.188,805.766
			 M96.317,820.631l-1.055,0.2v-11.552l0.824-0.053c3.614-0.235,5.64,1.363,6.012,4.758
			C102.457,817.336,100.244,819.885,96.317,820.631z"/>
		<path fill="#CD1141" d="M198.777,827.48l-1.133-0.828c0-0.027-0.57-0.978-0.57-0.978l-0.099-0.162l-4.004,2.853
			c0.394,7.583-3.525,10.755-5.905,11.987c-2.278,1.178-4.473,1.267-5.043,0.809c-0.13-0.096-0.115-0.189-0.1-0.262
			c5.512-3.487,8.021-7.811,6.667-11.471c-1.062-2.826-4.195-4.531-7.468-4.058c-1.779,0.258-7.653,1.937-8.414,12.734
			c0.168,1.966-0.602,2.864-1.317,3.037c-0.731,0.181-1.501-0.3-1.856-1.174l0.009-8.477c-0.239-2.641-1.701-3.454-2.995-3.345
			c-1.486,0.131-2.957,1.516-2.795,3.364v6.768c-0.201,1.458-1.109,2.629-2.449,3.114c-1.232,0.442-2.556,0.204-3.464-0.631
			c-0.763-0.708-1.901-2.475-0.854-6.359c2.764-5.37,3.788-9.874,3.818-13.376c0.008-1.531-0.161-2.864-0.484-3.984
			c-0.216-0.754-0.479-1.451-0.801-2.005c-0.863-1.455-2.064-2.278-3.396-2.321c-1.44-0.023-3.057,0.104-4.143,1.251
			c-0.938,0.997-1.324,2.638-1.146,4.87l-0.009,18.465c-0.461,2.492-1.501,3.353-2.293,3.63c-0.921,0.323-2.017,0.023-3.003-0.819
			c-0.005-0.028-0.136-0.282-0.136-0.282c-0.312-0.62-0.623-1.216-0.623-2.501c0-0.697,0.092-1.602,0.324-2.817
			c2.571-5.747,3.899-10.871,3.899-14.72c0-2.125-0.4-3.861-1.229-5.097c-0.894-1.339-2.278-2.024-3.996-1.978
			c-1.505,0.027-2.617,0.438-3.396,1.263c-1.007,1.065-1.455,2.791-1.358,5.258v19.578c0.012,1.013-0.369,1.783-1.074,2.175
			c-0.666,0.364-1.521,0.335-2.175-0.085c-0.64-0.413-0.959-1.11-0.894-1.956v-7.291c0.051-1.54-0.511-2.76-1.543-3.356
			c-0.862-0.497-1.929-0.478-2.771,0.057c-1.016,0.632-1.54,1.856-1.433,3.352l-0.003,7.834c-0.036,1.189-1.047,1.748-2.036,1.771
			c-1.094,0.027-2.252-0.573-2.353-1.782v-8.452c-0.372-3.109-1.451-5.092-3.198-5.916c-2.51-1.182-5.486,0.365-6.283,0.828
			c0-0.582,0-11.714,0-11.714c0.023-0.185,0.031-0.369,0.031-0.542c0-1.27-0.492-2.268-1.412-2.833
			c-1.06-0.65-2.522-0.607-3.646,0.112c-1.091,0.696-1.621,1.878-1.46,3.248v29.532c-0.157,1.12,0.227,2.075,1.09,2.668
			c1.059,0.716,2.671,0.763,3.85,0.104c1.004-0.565,1.523-1.523,1.467-2.697v-10.535c-0.124-0.624,0.631-1.359,1.548-1.551
			c0.396-0.084,1.751-0.223,2.147,1.585l-0.004,9.812c0.035,1.921,1.124,3.257,3.076,3.769c2.574,0.677,6.009-0.267,7.14-1.897
			c1.537,1.52,3.212,2.312,4.971,2.294c2.837-0.031,4.862-1.99,5.2-2.337c1.352,1.408,2.906,2.19,4.657,2.264
			c3.538,0.143,6.533-2.43,6.933-2.796c5.729,5.82,12.587,0.775,13.088,0.393c3.126,3.288,7.099,2.899,9.801,1.394
			c0.74-0.415,1.363-0.951,1.524-1.378c4.581,2.675,8.746,3.341,12.356,1.856c6.798-2.803,9.47-12.115,9.755-13.17
			c2.757,0.747,3.987,3.179,4.188,5.085c0.022,0.208,0.031,0.408,0.031,0.604c0,1.248-0.438,2.23-1.171,2.575
			c-0.916,0.431-2.209-0.135-3.657-1.598c-1.378,0.382-3.226,3.577-3.303,3.711c3.988,3.735,6.983,3.668,8.793,2.991
			c2.895-1.086,4.565-4.319,4.826-6.271c0.078-0.577,0.116-1.131,0.116-1.659C207.191,833.604,203.096,830.62,198.777,827.48
			 M143.357,828.723l-0.204,0.035v-11.645l0.104-0.054c0.239-0.104,0.477-0.088,0.693,0.043c0.866,0.531,1.209,2.93,1.262,4.25
			C144.913,826.232,144.319,828.577,143.357,828.723z M155.17,828.723l-0.206,0.035v-11.645l0.107-0.054
			c0.237-0.104,0.477-0.088,0.692,0.043c0.861,0.531,1.217,2.93,1.263,4.235C156.732,826.16,156.126,828.577,155.17,828.723z
			 M178.045,836.645c-0.17-0.096-0.246-0.239-0.285-0.45c-0.154-0.863,0.415-2.691,1.633-4.138l0.021-0.027
			c0.555-0.994,1.686-1.833,2.896-2.133c0.691-0.174,1.301-0.135,1.685,0.107c0,0.019,0.208,0.584,0.208,0.584
			c0.008,0.112,0.017,0.231,0.017,0.363c0,1.032-0.433,2.518-1.333,3.576c-1.116,1.289-2.964,2.349-4.118,2.363L178.045,836.645z"/>
		<path fill="#00529B" d="M132.313,813.968c-0.02-0.065-0.085-0.107-0.147-0.107c-0.068,0-0.126,0.043-0.149,0.107l-1.739,4.962
			l-3.792-0.104c-0.066,0-0.124,0.039-0.144,0.1c-0.011,0.02-0.011,0.035-0.011,0.054c0,0.046,0.02,0.092,0.05,0.119
			c0,0,3.398,2.999,3.402,3.002c-0.092,0.004-1.517,4.627-1.517,4.627c-0.004,0.015-0.004,0.031-0.004,0.046
			c0,0.05,0.02,0.1,0.062,0.13c0.058,0.039,0.136,0.039,0.192-0.004c0,0,3.726-2.887,3.737-2.898
			c0.004,0.143,3.569,2.898,3.569,2.898c0.05,0.042,0.122,0.042,0.181,0.004c0.045-0.03,0.068-0.081,0.068-0.13
			c0-0.016,0-0.031-0.007-0.046c0,0-1.472-4.773-1.475-4.785c0.042,0.042,1.687-1.382,2.656-2.229
			c0.404-0.354,0.705-0.616,0.705-0.616c0.045-0.043,0.064-0.112,0.045-0.173c-0.03-0.062-0.088-0.1-0.149-0.1c0,0-0.238,0-0.589,0
			c-1.094,0-3.339,0-3.345,0c0,0,0.003-0.004,0.003-0.016C133.919,818.53,132.313,813.968,132.313,813.968"/>
		<path fill="#00529B" d="M168.944,818.826c0.009-0.004,0.009-0.004,0.009-0.016c0-0.281-1.602-4.843-1.602-4.843
			c-0.023-0.065-0.086-0.107-0.155-0.107c-0.062,0-0.122,0.043-0.146,0.107l-1.739,4.962l-3.788-0.104
			c-0.069,0-0.123,0.039-0.146,0.1c-0.016,0.02-0.016,0.035-0.016,0.054c0,0.046,0.022,0.092,0.054,0.119
			c0,0,3.403,2.999,3.41,3.002c-0.092,0.004-1.524,4.627-1.524,4.627c0,0.015-0.008,0.031-0.008,0.046c0,0.05,0.022,0.1,0.07,0.13
			c0.053,0.039,0.13,0.039,0.185-0.004c0,0,3.727-2.887,3.741-2.898c0,0.143,3.564,2.898,3.564,2.898
			c0.054,0.042,0.13,0.042,0.186,0.004c0.045-0.03,0.068-0.081,0.068-0.13c0-0.016,0-0.031-0.009-0.046c0,0-1.471-4.773-1.471-4.785
			c0.055,0.062,3.357-2.845,3.357-2.845c0.047-0.043,0.062-0.112,0.038-0.173c-0.022-0.062-0.077-0.1-0.146-0.1
			C172.879,818.826,168.959,818.826,168.944,818.826"/>
	</g>
</g>
<g id="svg12082">
</g>
<g id="svg31568">
</g>
<g id="CLEVELAND_INDIANS">
</g>
<g id="svg2562">
</g>
</svg>
