<?xml version="1.0" encoding="utf-8"?>
<!-- Generator: Adobe Illustrator 14.0.0, SVG Export Plug-In . SVG Version: 6.00 Build 43363)  -->
<!DOCTYPE svg PUBLIC "-//W3C//DTD SVG 1.1//EN" "http://www.w3.org/Graphics/SVG/1.1/DTD/svg11.dtd">
<svg version="1.1" xmlns="http://www.w3.org/2000/svg" xmlns:xlink="http://www.w3.org/1999/xlink" x="0px" y="0px" width="200px"
	 height="200px" viewBox="44 746 200 200" enable-background="new 44 746 200 200" xml:space="preserve">
<g id="Layer_1">
	<g>
		<path fill="#FFFFFF" stroke="#FFFFFF" stroke-width="0.5877" d="M7218.837,7645.277c-2.438,4.812-9.872,18.5-9.485,20.523
			c0.48,2.512,2.055,4.428,1.979,6.965c-0.05,1.572-1.985,5.439-3.489,6.526c-1.259,0.907-5.062,8.043-20.085,0.963l-2.007-1.058
			c-14.529-8.039-10.977-15.297-10.977-16.85c0-1.854,1.998-5.688,3.246-6.646c2.012-1.546,4.485-1.396,6.805-2.473
			c1.867-0.875,7.51-12.213,9.984-17.006l0.039-0.107c-49.488-24.303-83.552-75.2-83.552-134.059
			c0-82.435,66.83-149.265,149.265-149.265c82.436,0,149.266,66.83,149.266,149.265c0,82.436-66.83,149.266-149.266,149.266
			c-14.543,0-28.597-2.079-41.889-5.959L7218.837,7645.277z"/>
		<path fill="#FC1921" d="M7310.404,7445.783c2.517,1.566,5.261,3.033,7.347,4.908l23.97-30.517
			c4.913,4.281,8.823,8.417,12.65,14.433l-27.979,24.561c2.26,2.576,5.166,7.668,6.987,11.215l28.75-19.906
			c0.55,1.073,2.117,7.637,1.867,9.559l-28.22,18.234c0.455,2.035,0.771,2.481,1.106,5.184c0,0,32.472-18.421,32.487-18.653
			c-3.542-34.866-33.861-63.302-69.663-63.302c-14.872,0-28.646,4.697-39.925,12.686c-0.19,0.135,1.869,32.676,1.869,32.676
			c2.289-1.432,5.125-2.766,6.269-3.146l-0.571-29.678c2.77-2.195,6.537-4.008,9.448-5.061l-0.67,32.158
			c4.008-0.951,11.163-1.527,13.456-1.047l5.82-35.023c7.063-0.668,14.121,0.099,20.326,2.104l-13.551,35.209
			c2.684,0.821,5.577,2.053,8.221,3.407"/>
		<path fill="none" stroke="#FFFFFF" stroke-width="2.2041" d="M7286.66,7541.208c28.023,0,50.738-22.722,50.738-50.739
			c0-28.025-22.715-50.742-50.738-50.742s-50.743,22.717-50.743,50.742C7235.917,7518.486,7258.637,7541.208,7286.66,7541.208z"/>
		<path fill="#FC1921" d="M7244.924,7555.453c-1.412,2.329-12.27,8.79-14.615,5.148c-3.91-6.071,8.041-15.715,5.781-18.412
			c-1.359-1.615-6.973,2.603-11.557,7.881c0,0-2.547,4.88-6.016,11.029l-8.156,0.071c-0.5-0.377,10.377-16.298,8.266-18.151
			c-3-2.621-20.595,25.819-28.863,19.78c-0.695-0.512-2.562-2.624-0.076-7.938c-3.701,4.886-12.697,8.841-16.484,5.559
			c-8.127-7.044,13.936-30.667,22.833-22.48c0.696,0.638,0.948,1.26,0.896,1.754l1.196-1.885l8.045-0.072
			c-3.655,9.843-11.235,18.748-9.291,20.147c3.384,2.435,22.839-27.389,29.462-20.891c2.057,2.021,1.915,4.664,1.379,6.104
			c4.691-4.893,14.598-9.605,17.799-6.281c3.896,4.037-7.959,15.966-5.349,17.631c1.481,0.947,6.042-2.536,6.042-2.536
			 M7179.284,7555.41c4.358,4.835,17.543-10.475,14.856-14.801C7190.572,7536.122,7175.384,7551.083,7179.284,7555.41z"/>
		<path fill="#FC1921" d="M7267.668,7546.346c7.393,0.592,15.95-3.896,14.373-7.41c-0.93-2.072-6.518-1.259-9.811,0.094
			L7267.668,7546.346z M7291.758,7552.52c-8.088,7.346-16.791,10.088-19.658,7.897c-4.781-3.653-0.424-8.401-2.852-10.448
			c-0.664-0.554-1.775-0.699-3.591-0.57l9.399-14.584c5.045-2.584,13.289-3.978,14.672,0.744
			c1.932,6.596-7.273,12.303-13.658,13.357c4.859,0.891,0.054,6.299,5.027,6.949c2.213,0.293,8.666-4.321,12.039-8.986"/>
		<path fill="#FC1921" d="M7325.467,7549.889c-12.592,9.047-29.176,11.872-32.701,4.161c-5.813-12.713,26.438-28.647,30.25-18.911
			c2.709,6.916-10.131,13.102-20.711,13.198c-0.445,0.004-0.293-0.108-0.332,0.004c-0.924,2.681,0.383,5.616,5.344,5.574
			s12.326-2.099,19.324-8.338 M7302.721,7545.797c6.387-0.83,12.789-6.154,11.719-8.593
			C7312.932,7533.786,7304.098,7539.941,7302.721,7545.797z"/>
		<path fill="#FC1921" d="M7370.137,7539.989c-4.15,4.228-10.093,7.239-10.843,7.819c-11.747,9.047-29.151,12.367-33.028,4.828
			c-6.586-12.818,26.274-27.527,28.82-18.568c1.854,6.525-9.589,12.104-19.283,12.853c-0.441,0.039-0.293-0.108-0.328,0.007
			c-0.927,2.678,0.381,5.621,5.342,5.571c4.959-0.046,10.332-2.386,17.684-6.888c1.643-1.01,8.555-4.824,11.93-9.479
			 M7336.107,7544.166c7.273-0.286,13.812-6.092,11.936-8.708C7345.707,7532.189,7336.617,7539.643,7336.107,7544.166z"/>
		<path fill="#FC1921" d="M7364.875,7543.566c0.549,5.674-5.07,5.832-5.352,5.562c-0.866,0.95-0.199,5.04,4.131,5.253
			c7.199,0.362,7.092-9.106,6.14-12.625c-0.649-2.407-0.175-5.043,0.206-7.358c0.953-5.797,8.464-11.84,11.125-9.947
			c1.818,1.301,0.818,5.617-4.098,9.855c-0.922,0.894-1.522,1.041-0.188,3.783c1.446,2.977,3.925,10.139-0.116,15.605
			c-3.156,4.271-8.562,4.849-13.052,4.087c-2.872-0.489-6.085-2.396-7.411-4.548
			C7350.501,7543.921,7362.396,7537.529,7364.875,7543.566z"/>
		<path fill="#0C2D82" d="M7287.803,7515.884c1.081-1.507,2.096-2.905,3.092-4.229c0.239-0.319,0.877-1.403,1.195-2.216
			c1.734-4.449-2.631-11.25-8.762-14.142c-6.094-2.873-12.63-2.272-14.586,0.634c-0.489,0.723-1.081,1.648-1.196,2.026
			c-0.68,2.228-1.444,4.422-2.272,6.812c-9.666-6.455-15.342-13.385-12.715-18.396c4.873-9.294,20.09-7.728,35.982,0.079
			c15.895,7.803,26.643,19.652,22.15,28.181C7308.029,7519.695,7298.917,7519.592,7287.803,7515.884z"/>
		<path fill="#0C2D82" d="M7306.857,7534.792c-0.812,0.296-2.83,1.376-4.391,2.363c-3.15-3.582-14.222-11.253-20.144-13.31
			c-0.091-0.029,1.501-2.115,1.501-2.115c6.105,2.479,20.646,10.916,22.936,13.016"/>
		<g>
			<path fill="#0C2D82" d="M7335.686,7535.971c1.316-0.936,4.9-2.396,5.002-2.531c0.119-0.49,0.188-1.463,0.188-1.463
				c3.817-17.939-3.962-32.539-10.065-38.266c-5.959-5.589-3.125-1.413-1.146,1.146c1.406,1.815,2.08,2.881,2.671,4.004
				c3.104,5.891,1.633,5.16-2.479,0.955c-8.111-8.287-22.234-18.797-35.211-25.284c-17.717-8.86-39.412-13.075-51.433-12.694
				c4.961-2.29,7.685-2.536,12.783-3.052c4.521-0.457,2.75-1.354,0-1.146c-9.658,0.738-31.181,1.076-34.54,17.939
				c-2.855,14.318,8.777,26.527,20.036,30.916c9.786,3.814,20.138,8.361,20.138,8.361l1.049-3.207
				c-5.727-3.056-15.707-6.34-20.992-8.396c-6.873-2.671-19.172-12.136-17.561-25.003c2.674-21.354,42.809-14.324,69.469-0.953
				c11.551,5.795,27.014,17.03,34.612,24.363c8.709,8.403,10.235,11.219,10.808,20.108
				C7339.039,7527.203,7337.527,7532.095,7335.686,7535.971"/>
			<text transform="matrix(1 0 0 1 -6505.8574 -5942.416)" fill="#0C2D82" font-family="'Helvetica'" font-size="9"> </text>
		</g>
		<path fill="none" stroke="#FC1921" stroke-width="1.0213" stroke-linecap="round" stroke-linejoin="round" d="M7339.202,7414.514
			c2.675-3.439,9.508-12.236,12.024-14.128"/>
		<polyline fill="none" stroke="#FC1921" stroke-width="1.0213" stroke-linecap="round" stroke-linejoin="round" points="
			7339.968,7398.859 7345.312,7406.493 7355.234,7409.93 		"/>
		<polyline fill="none" stroke="#FC1921" stroke-width="1.0213" stroke-linecap="round" stroke-linejoin="round" points="
			7334.242,7404.202 7341.496,7411.457 7349.512,7415.271 		"/>
		<path fill="#FC1921" d="M7403.1,7501.54c0-78.821-63.896-142.722-142.715-142.722c-70.221,0-128.598,50.721-140.5,117.521
			l13.848-14.667c17.164-53.467,67.293-92.163,126.461-92.163c73.336,0,132.791,59.451,132.791,132.79l0.08,0.105
			c-0.863,24.806-5.724,35.441-14.613,41.854l-0.791,6.518c3.902-3.002,15.723-15.502,23.051-30.602
			c1.991-4.109,2.543-14.719,2.479-18.398L7403.1,7501.54z"/>
		<path fill="#FC1921" d="M7385.871,7546.229c-18.028,51.947-67.404,87.315-125.486,87.819
			c-69.363,0.601-132.197-57.979-132.197-131.319l0,0c-1.035-14.821,3.248-24.315,6.748-30.752
			c3.597-6.623,11.256-15.36,18.045-14.031c10.521,2.066,3.754,15.803-5.182,31.381c-8.732,15.229-19.314,31.223-10.799,40.427
			c6.893,7.451,21.002,5.756,29.632-2.81l-26.623,49.98l11.817,0.088l51.41-97.046l-11.906,0.33l-21.021,39.114
			c-6.773,6.347-17.779,12.174-24.07,7.826c-12.484-8.621,36.408-55.317,18.416-70.502c-14.369-12.125-29.979,5.979-34.928,14.564
			c-4.053,7.035-11.701,17.858-11.879,31.191l0.01-0.574c0,78.816,63.899,142.714,142.718,142.714
			c67.2,0,123.556-46.448,138.706-108.991c0.574-2.295,1.187-5.099,1.187-5.099
			C7396.459,7536.845,7385.871,7546.229,7385.871,7546.229z"/>
		
			<line fill="none" stroke="#FC1921" stroke-width="1.0213" stroke-linecap="round" stroke-linejoin="round" x1="7184.234" y1="7428.633" x2="7196.258" y2="7426.914"/>
		<path fill="none" stroke="#FC1921" stroke-width="1.0213" stroke-linecap="round" stroke-linejoin="round" d="M7163.626,7407.656
			c28.673,22.9,47.043,58.158,47.043,97.707c0,10.699-1.219,19.828-3.715,29.771"/>
		<path fill="none" stroke="#FC1921" stroke-width="1.0213" stroke-linecap="round" stroke-linejoin="round" d="M7195.812,7564.906
			c-6.367,11.812-14.619,22.438-24.426,31.432c-4.58,4.197-3.174,1.78-3.174,1.78"/>
		<polyline fill="none" stroke="#FC1921" stroke-width="1.0213" stroke-linecap="round" stroke-linejoin="round" points="
			7177.375,7406.884 7167.066,7410.701 7163.633,7421.197 		"/>
		
			<line fill="none" stroke="#FC1921" stroke-width="1.0213" stroke-linecap="round" stroke-linejoin="round" x1="7173.173" y1="7415.666" x2="7182.336" y2="7412.229"/>
		
			<line fill="none" stroke="#FC1921" stroke-width="1.0213" stroke-linecap="round" stroke-linejoin="round" x1="7176.229" y1="7419.1" x2="7185.771" y2="7416.043"/>
		
			<line fill="none" stroke="#FC1921" stroke-width="1.0213" stroke-linecap="round" stroke-linejoin="round" x1="7180.046" y1="7423.684" x2="7192.26" y2="7421.771"/>
		
			<line fill="none" stroke="#FC1921" stroke-width="1.0213" stroke-linecap="round" stroke-linejoin="round" x1="7190.732" y1="7436.848" x2="7203.902" y2="7435.702"/>
		<polyline fill="none" stroke="#FC1921" stroke-width="1.0213" stroke-linecap="round" stroke-linejoin="round" points="
			7187.486,7454.021 7195.505,7445.627 7208.863,7445.245 		"/>
		<polyline fill="none" stroke="#FC1921" stroke-width="1.0213" stroke-linecap="round" stroke-linejoin="round" points="
			7191.113,7462.232 7199.514,7454.021 7212.3,7454.789 		"/>
		
			<line fill="none" stroke="#FC1921" stroke-width="1.0213" stroke-linecap="round" stroke-linejoin="round" x1="7168.021" y1="7425.586" x2="7172.221" y2="7415.666"/>
		
			<line fill="none" stroke="#FC1921" stroke-width="1.0213" stroke-linecap="round" stroke-linejoin="round" x1="7172.982" y1="7430.551" x2="7177.182" y2="7420.246"/>
		
			<line fill="none" stroke="#FC1921" stroke-width="1.0213" stroke-linecap="round" stroke-linejoin="round" x1="7175.658" y1="7434.749" x2="7181.002" y2="7424.635"/>
		
			<line fill="none" stroke="#FC1921" stroke-width="1.0213" stroke-linecap="round" stroke-linejoin="round" x1="7179.279" y1="7439.52" x2="7185.389" y2="7430.359"/>
		
			<line fill="none" stroke="#FC1921" stroke-width="1.0213" stroke-linecap="round" stroke-linejoin="round" x1="7182.908" y1="7445.055" x2="7189.779" y2="7437.609"/>
		<polyline fill="none" stroke="#FC1921" stroke-width="1.0213" stroke-linecap="round" stroke-linejoin="round" points="
			7194.74,7473.109 7203.52,7464.331 7217.26,7465.475 		"/>
		
			<line fill="none" stroke="#FC1921" stroke-width="1.0213" stroke-linecap="round" stroke-linejoin="round" x1="7206.955" y1="7474.827" x2="7219.359" y2="7478.07"/>
		
			<line fill="none" stroke="#FC1921" stroke-width="1.0213" stroke-linecap="round" stroke-linejoin="round" x1="7206.764" y1="7474.445" x2="7203.137" y2="7478.07"/>
		
			<line fill="none" stroke="#FC1921" stroke-width="1.0213" stroke-linecap="round" stroke-linejoin="round" x1="7209.436" y1="7486.852" x2="7220.889" y2="7490.855"/>
		
			<line fill="none" stroke="#FC1921" stroke-width="1.0213" stroke-linecap="round" stroke-linejoin="round" x1="7200.273" y1="7494.863" x2="7209.244" y2="7485.896"/>
		<polyline fill="none" stroke="#FC1921" stroke-width="1.0213" stroke-linecap="round" stroke-linejoin="round" points="
			7222.986,7506.129 7210.391,7500.784 7200.273,7508.797 		"/>
		<polyline fill="none" stroke="#FC1921" stroke-width="1.0213" stroke-linecap="round" stroke-linejoin="round" points="
			7200.466,7520.63 7210.201,7514.143 7222.029,7518.915 		"/>
		<polyline fill="none" stroke="#FC1921" stroke-width="1.0213" stroke-linecap="round" stroke-linejoin="round" points="
			7197.605,7531.51 7208.863,7526.928 7220.697,7531.889 		"/>
		
			<line fill="none" stroke="#FC1921" stroke-width="1.0213" stroke-linecap="round" stroke-linejoin="round" x1="7206.955" y1="7535.134" x2="7212.872" y2="7540.102"/>
		
			<line fill="none" stroke="#FC1921" stroke-width="1.0213" stroke-linecap="round" stroke-linejoin="round" x1="7204.091" y1="7546.587" x2="7206.193" y2="7548.305"/>
		
			<line fill="none" stroke="#FC1921" stroke-width="1.0213" stroke-linecap="round" stroke-linejoin="round" x1="7211.035" y1="7551.738" x2="7212.938" y2="7552.952"/>
		
			<line fill="none" stroke="#FC1921" stroke-width="1.0213" stroke-linecap="round" stroke-linejoin="round" x1="7204.475" y1="7559.182" x2="7208.482" y2="7562.809"/>
		
			<line fill="none" stroke="#FC1921" stroke-width="1.0213" stroke-linecap="round" stroke-linejoin="round" x1="7195.314" y1="7565.673" x2="7202.564" y2="7572.35"/>
		
			<line fill="none" stroke="#FC1921" stroke-width="1.0213" stroke-linecap="round" stroke-linejoin="round" x1="7194.359" y1="7566.625" x2="7186.154" y2="7565.859"/>
		<polyline fill="none" stroke="#FC1921" stroke-width="1.0213" stroke-linecap="round" stroke-linejoin="round" points="
			7197.221,7581.324 7190.732,7573.111 7181.002,7571.971 		"/>
		<polyline fill="none" stroke="#FC1921" stroke-width="1.0213" stroke-linecap="round" stroke-linejoin="round" points="
			7175.837,7578.448 7185,7579.4 7191.107,7587.993 		"/>
		<polyline fill="none" stroke="#FC1921" stroke-width="1.0213" stroke-linecap="round" stroke-linejoin="round" points="
			7170.493,7583.793 7179.273,7586.464 7185.764,7593.334 		"/>
		<polyline fill="none" stroke="#FC1921" stroke-width="1.0213" stroke-linecap="round" stroke-linejoin="round" points="
			7167.25,7588.755 7175.076,7591.044 7180.802,7597.533 		"/>
		<polyline fill="none" stroke="#FC1921" stroke-width="1.0213" stroke-linecap="round" stroke-linejoin="round" points="
			7173.928,7601.924 7170.111,7595.816 7165.15,7593.909 		"/>
		<path fill="none" stroke="#FC1921" stroke-width="1.0213" stroke-linecap="round" stroke-linejoin="round" d="M7327.373,7556.501
			c4.197,7.635,22.521,30.151,32.439,35.118"/>
		
			<line fill="none" stroke="#FC1921" stroke-width="1.0213" stroke-linecap="round" stroke-linejoin="round" x1="7320.5" y1="7555.738" x2="7324.316" y2="7555.357"/>
		<polyline fill="none" stroke="#FC1921" stroke-width="1.0213" stroke-linecap="round" stroke-linejoin="round" points="
			7333.096,7558.409 7330.044,7561.461 7321.646,7562.991 		"/>
		
			<line fill="none" stroke="#FC1921" stroke-width="1.0213" stroke-linecap="round" stroke-linejoin="round" x1="7325.083" y1="7569.857" x2="7336.532" y2="7569.477"/>
		<polyline fill="none" stroke="#FC1921" stroke-width="1.0213" stroke-linecap="round" stroke-linejoin="round" points="
			7346.457,7567.952 7340.35,7575.203 7331.189,7577.881 		"/>
		<polyline fill="none" stroke="#FC1921" stroke-width="1.0213" stroke-linecap="round" stroke-linejoin="round" points="
			7351.036,7572.913 7345.503,7579.785 7335.389,7584.364 		"/>
		
			<line fill="none" stroke="#FC1921" stroke-width="1.0213" stroke-linecap="round" stroke-linejoin="round" x1="7339.968" y1="7588.943" x2="7348.365" y2="7583.982"/>
		<polyline fill="none" stroke="#FC1921" stroke-width="1.0213" stroke-linecap="round" stroke-linejoin="round" points="
			7358.29,7580.934 7352.943,7587.418 7344.93,7592.764 		"/>
		
			<line fill="none" stroke="#FC1921" stroke-width="1.0213" stroke-linecap="round" stroke-linejoin="round" x1="7356" y1="7575.969" x2="7349.893" y2="7584.364"/>
		
			<line fill="none" stroke="#FC1921" stroke-width="1.0213" stroke-linecap="round" stroke-linejoin="round" x1="7341.496" y1="7561.846" x2="7335.77" y2="7568.336"/>
		<polyline fill="none" stroke="#FC1921" stroke-width="1.0213" stroke-linecap="round" stroke-linejoin="round" points="
			7361.723,7585.13 7359.051,7590.477 7351.801,7595.434 		"/>
		<path fill="#FC1921" d="M7238.566,7594.023c-7.988,13.949-28.168,51.955-34.953,67.64c-1.773,4.096-2.191,5.948-0.432,8.015
			c0.338,0.4,0.885,1.397,0.977,1.758c0.367,1.403-1.232,3.228-2.073,3.778c-1.745,1.136-5.502,1.425-12.251-1.665
			c-6.747-3.09-8.441-6.847-8.544-8.931c-0.049-1.004,0.483-3.366,1.836-3.899c0.345-0.134,1.472-0.279,1.994-0.238
			c2.704,0.211,4.183-1.545,6.456-5.388c9.304-15.729,29.176-52.354,36.117-66.473c4.066-8.279,26.606-52.015,37.574-83.677
			c0.823-2.385,1.586-4.697,2.267-6.93c0.114-0.378,0.706-1.304,1.194-2.025c1.955-2.905,8.494-3.506,14.59-0.635
			c6.125,2.888,10.492,9.691,8.755,14.137c-0.315,0.814-0.952,1.9-1.192,2.221c-0.999,1.32-2.043,2.746-3.124,4.248
			C7271.837,7538.098,7247.645,7578.176,7238.566,7594.023z M7187.881,7661.745c0.115,0.323,0.533,0.743,1.66,0.479
			c0.453-0.113,0.809-0.533,1.376-1.162c0.949-1.057,2.103-2.676,2.431-4.336c0.213-0.715-0.223-0.377-0.384-0.045
			c-0.165,0.33-3.173,4.147-4.757,4.56C7187.988,7661.301,7187.877,7661.188,7187.881,7661.745z M7213.828,7624.46
			c-2.057,4.104-14.537,28.124-20.148,35.379c-0.152,0.193-0.296,0.375-0.441,0.545c-0.146,0.208-0.524,0.392-0.67,0.546
			c-0.176,0.188-0.114,0.336-0.227,0.438c-0.095,0.111,0.053,0.214-0.02,0.318c-0.086,0.133-0.389,0.26-0.496,0.385
			c-0.253,0.271-0.164,0.516-0.375,0.716c-0.371,0.364-0.965,0.585-0.965,0.585c-0.658,0.119-0.432,1,0.121,1.213
			c0.306,0.118,0.611,0.314,0.92,0.496c0.246,0.146,0.496,0.245,0.746,0.591c0.197,0.272-0.129,0.675-0.147,1.05
			c-0.021,0.291,0.099,0.573-0.114,0.783c-0.297,0.287-0.943,0.438-1.482,0.28c-0.641-0.191-1.469-0.688-2.23-1.054
			c-0.947-0.455-1.787-0.76-2.031-0.729c-0.22,0.03-0.713,0.155-0.863,0.383c-0.105,0.15-0.151,0.352,0.132,0.592
			c0.128,0.104,0.522,0.334,0.746,0.459c0.348,0.197,0.653,0.521,1.094,0.742c0.174,0.086,0.332-0.06,0.49,0.01
			c0.213,0.094,0.427,0.41,0.67,0.533c0.289,0.146,0.681,0.389,0.95,0.51c0.18,0.078,0.354,0.416,0.521,0.527
			c0.102,0.065,0.197-0.088,0.292-0.043c0.322,0.16,0.599,0.215,0.806,0.374c0.354,0.289,0.778,0.587,1.187,0.74
			c0.667,0.249,1.301-0.004,1.563-1.206c0.424-1.932,0.953-4.143,1.379-5.631c0.089-0.319,0.32-0.982,0.642-1.887
			c0.062-0.17-0.092-0.352-0.022-0.537c1.281-3.536,3.912-9.788,5.576-13.4c2.213-4.816,12.295-23.045,12.403-23.378
			C7213.939,7624.457,7214.695,7622.96,7213.828,7624.46z M7228.309,7596.211c1.68-3.238,51.808-88.62,56.344-96.432
			c0,0,1.332,0.759,1.121,1.861c-4.566,6.877-33.221,54.988-35.605,59.644c-2.381,4.651-19.631,34.137-30.463,55.185
			c0,0,43.841-74.712,45.579-77.816c1.708-3.059,20.681-33.698,21.827-35.448c0,0,1.195-1.972,1.14-1.86
			c-2.985-4.087-8.548-6.367-13.616-6.212c-0.421,1.987-18.693,46.695-24.324,57.55
			C7244.948,7563.016,7230.477,7592.227,7228.309,7596.211L7228.309,7596.211z M7209.675,7640.372
			c3.013-5.646,42.914-77.853,68.482-116.757c0.704-1.07,11.893-17.723,11.948-18.485c0.062-0.86-0.571-1.868-0.904-2.144
			c-0.559,0.895-6.811,10.99-12.253,19.447c-23.433,38.008-64.513,110.735-66.902,116.336c-0.088,0.215-0.606,1.66-0.696,1.856
			c-0.127,0.274,0.063,0.088-0.146,0.368c-0.564,0.742-1.068,2.068-1.564,2.852c-0.125,0.196-0.259,0.383-0.387,0.58
			c-0.05,0.088,0.014,0.227-0.029,0.317c-0.119,0.268-0.299,0.51-0.404,0.788c-0.041,0.096,0.021,0.232-0.027,0.312
			c-0.334,0.546-0.43,1.091-0.831,1.58c-0.056,0.065,0.015,0.218-0.033,0.308c-0.03,0.059-0.171,0.07-0.185,0.123
			c-0.21,0.75-0.749,1.234-1.088,1.889c-0.049,0.087-0.016,0.211-0.014,0.322c-0.107-0.029-0.189,0.026-0.209,0.115
			c-0.06,0.271-0.168,0.512-0.257,0.756c-0.075,0.203-0.303,0.401-0.348,0.584c-0.104,0.414-0.513,0.657-0.487,1.097
			c-0.324,0.11-0.22,0.222-0.229,0.327c-0.01,0.103-0.1,0.189-0.166,0.264c-0.275,0.295-0.406,0.702-0.528,1.088
			c-0.101,0.324-0.36,0.561-0.476,0.873c-0.026,0.064,0.017,0.154-0.021,0.203c-0.103,0.164,0.099,0.328,0.065,0.468
			c-0.045,0.17-0.443,0.456-0.516,0.604c-0.039,0.086-0.082,0.052-0.125,0.127c-0.416,0.679-0.322,1.353-0.687,2.033
			c-0.062,0.119-0.298,0.315-0.371,0.414c-0.493,0.627-0.365,1.426-0.838,2.01c0.079,0.332-0.194,0.568-0.233,0.881
			c-0.01,0.082,0.057,0.146,0.042,0.229c-0.028,0.284-0.131,0.519-0.184,0.78c-0.185,0.976-0.351,1.883-0.624,2.917
			c-0.2,0.768-0.717,1.105-0.814,1.936c-0.027,0.244,0.193,0.25,0.209,0.332c0.022,0.125,0.045,0.244,0.139,0.314
			c0.082,0.066,0.174-0.018,0.199-0.104c0.209-0.625,0.224-1.068,0.506-1.674c0.115-0.246-0.242-0.582-0.162-0.853
			c0.257-0.813,1.147-1.522,1.384-2.338c0.388-0.154,0.063-0.582,0.213-0.884c0.046-0.082,0.129-0.099,0.211-0.135
			c0.146-0.065-0.146-0.283-0.082-0.404c0.2-0.387,0.621-0.741,0.874-1.104c0.17-0.242,0.377-0.469,0.477-0.707
			c0.174-0.418,0.42-0.684,0.42-1.087c0.002-0.473,0.521-0.86,0.5-1.328c-0.006-0.124,0.142-0.231,0.168-0.337
			c0.134-0.615,0.199-1.189,0.43-1.775c0.074-0.19,0.02-0.426,0.02-0.648c0.289,0.027-0.039-0.34,0.217-0.333
			c-0.078-0.272,0.069-0.545,0.158-0.744c0.368-0.797,0.654-1.649,0.828-2.565c0.039-0.209,0.217-0.363,0.289-0.563
			c0.036-0.099-0.029-0.252,0.026-0.312c0.146-0.154,0.217-0.344,0.407-0.48c0.035-0.02-0.006-0.131,0.019-0.195
			c0.089-0.254,0.408-0.365,0.447-0.668c0.01-0.049,0.157-0.063,0.181-0.121c0.292-0.748,0.627-1.352,0.816-2.109
			c0.105-0.424,0.666-0.734,0.629-1.205c-0.004-0.032,0.158-0.059,0.174-0.118c0.15-0.489,0.131-0.903,0.43-1.33
			c0.053-0.083-0.003-0.217,0.026-0.319c0.021-0.088,0.378-0.106,0.397-0.139c0.252-0.395,0.049-1.021,0.19-1.427
			c0.075-0.226,0.499-0.333,0.634-0.511c0.092-0.119,0.069-0.272,0.178-0.363c0.025-0.021-0.026-0.073-0.023-0.08
			c0.062-0.148,0.072-0.23,0.197-0.35c0.06-0.051,0.096-0.162,0.066-0.265c0.082,0.067,0.029-0.118,0.111-0.054
			c-0.003-0.059-0.003-0.107-0.003-0.164 M7242.264,7564.552c3.506-4.821,20.674-40.86,29.252-66.747l-1.101,0.229
			C7269.504,7501.411,7260.624,7529.618,7242.264,7564.552z"/>
		<path fill="#0C2D82" d="M7261.555,7446.514c8.686-6.01,29.684-11.18,48.475-1.049c13.845,7.465,23.857,19.754,26.719,37.691
			l-10.496,6.016c-9.921-11.263-18.893-17.941-25.766-21.378c-6.869-3.433-22.9-10.305-38.168-11.065L7261.555,7446.514z
			 M7317.238,7454.891l-5.164,2.357l-5.139-2.977l0.599,5.623l-4.491,3.879l5.762,1.098l2.221,5.559l3.052-5.062l5.71-0.292
			l-3.723-4.423L7317.238,7454.891z M7331.975,7477.666l-3.42-0.025l-2.049-2.931l-1.104,3.22l-3.44,0.973l2.868,2.065l-0.208,3.604
			l2.96-1.987l3.189,1.294l-0.907-3.363L7331.975,7477.666z M7289.771,7444.568l-2.475,4.156l-5.039,0.406l3.145,3.643l-1.266,4.896
			l4.566-2.025l4.248,2.813l-0.315-5.022l3.856-2.975l-4.748-1.291L7289.771,7444.568z M7269.723,7446.001l-0.986,3.039
			l-3.188,0.994l2.557,1.894l-0.103,3.334l2.647-1.968l3.147,1.19l-0.937-3.188l2.05-2.48l-3.245-0.135L7269.723,7446.001z"/>
		<path fill="#0C2D82" d="M7358.277,7564.76h-2.27v6.176h-1.533v-6.176h-2.264v-1.34h6.064v1.34H7358.277z M7368.553,7570.936
			h-1.535v-5.979h-0.035l-2.174,5.979h-1.482l-2.105-5.979h-0.031v5.979h-1.539v-7.516h2.662l1.748,4.907h0.035l1.819-4.907h2.64
			v7.516H7368.553z"/>
	</g>
	<g>
		<path fill="#FFFFFF" d="M238.928,835.434l-0.016-15.254c0-1.189,0.672-1.509,1.521-1.809L244,817.67l-9.357-16.681l4.084,0.511
			v-8.597c0-2.349,0.399-2.802,1.228-3.105l3.263-0.837l-8.293-19.732h-28.375l-1.253,2.145l-1.248-1.932l-71.597-0.03l-1.898,4.9
			l-2.904-4.927H48.228l-4.089,19.269c0,0,0.482,0.144,1.076,0.404c0.81,0.354,1.763,1.273,1.763,3.687
			c0,0-0.045,41.771-0.045,43.271c0,0.974-0.609,1.426-1.278,1.628c-0.81,0.255-1.655,0.36-1.655,0.36l4.484,19.744l18.561-6.397
			l2.289-11.4c4.149,2.65,12.691,7.97,29.17,18.213c-0.188,0.593-0.32,1.194-0.406,1.81c-5.267,2.286-8.312,6.737-8.667,7.275
			l-4.049,6.16l3.157,0.685c-5.154,8.291-3.725,16.479-1.841,20.312l2.851,5.802c-1.208-0.063-2.652,0.207-4.349,1.35
			c-3.752,2.532-3.793,6.644-2.247,9.399l0.097,0.155l3.607,5.36l0.174,0.21c2.118,2.418,5.848,3.782,9.422,1.372
			c2.604-1.757,3.117-3.707,3.272-5.214c0.021-0.193,0.033-0.383,0.033-0.58l2.902-1.874c0.246,0.429,0.406,0.703,0.438,0.757
			l4.091,6.857l4.455-6.626c0.292-0.434,2.831-4.279,5.459-10.33l2.613-1.685c0.113,0.131,0.221,0.247,0.327,0.368l-0.546,1.318
			l1.539,2.26c0.181,0.273,4.584,6.691,10.079,11.688c0,0,0.121,0.109,0.249,0.224c0.775,1.408,1.802,2.384,3.052,2.92
			c0.997,1.339,2.111,1.995,3.082,2.3c1.093,1.164,2.491,2.052,4.17,2.648l3.581,1.275l2.219-3.083
			c0.314-0.426,1.227-1.427,1.89-1.743l0.772-0.366l0.497,0.157l0.757-0.762l0.415-0.194l0.042-0.256l0.959-0.958
			c0.066-0.07,0.155-0.163,0.255-0.276l1.409,0.235l1.847-2.422c0.213-0.278,0.685-0.957,1.095-1.879l8.222-10.546l-0.084-1.662
			l18.599,12.026c0,0.189,0.018,0.384,0.031,0.577c0.159,1.502,0.669,3.46,3.277,5.213c3.574,2.408,7.309,1.046,9.42-1.377
			l0.178-0.201l3.655-5.441l0.046-0.076c1.543-2.756,1.502-6.873-2.246-9.396c-2.605-1.757-4.618-1.472-6.079-1.029
			c-0.16,0.049-0.321,0.104-0.474,0.162l-17.207-12.121c2.847-0.282,5.322-1.779,6.988-4.311c1.501-2.281,2.186-4.951,2-7.649
			l1.272-0.941l2.754-1.894l-0.887-3.425c-0.075-0.3-0.318-1.141-0.855-2.208c0.051-0.059,0.082-0.099,0.111-0.134l1.254-1.256
			l0.168-0.526c0.057-0.194,0.082-0.369,0.091-0.541c0.769-1.444,1.718-3.932,1.482-5.581c-0.029-0.206-0.074-0.399-0.119-0.598
			c0.015-0.148,0.021-0.308,0.027-0.463c0.081-0.076,0.161-0.149,0.242-0.228l2.249-2.248l-0.886-2.527l14.65-9.123l1.13,2.422
			c0,0,1.101,0.354,26.265,8.43l1.932,0.638l8.12-18.018l-2.616-0.832C239.544,837.833,238.928,837.398,238.928,835.434"/>
		<path fill="#231F20" d="M236.775,836.21c0-3.49-0.021-18.162-0.021-18.162s-0.259-1.902,3.665-2.258l-9.574-17.117
			c0,0-2.106,2.383-5.467,1.764l-4.183-1.054v-2.301l15.376,1.907v-8.788c0,0,0.128-3.066,3.496-3.066l-6.538-15.577h-25.565
			l-2.617,4.464l-2.52-4.513l-68.697-0.023l-3.04,8.073l-4.626-7.848H82.197l-0.274,4.927l-2.678-4.927H50.186l-3.068,14.615
			c0,0,2.247-0.505,2.247,4.78v44.801c0,0,0.72,4.019-2.462,4.019l3.353,14.908l14.932-5.145l2.698-13.417
			c2.124,1.475,10.497,6.704,33.567,21.041c-0.684,1.255-1.077,2.688-1.077,4.216c0,0.03,0.003,0.064,0.003,0.1
			c-5.508,1.801-8.781,6.684-8.94,6.928l-2.229,3.395l3.294,0.714c-6.77,8.24-5.561,16.928-3.651,20.797l2.579,5.26l2.457-5.32
			c0.952-2.068,2.301-4.037,3.805-5.841c0.356,3.742,1.158,7.273,2.114,10.38c-3.429,2.416-6.2,4.365-7.783,5.479
			c-0.356-0.27-0.783-0.505-1.293-0.662c-0.962-0.289-2.213-0.565-4.15,0.741c-2.846,1.92-2.413,4.836-1.534,6.404l3.523,5.245
			l0.085,0.097c1.013,1.156,3.54,2.942,6.441,0.984c1.954-1.315,2.182-2.573,2.284-3.567c0.055-0.524,0-1.025-0.125-1.482
			c1.336-0.87,3.499-2.271,6.186-4.011c0.83,1.7,1.437,2.729,1.519,2.87l2.259,3.78l2.456-3.653
			c0.166-0.256,2.862-4.303,5.534-10.598c1.591-1.025,3.211-2.078,4.835-3.125c0.95,1.103,1.815,2.075,2.461,2.783
			c0.03,0.119,0.042,0.203,0.033,0.245l-0.563,1.371l0.849,1.242c0.18,0.259,4.436,6.473,9.733,11.286l0.529,0.481
			c0.596,1.227,1.386,2.014,2.349,2.348c0.108,0.034,0.219,0.063,0.331,0.087l0.043,0.043c0.923,1.523,1.981,2.018,2.826,2.124
			c0.809,1.03,1.995,1.951,3.701,2.552l1.979,0.707l1.221-1.704c0.356-0.481,1.552-1.889,2.752-2.463l1.354-0.642l0.023-0.18
			l0.242,0.076l1.202-1.193c0.123-0.122,0.472-0.506,0.822-1.145l1.473,0.244l1.021-1.334c0.176-0.231,0.7-0.966,1.047-1.967
			l0.129-0.007l7.633-9.803l-0.049-1.037c0-0.004-0.015-0.33-0.03-0.829c0.503-0.56,1.117-1.272,1.801-2.094
			c9.168,5.923,18.088,11.686,21.517,13.911c-0.117,0.46-0.179,0.962-0.126,1.486c0.104,0.991,0.337,2.251,2.29,3.566
			c2.904,1.958,5.429,0.171,6.44-0.988l0.082-0.096l3.53-5.241c0.874-1.567,1.308-4.486-1.539-6.399
			c-1.94-1.308-3.19-1.033-4.149-0.745c-0.512,0.156-0.934,0.388-1.292,0.662c-3.307-2.319-11.775-8.293-20.59-14.509
			c0.53-0.856,1.037-1.715,1.481-2.57c2.312,0.295,5.171-0.263,7.157-3.273c1.733-2.635,1.861-5.38,1.479-7.442l1.801-1.33
			l-0.003-0.025l2.046-1.404l-0.487-1.89c-0.065-0.247-0.43-1.539-1.398-3.003c0.513-0.636,1.029-1.271,1.182-1.445l0.92-0.924
			c0.008-0.015-0.012-0.189-0.032-0.414c0.706-1.079,1.682-3.635,1.53-4.707c-0.043-0.292-0.109-0.553-0.206-0.779
			c0.118-0.407,0.157-0.936-0.072-1.634c0.389-0.223,0.75-0.481,1.068-0.799l1.244-1.245l-0.582-1.654
			c-0.189-0.539-0.335-0.926-0.46-1.223c8.122-5.046,14.079-8.76,18.393-11.456l1.789,3.844c0,0,15.559,4.923,25.335,8.133
			l6.268-13.829C239.567,840.209,236.775,839.7,236.775,836.21 M196.496,788.44l1.172,2.156l7.201-2.37v10.008l-2.354,0.562v-4.463
			l-6.038-1.281L196.496,788.44z M175.467,809.572v-20.458l4.611-1.597v23.116c0,0,0.385,1.054-2.197,1.054
			C175.301,811.687,175.467,809.572,175.467,809.572z M174.791,825.222l3.08-11.202l3.417,12.673c0,0,6.483,1.691,12.229,3.277
			c-0.952,0.674-1.563,1.109-1.563,1.109c-4.666,3.315-8.757,6.376-12.779,9.434c-1.507-5.121-4.863-11.227-9.994-16.215
			C171.834,824.719,174.194,825.104,174.791,825.222z M159.404,788.717v20.859l-3.832-22.441L159.404,788.717z M129.925,783.84
			l2.161,0.521l-1.188,7.585l-1.047-0.602L129.925,783.84z M130.118,796.972l-1.314,8.106l-0.832-5.505L130.118,796.972z
			 M98.38,785.436h1.118v29.238l-1.118,0.444V785.436z M97.746,829.442l1.223-5.239l1.083,4.601c0,0,10.246-2.479,19.214-4.189
			c-5.607,5.708-9.01,12.958-10.948,19.137c-5.285-4.038-10.423-7.951-16.544-12.301c0,0-0.117-0.085-0.331-0.231L97.746,829.442z
			 M65.79,817.93l4.591-1.14c0,0,3.301-0.947,5.498,1.246l6.278-9.633v9.193c0,0,0.224,1.959-2.503,1.959l0.869,3.9
			c-0.494-0.354-0.847-0.604-0.977-0.699c-0.356-0.3-0.684-0.556-0.996-0.764c-1.939-1.307-4.222-2.007-6.426-1.969
			c-3.375,0.06-5.002,2.474-6.191,4.235c-0.046,0.067-0.096,0.144-0.144,0.212C65.79,821.093,65.79,817.93,65.79,817.93z
			 M68.707,834.434c-1.211-1.163-2.025-2.221-2.535-3.554c-0.825-2.16,0.238-3.795,1.4-5.518c1.162-1.726,2.278-3.327,4.588-3.365
			c1.802-0.034,3.68,0.543,5.283,1.628c0.293,0.197,0.587,0.433,0.892,0.691l12.3,8.741c5.694,4.053,11.496,8.308,17.142,12.508
			c-0.215,0.773-0.712,2.533-0.88,3.252c-1.611-1.54-3.403-3.172-3.403-3.172l-0.16-0.978c-0.416-0.384-5.32-4.812-9.849-7.84
			l-0.499-0.079c1.316,1.056,6.315,5.623,13.673,12.95c-0.42,1.858-0.279,2.159-0.435,3.505c-0.457,0.164-0.892,0.368-1.308,0.6
			c-2.299-1.118-4.788-2.379-7.379-3.756c-6.993-4.354-14.039-8.742-19.294-12.039c-0.523-0.399-1.042-0.793-1.547-1.196
			l0.346-0.415h0.004l0.012,0.012c0.155,0.088,15.134,9,26.309,13.151c-1.847-2.051-11.725-12.897-18.987-18.48l-0.019-0.014
			l-0.009-0.019l-0.705-1.216l-8.366-5.939l-0.848-0.202c2.564,1.906,15.631,11.835,22.943,21.766l0.22,0.294l-0.35-0.122
			c-0.172-0.061-17.398-6.221-28.178-15.838l-0.008-0.008l-0.003-0.007l-0.916-1.137c-0.599-1.165-0.116-2.654-0.116-2.654
			c-1.97,3.122-1.215,4.372-1.215,4.372c0.417,1.096,1.07,2.003,2.226,3.114c0.309,0.252,2.177,1.46,5.071,3.285
			c1.206,0.844,8.575,5.457,16.292,10.191c7.138,4.44,11.473,7.141,12.896,8.026c-0.253,0.231-0.495,0.479-0.721,0.738
			C85.5,845.085,69.341,835.034,68.707,834.434z M93.989,914.593c-2.522,1.697-4.138-1.083-4.138-1.083l-2.975-4.419
			c0,0-1.682-2.271,0.81-3.957c2.673-1.801,4.212,0.791,4.212,0.791s3.473-2.449,8.541-6.022c0.174,0.497,0.344,0.985,0.52,1.457
			l-8.068,5.439l2.247,3.598c-0.004,0-0.004,0.002-0.004,0.002S96.59,912.841,93.989,914.593z M101.078,901.69
			c0.245,0.638,0.483,1.247,0.725,1.824l-3.827,2.489c-0.63,0.347-1.865,0.914-2.261,0.328c-0.541-0.802,1.455-2.013,1.455-2.013
			L101.078,901.69z M96.088,909.776l-0.56-0.827l6.723-4.371c0.141,0.324,0.275,0.631,0.41,0.932
			C100.507,906.902,97.575,908.811,96.088,909.776z M116.403,896.571c0.196-0.509,0.381-1.038,0.571-1.567l1.201-0.781
			c0.213,0.266,0.431,0.521,0.646,0.779C118.011,895.525,117.206,896.051,116.403,896.571z M187.646,910.148
			c-2.896-1.882-11.998-7.798-21.493-13.973c0.207-0.252,0.415-0.519,0.629-0.788l21.421,13.931L187.646,910.148z M191.83,906.294
			c0,0,1.533-2.586,4.211-0.79c2.494,1.68,0.81,3.955,0.81,3.955l-2.978,4.416c0,0-1.611,2.784-4.138,1.086
			c-2.6-1.753-1.139-4.194-1.139-4.194s-0.004-0.005-0.011-0.015l2.253-3.589l-8.371-5.642l0.092,0.477l3.999,2.694
			c0,0,1.996,1.204,1.452,2.007c-0.391,0.59-1.628,0.015-2.258-0.327l-18.273-11.881c0.465-0.609,0.929-1.232,1.393-1.883
			l6.166,3.753l0.213-0.225l-5.989-4.068c0.263-0.375,0.525-0.757,0.784-1.141C181.247,898.831,191.83,906.294,191.83,906.294z
			 M186.593,856.652c-0.521,0.526-1.266,0.856-2.004,1.063c0.966,1.465,0.623,2.085,0.465,2.364
			c-0.027,0.04-0.049,0.078-0.072,0.116c0.248,0.213,0.372,0.487,0.431,0.852c0.101,0.757-1.004,3.465-1.424,3.882
			c-0.076,0.078-0.155,0.148-0.247,0.207c-0.042,0.306-0.174,0.584-0.385,0.801c-0.141,0.151-0.935,1.131-1.593,1.95l-0.333,0.418
			c1.334,1.643,1.78,3.285,1.806,3.384l0.242,0.942l-2.106,1.452l0.02,0.058l-1.741,1.277c0.448,1.524,0.837,4.353-1.067,7.252
			c-1.879,2.862-4.754,2.988-6.749,2.467c-2.757,5.677-8.263,12.039-10.08,14.064c0,0.828,0.034,1.416,0.034,1.425l0.023,0.518
			l-6.932,8.903l-0.521,0.035c-0.183,1.266-0.924,2.286-1.045,2.44l-0.509,0.667l-1.725-0.29c-0.344,1.062-0.877,1.632-0.957,1.717
			l-0.604,0.599l-1.004-0.318l-0.151,1.063l-0.675,0.319c-1.783,0.855-3.27,2.889-3.284,2.908l-0.611,0.852l-0.989-0.353
			c-1.767-0.629-2.839-1.599-3.462-2.638c-0.713,0.143-1.716-0.104-2.627-1.972l-0.063-0.129c-0.251,0.031-0.508,0.012-0.763-0.08
			c-0.801-0.271-1.334-1.137-1.658-1.862l-0.736-0.674c-5.178-4.707-9.343-10.783-9.518-11.038l-0.427-0.624l0.29-0.691
			c0.207-0.499,0.052-1.088-0.104-1.476c-1.495-1.646-4.45-4.968-6.775-8.088c-3.075,10.895-8.206,18.613-8.444,18.966l-1.227,1.825
			l-1.129-1.885c-0.289-0.487-7.047-11.963-7.266-25.171c-2.448,2.509-4.8,5.468-6.275,8.657l-1.227,2.661l-1.293-2.627
			c-0.054-0.109-5.096-10.751,5.042-21.033l-3.651-0.794l1.118-1.696c0.155-0.244,3.586-5.36,9.258-6.656
			c-0.059-0.381-0.097-0.756-0.097-1.139c0-3.505,2.44-6.466,5.748-7.246c0.649-7.996,6.551-32.404,28.005-37.288
			c10.606-2.417,20.387-0.801,28.295,4.669c8.782,6.074,13.77,15.794,14.725,22.344c1.228,3.704,5.331,2.675,5.896,2.513h0.009
			c0.007-0.006,0.007-0.006,0.016-0.01l-0.009,0.004c0.465-0.145,0.981-0.055,1.365,0.251c0,0,0.476,0.38,0.486,0.395l0.051,0.606
			c0.029,0.417-0.123,0.828-0.426,1.159l0.082-0.104c-0.631,0.832-1.308,1.514-2.029,2.049c0.959-0.163,1.392,0.365,1.574,0.728
			c0.037,0.07,0.096,0.196,0.62,1.638l0.2,0.56c0.12,0.244,0.287,0.662,0.548,1.41l0.291,0.825L186.593,856.652z M217.554,830.506
			c-0.511,1.339-1.324,2.396-2.533,3.56c-0.555,0.531-13.23,8.434-27.941,17.585c-0.185-0.494-0.231-0.591-0.276-0.677
			c-0.026-0.056-0.076-0.141-0.146-0.247c2.259-1.403,4.498-2.803,6.67-4.156c7.717-4.729,15.086-9.343,16.295-10.185
			c2.897-1.831,4.761-3.03,5.07-3.286c1.155-1.109,1.813-2.02,2.231-3.113c0,0,0.752-1.255-1.215-4.377c0,0,0.483,1.49-0.123,2.658
			l-0.908,1.138l-0.009,0.003l-0.008,0.007c-10.779,9.625-28.005,15.784-28.182,15.84l-0.285,0.106
			c-0.016-0.01-0.022-0.017-0.033-0.017l0.193-0.266c7.314-9.92,20.375-19.851,22.945-21.755l-0.855,0.193l-8.366,5.946l-0.7,1.213
			l-0.014,0.019l-0.015,0.016c-5.013,3.852-11.274,10.215-15.278,14.46c-0.011,0.007-0.021,0.007-0.038,0.011l0.021-0.008
			c-0.658,0.187-2.218,1.028-3.282-0.342c5.38-5.138,9.301-7.855,10.384-8.724l-0.497,0.076c-4.525,3.028-9.688,7.145-10.105,7.53
			l-0.378,0.266c-0.057-0.383-0.42-1.139-0.505-1.539c4.457-3.289,8.972-6.587,13.428-9.754l12.298-8.738
			c0.304-0.27,0.6-0.498,0.893-0.692c1.604-1.087,3.479-1.668,5.284-1.631c2.305,0.042,3.422,1.64,4.587,3.361
			C217.318,826.715,218.383,828.354,217.554,830.506z M187.741,847.657l-0.096-1.21c0-0.003-0.112-0.098-0.259-0.216
			c9.56-4.406,19.162-10.117,19.285-10.188l0.015-0.012l0,0l0.346,0.414c-0.505,0.406-1.022,0.801-1.547,1.197
			c-4.9,3.075-11.365,7.102-17.893,11.163C187.723,848.441,187.771,848.054,187.741,847.657z M220.39,833.658l-2.003-0.486
			c0.422-0.627,0.749-1.267,1.015-1.953c1.208-3.157-0.418-5.572-1.604-7.331c-1.188-1.761-2.817-4.179-6.19-4.232
			c-0.676-0.02-1.362,0.05-2.038,0.175l-10.761-7.871c-0.456,1.362-2.053,3.126-2.053,3.126v-8.08l6.807,0.581v-4.128l7.124,11.075
			c1.209-1.361,4.214-1.551,4.214-1.551l5.49,1.539L220.39,833.658L220.39,833.658z"/>
		<path fill="#EF3E42" d="M79.39,802.531c0-0.008,0.011-16.977,0.011-16.977c0.017-1.407,2.1-2.064,2.1-2.064l-0.289-0.653
			l-0.026-0.062c-0.596-1.25-3.858-8.276-3.858-8.276l-24.852,0.018l-2.121,10.437c0,0,1.888,0.231,1.895,2.007
			c0,0.004,0.007,51.393,0.007,51.393c-0.068,2.091-1.921,2.88-1.921,2.88l0.198,0.415c0.245,1.337,1.655,8.449,1.655,8.449
			l0.213,0.999c0,0.005,9.797-3.376,9.797-3.376l0.486-0.171l0.101-0.507l1.92-9.53c0,0-1.85-0.04-1.819-1.632
			c0-0.004,0.103-20.141,0.103-20.141c0.558-0.079,8.121-2.072,8.121-2.072c1.514-0.311,2.987,0.434,2.999,0.438l0.713,0.324
			c0.003,0,0.419-0.662,0.419-0.662l6.127-9.384C81.366,804.387,79.379,803.85,79.39,802.531 M63.131,805.041l-0.004-20.216
			c1.378-0.042,3.926-0.133,5.349-0.183l-0.031,19.292C67.647,804.032,63.716,804.975,63.131,805.041z"/>
		<path fill="#EF3E42" d="M233.895,838.537l-0.029-22.861c-0.051-1.803,1.982-2.092,1.982-2.092l-6.234-11.106l-0.775,0.453
			c-0.017,0.008-1.488,0.856-2.935,0.67c-0.131-0.03-6.326-1.616-6.668-1.662c-0.381-0.049-0.874-0.117-0.898-1.745l-0.183-15.552
			c0,0,3.765,0.137,4.744,0.183l0.108,9.585c0.007,0,10.828,1.088,10.828,1.088c-0.009,0-0.021-8.536-0.021-8.536
			c0-2.027,1.991-2.231,1.991-2.231c-0.003-0.008-4.208-10.231-4.208-10.231c-0.007,0-22.333,0.025-22.333,0.025
			c0.008,0-4.13,8.802-4.13,8.802c0,0.004,2.105,0.813,2.13,2.24c0,0.003,0.19,13.566,0.19,13.566c0.016,1.387-1.97,2.08-1.97,2.08
			s5.033,7.634,5.927,9.071l0.405,0.658l0.707-0.309c0.018-0.007,1.533-0.649,3.042-0.399c0.304,0.064,6.146,1.844,6.286,1.871
			c0.544,0.102,1.118,0.333,1.137,1.839l0.334,23.402c-0.501-0.121-4.715-1.047-7.193-1.594c-0.73,0.536-2.852,1.913-7.377,4.745
			c0.766,1.749,1.386,3.155,1.386,3.155c-0.006-0.007,21.589,6.917,21.589,6.917l4.111-9.064
			C235.84,841.507,233.901,840.438,233.895,838.537"/>
		<path fill="#EF3E42" d="M182.901,784.175c0,0.004,0.444,30.684,0.444,30.684c0.008,1.061-1.905,1.289-1.905,1.289l2.206,8.27
			l12.748,3.563c3.273-2.327,7.247-5.151,7.791-5.535c0.349-0.301,0.676-0.553,0.996-0.765c0.297-0.202,0.607-0.384,0.919-0.556
			c0.155-0.365,0.244-0.581,0.244-0.581c0.007-0.008-6.619-4.441-6.619-4.441l-0.479,0.797c-0.646,1.072-2.185,1.301-3.357,1.301
			c-0.753,0.003-1.44-0.073-1.923-0.141c-0.013-0.646-0.069-11.144-0.122-14.391c1.795,0.277,6.836,1.11,6.836,1.11l-0.107-8.254
			c0-0.003-5.224-0.662-6.988-0.864l0.034-12.135c0.445,0.06,0.769,0.167,1.381,0.35c1.236,0.38,2.882,1.134,3.662,2.566
			l0.368,0.676l6.753-2.373c0-0.002-4.167-10.223-4.167-10.223c0,0.011-18.638-0.015-18.638-0.015c0.007,0-1.986,8.011-1.986,8.011
			C180.992,782.52,182.912,782.84,182.901,784.175"/>
		<path fill="#EF3E42" d="M83.08,821.78c0-0.003,0.52,2.142,1.033,4.278c1.492,1.061,3.108,2.213,4.473,3.184
			c2.956-0.892,6.73-2.024,6.73-2.024l2.063-8.843c0,0-1.813-0.084-1.807-1.202l0.058-32.489c0.021-1.251,1.881-1.81,1.881-1.81
			l-1.922-8.368c0.003,0-10.163-0.016-10.163-0.016c0,0.003-2.147,8.871-2.147,8.871s1.806,0.676,1.825,1.771l-0.093,34.169
			C84.961,820.868,83.08,821.78,83.08,821.78"/>
		<path fill="#EF3E42" d="M162.226,782.84l0.145,28.675c0,1.034-1.894,1.423-1.894,1.423s1.14,4.002,1.749,6.144
			c0.813,0.467,1.611,0.953,2.387,1.485c0.089,0.068,0.176,0.136,0.268,0.198l7.812,1.254l2.088-7.597c0,0-1.948-0.444-1.908-1.775
			c0,0.004-0.266-29.531-0.266-29.531c1.801,0.186,3.59,2.791,3.59,2.791l6.195-2.235c0,0.007-4.267-9.198-4.267-9.198
			c0-0.013-21.508,0.004-21.508,0.004c-0.007,0-4.141,8.414-4.141,8.414l6.138,2.391
			C158.621,785.289,160.446,783.049,162.226,782.84"/>
		<path fill="#EF3E42" d="M156.339,810.595c0.009,0.034-4.189-26.61-4.34-27.538c-0.185-1.042,1.821-1.267,1.821-1.267
			c0.001,0.005-2.038-7.334-2.038-7.334c0.012,0-16.302,0.023-16.302,0.023c-0.007,0-1.991,7.307-1.991,7.307
			s1.876,0.457,1.724,1.414c-0.108,0.711-4.201,26.531-4.406,27.73l-0.004,0.024l-0.005,0.035c-0.229,0.83-0.79,1.289-1.235,1.536
			c-1.074-0.064-2.587-0.312-2.735-1.194c-0.005-0.026-1.9-12.547-1.9-12.547c0.237-0.289,3.827-4.634,3.827-4.634
			s-1.793-0.932-1.788-2.083c0,0.004,0.035-8.563,0.035-8.563c0.005-1.105,2.085-1.562,2.085-1.562l-4.184-7.441
			c-0.003-0.012-22.204,0.004-22.204,0.004c0.012-0.008-2.148,8.269-2.148,8.269s1.843,0.368,1.838,1.598
			c0-0.004-0.058,15.146-0.058,15.146l-0.193,16.004c-0.057,1.407-1.903,2.075-1.903,2.075l2.063,8.011
			c0-0.003,10.19-2.501,10.19-2.501c-0.004,0,2.153-8.174,2.153-8.174s-1.932-0.202-1.901-1.384c0-0.004,0.086-9.258,0.108-12.096
			c0.203-0.019,1.414-0.163,1.653-0.186c0.058-0.008,0.119-0.015,0.177-0.022L117.944,822c0.003-0.003,2.951-0.482,5.393-0.878
			c1.331-0.981,2.764-1.882,4.295-2.677c0.578-1.141,1.295-2.543,1.879-3.691c0.219,0.771,0.477,1.673,0.714,2.502
			c1.564-0.635,3.222-1.164,4.981-1.57c2.073-0.471,4.117-0.791,6.121-0.97c0.442-1.518,0.818-2.825,0.818-2.825
			c0,0.007-2.034-0.334-1.954-1.095c0.009-0.054,0.879-5.316,1.009-6.191l5.012,0.003c0.083,0.621,0.793,5.29,0.888,5.998
			c0.117,1.022-1.909,1.349-1.909,1.349c0-0.004,0.358,1.229,0.769,2.631c3.855,0.11,7.543,0.794,11.008,2.049
			c0.581-1.996,1.239-4.262,1.239-4.262S156.598,811.888,156.339,810.595 M116.436,788.197l-0.043,5.478l-3.475,0.286l0.051-5.343
			l0.053-5.691l3.148-0.08l0.308-0.004L116.436,788.197z M142.333,797.614c0.281-1.737,0.849-5.288,1.392-8.706l1.371,8.688
			C145.098,797.596,142.497,797.614,142.333,797.614z"/>
		<path fill="#EF3E42" d="M135.827,818.352c-22.888,5.217-26.918,33.287-26.981,37.131c-3.169,0.199-5.681,2.826-5.681,6.046
			c0,0.802,0.155,1.565,0.439,2.27c-6.038,0.514-9.833,6.289-9.833,6.289l4.282,0.927c-12.096,10.237-6.701,21.216-6.701,21.216
			c4.465-9.68,16.375-17.12,16.375-17.12c0.075,0.722,0.061,1.384-0.018,1.996c0.076,0.063,0.147,0.131,0.221,0.197
			c-0.09-0.08-0.178-0.156-0.277-0.231l-0.026,0.437c-0.828,5.453-7.382,6.499-7.382,6.499c-0.012,0.882,0.145,2.364,0.145,2.364
			c0.884,12.038,6.966,22.234,6.966,22.234s6.23-9.265,9.073-21.735c0.077-0.348,0.153-0.7,0.227-1.057
			c0.032-0.148,0.063-0.301,0.095-0.449c0.102-0.494,0.193-1.005,0.284-1.506c2.419-13.957-3.908-17.498-3.908-17.498l0.074-0.276
			c0.16-0.141,0.312-0.284,0.454-0.441c0.286-0.309,0.542-0.646,0.761-1.011c0.217-0.362,0.396-0.749,0.537-1.156
			c0.136-0.41,0.233-0.837,0.284-1.277c0.023-0.222,0.034-0.445,0.034-0.67c0-0.148-0.003-0.291-0.015-0.438
			c-0.031-0.43-0.105-0.846-0.223-1.247c0.435-0.362,0.869-0.713,1.304-1.054c0.059-0.05,0.121-0.099,0.182-0.146
			c0.135-0.104,0.268-0.212,0.404-0.318l0.023-0.24l0.248,0.032c0.077-0.06,0.154-0.113,0.233-0.174
			c0.39-0.302,0.778-0.594,1.171-0.882c0.066-0.051,0.134-0.1,0.2-0.145c8.043-5.887,16.2-9.453,23.77-11.532
			c5.712-1.612,9.977-2.083,11.521-2.205c4.311-0.573,9.277-0.445,9.277-0.445l-0.016,0.013c1.043,0.016,2.034,0.05,2.981,0.098
			c-1.705-2.972-1.775-6.235-0.083-7.498c1.33-0.996,3.371-0.479,5.186,1.104c-1.643-3.788-4.198-8.35-8.122-12.601
			c0,0,10.067,7.685,12.327,20.155c0.917,0.188,1.446,0.331,1.527,0.352c0.012,0.003,0.02,0.007,0.02,0.007
			C175.837,834.54,163.115,812.144,135.827,818.352 M93.27,885.306c0,0,1.202-2.127,3.503-2.859
			c-4.165,3.187-5.071,7.178-5.071,7.178c-1.578-10.395,6.274-14.517,6.274-14.517C93.128,880.404,93.27,885.306,93.27,885.306z
			 M108.044,877.409c-0.012-0.011-0.02-0.026-0.035-0.034C108.021,877.383,108.032,877.398,108.044,877.409z"/>
		<path fill="#231F20" d="M112.535,867.008c0-0.004,0-0.009-0.006-0.009l0.006,0.005c-0.011-0.01-0.014-0.016-0.014-0.016
			c0.796,2.783-0.626,8.249-0.626,8.249c1.141-1.688,1.529-3.239,1.568-4.527c0.599,3.516,1.001,9.515-0.562,17.995
			c-0.614-0.13-1.257-0.168-1.914-0.088c-3.242,0.383-5.557,3.323-5.175,6.562c0.283,2.399,1.969,4.29,4.139,4.954
			c-0.113,0.353-0.226,0.705-0.347,1.061c0,0,10.274-18.674,3.387-33.263C112.787,867.41,112.584,867.084,112.535,867.008"/>
		<path fill="#231F20" d="M131.214,827.24c0.424,1.749,4.057,2.248,8.105,1.118c4.057-1.137,6.99-3.471,6.569-5.225
			c-0.431-1.749-4.058-2.247-8.111-1.117C133.725,823.149,130.786,825.495,131.214,827.24"/>
		<path fill="#231F20" d="M156.37,828.077c3.499,1.833,6.927,2.175,7.666,0.76c0.735-1.411-1.498-4.031-4.997-5.858
			c-3.492-1.825-6.928-2.163-7.665-0.756C150.641,823.628,152.876,826.251,156.37,828.077"/>
		<path fill="#231F20" d="M115.924,841.437c1.349,0.841,4.131-1.189,6.22-4.535c2.087-3.35,2.686-6.741,1.334-7.583
			c-0.094-0.059-0.19-0.101-0.295-0.131c1.583-2.361,5.594-7.327,12.535-9.657c0,0-11.793,3.707-18.26,13.964
			c0,0,0.033-0.026,0.074-0.06c-0.089,0.137-0.183,0.272-0.271,0.422C115.173,837.205,114.575,840.597,115.924,841.437"/>
		<path fill="#231F20" d="M112.817,858.388c0.506,0.141,1.074-0.068,1.647-0.544c-0.122,0.209-0.183,0.33-0.183,0.33l0.75-0.7
			c-0.115,0.161-0.237,0.312-0.349,0.472c0,0,10.492-11.299,31.104-16.842c0,0-3.32,0.253-8.005,1.593
			c2.031-2.083,2.703-4.649,1.437-6.384c-1.615-2.206-5.742-2.219-9.224-0.031c-3.48,2.186-4.998,5.75-3.384,7.955
			c0.643,0.877,1.69,1.406,2.932,1.585c-3.429,1.662-6.993,3.897-10.223,6.893c2.881-4.452,5.266-5.752,5.266-5.752
			c-3.146,1.574-5.87,4.67-7.728,7.206c0.243-0.592,0.462-1.217,0.643-1.883c1.06-3.806,0.675-7.229-0.856-7.657
			c-1.531-0.423-3.63,2.312-4.683,6.11C110.9,854.539,111.287,857.965,112.817,858.388"/>
		<path fill="#231F20" d="M152.18,840.8c3.979,0.603,7.549-1.082,7.97-3.754c0.425-2.681-2.456-5.339-6.433-5.943
			c-3.977-0.604-7.551,1.076-7.974,3.753C145.322,837.532,148.2,840.195,152.18,840.8"/>
		<path fill="#231F20" d="M109.642,883.208c0.642-2.358-0.175-4.712-1.987-6.137l-0.026,0.437c-0.829,5.453-7.382,6.499-7.382,6.499
			c-0.013,0.882,0.145,2.364,0.145,2.364c0.603,0.478,1.208,0.761,1.993,0.982C105.529,888.211,108.779,886.359,109.642,883.208"/>
		<path fill="#231F20" d="M91.701,889.624c0,0,0.906-3.991,5.071-7.178c-2.301,0.732-3.503,2.859-3.503,2.859
			s-0.142-4.901,4.706-10.198C97.976,875.109,90.123,879.23,91.701,889.624"/>
		<path fill="#231F20" d="M106.534,872.747c2.052-1.338,3.091-3.491,2.686-5.231c-0.043,0.005-0.085,0.01-0.129,0.01
			c-1.932,0-3.646-0.914-4.748-2.328c-0.729,0.17-1.47,0.479-2.169,0.936c-2.456,1.609-3.473,4.391-2.271,6.216
			C101.107,874.177,104.077,874.355,106.534,872.747"/>
		<path fill="#231F20" d="M112.759,860.651c0,0,0.904,2.797-1.108,4.979C115.164,864.114,112.759,860.651,112.759,860.651"/>
		<path fill="#231F20" d="M109.277,866.217c0,0-4.511-2.061-4.383-6.472c0,0-1.126,2.715,0.444,4.673
			C106.907,866.383,109.277,866.217,109.277,866.217"/>
		<path fill="#231F20" d="M178.677,854.829l0.138-0.561c0,0,3.443,0.932,6.049-0.562c0,0-0.499-1.362-0.563-1.487
			c-0.054-0.125-5.854,2.793-8.555-2.604c0,0,4.929,3.93,9.156-1.635c0,0,0.087-0.093,0.046-0.13
			c-0.038-0.027-0.084-0.008-0.084-0.008s-6.004,1.815-7.677-3.483c0,0-0.544-0.151-1.548-0.358
			c-2.259-12.471-12.326-20.156-12.326-20.156c3.924,4.252,6.479,8.815,8.121,12.601c-1.814-1.58-3.855-2.1-5.187-1.103
			c-1.691,1.262-1.62,4.526,0.084,7.499c-0.944-0.049-1.944-0.084-2.982-0.098l0.018-0.014c0,0-4.966-0.129-9.278,0.444
			c-3.443,0.277-20.438,2.251-36.894,14.941l-0.251-0.031l-0.022,0.241c-0.63,0.489-1.261,0.995-1.89,1.518
			c0.153,0.535,0.238,1.098,0.238,1.684c0,1.817-0.802,3.445-2.071,4.554l-0.074,0.278c0,0,6.328,3.541,3.909,17.497
			c-0.189,1.106-0.417,2.198-0.662,3.259c2.312,3.685,6.848,8.76,8.548,10.623c0.287,0.612,0.644,1.707,0.209,2.771
			c0,0,4.186,6.145,9.305,10.795c0,0,0.931-3.163,3.909-4.838l0.463,1.021c0,0-2.883,2.421-3.348,4.84c0,0,0.743,1.584,1.117,1.209
			c0.37-0.368,1.114-2.508,3.161-4.559l1.023,1.213c0,0-2.23,1.766-2.792,4.277c0,0,0.791,1.396,1.118,1.205
			c0.327-0.182,0.093-1.109,1.025-2.323c0,0-1.025,3.538,3.164,5.022c0,0,1.67-2.322,3.811-3.349l0.28-1.954l1.768,0.562
			c0,0,0.743-0.748,0.837-2.327l2.235,0.372c0,0,1.206-1.582,0.651-2.88l1.298-0.101l6.234-7.998c0,0-0.044-0.875-0.037-2.031
			c1.361-1.486,8.145-9.091,10.738-15.277c0,0,4.002,2.047,6.326-1.486c2.328-3.538,0.556-6.979,0.556-6.979l1.772-1.304
			c0,0-0.655-1.955-1.675-2.974l0.373-0.84c0,0,1.486,1.209,1.954,3.259l1.486-1.023c0,0-0.841-3.258-4-4.84
			c0,0,1.487-0.463,2.787-0.19c0,0,1.49-1.855,1.679-2.041c0.184-0.186-1.398-1.118-1.398-1.118s1.864,0.283,2.045,0.099
			c0.192-0.194,1.058-2.489,1.027-2.702c-0.03-0.214-3.353-0.655-3.353-0.655s3.04-0.987,3.167-1.208
			c0.124-0.217-0.932-1.675-1.954-2.696c0,0,2.695,0,3.723-1.027c0,0-0.435-1.235-0.556-1.391
			C184.924,854.113,183.048,855.988,178.677,854.829 M177.046,855.757c0,1.585,1.769,4.188,1.769,4.188
			c-3.069-1.213-4-4.562-4-4.562L177.046,855.757z M172.674,865.621c0,0,0.563,3.721-1.861,4.092c0,0,2.329-8.094,2.329-10.142
			C173.142,859.571,176.863,860.129,172.674,865.621z M153.603,843.309l6.668,0.543c0.266,0.268,0.568,0.583,0.906,0.958
			c-2.324,1.505-10.806,6.746-22.466,11.013c-3.173-0.385-9.374-0.516-15.168,2.96l-3.545-0.372
			C122.19,856.467,134.383,846.371,153.603,843.309z M129.505,883.112c4.462-7.069,9.115-2.419,9.115-2.419
			c-9.77-2.886-12.279,14.422-12.279,14.422S125.035,890.181,129.505,883.112z M147.492,888.302
			c-0.248,0.107-0.507,0.217-0.776,0.33c-1.466,0.602-2.931,0.842-4.308,0.86l-0.052-2.726c0.476-0.038,1.101-0.103,1.969-0.212
			c0.722-0.094,1.362-0.292,1.922-0.56L147.492,888.302z M146.874,885.67c1.771-1.048,2.629-2.617,2.629-2.617
			c1.245,0.805,1.742,2.881,1.742,2.881s-0.556,0.848-3.117,2.072L146.874,885.67z M142.889,890.143l0.184,0.464
			c-0.664,0.51-1.286,0.919-1.881,1.262l-0.28-1.145C142.075,890.462,142.889,890.143,142.889,890.143z M141.698,889.488
			c-1.646-0.064-3.134-0.43-4.295-0.832l0.242-2.526c1.022,0.127,1.923,0.39,2.371,0.453c0.727,0.118,0.877,0.24,1.64,0.217
			l0.055,2.662L141.698,889.488z M140.555,892.21c-0.773,0.384-1.488,0.647-2.146,0.8l0.055-1.964
			c0.612-0.021,1.21-0.091,1.759-0.19L140.555,892.21z M133.967,889.438c0.327,0.382,0.705,0.681,1.114,0.914l-1.118,1.911
			c-1.419-0.966-2.04-2.361-2.04-2.361C132.666,888.976,133.967,889.438,133.967,889.438z M133.068,888.45
			c0.63-2.016,2.299-2.433,3.877-2.372l-0.223,2.332C134.589,887.663,133.068,888.45,133.068,888.45z M135.718,890.647
			c0.642,0.252,1.344,0.362,2.051,0.396l-0.063,2.089c-1.274,0.153-2.313-0.094-3.14-0.51L135.718,890.647z M140.588,903.285
			c0,0,1.938-2.242,2.234-2.512l0.561,0.931C143.383,901.704,141.815,902.993,140.588,903.285z M148.466,903.959
			c-2.409-1.704-4.406-4.406-5.061-5.347l0.942-4.957l-3.392,1.617l1.612,3.619c-0.986,0.998-3.035,3.079-4.838,5.072
			c-3.433-0.545-8.309-3.916-9.979-5.613c0.954-6.132,2.808-7.133,2.808-7.133c3.936,5.921,11.625,3.232,13.826,0.266
			c1.924-2.581,7.373-3.877,11.545,0.746c1.748,1.943,1.998,3.319,2.242,5.851C157.781,899.18,152.39,903.567,148.466,903.959z
			 M159.835,895.022c-2.7-17.028-11.075-15.259-11.075-15.259c0.743-0.655,4.465-2.327,8.003,3.163
			C160.302,888.418,159.835,895.022,159.835,895.022z M168.583,866.455c0,0-2.608,2.698-3.909,3.909c0,0,1.673,6.328-3.072,14.239
			l0.465,0.368l5.307-6.977c0,0,1.841,8.946-6.965,18.949c0.03-0.6,0.087-1.196,0.168-1.737c1.118-7.068-1.482-14.144-7.254-16.842
			c-0.771-0.358-1.476-0.545-2.123-0.606c0.217-1.807,0.321-6.257-3.832-6.181l1.393-5.772l4.188-0.464l-2.79-1.586
			c0,0,0.935-0.706,2.327-1.531c0.12,1.49,1.363,2.662,2.881,2.662c1.602,0,2.897-1.296,2.897-2.897
			c0-0.769-0.305-1.472-0.798-1.988c0.771-0.205,1.543-0.335,2.274-0.335c0,0,1.768,2.143-0.929,5.118l3.07-2.045l-1.213-3.814
			l-3.995-0.376c0,0,2.32-2.046,3.255-1.954c0.928,0.096,3.255,3.908,3.255,3.908l0.464-0.186c0,0-1.022-4.28-4.554-6.608
			c-3.536-2.322-5.771-1.299-5.771-1.299s-2.981,4.836-5.492,6.049c-2.508,1.208-2.508,1.304-2.698,0.187l-1.021,0.372
			c0,0-1.115,5.299,2.885,3.254c0,0,0.186,0.368-0.747,1.209c0,0,1.769,5.119-1.116,10.607c0,0,5.429-3.223,5.088,3.68
			c-3.169,0.382-4.477,4.112-4.621,4.696c-0.187,0.742,0.096,1.396-0.835,1.769c-0.932,0.373-1.769,0.184-2.515,0
			c-0.745-0.19-0.745-0.841-0.745-0.841c-0.975-3.831-3.316-4.884-4.98-5.124c-0.175-1.316-0.497-5.786,3.407-4.674l-0.933-1.673
			c0,0-4.67,0.004-3.326,6.277c-0.579-0.005-0.958,0.08-0.958,0.08c-10.676,1.863-9.786,16.302-9.687,17.577
			c-1.841-1.829-6.833-7.726-5.575-16.881c0,0,2.235,3.817,4.559,6.886l0.654-0.842c0,0-3.352-3.672-2.608-13.439l-4.372-3.722
			l1.487-2.051l-2.416-2.978l1.86-2.235l-0.233-0.481l3.478,0.368c-0.23,2.515-0.383,11.806,10.187,11.594
			c11.512-0.232,11.353-11.199,9.222-15.216c11.173-4.316,19.156-9.328,21.132-10.625c0.481,0.586,0.991,1.248,1.528,1.988
			c0,0,2.138-0.841,3.069-1.214l1.303,1.118l-3.816,1.399l0.835,1.301c0,0,2.518-1.022,3.727-1.483l0.836,1.019
			c0,0-2.885,1.3-3.999,1.582l0.557,1.304c0,0,3.165-1.026,4.188-1.493l0.559,1.304l-4.56,1.493l0.746,1.855
			c0,0,2.792-0.745,4.183-1.855c0,0-1.023,1.95-3.816,4.834c0,0,0.75,1.488,1.865,2.885l-2.42,2.417L168.583,866.455z
			 M154.355,861.911c0-0.585,0.477-1.049,1.057-1.049c0.579,0,1.051,0.464,1.051,1.049c0,0.583-0.472,1.051-1.051,1.051
			C154.831,862.96,154.355,862.494,154.355,861.911z M176.929,866.828c0,0,2.071,9.215-6.022,9.862c0,0-0.094-0.156-0.155-0.59
			c-0.061-0.431,0.342-0.993,0.342-0.993s6.14-0.834,4.09-9.767l2.516-2.978l1.866,1.208L176.929,866.828z"/>
		<path fill="#231F20" d="M154.903,867.664c0,0,3.349,0.746,5.953-0.835l-1.486-1.207
			C159.37,865.621,157.602,867.477,154.903,867.664"/>
		<path fill="#231F20" d="M106.082,877.948c-1.479,1.089-3.488,2.669-5.55,4.602C101.795,882.211,105.081,881.044,106.082,877.948"
			/>
		<path fill="#231F20" d="M145.08,893.268c4.318-2.666,6.081,0.248,6.081,0.248l1.324-2.101
			C147.83,889.979,145.08,893.268,145.08,893.268"/>
		<path fill="#231F20" d="M133.604,895.272l1.024,2.141c0,0,3.238,0.706,4.914-2.085
			C139.542,895.328,136.011,896.651,133.604,895.272"/>
		<path fill="#231F20" d="M91.219,841.289l0.096-0.207c-4.918-4.66-11.053-8.538-11.766-8.982l-0.193,0.172
			c2.567,2.011,4.246,4.015,4.266,4.036l-0.138,0.172c-4.658-2.192-11.118-6.684-11.688-7.456c-0.142-0.194-0.116-0.33-0.064-0.411
			c0.198-0.316,1.171-0.239,1.783-0.156l-1.426-1.319c-2.161-0.661-2.845-0.46-3.032-0.174c-0.296,0.444,0.376,1.417,0.669,1.769
			C76.726,834.084,89.967,840.673,91.219,841.289"/>
		<path fill="#231F20" d="M93.628,910.046c0,0-0.06,1.43-1.048,2.095c-0.989,0.666-1.785,0.734-1.785,0.734l0.019,0.03l0.02,0.034
			c0.146,0.236,0.661,0.896,1.297,1.042c0.374,0.079,0.774-0.027,1.227-0.33c1.552-1.05,0.999-2.312,0.794-2.681L93.628,910.046"/>
		<path fill="#231F20" d="M91.656,907.077c0,0-1.359-0.446-2.327,0.243c-0.974,0.688-1.32,1.41-1.32,1.41l-0.022-0.035l-0.022-0.024
			c-0.171-0.214-0.608-0.939-0.516-1.582c0.056-0.377,0.296-0.715,0.739-1.031c1.526-1.087,2.52-0.121,2.789,0.202L91.656,907.077"
			/>
		<path fill="#231F20" d="M211.638,826.766l-1.423,1.327c0.609-0.088,1.586-0.164,1.781,0.151c0.053,0.085,0.083,0.217-0.067,0.412
			c-0.564,0.771-7.027,5.257-11.683,7.46l-0.136-0.176c0.017-0.021,1.696-2.029,4.265-4.036l-0.196-0.172
			c-0.712,0.444-6.848,4.326-11.764,8.976l0.097,0.217c1.252-0.624,14.495-7.209,21.491-12.562c0.295-0.351,0.964-1.324,0.674-1.768
			C214.484,826.308,213.805,826.104,211.638,826.766"/>
		<path fill="#231F20" d="M190.224,910.535c0,0,0.06,1.431,1.049,2.096c0.989,0.667,1.787,0.734,1.787,0.734l-0.021,0.03
			l-0.018,0.035c-0.143,0.234-0.662,0.896-1.299,1.042c-0.372,0.084-0.775-0.023-1.229-0.331c-1.548-1.042-1-2.313-0.793-2.681
			L190.224,910.535"/>
		<path fill="#231F20" d="M192.194,907.566c0,0,1.352-0.448,2.326,0.244c0.974,0.688,1.325,1.41,1.325,1.41l0.021-0.03l0.022-0.029
			c0.171-0.214,0.607-0.933,0.517-1.575c-0.056-0.384-0.295-0.722-0.744-1.036c-1.521-1.085-2.518-0.123-2.783,0.2L192.194,907.566"
			/>
		<path fill="#FFC425" d="M176.955,875.858c-0.083-0.305-0.189-0.602-0.312-0.891c-0.021-0.064-0.062-0.122-0.104-0.175
			l-1.081,0.964c0.06,0.152,0.112,0.313,0.153,0.476c0.377,1.319,0.271,2.689-0.268,3.659c-0.233,0.406-0.647,0.935-1.334,1.128
			c-1.485,0.416-3.256-1.067-3.868-3.246c-0.464-1.64-0.174-3.345,0.711-4.242c0.271-0.275,0.271-0.72-0.003-0.985
			c-0.277-0.273-0.714-0.27-0.989,0.004c-1.246,1.258-1.664,3.463-1.061,5.605c0.829,2.954,3.342,4.843,5.584,4.208
			c0.909-0.258,1.662-0.873,2.173-1.79C177.29,879.269,177.433,877.549,176.955,875.858"/>
		<path fill="#FFC425" d="M232.107,838.479c0,0-0.03-22.86-0.03-22.858c-0.004-1.257,0.291-2.117,0.911-2.626
			c0.116-0.096,0.244-0.174,0.373-0.235c-1.261-2.282-3.392-6.107-4.438-7.951c-0.768,0.312-1.986,0.669-3.265,0.507
			c-0.142-0.02-6.312-1.609-6.654-1.659c-1.627-0.22-2.435-1.369-2.455-3.498c0,0-0.207-17.431-0.197-17.435l8.317,0.364
			l0.103,9.646l7.262,0.726l-0.014-6.555c0-1.274,0.292-2.175,0.9-2.741c0.182-0.168,0.392-0.297,0.613-0.396l-1.003-2.43
			c-0.776-1.878-1.63-3.961-2.111-5.103l-20.023,0.02c-0.532,1.137-1.522,3.304-2.273,4.961l-0.608,1.335
			c0.761,0.361,1.51,1.167,1.536,2.93l0.189,13.559c0.023,1.096-0.239,1.874-0.798,2.384c-0.13,0.114-0.266,0.209-0.412,0.29
			c1.28,1.949,3.484,5.334,4.52,6.962c0.759-0.225,2.023-0.48,3.345-0.259c0.384,0.081,6.152,1.841,6.29,1.875
			c1.163,0.216,2.562,1.015,2.594,3.581c0,0,0.37,25.802,0.37,25.797c0,0-7.656-1.83-11.017-2.635
			c-0.928,0.598-2.176,1.391-3.814,2.429l1.142,2.672c2.606,0.824,15.865,5.047,19.321,6.168c0.299-0.663,2.396-5.355,2.825-6.304
			C232.617,841.331,232.107,840.157,232.107,838.479"/>
		<path fill="#FFC425" d="M184.772,784.09l0.364,30.687c0.011,0.958-0.259,1.666-0.794,2.105c-0.21,0.172-0.459,0.279-0.725,0.355
			l0.006,0.029c0,0,1.339,5.096,1.477,5.602c0.677,0.163,8.744,2.382,13.307,3.668c1.992-1.418,3.787-2.71,4.882-3.494
			c0.434-1.034,0.842-1.908,0.842-1.908c-1.047-0.712-2.864-1.928-3.937-2.643c-0.944,0.943-2.404,1.441-4.301,1.441
			c-1.613,0.004-3.974-0.544-3.974-0.562l-0.023-17.829c0,0,5.252,0.794,6.96,1.068l-0.086-4.571
			c-1.731-0.216-6.949-0.829-6.949-0.829l-0.106-15.649c0,0,2.176,0.054,3.806,0.544c1.372,0.422,3.16,1.236,4.292,2.769
			c0.974-0.343,2.553-0.894,3.606-1.263l-0.892-2.186l-2.112-5.197l-16.061,0.007c-0.286,1.11-1.278,5.159-1.278,5.159
			C184.095,781.794,184.75,782.734,184.772,784.09"/>
		<path fill="#FFC425" d="M85.151,822.454c0,0,0.869,3.756,1.188,5.128c0.126,0.096,0.257,0.187,0.379,0.275
			c1.606-0.495,5.889-1.792,7.084-2.126c0.241-1.096,1.472-6.098,1.472-6.098c-0.238-0.058-0.48-0.16-0.707-0.342
			c-0.54-0.438-0.797-1.157-0.786-2.194c0,0,0.062-32.493,0.062-32.496c0.019-1.41,0.6-2.404,1.592-2.819c0,0-1.07-4.52-1.296-5.546
			l-7.314-0.007c0,0-1.387,5.681-1.474,6.035c0.329,0.125,0.573,0.303,0.745,0.467c0.54,0.521,0.811,1.315,0.793,2.373
			l-0.093,34.168C86.783,820.792,86.211,821.868,85.151,822.454"/>
		<path fill="#FFC425" d="M176.825,783.708c-1.399-1.761-4.498-2.647-4.89-2.757l-1.14-0.309l0.289,31.972
			c0.017,1.323,0.578,2.261,1.594,2.726c-0.223,0.783-1.046,3.767-1.267,4.574c-1.246-0.221-6.098-0.997-7.405-1.179
			c-0.127-0.447-1.361-4.881-1.361-4.881c0.296-0.09,0.562-0.228,0.782-0.425c0.486-0.441,0.738-1.106,0.731-1.974
			c0-0.004-0.152-30.941-0.152-30.941l-1.076,0.231c-0.391,0.08-3.438,0.769-4.844,2.357l-3.13-1.224
			c0.811-1.62,2.148-4.308,2.794-5.657l19.229,0.015l2.954,6.334C179.443,782.745,177.02,783.635,176.825,783.708"/>
		<path fill="#FFC425" d="M74.868,810.96l-0.754,1.193c-0.769-0.232-2.021-0.566-3.347-0.296c0.014-0.004-9.562,2.338-9.562,2.338
			c0-0.005-0.106,21.616-0.106,21.616c-0.011,1.231,0.285,2.06,0.901,2.53c0.198,0.155,0.431,0.252,0.681,0.314
			c-0.222,1.004-1.544,7.477-1.544,7.477s-6.962,2.393-7.406,2.546l-0.204-0.944c0,0-0.899-4.678-1.11-5.807
			c1.076-0.681,1.593-1.89,1.593-3.632l0.027-51.389c0.003-1.292-0.294-2.202-0.911-2.769c-0.171-0.155-0.412-0.323-0.731-0.437
			c0.227-1.273,1.274-6.425,1.274-6.425l0.223-1.034c3.716-0.008,19.092-0.008,22.339,0.008c0.314,0.711,2.439,5.346,2.9,6.308
			c-0.779,0.366-1.495,1.176-1.52,2.917l-0.011,16.972c-0.016,1.05,0.464,1.764,1.011,2.251c0.126,0.11,0.263,0.21,0.409,0.286
			C78.335,806.029,74.868,810.96,74.868,810.96 M61.297,783.038l-0.047,24.355l9.009-1.889c0,0.003,0.024-22.79,0.024-22.79
			L61.297,783.038z"/>
		<path fill="#FFC425" d="M125.375,818.91c-0.985,0.151-5.959,0.969-5.959,0.969c-0.299-1.897-3.248-20.721-3.248-20.721
			c0.004,0.007-5.091,0.604-5.091,0.604c0-0.003-0.128,13.944-0.128,13.944c-0.009,0.916,0.256,1.611,0.786,2.061
			c0.175,0.144,0.42,0.292,0.744,0.388c-0.171,0.631-1.224,4.608-1.438,5.391c0,0-6.326,1.506-7.475,1.813
			c0,0-1.07-4.067-1.285-4.935c1.048-0.547,1.632-1.558,1.647-2.935l0.369-31.154c0.008-0.978-0.248-1.722-0.762-2.218
			c-0.219-0.209-0.479-0.361-0.775-0.467c0.219-0.886,1.434-5.415,1.434-5.415l19.658-0.005c0,0,2.455,4.387,2.686,4.803
			c-0.845,0.414-1.32,1.239-1.325,2.41c0,0.005-0.039,8.562-0.039,8.562c-0.004,0.867,0.241,1.544,0.724,2
			c0.11,0.098,0.226,0.186,0.352,0.259c-0.032,0.038-0.059,0.076-0.09,0.114l-3.123,3.836c-0.003-0.015,2.067,13.539,2.067,13.539
			c0.083,0.635,0.541,1.981,2.866,2.175C127.97,813.925,125.842,818.017,125.375,818.91 M117.354,780.977L116.128,781l-4.021,0.103
			l-0.864,0.023c0.007,0,0,0.863,0,0.863l-0.063,6.558l-0.056,6.323l-0.012,0.978c0.012,0,0.985-0.084,0.985-0.084l4.629-0.376
			l0.627-0.046l0.813-0.069c0,0.004,0.008-0.821,0.008-0.821l0.048-6.3l0.049-6.273l0.008-0.923
			C118.274,780.95,117.354,780.977,117.354,780.977z"/>
		<path fill="#FFC425" d="M156.002,813.378l0.057-0.198c-0.775-0.438-1.369-1.266-1.577-2.331c0,0-4.197-26.637-4.343-27.504
			c-0.158-0.704-0.006-1.403,0.423-1.928c0.206-0.262,0.559-0.528,1.073-0.711l-0.188-0.631l-1.104-3.833l-0.009-0.019
			l-13.602-0.004c0,0-1.03,3.749-1.229,4.528c0.412,0.148,0.767,0.384,1.022,0.711c0.404,0.514,0.549,1.199,0.402,1.853
			c-0.179,1.201-4.251,26.667-4.458,27.861l0.012-0.06c-0.108,1.038-0.732,1.95-1.577,2.425l0.908,3.137
			c1.094-0.373,2.6-0.806,3.397-0.989c0.997-0.219,1.979-0.437,2.957-0.569c0.38-0.061,0.754-0.114,1.13-0.161l0.554-1.947
			c-0.479-0.118-0.862-0.334-1.141-0.663c-0.416-0.493-0.538-1.163-0.37-1.949l1.217-7.62c0,0,8.121-0.012,8.125-0.012
			c0,0,0.992,6.825,1.081,7.498c0.157,0.819,0.032,1.486-0.386,1.977c-0.262,0.316-0.635,0.528-1.091,0.658l0.042,0.152
			c0,0,0.346,1.072,0.505,1.631c0.017,0.008,0.034,0.008,0.051,0.016c2.527,0.202,4.977,0.654,7.326,1.361
			C155.563,814.845,156.002,813.378,156.002,813.378 M140.098,799.34c0,0,2.548-15.733,2.661-16.364l1.764,0.011
			c0.054,0.414,2.57,16.375,2.564,16.369L140.098,799.34z"/>
	</g>
</g>
<g id="svg12082">
</g>
<g id="svg31568">
</g>
<g id="CLEVELAND_INDIANS">
</g>
<g id="svg2562">
</g>
</svg>
