<?xml version="1.0" encoding="utf-8"?>
<!-- Generator: Adobe Illustrator 14.0.0, SVG Export Plug-In . SVG Version: 6.00 Build 43363)  -->
<!DOCTYPE svg PUBLIC "-//W3C//DTD SVG 1.1//EN" "http://www.w3.org/Graphics/SVG/1.1/DTD/svg11.dtd">
<svg version="1.1" xmlns="http://www.w3.org/2000/svg" xmlns:xlink="http://www.w3.org/1999/xlink" x="0px" y="0px" width="200px"
	 height="200px" viewBox="44 746 200 200" enable-background="new 44 746 200 200" xml:space="preserve">
<g id="Layer_1">
	<g>
		<path fill="#FFFFFF" stroke="#FFFFFF" stroke-width="0.5877" d="M7218.837,7645.277c-2.438,4.812-9.872,18.5-9.485,20.523
			c0.48,2.512,2.055,4.428,1.979,6.965c-0.05,1.572-1.985,5.439-3.489,6.526c-1.259,0.907-5.062,8.043-20.085,0.963l-2.007-1.058
			c-14.529-8.039-10.977-15.297-10.977-16.85c0-1.854,1.998-5.688,3.246-6.646c2.012-1.546,4.485-1.396,6.805-2.473
			c1.867-0.875,7.51-12.213,9.984-17.006l0.039-0.107c-49.488-24.303-83.552-75.2-83.552-134.059
			c0-82.435,66.83-149.265,149.265-149.265c82.436,0,149.266,66.83,149.266,149.265c0,82.436-66.83,149.266-149.266,149.266
			c-14.543,0-28.597-2.079-41.889-5.959L7218.837,7645.277z"/>
		<path fill="#FC1921" d="M7310.404,7445.783c2.517,1.566,5.261,3.033,7.347,4.908l23.97-30.517
			c4.913,4.281,8.823,8.417,12.65,14.433l-27.979,24.561c2.26,2.576,5.166,7.668,6.987,11.215l28.75-19.906
			c0.55,1.073,2.117,7.637,1.867,9.559l-28.22,18.234c0.455,2.035,0.771,2.481,1.106,5.184c0,0,32.472-18.421,32.487-18.653
			c-3.542-34.866-33.861-63.302-69.663-63.302c-14.872,0-28.646,4.697-39.925,12.686c-0.19,0.135,1.869,32.676,1.869,32.676
			c2.289-1.432,5.125-2.766,6.269-3.146l-0.571-29.678c2.77-2.195,6.537-4.008,9.448-5.061l-0.67,32.158
			c4.008-0.951,11.163-1.527,13.456-1.047l5.82-35.023c7.063-0.668,14.121,0.099,20.326,2.104l-13.551,35.209
			c2.684,0.821,5.577,2.053,8.221,3.407"/>
		<path fill="none" stroke="#FFFFFF" stroke-width="2.2041" d="M7286.66,7541.208c28.023,0,50.738-22.722,50.738-50.739
			c0-28.025-22.715-50.742-50.738-50.742s-50.743,22.717-50.743,50.742C7235.917,7518.486,7258.637,7541.208,7286.66,7541.208z"/>
		<path fill="#FC1921" d="M7244.924,7555.453c-1.412,2.329-12.27,8.79-14.615,5.148c-3.91-6.071,8.041-15.715,5.781-18.412
			c-1.359-1.615-6.973,2.603-11.557,7.881c0,0-2.547,4.88-6.016,11.029l-8.156,0.071c-0.5-0.377,10.377-16.298,8.266-18.151
			c-3-2.621-20.595,25.819-28.863,19.78c-0.695-0.512-2.562-2.624-0.076-7.938c-3.701,4.886-12.697,8.841-16.484,5.559
			c-8.127-7.044,13.936-30.667,22.833-22.48c0.696,0.638,0.948,1.26,0.896,1.754l1.196-1.885l8.045-0.072
			c-3.655,9.843-11.235,18.748-9.291,20.147c3.384,2.435,22.839-27.389,29.462-20.891c2.057,2.021,1.915,4.664,1.379,6.104
			c4.691-4.893,14.598-9.605,17.799-6.281c3.896,4.037-7.959,15.966-5.349,17.631c1.481,0.947,6.042-2.536,6.042-2.536
			 M7179.284,7555.41c4.358,4.835,17.543-10.475,14.856-14.801C7190.572,7536.122,7175.384,7551.083,7179.284,7555.41z"/>
		<path fill="#FC1921" d="M7267.668,7546.346c7.393,0.592,15.95-3.896,14.373-7.41c-0.93-2.072-6.518-1.259-9.811,0.094
			L7267.668,7546.346z M7291.758,7552.52c-8.088,7.346-16.791,10.088-19.658,7.897c-4.781-3.653-0.424-8.401-2.852-10.448
			c-0.664-0.554-1.775-0.699-3.591-0.57l9.399-14.584c5.045-2.584,13.289-3.978,14.672,0.744
			c1.932,6.596-7.273,12.303-13.658,13.357c4.859,0.891,0.054,6.299,5.027,6.949c2.213,0.293,8.666-4.321,12.039-8.986"/>
		<path fill="#FC1921" d="M7325.467,7549.889c-12.592,9.047-29.176,11.872-32.701,4.161c-5.813-12.713,26.438-28.647,30.25-18.911
			c2.709,6.916-10.131,13.102-20.711,13.198c-0.445,0.004-0.293-0.108-0.332,0.004c-0.924,2.681,0.383,5.616,5.344,5.574
			s12.326-2.099,19.324-8.338 M7302.721,7545.797c6.387-0.83,12.789-6.154,11.719-8.593
			C7312.932,7533.786,7304.098,7539.941,7302.721,7545.797z"/>
		<path fill="#FC1921" d="M7370.137,7539.989c-4.15,4.228-10.093,7.239-10.843,7.819c-11.747,9.047-29.151,12.367-33.028,4.828
			c-6.586-12.818,26.274-27.527,28.82-18.568c1.854,6.525-9.589,12.104-19.283,12.853c-0.441,0.039-0.293-0.108-0.328,0.007
			c-0.927,2.678,0.381,5.621,5.342,5.571c4.959-0.046,10.332-2.386,17.684-6.888c1.643-1.01,8.555-4.824,11.93-9.479
			 M7336.107,7544.166c7.273-0.286,13.812-6.092,11.936-8.708C7345.707,7532.189,7336.617,7539.643,7336.107,7544.166z"/>
		<path fill="#FC1921" d="M7364.875,7543.566c0.549,5.674-5.07,5.832-5.352,5.562c-0.866,0.95-0.199,5.04,4.131,5.253
			c7.199,0.362,7.092-9.106,6.14-12.625c-0.649-2.407-0.175-5.043,0.206-7.358c0.953-5.797,8.464-11.84,11.125-9.947
			c1.818,1.301,0.818,5.617-4.098,9.855c-0.922,0.894-1.522,1.041-0.188,3.783c1.446,2.977,3.925,10.139-0.116,15.605
			c-3.156,4.271-8.562,4.849-13.052,4.087c-2.872-0.489-6.085-2.396-7.411-4.548
			C7350.501,7543.921,7362.396,7537.529,7364.875,7543.566z"/>
		<path fill="#0C2D82" d="M7287.803,7515.884c1.081-1.507,2.096-2.905,3.092-4.229c0.239-0.319,0.877-1.403,1.195-2.216
			c1.734-4.449-2.631-11.25-8.762-14.142c-6.094-2.873-12.63-2.272-14.586,0.634c-0.489,0.723-1.081,1.648-1.196,2.026
			c-0.68,2.228-1.444,4.422-2.272,6.812c-9.666-6.455-15.342-13.385-12.715-18.396c4.873-9.294,20.09-7.728,35.982,0.079
			c15.895,7.803,26.643,19.652,22.15,28.181C7308.029,7519.695,7298.917,7519.592,7287.803,7515.884z"/>
		<path fill="#0C2D82" d="M7306.857,7534.792c-0.812,0.296-2.83,1.376-4.391,2.363c-3.15-3.582-14.222-11.253-20.144-13.31
			c-0.091-0.029,1.501-2.115,1.501-2.115c6.105,2.479,20.646,10.916,22.936,13.016"/>
		<g>
			<path fill="#0C2D82" d="M7335.686,7535.971c1.316-0.936,4.9-2.396,5.002-2.531c0.119-0.49,0.188-1.463,0.188-1.463
				c3.817-17.939-3.962-32.539-10.065-38.266c-5.959-5.589-3.125-1.413-1.146,1.146c1.406,1.815,2.08,2.881,2.671,4.004
				c3.104,5.891,1.633,5.16-2.479,0.955c-8.111-8.287-22.234-18.797-35.211-25.284c-17.717-8.86-39.412-13.075-51.433-12.694
				c4.961-2.29,7.685-2.536,12.783-3.052c4.521-0.457,2.75-1.354,0-1.146c-9.658,0.738-31.181,1.076-34.54,17.939
				c-2.855,14.318,8.777,26.527,20.036,30.916c9.786,3.814,20.138,8.361,20.138,8.361l1.049-3.207
				c-5.727-3.056-15.707-6.34-20.992-8.396c-6.873-2.671-19.172-12.136-17.561-25.003c2.674-21.354,42.809-14.324,69.469-0.953
				c11.551,5.795,27.014,17.03,34.612,24.363c8.709,8.403,10.235,11.219,10.808,20.108
				C7339.039,7527.203,7337.527,7532.095,7335.686,7535.971"/>
			<text transform="matrix(1 0 0 1 -6505.8574 -5942.416)" fill="#0C2D82" font-family="'Helvetica'" font-size="9"> </text>
		</g>
		<path fill="none" stroke="#FC1921" stroke-width="1.0213" stroke-linecap="round" stroke-linejoin="round" d="M7339.202,7414.514
			c2.675-3.439,9.508-12.236,12.024-14.128"/>
		<polyline fill="none" stroke="#FC1921" stroke-width="1.0213" stroke-linecap="round" stroke-linejoin="round" points="
			7339.968,7398.859 7345.312,7406.493 7355.234,7409.93 		"/>
		<polyline fill="none" stroke="#FC1921" stroke-width="1.0213" stroke-linecap="round" stroke-linejoin="round" points="
			7334.242,7404.202 7341.496,7411.457 7349.512,7415.271 		"/>
		<path fill="#FC1921" d="M7403.1,7501.54c0-78.821-63.896-142.722-142.715-142.722c-70.221,0-128.598,50.721-140.5,117.521
			l13.848-14.667c17.164-53.467,67.293-92.163,126.461-92.163c73.336,0,132.791,59.451,132.791,132.79l0.08,0.105
			c-0.863,24.806-5.724,35.441-14.613,41.854l-0.791,6.518c3.902-3.002,15.723-15.502,23.051-30.602
			c1.991-4.109,2.543-14.719,2.479-18.398L7403.1,7501.54z"/>
		<path fill="#FC1921" d="M7385.871,7546.229c-18.028,51.947-67.404,87.315-125.486,87.819
			c-69.363,0.601-132.197-57.979-132.197-131.319l0,0c-1.035-14.821,3.248-24.315,6.748-30.752
			c3.597-6.623,11.256-15.36,18.045-14.031c10.521,2.066,3.754,15.803-5.182,31.381c-8.732,15.229-19.314,31.223-10.799,40.427
			c6.893,7.451,21.002,5.756,29.632-2.81l-26.623,49.98l11.817,0.088l51.41-97.046l-11.906,0.33l-21.021,39.114
			c-6.773,6.347-17.779,12.174-24.07,7.826c-12.484-8.621,36.408-55.317,18.416-70.502c-14.369-12.125-29.979,5.979-34.928,14.564
			c-4.053,7.035-11.701,17.858-11.879,31.191l0.01-0.574c0,78.816,63.899,142.714,142.718,142.714
			c67.2,0,123.556-46.448,138.706-108.991c0.574-2.295,1.187-5.099,1.187-5.099
			C7396.459,7536.845,7385.871,7546.229,7385.871,7546.229z"/>
		
			<line fill="none" stroke="#FC1921" stroke-width="1.0213" stroke-linecap="round" stroke-linejoin="round" x1="7184.234" y1="7428.633" x2="7196.258" y2="7426.914"/>
		<path fill="none" stroke="#FC1921" stroke-width="1.0213" stroke-linecap="round" stroke-linejoin="round" d="M7163.626,7407.656
			c28.673,22.9,47.043,58.158,47.043,97.707c0,10.699-1.219,19.828-3.715,29.771"/>
		<path fill="none" stroke="#FC1921" stroke-width="1.0213" stroke-linecap="round" stroke-linejoin="round" d="M7195.812,7564.906
			c-6.367,11.812-14.619,22.438-24.426,31.432c-4.58,4.197-3.174,1.78-3.174,1.78"/>
		<polyline fill="none" stroke="#FC1921" stroke-width="1.0213" stroke-linecap="round" stroke-linejoin="round" points="
			7177.375,7406.884 7167.066,7410.701 7163.633,7421.197 		"/>
		
			<line fill="none" stroke="#FC1921" stroke-width="1.0213" stroke-linecap="round" stroke-linejoin="round" x1="7173.173" y1="7415.666" x2="7182.336" y2="7412.229"/>
		
			<line fill="none" stroke="#FC1921" stroke-width="1.0213" stroke-linecap="round" stroke-linejoin="round" x1="7176.229" y1="7419.1" x2="7185.771" y2="7416.043"/>
		
			<line fill="none" stroke="#FC1921" stroke-width="1.0213" stroke-linecap="round" stroke-linejoin="round" x1="7180.046" y1="7423.684" x2="7192.26" y2="7421.771"/>
		
			<line fill="none" stroke="#FC1921" stroke-width="1.0213" stroke-linecap="round" stroke-linejoin="round" x1="7190.732" y1="7436.848" x2="7203.902" y2="7435.702"/>
		<polyline fill="none" stroke="#FC1921" stroke-width="1.0213" stroke-linecap="round" stroke-linejoin="round" points="
			7187.486,7454.021 7195.505,7445.627 7208.863,7445.245 		"/>
		<polyline fill="none" stroke="#FC1921" stroke-width="1.0213" stroke-linecap="round" stroke-linejoin="round" points="
			7191.113,7462.232 7199.514,7454.021 7212.3,7454.789 		"/>
		
			<line fill="none" stroke="#FC1921" stroke-width="1.0213" stroke-linecap="round" stroke-linejoin="round" x1="7168.021" y1="7425.586" x2="7172.221" y2="7415.666"/>
		
			<line fill="none" stroke="#FC1921" stroke-width="1.0213" stroke-linecap="round" stroke-linejoin="round" x1="7172.982" y1="7430.551" x2="7177.182" y2="7420.246"/>
		
			<line fill="none" stroke="#FC1921" stroke-width="1.0213" stroke-linecap="round" stroke-linejoin="round" x1="7175.658" y1="7434.749" x2="7181.002" y2="7424.635"/>
		
			<line fill="none" stroke="#FC1921" stroke-width="1.0213" stroke-linecap="round" stroke-linejoin="round" x1="7179.279" y1="7439.52" x2="7185.389" y2="7430.359"/>
		
			<line fill="none" stroke="#FC1921" stroke-width="1.0213" stroke-linecap="round" stroke-linejoin="round" x1="7182.908" y1="7445.055" x2="7189.779" y2="7437.609"/>
		<polyline fill="none" stroke="#FC1921" stroke-width="1.0213" stroke-linecap="round" stroke-linejoin="round" points="
			7194.74,7473.109 7203.52,7464.331 7217.26,7465.475 		"/>
		
			<line fill="none" stroke="#FC1921" stroke-width="1.0213" stroke-linecap="round" stroke-linejoin="round" x1="7206.955" y1="7474.827" x2="7219.359" y2="7478.07"/>
		
			<line fill="none" stroke="#FC1921" stroke-width="1.0213" stroke-linecap="round" stroke-linejoin="round" x1="7206.764" y1="7474.445" x2="7203.137" y2="7478.07"/>
		
			<line fill="none" stroke="#FC1921" stroke-width="1.0213" stroke-linecap="round" stroke-linejoin="round" x1="7209.436" y1="7486.852" x2="7220.889" y2="7490.855"/>
		
			<line fill="none" stroke="#FC1921" stroke-width="1.0213" stroke-linecap="round" stroke-linejoin="round" x1="7200.273" y1="7494.863" x2="7209.244" y2="7485.896"/>
		<polyline fill="none" stroke="#FC1921" stroke-width="1.0213" stroke-linecap="round" stroke-linejoin="round" points="
			7222.986,7506.129 7210.391,7500.784 7200.273,7508.797 		"/>
		<polyline fill="none" stroke="#FC1921" stroke-width="1.0213" stroke-linecap="round" stroke-linejoin="round" points="
			7200.466,7520.63 7210.201,7514.143 7222.029,7518.915 		"/>
		<polyline fill="none" stroke="#FC1921" stroke-width="1.0213" stroke-linecap="round" stroke-linejoin="round" points="
			7197.605,7531.51 7208.863,7526.928 7220.697,7531.889 		"/>
		
			<line fill="none" stroke="#FC1921" stroke-width="1.0213" stroke-linecap="round" stroke-linejoin="round" x1="7206.955" y1="7535.134" x2="7212.872" y2="7540.102"/>
		
			<line fill="none" stroke="#FC1921" stroke-width="1.0213" stroke-linecap="round" stroke-linejoin="round" x1="7204.091" y1="7546.587" x2="7206.193" y2="7548.305"/>
		
			<line fill="none" stroke="#FC1921" stroke-width="1.0213" stroke-linecap="round" stroke-linejoin="round" x1="7211.035" y1="7551.738" x2="7212.938" y2="7552.952"/>
		
			<line fill="none" stroke="#FC1921" stroke-width="1.0213" stroke-linecap="round" stroke-linejoin="round" x1="7204.475" y1="7559.182" x2="7208.482" y2="7562.809"/>
		
			<line fill="none" stroke="#FC1921" stroke-width="1.0213" stroke-linecap="round" stroke-linejoin="round" x1="7195.314" y1="7565.673" x2="7202.564" y2="7572.35"/>
		
			<line fill="none" stroke="#FC1921" stroke-width="1.0213" stroke-linecap="round" stroke-linejoin="round" x1="7194.359" y1="7566.625" x2="7186.154" y2="7565.859"/>
		<polyline fill="none" stroke="#FC1921" stroke-width="1.0213" stroke-linecap="round" stroke-linejoin="round" points="
			7197.221,7581.324 7190.732,7573.111 7181.002,7571.971 		"/>
		<polyline fill="none" stroke="#FC1921" stroke-width="1.0213" stroke-linecap="round" stroke-linejoin="round" points="
			7175.837,7578.448 7185,7579.4 7191.107,7587.993 		"/>
		<polyline fill="none" stroke="#FC1921" stroke-width="1.0213" stroke-linecap="round" stroke-linejoin="round" points="
			7170.493,7583.793 7179.273,7586.464 7185.764,7593.334 		"/>
		<polyline fill="none" stroke="#FC1921" stroke-width="1.0213" stroke-linecap="round" stroke-linejoin="round" points="
			7167.25,7588.755 7175.076,7591.044 7180.802,7597.533 		"/>
		<polyline fill="none" stroke="#FC1921" stroke-width="1.0213" stroke-linecap="round" stroke-linejoin="round" points="
			7173.928,7601.924 7170.111,7595.816 7165.15,7593.909 		"/>
		<path fill="none" stroke="#FC1921" stroke-width="1.0213" stroke-linecap="round" stroke-linejoin="round" d="M7327.373,7556.501
			c4.197,7.635,22.521,30.151,32.439,35.118"/>
		
			<line fill="none" stroke="#FC1921" stroke-width="1.0213" stroke-linecap="round" stroke-linejoin="round" x1="7320.5" y1="7555.738" x2="7324.316" y2="7555.357"/>
		<polyline fill="none" stroke="#FC1921" stroke-width="1.0213" stroke-linecap="round" stroke-linejoin="round" points="
			7333.096,7558.409 7330.044,7561.461 7321.646,7562.991 		"/>
		
			<line fill="none" stroke="#FC1921" stroke-width="1.0213" stroke-linecap="round" stroke-linejoin="round" x1="7325.083" y1="7569.857" x2="7336.532" y2="7569.477"/>
		<polyline fill="none" stroke="#FC1921" stroke-width="1.0213" stroke-linecap="round" stroke-linejoin="round" points="
			7346.457,7567.952 7340.35,7575.203 7331.189,7577.881 		"/>
		<polyline fill="none" stroke="#FC1921" stroke-width="1.0213" stroke-linecap="round" stroke-linejoin="round" points="
			7351.036,7572.913 7345.503,7579.785 7335.389,7584.364 		"/>
		
			<line fill="none" stroke="#FC1921" stroke-width="1.0213" stroke-linecap="round" stroke-linejoin="round" x1="7339.968" y1="7588.943" x2="7348.365" y2="7583.982"/>
		<polyline fill="none" stroke="#FC1921" stroke-width="1.0213" stroke-linecap="round" stroke-linejoin="round" points="
			7358.29,7580.934 7352.943,7587.418 7344.93,7592.764 		"/>
		
			<line fill="none" stroke="#FC1921" stroke-width="1.0213" stroke-linecap="round" stroke-linejoin="round" x1="7356" y1="7575.969" x2="7349.893" y2="7584.364"/>
		
			<line fill="none" stroke="#FC1921" stroke-width="1.0213" stroke-linecap="round" stroke-linejoin="round" x1="7341.496" y1="7561.846" x2="7335.77" y2="7568.336"/>
		<polyline fill="none" stroke="#FC1921" stroke-width="1.0213" stroke-linecap="round" stroke-linejoin="round" points="
			7361.723,7585.13 7359.051,7590.477 7351.801,7595.434 		"/>
		<path fill="#FC1921" d="M7238.566,7594.023c-7.988,13.949-28.168,51.955-34.953,67.64c-1.773,4.096-2.191,5.948-0.432,8.015
			c0.338,0.4,0.885,1.397,0.977,1.758c0.367,1.403-1.232,3.228-2.073,3.778c-1.745,1.136-5.502,1.425-12.251-1.665
			c-6.747-3.09-8.441-6.847-8.544-8.931c-0.049-1.004,0.483-3.366,1.836-3.899c0.345-0.134,1.472-0.279,1.994-0.238
			c2.704,0.211,4.183-1.545,6.456-5.388c9.304-15.729,29.176-52.354,36.117-66.473c4.066-8.279,26.606-52.015,37.574-83.677
			c0.823-2.385,1.586-4.697,2.267-6.93c0.114-0.378,0.706-1.304,1.194-2.025c1.955-2.905,8.494-3.506,14.59-0.635
			c6.125,2.888,10.492,9.691,8.755,14.137c-0.315,0.814-0.952,1.9-1.192,2.221c-0.999,1.32-2.043,2.746-3.124,4.248
			C7271.837,7538.098,7247.645,7578.176,7238.566,7594.023z M7187.881,7661.745c0.115,0.323,0.533,0.743,1.66,0.479
			c0.453-0.113,0.809-0.533,1.376-1.162c0.949-1.057,2.103-2.676,2.431-4.336c0.213-0.715-0.223-0.377-0.384-0.045
			c-0.165,0.33-3.173,4.147-4.757,4.56C7187.988,7661.301,7187.877,7661.188,7187.881,7661.745z M7213.828,7624.46
			c-2.057,4.104-14.537,28.124-20.148,35.379c-0.152,0.193-0.296,0.375-0.441,0.545c-0.146,0.208-0.524,0.392-0.67,0.546
			c-0.176,0.188-0.114,0.336-0.227,0.438c-0.095,0.111,0.053,0.214-0.02,0.318c-0.086,0.133-0.389,0.26-0.496,0.385
			c-0.253,0.271-0.164,0.516-0.375,0.716c-0.371,0.364-0.965,0.585-0.965,0.585c-0.658,0.119-0.432,1,0.121,1.213
			c0.306,0.118,0.611,0.314,0.92,0.496c0.246,0.146,0.496,0.245,0.746,0.591c0.197,0.272-0.129,0.675-0.147,1.05
			c-0.021,0.291,0.099,0.573-0.114,0.783c-0.297,0.287-0.943,0.438-1.482,0.28c-0.641-0.191-1.469-0.688-2.23-1.054
			c-0.947-0.455-1.787-0.76-2.031-0.729c-0.22,0.03-0.713,0.155-0.863,0.383c-0.105,0.15-0.151,0.352,0.132,0.592
			c0.128,0.104,0.522,0.334,0.746,0.459c0.348,0.197,0.653,0.521,1.094,0.742c0.174,0.086,0.332-0.06,0.49,0.01
			c0.213,0.094,0.427,0.41,0.67,0.533c0.289,0.146,0.681,0.389,0.95,0.51c0.18,0.078,0.354,0.416,0.521,0.527
			c0.102,0.065,0.197-0.088,0.292-0.043c0.322,0.16,0.599,0.215,0.806,0.374c0.354,0.289,0.778,0.587,1.187,0.74
			c0.667,0.249,1.301-0.004,1.563-1.206c0.424-1.932,0.953-4.143,1.379-5.631c0.089-0.319,0.32-0.982,0.642-1.887
			c0.062-0.17-0.092-0.352-0.022-0.537c1.281-3.536,3.912-9.788,5.576-13.4c2.213-4.816,12.295-23.045,12.403-23.378
			C7213.939,7624.457,7214.695,7622.96,7213.828,7624.46z M7228.309,7596.211c1.68-3.238,51.808-88.62,56.344-96.432
			c0,0,1.332,0.759,1.121,1.861c-4.566,6.877-33.221,54.988-35.605,59.644c-2.381,4.651-19.631,34.137-30.463,55.185
			c0,0,43.841-74.712,45.579-77.816c1.708-3.059,20.681-33.698,21.827-35.448c0,0,1.195-1.972,1.14-1.86
			c-2.985-4.087-8.548-6.367-13.616-6.212c-0.421,1.987-18.693,46.695-24.324,57.55
			C7244.948,7563.016,7230.477,7592.227,7228.309,7596.211L7228.309,7596.211z M7209.675,7640.372
			c3.013-5.646,42.914-77.853,68.482-116.757c0.704-1.07,11.893-17.723,11.948-18.485c0.062-0.86-0.571-1.868-0.904-2.144
			c-0.559,0.895-6.811,10.99-12.253,19.447c-23.433,38.008-64.513,110.735-66.902,116.336c-0.088,0.215-0.606,1.66-0.696,1.856
			c-0.127,0.274,0.063,0.088-0.146,0.368c-0.564,0.742-1.068,2.068-1.564,2.852c-0.125,0.196-0.259,0.383-0.387,0.58
			c-0.05,0.088,0.014,0.227-0.029,0.317c-0.119,0.268-0.299,0.51-0.404,0.788c-0.041,0.096,0.021,0.232-0.027,0.312
			c-0.334,0.546-0.43,1.091-0.831,1.58c-0.056,0.065,0.015,0.218-0.033,0.308c-0.03,0.059-0.171,0.07-0.185,0.123
			c-0.21,0.75-0.749,1.234-1.088,1.889c-0.049,0.087-0.016,0.211-0.014,0.322c-0.107-0.029-0.189,0.026-0.209,0.115
			c-0.06,0.271-0.168,0.512-0.257,0.756c-0.075,0.203-0.303,0.401-0.348,0.584c-0.104,0.414-0.513,0.657-0.487,1.097
			c-0.324,0.11-0.22,0.222-0.229,0.327c-0.01,0.103-0.1,0.189-0.166,0.264c-0.275,0.295-0.406,0.702-0.528,1.088
			c-0.101,0.324-0.36,0.561-0.476,0.873c-0.026,0.064,0.017,0.154-0.021,0.203c-0.103,0.164,0.099,0.328,0.065,0.468
			c-0.045,0.17-0.443,0.456-0.516,0.604c-0.039,0.086-0.082,0.052-0.125,0.127c-0.416,0.679-0.322,1.353-0.687,2.033
			c-0.062,0.119-0.298,0.315-0.371,0.414c-0.493,0.627-0.365,1.426-0.838,2.01c0.079,0.332-0.194,0.568-0.233,0.881
			c-0.01,0.082,0.057,0.146,0.042,0.229c-0.028,0.284-0.131,0.519-0.184,0.78c-0.185,0.976-0.351,1.883-0.624,2.917
			c-0.2,0.768-0.717,1.105-0.814,1.936c-0.027,0.244,0.193,0.25,0.209,0.332c0.022,0.125,0.045,0.244,0.139,0.314
			c0.082,0.066,0.174-0.018,0.199-0.104c0.209-0.625,0.224-1.068,0.506-1.674c0.115-0.246-0.242-0.582-0.162-0.853
			c0.257-0.813,1.147-1.522,1.384-2.338c0.388-0.154,0.063-0.582,0.213-0.884c0.046-0.082,0.129-0.099,0.211-0.135
			c0.146-0.065-0.146-0.283-0.082-0.404c0.2-0.387,0.621-0.741,0.874-1.104c0.17-0.242,0.377-0.469,0.477-0.707
			c0.174-0.418,0.42-0.684,0.42-1.087c0.002-0.473,0.521-0.86,0.5-1.328c-0.006-0.124,0.142-0.231,0.168-0.337
			c0.134-0.615,0.199-1.189,0.43-1.775c0.074-0.19,0.02-0.426,0.02-0.648c0.289,0.027-0.039-0.34,0.217-0.333
			c-0.078-0.272,0.069-0.545,0.158-0.744c0.368-0.797,0.654-1.649,0.828-2.565c0.039-0.209,0.217-0.363,0.289-0.563
			c0.036-0.099-0.029-0.252,0.026-0.312c0.146-0.154,0.217-0.344,0.407-0.48c0.035-0.02-0.006-0.131,0.019-0.195
			c0.089-0.254,0.408-0.365,0.447-0.668c0.01-0.049,0.157-0.063,0.181-0.121c0.292-0.748,0.627-1.352,0.816-2.109
			c0.105-0.424,0.666-0.734,0.629-1.205c-0.004-0.032,0.158-0.059,0.174-0.118c0.15-0.489,0.131-0.903,0.43-1.33
			c0.053-0.083-0.003-0.217,0.026-0.319c0.021-0.088,0.378-0.106,0.397-0.139c0.252-0.395,0.049-1.021,0.19-1.427
			c0.075-0.226,0.499-0.333,0.634-0.511c0.092-0.119,0.069-0.272,0.178-0.363c0.025-0.021-0.026-0.073-0.023-0.08
			c0.062-0.148,0.072-0.23,0.197-0.35c0.06-0.051,0.096-0.162,0.066-0.265c0.082,0.067,0.029-0.118,0.111-0.054
			c-0.003-0.059-0.003-0.107-0.003-0.164 M7242.264,7564.552c3.506-4.821,20.674-40.86,29.252-66.747l-1.101,0.229
			C7269.504,7501.411,7260.624,7529.618,7242.264,7564.552z"/>
		<path fill="#0C2D82" d="M7261.555,7446.514c8.686-6.01,29.684-11.18,48.475-1.049c13.845,7.465,23.857,19.754,26.719,37.691
			l-10.496,6.016c-9.921-11.263-18.893-17.941-25.766-21.378c-6.869-3.433-22.9-10.305-38.168-11.065L7261.555,7446.514z
			 M7317.238,7454.891l-5.164,2.357l-5.139-2.977l0.599,5.623l-4.491,3.879l5.762,1.098l2.221,5.559l3.052-5.062l5.71-0.292
			l-3.723-4.423L7317.238,7454.891z M7331.975,7477.666l-3.42-0.025l-2.049-2.931l-1.104,3.22l-3.44,0.973l2.868,2.065l-0.208,3.604
			l2.96-1.987l3.189,1.294l-0.907-3.363L7331.975,7477.666z M7289.771,7444.568l-2.475,4.156l-5.039,0.406l3.145,3.643l-1.266,4.896
			l4.566-2.025l4.248,2.813l-0.315-5.022l3.856-2.975l-4.748-1.291L7289.771,7444.568z M7269.723,7446.001l-0.986,3.039
			l-3.188,0.994l2.557,1.894l-0.103,3.334l2.647-1.968l3.147,1.19l-0.937-3.188l2.05-2.48l-3.245-0.135L7269.723,7446.001z"/>
		<path fill="#0C2D82" d="M7358.277,7564.76h-2.27v6.176h-1.533v-6.176h-2.264v-1.34h6.064v1.34H7358.277z M7368.553,7570.936
			h-1.535v-5.979h-0.035l-2.174,5.979h-1.482l-2.105-5.979h-0.031v5.979h-1.539v-7.516h2.662l1.748,4.907h0.035l1.819-4.907h2.64
			v7.516H7368.553z"/>
	</g>
	<g>
		<path fill="#1C3465" d="M244,846.001c0,13.089-2.603,26.175-7.611,38.269c-5.009,12.093-12.421,23.186-21.678,32.441
			c-9.254,9.256-20.348,16.668-32.44,21.678S157.091,946,144,946c-13.088,0-26.173-2.602-38.266-7.611
			c-12.096-5.01-23.187-12.422-32.444-21.678c-9.257-9.256-16.668-20.349-21.677-32.441C46.604,872.177,44,859.09,44,846.001
			c0-13.091,2.603-26.175,7.613-38.269c5.009-12.093,12.421-23.187,21.677-32.443c9.257-9.257,20.348-16.668,32.444-21.677
			C117.827,748.603,130.911,746,144,746c13.091,0,26.178,2.603,38.271,7.612c12.093,5.009,23.187,12.42,32.44,21.677
			c9.257,9.257,16.669,20.35,21.678,32.443S244,832.91,244,846.001z"/>
		<path fill="#1C3465" d="M212.348,932.113v-3.894h-1.391v-0.791h3.725v0.791h-1.389v3.894H212.348L212.348,932.113z
			 M215.646,932.113v-4.685h1.415l0.851,3.194l0.841-3.194h1.419v4.685h-0.878v-3.689l-0.932,3.689h-0.909l-0.927-3.689v3.689
			H215.646z"/>
		<path fill="#FFFFFF" d="M143.856,775.208c-9.193,0-18.38,1.825-26.871,5.345c-8.493,3.518-16.275,8.72-22.773,15.221
			c-6.5,6.5-11.698,14.287-15.213,22.777c-3.516,8.491-5.337,17.668-5.334,26.857l0,0c0,9.188,1.818,18.365,5.334,26.856
			c3.516,8.491,8.713,16.277,15.213,22.778c6.498,6.5,14.28,11.704,22.773,15.223c8.491,3.518,17.677,5.342,26.871,5.342
			c9.192,0,18.372-1.824,26.866-5.342l0.045-0.023c8.476-3.518,16.241-8.714,22.728-15.201c6.498-6.5,11.698-14.287,15.211-22.778
			c3.517-8.491,5.337-17.668,5.335-26.857l0,0c0-9.188-1.818-18.366-5.335-26.857c-3.513-8.491-8.714-16.278-15.211-22.777
			c-6.5-6.5-14.282-11.703-22.772-15.221l-0.087-0.034c-8.468-3.495-17.618-5.311-26.779-5.311L143.856,775.208L143.856,775.208z
			 M143.856,778.292c8.78,0,17.563,1.748,25.675,5.109c8.113,3.361,15.557,8.337,21.766,14.548l0,0
			c6.207,6.211,11.183,13.659,14.539,21.773c3.361,8.113,5.104,16.902,5.103,25.684l0,0c0,8.784-1.741,17.571-5.103,25.686
			c-3.356,8.114-8.334,15.564-14.543,21.775c-6.209,6.209-13.652,11.188-21.766,14.549c-8.112,3.358-16.896,5.105-25.675,5.105
			c-8.782,0-17.566-1.747-25.678-5.105c-8.111-3.361-15.562-8.34-21.771-14.549l-0.059-0.063
			c-6.146-6.165-11.082-13.543-14.43-21.581l-0.054-0.131c-3.359-8.116-5.105-16.902-5.103-25.686l0,0
			c0-8.782,1.743-17.571,5.103-25.684c3.359-8.116,8.336-15.566,14.543-21.775c6.209-6.211,13.659-11.187,21.771-14.548
			c8.112-3.361,16.896-5.109,25.678-5.109L143.856,778.292z"/>
		<path fill="#FFFFFF" d="M143.916,750.607c-12.402,0-24.796,2.466-36.255,7.211c-11.457,4.748-21.961,11.767-30.734,20.539
			c-8.771,8.77-15.791,19.272-20.538,30.734c-4.747,11.459-7.21,23.853-7.21,36.258s2.464,24.801,7.21,36.263
			c4.747,11.46,11.767,21.964,20.538,30.735c8.773,8.77,19.277,15.788,30.734,20.535c11.459,4.747,23.853,7.213,36.255,7.213
			c12.402,0,24.792-2.466,36.249-7.213c11.427-4.733,21.906-11.727,30.661-20.463l0.072-0.072
			c8.771-8.771,15.794-19.275,20.539-30.735c4.748-11.462,7.212-23.858,7.212-36.263s-2.464-24.798-7.212-36.258
			c-4.745-11.461-11.769-21.963-20.539-30.734c-8.771-8.773-19.274-15.792-30.733-20.539
			C168.707,753.073,156.317,750.607,143.916,750.607L143.916,750.607z M143.916,753.705c11.995,0,23.996,2.391,35.078,6.982
			c11.082,4.591,21.248,11.384,29.73,19.863c8.479,8.482,15.277,18.655,19.868,29.737c4.589,11.079,6.975,23.068,6.975,35.061
			c0,11.991-2.386,23.987-6.975,35.066l-0.029,0.068c-4.589,11.055-11.375,21.205-19.839,29.668
			c-8.481,8.482-18.647,15.273-29.729,19.864c-11.083,4.591-23.082,6.976-35.078,6.976s-23.993-2.385-35.075-6.976
			c-11.084-4.591-21.255-11.382-29.737-19.864c-8.482-8.48-15.28-18.653-19.869-29.736c-4.589-11.079-6.977-23.075-6.977-35.066
			c0-11.975,2.378-23.945,6.954-35.011l0.023-0.05c4.588-11.082,11.386-21.255,19.868-29.737
			c8.482-8.479,18.652-15.272,29.737-19.863C119.922,756.096,131.92,753.705,143.916,753.705L143.916,753.705z"/>
		<path fill="#FFFFFF" d="M63.142,826.21c-0.139,0.488-0.309,0.845-0.509,1.068c-0.2,0.225-0.568,0.27-1.1,0.134
			c-0.398-0.063-0.664-0.25-0.798-0.56c-0.134-0.307-0.078-0.943,0.17-1.906c0.159-0.741,0.354-1.257,0.586-1.546
			c0.231-0.288,0.688-0.341,1.368-0.161l0.911-3.55l-0.572-0.147c-1.257-0.307-2.228-0.278-2.912,0.088
			c-0.681,0.368-1.195,0.959-1.539,1.772c-0.344,0.814-0.637,1.734-0.876,2.766c-0.332,1.207-0.529,2.268-0.589,3.184
			s0.153,1.686,0.638,2.313c0.485,0.625,1.379,1.109,2.682,1.45c1.3,0.33,2.289,0.354,2.966,0.073
			c0.68-0.28,1.198-0.803,1.559-1.571c0.361-0.766,0.716-1.714,1.062-2.846l0.266-0.798c0.244-0.834,0.461-1.354,0.655-1.562
			c0.19-0.207,0.573-0.223,1.136-0.047c0.565,0.131,0.882,0.391,0.945,0.779c0.066,0.386-0.022,1.007-0.261,1.859
			c-0.205,0.895-0.448,1.488-0.728,1.779c-0.282,0.289-0.768,0.336-1.461,0.141l-0.912,3.55c1.492,0.377,2.628,0.404,3.412,0.089
			c0.782-0.318,1.362-0.896,1.739-1.736c0.38-0.839,0.705-1.855,0.982-3.045c0.498-2,0.641-3.479,0.427-4.443
			c-0.216-0.961-0.643-1.618-1.287-1.968c-0.646-0.348-1.359-0.604-2.147-0.766c-1.527-0.438-2.641-0.361-3.341,0.232
			c-0.7,0.593-1.354,1.882-1.968,3.866L63.142,826.21L63.142,826.21z M75.597,810.912l2.543,0.384l1.673-3.518l-14.802-2.214
			l-2.489,5.243l11.086,10.025l1.705-3.586l-1.92-1.695L75.597,810.912z M72.751,810.405l-1.525,3.209l-4.857-4.234l0.023-0.034
			l6.366,1.059H72.751z M74.031,797.042l0.093-0.123l11.18,3.507l3.975-5.157l-11.343-8.739l-2.33,3.023l8.85,6.532l-0.093,0.121
			l-11.216-3.461l-3.939,5.114l11.341,8.738l2.332-3.025L74.031,797.042L74.031,797.042z M96.577,788.539l6.414-4.386
			c1.625-1.104,2.491-2.27,2.603-3.493c0.112-1.225-0.396-2.634-1.525-4.229l-1.691-2.473c-1.127-1.667-2.318-2.589-3.573-2.771
			c-1.256-0.18-2.695,0.3-4.323,1.438l-5.989,4.096L96.577,788.539L96.577,788.539z M93.52,777.307l2.759-1.886
			c0.534-0.393,1.018-0.552,1.445-0.478c0.432,0.075,0.898,0.486,1.407,1.234l1.691,2.473c0.438,0.625,0.654,1.198,0.652,1.721
			c0,0.522-0.291,0.984-0.864,1.384l-2.756,1.886L93.52,777.307L93.52,777.307z M106.731,765.732l-3.432,1.675l6.275,12.868
			l3.432-1.673L106.731,765.732z M115.665,765.505l6.18-2.043l-0.982-2.973l-9.807,3.241l4.494,13.595l9.934-3.282l-0.982-2.975
			l-6.309,2.086l-0.875-2.647l5.803-1.916l-0.834-2.52l-5.8,1.918L115.665,765.505L115.665,765.505z M139.481,761.932
			c-0.2-1.472-0.607-2.497-1.223-3.073c-0.614-0.573-1.402-0.87-2.362-0.891c-0.959-0.023-2.054,0.059-3.284,0.248
			c-1.397,0.156-2.582,0.43-3.554,0.815c-0.971,0.389-1.678,1.005-2.121,1.855c-0.441,0.848-0.563,2.045-0.373,3.59l0.473,3.673
			c0.195,1.516,0.593,2.627,1.195,3.338c0.603,0.709,1.42,1.132,2.452,1.266c1.034,0.137,2.296,0.098,3.782-0.111
			c1.677-0.195,2.954-0.498,3.834-0.902c0.877-0.405,1.439-1.042,1.684-1.907c0.246-0.864,0.259-2.084,0.041-3.661l-0.32-2.479
			l-6.457,0.83l0.339,2.631l2.613-0.336c0.144,0.959,0.059,1.627-0.248,2.004c-0.307,0.38-0.937,0.616-1.886,0.716
			c-0.973,0.166-1.711,0.109-2.215-0.17c-0.503-0.279-0.83-1.032-0.982-2.25l-0.295-2.309c-0.182-1.127-0.15-1.952,0.1-2.475
			c0.249-0.521,1.028-0.859,2.339-1.014c0.589-0.106,1.137-0.12,1.641-0.039c0.502,0.082,0.831,0.464,0.984,1.146L139.481,761.932
			L139.481,761.932z M149.147,772.267c1.961,0.199,3.569,0,4.825-0.621c1.252-0.614,1.975-1.991,2.165-4.129l0.298-4.037
			c0.123-2.146-0.391-3.614-1.541-4.405c-1.149-0.791-2.711-1.229-4.682-1.318c-1.961-0.2-3.568,0-4.822,0.621
			c-1.255,0.614-1.978,1.991-2.168,4.132l-0.295,4.034c-0.125,2.146,0.389,3.614,1.539,4.405
			C145.617,771.739,147.177,772.178,149.147,772.267z M149.393,768.953c-0.977-0.034-1.657-0.209-2.039-0.522
			c-0.379-0.312-0.539-0.984-0.475-2.016l0.235-3.218c0.089-1.021,0.344-1.657,0.765-1.909c0.422-0.25,1.119-0.323,2.091-0.216
			c0.981,0.036,1.668,0.211,2.059,0.522c0.391,0.311,0.544,0.978,0.455,1.998l-0.237,3.216c-0.062,1.032-0.311,1.676-0.742,1.928
			C151.07,768.987,150.368,769.059,149.393,768.953z M168.559,776.187l1.309-3.425l3.158,1.207c1.809,0.718,3.179,0.815,4.104,0.293
			c0.926-0.525,1.721-1.725,2.389-3.598c0.68-1.728,0.812-3.114,0.398-4.159c-0.414-1.045-1.443-1.875-3.092-2.489l-6.725-2.568
			l-5.107,13.375L168.559,776.187L168.559,776.187z M171.052,769.66l1.431-3.746l2.442,0.934c0.683,0.246,1.072,0.543,1.177,0.891
			c0.105,0.346,0.023,0.855-0.259,1.523c-0.298,0.841-0.593,1.34-0.886,1.495c-0.291,0.155-0.78,0.1-1.462-0.164L171.052,769.66
			L171.052,769.66z M186.495,782.433l-0.669,2.481l3.308,2.059l3.868-14.457l-4.928-3.066l-11.211,9.889l3.371,2.098l1.902-1.718
			L186.495,782.433z M187.32,779.662l-3.016-1.877l4.752-4.35l0.034,0.023l-1.771,6.207V779.662z M190.045,787.78l5.652,5.329
			c1.428,1.35,2.75,1.95,3.971,1.798c1.219-0.153,2.488-0.95,3.805-2.391l2.057-2.182c1.384-1.457,2.034-2.816,1.943-4.082
			c-0.091-1.264-0.866-2.568-2.327-3.916l-5.28-4.975L190.045,787.78L190.045,787.78z M200.365,782.398l2.432,2.291
			c0.498,0.441,0.757,0.877,0.775,1.313c0.023,0.434-0.281,0.979-0.904,1.634l-2.057,2.182c-0.517,0.559-1.033,0.894-1.544,1.002
			c-0.511,0.109-1.022-0.075-1.536-0.547l-2.43-2.291L200.365,782.398z M209.022,797.528l3.167-2.234l1.706,2.416
			c0.364,0.498,0.514,0.909,0.45,1.232c-0.066,0.32-0.359,0.659-0.879,1.011c-0.635,0.491-1.139,0.775-1.512,0.85
			c-0.373,0.073-0.782-0.211-1.228-0.859L209.022,797.528L209.022,797.528z M201.002,798.514l2.203,3.12l3.104-2.19l1.705,2.416
			c0.322,0.471,0.423,0.9,0.303,1.289c-0.12,0.391-0.409,0.731-0.866,1.025l-1.637,1.157l2.202,3.12l2.354-1.664
			c0.659-0.475,1.027-1.023,1.111-1.644c0.084-0.62-0.091-1.261-0.522-1.925l0.125-0.088c1.002,0.882,1.88,1.229,2.63,1.045
			c0.752-0.184,1.598-0.643,2.536-1.375c1.421-1.002,2.135-2.004,2.141-3.009c0-1.005-0.475-2.175-1.44-3.514l-4.25-6.021
			L201.002,798.514L201.002,798.514z M220.995,809.589l2.691,5.928l2.85-1.295l-4.271-9.405l-13.036,5.922l4.327,9.525l2.851-1.295
			l-2.748-6.048l2.539-1.154l2.524,5.563l2.416-1.097l-2.524-5.564L220.995,809.589L220.995,809.589z M224.279,825.655
			c-0.106-0.498-0.125-0.891-0.055-1.184c0.071-0.291,0.373-0.505,0.905-0.637c0.382-0.131,0.704-0.093,0.968,0.116
			c0.264,0.207,0.513,0.793,0.752,1.761c0.21,0.728,0.282,1.273,0.215,1.639c-0.07,0.364-0.448,0.625-1.133,0.789l0.876,3.559
			l0.574-0.141c1.253-0.323,2.094-0.807,2.521-1.452c0.43-0.648,0.603-1.411,0.521-2.289c-0.079-0.88-0.259-1.83-0.531-2.853
			c-0.28-1.223-0.606-2.25-0.986-3.086c-0.38-0.834-0.932-1.414-1.655-1.736c-0.725-0.325-1.74-0.328-3.049,0
			c-1.301,0.325-2.185,0.768-2.65,1.336c-0.464,0.566-0.675,1.272-0.632,2.121c0.045,0.845,0.18,1.85,0.409,3.009l0.146,0.83
			c0.177,0.85,0.231,1.411,0.159,1.687c-0.073,0.273-0.4,0.466-0.98,0.58c-0.562,0.15-0.961,0.07-1.202-0.241
			c-0.238-0.312-0.454-0.898-0.646-1.764c-0.243-0.884-0.312-1.523-0.2-1.911c0.11-0.389,0.517-0.659,1.219-0.815l-0.873-3.56
			c-1.493,0.375-2.507,0.886-3.047,1.534c-0.539,0.65-0.777,1.435-0.714,2.353c0.063,0.918,0.254,1.966,0.575,3.148
			c0.504,1.998,1.079,3.368,1.723,4.116c0.643,0.748,1.331,1.123,2.063,1.127c0.732,0,1.481-0.106,2.255-0.339
			c1.554-0.334,2.497-0.929,2.834-1.781c0.336-0.852,0.307-2.298-0.091-4.336l-0.27-1.566V825.655L224.279,825.655z"/>
		<path fill="#FFFFFF" d="M75.631,899.02l3.511,3.852c0.675,0.796,1.328,1.277,1.95,1.448s1.366-0.136,2.231-0.923
			c0.475-0.404,0.782-0.822,0.923-1.254c0.139-0.43,0-0.926-0.444-1.484l0.078-0.07c0.505,0.393,0.97,0.535,1.397,0.43
			c0.427-0.109,0.866-0.381,1.316-0.814c0.766-0.709,1.091-1.375,0.971-1.995c-0.119-0.62-0.519-1.284-1.203-1.991l-3.475-3.811
			L75.631,899.02L75.631,899.02z M83.065,895.787l1.482,1.625c0.232,0.269,0.334,0.484,0.309,0.648
			c-0.025,0.163-0.15,0.338-0.373,0.525c-0.277,0.266-0.516,0.381-0.718,0.35c-0.202-0.031-0.452-0.218-0.746-0.557l-1.27-1.395
			L83.065,895.787z M80.403,898.213l1.368,1.5c0.291,0.303,0.453,0.56,0.484,0.768c0.03,0.213-0.1,0.449-0.395,0.71
			c-0.287,0.267-0.548,0.374-0.78,0.327c-0.232-0.048-0.488-0.23-0.768-0.547l-1.332-1.463L80.403,898.213L80.403,898.213z
			 M90.581,911.051l-0.68,1.628l2.064,1.697l3.932-9.479l-3.073-2.527l-8.514,5.709l2.104,1.732l1.448-0.998L90.581,911.051z
			 M91.39,909.242l-1.88-1.547l3.623-2.528l0.022,0.022l-1.764,4.06L91.39,909.242z M101.699,913.578
			c-0.291-0.193-0.488-0.377-0.596-0.554c-0.104-0.179-0.059-0.427,0.139-0.745c0.125-0.248,0.303-0.385,0.53-0.41
			c0.229-0.022,0.634,0.146,1.214,0.505c0.452,0.257,0.748,0.489,0.889,0.7s0.084,0.523-0.175,0.93l2.134,1.328l0.214-0.346
			c0.461-0.76,0.641-1.4,0.541-1.921c-0.1-0.522-0.379-0.981-0.841-1.372c-0.461-0.395-1.005-0.773-1.629-1.145
			c-0.721-0.465-1.375-0.811-1.961-1.038c-0.586-0.228-1.137-0.247-1.646-0.06c-0.509,0.189-1.009,0.674-1.5,1.457
			c-0.481,0.782-0.703,1.423-0.659,1.926c0.045,0.499,0.28,0.947,0.707,1.34c0.428,0.394,0.975,0.82,1.644,1.282l0.468,0.337
			c0.495,0.329,0.793,0.582,0.886,0.75c0.097,0.168,0.03,0.42-0.202,0.755c-0.202,0.343-0.436,0.495-0.705,0.456
			c-0.266-0.035-0.655-0.223-1.162-0.555c-0.545-0.318-0.882-0.598-1.014-0.84c-0.134-0.244-0.064-0.573,0.207-0.984l-2.136-1.328
			c-0.55,0.898-0.805,1.637-0.757,2.215c0.045,0.574,0.305,1.074,0.775,1.492c0.473,0.421,1.068,0.844,1.791,1.271
			c1.205,0.736,2.146,1.134,2.818,1.192c0.675,0.058,1.191-0.089,1.553-0.438c0.361-0.348,0.677-0.764,0.943-1.246
			c0.602-0.908,0.779-1.654,0.536-2.231c-0.243-0.581-0.952-1.274-2.125-2.084L101.699,913.578L101.699,913.578z M112.575,917.636
			l4.082,1.81l0.87-1.961l-6.473-2.874l-3.984,8.976l6.559,2.908l0.871-1.964l-4.164-1.845l0.775-1.748l3.83,1.697l0.736-1.664
			l-3.829-1.697L112.575,917.636L112.575,917.636z M118.768,928.377l5.027,1.375c0.998,0.311,1.804,0.369,2.421,0.18
			c0.618-0.191,1.082-0.848,1.393-1.973c0.184-0.599,0.221-1.116,0.107-1.555c-0.112-0.438-0.5-0.777-1.168-1.016l0.027-0.102
			c0.638,0.062,1.109-0.066,1.411-0.385c0.302-0.32,0.527-0.784,0.675-1.393c0.269-1.01,0.188-1.744-0.245-2.205
			c-0.435-0.461-1.128-0.808-2.084-1.039l-4.975-1.359L118.768,928.377L118.768,928.377z M123.318,921.668l2.12,0.58
			c0.339,0.104,0.543,0.229,0.607,0.381c0.066,0.152,0.056,0.368-0.032,0.644c-0.091,0.372-0.231,0.599-0.42,0.679
			c-0.189,0.082-0.498,0.06-0.928-0.07l-1.818-0.495L123.318,921.668z M122.367,925.141l1.957,0.535
			c0.409,0.099,0.682,0.229,0.82,0.39c0.141,0.161,0.154,0.433,0.045,0.812c-0.1,0.377-0.261,0.609-0.482,0.692
			c-0.223,0.085-0.536,0.068-0.94-0.052l-1.907-0.521L122.367,925.141L122.367,925.141z M137.812,930.438l0.332,1.732l2.657,0.279
			l-1.941-10.078l-3.957-0.416l-3.957,9.457l2.707,0.285l0.657-1.629L137.812,930.438z M137.493,928.48l-2.42-0.254l1.629-4.106
			h0.027l0.766,4.358L137.493,928.48z M147.379,922.511l-2.615,0.122l0.465,9.809l6.707-0.318l-0.106-2.275l-4.093,0.193
			L147.379,922.511L147.379,922.511z M157.367,921.371l-2.57,0.503l1.881,9.637l6.592-1.285l-0.436-2.235l-4.023,0.784
			L157.367,921.371L157.367,921.371z M179.377,920.254l0.125,0.259c0.24,0.5,0.273,0.873,0.094,1.116
			c-0.178,0.245-0.516,0.475-1.014,0.691c-0.678,0.331-1.169,0.395-1.471,0.188c-0.303-0.207-0.596-0.643-0.882-1.312l-0.661-1.381
			c-0.322-0.611-0.453-1.086-0.396-1.424s0.413-0.657,1.065-0.96c0.4-0.21,0.752-0.322,1.053-0.346
			c0.303-0.022,0.568,0.146,0.795,0.507l0.166,0.341l2.432-1.166l-0.166-0.341c-0.432-0.865-0.879-1.443-1.343-1.734
			c-0.464-0.29-0.986-0.37-1.575-0.238c-0.586,0.132-1.281,0.398-2.084,0.801c-0.875,0.402-1.586,0.832-2.129,1.288
			c-0.547,0.458-0.869,1.005-0.969,1.647c-0.1,0.644,0.078,1.449,0.537,2.414l1.098,2.289c0.514,1.057,1.062,1.738,1.649,2.045
			s1.218,0.371,1.901,0.191c0.681-0.18,1.422-0.473,2.223-0.879c0.521-0.234,1.006-0.498,1.451-0.791s0.793-0.695,1.045-1.205
			c0.223-0.523,0.277-1.018,0.16-1.486c-0.116-0.469-0.299-0.941-0.548-1.418l-0.125-0.26L179.377,920.254L179.377,920.254z
			 M184.516,910.242l-2.186,1.443l5.408,8.193l5.604-3.7l-1.254-1.899l-3.42,2.256L184.516,910.242L184.516,910.242z
			 M195.216,902.033l4.173,4.82c0.369,0.416,0.516,0.752,0.439,1.012c-0.076,0.258-0.328,0.561-0.756,0.904
			c-0.402,0.379-0.756,0.619-1.061,0.725c-0.303,0.104-0.633-0.043-0.982-0.445l-4.247-4.908l-1.979,1.713l4.281,4.947
			c0.498,0.605,0.98,1.034,1.445,1.285c0.467,0.25,1.012,0.259,1.637,0.024c0.623-0.231,1.423-0.772,2.397-1.618
			c1.099-0.918,1.737-1.777,1.917-2.575c0.182-0.8-0.152-1.682-1-2.647l-4.284-4.95L195.216,902.033L195.216,902.033z
			 M207.475,903.915l3.394-3.954c0.707-0.77,1.106-1.474,1.198-2.111c0.093-0.639-0.303-1.342-1.188-2.104
			c-0.461-0.422-0.913-0.674-1.358-0.76c-0.443-0.087-0.918,0.119-1.418,0.619l-0.08-0.068c0.328-0.549,0.414-1.029,0.255-1.439
			s-0.481-0.812-0.968-1.207c-0.798-0.674-1.496-0.914-2.098-0.721c-0.603,0.193-1.212,0.676-1.829,1.439l-3.36,3.913
			L207.475,903.915L207.475,903.915z M203.356,896.934l1.433-1.669c0.238-0.264,0.441-0.394,0.605-0.386
			c0.165,0,0.354,0.107,0.566,0.307c0.298,0.24,0.443,0.463,0.435,0.668c0,0.207-0.159,0.475-0.459,0.809l-1.228,1.432
			L203.356,896.934L203.356,896.934z M206.091,899.278l1.32-1.54c0.264-0.326,0.497-0.52,0.704-0.576
			c0.205-0.057,0.454,0.046,0.75,0.307c0.301,0.252,0.439,0.496,0.421,0.734c-0.023,0.236-0.168,0.512-0.45,0.828l-1.286,1.5
			l-1.462-1.253H206.091L206.091,899.278z"/>
		<path fill="#FFFFFF" stroke="#FFFFFF" stroke-width="0.0667" d="M175.365,820.064c-2.893-2.593-7.963-5.971-15.272-5.971
			c-3.825,0-36.618,0.023-36.618,0.023v0.655c0,0,0.843,0.03,1.134,0.023c1.268,0.022,2.045,0.491,2.752,1.245
			c0.707,0.753,1.121,0.996,1.121,2.966c0,4.094,0,13.254,0,13.254h-10.252c-0.711,0-1.236-0.32-1.614-0.75
			c-0.375-0.43-0.511-0.855-0.511-1.473v-18.55c0-2.006,0.664-3.377,1.691-4.729c1.024-1.35,3.236-2.58,5.486-2.58h24.61
			c0.643,0,1.191,0.17,1.65,0.639c0.461,0.466,0.656,0.914,0.656,1.43s-0.107,1.173-0.941,1.8c-0.945,0.639-2.076,0.621-2.076,0.621
			v0.693h14.076v-5.104c0-2.839-0.913-5.357-3.152-7.384c-2.236-2.027-4.459-3.027-9.85-3.027h-24.28l-0.009-0.002
			c-5.532,0-10.396,2.557-13.418,5.907c-3.022,3.35-4.777,7.934-4.777,12.484v18.123c0,3.507,1.632,6.734,3.768,8.718
			c2.139,1.984,4.75,3.5,8.916,3.502c10.021,0,29.405,0,30.371,0c0.596,0,1.182,0.298,1.548,0.713
			c0.366,0.417,0.544,0.912,0.544,1.357v16.87c0,1.81-0.756,3.591-1.794,4.78c-1.038,1.19-2.894,2.588-5.707,2.588h-4.602V846.46
			h-10.341v22.425H118.22c-0.657,0-1.143-0.256-1.532-0.646c-0.389-0.388-0.593-0.947-0.593-1.479c0-0.688,0.039-9.843,0.039-9.843
			s0-1.062,0.28-1.641c0.231-0.479,0.47-0.976,0.834-1.363c0.446-0.476,0.989-0.885,1.591-1.128c0.713-0.288,2.286-0.35,2.286-0.35
			v-0.689h-15.353v15.014c0,2.869,1.036,6.23,3.577,8.777c2.541,2.548,5.556,3.698,8.873,3.698h10.252v13.614
			c0,1.006-0.405,2.079-1.318,2.971c-0.913,0.893-2.053,1.233-2.566,1.362c-0.511,0.13-0.616,0.15-1.532,0.271v0.586l36.868-0.022
			c6.051,0,12.316-2.583,16.426-6.954c3.185-3.389,6.336-8.291,6.336-15.736c0-4.014-0.163-30.732,0-38.985
			C182.836,828.835,178.262,822.655,175.365,820.064z M172.343,876.842c0,2.882-1.209,5.732-3.171,7.662
			c-1.961,1.928-4.942,3.168-7.713,3.168h-22.646v-8.439h5.977c3.604,0,7.854-1.065,11.569-4.641
			c3.715-3.577,4.889-8.329,4.889-11.721v-17.845c0-3.655-1.215-6.766-3.612-9.139s-5.563-3.632-8.884-3.632h-9.939v-7.775h22.435
			c3.35,0,6.031,1.189,7.992,3.289c1.965,2.102,3.103,4.854,3.103,7.221V876.842L172.343,876.842z"/>
	</g>
</g>
<g id="svg12082">
</g>
<g id="svg31568">
</g>
<g id="CLEVELAND_INDIANS">
</g>
<g id="svg2562">
</g>
</svg>
