<?xml version="1.0" encoding="utf-8"?>
<!-- Generator: Adobe Illustrator 14.0.0, SVG Export Plug-In . SVG Version: 6.00 Build 43363)  -->
<!DOCTYPE svg PUBLIC "-//W3C//DTD SVG 1.1//EN" "http://www.w3.org/Graphics/SVG/1.1/DTD/svg11.dtd">
<svg version="1.1" xmlns="http://www.w3.org/2000/svg" xmlns:xlink="http://www.w3.org/1999/xlink" x="0px" y="0px" width="200px"
	 height="200px" viewBox="44 746 200 200" enable-background="new 44 746 200 200" xml:space="preserve">
<g id="Layer_1">
	<g>
		<path fill="#FFFFFF" stroke="#FFFFFF" stroke-width="0.5877" d="M7218.837,7645.277c-2.438,4.812-9.872,18.5-9.485,20.523
			c0.48,2.512,2.055,4.428,1.979,6.965c-0.05,1.572-1.985,5.439-3.489,6.526c-1.259,0.907-5.062,8.043-20.085,0.963l-2.007-1.058
			c-14.529-8.039-10.977-15.297-10.977-16.85c0-1.854,1.998-5.688,3.246-6.646c2.012-1.546,4.485-1.396,6.805-2.473
			c1.867-0.875,7.51-12.213,9.984-17.006l0.039-0.107c-49.488-24.303-83.552-75.2-83.552-134.059
			c0-82.435,66.83-149.265,149.265-149.265c82.436,0,149.266,66.83,149.266,149.265c0,82.436-66.83,149.266-149.266,149.266
			c-14.543,0-28.597-2.079-41.889-5.959L7218.837,7645.277z"/>
		<path fill="#FC1921" d="M7310.404,7445.783c2.517,1.566,5.261,3.033,7.347,4.908l23.97-30.517
			c4.913,4.281,8.823,8.417,12.65,14.433l-27.979,24.561c2.26,2.576,5.166,7.668,6.987,11.215l28.75-19.906
			c0.55,1.073,2.117,7.637,1.867,9.559l-28.22,18.234c0.455,2.035,0.771,2.481,1.106,5.184c0,0,32.472-18.421,32.487-18.653
			c-3.542-34.866-33.861-63.302-69.663-63.302c-14.872,0-28.646,4.697-39.925,12.686c-0.19,0.135,1.869,32.676,1.869,32.676
			c2.289-1.432,5.125-2.766,6.269-3.146l-0.571-29.678c2.77-2.195,6.537-4.008,9.448-5.061l-0.67,32.158
			c4.008-0.951,11.163-1.527,13.456-1.047l5.82-35.023c7.063-0.668,14.121,0.099,20.326,2.104l-13.551,35.209
			c2.684,0.821,5.577,2.053,8.221,3.407"/>
		<path fill="none" stroke="#FFFFFF" stroke-width="2.2041" d="M7286.66,7541.208c28.023,0,50.738-22.722,50.738-50.739
			c0-28.025-22.715-50.742-50.738-50.742s-50.743,22.717-50.743,50.742C7235.917,7518.486,7258.637,7541.208,7286.66,7541.208z"/>
		<path fill="#FC1921" d="M7244.924,7555.453c-1.412,2.329-12.27,8.79-14.615,5.148c-3.91-6.071,8.041-15.715,5.781-18.412
			c-1.359-1.615-6.973,2.603-11.557,7.881c0,0-2.547,4.88-6.016,11.029l-8.156,0.071c-0.5-0.377,10.377-16.298,8.266-18.151
			c-3-2.621-20.595,25.819-28.863,19.78c-0.695-0.512-2.562-2.624-0.076-7.938c-3.701,4.886-12.697,8.841-16.484,5.559
			c-8.127-7.044,13.936-30.667,22.833-22.48c0.696,0.638,0.948,1.26,0.896,1.754l1.196-1.885l8.045-0.072
			c-3.655,9.843-11.235,18.748-9.291,20.147c3.384,2.435,22.839-27.389,29.462-20.891c2.057,2.021,1.915,4.664,1.379,6.104
			c4.691-4.893,14.598-9.605,17.799-6.281c3.896,4.037-7.959,15.966-5.349,17.631c1.481,0.947,6.042-2.536,6.042-2.536
			 M7179.284,7555.41c4.358,4.835,17.543-10.475,14.856-14.801C7190.572,7536.122,7175.384,7551.083,7179.284,7555.41z"/>
		<path fill="#FC1921" d="M7267.668,7546.346c7.393,0.592,15.95-3.896,14.373-7.41c-0.93-2.072-6.518-1.259-9.811,0.094
			L7267.668,7546.346z M7291.758,7552.52c-8.088,7.346-16.791,10.088-19.658,7.897c-4.781-3.653-0.424-8.401-2.852-10.448
			c-0.664-0.554-1.775-0.699-3.591-0.57l9.399-14.584c5.045-2.584,13.289-3.978,14.672,0.744
			c1.932,6.596-7.273,12.303-13.658,13.357c4.859,0.891,0.054,6.299,5.027,6.949c2.213,0.293,8.666-4.321,12.039-8.986"/>
		<path fill="#FC1921" d="M7325.467,7549.889c-12.592,9.047-29.176,11.872-32.701,4.161c-5.813-12.713,26.438-28.647,30.25-18.911
			c2.709,6.916-10.131,13.102-20.711,13.198c-0.445,0.004-0.293-0.108-0.332,0.004c-0.924,2.681,0.383,5.616,5.344,5.574
			s12.326-2.099,19.324-8.338 M7302.721,7545.797c6.387-0.83,12.789-6.154,11.719-8.593
			C7312.932,7533.786,7304.098,7539.941,7302.721,7545.797z"/>
		<path fill="#FC1921" d="M7370.137,7539.989c-4.15,4.228-10.093,7.239-10.843,7.819c-11.747,9.047-29.151,12.367-33.028,4.828
			c-6.586-12.818,26.274-27.527,28.82-18.568c1.854,6.525-9.589,12.104-19.283,12.853c-0.441,0.039-0.293-0.108-0.328,0.007
			c-0.927,2.678,0.381,5.621,5.342,5.571c4.959-0.046,10.332-2.386,17.684-6.888c1.643-1.01,8.555-4.824,11.93-9.479
			 M7336.107,7544.166c7.273-0.286,13.812-6.092,11.936-8.708C7345.707,7532.189,7336.617,7539.643,7336.107,7544.166z"/>
		<path fill="#FC1921" d="M7364.875,7543.566c0.549,5.674-5.07,5.832-5.352,5.562c-0.866,0.95-0.199,5.04,4.131,5.253
			c7.199,0.362,7.092-9.106,6.14-12.625c-0.649-2.407-0.175-5.043,0.206-7.358c0.953-5.797,8.464-11.84,11.125-9.947
			c1.818,1.301,0.818,5.617-4.098,9.855c-0.922,0.894-1.522,1.041-0.188,3.783c1.446,2.977,3.925,10.139-0.116,15.605
			c-3.156,4.271-8.562,4.849-13.052,4.087c-2.872-0.489-6.085-2.396-7.411-4.548
			C7350.501,7543.921,7362.396,7537.529,7364.875,7543.566z"/>
		<path fill="#0C2D82" d="M7287.803,7515.884c1.081-1.507,2.096-2.905,3.092-4.229c0.239-0.319,0.877-1.403,1.195-2.216
			c1.734-4.449-2.631-11.25-8.762-14.142c-6.094-2.873-12.63-2.272-14.586,0.634c-0.489,0.723-1.081,1.648-1.196,2.026
			c-0.68,2.228-1.444,4.422-2.272,6.812c-9.666-6.455-15.342-13.385-12.715-18.396c4.873-9.294,20.09-7.728,35.982,0.079
			c15.895,7.803,26.643,19.652,22.15,28.181C7308.029,7519.695,7298.917,7519.592,7287.803,7515.884z"/>
		<path fill="#0C2D82" d="M7306.857,7534.792c-0.812,0.296-2.83,1.376-4.391,2.363c-3.15-3.582-14.222-11.253-20.144-13.31
			c-0.091-0.029,1.501-2.115,1.501-2.115c6.105,2.479,20.646,10.916,22.936,13.016"/>
		<g>
			<path fill="#0C2D82" d="M7335.686,7535.971c1.316-0.936,4.9-2.396,5.002-2.531c0.119-0.49,0.188-1.463,0.188-1.463
				c3.817-17.939-3.962-32.539-10.065-38.266c-5.959-5.589-3.125-1.413-1.146,1.146c1.406,1.815,2.08,2.881,2.671,4.004
				c3.104,5.891,1.633,5.16-2.479,0.955c-8.111-8.287-22.234-18.797-35.211-25.284c-17.717-8.86-39.412-13.075-51.433-12.694
				c4.961-2.29,7.685-2.536,12.783-3.052c4.521-0.457,2.75-1.354,0-1.146c-9.658,0.738-31.181,1.076-34.54,17.939
				c-2.855,14.318,8.777,26.527,20.036,30.916c9.786,3.814,20.138,8.361,20.138,8.361l1.049-3.207
				c-5.727-3.056-15.707-6.34-20.992-8.396c-6.873-2.671-19.172-12.136-17.561-25.003c2.674-21.354,42.809-14.324,69.469-0.953
				c11.551,5.795,27.014,17.03,34.612,24.363c8.709,8.403,10.235,11.219,10.808,20.108
				C7339.039,7527.203,7337.527,7532.095,7335.686,7535.971"/>
			<text transform="matrix(1 0 0 1 -6505.8574 -5942.416)" fill="#0C2D82" font-family="'Helvetica'" font-size="9"> </text>
		</g>
		<path fill="none" stroke="#FC1921" stroke-width="1.0213" stroke-linecap="round" stroke-linejoin="round" d="M7339.202,7414.514
			c2.675-3.439,9.508-12.236,12.024-14.128"/>
		<polyline fill="none" stroke="#FC1921" stroke-width="1.0213" stroke-linecap="round" stroke-linejoin="round" points="
			7339.968,7398.859 7345.312,7406.493 7355.234,7409.93 		"/>
		<polyline fill="none" stroke="#FC1921" stroke-width="1.0213" stroke-linecap="round" stroke-linejoin="round" points="
			7334.242,7404.202 7341.496,7411.457 7349.512,7415.271 		"/>
		<path fill="#FC1921" d="M7403.1,7501.54c0-78.821-63.896-142.722-142.715-142.722c-70.221,0-128.598,50.721-140.5,117.521
			l13.848-14.667c17.164-53.467,67.293-92.163,126.461-92.163c73.336,0,132.791,59.451,132.791,132.79l0.08,0.105
			c-0.863,24.806-5.724,35.441-14.613,41.854l-0.791,6.518c3.902-3.002,15.723-15.502,23.051-30.602
			c1.991-4.109,2.543-14.719,2.479-18.398L7403.1,7501.54z"/>
		<path fill="#FC1921" d="M7385.871,7546.229c-18.028,51.947-67.404,87.315-125.486,87.819
			c-69.363,0.601-132.197-57.979-132.197-131.319l0,0c-1.035-14.821,3.248-24.315,6.748-30.752
			c3.597-6.623,11.256-15.36,18.045-14.031c10.521,2.066,3.754,15.803-5.182,31.381c-8.732,15.229-19.314,31.223-10.799,40.427
			c6.893,7.451,21.002,5.756,29.632-2.81l-26.623,49.98l11.817,0.088l51.41-97.046l-11.906,0.33l-21.021,39.114
			c-6.773,6.347-17.779,12.174-24.07,7.826c-12.484-8.621,36.408-55.317,18.416-70.502c-14.369-12.125-29.979,5.979-34.928,14.564
			c-4.053,7.035-11.701,17.858-11.879,31.191l0.01-0.574c0,78.816,63.899,142.714,142.718,142.714
			c67.2,0,123.556-46.448,138.706-108.991c0.574-2.295,1.187-5.099,1.187-5.099
			C7396.459,7536.845,7385.871,7546.229,7385.871,7546.229z"/>
		
			<line fill="none" stroke="#FC1921" stroke-width="1.0213" stroke-linecap="round" stroke-linejoin="round" x1="7184.234" y1="7428.633" x2="7196.258" y2="7426.914"/>
		<path fill="none" stroke="#FC1921" stroke-width="1.0213" stroke-linecap="round" stroke-linejoin="round" d="M7163.626,7407.656
			c28.673,22.9,47.043,58.158,47.043,97.707c0,10.699-1.219,19.828-3.715,29.771"/>
		<path fill="none" stroke="#FC1921" stroke-width="1.0213" stroke-linecap="round" stroke-linejoin="round" d="M7195.812,7564.906
			c-6.367,11.812-14.619,22.438-24.426,31.432c-4.58,4.197-3.174,1.78-3.174,1.78"/>
		<polyline fill="none" stroke="#FC1921" stroke-width="1.0213" stroke-linecap="round" stroke-linejoin="round" points="
			7177.375,7406.884 7167.066,7410.701 7163.633,7421.197 		"/>
		
			<line fill="none" stroke="#FC1921" stroke-width="1.0213" stroke-linecap="round" stroke-linejoin="round" x1="7173.173" y1="7415.666" x2="7182.336" y2="7412.229"/>
		
			<line fill="none" stroke="#FC1921" stroke-width="1.0213" stroke-linecap="round" stroke-linejoin="round" x1="7176.229" y1="7419.1" x2="7185.771" y2="7416.043"/>
		
			<line fill="none" stroke="#FC1921" stroke-width="1.0213" stroke-linecap="round" stroke-linejoin="round" x1="7180.046" y1="7423.684" x2="7192.26" y2="7421.771"/>
		
			<line fill="none" stroke="#FC1921" stroke-width="1.0213" stroke-linecap="round" stroke-linejoin="round" x1="7190.732" y1="7436.848" x2="7203.902" y2="7435.702"/>
		<polyline fill="none" stroke="#FC1921" stroke-width="1.0213" stroke-linecap="round" stroke-linejoin="round" points="
			7187.486,7454.021 7195.505,7445.627 7208.863,7445.245 		"/>
		<polyline fill="none" stroke="#FC1921" stroke-width="1.0213" stroke-linecap="round" stroke-linejoin="round" points="
			7191.113,7462.232 7199.514,7454.021 7212.3,7454.789 		"/>
		
			<line fill="none" stroke="#FC1921" stroke-width="1.0213" stroke-linecap="round" stroke-linejoin="round" x1="7168.021" y1="7425.586" x2="7172.221" y2="7415.666"/>
		
			<line fill="none" stroke="#FC1921" stroke-width="1.0213" stroke-linecap="round" stroke-linejoin="round" x1="7172.982" y1="7430.551" x2="7177.182" y2="7420.246"/>
		
			<line fill="none" stroke="#FC1921" stroke-width="1.0213" stroke-linecap="round" stroke-linejoin="round" x1="7175.658" y1="7434.749" x2="7181.002" y2="7424.635"/>
		
			<line fill="none" stroke="#FC1921" stroke-width="1.0213" stroke-linecap="round" stroke-linejoin="round" x1="7179.279" y1="7439.52" x2="7185.389" y2="7430.359"/>
		
			<line fill="none" stroke="#FC1921" stroke-width="1.0213" stroke-linecap="round" stroke-linejoin="round" x1="7182.908" y1="7445.055" x2="7189.779" y2="7437.609"/>
		<polyline fill="none" stroke="#FC1921" stroke-width="1.0213" stroke-linecap="round" stroke-linejoin="round" points="
			7194.74,7473.109 7203.52,7464.331 7217.26,7465.475 		"/>
		
			<line fill="none" stroke="#FC1921" stroke-width="1.0213" stroke-linecap="round" stroke-linejoin="round" x1="7206.955" y1="7474.827" x2="7219.359" y2="7478.07"/>
		
			<line fill="none" stroke="#FC1921" stroke-width="1.0213" stroke-linecap="round" stroke-linejoin="round" x1="7206.764" y1="7474.445" x2="7203.137" y2="7478.07"/>
		
			<line fill="none" stroke="#FC1921" stroke-width="1.0213" stroke-linecap="round" stroke-linejoin="round" x1="7209.436" y1="7486.852" x2="7220.889" y2="7490.855"/>
		
			<line fill="none" stroke="#FC1921" stroke-width="1.0213" stroke-linecap="round" stroke-linejoin="round" x1="7200.273" y1="7494.863" x2="7209.244" y2="7485.896"/>
		<polyline fill="none" stroke="#FC1921" stroke-width="1.0213" stroke-linecap="round" stroke-linejoin="round" points="
			7222.986,7506.129 7210.391,7500.784 7200.273,7508.797 		"/>
		<polyline fill="none" stroke="#FC1921" stroke-width="1.0213" stroke-linecap="round" stroke-linejoin="round" points="
			7200.466,7520.63 7210.201,7514.143 7222.029,7518.915 		"/>
		<polyline fill="none" stroke="#FC1921" stroke-width="1.0213" stroke-linecap="round" stroke-linejoin="round" points="
			7197.605,7531.51 7208.863,7526.928 7220.697,7531.889 		"/>
		
			<line fill="none" stroke="#FC1921" stroke-width="1.0213" stroke-linecap="round" stroke-linejoin="round" x1="7206.955" y1="7535.134" x2="7212.872" y2="7540.102"/>
		
			<line fill="none" stroke="#FC1921" stroke-width="1.0213" stroke-linecap="round" stroke-linejoin="round" x1="7204.091" y1="7546.587" x2="7206.193" y2="7548.305"/>
		
			<line fill="none" stroke="#FC1921" stroke-width="1.0213" stroke-linecap="round" stroke-linejoin="round" x1="7211.035" y1="7551.738" x2="7212.938" y2="7552.952"/>
		
			<line fill="none" stroke="#FC1921" stroke-width="1.0213" stroke-linecap="round" stroke-linejoin="round" x1="7204.475" y1="7559.182" x2="7208.482" y2="7562.809"/>
		
			<line fill="none" stroke="#FC1921" stroke-width="1.0213" stroke-linecap="round" stroke-linejoin="round" x1="7195.314" y1="7565.673" x2="7202.564" y2="7572.35"/>
		
			<line fill="none" stroke="#FC1921" stroke-width="1.0213" stroke-linecap="round" stroke-linejoin="round" x1="7194.359" y1="7566.625" x2="7186.154" y2="7565.859"/>
		<polyline fill="none" stroke="#FC1921" stroke-width="1.0213" stroke-linecap="round" stroke-linejoin="round" points="
			7197.221,7581.324 7190.732,7573.111 7181.002,7571.971 		"/>
		<polyline fill="none" stroke="#FC1921" stroke-width="1.0213" stroke-linecap="round" stroke-linejoin="round" points="
			7175.837,7578.448 7185,7579.4 7191.107,7587.993 		"/>
		<polyline fill="none" stroke="#FC1921" stroke-width="1.0213" stroke-linecap="round" stroke-linejoin="round" points="
			7170.493,7583.793 7179.273,7586.464 7185.764,7593.334 		"/>
		<polyline fill="none" stroke="#FC1921" stroke-width="1.0213" stroke-linecap="round" stroke-linejoin="round" points="
			7167.25,7588.755 7175.076,7591.044 7180.802,7597.533 		"/>
		<polyline fill="none" stroke="#FC1921" stroke-width="1.0213" stroke-linecap="round" stroke-linejoin="round" points="
			7173.928,7601.924 7170.111,7595.816 7165.15,7593.909 		"/>
		<path fill="none" stroke="#FC1921" stroke-width="1.0213" stroke-linecap="round" stroke-linejoin="round" d="M7327.373,7556.501
			c4.197,7.635,22.521,30.151,32.439,35.118"/>
		
			<line fill="none" stroke="#FC1921" stroke-width="1.0213" stroke-linecap="round" stroke-linejoin="round" x1="7320.5" y1="7555.738" x2="7324.316" y2="7555.357"/>
		<polyline fill="none" stroke="#FC1921" stroke-width="1.0213" stroke-linecap="round" stroke-linejoin="round" points="
			7333.096,7558.409 7330.044,7561.461 7321.646,7562.991 		"/>
		
			<line fill="none" stroke="#FC1921" stroke-width="1.0213" stroke-linecap="round" stroke-linejoin="round" x1="7325.083" y1="7569.857" x2="7336.532" y2="7569.477"/>
		<polyline fill="none" stroke="#FC1921" stroke-width="1.0213" stroke-linecap="round" stroke-linejoin="round" points="
			7346.457,7567.952 7340.35,7575.203 7331.189,7577.881 		"/>
		<polyline fill="none" stroke="#FC1921" stroke-width="1.0213" stroke-linecap="round" stroke-linejoin="round" points="
			7351.036,7572.913 7345.503,7579.785 7335.389,7584.364 		"/>
		
			<line fill="none" stroke="#FC1921" stroke-width="1.0213" stroke-linecap="round" stroke-linejoin="round" x1="7339.968" y1="7588.943" x2="7348.365" y2="7583.982"/>
		<polyline fill="none" stroke="#FC1921" stroke-width="1.0213" stroke-linecap="round" stroke-linejoin="round" points="
			7358.29,7580.934 7352.943,7587.418 7344.93,7592.764 		"/>
		
			<line fill="none" stroke="#FC1921" stroke-width="1.0213" stroke-linecap="round" stroke-linejoin="round" x1="7356" y1="7575.969" x2="7349.893" y2="7584.364"/>
		
			<line fill="none" stroke="#FC1921" stroke-width="1.0213" stroke-linecap="round" stroke-linejoin="round" x1="7341.496" y1="7561.846" x2="7335.77" y2="7568.336"/>
		<polyline fill="none" stroke="#FC1921" stroke-width="1.0213" stroke-linecap="round" stroke-linejoin="round" points="
			7361.723,7585.13 7359.051,7590.477 7351.801,7595.434 		"/>
		<path fill="#FC1921" d="M7238.566,7594.023c-7.988,13.949-28.168,51.955-34.953,67.64c-1.773,4.096-2.191,5.948-0.432,8.015
			c0.338,0.4,0.885,1.397,0.977,1.758c0.367,1.403-1.232,3.228-2.073,3.778c-1.745,1.136-5.502,1.425-12.251-1.665
			c-6.747-3.09-8.441-6.847-8.544-8.931c-0.049-1.004,0.483-3.366,1.836-3.899c0.345-0.134,1.472-0.279,1.994-0.238
			c2.704,0.211,4.183-1.545,6.456-5.388c9.304-15.729,29.176-52.354,36.117-66.473c4.066-8.279,26.606-52.015,37.574-83.677
			c0.823-2.385,1.586-4.697,2.267-6.93c0.114-0.378,0.706-1.304,1.194-2.025c1.955-2.905,8.494-3.506,14.59-0.635
			c6.125,2.888,10.492,9.691,8.755,14.137c-0.315,0.814-0.952,1.9-1.192,2.221c-0.999,1.32-2.043,2.746-3.124,4.248
			C7271.837,7538.098,7247.645,7578.176,7238.566,7594.023z M7187.881,7661.745c0.115,0.323,0.533,0.743,1.66,0.479
			c0.453-0.113,0.809-0.533,1.376-1.162c0.949-1.057,2.103-2.676,2.431-4.336c0.213-0.715-0.223-0.377-0.384-0.045
			c-0.165,0.33-3.173,4.147-4.757,4.56C7187.988,7661.301,7187.877,7661.188,7187.881,7661.745z M7213.828,7624.46
			c-2.057,4.104-14.537,28.124-20.148,35.379c-0.152,0.193-0.296,0.375-0.441,0.545c-0.146,0.208-0.524,0.392-0.67,0.546
			c-0.176,0.188-0.114,0.336-0.227,0.438c-0.095,0.111,0.053,0.214-0.02,0.318c-0.086,0.133-0.389,0.26-0.496,0.385
			c-0.253,0.271-0.164,0.516-0.375,0.716c-0.371,0.364-0.965,0.585-0.965,0.585c-0.658,0.119-0.432,1,0.121,1.213
			c0.306,0.118,0.611,0.314,0.92,0.496c0.246,0.146,0.496,0.245,0.746,0.591c0.197,0.272-0.129,0.675-0.147,1.05
			c-0.021,0.291,0.099,0.573-0.114,0.783c-0.297,0.287-0.943,0.438-1.482,0.28c-0.641-0.191-1.469-0.688-2.23-1.054
			c-0.947-0.455-1.787-0.76-2.031-0.729c-0.22,0.03-0.713,0.155-0.863,0.383c-0.105,0.15-0.151,0.352,0.132,0.592
			c0.128,0.104,0.522,0.334,0.746,0.459c0.348,0.197,0.653,0.521,1.094,0.742c0.174,0.086,0.332-0.06,0.49,0.01
			c0.213,0.094,0.427,0.41,0.67,0.533c0.289,0.146,0.681,0.389,0.95,0.51c0.18,0.078,0.354,0.416,0.521,0.527
			c0.102,0.065,0.197-0.088,0.292-0.043c0.322,0.16,0.599,0.215,0.806,0.374c0.354,0.289,0.778,0.587,1.187,0.74
			c0.667,0.249,1.301-0.004,1.563-1.206c0.424-1.932,0.953-4.143,1.379-5.631c0.089-0.319,0.32-0.982,0.642-1.887
			c0.062-0.17-0.092-0.352-0.022-0.537c1.281-3.536,3.912-9.788,5.576-13.4c2.213-4.816,12.295-23.045,12.403-23.378
			C7213.939,7624.457,7214.695,7622.96,7213.828,7624.46z M7228.309,7596.211c1.68-3.238,51.808-88.62,56.344-96.432
			c0,0,1.332,0.759,1.121,1.861c-4.566,6.877-33.221,54.988-35.605,59.644c-2.381,4.651-19.631,34.137-30.463,55.185
			c0,0,43.841-74.712,45.579-77.816c1.708-3.059,20.681-33.698,21.827-35.448c0,0,1.195-1.972,1.14-1.86
			c-2.985-4.087-8.548-6.367-13.616-6.212c-0.421,1.987-18.693,46.695-24.324,57.55
			C7244.948,7563.016,7230.477,7592.227,7228.309,7596.211L7228.309,7596.211z M7209.675,7640.372
			c3.013-5.646,42.914-77.853,68.482-116.757c0.704-1.07,11.893-17.723,11.948-18.485c0.062-0.86-0.571-1.868-0.904-2.144
			c-0.559,0.895-6.811,10.99-12.253,19.447c-23.433,38.008-64.513,110.735-66.902,116.336c-0.088,0.215-0.606,1.66-0.696,1.856
			c-0.127,0.274,0.063,0.088-0.146,0.368c-0.564,0.742-1.068,2.068-1.564,2.852c-0.125,0.196-0.259,0.383-0.387,0.58
			c-0.05,0.088,0.014,0.227-0.029,0.317c-0.119,0.268-0.299,0.51-0.404,0.788c-0.041,0.096,0.021,0.232-0.027,0.312
			c-0.334,0.546-0.43,1.091-0.831,1.58c-0.056,0.065,0.015,0.218-0.033,0.308c-0.03,0.059-0.171,0.07-0.185,0.123
			c-0.21,0.75-0.749,1.234-1.088,1.889c-0.049,0.087-0.016,0.211-0.014,0.322c-0.107-0.029-0.189,0.026-0.209,0.115
			c-0.06,0.271-0.168,0.512-0.257,0.756c-0.075,0.203-0.303,0.401-0.348,0.584c-0.104,0.414-0.513,0.657-0.487,1.097
			c-0.324,0.11-0.22,0.222-0.229,0.327c-0.01,0.103-0.1,0.189-0.166,0.264c-0.275,0.295-0.406,0.702-0.528,1.088
			c-0.101,0.324-0.36,0.561-0.476,0.873c-0.026,0.064,0.017,0.154-0.021,0.203c-0.103,0.164,0.099,0.328,0.065,0.468
			c-0.045,0.17-0.443,0.456-0.516,0.604c-0.039,0.086-0.082,0.052-0.125,0.127c-0.416,0.679-0.322,1.353-0.687,2.033
			c-0.062,0.119-0.298,0.315-0.371,0.414c-0.493,0.627-0.365,1.426-0.838,2.01c0.079,0.332-0.194,0.568-0.233,0.881
			c-0.01,0.082,0.057,0.146,0.042,0.229c-0.028,0.284-0.131,0.519-0.184,0.78c-0.185,0.976-0.351,1.883-0.624,2.917
			c-0.2,0.768-0.717,1.105-0.814,1.936c-0.027,0.244,0.193,0.25,0.209,0.332c0.022,0.125,0.045,0.244,0.139,0.314
			c0.082,0.066,0.174-0.018,0.199-0.104c0.209-0.625,0.224-1.068,0.506-1.674c0.115-0.246-0.242-0.582-0.162-0.853
			c0.257-0.813,1.147-1.522,1.384-2.338c0.388-0.154,0.063-0.582,0.213-0.884c0.046-0.082,0.129-0.099,0.211-0.135
			c0.146-0.065-0.146-0.283-0.082-0.404c0.2-0.387,0.621-0.741,0.874-1.104c0.17-0.242,0.377-0.469,0.477-0.707
			c0.174-0.418,0.42-0.684,0.42-1.087c0.002-0.473,0.521-0.86,0.5-1.328c-0.006-0.124,0.142-0.231,0.168-0.337
			c0.134-0.615,0.199-1.189,0.43-1.775c0.074-0.19,0.02-0.426,0.02-0.648c0.289,0.027-0.039-0.34,0.217-0.333
			c-0.078-0.272,0.069-0.545,0.158-0.744c0.368-0.797,0.654-1.649,0.828-2.565c0.039-0.209,0.217-0.363,0.289-0.563
			c0.036-0.099-0.029-0.252,0.026-0.312c0.146-0.154,0.217-0.344,0.407-0.48c0.035-0.02-0.006-0.131,0.019-0.195
			c0.089-0.254,0.408-0.365,0.447-0.668c0.01-0.049,0.157-0.063,0.181-0.121c0.292-0.748,0.627-1.352,0.816-2.109
			c0.105-0.424,0.666-0.734,0.629-1.205c-0.004-0.032,0.158-0.059,0.174-0.118c0.15-0.489,0.131-0.903,0.43-1.33
			c0.053-0.083-0.003-0.217,0.026-0.319c0.021-0.088,0.378-0.106,0.397-0.139c0.252-0.395,0.049-1.021,0.19-1.427
			c0.075-0.226,0.499-0.333,0.634-0.511c0.092-0.119,0.069-0.272,0.178-0.363c0.025-0.021-0.026-0.073-0.023-0.08
			c0.062-0.148,0.072-0.23,0.197-0.35c0.06-0.051,0.096-0.162,0.066-0.265c0.082,0.067,0.029-0.118,0.111-0.054
			c-0.003-0.059-0.003-0.107-0.003-0.164 M7242.264,7564.552c3.506-4.821,20.674-40.86,29.252-66.747l-1.101,0.229
			C7269.504,7501.411,7260.624,7529.618,7242.264,7564.552z"/>
		<path fill="#0C2D82" d="M7261.555,7446.514c8.686-6.01,29.684-11.18,48.475-1.049c13.845,7.465,23.857,19.754,26.719,37.691
			l-10.496,6.016c-9.921-11.263-18.893-17.941-25.766-21.378c-6.869-3.433-22.9-10.305-38.168-11.065L7261.555,7446.514z
			 M7317.238,7454.891l-5.164,2.357l-5.139-2.977l0.599,5.623l-4.491,3.879l5.762,1.098l2.221,5.559l3.052-5.062l5.71-0.292
			l-3.723-4.423L7317.238,7454.891z M7331.975,7477.666l-3.42-0.025l-2.049-2.931l-1.104,3.22l-3.44,0.973l2.868,2.065l-0.208,3.604
			l2.96-1.987l3.189,1.294l-0.907-3.363L7331.975,7477.666z M7289.771,7444.568l-2.475,4.156l-5.039,0.406l3.145,3.643l-1.266,4.896
			l4.566-2.025l4.248,2.813l-0.315-5.022l3.856-2.975l-4.748-1.291L7289.771,7444.568z M7269.723,7446.001l-0.986,3.039
			l-3.188,0.994l2.557,1.894l-0.103,3.334l2.647-1.968l3.147,1.19l-0.937-3.188l2.05-2.48l-3.245-0.135L7269.723,7446.001z"/>
		<path fill="#0C2D82" d="M7358.277,7564.76h-2.27v6.176h-1.533v-6.176h-2.264v-1.34h6.064v1.34H7358.277z M7368.553,7570.936
			h-1.535v-5.979h-0.035l-2.174,5.979h-1.482l-2.105-5.979h-0.031v5.979h-1.539v-7.516h2.662l1.748,4.907h0.035l1.819-4.907h2.64
			v7.516H7368.553z"/>
	</g>
</g>
<g id="svg12082">
</g>
<g id="svg31568">
</g>
<g id="CLEVELAND_INDIANS">
</g>
<g id="svg2562">
</g>
<g id="svg3060">
	<g id="layer1" transform="translate(-273.76782,-429.12625)">
		<g id="g8" transform="matrix(1.25,0,0,1.25,286.0365,441.38881)">
			<path id="path10" fill="#004565" d="M104.712,737.732c38.123,0,69.265-31.659,69.265-70.832
				c0-39.172-31.141-70.832-69.265-70.832c-38.302,0-69.445,31.66-69.445,70.832C35.268,706.073,66.411,737.732,104.712,737.732z"/>
		</g>
		<g id="g12" transform="matrix(1.25,0,0,1.25,403.1255,583.64206)">
			<path id="path14" fill="#FFFFFF" d="M37.71,593.163l1.073,1.791l-2.505,1.609l1.968,3.398l2.507-1.429l1.072,1.787l-2.684,1.431
				l2.864,4.83l2.505-1.43l1.075,1.788l-4.832,2.861l-7.876-13.773L37.71,593.163z"/>
		</g>
		<g id="g16" transform="matrix(1.25,0,0,1.25,315.193,574.69331)">
			<path id="path18" fill="#FFFFFF" d="M50.065,596.568l-9.664,12.698l-1.79-1.968l1.969-2.683l-1.611-1.61l-2.505,2.147
				l-1.791-1.968l12.171-9.838L50.065,596.568z M40.579,601.576l1.431,1.43l4.475-5.723l-0.357-0.179L40.579,601.576z"/>
		</g>
		<g id="g20" transform="matrix(1.25,0,0,1.25,429.7555,550.60206)">
			<path id="path22" fill="#FFFFFF" d="M39.494,595.45l-0.895,2.504l-2.147-0.895c-0.359-0.179-0.537-0.179-0.716,0
				c0,0-0.537,1.431-0.537,1.61s0.178,0.359,0.537,0.537l2.148,0.893c0.537,0.18,0.716,0.18,1.253-0.177l1.79-2.146
				c0.894-0.717,1.788-1.074,2.685-0.717l3.042,1.252c2.326,1.074,2.684,1.431,1.79,3.935c0,0-0.538,1.431-0.538,1.611
				c-1.075,2.503-1.611,2.683-3.937,1.609l-2.327-0.895l1.073-2.503l2.509,1.073c0.355,0.179,0.713,0.179,0.713-0.18
				c0.18,0,0.538-1.431,0.538-1.61s-0.179-0.179-0.538-0.357l-3.041-1.252c-0.359-0.18-1.075,1.074-1.611,1.609l-1.433,1.254
				c-0.895,0.715-1.79,0.536-2.684,0.177l-2.147-0.895c-2.327-1.072-2.685-1.609-1.611-4.113c0,0,0.537-1.431,0.537-1.61
				c0.894-2.326,1.609-2.326,3.937-1.431L39.494,595.45z"/>
		</g>
		<g id="g24" transform="matrix(1.25,0,0,1.25,363.86488,593.73706)">
			<path id="path26" fill="#FFFFFF" d="M38.154,593.317l-1.789,15.74l-2.685-0.358l1.789-15.74L38.154,593.317z"/>
		</g>
		<g id="g28" transform="matrix(1.25,0,0,1.25,299.35188,552.43831)">
			<path id="path30" fill="#FFFFFF" d="M50.389,596.664l-5.907,5.008v0.179l7.338-1.79l1.432,3.22l-13.96,6.618l-1.074-2.146
				l8.412-3.936l-0.179-0.356l-8.949,2.324l-0.715-1.252l7.516-5.723v-0.18l-8.232,3.936l-1.075-2.146l13.961-6.618L50.389,596.664z
				"/>
		</g>
		<g id="g32" transform="matrix(1.25,0,0,1.25,337.234,586.85331)">
			<path id="path34" fill="#FFFFFF" d="M44.961,595.067c2.327,1.075,2.327,1.969,1.432,4.294l-0.896,1.787
				c-0.537,1.252-1.073,1.969-2.147,1.969c0.716,0.716,0.536,1.609,0,2.684l-2.148,5.008l-2.505-1.253l2.505-5.187
				c0.179-0.358,0.179-0.536,0-0.716c0-0.177-1.611-0.894-1.791-1.073l-2.684,6.081l-2.505-1.252l6.621-14.31L44.961,595.067z
				 M40.308,600.432c0.178,0.179,1.611,0.896,1.789,0.896c0.358,0,0.537-0.18,0.716-0.537l1.254-2.864
				c0.179-0.536,0.358-0.713,0-0.892c-0.18-0.179-1.612-0.894-1.791-0.894L40.308,600.432z"/>
		</g>
		<g id="g36" transform="matrix(1.25,0,0,1.25,382.46175,592.13081)">
			<path id="path38" fill="#FFFFFF" d="M35.626,593.886l3.938,7.333l-1.432-7.87l2.149-0.357l3.042,15.562l-2.327,0.357
				l-3.937-7.333l1.611,7.87l-2.328,0.535L33.3,594.423L35.626,593.886z"/>
		</g>
		<g id="g40" transform="matrix(1.25,0,0,1.25,417.588,569.64706)">
			<path id="path42" fill="#FFFFFF" d="M35.446,595.596c1.612-1.969,2.684-2.146,4.475-0.358l1.431,1.253
				c1.075,0.892,1.611,1.609,1.252,2.684c1.076-0.539,1.611-0.181,2.685,0.713l3.938,3.578l-1.791,1.969l-4.294-3.757
				c-0.18-0.358-0.359-0.358-0.538-0.358c-0.177,0.178-1.252,1.251-1.43,1.43l4.832,4.293l-1.611,2.147l-11.812-10.373
				L35.446,595.596z M39.385,601.32c0.178-0.179,1.253-1.432,1.253-1.432c0.177-0.357,0-0.536-0.361-0.895l-2.147-1.966
				c-0.536-0.357-0.716-0.536-1.073-0.357c0,0.177-1.076,1.252-1.253,1.43L39.385,601.32z"/>
		</g>
		<g id="g44" transform="matrix(1.25,0,0,1.25,371.21225,450.33768)">
			<path id="path46" fill="#FFFFFF" d="M40.33,595.886v2.146h-2.148v13.773h-2.684l0.179-13.773h-2.148v-2.146H40.33z"/>
		</g>
		<g id="g48" transform="matrix(1.25,0,0,1.25,300.04163,494.16093)">
			<path id="path50" fill="#FFFFFF" d="M42.499,596.779l-1.074,2.505l-2.148-0.895c-0.358-0.179-0.536-0.179-0.716-0.179
				c0,0.179-0.537,1.43-0.537,1.43c-0.179,0.358,0,0.537,0.358,0.716l2.326,1.073c0.358,0.179,0.716-0.179,1.253-0.536l1.789-2.146
				c1.075-0.715,1.79-0.536,2.686-0.179l3.042,1.43c2.327,1.073,2.685,1.61,1.61,3.936c0,0-0.537,1.432-0.716,1.432
				c-1.073,2.504-1.611,2.682-3.936,1.61l-2.686-1.074l1.254-2.503l2.863,1.252c0.358,0.179,0.536,0.179,0.716-0.179l0.536-1.43
				c0-0.179-0.178-0.357-0.536-0.357l-2.863-1.431c-0.538-0.179-1.074,0.716-1.612,1.073l-1.611,1.073
				c-0.895,0.716-1.79,0.893-2.864,0.536l-1.968-0.894c-2.327-1.073-2.685-1.789-1.611-4.293c0.18,0,0.716-1.431,0.716-1.431
				c1.074-2.325,1.611-2.325,3.937-1.252L42.499,596.779z"/>
		</g>
		<g id="g52" transform="matrix(1.25,0,0,1.25,317.48913,470.06918)">
			<path id="path54" fill="#FFFFFF" d="M38.742,595.483l1.431,1.431l-2.147,2.146l2.686,2.861l2.148-1.967l1.432,1.431l-2.148,2.146
				l3.759,3.935l2.147-2.146l1.432,1.61l-4.117,3.934l-10.739-11.447L38.742,595.483z"/>
		</g>
		<g id="g56" transform="matrix(1.25,0,0,1.25,343.66225,454.69693)">
			<path id="path58" fill="#FFFFFF" d="M38.209,595.797l7.517,13.952l-2.327,1.072l-1.611-3.041l-2.148,0.895l0.895,3.219
				l-2.505,1.073l-3.939-15.561L38.209,595.797z M39.103,606.707l1.611-0.716l-3.223-6.438l-0.358,0.179L39.103,606.707z"/>
		</g>
		<g id="g60" transform="matrix(1.25,0,0,1.25,395.778,454.46743)">
			<path id="path62" fill="#FFFFFF" d="M43.05,598.305l-0.714,1.968l-1.791-0.716l-5.012,12.7l-2.505-0.894l5.011-12.878
				l-1.969-0.717l0.717-1.967L43.05,598.305z"/>
		</g>
		<g id="g64" transform="matrix(1.25,0,0,1.25,414.37425,470.06918)">
			<path id="path66" fill="#FFFFFF" d="M44.998,597.272l-9.129,10.374l2.148,1.968l-1.252,1.609l-4.117-3.935l10.382-11.805
				L44.998,597.272z"/>
		</g>
		<g id="g68" transform="matrix(1.25,0,0,1.25,428.148,493.47256)">
			<path id="path70" fill="#FFFFFF" d="M48.833,600.013l-1.788,0.895l-1.434-2.682l-3.578,1.788l1.431,2.684l-1.79,1.073
				l-1.432-2.684l-4.833,2.504l1.432,2.683l-1.968,0.895l-2.506-5.188l13.96-6.975L48.833,600.013z"/>
		</g>
		<g id="g72" transform="matrix(1.25,0,0,1.25,322.08138,478.10018)">
			<path id="path74" fill="#FFFFFF" d="M75.876,679.745c22.732,0,41.167-18.782,41.167-42.214c0-23.253-18.435-42.212-41.167-42.212
				c-22.909,0-41.344,18.959-41.344,42.212C34.532,660.963,52.967,679.745,75.876,679.745z"/>
		</g>
		<g id="g76" transform="matrix(1.25,0,0,1.25,322.08138,478.10018)">
			<path id="path78" fill="none" stroke="#006F61" stroke-width="2.748" d="M75.876,679.745c22.732,0,41.167-18.782,41.167-42.214
				c0-23.253-18.435-42.212-41.167-42.212c-22.909,0-41.344,18.959-41.344,42.212C34.532,660.963,52.967,679.745,75.876,679.745z"/>
		</g>
		<g id="g80" transform="matrix(1.25,0,0,1.25,340.90713,492.55456)">
			<path id="path82" fill="#BCCCD3" d="M41.129,612.553c-1.612-3.756-6.98-17.351-6.802-17.53c0,0,13.603,7.333,16.288,9.122
				C47.392,605.04,41.844,610.585,41.129,612.553z"/>
		</g>
		<g id="g84" transform="matrix(1.25,0,0,1.25,340.90713,492.55456)">
			<path id="path86" fill="#006F61" d="M45.066,607.724c-1.79,1.967-3.58,3.935-3.938,4.83c-1.612-3.756-6.98-17.351-6.802-17.53
				L45.066,607.724z"/>
		</g>
		<g id="g88" transform="matrix(1.25,0,0,1.25,387.97175,492.78406)">
			<path id="path90" fill="#BCCCD3" d="M42.674,612.548c1.61-3.934,6.979-17.529,6.801-17.529c0,0-13.602,7.334-16.287,9.122
				C36.409,604.857,41.957,610.401,42.674,612.548z"/>
		</g>
		<g id="g92" transform="matrix(1.25,0,0,1.25,388.20175,492.55456)">
			<path id="path94" fill="#006F61" d="M38.372,607.545c-1.969-1.61-4.116-3.041-5.19-3.22c3.4-2.146,16.108-9.301,16.108-9.301
				L38.372,607.545z"/>
		</g>
		<g id="g96" transform="matrix(1.25,0,0,1.25,340.90713,549.22581)">
			<path id="path98" fill="#BCCCD3" d="M41.129,593.866c-1.612,3.757-6.98,17.53-6.802,17.709c0,0,13.603-7.513,16.288-9.302
				C47.392,601.38,41.844,595.835,41.129,593.866z"/>
		</g>
		<g id="g100" transform="matrix(1.25,0,0,1.25,340.90713,555.65081)">
			<path id="path102" fill="#006F61" d="M45.245,593.737c2.147,1.787,4.295,3.219,5.37,3.397c-3.58,2.148-16.288,9.302-16.466,9.123
				L45.245,593.737z"/>
		</g>
		<g id="g104" transform="matrix(1.25,0,0,1.25,388.4305,549.22581)">
			<path id="path106" fill="#BCCCD3" d="M42.485,593.866c1.611,3.757,6.622,17.709,6.442,17.887c0,0-13.064-7.691-15.75-9.48
				C36.221,601.38,41.768,595.835,42.485,593.866z"/>
		</g>
		<g id="g108" transform="matrix(1.25,0,0,1.25,395.31925,549.22581)">
			<path id="path110" fill="#006F61" d="M33.037,598.697c1.969-1.788,3.579-3.756,3.938-4.83c1.611,3.757,6.622,17.709,6.442,17.887
				L33.037,598.697z"/>
		</g>
		<g id="g112" transform="matrix(1.25,0,0,1.25,352.38663,510.68081)">
			<path id="path114" fill="#E63047" d="M36.061,594.832l-0.359-0.178l-1.789,0.536l0.358,0.358L36.061,594.832z"/>
		</g>
		<g id="g116" transform="matrix(1.25,0,0,1.25,352.38663,510.68081)">
			<path id="path118" fill="none" stroke="#E63047" stroke-width="0.2754" d="M36.061,594.832l-0.359-0.178l-1.789,0.536
				l0.358,0.358L36.061,594.832z"/>
		</g>
		<g id="g120" transform="matrix(1.25,0,0,1.25,355.14175,509.07431)">
			<path id="path122" fill="#E63047" d="M34.394,594.687l0.358,0.179l-0.536,1.609l-0.358-0.358L34.394,594.687z"/>
		</g>
		<g id="g124" transform="matrix(1.25,0,0,1.25,355.14175,509.07431)">
			<path id="path126" fill="none" stroke="#E63047" stroke-width="0.2754" d="M34.394,594.687l0.358,0.179l-0.536,1.609
				l-0.358-0.358L34.394,594.687z"/>
		</g>
		<g id="g128" transform="matrix(1.25,0,0,1.25,354.2225,512.05644)">
			<path id="path130" fill="#E63047" d="M36.203,594.984l-0.537-0.358l-1.79,0.537l0.357,0.358L36.203,594.984z"/>
		</g>
		<g id="g132" transform="matrix(1.25,0,0,1.25,354.2225,512.05644)">
			<path id="path134" fill="none" stroke="#E63047" stroke-width="0.2754" d="M36.203,594.984l-0.537-0.358l-1.79,0.537l0.357,0.358
				L36.203,594.984z"/>
		</g>
		<g id="g136" transform="matrix(1.25,0,0,1.25,357.20713,510.45006)">
			<path id="path138" fill="#E63047" d="M34.174,594.659l0.536,0.18l-0.536,1.609l-0.359-0.179L34.174,594.659z"/>
		</g>
		<g id="g140" transform="matrix(1.25,0,0,1.25,357.20713,510.45006)">
			<path id="path142" fill="none" stroke="#E63047" stroke-width="0.2754" d="M34.174,594.659l0.536,0.18l-0.536,1.609l-0.359-0.179
				L34.174,594.659z"/>
		</g>
		<g id="g144" transform="matrix(1.25,0,0,1.25,356.51863,513.43343)">
			<path id="path146" fill="#E63047" d="M36.156,594.956l-0.537-0.358l-1.789,0.715l0.537,0.18L36.156,594.956z"/>
		</g>
		<g id="g148" transform="matrix(1.25,0,0,1.25,356.51863,513.43343)">
			<path id="path150" fill="none" stroke="#E63047" stroke-width="0.2754" d="M36.156,594.956l-0.537-0.358l-1.789,0.715l0.537,0.18
				L36.156,594.956z"/>
		</g>
		<g id="g152" transform="matrix(1.25,0,0,1.25,359.50325,511.82706)">
			<path id="path154" fill="#E63047" d="M34.126,594.631l0.537,0.179l-0.357,1.61l-0.537-0.179L34.126,594.631z"/>
		</g>
		<g id="g156" transform="matrix(1.25,0,0,1.25,359.50325,511.82706)">
			<path id="path158" fill="none" stroke="#E63047" stroke-width="0.2754" d="M34.126,594.631l0.537,0.179l-0.357,1.61l-0.537-0.179
				L34.126,594.631z"/>
		</g>
		<g id="g160" transform="matrix(1.25,0,0,1.25,359.27375,514.81043)">
			<path id="path162" fill="#E63047" d="M36.1,594.749l-0.537-0.179l-1.79,0.716l0.536,0.357L36.1,594.749z"/>
		</g>
		<g id="g164" transform="matrix(1.25,0,0,1.25,359.27375,514.81043)">
			<path id="path166" fill="none" stroke="#E63047" stroke-width="0.2754" d="M36.1,594.749l-0.537-0.179l-1.79,0.716l0.536,0.357
				L36.1,594.749z"/>
		</g>
		<g id="g168" transform="matrix(1.25,0,0,1.25,362.25837,512.97443)">
			<path id="path170" fill="#E63047" d="M33.891,594.608l0.537,0.179l-0.179,1.789l-0.537-0.358L33.891,594.608z"/>
		</g>
		<g id="g172" transform="matrix(1.25,0,0,1.25,362.25837,512.97443)">
			<path id="path174" fill="none" stroke="#E63047" stroke-width="0.2754" d="M33.891,594.608l0.537,0.179l-0.179,1.789
				l-0.537-0.358L33.891,594.608z"/>
		</g>
		<g id="g176" transform="matrix(1.25,0,0,1.25,362.02887,515.95669)">
			<path id="path178" fill="#E63047" d="M36.044,594.725l-0.716-0.179l-1.611,0.895l0.716,0.179L36.044,594.725z"/>
		</g>
		<g id="g180" transform="matrix(1.25,0,0,1.25,362.02887,515.95669)">
			<path id="path182" fill="none" stroke="#E63047" stroke-width="0.2754" d="M36.044,594.725l-0.716-0.179l-1.611,0.895
				l0.716,0.179L36.044,594.725z"/>
		</g>
		<g id="g184" transform="matrix(1.25,0,0,1.25,364.784,513.89244)">
			<path id="path186" fill="#E63047" d="M33.66,594.589l0.537,0.179l0.179,1.788l-0.536-0.179L33.66,594.589z"/>
		</g>
		<g id="g188" transform="matrix(1.25,0,0,1.25,364.784,513.89244)">
			<path id="path190" fill="none" stroke="#E63047" stroke-width="0.2754" d="M33.66,594.589l0.537,0.179l0.179,1.788l-0.536-0.179
				L33.66,594.589z"/>
		</g>
		<g id="g192" transform="matrix(1.25,0,0,1.25,365.4725,516.87456)">
			<path id="path194" fill="#E63047" d="M35.794,594.528h-0.537l-1.611,0.894l0.716,0.18L35.794,594.528z"/>
		</g>
		<g id="g196" transform="matrix(1.25,0,0,1.25,365.4725,516.87456)">
			<path id="path198" fill="none" stroke="#E63047" stroke-width="0.2754" d="M35.794,594.528h-0.537l-1.611,0.894l0.716,0.18
				L35.794,594.528z"/>
		</g>
		<g id="g200" transform="matrix(1.25,0,0,1.25,367.76863,514.81043)">
			<path id="path202" fill="#E63047" d="M33.599,594.57l0.716,0.179l0.358,1.609l-0.537-0.179L33.599,594.57z"/>
		</g>
		<g id="g204" transform="matrix(1.25,0,0,1.25,367.76863,514.81043)">
			<path id="path206" fill="none" stroke="#E63047" stroke-width="0.2754" d="M33.599,594.57l0.716,0.179l0.358,1.609l-0.537-0.179
				L33.599,594.57z"/>
		</g>
		<g id="g208" transform="matrix(1.25,0,0,1.25,368.91612,517.33356)">
			<path id="path210" fill="#E63047" d="M35.545,594.518h-0.716l-1.253,1.252h0.716L35.545,594.518z"/>
		</g>
		<g id="g212" transform="matrix(1.25,0,0,1.25,368.91612,517.33356)">
			<path id="path214" fill="none" stroke="#E63047" stroke-width="0.2754" d="M35.545,594.518h-0.716l-1.253,1.252h0.716
				L35.545,594.518z"/>
		</g>
		<g id="g216" transform="matrix(1.25,0,0,1.25,370.29313,515.26943)">
			<path id="path218" fill="#E63047" d="M33.548,594.56l0.716,0.18l0.716,1.43h-0.538L33.548,594.56z"/>
		</g>
		<g id="g220" transform="matrix(1.25,0,0,1.25,370.29313,515.26943)">
			<path id="path222" fill="none" stroke="#E63047" stroke-width="0.2754" d="M33.548,594.56l0.716,0.18l0.716,1.43h-0.538
				L33.548,594.56z"/>
		</g>
		<g id="g224" transform="matrix(1.25,0,0,1.25,372.13025,517.56306)">
			<path id="path226" fill="#E63047" d="M35.301,594.514h-0.716l-1.074,1.252h0.716L35.301,594.514z"/>
		</g>
		<g id="g228" transform="matrix(1.25,0,0,1.25,372.13025,517.56306)">
			<path id="path230" fill="none" stroke="#E63047" stroke-width="0.2754" d="M35.301,594.514h-0.716l-1.074,1.252h0.716
				L35.301,594.514z"/>
		</g>
		<g id="g232" transform="matrix(1.25,0,0,1.25,373.27775,515.72831)">
			<path id="path234" fill="#E63047" d="M33.487,594.551h0.717l0.895,1.431h-0.716L33.487,594.551z"/>
		</g>
		<g id="g236" transform="matrix(1.25,0,0,1.25,373.27775,515.72831)">
			<path id="path238" fill="none" stroke="#E63047" stroke-width="0.2754" d="M33.487,594.551h0.717l0.895,1.431h-0.716
				L33.487,594.551z"/>
		</g>
		<g id="g240" transform="matrix(1.25,0,0,1.25,375.80338,517.56306)">
			<path id="path242" fill="#E63047" d="M34.868,594.514h-0.716l-0.716,1.431l0.716-0.179L34.868,594.514z"/>
		</g>
		<g id="g244" transform="matrix(1.25,0,0,1.25,375.80325,517.56306)">
			<path id="path246" fill="none" stroke="#E63047" stroke-width="0.2754" d="M34.869,594.514h-0.716l-0.716,1.431l0.716-0.179
				L34.869,594.514z"/>
		</g>
		<g id="g248" transform="matrix(1.25,0,0,1.25,376.2635,515.72831)">
			<path id="path250" fill="#E63047" d="M33.425,594.551h0.537l1.253,1.431H34.5L33.425,594.551z"/>
		</g>
		<g id="g252" transform="matrix(1.25,0,0,1.25,376.2635,515.72831)">
			<path id="path254" fill="none" stroke="#E63047" stroke-width="0.2754" d="M33.425,594.551h0.537l1.253,1.431H34.5
				L33.425,594.551z"/>
		</g>
		<g id="g256" transform="matrix(1.25,0,0,1.25,379.70675,517.10406)">
			<path id="path258" fill="#E63047" d="M34.608,594.523h-0.716l-0.536,1.431h0.536L34.608,594.523z"/>
		</g>
		<g id="g260" transform="matrix(1.25,0,0,1.25,379.70675,517.10418)">
			<path id="path262" fill="none" stroke="#E63047" stroke-width="0.2754" d="M34.608,594.523h-0.716l-0.536,1.431h0.536
				L34.608,594.523z"/>
		</g>
		<g id="g264" transform="matrix(1.25,0,0,1.25,379.70675,515.26943)">
			<path id="path266" fill="#E63047" d="M33.357,594.56h0.536l1.252,1.251l-0.537,0.18L33.357,594.56z"/>
		</g>
		<g id="g268" transform="matrix(1.25,0,0,1.25,379.70675,515.26943)">
			<path id="path270" fill="none" stroke="#E63047" stroke-width="0.2754" d="M33.357,594.56h0.536l1.252,1.251l-0.537,0.18
				L33.357,594.56z"/>
		</g>
		<g id="g272" transform="matrix(1.25,0,0,1.25,383.1505,516.41569)">
			<path id="path274" fill="#E63047" d="M34.181,594.537l-0.715,0.179l-0.18,1.431l0.716-0.179L34.181,594.537z"/>
		</g>
		<g id="g276" transform="matrix(1.25,0,0,1.25,383.1505,516.41569)">
			<path id="path278" fill="none" stroke="#E63047" stroke-width="0.2754" d="M34.181,594.537l-0.715,0.179l-0.18,1.431l0.716-0.179
				L34.181,594.537z"/>
		</g>
		<g id="g280" transform="matrix(1.25,0,0,1.25,382.46175,514.58094)">
			<path id="path282" fill="#E63047" d="M33.3,594.753l0.537-0.178l1.612,1.251l-0.716,0.179L33.3,594.753z"/>
		</g>
		<g id="g284" transform="matrix(1.25,0,0,1.25,382.46175,514.58094)">
			<path id="path286" fill="none" stroke="#E63047" stroke-width="0.2754" d="M33.3,594.753l0.537-0.178l1.612,1.251l-0.716,0.179
				L33.3,594.753z"/>
		</g>
		<g id="g288" transform="matrix(1.25,0,0,1.25,386.36425,515.26943)">
			<path id="path290" fill="#E63047" d="M34.115,594.56l-0.537,0.18l-0.359,1.43l0.717-0.179L34.115,594.56z"/>
		</g>
		<g id="g292" transform="matrix(1.25,0,0,1.25,386.36425,515.26943)">
			<path id="path294" fill="none" stroke="#E63047" stroke-width="0.2754" d="M34.115,594.56l-0.537,0.18l-0.359,1.43l0.717-0.179
				L34.115,594.56z"/>
		</g>
		<g id="g296" transform="matrix(1.25,0,0,1.25,385.4455,513.66293)">
			<path id="path298" fill="#E63047" d="M33.239,594.772l0.538-0.179l1.611,1.074l-0.537,0.178L33.239,594.772z"/>
		</g>
		<g id="g300" transform="matrix(1.25,0,0,1.25,385.4455,513.66293)">
			<path id="path302" fill="none" stroke="#E63047" stroke-width="0.2754" d="M33.239,594.772l0.538-0.179l1.611,1.074l-0.537,0.178
				L33.239,594.772z"/>
		</g>
		<g id="g304" transform="matrix(1.25,0,0,1.25,389.1205,514.12194)">
			<path id="path306" fill="#E63047" d="M33.699,594.584l-0.535,0.358v1.43l0.535-0.357V594.584z"/>
		</g>
		<g id="g308" transform="matrix(1.25,0,0,1.25,389.1205,514.12194)">
			<path id="path310" fill="none" stroke="#E63047" stroke-width="0.2754" d="M33.699,594.584l-0.535,0.358v1.43l0.535-0.357
				V594.584z"/>
		</g>
		<g id="g312" transform="matrix(1.25,0,0,1.25,387.74175,512.51544)">
			<path id="path314" fill="#E63047" d="M33.192,594.975l0.359-0.358l1.789,1.074l-0.537,0.179L33.192,594.975z"/>
		</g>
		<g id="g316" transform="matrix(1.25,0,0,1.25,387.74175,512.51544)">
			<path id="path318" fill="none" stroke="#E63047" stroke-width="0.2754" d="M33.192,594.975l0.359-0.358l1.789,1.074l-0.537,0.179
				L33.192,594.975z"/>
		</g>
		<g id="g320" transform="matrix(1.25,0,0,1.25,391.41675,512.97443)">
			<path id="path322" fill="#E63047" d="M33.653,594.608l-0.536,0.357l0.178,1.431l0.358-0.357V594.608z"/>
		</g>
		<g id="g324" transform="matrix(1.25,0,0,1.25,391.41675,512.97443)">
			<path id="path326" fill="none" stroke="#E63047" stroke-width="0.2754" d="M33.653,594.608l-0.536,0.357l0.178,1.431l0.358-0.357
				V594.608z"/>
		</g>
		<g id="g328" transform="matrix(1.25,0,0,1.25,389.808,511.59756)">
			<path id="path330" fill="#E63047" d="M33.149,594.815l0.537-0.18l1.611,0.895l-0.358,0.179L33.149,594.815z"/>
		</g>
		<g id="g332" transform="matrix(1.25,0,0,1.25,389.808,511.59756)">
			<path id="path334" fill="none" stroke="#E63047" stroke-width="0.2754" d="M33.149,594.815l0.537-0.18l1.611,0.895l-0.358,0.179
				L33.149,594.815z"/>
		</g>
		<g id="g336" transform="matrix(1.25,0,0,1.25,393.48175,511.59756)">
			<path id="path338" fill="#E63047" d="M33.432,594.635l-0.358,0.358l0.537,1.252l0.359-0.358L33.432,594.635z"/>
		</g>
		<g id="g340" transform="matrix(1.25,0,0,1.25,393.48175,511.59756)">
			<path id="path342" fill="none" stroke="#E63047" stroke-width="0.2754" d="M33.432,594.635l-0.358,0.358l0.537,1.252l0.359-0.358
				L33.432,594.635z"/>
		</g>
		<g id="g344" transform="matrix(1.25,0,0,1.25,391.8755,510.22181)">
			<path id="path346" fill="#E63047" d="M33.107,595.021l0.358-0.358l1.791,0.714l-0.359,0.357L33.107,595.021z"/>
		</g>
		<g id="g348" transform="matrix(1.25,0,0,1.25,391.8755,510.22181)">
			<path id="path350" fill="none" stroke="#E63047" stroke-width="0.2754" d="M33.107,595.021l0.358-0.358l1.791,0.714l-0.359,0.357
				L33.107,595.021z"/>
		</g>
		<g id="g352" transform="matrix(1.25,0,0,1.25,395.31925,509.99231)">
			<path id="path354" fill="#E63047" d="M33.573,594.668l-0.536,0.357l0.536,1.252l0.359-0.358L33.573,594.668z"/>
		</g>
		<g id="g356" transform="matrix(1.25,0,0,1.25,395.31925,509.99231)">
			<path id="path358" fill="none" stroke="#E63047" stroke-width="0.2754" d="M33.573,594.668l-0.536,0.357l0.536,1.252l0.359-0.358
				L33.573,594.668z"/>
		</g>
		<g id="g360" transform="matrix(1.25,0,0,1.25,393.7105,508.61531)">
			<path id="path362" fill="#E63047" d="M33.07,595.054l0.359-0.358l0.716,0.358l0.537,0.536l0.178,0.179L33.07,595.054z"/>
		</g>
		<g id="g364" transform="matrix(1.25,0,0,1.25,393.7105,508.61531)">
			<path id="path366" fill="none" stroke="#E63047" stroke-width="0.2754" d="M33.07,595.054l0.359-0.358l0.716,0.358l0.537,0.536
				l0.178,0.179L33.07,595.054z"/>
		</g>
		<g id="g368" transform="matrix(1.25,0,0,1.25,395.08925,552.89706)">
			<path id="path370" fill="#E63047" d="M33.042,594.33l0.357,0.357l1.791-0.536l-0.359-0.359L33.042,594.33z"/>
		</g>
		<g id="g372" transform="matrix(1.25,0,0,1.25,395.08925,552.89706)">
			<path id="path374" fill="none" stroke="#E63047" stroke-width="0.2754" d="M33.042,594.33l0.357,0.357l1.791-0.536l-0.359-0.359
				L33.042,594.33z"/>
		</g>
		<g id="g376" transform="matrix(1.25,0,0,1.25,393.9405,553.12706)">
			<path id="path378" fill="#E63047" d="M33.424,595.756l-0.359-0.36l0.539-1.608l0.357,0.358L33.424,595.756z"/>
		</g>
		<g id="g380" transform="matrix(1.25,0,0,1.25,393.9405,553.12706)">
			<path id="path382" fill="none" stroke="#E63047" stroke-width="0.2754" d="M33.424,595.756l-0.359-0.36l0.539-1.608l0.357,0.358
				L33.424,595.756z"/>
		</g>
		<g id="g384" transform="matrix(1.25,0,0,1.25,393.023,551.52081)">
			<path id="path386" fill="#E63047" d="M33.085,594.358l0.535,0.177l1.79-0.536l-0.358-0.18L33.085,594.358z"/>
		</g>
		<g id="g388" transform="matrix(1.25,0,0,1.25,393.023,551.52081)">
			<path id="path390" fill="none" stroke="#E63047" stroke-width="0.2754" d="M33.085,594.358l0.535,0.177l1.79-0.536l-0.358-0.18
				L33.085,594.358z"/>
		</g>
		<g id="g392" transform="matrix(1.25,0,0,1.25,391.8755,551.74956)">
			<path id="path394" fill="#E63047" d="M33.644,595.784l-0.537-0.357l0.537-1.61l0.359,0.359L33.644,595.784z"/>
		</g>
		<g id="g396" transform="matrix(1.25,0,0,1.25,391.8755,551.74956)">
			<path id="path398" fill="none" stroke="#E63047" stroke-width="0.2754" d="M33.644,595.784l-0.537-0.357l0.537-1.61l0.359,0.359
				L33.644,595.784z"/>
		</g>
		<g id="g400" transform="matrix(1.25,0,0,1.25,390.72675,549.91456)">
			<path id="path402" fill="#E63047" d="M33.131,594.569l0.538,0.179l1.788-0.716l-0.535-0.179L33.131,594.569z"/>
		</g>
		<g id="g404" transform="matrix(1.25,0,0,1.25,390.72675,549.91456)">
			<path id="path406" fill="none" stroke="#E63047" stroke-width="0.2754" d="M33.131,594.569l0.538,0.179l1.788-0.716l-0.535-0.179
				L33.131,594.569z"/>
		</g>
		<g id="g408" transform="matrix(1.25,0,0,1.25,389.57925,550.37331)">
			<path id="path410" fill="#E63047" d="M33.691,595.811l-0.536-0.178l0.357-1.788l0.537,0.357L33.691,595.811z"/>
		</g>
		<g id="g412" transform="matrix(1.25,0,0,1.25,389.57925,550.37331)">
			<path id="path414" fill="none" stroke="#E63047" stroke-width="0.2754" d="M33.691,595.811l-0.536-0.178l0.357-1.788l0.537,0.357
				L33.691,595.811z"/>
		</g>
		<g id="g416" transform="matrix(1.25,0,0,1.25,387.97175,548.53706)">
			<path id="path418" fill="#E63047" d="M33.188,594.596l0.536,0.18l1.79-0.716l-0.537-0.178L33.188,594.596z"/>
		</g>
		<g id="g420" transform="matrix(1.25,0,0,1.25,387.97175,548.53706)">
			<path id="path422" fill="none" stroke="#E63047" stroke-width="0.2754" d="M33.188,594.596l0.536,0.18l1.79-0.716l-0.537-0.178
				L33.188,594.596z"/>
		</g>
		<g id="g424" transform="matrix(1.25,0,0,1.25,387.053,549.22581)">
			<path id="path426" fill="#E63047" d="M33.743,595.656l-0.537-0.179l0.18-1.61l0.537,0.178L33.743,595.656z"/>
		</g>
		<g id="g428" transform="matrix(1.25,0,0,1.25,387.053,549.22581)">
			<path id="path430" fill="none" stroke="#E63047" stroke-width="0.2754" d="M33.743,595.656l-0.537-0.179l0.18-1.61l0.537,0.178
				L33.743,595.656z"/>
		</g>
		<g id="g432" transform="matrix(1.25,0,0,1.25,385.218,547.16206)">
			<path id="path434" fill="#E63047" d="M33.243,594.982l0.716,0.178l1.611-1.072l-0.716-0.179L33.243,594.982z"/>
		</g>
		<g id="g436" transform="matrix(1.25,0,0,1.25,385.218,547.16206)">
			<path id="path438" fill="none" stroke="#E63047" stroke-width="0.2754" d="M33.243,594.982l0.716,0.178l1.611-1.072l-0.716-0.179
				L33.243,594.982z"/>
		</g>
		<g id="g440" transform="matrix(1.25,0,0,1.25,384.528,548.30956)">
			<path id="path442" fill="#E63047" d="M33.973,595.674l-0.537-0.178l-0.178-1.609l0.537,0.177L33.973,595.674z"/>
		</g>
		<g id="g444" transform="matrix(1.25,0,0,1.25,384.528,548.30956)">
			<path id="path446" fill="none" stroke="#E63047" stroke-width="0.2754" d="M33.973,595.674l-0.537-0.178l-0.178-1.609
				l0.537,0.177L33.973,595.674z"/>
		</g>
		<g id="g448" transform="matrix(1.25,0,0,1.25,382.00175,546.24331)">
			<path id="path450" fill="#E63047" d="M33.309,595.002l0.537,0.177l1.611-1.071l-0.715-0.18L33.309,595.002z"/>
		</g>
		<g id="g452" transform="matrix(1.25,0,0,1.25,382.00175,546.24331)">
			<path id="path454" fill="none" stroke="#E63047" stroke-width="0.2754" d="M33.309,595.002l0.537,0.177l1.611-1.071l-0.715-0.18
				L33.309,595.002z"/>
		</g>
		<g id="g456" transform="matrix(1.25,0,0,1.25,381.08425,547.39081)">
			<path id="path458" fill="#E63047" d="M34.402,595.692h-0.716l-0.359-1.787l0.538,0.179L34.402,595.692z"/>
		</g>
		<g id="g460" transform="matrix(1.25,0,0,1.25,381.08425,547.39081)">
			<path id="path462" fill="none" stroke="#E63047" stroke-width="0.2754" d="M34.402,595.692h-0.716l-0.359-1.787l0.538,0.179
				L34.402,595.692z"/>
		</g>
		<g id="g464" transform="matrix(1.25,0,0,1.25,378.788,545.55456)">
			<path id="path466" fill="#E63047" d="M33.374,595.195h0.717l1.073-1.253h-0.537L33.374,595.195z"/>
		</g>
		<g id="g468" transform="matrix(1.25,0,0,1.25,378.788,545.55456)">
			<path id="path470" fill="none" stroke="#E63047" stroke-width="0.2754" d="M33.374,595.195h0.717l1.073-1.253h-0.537
				L33.374,595.195z"/>
		</g>
		<g id="g472" transform="matrix(1.25,0,0,1.25,378.0995,547.16206)">
			<path id="path474" fill="#E63047" d="M34.821,595.518h-0.716l-0.716-1.609h0.536L34.821,595.518z"/>
		</g>
		<g id="g476" transform="matrix(1.25,0,0,1.25,378.0995,547.16206)">
			<path id="path478" fill="none" stroke="#E63047" stroke-width="0.2754" d="M34.821,595.518h-0.716l-0.716-1.609h0.536
				L34.821,595.518z"/>
		</g>
		<g id="g480" transform="matrix(1.25,0,0,1.25,375.80338,545.32581)">
			<path id="path482" fill="#E63047" d="M33.436,595.2h0.716l1.074-1.253H34.51L33.436,595.2z"/>
		</g>
		<g id="g484" transform="matrix(1.25,0,0,1.25,375.80325,545.32581)">
			<path id="path486" fill="none" stroke="#E63047" stroke-width="0.2754" d="M33.437,595.2h0.716l1.074-1.253H34.51L33.437,595.2z"
				/>
		</g>
		<g id="g488" transform="matrix(1.25,0,0,1.25,374.88538,546.93206)">
			<path id="path490" fill="#E63047" d="M35.065,595.523H34.35l-0.895-1.608h0.716L35.065,595.523z"/>
		</g>
		<g id="g492" transform="matrix(1.25,0,0,1.25,374.88538,546.93206)">
			<path id="path494" fill="none" stroke="#E63047" stroke-width="0.2754" d="M35.065,595.523H34.35l-0.895-1.608h0.716
				L35.065,595.523z"/>
		</g>
		<g id="g496" transform="matrix(1.25,0,0,1.25,372.58925,545.32581)">
			<path id="path498" fill="#E63047" d="M33.501,595.378l0.717-0.178l0.716-1.253h-0.716L33.501,595.378z"/>
		</g>
		<g id="g500" transform="matrix(1.25,0,0,1.25,372.58925,545.32581)">
			<path id="path502" fill="none" stroke="#E63047" stroke-width="0.2754" d="M33.501,595.378l0.717-0.178l0.716-1.253h-0.716
				L33.501,595.378z"/>
		</g>
		<g id="g504" transform="matrix(1.25,0,0,1.25,371.67125,546.93206)">
			<path id="path506" fill="#E63047" d="M35.31,595.344l-0.538,0.179l-1.252-1.43l0.715-0.178L35.31,595.344z"/>
		</g>
		<g id="g508" transform="matrix(1.25,0,0,1.25,371.67125,546.93206)">
			<path id="path510" fill="none" stroke="#E63047" stroke-width="0.2754" d="M35.31,595.344l-0.538,0.179l-1.252-1.43l0.715-0.178
				L35.31,595.344z"/>
		</g>
		<g id="g512" transform="matrix(1.25,0,0,1.25,368.91612,545.55456)">
			<path id="path514" fill="#E63047" d="M33.576,595.553l0.716-0.179l0.537-1.432l-0.537,0.179L33.576,595.553z"/>
		</g>
		<g id="g516" transform="matrix(1.25,0,0,1.25,368.91612,545.55456)">
			<path id="path518" fill="none" stroke="#E63047" stroke-width="0.2754" d="M33.576,595.553l0.716-0.179l0.537-1.432l-0.537,0.179
				L33.576,595.553z"/>
		</g>
		<g id="g520" transform="matrix(1.25,0,0,1.25,368.22763,547.62081)">
			<path id="path522" fill="#E63047" d="M35.38,595.151l-0.537,0.178L33.59,593.9h0.536L35.38,595.151z"/>
		</g>
		<g id="g524" transform="matrix(1.25,0,0,1.25,368.22763,547.62081)">
			<path id="path526" fill="none" stroke="#E63047" stroke-width="0.2754" d="M35.38,595.151l-0.537,0.178L33.59,593.9h0.536
				L35.38,595.151z"/>
		</g>
		<g id="g528" transform="matrix(1.25,0,0,1.25,365.9315,546.24331)">
			<path id="path530" fill="#E63047" d="M33.637,595.539l0.715-0.18l0.179-1.431l-0.716,0.18L33.637,595.539z"/>
		</g>
		<g id="g532" transform="matrix(1.25,0,0,1.25,365.9315,546.24331)">
			<path id="path534" fill="none" stroke="#E63047" stroke-width="0.2754" d="M33.637,595.539l0.715-0.18l0.179-1.431l-0.716,0.18
				L33.637,595.539z"/>
		</g>
		<g id="g536" transform="matrix(1.25,0,0,1.25,365.0135,548.30956)">
			<path id="path538" fill="#E63047" d="M35.803,594.957l-0.537,0.18l-1.61-1.073l0.716-0.177L35.803,594.957z"/>
		</g>
		<g id="g540" transform="matrix(1.25,0,0,1.25,365.0135,548.30956)">
			<path id="path542" fill="none" stroke="#E63047" stroke-width="0.2754" d="M35.803,594.957l-0.537,0.18l-1.61-1.073l0.716-0.177
				L35.803,594.957z"/>
		</g>
		<g id="g544" transform="matrix(1.25,0,0,1.25,362.71738,547.16206)">
			<path id="path546" fill="#E63047" d="M33.704,595.518l0.536-0.179l0.358-1.43l-0.716,0.179L33.704,595.518z"/>
		</g>
		<g id="g548" transform="matrix(1.25,0,0,1.25,362.71738,547.16206)">
			<path id="path550" fill="none" stroke="#E63047" stroke-width="0.2754" d="M33.704,595.518l0.536-0.179l0.358-1.43l-0.716,0.179
				L33.704,595.518z"/>
		</g>
		<g id="g552" transform="matrix(1.25,0,0,1.25,362.02887,549.22581)">
			<path id="path554" fill="#E63047" d="M35.865,594.941l-0.537,0.358l-1.611-1.074l0.537-0.358L35.865,594.941z"/>
		</g>
		<g id="g556" transform="matrix(1.25,0,0,1.25,362.02887,549.22581)">
			<path id="path558" fill="none" stroke="#E63047" stroke-width="0.2754" d="M35.865,594.941l-0.537,0.358l-1.611-1.074
				l0.537-0.358L35.865,594.941z"/>
		</g>
		<g id="g560" transform="matrix(1.25,0,0,1.25,360.42125,548.30956)">
			<path id="path562" fill="#E63047" d="M33.749,595.496l0.538-0.359v-1.251l-0.538,0.177V595.496z"/>
		</g>
		<g id="g564" transform="matrix(1.25,0,0,1.25,360.42125,548.30956)">
			<path id="path566" fill="none" stroke="#E63047" stroke-width="0.2754" d="M33.749,595.496l0.538-0.359v-1.251l-0.538,0.177
				V595.496z"/>
		</g>
		<g id="g568" transform="matrix(1.25,0,0,1.25,359.73275,550.37331)">
			<path id="path570" fill="#E63047" d="M35.912,594.917l-0.358,0.18l-1.79-1.073l0.536-0.178L35.912,594.917z"/>
		</g>
		<g id="g572" transform="matrix(1.25,0,0,1.25,359.73275,550.37331)">
			<path id="path574" fill="none" stroke="#E63047" stroke-width="0.2754" d="M35.912,594.917l-0.358,0.18l-1.79-1.073l0.536-0.178
				L35.912,594.917z"/>
		</g>
		<g id="g576" transform="matrix(1.25,0,0,1.25,358.12637,549.45456)">
			<path id="path578" fill="#E63047" d="M33.796,595.473l0.536-0.179l-0.179-1.432l-0.358,0.18V595.473z"/>
		</g>
		<g id="g580" transform="matrix(1.25,0,0,1.25,358.12637,549.45456)">
			<path id="path582" fill="none" stroke="#E63047" stroke-width="0.2754" d="M33.796,595.473l0.536-0.179l-0.179-1.432l-0.358,0.18
				V595.473z"/>
		</g>
		<g id="g584" transform="matrix(1.25,0,0,1.25,357.66738,551.52081)">
			<path id="path586" fill="#E63047" d="M35.952,594.715l-0.536,0.358l-1.61-0.895l0.358-0.359L35.952,594.715z"/>
		</g>
		<g id="g588" transform="matrix(1.25,0,0,1.25,357.66738,551.52081)">
			<path id="path590" fill="none" stroke="#E63047" stroke-width="0.2754" d="M35.952,594.715l-0.536,0.358l-1.61-0.895l0.358-0.359
				L35.952,594.715z"/>
		</g>
		<g id="g592" transform="matrix(1.25,0,0,1.25,355.60075,550.83206)">
			<path id="path594" fill="#E63047" d="M34.384,595.444l0.358-0.178l-0.536-1.431l-0.358,0.357L34.384,595.444z"/>
		</g>
		<g id="g596" transform="matrix(1.25,0,0,1.25,355.60075,550.83206)">
			<path id="path598" fill="none" stroke="#E63047" stroke-width="0.2754" d="M34.384,595.444l0.358-0.178l-0.536-1.431
				l-0.358,0.357L34.384,595.444z"/>
		</g>
		<g id="g600" transform="matrix(1.25,0,0,1.25,355.60075,553.12706)">
			<path id="path602" fill="#E63047" d="M35.995,594.325l-0.358,0.357l-1.789-0.715l0.358-0.179L35.995,594.325z"/>
		</g>
		<g id="g604" transform="matrix(1.25,0,0,1.25,355.60075,553.12706)">
			<path id="path606" fill="none" stroke="#E63047" stroke-width="0.2754" d="M35.995,594.325l-0.358,0.357l-1.789-0.715
				l0.358-0.179L35.995,594.325z"/>
		</g>
		<g id="g608" transform="matrix(1.25,0,0,1.25,353.7635,552.43831)">
			<path id="path610" fill="#E63047" d="M34.244,595.411l0.538-0.357l-0.538-1.252l-0.358,0.358L34.244,595.411z"/>
		</g>
		<g id="g612" transform="matrix(1.25,0,0,1.25,353.7635,552.43831)">
			<path id="path614" fill="none" stroke="#E63047" stroke-width="0.2754" d="M34.244,595.411l0.538-0.357l-0.538-1.252
				l-0.358,0.358L34.244,595.411z"/>
		</g>
		<g id="g616" transform="matrix(1.25,0,0,1.25,354.2225,554.50331)">
			<path id="path618" fill="#E63047" d="M35.666,594.475l-0.358,0.358l-0.716-0.358l-0.537-0.359l-0.179-0.358L35.666,594.475z"/>
		</g>
		<g id="g620" transform="matrix(1.25,0,0,1.25,354.2225,554.50331)">
			<path id="path622" fill="none" stroke="#E63047" stroke-width="0.2754" d="M35.666,594.475l-0.358,0.358l-0.716-0.358
				l-0.537-0.359l-0.179-0.358L35.666,594.475z"/>
		</g>
		<g id="g624" transform="matrix(1.25,0,0,1.25,344.80975,501.27281)">
			<path id="path626" fill="none" stroke="#006F61" stroke-width="1.0707" d="M57.694,594.846
				c-13.066,0-23.626,10.911-23.626,24.147c0,13.414,10.56,24.147,23.626,24.147c13.066,0,23.626-10.734,23.626-24.147
				C81.32,605.757,70.76,594.846,57.694,594.846z"/>
		</g>
		<g id="g628" transform="matrix(1.25,0,0,1.25,364.784,471.44618)">
			<path id="path630" fill="#BCCCD3" d="M41.714,642.855c-0.894-0.537-6.085-5.902-8.054-7.871
				c0.358-4.114,7.696-39.529,8.054-39.529c0.179,0,7.516,35.415,7.876,39.529C47.8,636.953,42.431,642.318,41.714,642.855z"/>
		</g>
		<g id="g632" transform="matrix(1.25,0,0,1.25,364.784,471.44618)">
			<path id="path634" fill="#006F61" d="M41.714,642.855c-0.894-0.537-6.085-5.902-8.054-7.871
				c0.358-4.114,7.696-39.529,8.054-39.529V642.855z"/>
		</g>
		<g id="g636" transform="matrix(1.25,0,0,1.25,364.784,532.24694)">
			<path id="path638" fill="#BCCCD3" d="M41.714,594.214c-0.894,0.714-6.085,5.903-8.054,7.87
				c0.358,4.115,7.696,39.529,8.054,39.529c0.179,0.18,7.516-35.414,7.876-39.529C47.8,600.117,42.431,594.929,41.714,594.214z"/>
		</g>
		<g id="g640" transform="matrix(1.25,0,0,1.25,375.11488,532.24694)">
			<path id="path642" fill="#006F61" d="M33.45,594.214c0.716,0.714,6.086,5.903,7.876,7.87c-0.359,4.115-7.696,39.529-7.876,39.529
				V594.214z"/>
		</g>
		<g id="g644" transform="matrix(1.25,0,0,1.25,287.184,521.92219)">
			<path id="path646" fill="#BCCCD3" d="M103.794,602.474c-0.716,0.714-5.906,6.261-7.875,8.05
				c-3.939-0.358-60.497-7.87-60.497-8.05c-0.179-0.356,56.558-7.691,60.497-8.049C97.889,596.214,103.079,601.76,103.794,602.474z"
				/>
		</g>
		<g id="g648" transform="matrix(1.25,0,0,1.25,287.4135,532.24694)">
			<path id="path650" fill="#006F61" d="M103.611,594.214c-0.716,0.714-5.906,6.261-7.875,8.05
				c-3.939-0.358-60.497-7.87-60.497-8.05H103.611z"/>
		</g>
		<g id="g652" transform="matrix(1.25,0,0,1.25,375.11488,521.92219)">
			<path id="path654" fill="#BCCCD3" d="M33.45,602.474c0.537,0.714,5.727,6.261,7.695,8.05c3.938-0.358,60.855-7.87,60.855-8.05
				c0.179-0.356-56.916-7.691-60.855-8.049C39.177,596.214,33.987,601.76,33.45,602.474z"/>
		</g>
		<g id="g656" transform="matrix(1.25,0,0,1.25,375.11488,521.92219)">
			<path id="path658" fill="#006F61" d="M33.45,602.474c0.537-0.714,5.727-6.26,7.695-8.049c3.938,0.358,60.855,7.693,60.855,7.87
				L33.45,602.474z"/>
		</g>
		<g id="g660" transform="matrix(1.25,0,0,1.25,445.82675,616.91081)">
			<path id="path662" fill="#004565" d="M36.122,593.558h-1.611v4.293h-1.073v-4.293h-1.431v-1.073h4.116V593.558z M43.104,597.851
				h-0.895v-4.293h-0.18l-1.432,4.293h-1.073l-1.432-4.293v4.293h-1.076v-5.366h1.79l1.253,3.577l1.254-3.577h1.79V597.851z"/>
		</g>
		<g id="g668" transform="matrix(1.25,0,0,1.25,276.85313,432.21156)">
			<path fill="#BCCCD3" d="M112.059,754.332c-43.3,0-78.527-35.927-78.527-80.089c0-44.063,35.227-79.911,78.527-79.911
				c43.202,0,78.348,35.847,78.348,79.911C190.408,718.405,155.261,754.332,112.059,754.332L112.059,754.332z M112.059,598.18
				c-41.178,0-74.679,34.122-74.679,76.062c0,42.04,33.502,76.242,74.679,76.242c41.079,0,74.5-34.202,74.5-76.242
				C186.559,632.301,153.138,598.18,112.059,598.18L112.059,598.18z M112.059,746.998c-39.353,0-71.369-32.638-71.369-72.755
				c0-40.118,32.016-72.756,71.369-72.756c39.253,0,71.189,32.638,71.189,72.756C183.248,714.36,151.312,746.998,112.059,746.998
				L112.059,746.998z M112.059,605.335c-37.231,0-67.521,30.912-67.521,68.908c0,37.995,30.29,68.907,67.521,68.907
				c37.131,0,67.341-30.913,67.341-68.907C179.4,636.247,149.19,605.335,112.059,605.335L112.059,605.335z"/>
		</g>
	</g>
</g>
</svg>
