<?xml version="1.0" encoding="utf-8"?>
<!-- Generator: Adobe Illustrator 14.0.0, SVG Export Plug-In . SVG Version: 6.00 Build 43363)  -->
<!DOCTYPE svg PUBLIC "-//W3C//DTD SVG 1.1//EN" "http://www.w3.org/Graphics/SVG/1.1/DTD/svg11.dtd">
<svg version="1.1" xmlns="http://www.w3.org/2000/svg" xmlns:xlink="http://www.w3.org/1999/xlink" x="0px" y="0px" width="200px"
	 height="200px" viewBox="44 746 200 200" enable-background="new 44 746 200 200" xml:space="preserve">
<g id="Layer_1">
	<g>
		<path fill="#FFFFFF" stroke="#FFFFFF" stroke-width="0.5877" d="M7218.837,7645.277c-2.438,4.812-9.872,18.5-9.485,20.523
			c0.48,2.512,2.055,4.428,1.979,6.965c-0.05,1.572-1.985,5.439-3.489,6.526c-1.259,0.907-5.062,8.043-20.085,0.963l-2.007-1.058
			c-14.529-8.039-10.977-15.297-10.977-16.85c0-1.854,1.998-5.688,3.246-6.646c2.012-1.546,4.485-1.396,6.805-2.473
			c1.867-0.875,7.51-12.213,9.984-17.006l0.039-0.107c-49.488-24.303-83.552-75.2-83.552-134.059
			c0-82.435,66.83-149.265,149.265-149.265c82.436,0,149.266,66.83,149.266,149.265c0,82.436-66.83,149.266-149.266,149.266
			c-14.543,0-28.597-2.079-41.889-5.959L7218.837,7645.277z"/>
		<path fill="#FC1921" d="M7310.404,7445.783c2.517,1.566,5.261,3.033,7.347,4.908l23.97-30.517
			c4.913,4.281,8.823,8.417,12.65,14.433l-27.979,24.561c2.26,2.576,5.166,7.668,6.987,11.215l28.75-19.906
			c0.55,1.073,2.117,7.637,1.867,9.559l-28.22,18.234c0.455,2.035,0.771,2.481,1.106,5.184c0,0,32.472-18.421,32.487-18.653
			c-3.542-34.866-33.861-63.302-69.663-63.302c-14.872,0-28.646,4.697-39.925,12.686c-0.19,0.135,1.869,32.676,1.869,32.676
			c2.289-1.432,5.125-2.766,6.269-3.146l-0.571-29.678c2.77-2.195,6.537-4.008,9.448-5.061l-0.67,32.158
			c4.008-0.951,11.163-1.527,13.456-1.047l5.82-35.023c7.063-0.668,14.121,0.099,20.326,2.104l-13.551,35.209
			c2.684,0.821,5.577,2.053,8.221,3.407"/>
		<path fill="none" stroke="#FFFFFF" stroke-width="2.2041" d="M7286.66,7541.208c28.023,0,50.738-22.722,50.738-50.739
			c0-28.025-22.715-50.742-50.738-50.742s-50.743,22.717-50.743,50.742C7235.917,7518.486,7258.637,7541.208,7286.66,7541.208z"/>
		<path fill="#FC1921" d="M7244.924,7555.453c-1.412,2.329-12.27,8.79-14.615,5.148c-3.91-6.071,8.041-15.715,5.781-18.412
			c-1.359-1.615-6.973,2.603-11.557,7.881c0,0-2.547,4.88-6.016,11.029l-8.156,0.071c-0.5-0.377,10.377-16.298,8.266-18.151
			c-3-2.621-20.595,25.819-28.863,19.78c-0.695-0.512-2.562-2.624-0.076-7.938c-3.701,4.886-12.697,8.841-16.484,5.559
			c-8.127-7.044,13.936-30.667,22.833-22.48c0.696,0.638,0.948,1.26,0.896,1.754l1.196-1.885l8.045-0.072
			c-3.655,9.843-11.235,18.748-9.291,20.147c3.384,2.435,22.839-27.389,29.462-20.891c2.057,2.021,1.915,4.664,1.379,6.104
			c4.691-4.893,14.598-9.605,17.799-6.281c3.896,4.037-7.959,15.966-5.349,17.631c1.481,0.947,6.042-2.536,6.042-2.536
			 M7179.284,7555.41c4.358,4.835,17.543-10.475,14.856-14.801C7190.572,7536.122,7175.384,7551.083,7179.284,7555.41z"/>
		<path fill="#FC1921" d="M7267.668,7546.346c7.393,0.592,15.95-3.896,14.373-7.41c-0.93-2.072-6.518-1.259-9.811,0.094
			L7267.668,7546.346z M7291.758,7552.52c-8.088,7.346-16.791,10.088-19.658,7.897c-4.781-3.653-0.424-8.401-2.852-10.448
			c-0.664-0.554-1.775-0.699-3.591-0.57l9.399-14.584c5.045-2.584,13.289-3.978,14.672,0.744
			c1.932,6.596-7.273,12.303-13.658,13.357c4.859,0.891,0.054,6.299,5.027,6.949c2.213,0.293,8.666-4.321,12.039-8.986"/>
		<path fill="#FC1921" d="M7325.467,7549.889c-12.592,9.047-29.176,11.872-32.701,4.161c-5.813-12.713,26.438-28.647,30.25-18.911
			c2.709,6.916-10.131,13.102-20.711,13.198c-0.445,0.004-0.293-0.108-0.332,0.004c-0.924,2.681,0.383,5.616,5.344,5.574
			s12.326-2.099,19.324-8.338 M7302.721,7545.797c6.387-0.83,12.789-6.154,11.719-8.593
			C7312.932,7533.786,7304.098,7539.941,7302.721,7545.797z"/>
		<path fill="#FC1921" d="M7370.137,7539.989c-4.15,4.228-10.093,7.239-10.843,7.819c-11.747,9.047-29.151,12.367-33.028,4.828
			c-6.586-12.818,26.274-27.527,28.82-18.568c1.854,6.525-9.589,12.104-19.283,12.853c-0.441,0.039-0.293-0.108-0.328,0.007
			c-0.927,2.678,0.381,5.621,5.342,5.571c4.959-0.046,10.332-2.386,17.684-6.888c1.643-1.01,8.555-4.824,11.93-9.479
			 M7336.107,7544.166c7.273-0.286,13.812-6.092,11.936-8.708C7345.707,7532.189,7336.617,7539.643,7336.107,7544.166z"/>
		<path fill="#FC1921" d="M7364.875,7543.566c0.549,5.674-5.07,5.832-5.352,5.562c-0.866,0.95-0.199,5.04,4.131,5.253
			c7.199,0.362,7.092-9.106,6.14-12.625c-0.649-2.407-0.175-5.043,0.206-7.358c0.953-5.797,8.464-11.84,11.125-9.947
			c1.818,1.301,0.818,5.617-4.098,9.855c-0.922,0.894-1.522,1.041-0.188,3.783c1.446,2.977,3.925,10.139-0.116,15.605
			c-3.156,4.271-8.562,4.849-13.052,4.087c-2.872-0.489-6.085-2.396-7.411-4.548
			C7350.501,7543.921,7362.396,7537.529,7364.875,7543.566z"/>
		<path fill="#0C2D82" d="M7287.803,7515.884c1.081-1.507,2.096-2.905,3.092-4.229c0.239-0.319,0.877-1.403,1.195-2.216
			c1.734-4.449-2.631-11.25-8.762-14.142c-6.094-2.873-12.63-2.272-14.586,0.634c-0.489,0.723-1.081,1.648-1.196,2.026
			c-0.68,2.228-1.444,4.422-2.272,6.812c-9.666-6.455-15.342-13.385-12.715-18.396c4.873-9.294,20.09-7.728,35.982,0.079
			c15.895,7.803,26.643,19.652,22.15,28.181C7308.029,7519.695,7298.917,7519.592,7287.803,7515.884z"/>
		<path fill="#0C2D82" d="M7306.857,7534.792c-0.812,0.296-2.83,1.376-4.391,2.363c-3.15-3.582-14.222-11.253-20.144-13.31
			c-0.091-0.029,1.501-2.115,1.501-2.115c6.105,2.479,20.646,10.916,22.936,13.016"/>
		<g>
			<path fill="#0C2D82" d="M7335.686,7535.971c1.316-0.936,4.9-2.396,5.002-2.531c0.119-0.49,0.188-1.463,0.188-1.463
				c3.817-17.939-3.962-32.539-10.065-38.266c-5.959-5.589-3.125-1.413-1.146,1.146c1.406,1.815,2.08,2.881,2.671,4.004
				c3.104,5.891,1.633,5.16-2.479,0.955c-8.111-8.287-22.234-18.797-35.211-25.284c-17.717-8.86-39.412-13.075-51.433-12.694
				c4.961-2.29,7.685-2.536,12.783-3.052c4.521-0.457,2.75-1.354,0-1.146c-9.658,0.738-31.181,1.076-34.54,17.939
				c-2.855,14.318,8.777,26.527,20.036,30.916c9.786,3.814,20.138,8.361,20.138,8.361l1.049-3.207
				c-5.727-3.056-15.707-6.34-20.992-8.396c-6.873-2.671-19.172-12.136-17.561-25.003c2.674-21.354,42.809-14.324,69.469-0.953
				c11.551,5.795,27.014,17.03,34.612,24.363c8.709,8.403,10.235,11.219,10.808,20.108
				C7339.039,7527.203,7337.527,7532.095,7335.686,7535.971"/>
			<text transform="matrix(1 0 0 1 -6505.8574 -5942.416)" fill="#0C2D82" font-family="'Helvetica'" font-size="9"> </text>
		</g>
		<path fill="none" stroke="#FC1921" stroke-width="1.0213" stroke-linecap="round" stroke-linejoin="round" d="M7339.202,7414.514
			c2.675-3.439,9.508-12.236,12.024-14.128"/>
		<polyline fill="none" stroke="#FC1921" stroke-width="1.0213" stroke-linecap="round" stroke-linejoin="round" points="
			7339.968,7398.859 7345.312,7406.493 7355.234,7409.93 		"/>
		<polyline fill="none" stroke="#FC1921" stroke-width="1.0213" stroke-linecap="round" stroke-linejoin="round" points="
			7334.242,7404.202 7341.496,7411.457 7349.512,7415.271 		"/>
		<path fill="#FC1921" d="M7403.1,7501.54c0-78.821-63.896-142.722-142.715-142.722c-70.221,0-128.598,50.721-140.5,117.521
			l13.848-14.667c17.164-53.467,67.293-92.163,126.461-92.163c73.336,0,132.791,59.451,132.791,132.79l0.08,0.105
			c-0.863,24.806-5.724,35.441-14.613,41.854l-0.791,6.518c3.902-3.002,15.723-15.502,23.051-30.602
			c1.991-4.109,2.543-14.719,2.479-18.398L7403.1,7501.54z"/>
		<path fill="#FC1921" d="M7385.871,7546.229c-18.028,51.947-67.404,87.315-125.486,87.819
			c-69.363,0.601-132.197-57.979-132.197-131.319l0,0c-1.035-14.821,3.248-24.315,6.748-30.752
			c3.597-6.623,11.256-15.36,18.045-14.031c10.521,2.066,3.754,15.803-5.182,31.381c-8.732,15.229-19.314,31.223-10.799,40.427
			c6.893,7.451,21.002,5.756,29.632-2.81l-26.623,49.98l11.817,0.088l51.41-97.046l-11.906,0.33l-21.021,39.114
			c-6.773,6.347-17.779,12.174-24.07,7.826c-12.484-8.621,36.408-55.317,18.416-70.502c-14.369-12.125-29.979,5.979-34.928,14.564
			c-4.053,7.035-11.701,17.858-11.879,31.191l0.01-0.574c0,78.816,63.899,142.714,142.718,142.714
			c67.2,0,123.556-46.448,138.706-108.991c0.574-2.295,1.187-5.099,1.187-5.099
			C7396.459,7536.845,7385.871,7546.229,7385.871,7546.229z"/>
		
			<line fill="none" stroke="#FC1921" stroke-width="1.0213" stroke-linecap="round" stroke-linejoin="round" x1="7184.234" y1="7428.633" x2="7196.258" y2="7426.914"/>
		<path fill="none" stroke="#FC1921" stroke-width="1.0213" stroke-linecap="round" stroke-linejoin="round" d="M7163.626,7407.656
			c28.673,22.9,47.043,58.158,47.043,97.707c0,10.699-1.219,19.828-3.715,29.771"/>
		<path fill="none" stroke="#FC1921" stroke-width="1.0213" stroke-linecap="round" stroke-linejoin="round" d="M7195.812,7564.906
			c-6.367,11.812-14.619,22.438-24.426,31.432c-4.58,4.197-3.174,1.78-3.174,1.78"/>
		<polyline fill="none" stroke="#FC1921" stroke-width="1.0213" stroke-linecap="round" stroke-linejoin="round" points="
			7177.375,7406.884 7167.066,7410.701 7163.633,7421.197 		"/>
		
			<line fill="none" stroke="#FC1921" stroke-width="1.0213" stroke-linecap="round" stroke-linejoin="round" x1="7173.173" y1="7415.666" x2="7182.336" y2="7412.229"/>
		
			<line fill="none" stroke="#FC1921" stroke-width="1.0213" stroke-linecap="round" stroke-linejoin="round" x1="7176.229" y1="7419.1" x2="7185.771" y2="7416.043"/>
		
			<line fill="none" stroke="#FC1921" stroke-width="1.0213" stroke-linecap="round" stroke-linejoin="round" x1="7180.046" y1="7423.684" x2="7192.26" y2="7421.771"/>
		
			<line fill="none" stroke="#FC1921" stroke-width="1.0213" stroke-linecap="round" stroke-linejoin="round" x1="7190.732" y1="7436.848" x2="7203.902" y2="7435.702"/>
		<polyline fill="none" stroke="#FC1921" stroke-width="1.0213" stroke-linecap="round" stroke-linejoin="round" points="
			7187.486,7454.021 7195.505,7445.627 7208.863,7445.245 		"/>
		<polyline fill="none" stroke="#FC1921" stroke-width="1.0213" stroke-linecap="round" stroke-linejoin="round" points="
			7191.113,7462.232 7199.514,7454.021 7212.3,7454.789 		"/>
		
			<line fill="none" stroke="#FC1921" stroke-width="1.0213" stroke-linecap="round" stroke-linejoin="round" x1="7168.021" y1="7425.586" x2="7172.221" y2="7415.666"/>
		
			<line fill="none" stroke="#FC1921" stroke-width="1.0213" stroke-linecap="round" stroke-linejoin="round" x1="7172.982" y1="7430.551" x2="7177.182" y2="7420.246"/>
		
			<line fill="none" stroke="#FC1921" stroke-width="1.0213" stroke-linecap="round" stroke-linejoin="round" x1="7175.658" y1="7434.749" x2="7181.002" y2="7424.635"/>
		
			<line fill="none" stroke="#FC1921" stroke-width="1.0213" stroke-linecap="round" stroke-linejoin="round" x1="7179.279" y1="7439.52" x2="7185.389" y2="7430.359"/>
		
			<line fill="none" stroke="#FC1921" stroke-width="1.0213" stroke-linecap="round" stroke-linejoin="round" x1="7182.908" y1="7445.055" x2="7189.779" y2="7437.609"/>
		<polyline fill="none" stroke="#FC1921" stroke-width="1.0213" stroke-linecap="round" stroke-linejoin="round" points="
			7194.74,7473.109 7203.52,7464.331 7217.26,7465.475 		"/>
		
			<line fill="none" stroke="#FC1921" stroke-width="1.0213" stroke-linecap="round" stroke-linejoin="round" x1="7206.955" y1="7474.827" x2="7219.359" y2="7478.07"/>
		
			<line fill="none" stroke="#FC1921" stroke-width="1.0213" stroke-linecap="round" stroke-linejoin="round" x1="7206.764" y1="7474.445" x2="7203.137" y2="7478.07"/>
		
			<line fill="none" stroke="#FC1921" stroke-width="1.0213" stroke-linecap="round" stroke-linejoin="round" x1="7209.436" y1="7486.852" x2="7220.889" y2="7490.855"/>
		
			<line fill="none" stroke="#FC1921" stroke-width="1.0213" stroke-linecap="round" stroke-linejoin="round" x1="7200.273" y1="7494.863" x2="7209.244" y2="7485.896"/>
		<polyline fill="none" stroke="#FC1921" stroke-width="1.0213" stroke-linecap="round" stroke-linejoin="round" points="
			7222.986,7506.129 7210.391,7500.784 7200.273,7508.797 		"/>
		<polyline fill="none" stroke="#FC1921" stroke-width="1.0213" stroke-linecap="round" stroke-linejoin="round" points="
			7200.466,7520.63 7210.201,7514.143 7222.029,7518.915 		"/>
		<polyline fill="none" stroke="#FC1921" stroke-width="1.0213" stroke-linecap="round" stroke-linejoin="round" points="
			7197.605,7531.51 7208.863,7526.928 7220.697,7531.889 		"/>
		
			<line fill="none" stroke="#FC1921" stroke-width="1.0213" stroke-linecap="round" stroke-linejoin="round" x1="7206.955" y1="7535.134" x2="7212.872" y2="7540.102"/>
		
			<line fill="none" stroke="#FC1921" stroke-width="1.0213" stroke-linecap="round" stroke-linejoin="round" x1="7204.091" y1="7546.587" x2="7206.193" y2="7548.305"/>
		
			<line fill="none" stroke="#FC1921" stroke-width="1.0213" stroke-linecap="round" stroke-linejoin="round" x1="7211.035" y1="7551.738" x2="7212.938" y2="7552.952"/>
		
			<line fill="none" stroke="#FC1921" stroke-width="1.0213" stroke-linecap="round" stroke-linejoin="round" x1="7204.475" y1="7559.182" x2="7208.482" y2="7562.809"/>
		
			<line fill="none" stroke="#FC1921" stroke-width="1.0213" stroke-linecap="round" stroke-linejoin="round" x1="7195.314" y1="7565.673" x2="7202.564" y2="7572.35"/>
		
			<line fill="none" stroke="#FC1921" stroke-width="1.0213" stroke-linecap="round" stroke-linejoin="round" x1="7194.359" y1="7566.625" x2="7186.154" y2="7565.859"/>
		<polyline fill="none" stroke="#FC1921" stroke-width="1.0213" stroke-linecap="round" stroke-linejoin="round" points="
			7197.221,7581.324 7190.732,7573.111 7181.002,7571.971 		"/>
		<polyline fill="none" stroke="#FC1921" stroke-width="1.0213" stroke-linecap="round" stroke-linejoin="round" points="
			7175.837,7578.448 7185,7579.4 7191.107,7587.993 		"/>
		<polyline fill="none" stroke="#FC1921" stroke-width="1.0213" stroke-linecap="round" stroke-linejoin="round" points="
			7170.493,7583.793 7179.273,7586.464 7185.764,7593.334 		"/>
		<polyline fill="none" stroke="#FC1921" stroke-width="1.0213" stroke-linecap="round" stroke-linejoin="round" points="
			7167.25,7588.755 7175.076,7591.044 7180.802,7597.533 		"/>
		<polyline fill="none" stroke="#FC1921" stroke-width="1.0213" stroke-linecap="round" stroke-linejoin="round" points="
			7173.928,7601.924 7170.111,7595.816 7165.15,7593.909 		"/>
		<path fill="none" stroke="#FC1921" stroke-width="1.0213" stroke-linecap="round" stroke-linejoin="round" d="M7327.373,7556.501
			c4.197,7.635,22.521,30.151,32.439,35.118"/>
		
			<line fill="none" stroke="#FC1921" stroke-width="1.0213" stroke-linecap="round" stroke-linejoin="round" x1="7320.5" y1="7555.738" x2="7324.316" y2="7555.357"/>
		<polyline fill="none" stroke="#FC1921" stroke-width="1.0213" stroke-linecap="round" stroke-linejoin="round" points="
			7333.096,7558.409 7330.044,7561.461 7321.646,7562.991 		"/>
		
			<line fill="none" stroke="#FC1921" stroke-width="1.0213" stroke-linecap="round" stroke-linejoin="round" x1="7325.083" y1="7569.857" x2="7336.532" y2="7569.477"/>
		<polyline fill="none" stroke="#FC1921" stroke-width="1.0213" stroke-linecap="round" stroke-linejoin="round" points="
			7346.457,7567.952 7340.35,7575.203 7331.189,7577.881 		"/>
		<polyline fill="none" stroke="#FC1921" stroke-width="1.0213" stroke-linecap="round" stroke-linejoin="round" points="
			7351.036,7572.913 7345.503,7579.785 7335.389,7584.364 		"/>
		
			<line fill="none" stroke="#FC1921" stroke-width="1.0213" stroke-linecap="round" stroke-linejoin="round" x1="7339.968" y1="7588.943" x2="7348.365" y2="7583.982"/>
		<polyline fill="none" stroke="#FC1921" stroke-width="1.0213" stroke-linecap="round" stroke-linejoin="round" points="
			7358.29,7580.934 7352.943,7587.418 7344.93,7592.764 		"/>
		
			<line fill="none" stroke="#FC1921" stroke-width="1.0213" stroke-linecap="round" stroke-linejoin="round" x1="7356" y1="7575.969" x2="7349.893" y2="7584.364"/>
		
			<line fill="none" stroke="#FC1921" stroke-width="1.0213" stroke-linecap="round" stroke-linejoin="round" x1="7341.496" y1="7561.846" x2="7335.77" y2="7568.336"/>
		<polyline fill="none" stroke="#FC1921" stroke-width="1.0213" stroke-linecap="round" stroke-linejoin="round" points="
			7361.723,7585.13 7359.051,7590.477 7351.801,7595.434 		"/>
		<path fill="#FC1921" d="M7238.566,7594.023c-7.988,13.949-28.168,51.955-34.953,67.64c-1.773,4.096-2.191,5.948-0.432,8.015
			c0.338,0.4,0.885,1.397,0.977,1.758c0.367,1.403-1.232,3.228-2.073,3.778c-1.745,1.136-5.502,1.425-12.251-1.665
			c-6.747-3.09-8.441-6.847-8.544-8.931c-0.049-1.004,0.483-3.366,1.836-3.899c0.345-0.134,1.472-0.279,1.994-0.238
			c2.704,0.211,4.183-1.545,6.456-5.388c9.304-15.729,29.176-52.354,36.117-66.473c4.066-8.279,26.606-52.015,37.574-83.677
			c0.823-2.385,1.586-4.697,2.267-6.93c0.114-0.378,0.706-1.304,1.194-2.025c1.955-2.905,8.494-3.506,14.59-0.635
			c6.125,2.888,10.492,9.691,8.755,14.137c-0.315,0.814-0.952,1.9-1.192,2.221c-0.999,1.32-2.043,2.746-3.124,4.248
			C7271.837,7538.098,7247.645,7578.176,7238.566,7594.023z M7187.881,7661.745c0.115,0.323,0.533,0.743,1.66,0.479
			c0.453-0.113,0.809-0.533,1.376-1.162c0.949-1.057,2.103-2.676,2.431-4.336c0.213-0.715-0.223-0.377-0.384-0.045
			c-0.165,0.33-3.173,4.147-4.757,4.56C7187.988,7661.301,7187.877,7661.188,7187.881,7661.745z M7213.828,7624.46
			c-2.057,4.104-14.537,28.124-20.148,35.379c-0.152,0.193-0.296,0.375-0.441,0.545c-0.146,0.208-0.524,0.392-0.67,0.546
			c-0.176,0.188-0.114,0.336-0.227,0.438c-0.095,0.111,0.053,0.214-0.02,0.318c-0.086,0.133-0.389,0.26-0.496,0.385
			c-0.253,0.271-0.164,0.516-0.375,0.716c-0.371,0.364-0.965,0.585-0.965,0.585c-0.658,0.119-0.432,1,0.121,1.213
			c0.306,0.118,0.611,0.314,0.92,0.496c0.246,0.146,0.496,0.245,0.746,0.591c0.197,0.272-0.129,0.675-0.147,1.05
			c-0.021,0.291,0.099,0.573-0.114,0.783c-0.297,0.287-0.943,0.438-1.482,0.28c-0.641-0.191-1.469-0.688-2.23-1.054
			c-0.947-0.455-1.787-0.76-2.031-0.729c-0.22,0.03-0.713,0.155-0.863,0.383c-0.105,0.15-0.151,0.352,0.132,0.592
			c0.128,0.104,0.522,0.334,0.746,0.459c0.348,0.197,0.653,0.521,1.094,0.742c0.174,0.086,0.332-0.06,0.49,0.01
			c0.213,0.094,0.427,0.41,0.67,0.533c0.289,0.146,0.681,0.389,0.95,0.51c0.18,0.078,0.354,0.416,0.521,0.527
			c0.102,0.065,0.197-0.088,0.292-0.043c0.322,0.16,0.599,0.215,0.806,0.374c0.354,0.289,0.778,0.587,1.187,0.74
			c0.667,0.249,1.301-0.004,1.563-1.206c0.424-1.932,0.953-4.143,1.379-5.631c0.089-0.319,0.32-0.982,0.642-1.887
			c0.062-0.17-0.092-0.352-0.022-0.537c1.281-3.536,3.912-9.788,5.576-13.4c2.213-4.816,12.295-23.045,12.403-23.378
			C7213.939,7624.457,7214.695,7622.96,7213.828,7624.46z M7228.309,7596.211c1.68-3.238,51.808-88.62,56.344-96.432
			c0,0,1.332,0.759,1.121,1.861c-4.566,6.877-33.221,54.988-35.605,59.644c-2.381,4.651-19.631,34.137-30.463,55.185
			c0,0,43.841-74.712,45.579-77.816c1.708-3.059,20.681-33.698,21.827-35.448c0,0,1.195-1.972,1.14-1.86
			c-2.985-4.087-8.548-6.367-13.616-6.212c-0.421,1.987-18.693,46.695-24.324,57.55
			C7244.948,7563.016,7230.477,7592.227,7228.309,7596.211L7228.309,7596.211z M7209.675,7640.372
			c3.013-5.646,42.914-77.853,68.482-116.757c0.704-1.07,11.893-17.723,11.948-18.485c0.062-0.86-0.571-1.868-0.904-2.144
			c-0.559,0.895-6.811,10.99-12.253,19.447c-23.433,38.008-64.513,110.735-66.902,116.336c-0.088,0.215-0.606,1.66-0.696,1.856
			c-0.127,0.274,0.063,0.088-0.146,0.368c-0.564,0.742-1.068,2.068-1.564,2.852c-0.125,0.196-0.259,0.383-0.387,0.58
			c-0.05,0.088,0.014,0.227-0.029,0.317c-0.119,0.268-0.299,0.51-0.404,0.788c-0.041,0.096,0.021,0.232-0.027,0.312
			c-0.334,0.546-0.43,1.091-0.831,1.58c-0.056,0.065,0.015,0.218-0.033,0.308c-0.03,0.059-0.171,0.07-0.185,0.123
			c-0.21,0.75-0.749,1.234-1.088,1.889c-0.049,0.087-0.016,0.211-0.014,0.322c-0.107-0.029-0.189,0.026-0.209,0.115
			c-0.06,0.271-0.168,0.512-0.257,0.756c-0.075,0.203-0.303,0.401-0.348,0.584c-0.104,0.414-0.513,0.657-0.487,1.097
			c-0.324,0.11-0.22,0.222-0.229,0.327c-0.01,0.103-0.1,0.189-0.166,0.264c-0.275,0.295-0.406,0.702-0.528,1.088
			c-0.101,0.324-0.36,0.561-0.476,0.873c-0.026,0.064,0.017,0.154-0.021,0.203c-0.103,0.164,0.099,0.328,0.065,0.468
			c-0.045,0.17-0.443,0.456-0.516,0.604c-0.039,0.086-0.082,0.052-0.125,0.127c-0.416,0.679-0.322,1.353-0.687,2.033
			c-0.062,0.119-0.298,0.315-0.371,0.414c-0.493,0.627-0.365,1.426-0.838,2.01c0.079,0.332-0.194,0.568-0.233,0.881
			c-0.01,0.082,0.057,0.146,0.042,0.229c-0.028,0.284-0.131,0.519-0.184,0.78c-0.185,0.976-0.351,1.883-0.624,2.917
			c-0.2,0.768-0.717,1.105-0.814,1.936c-0.027,0.244,0.193,0.25,0.209,0.332c0.022,0.125,0.045,0.244,0.139,0.314
			c0.082,0.066,0.174-0.018,0.199-0.104c0.209-0.625,0.224-1.068,0.506-1.674c0.115-0.246-0.242-0.582-0.162-0.853
			c0.257-0.813,1.147-1.522,1.384-2.338c0.388-0.154,0.063-0.582,0.213-0.884c0.046-0.082,0.129-0.099,0.211-0.135
			c0.146-0.065-0.146-0.283-0.082-0.404c0.2-0.387,0.621-0.741,0.874-1.104c0.17-0.242,0.377-0.469,0.477-0.707
			c0.174-0.418,0.42-0.684,0.42-1.087c0.002-0.473,0.521-0.86,0.5-1.328c-0.006-0.124,0.142-0.231,0.168-0.337
			c0.134-0.615,0.199-1.189,0.43-1.775c0.074-0.19,0.02-0.426,0.02-0.648c0.289,0.027-0.039-0.34,0.217-0.333
			c-0.078-0.272,0.069-0.545,0.158-0.744c0.368-0.797,0.654-1.649,0.828-2.565c0.039-0.209,0.217-0.363,0.289-0.563
			c0.036-0.099-0.029-0.252,0.026-0.312c0.146-0.154,0.217-0.344,0.407-0.48c0.035-0.02-0.006-0.131,0.019-0.195
			c0.089-0.254,0.408-0.365,0.447-0.668c0.01-0.049,0.157-0.063,0.181-0.121c0.292-0.748,0.627-1.352,0.816-2.109
			c0.105-0.424,0.666-0.734,0.629-1.205c-0.004-0.032,0.158-0.059,0.174-0.118c0.15-0.489,0.131-0.903,0.43-1.33
			c0.053-0.083-0.003-0.217,0.026-0.319c0.021-0.088,0.378-0.106,0.397-0.139c0.252-0.395,0.049-1.021,0.19-1.427
			c0.075-0.226,0.499-0.333,0.634-0.511c0.092-0.119,0.069-0.272,0.178-0.363c0.025-0.021-0.026-0.073-0.023-0.08
			c0.062-0.148,0.072-0.23,0.197-0.35c0.06-0.051,0.096-0.162,0.066-0.265c0.082,0.067,0.029-0.118,0.111-0.054
			c-0.003-0.059-0.003-0.107-0.003-0.164 M7242.264,7564.552c3.506-4.821,20.674-40.86,29.252-66.747l-1.101,0.229
			C7269.504,7501.411,7260.624,7529.618,7242.264,7564.552z"/>
		<path fill="#0C2D82" d="M7261.555,7446.514c8.686-6.01,29.684-11.18,48.475-1.049c13.845,7.465,23.857,19.754,26.719,37.691
			l-10.496,6.016c-9.921-11.263-18.893-17.941-25.766-21.378c-6.869-3.433-22.9-10.305-38.168-11.065L7261.555,7446.514z
			 M7317.238,7454.891l-5.164,2.357l-5.139-2.977l0.599,5.623l-4.491,3.879l5.762,1.098l2.221,5.559l3.052-5.062l5.71-0.292
			l-3.723-4.423L7317.238,7454.891z M7331.975,7477.666l-3.42-0.025l-2.049-2.931l-1.104,3.22l-3.44,0.973l2.868,2.065l-0.208,3.604
			l2.96-1.987l3.189,1.294l-0.907-3.363L7331.975,7477.666z M7289.771,7444.568l-2.475,4.156l-5.039,0.406l3.145,3.643l-1.266,4.896
			l4.566-2.025l4.248,2.813l-0.315-5.022l3.856-2.975l-4.748-1.291L7289.771,7444.568z M7269.723,7446.001l-0.986,3.039
			l-3.188,0.994l2.557,1.894l-0.103,3.334l2.647-1.968l3.147,1.19l-0.937-3.188l2.05-2.48l-3.245-0.135L7269.723,7446.001z"/>
		<path fill="#0C2D82" d="M7358.277,7564.76h-2.27v6.176h-1.533v-6.176h-2.264v-1.34h6.064v1.34H7358.277z M7368.553,7570.936
			h-1.535v-5.979h-0.035l-2.174,5.979h-1.482l-2.105-5.979h-0.031v5.979h-1.539v-7.516h2.662l1.748,4.907h0.035l1.819-4.907h2.64
			v7.516H7368.553z"/>
	</g>
	<g>
		<path fill="#FFFFFF" d="M239.244,913.571c-1.469-0.735-3.04-1.151-4.688-1.249c-0.15-2.116-0.842-4.178-1.43-5.905
			c-0.255-0.748-0.495-1.455-0.65-2.045c-0.74-2.791-0.94-3.932-0.276-5.743c1.411-3.864-3.507-6.086-5.454-6.965
			c0,0-0.603-0.272-0.6-0.272c-0.573-0.26-0.901-0.132-1.773,0.204c-0.708,0.275-1.522,0.821-2.594,1.808
			c0.891-1.466,1.468-3.309,1.612-5.262c0.579-0.418,1.116-1.078,1.55-1.947c1.466-2.926,1.531-7.79-2.677-12.676
			c-1.708-1.982-13.694-12.365-24.24-21.398l-0.04-0.035c3.709-1.195,9.382-3.025,9.332-3.011c0.796-0.212,2.078-0.806,3.255,0.259
			c1.038,1.009,3.076,1.378,4.837,0.136c3.055-2.147,1.362-6.873,0.735-8.634c-1.099-3.096-2.648-4.262-3.759-4.694
			c-1.078-0.421-2.216-0.445-3.199,0.079c-1.527,0.813-1.898,2.121-2.075,3.19c-0.195,1.162-2.048,1.434-5.343,2.263
			c0,0-11.296,3.082-12.1,3.311l-0.059-0.049l-2.736-2.327c-0.531-0.879-1.58-2.454-2.817-3.46
			c-0.213-3.532-2.957-7.736-5.206-9.456c-0.116-2.458-2.09-6.019-4.192-7.315c-9.434-16.648-17.861-27.334-25.751-32.649
			l-0.258-0.172c-1.414-0.948-1.531-1.083-1.588-1.82c-0.484-6.561-2.242-12.85-4.47-16.224c0.881-1.416,2.211-3.935,3.134-7.43
			c0,0,0.994-3.772,0.994-3.771l-1.141,0.754c0.289-0.951,0.579-2.086,0.859-3.462l0.025-0.183c0.084-1.131-0.681-1.556-0.918-1.659
			c-0.1-0.043-0.192-0.065-0.287-0.087c0.085-1.251-0.042-2.757-0.689-4.419L143.692,749l-1.614,1.796
			c-3.303,3.678-8.325,5.595-12.761,7.286c-1.015,0.387-1.975,0.756-2.887,1.131c-7.231,2.989-11.704,6.189-15.92,15.236
			c-0.099,0.083-0.209,0.176-0.33,0.278c-1.915,1.611-5.904,4.966-8.164,11.608l-0.376,1.103l0.98,0.628
			c2.329,1.488,4.843,2.535,8.022,3.649c-11.927,26.662,10.777,42.481,29.777,52.17c-1.102,2.024-1.983,3.917-2.216,6.149
			l-8.514,8.971c-0.819,0.215-2.365,0.722-3.264,1.682c-0.308,0.324-0.593,0.767-0.855,1.307c-0.237,0.051-0.444,0.095-0.624,0.131
			c-5.322,1.067-13.825,3.014-36.391,9.279c-3.261-2.993-8.693-4.911-14.038-4.911c-8.466,0-13.932,4.548-19.537,11.377
			c-8.09,9.858-17.229,36.841-5.119,51.124c2.069,2.444,9.857,10.323,23.201,9.305c3.572-0.273,6.246-0.866,8.604-1.385
			c4.659-1.025,6.785-1.496,11.426,1.622l1.855,1.249l1.755-1.388c2.643-2.088,7.132-1.385,10.745-0.545l7.003,1.634l-3.672-6.184
			c-4.9-8.247-11.843-9.43-18.846-8.819c3.942-1.1,6.559-4.601,8.469-8.751c-0.253,2.733,0.217,5.639,2.798,7.475
			c4.162,2.955,9.376,1.66,13.235-0.729c1.827,1.556,4.275,2.467,6.533,2.369c1.958-0.038,3.642-0.424,5.216-1.191
			c1.044,0.737,2.214,1.177,3.491,1.303c2.115,0.208,4.378-0.48,6.743-2.025c1.231,1.233,2.843,1.906,4.679,1.915
			c0.854,0.004,1.747-0.11,2.651-0.34l-0.092,0.34h12.739l1.713-6.266c0.151,1.237,0.521,2.421,1.239,3.461
			c0.795,1.145,2.336,2.558,5.17,2.793c3.034,0.251,6.675-0.892,9.61-2.952c3.191,3.142,7.216,3.653,11.999,1.511
			c0.947,0.813,2.579,1.771,5.028,1.436c1.682-0.114,3.373-0.829,5.135-2.157c1.45,1.435,3.32,2.205,5.41,2.175
			c3.446-0.054,6.344-2.11,8.616-4.229c2.502,2.562,6.302,5.172,12.132,4.186c1.006-0.169,1.832-0.389,2.563-0.585
			c1.927-0.518,2.174-0.582,3.712,0.72l4.551,3.853l0.477-5.823c0.087-0.29,0.721-2.061,3.811-4.094l4.437-2.927L239.244,913.571z
			 M84.369,925.602c-6.447,1.161-13.113,2.358-18.815-0.465c-4.069-2.009-7.337-7.544-7.44-12.598
			c-0.095-4.575,0.516-9.332,2.168-14.347c0.468,0.502,1.041,0.783,1.611,0.99c1.273,0.462,3.109,0.442,4.641-0.075
			c2.373-0.796,4.677-1.577,6.933-2.346c-0.128,0.135-0.257,0.256-0.384,0.396c-4.808,5.402-6.809,11.788-5.596,17.688
			c-0.691,0.418-1.655,0.951-2.685,1.439c0,0-2.653,1.264-2.781,1.329l-0.719,0.433v0.841c-0.003,0.841-0.003,0.841,3.207,2.772
			c0.012,0.009,1.336,0.874,2.064,2.391l0.857,1.792l1.983-0.051c1.813-0.043,3.254-1.027,4.146-1.812
			c3.068,1.34,6.311,1.025,9.155-0.892c2.404,1.434,4.901,1.715,6.192,1.753C87.374,925.062,85.855,925.336,84.369,925.602z
			 M197.431,892.243h-8.12l-0.065,0.259c-1.065-0.169-2.226-0.146-3.432,0.079c-4.501,0.847-7.943,3.569-10.32,8.102
			c0.264-2.363-0.009-4.2-1.125-5.629c-1.295-1.653-3.121-2.577-5.281-2.67c-0.786-0.034-1.609,0.051-2.447,0.243l0.059-0.258
			h-12.084l0.008-0.023h-1.611c2.187-1.07,3.699-3.311,3.699-5.906c0-3.627-2.951-6.58-6.579-6.58c-2.769,0-5.138,1.72-6.106,4.146
			l1.822-7.14l-14.157,5.579l-2.313,10.138c-4.915-0.709-8.233,1.869-10.324,4.452c0.371-0.682,0.957-1.756,0.908-1.678l1.435-2.304
			l-13.955-0.007l0.393-1.483H96.591c0,0-2.104,8.45-3.067,11.45C94.016,900.842,96,892.355,96,892.355h-9.68
			c20.655-7.154,35.231-12.581,43.441-16.187c3.84-1.687,23.129-8.698,29.584-11.025c4.873-1.754,10.751-3.787,17.46-6.045
			c4.441,6.762,15.814,23.965,22.633,33.17C199.018,892.245,198.396,892.243,197.431,892.243z M151.621,848.841l0.86,0.372
			l-6.349,6.114c-2.539,0-3.405,2.532-3.405,2.532l-4.545,1.268c-0.205-0.207-1.307-0.3-1.307-0.3l5.689-4.942
			C147.229,852.446,151.621,848.841,151.621,848.841z M157.112,850.936l5.489,1.852l-7.617,1.921c0,0-0.617-0.411-1.442-0.479
			L157.112,850.936z"/>
		<path fill="#003263" d="M238.58,914.898c-1.999-0.999-3.952-1.186-5.497-1.094c0.185-2.345-0.648-4.808-1.363-6.905
			c-0.264-0.773-0.513-1.506-0.682-2.146c-0.734-2.772-1.078-4.328-0.233-6.636c0.938-2.565-2.927-4.309-4.576-5.059l-0.698-0.314
			c-0.006-0.002-0.624,0.235-0.624,0.235c-2.15,0.834-6.545,6.062-14.42,16.062c-0.925,1.173-1.864,2.367-2.615,3.301
			c0.487-2.216,2.066-9.392,2.825-12.834c3.034,0.277,5.377-1.646,5.945-4.542c2.521,0.624,5.313-3.082,5.313-7.796
			c1.327,0.09,5.116-5.791-0.817-12.683c-1.807-2.101-16.229-14.527-26.103-22.971L195,851.486l11.933-3.848
			c0.739-0.197,2.094-0.514,2.761-0.457c0.428,0.035,1.351,0.663,1.8,1.158c0.436,0.424,1.634,0.955,3.042-0.07
			c1.902-1.383,1.029-4.623,0.209-6.938c-0.912-2.564-2.043-3.671-2.864-3.993c-0.67-0.259-1.444-0.339-2.187,0.049
			c-1.712,0.885-0.921,2.738-1.858,3.448c0,0-0.27,0.825-5.588,2.121l-12.222,3.474l-0.715,0.203l-0.059-0.051
			c-2.176-1.852-3.527-2.997-3.527-2.997c-0.856-1.466-2.068-3.067-3.15-3.667c0.246-3.592-3.401-8.587-5.266-9.451
			c0.512-1.581-1.626-6.055-3.732-6.987c-6.719-11.902-15.829-26.005-25.501-32.518c-1.544-1.039-2.376-1.505-2.496-3.116
			c-0.542-7.35-2.624-13.689-4.793-16.293c0.798-1.124,2.439-3.82,3.501-7.849c0,0-1.234,0.821-2.18,1.12
			c0.508-0.583,1.755-2.005,2.873-7.512c0.051-0.669-0.514,0.581-1.854,1.351c0.218-0.964,1.358-3.53,0.059-6.871
			c-4.328,4.815-11.259,6.757-16.186,8.795c-7.481,3.09-11.398,6.316-15.283,14.782c-1.376,1.239-5.897,4.398-8.296,11.443
			c2.393,1.53,4.992,2.577,8.682,3.836c0,0,0.03,1.184,0.052,1.316c-11.216,24.507,7.274,39.777,30.312,51.291
			c-1.485,2.667-2.703,4.788-2.835,7.434l-9.163,9.656c0,0-2.09,0.433-2.958,1.358c-0.383,0.408-0.69,1.083-0.883,1.581
			c-0.537,0.119-1.009,0.222-1.386,0.299c-5.58,1.118-14.562,3.213-37.115,9.482c-0.076-0.083-0.151-0.168-0.228-0.248
			c-2.944-2.938-8.194-4.84-13.379-4.84c-7.883,0-13.051,4.332-18.387,10.833c-7.825,9.533-16.728,35.551-5.134,49.223
			c1.953,2.307,9.312,9.751,21.953,8.781c3.467-0.264,6.086-0.843,8.397-1.351c4.776-1.058,7.407-1.633,12.575,1.837l0.956,0.641
			l0.903-0.714c3.141-2.479,8.064-1.743,12.004-0.827l3.608,0.843l-1.893-3.185c-6.153-10.359-15.67-8.648-24.869-6.995
			c-6.685,1.201-13.597,2.443-19.736-0.595c-4.597-2.272-8.151-8.25-8.268-13.9c-0.115-5.567,1.145-11.749,3.077-17.069
			c1.52,1.959,3.448,3.011,5.194,2.548c0.235-0.061,0.452-0.145,0.66-0.237c0.171-0.024,0.34-0.058,0.501-0.115
			c31.289-10.54,52.521-18.243,63.103-22.891c3.879-1.701,23.213-8.733,29.681-11.062c5.731-2.063,12.228-4.294,18.577-6.427
			c3.821,5.834,18.878,28.701,25.423,36.97c-1.291,7.598-3.536,16.648-7.338,18.991c-0.162,0.101-0.358,0.229-0.527,0.331
			c0.826-4.435,3.558-16.161,3.986-17.927l0.475-1.951l-8.975-0.004l-0.152,0.59c-1.162-0.467-2.605-0.58-4.225-0.276
			c-6.948,1.308-11.163,7.707-12.528,19.026c-0.025,0.202-0.051,0.414-0.072,0.577c-1.355,1.558-2.422,1.856-2.741,1.737
			c-0.112-0.043-0.135-0.296-0.131-0.44c0.048-1.343,0.778-3.86,1.485-6.3c1.798-6.201,2.846-10.438,1.1-12.673
			c-1.021-1.302-2.464-2.029-4.175-2.104c-1.502-0.063-3.049,0.382-4.45,1.082l0.253-1.093h-9.312l-0.259,1.259
			c-1.06,5.131-4.146,15.999-6.264,18.479c-0.418,0.489-1.243,0.793-1.816,0.871c0.585-2.808,3.224-12.535,4.927-18.631l0.561-2.003
			l-9.442-0.003l-0.276,1.235c-0.031,0.138-3.108,13.799-5.511,17.989c-0.69,1.202-1.336,1.534-1.58,1.457
			c-0.16-0.049-0.318-0.304-0.291-0.635c0.235-3.199,5.393-23.877,7.359-31.572l0.764-2.992l-10.724,4.226l-2.469,10.814
			c-0.319-0.104-0.674-0.196-1.078-0.268c-6.899-1.159-10.26,5.133-11.522,7.502c-1.621,3.032-3.255,8.021-3.404,11.982
			c-1.001,1.179-2.222,2.078-2.633,2.025c-0.345-0.046-0.434-0.172-0.514-0.327c-1.306-2.565,2.785-12.303,6.109-18.4l1.272-2.337
			l-13.214,0.005l0.391-1.485h-8.132l-0.284,1.222c-1.658,7.122-4.632,16.463-7.243,20.133c-0.312,0.44-0.586,0.672-0.771,0.785
			c0.162-1.689,2.243-11.102,4.196-19.406l0.455-1.942h-9.293l-0.396,1.509c-3.014-1.112-6.962-0.895-10.244,2.798
			c-4.792,5.384-6.589,11.665-5.021,17.368c-0.696,0.521-2.232,1.399-3.732,2.112l-2.652,1.262l2.516,1.517
			c0.01,0.006,1.676,1.052,2.61,3.005l0.441,0.92l1.022-0.022c1.702-0.042,3.033-1.216,3.899-2.122
			c3.118,1.764,6.538,1.434,9.389-0.906c2.578,1.913,5.609,2.08,6.582,2.08c7.974,0,11.024-10.558,13.25-18.269
			c0.296-1.027,0.581-2.008,0.855-2.892h3.055c-0.188,0.457-0.385,0.931-0.588,1.419c-0.888,2.133-1.892,4.552-2.669,6.909
			c-0.864,2.624-2.885,8.77,0.914,11.468c3.744,2.659,8.831,1.246,12.548-1.408c1.767,2.008,4.354,2.861,6.33,2.774
			c2.073-0.04,3.799-0.511,5.406-1.479c1.002,0.932,2.165,1.469,3.475,1.596c2.449,0.239,4.902-1.047,6.874-2.554
			c0.992,1.556,2.515,2.427,4.409,2.437c1.567,0.007,3.223-0.439,4.836-1.25l-0.34,1.25h9.665l3.129-11.451
			c1.811-7.294,3.624-8.14,3.969-8.236c0.155-0.042,0.279-0.003,0.366,0.044c-0.007,0.48-0.404,1.694-0.763,2.79
			c-0.325,0.989-0.728,2.22-1.14,3.695l-0.119,0.417c-0.809,2.861-2.166,7.646-0.136,10.576c0.613,0.883,1.815,1.973,4.071,2.159
			c3.095,0.257,6.946-1.179,9.664-3.471c3.875,4.748,8.526,3.564,12.125,1.721c0.995,1.103,2.335,2.054,4.629,1.741
			c2.014-0.132,3.86-1.35,5.418-2.742c1.238,1.805,3.054,2.788,5.203,2.757c3.487-0.052,6.405-2.55,8.699-4.877
			c2.803,3.258,6.29,5.791,11.823,4.855c0.939-0.16,1.729-0.369,2.426-0.558c2.068-0.555,2.924-0.784,5.058,1.021l2.344,1.986
			l0.251-3.062c-0.001,0.018,0.375-2.402,4.465-5.096l2.285-1.508L238.58,914.898z M147.123,856.31
			c-1.095,0.216-1.627,0.37-2.368,1.058c-0.521,0.483-0.877,1.157-1.067,1.659c-2.064,0.537-4.191,1.084-6.256,1.607
			c-0.471-0.278-1.375-0.644-2.773-0.543c-0.128-0.013-0.499-0.077-0.468-0.467c0.025-0.335,7.713-7.295,7.713-7.295
			c2.146-0.439,10.018-5.015,10.018-5.015l2.409,0.984l-0.178,0.396l-0.344,0.607l-6.231,6.62
			C147.442,856.072,147.313,856.273,147.123,856.31z M154.337,856.23c-0.544-0.402-1.117-0.637-1.648-0.624
			c-1.998,0.03-1.318-0.695-0.863-1.213l5.343-4.99c0,0,4.214,1.752,9.272,3.526C159.112,854.939,155.136,856.016,154.337,856.23z
			 M72.223,921.511l-0.102-0.07C72.155,921.466,72.189,921.484,72.223,921.511L72.223,921.511z M78.453,914.784
			c-0.02,0-0.049,0-0.121-0.09c-0.104-0.134-0.975-1.42,0.158-5.935c0.837-3.331,2.064-5.56,3.453-6.283
			c0.268-0.139,0.642-0.282,1.177-0.262C82.406,908.412,80.437,914.784,78.453,914.784z M127.693,908.758
			c-0.399,1.591-0.811,3.239-1.179,4.937c-0.053,0.244-0.691,0.751-1.577,0.834c-0.32,0.034-0.893,0.009-1.019-0.286
			c-0.799-1.841,0.301-7.775,2.88-10.843c0.763-0.902,1.513-1.365,2.239-1.391C129.067,903.266,128.283,906.397,127.693,908.758z
			 M183.62,914.836c-0.021,0-0.051,0-0.122-0.094c-0.104-0.131-0.974-1.421,0.159-5.932c0.855-3.399,1.99-5.486,3.377-6.201
			c0.469-0.243,1.002-0.306,1.592-0.235C187.81,908.622,185.723,914.836,183.62,914.836z M224.337,915.14
			c-0.366,0.354-1.067,0.596-1.817,0.608c-0.93,0.021-1.789-0.277-2.354-0.822c-2.873-2.695-2.873-2.695-1.488-4.491
			c0.894-1.161,1.678-2.241,2.438-3.289c0.672-0.929,1.305-1.789,1.936-2.605c0.22,1.61,0.681,3.105,1.115,4.502
			C225.061,911.932,225.508,913.65,224.337,915.14z"/>
		<path fill="#003263" d="M155.225,886.439c0-2.808-2.285-5.096-5.094-5.096c-2.807,0-5.093,2.288-5.093,5.096
			s2.286,5.093,5.093,5.093C152.939,891.532,155.225,889.247,155.225,886.439z"/>
		<path fill="#FFF100" d="M138.637,869.904c5.494-2.047,11.724-4.318,15.138-5.556l0.689-0.25c0.784-1.437,0.744-4.292-0.709-5.473
			c-0.322-0.264-0.783-0.453-1.226-0.59c-0.485,0.118-0.896,0.197-1.135,0.193c-0.771,0.199-10.554,2.74-12.729,3.306
			C140.936,863.521,141.316,867.584,138.637,869.904z"/>
		<path fill="#FFF100" d="M155.575,863.695c1.172-0.423,2.71-0.98,2.71-0.98c5.135-1.848,11.326-3.993,18.406-6.369
			c0,0,0.029-0.012,0.074-0.023c-0.151-0.237-0.241-0.373-0.241-0.373c-2.493-0.554-5.355-1.424-8.106-2.345l-12.789,3.496
			c-0.091,0.031-0.193,0.064-0.304,0.099C156.765,858.97,157.505,861.811,155.575,863.695z"/>
		<path fill="#FFF200" d="M112.959,789.088c0,0,3.563,1.402,4.596-3.115c0.56-2.452-1.291-6-3.67-5.005
			c-0.022,0.008,0.427-2.586-1.57-3.47c-4.927,3.024-7.143,8.628-7.143,8.628c4.337-0.924,5.015-2.17,8.314-1.884
			c1.178,0.101,1.737,0.643,2.676,1.332c-1.437-0.323-2.543-0.398-3.749-0.424c-1.68-0.04-4.999,1.138-6.684,1.306
			C105.73,786.456,111.259,788.835,112.959,789.088L112.959,789.088z"/>
		<path fill="#CD1141" d="M151.78,821.116c-1.492,0.243-3.351,0.299-6.193-0.764c-0.11,0.804-2.211,1.988-3.161,2.159
			c6.86,5.829,31.019,14.827,37.923,16.445c1.11,0.257-0.506-4.711-3.54-6.746C174.586,830.712,160.626,827.487,151.78,821.116
			L151.78,821.116z"/>
		<path fill="#CD1141" d="M153.654,820.654c9.541,5.669,19.725,8.76,21.956,9.407c0.461-0.328-0.705-4.687-3.899-5.819
			c-4.769-1.695-8.74-3.375-11.561-5.146c-0.993,0.548-2.471,0.868-5.146-0.208C154.9,819.548,154.699,820.183,153.654,820.654
			L153.654,820.654z"/>
		<path fill="#FFFFFF" d="M124.222,781.62c-0.488,0.792-1.396,1.292-2.389,1.224c-1.421-0.099-2.493-1.331-2.395-2.756
			c0.1-1.422,1.334-2.494,2.756-2.395c0.942,0.065,1.732,0.629,2.129,1.417c-1.778-0.192-2.167,1.528-2.167,1.528
			c-1.152-1.413,0.335-2.225,0.335-2.225c-0.987-0.13-1.93,0.622-2.009,1.758c-0.08,1.136,0.777,2.122,1.912,2.201
			C123.161,782.426,123.823,782.175,124.222,781.62L124.222,781.62z"/>
		<path fill="#003263" d="M238.826,907.261h-1.136v3.082h-0.766v-3.082h-1.132v-0.673h3.032L238.826,907.261L238.826,907.261z
			 M243.959,910.34h-0.766v-2.987h-0.019l-1.087,2.987h-0.739l-1.054-2.987h-0.017v2.99h-0.767v-3.755h1.329l0.872,2.455h0.018
			l0.909-2.455h1.318L243.959,910.34L243.959,910.34z"/>
		<path fill="#CD1141" d="M111.256,800.91c1.094-2.175,7.074-10.248,13.032-10.248c-0.474-1.127,0.111-7.8,5.179-12.88
			c-1.15,0.273-2.706-0.123-3.816-0.595c-0.418-0.281-0.915-0.81-1.834-1.342c-1.258-0.727-2.835-0.379-3.996,0.312
			c-0.684,0.406-5.235,0.291-5.964-0.956c1.941-4.71,5.835-9.587,13.341-12.749c5.116-2.152,11.105-3.444,14.881-7.404
			c0.17,6.132-8.934,10.279-8.93,10.288c5.478-1.237,9.22-4.966,9.22-4.913c-2.356,6.117-8.224,9.544-8.224,9.544
			c1.872-0.323,5.477-1.924,6.974-3.082c0,0-0.661,3.198-5.805,7.762c-0.012-0.016,2.565-0.577,3.989-1.691
			c2.566,3.369,4.492,9.227,4.629,16.252c0.026,1.36,0.658,4.371,1.38,4.715c1.04,0.502,0.169-1.566,0.448-2.475
			c10.456,6.375,18.479,19.168,25.735,31.334c-2.367-0.735-7.456-2.759-10.447-4.332c0.307-0.334,0.36-0.605,0.39-1.008
			c0.169-2.295-1.855-3.75-2.887-4.244c-0.267-0.129-0.466-0.065-0.549,0.046c-0.086,0.114-0.047,0.293,0.03,0.341
			c0.523,0.356,2.513,1.559,2.374,3.527c-0.038,0.52-0.762,1.258-1.797,1.325c-2.562,0.273-6.795-1.923-12.068-7.334
			c-0.165-0.152-0.437-0.518-0.792-0.304c-0.346,0.212-0.27,0.484-0.176,0.628c2.709,4.479,8.231,7.024,8.231,7.024
			c-0.381,1.545-2.283,1.606-4.011,1.554c-6.528-0.198-10.939-7.466-12.137-9.323c-0.231-0.359-0.482-0.45-0.696-0.337
			c-0.231,0.125-0.367,0.222-0.248,0.591c0.187,0.561,2.798,5.991,7.441,8.688c0.62,0.359-1.741,1.853-3.238,1.818
			c-2.708-0.066-9.11-2.57-11.3-11.969c-0.026-0.143-0.16-0.379-0.482-0.309c-0.351,0.08-0.365,0.322-0.314,0.603
			c1.243,10.354,8.886,12.681,11.748,13.02c4.767,4.711,22.005,12.558,39.909,17.817c3.368,0.953,6.81,10.225,4.147,9.438
			c-0.958-0.273-2.197-0.74-3.542-1.191c-8.824-2.959-22.224-8.361-36.695-15.374c-9.995-4.847-26.944-15.76-18.752-30.986
			c1.07-2.271,2.219-3.376,2.38-3.539c0.106-0.058,0.184-0.339,0.16-0.445c-0.363-0.995-1.331-0.911-3.877,3.352
			c-8.715,16.739,8.766,27.67,19.325,32.913c6.813,3.383,18.819,8.532,27.357,11.94l4.697,7.609
			c-4.333-0.86-18.335-6.367-22.434-8.217c0,0,1.489-1.323,0.971-2.561c-0.365-0.859-0.572-1.395-1.728-2.371
			c-1.217-0.744-1.522-0.223-0.992,0.373c0.491,0.55,1.531,2.24,0.527,3.402c-1.654,1.919-6.347,4.068-9.005,5.569
			c-1.16,0.232-1.725,0.207-1.85-0.793c-0.157-1.245,1.62-3.935,3.721-7.294C141.276,840.752,104.88,824.926,111.256,800.91
			L111.256,800.91z"/>
		<path fill="#CD1141" d="M216.168,892.751c2.736,1.212,4.694-4.189,3.641-5.739c-0.353-0.524-2.362-2.712-5.179-5.711l-1.692,7.859
			C214.694,891.274,215.888,892.624,216.168,892.751z"/>
		<path fill="#CD1141" d="M204.141,884.964l0.165-1.391l1.605-0.625l-20.915-26.827h1.863c0,0,11.911,15.408,20.564,26.239
			l5.995-2.344c-8.769-9.279-23.372-24.351-23.372-24.351l1.906,0.051c-0.009-0.154,28.275,29.217,28.275,29.217
			c1.55,1.743,4.189-4.159-0.059-8.884c-2.346-3.753-33.429-29.612-33.429-29.612c0.284,0.616,0.434,1.418,0.567,2.161
			c1.211,5.759-3.136,2.566-14.244-1.174c8.905,14.065,22.469,34.837,30.149,44.556C203.652,889.105,203.95,886.594,204.141,884.964
			z"/>
		<path fill="#CD1141" d="M211.08,897.765c2.278-0.078,4.583-2.062,3.448-3.762l-2.063-2.65L211.08,897.765z"/>
		<path fill="#CD1141" d="M230.915,915.783c1.719-3.143-0.585-7.536-1.402-10.626c-0.734-2.771-1.224-4.758-0.192-7.582
			c0.456-1.246-3.228-2.84-3.843-3.121c-3.143,1.216-16.631,19.63-18.035,20.811c-0.654,0.55-2.185,1.437-1.256-2.611
			c0,0,6.775-30.711,6.727-30.74l-7.151,2.787c-0.804,6.792-2.928,25.922-9.431,29.923c-0.588,0.361-2.564,1.825-3.151,0.68
			c-0.326-0.63,4.2-19.792,4.251-19.997h-5.742l-0.451,1.755c-0.945-1.755-3.334-1.755-4.859-1.466
			c-10.891,2.043-11.066,18.212-11.43,18.774c-3.155,3.888-5.996,2.902-5.912,0.517c0.144-4.132,5.113-15.136,2.918-17.94
			c-2.416-3.089-7.396-0.881-9.887,1.797l0.771-3.311h-6.035c-0.868,4.195-4.01,16.144-6.608,19.189
			c-1.369,1.602-4.854,2.074-4.703,0.361c0.173-1.962,5.091-19.572,5.091-19.572h-6.096c0,0-3.132,13.982-5.682,18.428
			c-2.18,3.805-4.981,2.135-4.818-0.076c0.301-4.04,7.407-31.849,7.407-31.849l-7.076,2.792l-2.854,12.502
			c0,0-0.023-1.177-2.312-1.563c-5.027-0.847-7.817,2.849-9.866,6.687c-1.532,2.867-3.231,8.03-3.231,11.821
			c0,0-2.478,3.257-4.4,3.007c-6.599-0.859,4.411-21.047,4.411-21.047l-12.602,0.002l0.391-1.485h-4.83
			c-1.335,5.746-4.393,16.335-7.493,20.695c-1.681,2.364-3.592,1.703-3.646,0.07c-0.057-1.668,4.245-19.97,4.245-19.97h-6.08
			l-0.576,2.194c-1.705-1.092-6.153-2.862-10.104,1.58c-5.16,5.8-6.021,11.963-4.473,16.605c0.216,0.875-4.783,3.253-4.783,3.253
			s2.054,1.237,3.22,3.674c1.915-0.046,3.531-2.683,3.736-2.551c2.952,2.227,6.563,2.196,9.562-1.021
			c1.826,1.928,4.559,2.627,6.612,2.627c8.192,0,10.661-14.423,12.957-21.16l6.519-0.004c-0.952,2.614-2.83,6.625-4.073,10.404
			c-1.305,3.966-2.103,7.956,0.328,9.683c3.732,2.649,9.005,0.228,11.974-2.401c1.244,2.405,3.842,3.567,5.923,3.478
			c2.297-0.042,4.027-0.639,5.73-1.988c3.176,4.39,8.023,1.044,10.692-1.44c0.464,1.836,1.619,3.419,3.816,3.429
			c2.602,0.014,5.355-1.437,7.5-3.488l-0.945,3.488h6.393l2.811-10.288c3.096-12.46,6.923-9.149,7.228-8.652
			c0.708,1.095-0.464,3.187-1.75,7.787c-0.892,3.188-3.271,10.681,2.425,11.153c3.266,0.271,7.543-1.74,9.747-4.312
			c3.246,5.233,7.156,5.085,12.306,2.124c1.117,1.449,1.952,2.479,4.034,2.188c2.396-0.102,4.761-2.454,6.057-3.814
			c0.727,2.084,2.246,3.852,4.741,3.814c3.479-0.052,6.562-3.296,8.821-5.677c3.063,3.957,6.158,6.572,11.46,5.677
			c3.719-0.628,5.167-2.23,8.765,0.818c0,0,0.249-3.044,5.172-6.288C235.167,914.961,232.438,915.312,230.915,915.783z
			 M78.453,916.365c-1.589,0-2.962-2.136-1.492-7.991c1.06-4.221,3.317-9.125,7.869-7.377
			C84.83,900.997,83.522,916.365,78.453,916.365z M128.055,914.025c-0.443,2.065-4.63,3.051-5.587,0.847
			c-1.599-3.689,2.063-15.663,7.435-14.355C131.769,900.971,129.49,907.401,128.055,914.025z M183.62,916.416
			c-1.589,0-2.964-2.137-1.494-7.987c1.062-4.223,3.194-9.205,8.229-7.234C190.354,901.194,188.823,916.416,183.62,916.416z
			 M225.519,916.197c-1.364,1.431-4.61,1.631-6.448-0.136c-3.726-3.497-3.651-3.988-1.642-6.592
			c2.892-3.753,4.775-6.896,7.362-9.223C223.176,906.772,228.947,912.007,225.519,916.197z"/>
		<path fill="#CD1141" d="M146.616,886.439c0-1.941,1.575-3.516,3.515-3.516c1.942,0,3.516,1.574,3.516,3.516
			s-1.573,3.513-3.516,3.513C148.191,889.952,146.616,888.38,146.616,886.439L146.616,886.439z"/>
		<path fill="#FFF100" d="M190.33,847.498l3.721,3.123l12.54-4.044c0,0,4.644-1.157,4.644-3.341c0-3.365,1.746,3.038,1.035,4.305
			c0,0,0.589,0.568,1.61-0.171c1.022-0.745,0.836-2.786-0.186-5.665c-1.021-2.88-2.113-3.505-3.036-3.333
			c-1.151,0.211-1.188,1.521-1.188,1.521s0.186,1.16-1.115,2.138c-0.661,0.497-2.633,1.365-5.803,1.994L190.33,847.498z"/>
		<path fill="#CD1141" d="M64.196,927.889c-5.329-2.637-9.023-9.246-9.148-15.284c-0.126-6.105,1.341-12.898,3.583-18.709
			c-0.488-0.904-0.895-1.915-1.183-3.006c-1.182-4.48,0.306-8.979,2.941-9.989c0.142-0.069,0.294-0.128,0.462-0.175
			c2.661-0.766,5.203-1.422,7.644-2.118c0.859-0.761,1.726-1.412,2.589-1.919c3.071-1.8,8.952-1.877,12.385,0.626
			c-1.593,1.875-2.967,4.428-0.711,6.528c1.766,1.701,4.668,1.004,5.861-1.025c1.84-3.129,0.339-6.643-1.84-8.879
			c-2.617-2.617-7.451-4.38-12.262-4.38c-6.769,0-11.555,3.419-17.167,10.257c-8.067,9.829-15.843,34.586-5.15,47.199
			c3.583,4.227,10.818,8.979,20.627,8.228c10.722-0.818,13.634-4.85,21.974,0.752c3.923-3.102,9.907-1.926,13.34-1.125
			C98.334,918.358,79.573,935.492,64.196,927.889z"/>
		<path fill="#FFF100" d="M136.616,863.25c-0.467-0.331-1.168-0.552-1.753-0.688c-0.078,0-0.168,0-0.262,0
			c-0.982,0.25-1.777,0.449-1.777,0.449c-3.628,0.903-6.16,1.496-7.521,1.77c-7.398,1.484-18.629,4.352-36.365,9.279
			c1.886,2.544,3.036,6.168,1.043,9.557c-0.862,1.466-2.391,2.479-4.088,2.712c-1.573,0.216-3.115-0.275-4.21-1.331
			c-1.253-1.164-2.806-3.555-0.536-7.187c-0.906-0.39-1.921-0.621-2.955-0.734l-17.184,4.898c-0.086,0.027-0.174,0.049-0.259,0.07
			c-2.205,0.802-3.2,4.732-2.212,8.47c1.017,3.852,3.609,6.797,5.96,6.178c2.35-0.618,3.264-4.483,2.248-8.335
			c-0.39-1.475-0.71-2.474-1.464-3.553c0,0,1.608,1.347,2.369,4.624c0.649,2.812,0.551,5.069-0.238,6.595
			c30.224-10.206,50.79-17.682,61.122-22.216c1.216-0.534,3.968-1.605,8.18-3.185c0,0,0.421-0.155,0.744-0.279
			C138.42,868.674,138.61,864.659,136.616,863.25z"/>
	</g>
</g>
<g id="svg12082">
</g>
<g id="svg31568">
</g>
<g id="CLEVELAND_INDIANS">
</g>
<g id="svg2562">
</g>
<g id="svg3060">
</g>
</svg>
