<?xml version="1.0" encoding="utf-8"?>
<!-- Generator: Adobe Illustrator 14.0.0, SVG Export Plug-In . SVG Version: 6.00 Build 43363)  -->
<!DOCTYPE svg PUBLIC "-//W3C//DTD SVG 1.1//EN" "http://www.w3.org/Graphics/SVG/1.1/DTD/svg11.dtd">
<svg version="1.1" xmlns="http://www.w3.org/2000/svg" xmlns:xlink="http://www.w3.org/1999/xlink" x="0px" y="0px" width="200px"
	 height="200px" viewBox="44 746 200 200" enable-background="new 44 746 200 200" xml:space="preserve">
<g id="Layer_1">
	<g>
		<g>
			<path fill="#051F43" d="M91.888,798.1c17.366-17.369,34.751-34.718,52.103-52.1c23.084,23.098,46.182,46.175,69.276,69.259
				c-2.444,0.139-4.75,1.239-7.212,1.083c-1.984-0.014-3.965-0.007-5.945-0.003c-18.648-18.692-37.365-37.321-55.984-56.041
				c-2.641,2.299-5.061,4.835-7.56,7.286c-10.946,11.018-21.953,21.977-32.919,32.974C99.896,799.068,95.876,798.517,91.888,798.1"
				/>
			<path fill="#74B5E3" d="M104.757,801.015c13.089-13.093,26.142-26.226,39.285-39.261c14.566,14.62,29.148,29.219,43.748,43.805
				c3.548,3.596,7.188,7.103,10.679,10.753c-1.382,0.034-2.767,0.037-4.148,0.037c-14.437-14.41-28.856-28.836-43.27-43.267
				c-2.347,2.367-4.71,4.72-7.066,7.076c-2.376-2.336-4.72-4.706-7.075-7.062c-9.823,9.829-19.662,19.644-29.477,29.483
				C106.542,802.055,105.648,801.533,104.757,801.015"/>
			<path fill="#FFFFFF" d="M143.958,765.956c1.818,1.771,3.602,3.575,5.393,5.376c-1.777,1.815-3.582,3.603-5.383,5.394
				c-1.774-1.788-3.578-3.552-5.336-5.356C140.368,769.528,142.207,767.784,143.958,765.956"/>
			<path fill="#051F43" d="M52.051,799.153c11.383,0.003,22.763,0.003,34.146,0.017c4.445-0.021,8.924,0.261,13.258,1.31
				c3.721,0.911,7.47,2.557,9.938,5.597c2.505,3.054,3.359,7.141,3.229,11.014c0.018,3.087-0.755,6.165-2.129,8.928
				c-3.443-0.552-6.903-1.043-10.337-1.68c-0.041-0.338-0.003-0.67,0.108-0.992c0.782-2.618,1.835-5.14,2.628-7.753
				c-2.167,2.085-4.154,4.354-6.237,6.521c0.163-4.097-0.084-8.4-2.021-12.101c-1.446-2.784-4.073-4.859-7.056-5.776
				c-3.023-1.002-6.277-0.999-9.419-0.711c0.071,19.61,0.014,39.221,0.038,58.834c3.352,0.546,6.693,1.147,10.032,1.774
				c0,1.381,0,2.763-0.006,4.145H52.088c-0.027-1.386-0.034-2.768-0.027-4.148c3.274-0.619,6.555-1.219,9.839-1.768
				c0-19.071,0-38.146,0.003-57.222c-3.288-0.65-6.585-1.239-9.869-1.899C52.031,801.878,52.038,800.517,52.051,799.153"/>
			<path fill="#74B5E3" d="M79.439,804.662c4.144-0.302,8.915,0.112,11.992,3.233c-3.213-1.503-6.812-1.825-10.316-1.605
				c-0.017,5.583,0,11.167,0.014,16.75c-0.003,0.515-0.007,1.026-0.007,1.541c1.652-1.605,3.281-3.237,4.913-4.866
				c0.691,0.715,1.378,1.436,2.065,2.153c-2.302,2.387-4.689,4.689-7.012,7.056c0.003,1.239,0.003,2.475-0.007,3.714
				c-0.552,0.003-1.107,0.007-1.659,0.014C79.429,823.32,79.398,813.993,79.439,804.662"/>
			<path fill="#74B5E3" d="M53.263,804.712c2.475,0.501,4.947,0.995,7.429,1.442c0.044,0.64,0.078,1.28,0.108,1.923
				c-2.536-0.315-5.028-0.897-7.537-1.364V804.712z"/>
			<path fill="#051F43" d="M81.115,806.29c3.504-0.22,7.104,0.102,10.316,1.605c0.986,0.63,1.554,1.703,2.184,2.654
				c-2.553,2.577-5.099,5.167-7.689,7.709c-1.012-0.647-2.031-1.283-3.061-1.899c0.792,0.863,1.595,1.716,2.408,2.563
				c-1.372,1.385-2.752,2.759-4.144,4.117C81.115,817.456,81.098,811.873,81.115,806.29"/>
			<path fill="#74B5E3" d="M111.969,807.502c2.126,2.472,3.169,5.698,3.423,8.912c0.308,3.437-0.058,6.958-1.314,10.185
				c-0.761-0.112-1.52-0.244-2.282-0.366c0.816-2.198,1.709-4.412,1.899-6.769c0.176-2.153,0.136-4.323-0.125-6.463
				C113.34,811.091,112.595,809.303,111.969,807.502"/>
			<path fill="#74B5E3" d="M87.958,817.778c2.092-2.018,4.1-4.124,6.179-6.155c0.341,1.083,0.819,2.16,0.846,3.312
				c-1.727,1.96-3.688,3.704-5.512,5.569c-0.779-0.48-1.567-0.944-2.336-1.442l0.021-0.281
				C87.311,818.371,87.659,818.083,87.958,817.778"/>
			<path fill="#F1C81A" d="M96.655,822.115c2.083-2.167,4.07-4.436,6.237-6.521c-0.792,2.614-1.846,5.136-2.628,7.753
				c-0.111,0.321-0.149,0.653-0.108,0.992c3.433,0.637,6.894,1.127,10.337,1.68c0.437,0.071,0.87,0.142,1.303,0.213
				c0.762,0.122,1.521,0.254,2.283,0.366c1.165,0.183,2.333,0.349,3.49,0.572c-1.27,0.322-2.583,0.403-3.883,0.484
				c-0.921,0.084-1.835,0.203-2.752,0.281c-0.542,0.044-1.083,0.098-1.622,0.156c-3.139,0.281-6.281,0.521-9.403,0.951
				c0.894,1.541,2.008,2.936,2.946,4.446c0.301,0.504,0.731,0.914,1.077,1.388c0.471,0.627,0.924,1.27,1.348,1.927l0.298,0.464
				c-0.142-0.095-0.427-0.288-0.568-0.386c-0.685-0.484-1.352-0.989-1.991-1.523c-0.585-0.396-0.877-1.151-1.584-1.354
				c-1.273-0.924-2.481-1.94-3.762-2.854c-1.063,5.542-1.581,11.183-2.79,16.692c-0.738-5.689-1.378-11.394-1.917-17.102
				c0.271-0.434,0.623-0.812,0.948-1.206c0.629,2.743,0.599,5.593,1.303,8.322c0.315-3.037,0.938-6.03,1.415-9.043
				c0.955,0.66,1.896,1.341,2.875,1.967c-0.602-0.979-1.208-1.954-1.811-2.929c2.583-0.314,5.173-0.585,7.77-0.782
				c-2.549-0.755-5.18-1.175-7.75-1.842c0.376-0.961,0.755-1.919,1.107-2.891c-0.847,0.487-1.672,1.009-2.522,1.489
				C96.405,823.253,96.456,822.664,96.655,822.115"/>
			<path fill="#F1C81A" d="M82.865,816.359c1.03,0.616,2.048,1.253,3.062,1.899c0.409,0.257,0.806,0.531,1.208,0.802
				c0.769,0.498,1.558,0.962,2.336,1.442c1.601,1.029,3.24,2.001,4.798,3.102c0.207,1.019-0.769,1.906-1.053,2.854l0.437,0.125
				c-0.446,0.007-0.894,0.017-1.337,0.027l0.261-0.183c-1.524-1.49-2.99-3.034-4.476-4.561c-0.688-0.717-1.375-1.439-2.065-2.153
				c-0.257-0.264-0.511-0.528-0.762-0.792C84.459,818.076,83.657,817.223,82.865,816.359"/>
			<path fill="#051F43" d="M211.486,816.711c5.444-0.86,11.071-0.359,16.323,1.313c0.965,0.356,2.088,0.488,2.925,1.094
				c0.048,2.936,0.41,5.861,0.38,8.803c-0.024,1.591,0.104,3.175,0.227,4.76c-0.786,0.003-1.568,0.003-2.347,0.007
				c-0.725-3.318-1.825-6.741-4.32-9.168c-2.58-2.638-6.555-3.501-10.113-2.905c-2.265,0.434-4.561,1.581-5.735,3.65
				c-1.026,1.72-0.941,3.944-0.037,5.695c0.718,1.361,1.957,2.36,3.247,3.155c4.574,2.58,9.599,4.259,14.143,6.894
				c3.26,1.964,6.409,4.655,7.547,8.42c1.486,4.801,1.069,10.473-2.052,14.556c-2.861,3.722-7.496,5.556-12.023,6.183
				c-7.231,0.931-14.796-0.115-21.36-3.346c-0.156-4.57-0.434-9.138-0.349-13.712c0.91,0,1.824,0.011,2.739,0.024
				c0.649,3.659,1.872,7.424,4.611,10.075c2.952,2.834,7.354,3.636,11.295,3.027c2.569-0.399,5.173-1.987,5.918-4.612
				c0.457-2.109,0.332-4.601-1.26-6.232c-2.208-2.33-5.336-3.375-8.152-4.747c-4.724-2.181-9.674-4.469-13.062-8.562
				c-4.713-5.796-3.744-15.172,1.764-20.132c-1.614,0.23-3.233,0.447-4.845,0.677c-0.873,0.064-1.3,0.894-1.71,1.547
				c-4.646,7.875-9.386,15.693-14.017,23.571c-0.306,0.434-0.187,0.989-0.221,1.487c0.034,5.268-0.033,10.532,0.037,15.801
				c2.983,0.349,5.936,0.928,8.915,1.314c0.058,0.971,0.081,1.942,0.095,2.918c-18.618,0.03-37.233,0.006-55.852,0.014
				c-0.004-0.969-0.004-1.938,0.007-2.902c2.329-0.43,4.642-0.938,6.972-1.354c-1.121-3.197-2.258-6.387-3.328-9.6
				c-5.488-0.111-10.977-0.017-16.465-0.006c-0.894,2.363-1.778,4.729-2.624,7.109c-0.302,0.44,0.22,0.793,0.437,1.117
				c5.461,5.945,11.755,11.4,19.322,14.443c6.399,2.645,13.482,3.197,20.318,2.547c9.611-1.08,18.72-4.646,27.336-8.891
				c0.572,0.653,1.138,1.31,1.687,1.986c-4.208,3.451-9.033,6.061-13.946,8.36c-7.066,3.236-14.586,5.583-22.315,6.521
				c-7.937,1.039-16.116,0.346-23.71-2.221c-8.044-2.713-15.246-7.611-21.089-13.729c-5.448-5.59-9.613-12.236-13.574-18.916
				c-2.726-4.764-5.126-9.724-7.906-14.447c-1.575-0.677-3.253-1.097-4.862-1.693c0.003-0.914,0.006-1.832,0.006-2.742
				c4.334,0.183,9.074-0.156,12.504-3.125c0.538,5.708,1.178,11.413,1.917,17.102c1.208-5.509,1.727-11.15,2.79-16.693
				c1.28,0.915,2.489,1.93,3.762,2.854c0.132,0.135,0.4,0.406,0.531,0.542c-0.775,0.325-1.543,0.661-2.319,0.982
				c0.162,0.751,0.413,1.493,0.876,2.119c4.185,6.02,8.106,12.232,12.754,17.914c5.262-12.673,10.415-25.393,15.68-38.066
				c2.965-0.031,5.932-0.01,8.897-0.014c5.852,14.84,11.675,29.693,17.502,44.542c0.423,0.955,0.921,2.119,2.059,2.367
				c1.354,0.325,2.711,1.107,4.134,0.691c1.802-0.373,3.603-0.739,5.41-1.061c0.01-5.037,0.007-10.08,0.037-15.117
				c-0.034-0.755,0.169-1.595-0.277-2.266c-4.919-8.292-9.849-16.573-14.766-24.864c-2.247-0.495-4.52-0.864-6.761-1.378
				c0-0.968,0-1.937,0.017-2.901c9.331-0.031,18.665-0.017,28-0.007c0.007,0.972,0.007,1.95,0.014,2.925
				c-2.031,0.524-4.12,0.803-6.132,1.398c2.144,4.07,4.283,8.146,6.409,12.226c1.229,2.289,2.312,4.662,3.715,6.856
				c3.669-6.368,7.315-12.754,11.003-19.112c-2.23-0.494-4.489-0.85-6.711-1.381c-0.013-0.968-0.013-1.94,0.004-2.908
				c8.634-0.061,17.268,0.061,25.901-0.038C208.815,817.507,210.108,816.871,211.486,816.711"/>
			<path fill="#F1C81A" d="M93.276,817.646c0.917,1.537,1.733,3.132,2.617,4.689c-0.423,0.277-0.745,1.1-1.293,0.958
				c-0.071-0.081-0.216-0.247-0.288-0.332C93.933,821.197,93.595,819.423,93.276,817.646"/>
			<path fill="#FFFFFF" d="M85.272,818.922c0.25,0.264,0.504,0.528,0.762,0.792c-1.632,1.629-3.261,3.261-4.913,4.865
				c0-0.514,0.003-1.025,0.006-1.54C82.52,821.682,83.901,820.307,85.272,818.922"/>
			<path fill="#74B5E3" d="M139.624,818.736c0.541,0.007,1.087,0.014,1.632,0.024c5.823,14.931,11.745,29.818,17.532,44.76
				c-0.58-0.153-1.155-0.305-1.73-0.457C151.224,848.297,145.431,833.511,139.624,818.736"/>
			<path fill="#74B5E3" d="M174.39,821.401c-0.014-0.891-0.051-1.792,0.115-2.672c0.551-0.037,1.109-0.027,1.668-0.023
				c-0.01,1.162-0.02,2.326-0.017,3.487c-1.642,0.457-3.304,0.836-4.946,1.283c2.197,4.578,4.57,9.071,6.85,13.607
				c-0.285,0.457-0.57,0.914-0.857,1.372c-2.823-5.249-5.583-10.537-8.268-15.859C170.745,822.166,172.563,821.773,174.39,821.401"
				/>
			<path fill="#74B5E3" d="M232.018,819.894c0.505,0.172,1.016,0.349,1.527,0.528c0.098,1.829,0.233,3.653,0.268,5.485
				c0.02,3.25,0.412,6.487,0.325,9.737h-0.48c-1.603-0.017-3.2-0.027-4.802-0.02c-0.207-0.542-0.416-1.087-0.63-1.622
				c1.415-0.051,2.834-0.064,4.249-0.044C232.424,829.266,232.082,824.583,232.018,819.894"/>
			<path fill="#74B5E3" d="M146.483,821.895c1.541,0.355,3.159,0.44,4.645,1.009c0.354,0.407,0.634,0.871,0.925,1.328
				c-1.879-0.295-3.744-0.681-5.604-1.074C146.46,822.734,146.47,822.315,146.483,821.895"/>
			<path fill="#74B5E3" d="M182.735,821.871c1.171,0.237,2.342,0.474,3.514,0.728c-0.176,0.366-0.346,0.735-0.518,1.104
				c-1.02-0.159-2.039-0.328-3.047-0.538C182.698,822.735,182.714,822.301,182.735,821.871"/>
			<path fill="#74B5E3" d="M209.604,825.342c0.869-2.069,3.111-3.203,5.234-3.525c3.298-0.477,7.218,0.204,9.27,3.082
				c-2.719-2.008-6.457-2.218-9.558-1.036c-1.598,0.613-3.092,1.808-3.619,3.49c-0.261,1.063-0.149,2.171-0.085,3.248
				C209.388,829.316,208.984,827.136,209.604,825.342"/>
			<path fill="#74B5E3" d="M196.501,823.412c0.383-0.833,1.456-0.582,2.177-0.819c-1.222,2.018-1.906,4.307-3.162,6.304
				c-3.504,5.871-6.968,11.766-10.509,17.612c-0.494,0.851-1.168,1.697-1.111,2.736c-0.017,4.669,0.018,9.338-0.08,14.007
				c-0.553-0.203-1.785,0.078-1.629-0.847c-0.037-4.492,0.023-8.986-0.023-13.479c-0.027-0.822,0.023-1.686,0.511-2.387
				C187.302,838.844,191.886,831.114,196.501,823.412"/>
			<path fill="#051F43" d="M214.551,823.862c3.101-1.182,6.839-0.972,9.558,1.036c2.647,2.288,3.048,5.982,4.117,9.104
				c0.214,0.535,0.423,1.08,0.63,1.622c1.602-0.007,3.199,0.003,4.802,0.02c3.442,3.45,6.896,6.894,10.343,10.343
				c-2.387,2.38-4.75,4.788-7.164,7.14c-0.322-2.058-0.901-4.123-2.103-5.854c-1.006-1.649-1.876-3.416-3.298-4.76
				c-4.158-4.232-9.964-6.01-15.161-8.556c-1.883-0.969-3.976-1.764-5.428-3.358c-0.064-1.077-0.176-2.184,0.085-3.248
				C211.459,825.67,212.952,824.475,214.551,823.862"/>
			<path fill="#F1C81A" d="M85.482,829.889c2.563-1.077,5.051-2.363,7.723-3.162c-0.156,0.839-0.268,1.689-0.396,2.532
				C90.378,829.57,87.927,829.709,85.482,829.889"/>
			<path fill="#74B5E3" d="M110.933,827.935c0.917-0.078,1.832-0.196,2.752-0.281c-1.774,3.836-4.788,6.995-8.407,9.148
				c-0.423-0.656-0.877-1.3-1.348-1.926C106.701,833.047,109.118,830.722,110.933,827.935"/>
			<path fill="#051F43" d="M99.909,829.042c3.122-0.43,6.264-0.67,9.403-0.951c-1.578,2.231-3.596,4.111-5.865,5.62
				c-0.2-0.074-0.396-0.148-0.592-0.223C101.917,831.978,100.803,830.583,99.909,829.042"/>
			<path fill="#FFFFFF" d="M109.312,828.091c0.538-0.058,1.08-0.111,1.622-0.156c-1.815,2.786-4.232,5.112-7.002,6.941
				c-0.345-0.474-0.775-0.884-1.077-1.388c0.197,0.075,0.393,0.149,0.593,0.223C105.715,832.201,107.733,830.322,109.312,828.091"/>
			<path fill="#051F43" d="M44,845.992c5.573-5.566,11.105-11.177,16.726-16.696c0.034,10.686,0.044,21.375,0.017,32.063
				c-0.41,0.044-0.816,0.091-1.223,0.139C54.337,856.339,49.153,851.179,44,845.992"/>
			<path fill="#FFFFFF" d="M130.052,830.857c1.582,4.032,2.75,8.214,4.154,12.307c0.738,2.384,1.646,4.717,2.238,7.145
				c-4.547-0.024-9.097,0.013-13.644-0.018C125.238,843.821,127.622,837.33,130.052,830.857"/>
			<path fill="#74B5E3" d="M124.571,849.126c1.774-4.872,3.538-9.753,5.458-14.568c0.349,1.168,1.182,2.397,0.684,3.643
				c-1.283,3.657-2.871,7.215-3.87,10.97C126.084,849.153,125.329,849.144,124.571,849.126"/>
			<path fill="#74B5E3" d="M101.125,836.25c0.633-0.294,1.263-0.593,1.893-0.894c0.64,0.535,1.307,1.04,1.991,1.523
				c-0.867,0.44-1.74,0.863-2.614,1.29C101.974,837.527,101.547,836.89,101.125,836.25"/>
			<path fill="#74B5E3" d="M79.425,837.547c0.552,0.169,1.107,0.342,1.659,0.524c-0.021,7.832,0.034,15.66-0.021,23.49
				c-0.549-0.053-1.094-0.107-1.639-0.158C79.415,853.45,79.415,845.497,79.425,837.547"/>
			<path fill="#74B5E3" d="M81.528,838.326c1.351,0.386,3.074,0.518,3.687,2.018c-1.229-0.298-2.424-0.701-3.616-1.111
				C81.582,839.007,81.545,838.553,81.528,838.326"/>
			<path fill="#74B5E3" d="M103.487,839.701c0.877,1.121,1.676,2.302,2.397,3.528C105.021,842.098,104.219,840.919,103.487,839.701"
				/>
			<path fill="#C3D8E8" d="M107.97,846.33c0.508-0.132,1.026,0.646,0.837,1.104C108.295,847.573,107.771,846.784,107.97,846.33"/>
			<path fill="#74B5E3" d="M205.271,847.132c2.244,1.107,4.455,2.279,6.744,3.295c2.647,1.195,5.326,2.367,7.706,4.057
				c-3.061,3.121-6.189,6.179-9.28,9.27c-1.016-0.355-2.008-0.779-2.959-1.27c2.976-3.095,6.121-6.03,9.01-9.209
				C212.668,851.392,208.636,849.811,205.271,847.132"/>
			<path fill="#74B5E3" d="M234.733,847.274c1.201,1.73,1.78,3.796,2.103,5.854c0.555,4.48-0.183,9.359-3.213,12.867
				c-3.887,4.587-10.164,6.195-15.958,6.301c-4.229,0.135-8.48-0.373-12.53-1.612c-0.42-0.125-0.836-0.247-1.253-0.369
				c-19.941,19.986-39.928,39.932-59.887,59.904c-19.455-19.448-38.93-38.878-58.367-58.343c-0.559-0.688-1.466-0.674-2.265-0.682
				c-4.709,0.008-9.423-0.037-14.132,0.027c-5.302,0.059-10.601-0.142-15.903-0.077c-0.021-0.528-0.034-1.061-0.051-1.585
				c12.02-0.074,24.039-0.051,36.059-0.055c0.003-1.465,0.013-2.928,0.051-4.391c0.609,0.115,1.219,0.234,1.828,0.349
				c0.013,1.903,0.02,3.806-0.021,5.712c-0.589,0.027-1.181,0.055-1.771,0.084c10.238,10.354,20.582,20.604,30.831,30.946
				c5.126,5.116,10.232,10.249,15.389,15.331c0.037-1.883,0.034-3.762,0.04-5.641c5.58,0,11.16-0.014,16.739,0.003
				c-0.01,1.832-0.01,3.667,0.054,5.499c16.185-16.025,32.217-32.199,48.373-48.248c-0.583-0.398-1.25-0.758-1.581-1.408
				c1.486,0.39,2.901,1.006,4.384,1.412c3.532,0.988,7.202,1.53,10.872,1.466c5.387,0.099,11.078-0.935,15.438-4.282
				c3.597-2.729,5.651-7.205,5.686-11.685C235.81,852.149,235.289,849.695,234.733,847.274"/>
			<path fill="#74B5E3" d="M202.102,853.321c0.437,0.004,0.873,0.007,1.313,0.01c0.379,2.564,1.165,5.032,2.143,7.426
				C203.648,858.712,202.711,855.999,202.102,853.321"/>
			<path fill="#051F43" d="M211.791,864.054c2.861-2.975,5.8-5.87,8.729-8.779c0.904,1.372,1.412,3.071,0.955,4.7
				c-0.46,1.784-1.998,3.102-3.7,3.673C215.86,864.359,213.785,864.166,211.791,864.054"/>
			<path fill="#74B5E3" d="M122.184,855.654c4.937-0.021,9.87-0.007,14.803-0.007c0.18,0.535,0.355,1.07,0.535,1.608
				c-4.604,0.101-9.209,0.03-13.814,0.081c-0.769,1.988-1.473,3.996-2.262,5.977c-0.481-0.512-0.992-0.996-1.388-1.575
				C120.515,859.636,121.523,857.699,122.184,855.654"/>
			<path fill="#74B5E3" d="M191.179,866.428c0.508,0.081,1.022,0.146,1.527,0.274c0.321,1.466,0.115,2.986,0.135,4.477
				c-1.557,0.003-3.115,0.006-4.668,0.02c-0.468-0.545-0.932-1.09-1.389-1.635c1.459-0.014,2.918-0.021,4.381-0.031
				C191.165,868.497,191.169,867.464,191.179,866.428"/>
			<path fill="#74B5E3" d="M135.324,869.536c16.77,0.01,33.539-0.064,50.306,0.037c-1.354,0.697-2.688,1.72-4.293,1.625
				c-15.331-0.033-30.658,0.01-45.986-0.023C135.341,870.626,135.331,870.081,135.324,869.536"/>
			<path fill="#FFFFFF" d="M203.882,870.314c0.417,0.122,0.833,0.244,1.253,0.369c-20.386,20.382-40.754,40.785-61.15,61.157
				c-20.175-20.25-40.436-40.408-60.622-60.646c0.799,0.008,1.706-0.006,2.265,0.682c19.438,19.465,38.913,38.895,58.367,58.344
				C163.954,910.246,183.94,890.301,203.882,870.314"/>
			<path fill="#051F43" d="M205.135,870.684c4.05,1.239,8.302,1.747,12.53,1.612c-24.513,24.6-49.096,49.133-73.663,73.68
				c-24.936-24.904-49.838-49.845-74.771-74.754c4.709-0.064,9.423-0.02,14.132-0.027c20.186,20.237,40.446,40.396,60.622,60.646
				C164.381,911.469,184.749,891.065,205.135,870.684"/>
			<path fill="#74B5E3" d="M183.866,877.15c1.963-1.253,3.9-2.576,5.559-4.222c0.427,0.498,0.856,0.998,1.287,1.5
				c-3.969,3.625-8.756,6.199-13.529,8.59c-12.572,6.07-26.944,9.415-40.856,6.865c-6.948-1.293-13.634-4.072-19.38-8.189
				c1.009,0.48,1.978,1.039,2.956,1.584c8.488,4.619,18.328,6.541,27.939,5.916C160.636,888.401,173.034,883.908,183.866,877.15"/>
			<path fill="#051F43" d="M226.438,875.285c0.48,0,0.961,0,1.449,0.003c0.257,0.748,0.531,1.49,0.832,2.225
				c0.309-0.738,0.62-1.473,0.901-2.217c0.47-0.011,0.94-0.014,1.415-0.014c0.007,1.256,0.007,2.512,0.007,3.768h-0.891
				c-0.007-0.833-0.014-1.669-0.054-2.498c-0.363,0.832-0.66,1.686-0.979,2.531c-0.214-0.02-0.641-0.064-0.854-0.088
				c-0.268-0.822-0.556-1.641-0.887-2.44c-0.038,0.829-0.041,1.662-0.044,2.495h-0.901
				C226.432,877.794,226.432,876.538,226.438,875.285"/>
			<path fill="#051F43" d="M222.734,875.312c1.025-0.061,2.055-0.029,3.084-0.026c0.037,0.155,0.105,0.47,0.142,0.63
				c-0.429,0.041-0.855,0.081-1.283,0.121c0,1.002,0,2.008,0.004,3.014h-0.809c-0.004-0.992-0.004-1.984,0.017-2.977
				C223.351,875.966,222.429,876.165,222.734,875.312"/>
			<path fill="#FFFFFF" d="M138.216,914.326h11.66c0.007,1.913,0.004,3.829,0.007,5.742c-1.954,1.97-3.917,3.927-5.881,5.888
				c-1.856-1.92-3.864-3.7-5.614-5.711C137.958,918.335,138.327,916.29,138.216,914.326"/>
		</g>
	</g>
</g>
<g id="svg12082">
</g>
<g id="svg31568">
</g>
<g id="CLEVELAND_INDIANS">
</g>
<g id="svg2562">
</g>
<g id="svg3060">
</g>
<g id="svg3067">
</g>
<g id="svg3477">
</g>
</svg>
