<?xml version="1.0" encoding="utf-8"?>
<!-- Generator: Adobe Illustrator 14.0.0, SVG Export Plug-In . SVG Version: 6.00 Build 43363)  -->
<!DOCTYPE svg PUBLIC "-//W3C//DTD SVG 1.1//EN" "http://www.w3.org/Graphics/SVG/1.1/DTD/svg11.dtd">
<svg version="1.1" xmlns="http://www.w3.org/2000/svg" xmlns:xlink="http://www.w3.org/1999/xlink" x="0px" y="0px" width="200px"
	 height="200px" viewBox="44 746 200 200" enable-background="new 44 746 200 200" xml:space="preserve">
<g id="Layer_1">
	<g>
		<path fill="#FFFFFF" stroke="#FFFFFF" stroke-width="0.5877" d="M7218.837,7645.277c-2.438,4.812-9.872,18.5-9.485,20.523
			c0.48,2.512,2.055,4.428,1.979,6.965c-0.05,1.572-1.985,5.439-3.489,6.526c-1.259,0.907-5.062,8.043-20.085,0.963l-2.007-1.058
			c-14.529-8.039-10.977-15.297-10.977-16.85c0-1.854,1.998-5.688,3.246-6.646c2.012-1.546,4.485-1.396,6.805-2.473
			c1.867-0.875,7.51-12.213,9.984-17.006l0.039-0.107c-49.488-24.303-83.552-75.2-83.552-134.059
			c0-82.435,66.83-149.265,149.265-149.265c82.436,0,149.266,66.83,149.266,149.265c0,82.436-66.83,149.266-149.266,149.266
			c-14.543,0-28.597-2.079-41.889-5.959L7218.837,7645.277z"/>
		<path fill="#FC1921" d="M7310.404,7445.783c2.517,1.566,5.261,3.033,7.347,4.908l23.97-30.517
			c4.913,4.281,8.823,8.417,12.65,14.433l-27.979,24.561c2.26,2.576,5.166,7.668,6.987,11.215l28.75-19.906
			c0.55,1.073,2.117,7.637,1.867,9.559l-28.22,18.234c0.455,2.035,0.771,2.481,1.106,5.184c0,0,32.472-18.421,32.487-18.653
			c-3.542-34.866-33.861-63.302-69.663-63.302c-14.872,0-28.646,4.697-39.925,12.686c-0.19,0.135,1.869,32.676,1.869,32.676
			c2.289-1.432,5.125-2.766,6.269-3.146l-0.571-29.678c2.77-2.195,6.537-4.008,9.448-5.061l-0.67,32.158
			c4.008-0.951,11.163-1.527,13.456-1.047l5.82-35.023c7.063-0.668,14.121,0.099,20.326,2.104l-13.551,35.209
			c2.684,0.821,5.577,2.053,8.221,3.407"/>
		<path fill="none" stroke="#FFFFFF" stroke-width="2.2041" d="M7286.66,7541.208c28.023,0,50.738-22.722,50.738-50.739
			c0-28.025-22.715-50.742-50.738-50.742s-50.743,22.717-50.743,50.742C7235.917,7518.486,7258.637,7541.208,7286.66,7541.208z"/>
		<path fill="#FC1921" d="M7244.924,7555.453c-1.412,2.329-12.27,8.79-14.615,5.148c-3.91-6.071,8.041-15.715,5.781-18.412
			c-1.359-1.615-6.973,2.603-11.557,7.881c0,0-2.547,4.88-6.016,11.029l-8.156,0.071c-0.5-0.377,10.377-16.298,8.266-18.151
			c-3-2.621-20.595,25.819-28.863,19.78c-0.695-0.512-2.562-2.624-0.076-7.938c-3.701,4.886-12.697,8.841-16.484,5.559
			c-8.127-7.044,13.936-30.667,22.833-22.48c0.696,0.638,0.948,1.26,0.896,1.754l1.196-1.885l8.045-0.072
			c-3.655,9.843-11.235,18.748-9.291,20.147c3.384,2.435,22.839-27.389,29.462-20.891c2.057,2.021,1.915,4.664,1.379,6.104
			c4.691-4.893,14.598-9.605,17.799-6.281c3.896,4.037-7.959,15.966-5.349,17.631c1.481,0.947,6.042-2.536,6.042-2.536
			 M7179.284,7555.41c4.358,4.835,17.543-10.475,14.856-14.801C7190.572,7536.122,7175.384,7551.083,7179.284,7555.41z"/>
		<path fill="#FC1921" d="M7267.668,7546.346c7.393,0.592,15.95-3.896,14.373-7.41c-0.93-2.072-6.518-1.259-9.811,0.094
			L7267.668,7546.346z M7291.758,7552.52c-8.088,7.346-16.791,10.088-19.658,7.897c-4.781-3.653-0.424-8.401-2.852-10.448
			c-0.664-0.554-1.775-0.699-3.591-0.57l9.399-14.584c5.045-2.584,13.289-3.978,14.672,0.744
			c1.932,6.596-7.273,12.303-13.658,13.357c4.859,0.891,0.054,6.299,5.027,6.949c2.213,0.293,8.666-4.321,12.039-8.986"/>
		<path fill="#FC1921" d="M7325.467,7549.889c-12.592,9.047-29.176,11.872-32.701,4.161c-5.813-12.713,26.438-28.647,30.25-18.911
			c2.709,6.916-10.131,13.102-20.711,13.198c-0.445,0.004-0.293-0.108-0.332,0.004c-0.924,2.681,0.383,5.616,5.344,5.574
			s12.326-2.099,19.324-8.338 M7302.721,7545.797c6.387-0.83,12.789-6.154,11.719-8.593
			C7312.932,7533.786,7304.098,7539.941,7302.721,7545.797z"/>
		<path fill="#FC1921" d="M7370.137,7539.989c-4.15,4.228-10.093,7.239-10.843,7.819c-11.747,9.047-29.151,12.367-33.028,4.828
			c-6.586-12.818,26.274-27.527,28.82-18.568c1.854,6.525-9.589,12.104-19.283,12.853c-0.441,0.039-0.293-0.108-0.328,0.007
			c-0.927,2.678,0.381,5.621,5.342,5.571c4.959-0.046,10.332-2.386,17.684-6.888c1.643-1.01,8.555-4.824,11.93-9.479
			 M7336.107,7544.166c7.273-0.286,13.812-6.092,11.936-8.708C7345.707,7532.189,7336.617,7539.643,7336.107,7544.166z"/>
		<path fill="#FC1921" d="M7364.875,7543.566c0.549,5.674-5.07,5.832-5.352,5.562c-0.866,0.95-0.199,5.04,4.131,5.253
			c7.199,0.362,7.092-9.106,6.14-12.625c-0.649-2.407-0.175-5.043,0.206-7.358c0.953-5.797,8.464-11.84,11.125-9.947
			c1.818,1.301,0.818,5.617-4.098,9.855c-0.922,0.894-1.522,1.041-0.188,3.783c1.446,2.977,3.925,10.139-0.116,15.605
			c-3.156,4.271-8.562,4.849-13.052,4.087c-2.872-0.489-6.085-2.396-7.411-4.548
			C7350.501,7543.921,7362.396,7537.529,7364.875,7543.566z"/>
		<path fill="#0C2D82" d="M7287.803,7515.884c1.081-1.507,2.096-2.905,3.092-4.229c0.239-0.319,0.877-1.403,1.195-2.216
			c1.734-4.449-2.631-11.25-8.762-14.142c-6.094-2.873-12.63-2.272-14.586,0.634c-0.489,0.723-1.081,1.648-1.196,2.026
			c-0.68,2.228-1.444,4.422-2.272,6.812c-9.666-6.455-15.342-13.385-12.715-18.396c4.873-9.294,20.09-7.728,35.982,0.079
			c15.895,7.803,26.643,19.652,22.15,28.181C7308.029,7519.695,7298.917,7519.592,7287.803,7515.884z"/>
		<path fill="#0C2D82" d="M7306.857,7534.792c-0.812,0.296-2.83,1.376-4.391,2.363c-3.15-3.582-14.222-11.253-20.144-13.31
			c-0.091-0.029,1.501-2.115,1.501-2.115c6.105,2.479,20.646,10.916,22.936,13.016"/>
		<g>
			<path fill="#0C2D82" d="M7335.686,7535.971c1.316-0.936,4.9-2.396,5.002-2.531c0.119-0.49,0.188-1.463,0.188-1.463
				c3.817-17.939-3.962-32.539-10.065-38.266c-5.959-5.589-3.125-1.413-1.146,1.146c1.406,1.815,2.08,2.881,2.671,4.004
				c3.104,5.891,1.633,5.16-2.479,0.955c-8.111-8.287-22.234-18.797-35.211-25.284c-17.717-8.86-39.412-13.075-51.433-12.694
				c4.961-2.29,7.685-2.536,12.783-3.052c4.521-0.457,2.75-1.354,0-1.146c-9.658,0.738-31.181,1.076-34.54,17.939
				c-2.855,14.318,8.777,26.527,20.036,30.916c9.786,3.814,20.138,8.361,20.138,8.361l1.049-3.207
				c-5.727-3.056-15.707-6.34-20.992-8.396c-6.873-2.671-19.172-12.136-17.561-25.003c2.674-21.354,42.809-14.324,69.469-0.953
				c11.551,5.795,27.014,17.03,34.612,24.363c8.709,8.403,10.235,11.219,10.808,20.108
				C7339.039,7527.203,7337.527,7532.095,7335.686,7535.971"/>
			<text transform="matrix(1 0 0 1 -6505.8574 -5942.416)" fill="#0C2D82" font-family="'Helvetica'" font-size="9"> </text>
		</g>
		<path fill="none" stroke="#FC1921" stroke-width="1.0213" stroke-linecap="round" stroke-linejoin="round" d="M7339.202,7414.514
			c2.675-3.439,9.508-12.236,12.024-14.128"/>
		<polyline fill="none" stroke="#FC1921" stroke-width="1.0213" stroke-linecap="round" stroke-linejoin="round" points="
			7339.968,7398.859 7345.312,7406.493 7355.234,7409.93 		"/>
		<polyline fill="none" stroke="#FC1921" stroke-width="1.0213" stroke-linecap="round" stroke-linejoin="round" points="
			7334.242,7404.202 7341.496,7411.457 7349.512,7415.271 		"/>
		<path fill="#FC1921" d="M7403.1,7501.54c0-78.821-63.896-142.722-142.715-142.722c-70.221,0-128.598,50.721-140.5,117.521
			l13.848-14.667c17.164-53.467,67.293-92.163,126.461-92.163c73.336,0,132.791,59.451,132.791,132.79l0.08,0.105
			c-0.863,24.806-5.724,35.441-14.613,41.854l-0.791,6.518c3.902-3.002,15.723-15.502,23.051-30.602
			c1.991-4.109,2.543-14.719,2.479-18.398L7403.1,7501.54z"/>
		<path fill="#FC1921" d="M7385.871,7546.229c-18.028,51.947-67.404,87.315-125.486,87.819
			c-69.363,0.601-132.197-57.979-132.197-131.319l0,0c-1.035-14.821,3.248-24.315,6.748-30.752
			c3.597-6.623,11.256-15.36,18.045-14.031c10.521,2.066,3.754,15.803-5.182,31.381c-8.732,15.229-19.314,31.223-10.799,40.427
			c6.893,7.451,21.002,5.756,29.632-2.81l-26.623,49.98l11.817,0.088l51.41-97.046l-11.906,0.33l-21.021,39.114
			c-6.773,6.347-17.779,12.174-24.07,7.826c-12.484-8.621,36.408-55.317,18.416-70.502c-14.369-12.125-29.979,5.979-34.928,14.564
			c-4.053,7.035-11.701,17.858-11.879,31.191l0.01-0.574c0,78.816,63.899,142.714,142.718,142.714
			c67.2,0,123.556-46.448,138.706-108.991c0.574-2.295,1.187-5.099,1.187-5.099
			C7396.459,7536.845,7385.871,7546.229,7385.871,7546.229z"/>
		
			<line fill="none" stroke="#FC1921" stroke-width="1.0213" stroke-linecap="round" stroke-linejoin="round" x1="7184.234" y1="7428.633" x2="7196.258" y2="7426.914"/>
		<path fill="none" stroke="#FC1921" stroke-width="1.0213" stroke-linecap="round" stroke-linejoin="round" d="M7163.626,7407.656
			c28.673,22.9,47.043,58.158,47.043,97.707c0,10.699-1.219,19.828-3.715,29.771"/>
		<path fill="none" stroke="#FC1921" stroke-width="1.0213" stroke-linecap="round" stroke-linejoin="round" d="M7195.812,7564.906
			c-6.367,11.812-14.619,22.438-24.426,31.432c-4.58,4.197-3.174,1.78-3.174,1.78"/>
		<polyline fill="none" stroke="#FC1921" stroke-width="1.0213" stroke-linecap="round" stroke-linejoin="round" points="
			7177.375,7406.884 7167.066,7410.701 7163.633,7421.197 		"/>
		
			<line fill="none" stroke="#FC1921" stroke-width="1.0213" stroke-linecap="round" stroke-linejoin="round" x1="7173.173" y1="7415.666" x2="7182.336" y2="7412.229"/>
		
			<line fill="none" stroke="#FC1921" stroke-width="1.0213" stroke-linecap="round" stroke-linejoin="round" x1="7176.229" y1="7419.1" x2="7185.771" y2="7416.043"/>
		
			<line fill="none" stroke="#FC1921" stroke-width="1.0213" stroke-linecap="round" stroke-linejoin="round" x1="7180.046" y1="7423.684" x2="7192.26" y2="7421.771"/>
		
			<line fill="none" stroke="#FC1921" stroke-width="1.0213" stroke-linecap="round" stroke-linejoin="round" x1="7190.732" y1="7436.848" x2="7203.902" y2="7435.702"/>
		<polyline fill="none" stroke="#FC1921" stroke-width="1.0213" stroke-linecap="round" stroke-linejoin="round" points="
			7187.486,7454.021 7195.505,7445.627 7208.863,7445.245 		"/>
		<polyline fill="none" stroke="#FC1921" stroke-width="1.0213" stroke-linecap="round" stroke-linejoin="round" points="
			7191.113,7462.232 7199.514,7454.021 7212.3,7454.789 		"/>
		
			<line fill="none" stroke="#FC1921" stroke-width="1.0213" stroke-linecap="round" stroke-linejoin="round" x1="7168.021" y1="7425.586" x2="7172.221" y2="7415.666"/>
		
			<line fill="none" stroke="#FC1921" stroke-width="1.0213" stroke-linecap="round" stroke-linejoin="round" x1="7172.982" y1="7430.551" x2="7177.182" y2="7420.246"/>
		
			<line fill="none" stroke="#FC1921" stroke-width="1.0213" stroke-linecap="round" stroke-linejoin="round" x1="7175.658" y1="7434.749" x2="7181.002" y2="7424.635"/>
		
			<line fill="none" stroke="#FC1921" stroke-width="1.0213" stroke-linecap="round" stroke-linejoin="round" x1="7179.279" y1="7439.52" x2="7185.389" y2="7430.359"/>
		
			<line fill="none" stroke="#FC1921" stroke-width="1.0213" stroke-linecap="round" stroke-linejoin="round" x1="7182.908" y1="7445.055" x2="7189.779" y2="7437.609"/>
		<polyline fill="none" stroke="#FC1921" stroke-width="1.0213" stroke-linecap="round" stroke-linejoin="round" points="
			7194.74,7473.109 7203.52,7464.331 7217.26,7465.475 		"/>
		
			<line fill="none" stroke="#FC1921" stroke-width="1.0213" stroke-linecap="round" stroke-linejoin="round" x1="7206.955" y1="7474.827" x2="7219.359" y2="7478.07"/>
		
			<line fill="none" stroke="#FC1921" stroke-width="1.0213" stroke-linecap="round" stroke-linejoin="round" x1="7206.764" y1="7474.445" x2="7203.137" y2="7478.07"/>
		
			<line fill="none" stroke="#FC1921" stroke-width="1.0213" stroke-linecap="round" stroke-linejoin="round" x1="7209.436" y1="7486.852" x2="7220.889" y2="7490.855"/>
		
			<line fill="none" stroke="#FC1921" stroke-width="1.0213" stroke-linecap="round" stroke-linejoin="round" x1="7200.273" y1="7494.863" x2="7209.244" y2="7485.896"/>
		<polyline fill="none" stroke="#FC1921" stroke-width="1.0213" stroke-linecap="round" stroke-linejoin="round" points="
			7222.986,7506.129 7210.391,7500.784 7200.273,7508.797 		"/>
		<polyline fill="none" stroke="#FC1921" stroke-width="1.0213" stroke-linecap="round" stroke-linejoin="round" points="
			7200.466,7520.63 7210.201,7514.143 7222.029,7518.915 		"/>
		<polyline fill="none" stroke="#FC1921" stroke-width="1.0213" stroke-linecap="round" stroke-linejoin="round" points="
			7197.605,7531.51 7208.863,7526.928 7220.697,7531.889 		"/>
		
			<line fill="none" stroke="#FC1921" stroke-width="1.0213" stroke-linecap="round" stroke-linejoin="round" x1="7206.955" y1="7535.134" x2="7212.872" y2="7540.102"/>
		
			<line fill="none" stroke="#FC1921" stroke-width="1.0213" stroke-linecap="round" stroke-linejoin="round" x1="7204.091" y1="7546.587" x2="7206.193" y2="7548.305"/>
		
			<line fill="none" stroke="#FC1921" stroke-width="1.0213" stroke-linecap="round" stroke-linejoin="round" x1="7211.035" y1="7551.738" x2="7212.938" y2="7552.952"/>
		
			<line fill="none" stroke="#FC1921" stroke-width="1.0213" stroke-linecap="round" stroke-linejoin="round" x1="7204.475" y1="7559.182" x2="7208.482" y2="7562.809"/>
		
			<line fill="none" stroke="#FC1921" stroke-width="1.0213" stroke-linecap="round" stroke-linejoin="round" x1="7195.314" y1="7565.673" x2="7202.564" y2="7572.35"/>
		
			<line fill="none" stroke="#FC1921" stroke-width="1.0213" stroke-linecap="round" stroke-linejoin="round" x1="7194.359" y1="7566.625" x2="7186.154" y2="7565.859"/>
		<polyline fill="none" stroke="#FC1921" stroke-width="1.0213" stroke-linecap="round" stroke-linejoin="round" points="
			7197.221,7581.324 7190.732,7573.111 7181.002,7571.971 		"/>
		<polyline fill="none" stroke="#FC1921" stroke-width="1.0213" stroke-linecap="round" stroke-linejoin="round" points="
			7175.837,7578.448 7185,7579.4 7191.107,7587.993 		"/>
		<polyline fill="none" stroke="#FC1921" stroke-width="1.0213" stroke-linecap="round" stroke-linejoin="round" points="
			7170.493,7583.793 7179.273,7586.464 7185.764,7593.334 		"/>
		<polyline fill="none" stroke="#FC1921" stroke-width="1.0213" stroke-linecap="round" stroke-linejoin="round" points="
			7167.25,7588.755 7175.076,7591.044 7180.802,7597.533 		"/>
		<polyline fill="none" stroke="#FC1921" stroke-width="1.0213" stroke-linecap="round" stroke-linejoin="round" points="
			7173.928,7601.924 7170.111,7595.816 7165.15,7593.909 		"/>
		<path fill="none" stroke="#FC1921" stroke-width="1.0213" stroke-linecap="round" stroke-linejoin="round" d="M7327.373,7556.501
			c4.197,7.635,22.521,30.151,32.439,35.118"/>
		
			<line fill="none" stroke="#FC1921" stroke-width="1.0213" stroke-linecap="round" stroke-linejoin="round" x1="7320.5" y1="7555.738" x2="7324.316" y2="7555.357"/>
		<polyline fill="none" stroke="#FC1921" stroke-width="1.0213" stroke-linecap="round" stroke-linejoin="round" points="
			7333.096,7558.409 7330.044,7561.461 7321.646,7562.991 		"/>
		
			<line fill="none" stroke="#FC1921" stroke-width="1.0213" stroke-linecap="round" stroke-linejoin="round" x1="7325.083" y1="7569.857" x2="7336.532" y2="7569.477"/>
		<polyline fill="none" stroke="#FC1921" stroke-width="1.0213" stroke-linecap="round" stroke-linejoin="round" points="
			7346.457,7567.952 7340.35,7575.203 7331.189,7577.881 		"/>
		<polyline fill="none" stroke="#FC1921" stroke-width="1.0213" stroke-linecap="round" stroke-linejoin="round" points="
			7351.036,7572.913 7345.503,7579.785 7335.389,7584.364 		"/>
		
			<line fill="none" stroke="#FC1921" stroke-width="1.0213" stroke-linecap="round" stroke-linejoin="round" x1="7339.968" y1="7588.943" x2="7348.365" y2="7583.982"/>
		<polyline fill="none" stroke="#FC1921" stroke-width="1.0213" stroke-linecap="round" stroke-linejoin="round" points="
			7358.29,7580.934 7352.943,7587.418 7344.93,7592.764 		"/>
		
			<line fill="none" stroke="#FC1921" stroke-width="1.0213" stroke-linecap="round" stroke-linejoin="round" x1="7356" y1="7575.969" x2="7349.893" y2="7584.364"/>
		
			<line fill="none" stroke="#FC1921" stroke-width="1.0213" stroke-linecap="round" stroke-linejoin="round" x1="7341.496" y1="7561.846" x2="7335.77" y2="7568.336"/>
		<polyline fill="none" stroke="#FC1921" stroke-width="1.0213" stroke-linecap="round" stroke-linejoin="round" points="
			7361.723,7585.13 7359.051,7590.477 7351.801,7595.434 		"/>
		<path fill="#FC1921" d="M7238.566,7594.023c-7.988,13.949-28.168,51.955-34.953,67.64c-1.773,4.096-2.191,5.948-0.432,8.015
			c0.338,0.4,0.885,1.397,0.977,1.758c0.367,1.403-1.232,3.228-2.073,3.778c-1.745,1.136-5.502,1.425-12.251-1.665
			c-6.747-3.09-8.441-6.847-8.544-8.931c-0.049-1.004,0.483-3.366,1.836-3.899c0.345-0.134,1.472-0.279,1.994-0.238
			c2.704,0.211,4.183-1.545,6.456-5.388c9.304-15.729,29.176-52.354,36.117-66.473c4.066-8.279,26.606-52.015,37.574-83.677
			c0.823-2.385,1.586-4.697,2.267-6.93c0.114-0.378,0.706-1.304,1.194-2.025c1.955-2.905,8.494-3.506,14.59-0.635
			c6.125,2.888,10.492,9.691,8.755,14.137c-0.315,0.814-0.952,1.9-1.192,2.221c-0.999,1.32-2.043,2.746-3.124,4.248
			C7271.837,7538.098,7247.645,7578.176,7238.566,7594.023z M7187.881,7661.745c0.115,0.323,0.533,0.743,1.66,0.479
			c0.453-0.113,0.809-0.533,1.376-1.162c0.949-1.057,2.103-2.676,2.431-4.336c0.213-0.715-0.223-0.377-0.384-0.045
			c-0.165,0.33-3.173,4.147-4.757,4.56C7187.988,7661.301,7187.877,7661.188,7187.881,7661.745z M7213.828,7624.46
			c-2.057,4.104-14.537,28.124-20.148,35.379c-0.152,0.193-0.296,0.375-0.441,0.545c-0.146,0.208-0.524,0.392-0.67,0.546
			c-0.176,0.188-0.114,0.336-0.227,0.438c-0.095,0.111,0.053,0.214-0.02,0.318c-0.086,0.133-0.389,0.26-0.496,0.385
			c-0.253,0.271-0.164,0.516-0.375,0.716c-0.371,0.364-0.965,0.585-0.965,0.585c-0.658,0.119-0.432,1,0.121,1.213
			c0.306,0.118,0.611,0.314,0.92,0.496c0.246,0.146,0.496,0.245,0.746,0.591c0.197,0.272-0.129,0.675-0.147,1.05
			c-0.021,0.291,0.099,0.573-0.114,0.783c-0.297,0.287-0.943,0.438-1.482,0.28c-0.641-0.191-1.469-0.688-2.23-1.054
			c-0.947-0.455-1.787-0.76-2.031-0.729c-0.22,0.03-0.713,0.155-0.863,0.383c-0.105,0.15-0.151,0.352,0.132,0.592
			c0.128,0.104,0.522,0.334,0.746,0.459c0.348,0.197,0.653,0.521,1.094,0.742c0.174,0.086,0.332-0.06,0.49,0.01
			c0.213,0.094,0.427,0.41,0.67,0.533c0.289,0.146,0.681,0.389,0.95,0.51c0.18,0.078,0.354,0.416,0.521,0.527
			c0.102,0.065,0.197-0.088,0.292-0.043c0.322,0.16,0.599,0.215,0.806,0.374c0.354,0.289,0.778,0.587,1.187,0.74
			c0.667,0.249,1.301-0.004,1.563-1.206c0.424-1.932,0.953-4.143,1.379-5.631c0.089-0.319,0.32-0.982,0.642-1.887
			c0.062-0.17-0.092-0.352-0.022-0.537c1.281-3.536,3.912-9.788,5.576-13.4c2.213-4.816,12.295-23.045,12.403-23.378
			C7213.939,7624.457,7214.695,7622.96,7213.828,7624.46z M7228.309,7596.211c1.68-3.238,51.808-88.62,56.344-96.432
			c0,0,1.332,0.759,1.121,1.861c-4.566,6.877-33.221,54.988-35.605,59.644c-2.381,4.651-19.631,34.137-30.463,55.185
			c0,0,43.841-74.712,45.579-77.816c1.708-3.059,20.681-33.698,21.827-35.448c0,0,1.195-1.972,1.14-1.86
			c-2.985-4.087-8.548-6.367-13.616-6.212c-0.421,1.987-18.693,46.695-24.324,57.55
			C7244.948,7563.016,7230.477,7592.227,7228.309,7596.211L7228.309,7596.211z M7209.675,7640.372
			c3.013-5.646,42.914-77.853,68.482-116.757c0.704-1.07,11.893-17.723,11.948-18.485c0.062-0.86-0.571-1.868-0.904-2.144
			c-0.559,0.895-6.811,10.99-12.253,19.447c-23.433,38.008-64.513,110.735-66.902,116.336c-0.088,0.215-0.606,1.66-0.696,1.856
			c-0.127,0.274,0.063,0.088-0.146,0.368c-0.564,0.742-1.068,2.068-1.564,2.852c-0.125,0.196-0.259,0.383-0.387,0.58
			c-0.05,0.088,0.014,0.227-0.029,0.317c-0.119,0.268-0.299,0.51-0.404,0.788c-0.041,0.096,0.021,0.232-0.027,0.312
			c-0.334,0.546-0.43,1.091-0.831,1.58c-0.056,0.065,0.015,0.218-0.033,0.308c-0.03,0.059-0.171,0.07-0.185,0.123
			c-0.21,0.75-0.749,1.234-1.088,1.889c-0.049,0.087-0.016,0.211-0.014,0.322c-0.107-0.029-0.189,0.026-0.209,0.115
			c-0.06,0.271-0.168,0.512-0.257,0.756c-0.075,0.203-0.303,0.401-0.348,0.584c-0.104,0.414-0.513,0.657-0.487,1.097
			c-0.324,0.11-0.22,0.222-0.229,0.327c-0.01,0.103-0.1,0.189-0.166,0.264c-0.275,0.295-0.406,0.702-0.528,1.088
			c-0.101,0.324-0.36,0.561-0.476,0.873c-0.026,0.064,0.017,0.154-0.021,0.203c-0.103,0.164,0.099,0.328,0.065,0.468
			c-0.045,0.17-0.443,0.456-0.516,0.604c-0.039,0.086-0.082,0.052-0.125,0.127c-0.416,0.679-0.322,1.353-0.687,2.033
			c-0.062,0.119-0.298,0.315-0.371,0.414c-0.493,0.627-0.365,1.426-0.838,2.01c0.079,0.332-0.194,0.568-0.233,0.881
			c-0.01,0.082,0.057,0.146,0.042,0.229c-0.028,0.284-0.131,0.519-0.184,0.78c-0.185,0.976-0.351,1.883-0.624,2.917
			c-0.2,0.768-0.717,1.105-0.814,1.936c-0.027,0.244,0.193,0.25,0.209,0.332c0.022,0.125,0.045,0.244,0.139,0.314
			c0.082,0.066,0.174-0.018,0.199-0.104c0.209-0.625,0.224-1.068,0.506-1.674c0.115-0.246-0.242-0.582-0.162-0.853
			c0.257-0.813,1.147-1.522,1.384-2.338c0.388-0.154,0.063-0.582,0.213-0.884c0.046-0.082,0.129-0.099,0.211-0.135
			c0.146-0.065-0.146-0.283-0.082-0.404c0.2-0.387,0.621-0.741,0.874-1.104c0.17-0.242,0.377-0.469,0.477-0.707
			c0.174-0.418,0.42-0.684,0.42-1.087c0.002-0.473,0.521-0.86,0.5-1.328c-0.006-0.124,0.142-0.231,0.168-0.337
			c0.134-0.615,0.199-1.189,0.43-1.775c0.074-0.19,0.02-0.426,0.02-0.648c0.289,0.027-0.039-0.34,0.217-0.333
			c-0.078-0.272,0.069-0.545,0.158-0.744c0.368-0.797,0.654-1.649,0.828-2.565c0.039-0.209,0.217-0.363,0.289-0.563
			c0.036-0.099-0.029-0.252,0.026-0.312c0.146-0.154,0.217-0.344,0.407-0.48c0.035-0.02-0.006-0.131,0.019-0.195
			c0.089-0.254,0.408-0.365,0.447-0.668c0.01-0.049,0.157-0.063,0.181-0.121c0.292-0.748,0.627-1.352,0.816-2.109
			c0.105-0.424,0.666-0.734,0.629-1.205c-0.004-0.032,0.158-0.059,0.174-0.118c0.15-0.489,0.131-0.903,0.43-1.33
			c0.053-0.083-0.003-0.217,0.026-0.319c0.021-0.088,0.378-0.106,0.397-0.139c0.252-0.395,0.049-1.021,0.19-1.427
			c0.075-0.226,0.499-0.333,0.634-0.511c0.092-0.119,0.069-0.272,0.178-0.363c0.025-0.021-0.026-0.073-0.023-0.08
			c0.062-0.148,0.072-0.23,0.197-0.35c0.06-0.051,0.096-0.162,0.066-0.265c0.082,0.067,0.029-0.118,0.111-0.054
			c-0.003-0.059-0.003-0.107-0.003-0.164 M7242.264,7564.552c3.506-4.821,20.674-40.86,29.252-66.747l-1.101,0.229
			C7269.504,7501.411,7260.624,7529.618,7242.264,7564.552z"/>
		<path fill="#0C2D82" d="M7261.555,7446.514c8.686-6.01,29.684-11.18,48.475-1.049c13.845,7.465,23.857,19.754,26.719,37.691
			l-10.496,6.016c-9.921-11.263-18.893-17.941-25.766-21.378c-6.869-3.433-22.9-10.305-38.168-11.065L7261.555,7446.514z
			 M7317.238,7454.891l-5.164,2.357l-5.139-2.977l0.599,5.623l-4.491,3.879l5.762,1.098l2.221,5.559l3.052-5.062l5.71-0.292
			l-3.723-4.423L7317.238,7454.891z M7331.975,7477.666l-3.42-0.025l-2.049-2.931l-1.104,3.22l-3.44,0.973l2.868,2.065l-0.208,3.604
			l2.96-1.987l3.189,1.294l-0.907-3.363L7331.975,7477.666z M7289.771,7444.568l-2.475,4.156l-5.039,0.406l3.145,3.643l-1.266,4.896
			l4.566-2.025l4.248,2.813l-0.315-5.022l3.856-2.975l-4.748-1.291L7289.771,7444.568z M7269.723,7446.001l-0.986,3.039
			l-3.188,0.994l2.557,1.894l-0.103,3.334l2.647-1.968l3.147,1.19l-0.937-3.188l2.05-2.48l-3.245-0.135L7269.723,7446.001z"/>
		<path fill="#0C2D82" d="M7358.277,7564.76h-2.27v6.176h-1.533v-6.176h-2.264v-1.34h6.064v1.34H7358.277z M7368.553,7570.936
			h-1.535v-5.979h-0.035l-2.174,5.979h-1.482l-2.105-5.979h-0.031v5.979h-1.539v-7.516h2.662l1.748,4.907h0.035l1.819-4.907h2.64
			v7.516H7368.553z"/>
	</g>
	<g>
		<path fill="#FFFFFF" d="M143.995,746C88.854,746,44,790.867,44,846c0,55.142,44.854,100,99.995,100s99.996-44.858,99.996-100
			C243.991,790.867,199.137,746,143.995,746"/>
		<path fill="#FFFFFF" d="M236.199,846c-0.009-0.574-0.034-1.149-0.043-1.724h-28.761c-0.455-15.552-6.552-30.973-18.42-42.838
			c-24.681-24.687-64.705-24.687-89.388,0c-11.911,11.908-18.018,27.385-18.437,42.987l-29.327-0.033
			c-0.012,0.551-0.02,1.074-0.032,1.592c0,0.156-0.009,0.304-0.009,0.468c0,0.419,0.026,0.83,0.034,1.24h29.331
			c0.381,15.659,6.491,31.187,18.44,43.135c24.682,24.678,64.702,24.678,89.389-0.009c11.982-11.974,18.087-27.574,18.44-43.274
			h28.757c0.01-0.41,0.033-0.82,0.033-1.238C236.207,846.205,236.203,846.098,236.199,846"/>
		<path fill="#CD1141" d="M143.995,753.788c-50.308,0-91.306,40.501-92.171,90.604l0,0l29.327,0.033
			c0.419-15.602,6.525-31.079,18.437-42.987c24.683-24.687,64.707-24.687,89.388,0c11.868,11.866,17.966,27.287,18.42,42.838h28.761
			c0.009,0.574,0.034,1.149,0.043,1.724h0.008C236.207,795.15,194.845,753.788,143.995,753.788"/>
		<path fill="#004784" d="M143.995,749.39c-53.356,0-96.606,43.258-96.606,96.611c0,53.352,43.25,96.61,96.606,96.61
			c53.353,0,96.604-43.257,96.604-96.61C240.599,792.647,197.348,749.39,143.995,749.39 M119.231,904.12
			c0.571,0.032,1.111-0.008,1.71-0.131c0.682,0.754,1.272,1.173,1.904,1.544C121.631,905.098,120.429,904.638,119.231,904.12z
			 M236.207,846.303c0,0.418-0.024,0.83-0.033,1.239h-28.757c-0.353,15.701-6.458,31.302-18.44,43.275
			c-17.333,17.333-42.207,22.446-64.047,15.444l0.477-0.697c-1.388-0.344-3.135-1.51-4.165-2.494
			c-2.282,0.582-3.521-0.469-5.097-0.928l-0.144,0.483c-5.912-2.962-11.48-6.868-16.413-11.8c-2.344-2.339-4.383-4.851-6.274-7.428
			c0.625,0.368,1.343,0.771,1.929,0.977l-0.562-0.953c0,0-1.609-1.058-2.904-2.107c-1.047-1.567-2.004-3.169-2.894-4.802
			c1.871,1.707,3.147,2.002,4.563,2.676l-0.427-2.028c-1.211-0.386-3.615-1.411-5.396-3.16c-4.059-8.288-6.258-17.266-6.477-26.311
			H51.815c-0.008-0.41-0.032-0.819-0.032-1.238c0-0.165,0.008-0.312,0.008-0.468c0,0.009-0.008,0.009-0.008,0.017
			c0-0.534,0.032-1.066,0.041-1.608c0.865-50.102,41.863-90.604,92.171-90.604c50.851,0,92.212,41.362,92.212,92.212h-0.008
			C236.203,846.098,236.207,846.205,236.207,846.303z"/>
		<path fill="#FFFFFF" d="M77.237,874.765c1.099-0.402,1.857-1.174,2.293-2.306c0.6-1.56,0.488-3.767-0.299-5.909l-2.216-6.041
			l-0.342,0.329c0,0-1.222,1.182-1.23,1.19c-0.021-0.017-1.493,0.517-1.493,0.517s-2.946,1.06-2.975,1.074
			c0-0.081-1.777-0.819-1.777-0.819l-0.274-0.115c0,0-0.883,1.945-0.981,2.158c-0.217,0.083-4.932,1.807-4.94,1.807
			c-0.008-0.018-1.612-0.107-1.612-0.107l-0.464-0.024l1.998,5.564c0,0,1.56-1.633,1.564-1.642c0.021,0.017,3.987-1.46,5.092-1.862
			c0.042,0.115,0.287,0.812,0.365,1.042c-0.234,0.255-5.662,6.245-5.662,6.245l1.584,4.514c0,0,1.402-2.142,1.44-2.199
			c0.094-0.1,4.595-4.81,4.928-5.162C73.63,874.625,75.587,875.363,77.237,874.765 M77.2,869.16
			c-0.23,0.607-0.743,1.075-1.478,1.345c-0.8,0.288-1.646,0.238-2.298-0.122h-0.009c-0.504-0.264-0.874-0.706-1.083-1.265
			c0,0-0.357-0.96-0.533-1.437c0.496-0.172,4.395-1.477,4.878-1.642c0.14,0.378,0.452,1.239,0.452,1.239
			c0.144,0.394,0.208,0.764,0.208,1.099C77.34,868.659,77.294,868.922,77.2,869.16z"/>
		<path fill="#FFFFFF" d="M91.755,890.342c0,0-6.529,2.281-6.554,2.289c0-0.041-1.953-0.525-1.953-0.525l-0.246-0.058
			c0,0-0.776,1.649-0.87,1.855c-0.246,0.083-5.466,1.83-5.466,1.83s0.033,0.016,0.037,0.016c-0.246,0.019-0.698,0.083-1.683,0.23
			c-0.005,0-0.779,0.131-0.779,0.131l3.34,3.833c0,0,0.779-1.648,0.865-1.846c0.185-0.074,2.097-0.838,2.408-0.953
			c0.242,0.279,3.312,3.759,3.545,4.029c-0.164,0.295-1.156,2.035-1.251,2.2c-0.201,0.065-1.961,0.6-1.961,0.6l4.349,4.964
			c0,0,0.566-2.535,0.566-2.552c0.004,0.049,1.125-1.823,1.125-1.823s1.77-2.937,1.78-2.954c0.021,0.05,1.741-0.623,1.741-0.623
			l0.23-0.091c0,0-0.349-2.363-0.354-2.372c0.049,0.009,3.029-6.129,3.029-6.129l0.089-0.181l-1.71-1.97 M88.136,894.485
			c-0.574,0.994-2.135,3.702-2.446,4.244c-0.405-0.461-1.829-2.085-2.257-2.568C84.065,895.938,87.048,894.871,88.136,894.485z"/>
		<path fill="#FFFFFF" d="M118.357,911.811c-0.037-0.024-2.225,4.448-2.225,4.448s-0.641,1.305-1.071,2.175
			c-0.287-1.576-2.108-11.621-2.108-11.621l-4.268-2.093l0.036,0.525c0,0,0.128,1.986,0.128,2.002
			c-0.025-0.041-1.165,2.281-1.165,2.281s-0.714,1.46-0.809,1.657c-0.218,0.083-2.052,0.789-2.052,0.789s0.595,2.231,0.6,2.248
			c-0.066-0.008-1.551,2.996-1.551,2.996s-0.862,1.748-0.874,1.763c-0.021-0.024-1.362,0.953-1.362,0.953l-0.402,0.304l4.862,2.412
			c0,0-0.292-2.453-0.295-2.461c0.037,0,3.086-6.123,4.182-8.33c0.283,1.624,2.413,13.936,2.413,13.936l2.003,1.018
			c0,0,3.237-6.631,3.25-6.664c0.037,0.058,1.679-0.706,1.679-0.706l0.23-0.106c0,0-0.502-2.044-0.51-2.06
			c0.074,0,1.306-2.528,1.306-2.528s0.804-1.657,0.812-1.675c0.033,0.009,1.306-1.001,1.306-1.001l0.378-0.295l-4.703-2.379
			C118.144,909.396,118.357,911.803,118.357,911.811"/>
		<path fill="#FFFFFF" d="M148.546,925.36c-0.027,0-0.037,1.526-0.037,1.526l-0.009,2.987c-0.344,0.107-0.738,0.426-1.953,0.418
			c-2.971-0.024-4.719-2.683-5.138-5.31c0.029-0.024,1.338-1.329,1.338-1.329l0.196-0.197c0,0-1.211-1.437-1.373-1.633
			c0.012-0.066,0.086-0.518,0.086-0.518c0.61-2.101,2.265-4.356,5.08-4.292c2.027,0.042,3.537,0.534,4.248,1.388
			c0-0.008,0.25,0.312,0.25,0.312l0.525,0.648l0.099-3.217l-0.21-0.14c-1.448-0.984-2.695-1.33-4.924-1.346
			c-4.28-0.041-8.174,2.586-9.476,6.377c-0.004,0.016-0.213,0.787-0.222,0.804c-0.012-0.032-1.23,1.238-1.23,1.238l-0.181,0.189
			l1.362,1.788c0.723,4.285,4.851,7.534,9.553,7.576c3.299,0.025,4.263-0.451,5.384-1.01l0.656-0.329c0,0,0.033-6.015,0.033-6.04
			c0.041,0,0.853-1.452,0.853-1.452l0.259-0.459l-6.232-0.042C147.483,923.3,148.542,925.344,148.546,925.36"/>
		<path fill="#FFFFFF" d="M182.665,920.78c-0.008-0.032-2.609,1.108-2.609,1.108s-1.01,0.442-1.404,0.615
			c-0.126-0.295-1.937-4.621-2.142-5.122c0.461-0.196,2.795-1.205,2.8-1.205c0.008,0.008,1.705-0.082,1.705-0.082l0.433-0.024
			l-1.494-3.604c0,0-1.629,1.51-1.633,1.51c-0.004-0.008-2.712,1.166-2.712,1.166s-0.034,0.016-0.051,0.024
			c-0.205-0.477-1.587-3.686-1.788-4.152c0.427-0.181,4.013-1.731,4.144-1.789c0.165,0.017,3.046,0.173,3.046,0.173l-1.474-3.496
			l-0.415,0.181l-10.969,4.76l1.929,1.411c0,0.082,1.785,4.243,1.933,4.613c-0.099,0.213-0.944,2.026-0.944,2.026
			s1.937,0.713,2.159,0.796c0.09,0.222,1.962,4.802,1.962,4.818c-0.024,0.008-0.156,1.674-0.156,1.674l-0.041,0.509l11.227-4.892
			l-1.449-3.389C184.721,918.409,182.679,920.772,182.665,920.78"/>
		<path fill="#FFFFFF" d="M204.866,894.74c0.236-0.673,0.418-1.354,0.418-1.994c0-1.297-0.465-2.471-1.351-3.233
			c-0.894-0.764-1.94-1.06-3.135-0.879c-1.646,0.239-3.513,1.429-4.985,3.169l-4.16,4.898c0,0,2.134,0.633,2.142,0.633l0,0
			c0,0.05,3.491,3.095,3.523,3.127c-0.013,0-0.013,0.032-0.013,0.098c0,0.402,0.164,1.847,0.164,1.847l0.033,0.304
			c0,0,2.134-0.188,2.363-0.213c0.189,0.164,4.006,3.446,4.006,3.446c0,0.05,0.689,1.452,0.689,1.452l0.2,0.42l3.862-4.473
			c0,0-2.176-0.566-2.18-0.566c0-0.025-3.242-2.774-4.132-3.53c0.147-0.18,0.582-0.673,0.727-0.836
			c0.341,0.074,8.203,1.888,8.203,1.888l3.142-3.603c0,0-2.568-0.182-2.605-0.182C211.734,896.496,205.374,894.871,204.866,894.74
			 M202.005,895.044c0,0.559-0.197,1.083-0.578,1.519c0,0.008-0.656,0.787-0.978,1.182c-0.406-0.369-3.446-3.127-3.824-3.472
			c0.256-0.296,0.858-0.992,0.858-0.992c0.488-0.583,1.03-0.911,1.587-0.985c0.648-0.099,1.302,0.114,1.896,0.623
			c0.648,0.567,1.018,1.331,1.038,2.077C202.005,895.012,202.005,895.027,202.005,895.044z"/>
		<path fill="#FFFFFF" d="M226.104,867.985c-0.628-1.419-1.839-2.452-3.397-2.921c-0.689-0.214-1.518-0.164-2.044-0.033h-0.004
			c-0.874,0.247-1.646,0.805-1.974,1.099c-0.009,0.009-1.06,1.044-1.06,1.044c-0.024,0.032-0.368,0.442-0.493,0.591
			c-0.221,0-1.543,0.016-1.543,0.016s-0.5,1.987-0.516,2.077c-0.032,0-0.189,0.181-0.189,0.181
			c-1.199,1.255-1.986,1.265-2.355,1.148c-0.768-0.296-2.081-1.478-1.447-3.226c0.516-1.443,1.065-2.19,2.015-2.725l0.241-0.131
			l0.013-0.336l-0.664-1.502l-0.412,0.205c-1.16,0.606-2.182,2.093-2.875,4.178c-0.932,2.798-0.378,6.385,2.486,7.518
			c0.456,0.163,1.125,0.368,1.777,0.246c0.788-0.164,1.615-0.583,2.347-1.182c0.009-0.008,0.472-0.435,0.472-0.435
			c-0.014,0.008,0.184-0.148,0.209-0.173c0.017,0.058,1.309,0.082,1.309,0.082h0.234c0,0,0.64-2.248,0.64-2.256
			c0.024,0.008,1.543-1.708,1.543-1.708c0.587-0.549,1.399-0.869,1.921-0.746c0.886,0.246,1.494,0.78,1.858,1.485
			c0.451,0.886,0.505,2.002,0.153,3.225c-0.74,2.076-2.188,2.717-3.276,2.897l-0.377,0.066l-0.037,0.386l0.611,1.559l0.32-0.032
			c1.279-0.124,3.521-1.648,4.473-4.661C226.798,871.63,226.811,869.578,226.104,867.985"/>
		<path fill="#FFFFFF" d="M91.869,799.377c0-0.057-4.033-3.464-4.099-3.521c0.004,0,0.008-0.008,0.008-0.034
			c0-0.271-0.271-1.772-0.271-1.772l-0.054-0.279c0,0-1.813,0.189-2.035,0.205c-0.176-0.148-2.983-2.511-3.38-2.839
			c0.312-0.378,1.665-2.02,1.674-2.036c0.012,0.024,2.179-0.944,2.179-0.944l0.469-0.205l-2.943-2.306l-0.184,0.238l-8.938,10.66
			l2.835,2.331c0,0,0.681-2.725,0.686-2.725c0.017,0.008,1.313-1.535,1.756-2.06c0.402,0.336,3.221,2.65,3.394,2.79
			c0.02,0.222,0.234,2.069,0.234,2.069s1.862-0.083,2.071-0.09c0.172,0.148,4.107,3.455,4.107,3.455
			c0,0.057,0.678,1.519,0.678,1.519l0.204,0.442l3.816-4.564C94.076,799.713,91.883,799.377,91.869,799.377"/>
		<path fill="#FFFFFF" d="M104.646,777.81c-0.085,0.23-0.783,2.051-0.783,2.051s1.945,0.558,2.171,0.624
			c0.116,0.238,2.367,4.792,2.372,4.809c-0.029,0.008-0.041,1.511-0.041,1.511l-0.004,0.517l10.652-5.589l-1.612-3.233
			c0,0-1.769,2.372-1.769,2.38c-0.017-0.024-3.414,1.772-4.125,2.151c-0.249-0.476-2.351-4.587-2.589-5.055
			c0.452-0.23,2.905-1.518,2.914-1.518c0,0.017,1.518-0.189,1.518-0.189l0.432-0.058l-1.576-3.16c0,0-1.412,1.51-1.416,1.51
			c-0.008-0.017-2.232,1.149-2.877,1.485c-0.238-0.452-1.871-3.602-2.104-4.054c0.479-0.246,4.302-2.233,4.312-2.233
			c0,0.025,2.323-0.017,2.323-0.017l0.496-0.017l-1.736-3.356l-0.274,0.147l-10.509,5.522l1.896,1.174
			C102.317,773.296,104.335,777.21,104.646,777.81"/>
		<path fill="#FFFFFF" d="M170.52,780.477c0.148-0.147,1.708-1.707,1.962-1.962c0.354,0.165,4.785,2.257,5.137,2.421
			c-0.041,0.361-0.278,2.502-0.303,2.708c-0.156,0.139-1.461,1.248-1.461,1.248l5.58,2.61L181,785.179
			c0.017,0,0.756-5.359,0.764-5.433c0.051,0.033,1.563-1.321,1.563-1.321l0.213-0.189c0,0-1.539-1.953-1.547-1.961
			c0.075-0.008,0.402-7.099,0.402-7.099l0.01-0.205l-2.192-1.05l-0.156,0.139c0,0-5.366,4.965-5.384,4.973
			c-0.009-0.041-2.035,0.271-2.035,0.271l-0.262,0.041c0,0,0.012,1.822,0.012,2.06c-0.192,0.18-4.23,3.808-4.23,3.808
			c0.042-0.033-1.452,0.902-1.452,0.902l-0.476,0.295l4.235,1.986C170.462,782.397,170.511,780.691,170.52,780.477 M174.286,776.768
			c0.501-0.476,3.282-3.069,4.157-3.89c-0.137,1.19-0.563,4.899-0.642,5.556C177.232,778.154,174.89,777.055,174.286,776.768z"/>
		<path fill="#FFFFFF" d="M199.842,804.097c1.346,0.418,2.75,0.263,4.071-0.444c0.636-0.337,1.189-0.952,1.428-1.387
			c0.484-0.821,0.615-1.806,0.615-2.109l0.024-1.51c0-0.024-0.049-0.624-0.064-0.82c0.159-0.165,1.06-1.083,1.06-1.083
			s-1.019-1.731-1.043-1.772c0.009-0.008,0.013-0.058,0.013-0.115c0-0.082-0.004-0.295-0.004-0.345c0-1.337,0.356-2.232,1.018-2.519
			c0.805-0.353,2.63-0.312,3.422,1.395c0.665,1.444,0.796,2.395,0.492,3.512l-0.078,0.272l1.552,0.599l0.103-0.312
			c0.521-1.642-0.329-3.783-0.874-4.916c-1.284-2.602-4.141-4.728-6.924-3.529c-0.427,0.172-1.025,0.501-1.387,1.026
			c-0.446,0.657-0.738,1.527-0.829,2.455l-0.04,0.656c0-0.032-0.024,0.295-0.034,0.337c-0.049-0.041-0.943,0.821-0.943,0.821
			l-0.172,0.164c0,0,1.1,2.003,1.1,2.011c0,0,0,0.024,0,0.065c0,0.377,0.099,2.274,0.099,2.274c-0.024,0.853-0.41,1.724-0.912,2.034
			c-0.641,0.41-1.46,0.534-2.257,0.329c-0.754-0.189-1.838-0.755-2.709-2.339c-0.967-2.102-0.367-3.652,0.305-4.58l0.229-0.312
			l-1.629-0.706l-0.148,0.181c-0.927,1.142-1.219,3.75,0.103,6.353C196.585,802.061,198.11,803.555,199.842,804.097"/>
		<path fill="#FFFFFF" d="M139.852,776.004c0.159-0.205,3.011-3.89,3.455-4.464c0.409,0.607,3.06,4.563,3.068,4.579
			c-0.004,0-0.004,0.009-0.004,0.025c0,0.197,0.123,1.256,0.123,1.256l0.028,0.271l5.881-0.009l-2.146-2.101
			c0-0.008-3.271-4.867-3.82-5.688c0.157-0.246,0.744-1.182,0.744-1.182s-0.756-0.845-0.99-1.107
			c0.275-0.378,3.969-5.319,3.969-5.319l1.703-1.97l-5.289-0.008l0.179,0.427c0,0,0.42,0.977,0.526,1.231
			c-0.185,0.247-2.778,3.693-3.213,4.268c-0.405-0.624-2.844-4.35-2.852-4.366c0,0,0-0.008,0-0.033c0-0.196-0.115-1.255-0.115-1.255
			l-0.032-0.271l-5.482,0.008l1.748,2.002c0,0.009,3.053,4.645,3.574,5.441c-0.151,0.246-0.751,1.215-0.751,1.215
			s0.878,0.845,1.142,1.108c-0.296,0.401-4.252,5.621-4.252,5.621c-0.004,0-1.51,1.429-1.51,1.429l-0.574,0.542l5.262-0.057
			C140.219,777.597,139.9,776.234,139.852,776.004"/>
		<polyline fill="#FFFFFF" points="218.069,815.24 220.335,822.208 227.664,822.208 221.73,826.51 223.995,833.469 218.069,829.167 
			212.148,833.469 214.409,826.51 208.487,822.208 215.813,822.208 		"/>
		<polyline fill="#FFFFFF" points="69.31,815.24 71.57,822.208 78.891,822.208 72.974,826.51 75.23,833.469 69.31,829.167 
			63.388,833.469 65.648,826.51 59.728,822.208 67.044,822.208 		"/>
		<path fill="#004784" d="M202.12,933.453h-1.99v5.439h-1.354v-5.439h-1.99v-1.182h5.334 M211.168,938.893h-1.346v-5.268h-0.033
			l-1.912,5.268h-1.304l-1.848-5.268h-0.041v5.268h-1.346v-6.621h2.339l1.543,4.323h0.024l1.609-4.323h2.314L211.168,938.893
			L211.168,938.893z"/>
		<path fill="#004784" d="M139.784,784.399c0,0-0.902-0.729-1.543-1.182c-0.468,0.042-0.936,0.099-1.395,0.156
			c0.427,0.156,1.985,0.771,2.199,1.133"/>
		<path fill="#004784" d="M136.888,785.278c0,0-0.969-0.837-2.363-1.6c-0.566,0.083-1.12,0.197-1.674,0.295
			c1.034,0.271,2.002,0.886,3.041,1.395"/>
		<path fill="#004784" d="M131.381,786.788l1.679-0.533c0,0-2.188-1.075-2.979-1.092c-0.399-0.189-0.611-0.354-0.933-0.411
			c-0.755,0.189-1.501,0.394-2.248,0.607c0.484,0.073,1.493,0.279,1.862,0.698C129.888,785.861,130.667,786.426,131.381,786.788"/>
		<path fill="#004784" d="M127.04,788.75l1.691-0.599c-0.186-0.312-2.371-1.264-3.596-1.28c-0.447-0.353-0.919-0.46-1.313-0.542
			c-0.652,0.222-1.288,0.444-1.937,0.689c0.218,0.049,1.403,0.32,1.978,0.812C125.037,787.633,126.199,788.216,127.04,788.75"/>
		<path fill="#004784" d="M119.218,789.48c1.261-0.124,2.619,0.64,3.439,1.157l1.806-0.459c-0.969-0.87-2.75-1.567-3.768-1.51
			c-0.427-0.64-1.337-0.312-1.912-0.377l-2.232,1.009C116.844,789.299,118.981,788.93,119.218,789.48"/>
		<path fill="#004784" d="M118.344,793.452l1.581-1.198c-1.239-0.665-3.168-1.035-4.182-0.985c-0.505-0.18-0.436-0.345-1.014-0.41
			l-2.171,1.173c0.275,0.017,2.105,0.058,2.356,0.591C116.166,792.517,117.545,792.952,118.344,793.452"/>
		<path fill="#004784" d="M109.165,796.957c1.474-0.272,3.636-0.863,5.745-0.387l1.583-1.403c-2.379-0.418-4.907-0.295-6.188,0.041
			c-0.312-0.476-1.029-0.968-1.029-0.968l-1.51,1.272C108.484,795.733,108.729,796.34,109.165,796.957"/>
		<path fill="#004784" d="M104.93,801.7c1.224-0.599,3.899-1.025,6.611-0.664l1.399-1.797c-4.111-0.295-5.799,0.229-7.078,0.845
			c-0.439-0.739-1.079-1.173-1.079-1.173l-1.252,1.149C104.254,800.28,104.488,801.101,104.93,801.7"/>
		<path fill="#004784" d="M102.132,805.188c-0.427-0.747-1.202-1.502-1.202-1.502l-0.989,1.56c0.907,0.492,0.82,1.083,1.255,1.699
			c1.229-0.615,3.73-1.789,6.452-1.411l1.387-1.799C104.783,803.834,102.436,804.202,102.132,805.188"/>
		<path fill="#004784" d="M99.129,810.596c-0.432-1.026-1.576-2.257-1.576-2.257l-0.738,1.765c0.657,0.492,1.062,1.707,1.514,2.322
			c1.224-0.632,2.796-1.83,5.499-1.436l1.284-2.093C101.664,808.897,99.437,809.602,99.129,810.596"/>
		<path fill="#004784" d="M96.597,815.822c-0.546-1.362-1.772-2.535-1.772-2.535l-0.729,1.962c0.911,0.5,1.06,1.716,1.502,2.307
			c1.218-0.599,3.057-1.731,5.785-1.371l1.129-2.067C99.19,814.117,96.893,814.83,96.597,815.822"/>
		<path fill="#004784" d="M94.094,822.094c-0.616-1.214-1.962-2.732-1.962-2.732l-0.604,2.034c0.902,0.51,1.326,1.716,1.766,2.339
			c1.227-0.623,2.721-1.633,5.44-1.255l0.87-1.962C95.472,820.772,94.401,821.116,94.094,822.094"/>
		<path fill="#004784" d="M91.603,827.724c-0.435-0.747-1.957-2.603-1.957-2.603l-0.41,2.035c0.919,0.509,1.329,1.715,1.781,2.331
			c1.211-0.616,3.245-1.731,5.957-1.37l0.686-2.027C93.667,826.328,91.923,826.723,91.603,827.724"/>
		<path fill="#004784" d="M90.138,834.503c-0.435-0.747-2.314-3.349-2.314-3.349l-0.427,2.175c0.907,0.837,1.576,2.388,2.021,3.021
			c1.217-0.625,3.13-2.323,5.83-1.938l0.426-1.822C91.727,832.895,91.098,833.329,90.138,834.503"/>
		<path fill="#004784" d="M88.484,843.275c0.523-1.042,2.522-2.027,5.252-1.805l0.337-1.979c-3.237,0.181-4.694,0.715-5.122,1.643
			c-0.476-0.739-2.881-3.234-2.881-3.234l-0.315,2.102C87.352,841.389,88.013,842.701,88.484,843.275"/>
		<path fill="#004784" d="M87.562,850.505c0.103-0.107,0.234-0.476,0.504-0.812c0.488-0.582,1.884-1.412,4.888-1.288l0.173-1.855
			c-3.464,0.034-4.578,0.887-4.871,1.223c-0.271,0.247-0.377,0.707-0.455,0.968c-0.533-1.419-2.82-3.7-2.82-3.7l-0.138,2.027
			C85.641,847.428,87.117,849.898,87.562,850.505"/>
		<path fill="#004784" d="M92.526,862.118l-0.053-1.985c-2.615-1.166-3.952-0.961-4.913-0.396c-0.438-0.754-3.061-1.723-3.061-1.723
			l0.127,2.002c1.06,0.246,2.351,0.903,2.803,1.519C88.648,860.912,90.38,860.969,92.526,862.118"/>
		<path fill="#004784" d="M87.257,856.217c0.563-0.942,1.198-1.436,5.249-0.582l0.017-1.928c-4.777-0.238-4.707,0.196-4.858,0.812
			c-0.407-0.764-3.16-3.117-3.16-3.117l0.04,2.231C85.443,854.174,86.844,855.577,87.257,856.217"/>
		<path fill="#004784" d="M87.881,867.059c0.238-0.624,0.993-0.279,1.979,0.164c0.882,0.401,1.53,0.87,2.536,1.42l-0.054-2.002
			c-2.194-1.412-4.354-2.486-4.657-1.511c-0.431-0.739-2.721-1.781-2.721-1.781l0.513,2.225
			C86.658,865.886,87.438,866.442,87.881,867.059"/>
		<path fill="#004784" d="M88.411,872.099c1.038-0.132,1.953,0.271,4.185,1.87l-0.165-1.895c-2.276-1.904-3.385-1.798-4.197-1.798
			c-0.447-0.812-2.253-1.806-2.253-1.806l0.278,2.02C87.22,870.883,87.96,871.425,88.411,872.099"/>
		<path fill="#004784" d="M181.435,854.913c-0.714-0.501-1.937-1.198-4.186-3.668l-1.666,1.017c0.755,0.567,4.149,4.49,5.736,3.899
			c0,0-0.713,4.858-0.586,7.37l1.818-1.174c-0.058-1.32,0.027-6.885,0.353-8.19C182.978,854.1,181.886,855.226,181.435,854.913"/>
		<path fill="#004784" d="M186.259,851.572c-1.71-2.494-2.852-3.603-3.839-4.284l-1.225,0.911c0.518,0.147,1.896,1.526,3.85,4.432
			l1.169-0.96c0.165,3.226,0.423,6.295,0.066,7.764l1.411-1.093c0.287-2.363,0.209-5.104-0.127-7.615"/>
		<path fill="#004784" d="M122.83,899.943c-2.286,0.575-4.399-0.442-5.967-0.911l-0.435,1.338c2.207,1.149,4.341,0.977,5.948,0.623
			c0.891,1.265,1.642,1.97,3.604,2.709l0.706-1.025C124.594,902.43,123.773,901.354,122.83,899.943"/>
		<path fill="#004784" d="M124.438,896.283c-2.293,0.583-4.71-0.256-6.295-0.723l-0.659,1.511c2.393,0.82,4.612,0.992,6.231,0.649
			c0.821,1.362,1.716,2.649,3.686,3.389l0.73-1.289C126.493,899.147,124.972,898.277,124.438,896.283"/>
		<path fill="#004784" d="M127.016,891.457l-0.246,0.386c-2.281,0.583-5.048,0.083-6.631-0.386l-0.809,1.438
			c2.204,0.681,4.129,0.795,6.577,0.516l0.132-0.221c0.891,1.633,1.12,2.609,3.415,3.955l1.125-1.288
			C129.124,895.274,127.359,892.942,127.016,891.457"/>
		<path fill="#004784" d="M129.271,888.527l-0.127,0.181c-2.199,0.419-4.801-0.723-6.373-1.182l-0.902,1.354
			c2.207,1.157,4.366,1.247,6.303,1.247l0.115-0.164c0.812,1.78,1.593,3.636,3.545,4.383l1.115-1.297
			C131.505,892.476,129.622,890.014,129.271,888.527"/>
		<path fill="#004784" d="M125.103,884.334c0.201,0.099,0.428,0.196,0.657,0.304v-1.001"/>
		<path fill="#004784" d="M162.87,873.731c-1.182-1.239-1.14-4.908-1.017-6.894l-0.542,0.329c-2.221-0.362-4.612-2.568-5.725-4.071
			l-0.135,0.05c0-4.53,0-9.521,0-11.572c0-4.178,5.786-5.777,5.786-5.777s-1.577-0.624-3.078-1.756l-2.347,0.664
			c-0.058,0.017-5.15,1.493-5.15,4.949v20.427c0,1.387,0.571,2.307,3.345,2.307h1.444c0-0.132,0.008-0.263,0-0.402
			c0,0,0-2.708,0-6.188c1.444,1.265,2.959,2.306,4.107,2.438l0.501-0.296c0.021,2.487-0.193,3.957,0.399,5.696l-1.224-1.141v12.391
			h-33.378l5.244,4.949h2.274c0.336,0.55,0.726,0.978,1.201,1.108l1.089-1.108h27.61v-13.573l-1.999-1.854"/>
		<path fill="#004784" d="M169.444,863.119l-0.545,0.32c-2.221-0.361-4.608-2.568-5.725-4.078l-2.068,0.86
			c1.876,1.953,4.358,4.087,6.04,4.285l0.503-0.296c0.023,2.93-0.354,4.424,0.753,6.655l2.061-0.861
			C169.271,868.773,169.32,865.098,169.444,863.119"/>
		<path fill="#004784" d="M177.191,859.294l-0.074-0.122c-0.729,0.254-1.657,0.033-2.494-0.68c-0.828-0.707-3.577-3.965-3.577-3.965
			l-2.267,1.239c1.313,1.354,5.613,4.768,6.492,4.792l0.127-0.089c0.013,2.881-0.349,4.365,0.75,6.573l2.061-0.854
			C177.024,864.948,177.077,861.271,177.191,859.294"/>
		<path fill="#004784" d="M190.199,848.454c-0.846-1.47-2.569-3.438-3.882-4.341l-1.182,1.042c1.182,0.698,3.603,2.947,4.333,4.711
			l0.779-0.837c0.234,2.807,0.224,5.958-0.105,7.428l1.452-1.149c0.238-2.536,0.083-5.458-0.37-7.6"/>
		<path fill="#004784" d="M193.834,845.614c0.365,0.943,0.649,2.093,0.365,7.771l1.383-1.289c0.041-4.259-0.192-5.425-0.647-7.566"
			/>
		<path fill="#004784" d="M197.29,841.979c0.641,2.15,1.043,5.811,0.689,7.928l1.271-1.682c0.222-2.397-0.532-5.392-0.977-7.535"/>
		<path fill="#004784" d="M199.981,838.072l-0.496,0.854c1.392,1.781,1.924,3.791,2.08,6.467l0.984-1.51
			C202.518,841.084,200.672,837.44,199.981,838.072"/>
		<path fill="#004784" d="M201.697,835.217l-0.271,0.327l0.201-0.327c-0.739-1.494-1.638-3.103-3.058-4.087l-0.768,1.025
			c1.161,0.723,2.377,2.462,3.114,4.228l0.378-0.625c0.641,0.558,1.793,1.396,2.544,5.745l0.578-1.51
			C203.782,835.849,201.854,834.298,201.697,835.217"/>
		<path fill="#004784" d="M203.274,831.949l-0.124,0.353c-0.739-1.469-1.214-2.478-2.872-3.987l-0.566,0.91
			c1.547,1.388,2.232,2.151,2.954,4.178l0.362-0.771l-0.041,0.114c0.869,0.723,1.854,1.871,2.449,5.048l0.446-1.797
			C205.711,833.698,203.585,831.163,203.274,831.949"/>
		<path fill="#004784" d="M189.649,840.821l-1.174,1.043c1.174,0.697,3.595,2.946,4.318,4.71l0.972-1.033
			C193.026,844.055,191.078,841.799,189.649,840.821"/>
		<path fill="#004784" d="M193.204,837.448l-1.116,0.895c0.812,0.542,3.635,2.905,4.356,4.679l0.854-1.174
			C196.56,840.346,194.681,838.441,193.204,837.448"/>
		<path fill="#004784" d="M198.939,839.64l0.697-1.042c-0.737-1.502-1.973-3.397-3.397-4.383l-0.968,1.025
			C196.434,835.954,198.197,837.876,198.939,839.64"/>
		<path fill="#004784" d="M203.856,830.111l0.434-0.902c-0.739-1.51-1.128-1.912-2.782-3.578l-0.304,0.919
			C202.357,827.543,203.134,828.355,203.856,830.111"/>
		<path fill="#004784" d="M204.176,829.66c0.518,0.361,1.025,0.887,1.56,1.731c-0.156-0.673-0.332-1.346-0.508-2.011l-0.617-0.688"
			/>
		<path fill="#004784" d="M203.609,824.293c-0.242-0.303-0.571-0.664-1.051-1.141l-0.255,0.862c0.861,0.936,1.699,1.92,2.372,3.438
			C204.349,826.386,203.987,825.334,203.609,824.293"/>
		<polyline fill="#004784" points="166.58,835.479 171.619,840.246 179.842,840.246 179.842,813.091 175.284,808.832 
			175.284,835.479 		"/>
		<path fill="#004784" d="M150.663,837.794c0,3.216,5.175,5.276,5.229,5.301l2.129,0.837c-1.329-1.034-2.568-2.445-2.568-4.228
			c0-3.849,0-17.349,0-17.349l0.82,0.049c3.184,0.271,5.481,1.117,7.107,2.348c-2.644-2.643-6.902-4.087-12.717-4.104
			C150.663,822.274,150.663,837.794,150.663,837.794"/>
		<path fill="#004784" d="M134.188,820.6c-10.611,0-14.94,3.677-14.952,12.803l-0.009,2.077h-10.492l4.784,4.488h9.972l0.013-1.674
			c0-9.348,0.91-15.24,10.825-16.225c0-0.715,0-1.248,0-1.47C134.29,820.6,134.188,820.6,134.188,820.6"/>
		<path fill="#CD1141" d="M148.968,870.079v-20.427c0-3.201,2.721-4.965,4.612-5.852c-1.872-1.043-4.612-3.028-4.612-6.007v-18.941
			l0.89,0.05c0,0,0.81,0.04,0.768,0.04c11.153,0,17.547,5.038,17.547,13.845c0,0,0,0.501,0,0.993c1.141,0,4.275,0,5.416,0
			c0-1.527,0-21.831,0-23.357c-1.641,0-61.6,0-63.232,0c0,1.526,0,21.83,0,23.357c1.252,0,6.102,0,7.255,0
			c0.04-0.477,0.083-0.952,0.083-0.952l-0.144,0.476c0-9.963,5.129-14.401,16.639-14.401h1.839v18.892
			c0,3.232-2.353,5.079-4.034,6.048c1.699,0.869,4.034,2.576,4.034,5.811v20.237c0,2.626-1.814,4.193-4.843,4.193
			c0,0-2.606,0-3.73,0c0,1.321,0,7.779,0,9.102c1.563,0,28.515,0,30.083,0c0-1.322,0-7.78,0-9.102c-1.101,0-3.529,0-3.529,0
			C150.659,874.083,148.968,872.737,148.968,870.079"/>
	</g>
</g>
<g id="svg12082">
</g>
<g id="svg31568">
</g>
<g id="CLEVELAND_INDIANS">
</g>
<g id="svg2562">
</g>
<g id="svg3060">
</g>
</svg>
