<?xml version="1.0" encoding="utf-8"?>
<!-- Generator: Adobe Illustrator 14.0.0, SVG Export Plug-In . SVG Version: 6.00 Build 43363)  -->
<!DOCTYPE svg PUBLIC "-//W3C//DTD SVG 1.1//EN" "http://www.w3.org/Graphics/SVG/1.1/DTD/svg11.dtd">
<svg version="1.1" xmlns="http://www.w3.org/2000/svg" xmlns:xlink="http://www.w3.org/1999/xlink" x="0px" y="0px" width="200px"
	 height="200px" viewBox="44 746 200 200" enable-background="new 44 746 200 200" xml:space="preserve">
<g id="Layer_1">
	<g>
		<path fill="#FFFFFF" stroke="#FFFFFF" stroke-width="0.5877" d="M7218.837,7645.277c-2.438,4.812-9.872,18.5-9.485,20.523
			c0.48,2.512,2.055,4.428,1.979,6.965c-0.05,1.572-1.985,5.439-3.489,6.526c-1.259,0.907-5.062,8.043-20.085,0.963l-2.007-1.058
			c-14.529-8.039-10.977-15.297-10.977-16.85c0-1.854,1.998-5.688,3.246-6.646c2.012-1.546,4.485-1.396,6.805-2.473
			c1.867-0.875,7.51-12.213,9.984-17.006l0.039-0.107c-49.488-24.303-83.552-75.2-83.552-134.059
			c0-82.435,66.83-149.265,149.265-149.265c82.436,0,149.266,66.83,149.266,149.265c0,82.436-66.83,149.266-149.266,149.266
			c-14.543,0-28.597-2.079-41.889-5.959L7218.837,7645.277z"/>
		<path fill="#FC1921" d="M7310.404,7445.783c2.517,1.566,5.261,3.033,7.347,4.908l23.97-30.517
			c4.913,4.281,8.823,8.417,12.65,14.433l-27.979,24.561c2.26,2.576,5.166,7.668,6.987,11.215l28.75-19.906
			c0.55,1.073,2.117,7.637,1.867,9.559l-28.22,18.234c0.455,2.035,0.771,2.481,1.106,5.184c0,0,32.472-18.421,32.487-18.653
			c-3.542-34.866-33.861-63.302-69.663-63.302c-14.872,0-28.646,4.697-39.925,12.686c-0.19,0.135,1.869,32.676,1.869,32.676
			c2.289-1.432,5.125-2.766,6.269-3.146l-0.571-29.678c2.77-2.195,6.537-4.008,9.448-5.061l-0.67,32.158
			c4.008-0.951,11.163-1.527,13.456-1.047l5.82-35.023c7.063-0.668,14.121,0.099,20.326,2.104l-13.551,35.209
			c2.684,0.821,5.577,2.053,8.221,3.407"/>
		<path fill="none" stroke="#FFFFFF" stroke-width="2.2041" d="M7286.66,7541.208c28.023,0,50.738-22.722,50.738-50.739
			c0-28.025-22.715-50.742-50.738-50.742s-50.743,22.717-50.743,50.742C7235.917,7518.486,7258.637,7541.208,7286.66,7541.208z"/>
		<path fill="#FC1921" d="M7244.924,7555.453c-1.412,2.329-12.27,8.79-14.615,5.148c-3.91-6.071,8.041-15.715,5.781-18.412
			c-1.359-1.615-6.973,2.603-11.557,7.881c0,0-2.547,4.88-6.016,11.029l-8.156,0.071c-0.5-0.377,10.377-16.298,8.266-18.151
			c-3-2.621-20.595,25.819-28.863,19.78c-0.695-0.512-2.562-2.624-0.076-7.938c-3.701,4.886-12.697,8.841-16.484,5.559
			c-8.127-7.044,13.936-30.667,22.833-22.48c0.696,0.638,0.948,1.26,0.896,1.754l1.196-1.885l8.045-0.072
			c-3.655,9.843-11.235,18.748-9.291,20.147c3.384,2.435,22.839-27.389,29.462-20.891c2.057,2.021,1.915,4.664,1.379,6.104
			c4.691-4.893,14.598-9.605,17.799-6.281c3.896,4.037-7.959,15.966-5.349,17.631c1.481,0.947,6.042-2.536,6.042-2.536
			 M7179.284,7555.41c4.358,4.835,17.543-10.475,14.856-14.801C7190.572,7536.122,7175.384,7551.083,7179.284,7555.41z"/>
		<path fill="#FC1921" d="M7267.668,7546.346c7.393,0.592,15.95-3.896,14.373-7.41c-0.93-2.072-6.518-1.259-9.811,0.094
			L7267.668,7546.346z M7291.758,7552.52c-8.088,7.346-16.791,10.088-19.658,7.897c-4.781-3.653-0.424-8.401-2.852-10.448
			c-0.664-0.554-1.775-0.699-3.591-0.57l9.399-14.584c5.045-2.584,13.289-3.978,14.672,0.744
			c1.932,6.596-7.273,12.303-13.658,13.357c4.859,0.891,0.054,6.299,5.027,6.949c2.213,0.293,8.666-4.321,12.039-8.986"/>
		<path fill="#FC1921" d="M7325.467,7549.889c-12.592,9.047-29.176,11.872-32.701,4.161c-5.813-12.713,26.438-28.647,30.25-18.911
			c2.709,6.916-10.131,13.102-20.711,13.198c-0.445,0.004-0.293-0.108-0.332,0.004c-0.924,2.681,0.383,5.616,5.344,5.574
			s12.326-2.099,19.324-8.338 M7302.721,7545.797c6.387-0.83,12.789-6.154,11.719-8.593
			C7312.932,7533.786,7304.098,7539.941,7302.721,7545.797z"/>
		<path fill="#FC1921" d="M7370.137,7539.989c-4.15,4.228-10.093,7.239-10.843,7.819c-11.747,9.047-29.151,12.367-33.028,4.828
			c-6.586-12.818,26.274-27.527,28.82-18.568c1.854,6.525-9.589,12.104-19.283,12.853c-0.441,0.039-0.293-0.108-0.328,0.007
			c-0.927,2.678,0.381,5.621,5.342,5.571c4.959-0.046,10.332-2.386,17.684-6.888c1.643-1.01,8.555-4.824,11.93-9.479
			 M7336.107,7544.166c7.273-0.286,13.812-6.092,11.936-8.708C7345.707,7532.189,7336.617,7539.643,7336.107,7544.166z"/>
		<path fill="#FC1921" d="M7364.875,7543.566c0.549,5.674-5.07,5.832-5.352,5.562c-0.866,0.95-0.199,5.04,4.131,5.253
			c7.199,0.362,7.092-9.106,6.14-12.625c-0.649-2.407-0.175-5.043,0.206-7.358c0.953-5.797,8.464-11.84,11.125-9.947
			c1.818,1.301,0.818,5.617-4.098,9.855c-0.922,0.894-1.522,1.041-0.188,3.783c1.446,2.977,3.925,10.139-0.116,15.605
			c-3.156,4.271-8.562,4.849-13.052,4.087c-2.872-0.489-6.085-2.396-7.411-4.548
			C7350.501,7543.921,7362.396,7537.529,7364.875,7543.566z"/>
		<path fill="#0C2D82" d="M7287.803,7515.884c1.081-1.507,2.096-2.905,3.092-4.229c0.239-0.319,0.877-1.403,1.195-2.216
			c1.734-4.449-2.631-11.25-8.762-14.142c-6.094-2.873-12.63-2.272-14.586,0.634c-0.489,0.723-1.081,1.648-1.196,2.026
			c-0.68,2.228-1.444,4.422-2.272,6.812c-9.666-6.455-15.342-13.385-12.715-18.396c4.873-9.294,20.09-7.728,35.982,0.079
			c15.895,7.803,26.643,19.652,22.15,28.181C7308.029,7519.695,7298.917,7519.592,7287.803,7515.884z"/>
		<path fill="#0C2D82" d="M7306.857,7534.792c-0.812,0.296-2.83,1.376-4.391,2.363c-3.15-3.582-14.222-11.253-20.144-13.31
			c-0.091-0.029,1.501-2.115,1.501-2.115c6.105,2.479,20.646,10.916,22.936,13.016"/>
		<g>
			<path fill="#0C2D82" d="M7335.686,7535.971c1.316-0.936,4.9-2.396,5.002-2.531c0.119-0.49,0.188-1.463,0.188-1.463
				c3.817-17.939-3.962-32.539-10.065-38.266c-5.959-5.589-3.125-1.413-1.146,1.146c1.406,1.815,2.08,2.881,2.671,4.004
				c3.104,5.891,1.633,5.16-2.479,0.955c-8.111-8.287-22.234-18.797-35.211-25.284c-17.717-8.86-39.412-13.075-51.433-12.694
				c4.961-2.29,7.685-2.536,12.783-3.052c4.521-0.457,2.75-1.354,0-1.146c-9.658,0.738-31.181,1.076-34.54,17.939
				c-2.855,14.318,8.777,26.527,20.036,30.916c9.786,3.814,20.138,8.361,20.138,8.361l1.049-3.207
				c-5.727-3.056-15.707-6.34-20.992-8.396c-6.873-2.671-19.172-12.136-17.561-25.003c2.674-21.354,42.809-14.324,69.469-0.953
				c11.551,5.795,27.014,17.03,34.612,24.363c8.709,8.403,10.235,11.219,10.808,20.108
				C7339.039,7527.203,7337.527,7532.095,7335.686,7535.971"/>
			<text transform="matrix(1 0 0 1 -6505.8574 -5942.416)" fill="#0C2D82" font-family="'Helvetica'" font-size="9"> </text>
		</g>
		<path fill="none" stroke="#FC1921" stroke-width="1.0213" stroke-linecap="round" stroke-linejoin="round" d="M7339.202,7414.514
			c2.675-3.439,9.508-12.236,12.024-14.128"/>
		<polyline fill="none" stroke="#FC1921" stroke-width="1.0213" stroke-linecap="round" stroke-linejoin="round" points="
			7339.968,7398.859 7345.312,7406.493 7355.234,7409.93 		"/>
		<polyline fill="none" stroke="#FC1921" stroke-width="1.0213" stroke-linecap="round" stroke-linejoin="round" points="
			7334.242,7404.202 7341.496,7411.457 7349.512,7415.271 		"/>
		<path fill="#FC1921" d="M7403.1,7501.54c0-78.821-63.896-142.722-142.715-142.722c-70.221,0-128.598,50.721-140.5,117.521
			l13.848-14.667c17.164-53.467,67.293-92.163,126.461-92.163c73.336,0,132.791,59.451,132.791,132.79l0.08,0.105
			c-0.863,24.806-5.724,35.441-14.613,41.854l-0.791,6.518c3.902-3.002,15.723-15.502,23.051-30.602
			c1.991-4.109,2.543-14.719,2.479-18.398L7403.1,7501.54z"/>
		<path fill="#FC1921" d="M7385.871,7546.229c-18.028,51.947-67.404,87.315-125.486,87.819
			c-69.363,0.601-132.197-57.979-132.197-131.319l0,0c-1.035-14.821,3.248-24.315,6.748-30.752
			c3.597-6.623,11.256-15.36,18.045-14.031c10.521,2.066,3.754,15.803-5.182,31.381c-8.732,15.229-19.314,31.223-10.799,40.427
			c6.893,7.451,21.002,5.756,29.632-2.81l-26.623,49.98l11.817,0.088l51.41-97.046l-11.906,0.33l-21.021,39.114
			c-6.773,6.347-17.779,12.174-24.07,7.826c-12.484-8.621,36.408-55.317,18.416-70.502c-14.369-12.125-29.979,5.979-34.928,14.564
			c-4.053,7.035-11.701,17.858-11.879,31.191l0.01-0.574c0,78.816,63.899,142.714,142.718,142.714
			c67.2,0,123.556-46.448,138.706-108.991c0.574-2.295,1.187-5.099,1.187-5.099
			C7396.459,7536.845,7385.871,7546.229,7385.871,7546.229z"/>
		
			<line fill="none" stroke="#FC1921" stroke-width="1.0213" stroke-linecap="round" stroke-linejoin="round" x1="7184.234" y1="7428.633" x2="7196.258" y2="7426.914"/>
		<path fill="none" stroke="#FC1921" stroke-width="1.0213" stroke-linecap="round" stroke-linejoin="round" d="M7163.626,7407.656
			c28.673,22.9,47.043,58.158,47.043,97.707c0,10.699-1.219,19.828-3.715,29.771"/>
		<path fill="none" stroke="#FC1921" stroke-width="1.0213" stroke-linecap="round" stroke-linejoin="round" d="M7195.812,7564.906
			c-6.367,11.812-14.619,22.438-24.426,31.432c-4.58,4.197-3.174,1.78-3.174,1.78"/>
		<polyline fill="none" stroke="#FC1921" stroke-width="1.0213" stroke-linecap="round" stroke-linejoin="round" points="
			7177.375,7406.884 7167.066,7410.701 7163.633,7421.197 		"/>
		
			<line fill="none" stroke="#FC1921" stroke-width="1.0213" stroke-linecap="round" stroke-linejoin="round" x1="7173.173" y1="7415.666" x2="7182.336" y2="7412.229"/>
		
			<line fill="none" stroke="#FC1921" stroke-width="1.0213" stroke-linecap="round" stroke-linejoin="round" x1="7176.229" y1="7419.1" x2="7185.771" y2="7416.043"/>
		
			<line fill="none" stroke="#FC1921" stroke-width="1.0213" stroke-linecap="round" stroke-linejoin="round" x1="7180.046" y1="7423.684" x2="7192.26" y2="7421.771"/>
		
			<line fill="none" stroke="#FC1921" stroke-width="1.0213" stroke-linecap="round" stroke-linejoin="round" x1="7190.732" y1="7436.848" x2="7203.902" y2="7435.702"/>
		<polyline fill="none" stroke="#FC1921" stroke-width="1.0213" stroke-linecap="round" stroke-linejoin="round" points="
			7187.486,7454.021 7195.505,7445.627 7208.863,7445.245 		"/>
		<polyline fill="none" stroke="#FC1921" stroke-width="1.0213" stroke-linecap="round" stroke-linejoin="round" points="
			7191.113,7462.232 7199.514,7454.021 7212.3,7454.789 		"/>
		
			<line fill="none" stroke="#FC1921" stroke-width="1.0213" stroke-linecap="round" stroke-linejoin="round" x1="7168.021" y1="7425.586" x2="7172.221" y2="7415.666"/>
		
			<line fill="none" stroke="#FC1921" stroke-width="1.0213" stroke-linecap="round" stroke-linejoin="round" x1="7172.982" y1="7430.551" x2="7177.182" y2="7420.246"/>
		
			<line fill="none" stroke="#FC1921" stroke-width="1.0213" stroke-linecap="round" stroke-linejoin="round" x1="7175.658" y1="7434.749" x2="7181.002" y2="7424.635"/>
		
			<line fill="none" stroke="#FC1921" stroke-width="1.0213" stroke-linecap="round" stroke-linejoin="round" x1="7179.279" y1="7439.52" x2="7185.389" y2="7430.359"/>
		
			<line fill="none" stroke="#FC1921" stroke-width="1.0213" stroke-linecap="round" stroke-linejoin="round" x1="7182.908" y1="7445.055" x2="7189.779" y2="7437.609"/>
		<polyline fill="none" stroke="#FC1921" stroke-width="1.0213" stroke-linecap="round" stroke-linejoin="round" points="
			7194.74,7473.109 7203.52,7464.331 7217.26,7465.475 		"/>
		
			<line fill="none" stroke="#FC1921" stroke-width="1.0213" stroke-linecap="round" stroke-linejoin="round" x1="7206.955" y1="7474.827" x2="7219.359" y2="7478.07"/>
		
			<line fill="none" stroke="#FC1921" stroke-width="1.0213" stroke-linecap="round" stroke-linejoin="round" x1="7206.764" y1="7474.445" x2="7203.137" y2="7478.07"/>
		
			<line fill="none" stroke="#FC1921" stroke-width="1.0213" stroke-linecap="round" stroke-linejoin="round" x1="7209.436" y1="7486.852" x2="7220.889" y2="7490.855"/>
		
			<line fill="none" stroke="#FC1921" stroke-width="1.0213" stroke-linecap="round" stroke-linejoin="round" x1="7200.273" y1="7494.863" x2="7209.244" y2="7485.896"/>
		<polyline fill="none" stroke="#FC1921" stroke-width="1.0213" stroke-linecap="round" stroke-linejoin="round" points="
			7222.986,7506.129 7210.391,7500.784 7200.273,7508.797 		"/>
		<polyline fill="none" stroke="#FC1921" stroke-width="1.0213" stroke-linecap="round" stroke-linejoin="round" points="
			7200.466,7520.63 7210.201,7514.143 7222.029,7518.915 		"/>
		<polyline fill="none" stroke="#FC1921" stroke-width="1.0213" stroke-linecap="round" stroke-linejoin="round" points="
			7197.605,7531.51 7208.863,7526.928 7220.697,7531.889 		"/>
		
			<line fill="none" stroke="#FC1921" stroke-width="1.0213" stroke-linecap="round" stroke-linejoin="round" x1="7206.955" y1="7535.134" x2="7212.872" y2="7540.102"/>
		
			<line fill="none" stroke="#FC1921" stroke-width="1.0213" stroke-linecap="round" stroke-linejoin="round" x1="7204.091" y1="7546.587" x2="7206.193" y2="7548.305"/>
		
			<line fill="none" stroke="#FC1921" stroke-width="1.0213" stroke-linecap="round" stroke-linejoin="round" x1="7211.035" y1="7551.738" x2="7212.938" y2="7552.952"/>
		
			<line fill="none" stroke="#FC1921" stroke-width="1.0213" stroke-linecap="round" stroke-linejoin="round" x1="7204.475" y1="7559.182" x2="7208.482" y2="7562.809"/>
		
			<line fill="none" stroke="#FC1921" stroke-width="1.0213" stroke-linecap="round" stroke-linejoin="round" x1="7195.314" y1="7565.673" x2="7202.564" y2="7572.35"/>
		
			<line fill="none" stroke="#FC1921" stroke-width="1.0213" stroke-linecap="round" stroke-linejoin="round" x1="7194.359" y1="7566.625" x2="7186.154" y2="7565.859"/>
		<polyline fill="none" stroke="#FC1921" stroke-width="1.0213" stroke-linecap="round" stroke-linejoin="round" points="
			7197.221,7581.324 7190.732,7573.111 7181.002,7571.971 		"/>
		<polyline fill="none" stroke="#FC1921" stroke-width="1.0213" stroke-linecap="round" stroke-linejoin="round" points="
			7175.837,7578.448 7185,7579.4 7191.107,7587.993 		"/>
		<polyline fill="none" stroke="#FC1921" stroke-width="1.0213" stroke-linecap="round" stroke-linejoin="round" points="
			7170.493,7583.793 7179.273,7586.464 7185.764,7593.334 		"/>
		<polyline fill="none" stroke="#FC1921" stroke-width="1.0213" stroke-linecap="round" stroke-linejoin="round" points="
			7167.25,7588.755 7175.076,7591.044 7180.802,7597.533 		"/>
		<polyline fill="none" stroke="#FC1921" stroke-width="1.0213" stroke-linecap="round" stroke-linejoin="round" points="
			7173.928,7601.924 7170.111,7595.816 7165.15,7593.909 		"/>
		<path fill="none" stroke="#FC1921" stroke-width="1.0213" stroke-linecap="round" stroke-linejoin="round" d="M7327.373,7556.501
			c4.197,7.635,22.521,30.151,32.439,35.118"/>
		
			<line fill="none" stroke="#FC1921" stroke-width="1.0213" stroke-linecap="round" stroke-linejoin="round" x1="7320.5" y1="7555.738" x2="7324.316" y2="7555.357"/>
		<polyline fill="none" stroke="#FC1921" stroke-width="1.0213" stroke-linecap="round" stroke-linejoin="round" points="
			7333.096,7558.409 7330.044,7561.461 7321.646,7562.991 		"/>
		
			<line fill="none" stroke="#FC1921" stroke-width="1.0213" stroke-linecap="round" stroke-linejoin="round" x1="7325.083" y1="7569.857" x2="7336.532" y2="7569.477"/>
		<polyline fill="none" stroke="#FC1921" stroke-width="1.0213" stroke-linecap="round" stroke-linejoin="round" points="
			7346.457,7567.952 7340.35,7575.203 7331.189,7577.881 		"/>
		<polyline fill="none" stroke="#FC1921" stroke-width="1.0213" stroke-linecap="round" stroke-linejoin="round" points="
			7351.036,7572.913 7345.503,7579.785 7335.389,7584.364 		"/>
		
			<line fill="none" stroke="#FC1921" stroke-width="1.0213" stroke-linecap="round" stroke-linejoin="round" x1="7339.968" y1="7588.943" x2="7348.365" y2="7583.982"/>
		<polyline fill="none" stroke="#FC1921" stroke-width="1.0213" stroke-linecap="round" stroke-linejoin="round" points="
			7358.29,7580.934 7352.943,7587.418 7344.93,7592.764 		"/>
		
			<line fill="none" stroke="#FC1921" stroke-width="1.0213" stroke-linecap="round" stroke-linejoin="round" x1="7356" y1="7575.969" x2="7349.893" y2="7584.364"/>
		
			<line fill="none" stroke="#FC1921" stroke-width="1.0213" stroke-linecap="round" stroke-linejoin="round" x1="7341.496" y1="7561.846" x2="7335.77" y2="7568.336"/>
		<polyline fill="none" stroke="#FC1921" stroke-width="1.0213" stroke-linecap="round" stroke-linejoin="round" points="
			7361.723,7585.13 7359.051,7590.477 7351.801,7595.434 		"/>
		<path fill="#FC1921" d="M7238.566,7594.023c-7.988,13.949-28.168,51.955-34.953,67.64c-1.773,4.096-2.191,5.948-0.432,8.015
			c0.338,0.4,0.885,1.397,0.977,1.758c0.367,1.403-1.232,3.228-2.073,3.778c-1.745,1.136-5.502,1.425-12.251-1.665
			c-6.747-3.09-8.441-6.847-8.544-8.931c-0.049-1.004,0.483-3.366,1.836-3.899c0.345-0.134,1.472-0.279,1.994-0.238
			c2.704,0.211,4.183-1.545,6.456-5.388c9.304-15.729,29.176-52.354,36.117-66.473c4.066-8.279,26.606-52.015,37.574-83.677
			c0.823-2.385,1.586-4.697,2.267-6.93c0.114-0.378,0.706-1.304,1.194-2.025c1.955-2.905,8.494-3.506,14.59-0.635
			c6.125,2.888,10.492,9.691,8.755,14.137c-0.315,0.814-0.952,1.9-1.192,2.221c-0.999,1.32-2.043,2.746-3.124,4.248
			C7271.837,7538.098,7247.645,7578.176,7238.566,7594.023z M7187.881,7661.745c0.115,0.323,0.533,0.743,1.66,0.479
			c0.453-0.113,0.809-0.533,1.376-1.162c0.949-1.057,2.103-2.676,2.431-4.336c0.213-0.715-0.223-0.377-0.384-0.045
			c-0.165,0.33-3.173,4.147-4.757,4.56C7187.988,7661.301,7187.877,7661.188,7187.881,7661.745z M7213.828,7624.46
			c-2.057,4.104-14.537,28.124-20.148,35.379c-0.152,0.193-0.296,0.375-0.441,0.545c-0.146,0.208-0.524,0.392-0.67,0.546
			c-0.176,0.188-0.114,0.336-0.227,0.438c-0.095,0.111,0.053,0.214-0.02,0.318c-0.086,0.133-0.389,0.26-0.496,0.385
			c-0.253,0.271-0.164,0.516-0.375,0.716c-0.371,0.364-0.965,0.585-0.965,0.585c-0.658,0.119-0.432,1,0.121,1.213
			c0.306,0.118,0.611,0.314,0.92,0.496c0.246,0.146,0.496,0.245,0.746,0.591c0.197,0.272-0.129,0.675-0.147,1.05
			c-0.021,0.291,0.099,0.573-0.114,0.783c-0.297,0.287-0.943,0.438-1.482,0.28c-0.641-0.191-1.469-0.688-2.23-1.054
			c-0.947-0.455-1.787-0.76-2.031-0.729c-0.22,0.03-0.713,0.155-0.863,0.383c-0.105,0.15-0.151,0.352,0.132,0.592
			c0.128,0.104,0.522,0.334,0.746,0.459c0.348,0.197,0.653,0.521,1.094,0.742c0.174,0.086,0.332-0.06,0.49,0.01
			c0.213,0.094,0.427,0.41,0.67,0.533c0.289,0.146,0.681,0.389,0.95,0.51c0.18,0.078,0.354,0.416,0.521,0.527
			c0.102,0.065,0.197-0.088,0.292-0.043c0.322,0.16,0.599,0.215,0.806,0.374c0.354,0.289,0.778,0.587,1.187,0.74
			c0.667,0.249,1.301-0.004,1.563-1.206c0.424-1.932,0.953-4.143,1.379-5.631c0.089-0.319,0.32-0.982,0.642-1.887
			c0.062-0.17-0.092-0.352-0.022-0.537c1.281-3.536,3.912-9.788,5.576-13.4c2.213-4.816,12.295-23.045,12.403-23.378
			C7213.939,7624.457,7214.695,7622.96,7213.828,7624.46z M7228.309,7596.211c1.68-3.238,51.808-88.62,56.344-96.432
			c0,0,1.332,0.759,1.121,1.861c-4.566,6.877-33.221,54.988-35.605,59.644c-2.381,4.651-19.631,34.137-30.463,55.185
			c0,0,43.841-74.712,45.579-77.816c1.708-3.059,20.681-33.698,21.827-35.448c0,0,1.195-1.972,1.14-1.86
			c-2.985-4.087-8.548-6.367-13.616-6.212c-0.421,1.987-18.693,46.695-24.324,57.55
			C7244.948,7563.016,7230.477,7592.227,7228.309,7596.211L7228.309,7596.211z M7209.675,7640.372
			c3.013-5.646,42.914-77.853,68.482-116.757c0.704-1.07,11.893-17.723,11.948-18.485c0.062-0.86-0.571-1.868-0.904-2.144
			c-0.559,0.895-6.811,10.99-12.253,19.447c-23.433,38.008-64.513,110.735-66.902,116.336c-0.088,0.215-0.606,1.66-0.696,1.856
			c-0.127,0.274,0.063,0.088-0.146,0.368c-0.564,0.742-1.068,2.068-1.564,2.852c-0.125,0.196-0.259,0.383-0.387,0.58
			c-0.05,0.088,0.014,0.227-0.029,0.317c-0.119,0.268-0.299,0.51-0.404,0.788c-0.041,0.096,0.021,0.232-0.027,0.312
			c-0.334,0.546-0.43,1.091-0.831,1.58c-0.056,0.065,0.015,0.218-0.033,0.308c-0.03,0.059-0.171,0.07-0.185,0.123
			c-0.21,0.75-0.749,1.234-1.088,1.889c-0.049,0.087-0.016,0.211-0.014,0.322c-0.107-0.029-0.189,0.026-0.209,0.115
			c-0.06,0.271-0.168,0.512-0.257,0.756c-0.075,0.203-0.303,0.401-0.348,0.584c-0.104,0.414-0.513,0.657-0.487,1.097
			c-0.324,0.11-0.22,0.222-0.229,0.327c-0.01,0.103-0.1,0.189-0.166,0.264c-0.275,0.295-0.406,0.702-0.528,1.088
			c-0.101,0.324-0.36,0.561-0.476,0.873c-0.026,0.064,0.017,0.154-0.021,0.203c-0.103,0.164,0.099,0.328,0.065,0.468
			c-0.045,0.17-0.443,0.456-0.516,0.604c-0.039,0.086-0.082,0.052-0.125,0.127c-0.416,0.679-0.322,1.353-0.687,2.033
			c-0.062,0.119-0.298,0.315-0.371,0.414c-0.493,0.627-0.365,1.426-0.838,2.01c0.079,0.332-0.194,0.568-0.233,0.881
			c-0.01,0.082,0.057,0.146,0.042,0.229c-0.028,0.284-0.131,0.519-0.184,0.78c-0.185,0.976-0.351,1.883-0.624,2.917
			c-0.2,0.768-0.717,1.105-0.814,1.936c-0.027,0.244,0.193,0.25,0.209,0.332c0.022,0.125,0.045,0.244,0.139,0.314
			c0.082,0.066,0.174-0.018,0.199-0.104c0.209-0.625,0.224-1.068,0.506-1.674c0.115-0.246-0.242-0.582-0.162-0.853
			c0.257-0.813,1.147-1.522,1.384-2.338c0.388-0.154,0.063-0.582,0.213-0.884c0.046-0.082,0.129-0.099,0.211-0.135
			c0.146-0.065-0.146-0.283-0.082-0.404c0.2-0.387,0.621-0.741,0.874-1.104c0.17-0.242,0.377-0.469,0.477-0.707
			c0.174-0.418,0.42-0.684,0.42-1.087c0.002-0.473,0.521-0.86,0.5-1.328c-0.006-0.124,0.142-0.231,0.168-0.337
			c0.134-0.615,0.199-1.189,0.43-1.775c0.074-0.19,0.02-0.426,0.02-0.648c0.289,0.027-0.039-0.34,0.217-0.333
			c-0.078-0.272,0.069-0.545,0.158-0.744c0.368-0.797,0.654-1.649,0.828-2.565c0.039-0.209,0.217-0.363,0.289-0.563
			c0.036-0.099-0.029-0.252,0.026-0.312c0.146-0.154,0.217-0.344,0.407-0.48c0.035-0.02-0.006-0.131,0.019-0.195
			c0.089-0.254,0.408-0.365,0.447-0.668c0.01-0.049,0.157-0.063,0.181-0.121c0.292-0.748,0.627-1.352,0.816-2.109
			c0.105-0.424,0.666-0.734,0.629-1.205c-0.004-0.032,0.158-0.059,0.174-0.118c0.15-0.489,0.131-0.903,0.43-1.33
			c0.053-0.083-0.003-0.217,0.026-0.319c0.021-0.088,0.378-0.106,0.397-0.139c0.252-0.395,0.049-1.021,0.19-1.427
			c0.075-0.226,0.499-0.333,0.634-0.511c0.092-0.119,0.069-0.272,0.178-0.363c0.025-0.021-0.026-0.073-0.023-0.08
			c0.062-0.148,0.072-0.23,0.197-0.35c0.06-0.051,0.096-0.162,0.066-0.265c0.082,0.067,0.029-0.118,0.111-0.054
			c-0.003-0.059-0.003-0.107-0.003-0.164 M7242.264,7564.552c3.506-4.821,20.674-40.86,29.252-66.747l-1.101,0.229
			C7269.504,7501.411,7260.624,7529.618,7242.264,7564.552z"/>
		<path fill="#0C2D82" d="M7261.555,7446.514c8.686-6.01,29.684-11.18,48.475-1.049c13.845,7.465,23.857,19.754,26.719,37.691
			l-10.496,6.016c-9.921-11.263-18.893-17.941-25.766-21.378c-6.869-3.433-22.9-10.305-38.168-11.065L7261.555,7446.514z
			 M7317.238,7454.891l-5.164,2.357l-5.139-2.977l0.599,5.623l-4.491,3.879l5.762,1.098l2.221,5.559l3.052-5.062l5.71-0.292
			l-3.723-4.423L7317.238,7454.891z M7331.975,7477.666l-3.42-0.025l-2.049-2.931l-1.104,3.22l-3.44,0.973l2.868,2.065l-0.208,3.604
			l2.96-1.987l3.189,1.294l-0.907-3.363L7331.975,7477.666z M7289.771,7444.568l-2.475,4.156l-5.039,0.406l3.145,3.643l-1.266,4.896
			l4.566-2.025l4.248,2.813l-0.315-5.022l3.856-2.975l-4.748-1.291L7289.771,7444.568z M7269.723,7446.001l-0.986,3.039
			l-3.188,0.994l2.557,1.894l-0.103,3.334l2.647-1.968l3.147,1.19l-0.937-3.188l2.05-2.48l-3.245-0.135L7269.723,7446.001z"/>
		<path fill="#0C2D82" d="M7358.277,7564.76h-2.27v6.176h-1.533v-6.176h-2.264v-1.34h6.064v1.34H7358.277z M7368.553,7570.936
			h-1.535v-5.979h-0.035l-2.174,5.979h-1.482l-2.105-5.979h-0.031v5.979h-1.539v-7.516h2.662l1.748,4.907h0.035l1.819-4.907h2.64
			v7.516H7368.553z"/>
	</g>
</g>
<g id="svg12082">
</g>
<g id="svg31568">
</g>
<g id="CLEVELAND_INDIANS">
</g>
<g id="svg2562">
</g>
<g id="svg3060">
</g>
<g id="svg3067">
	<g>
		<path id="path3790-17" fill="#FFFFFF" d="M144,746c-55.208,0-100,44.796-100,100s44.792,100,100,100c55.213,0,100-44.796,100-100
			S199.213,746,144,746z"/>
		<g id="layer5" transform="translate(-324.99,-325.01)">
			<path id="path3790" fill="#003DA5" d="M468.99,1071.01c-55.208,0-100,44.792-100,99.996c0,55.204,44.792,100.004,100,100.004
				c55.213,0,100-44.8,100-100.004C568.99,1115.802,524.203,1071.01,468.99,1071.01z M468.99,1074.564
				c53.279,0,96.45,43.154,96.45,96.442c0,53.291-43.171,96.454-96.45,96.454c-53.283,0-96.438-43.163-96.438-96.454
				C372.552,1117.719,415.707,1074.564,468.99,1074.564L468.99,1074.564z"/>
		</g>
		<g id="layer6" transform="translate(-324.99,-325.01)">
			<path id="path4010" fill="#DA291C" d="M477.994,1122.356l-2.175,2.817l2.458-0.142l1.446-2.083L477.994,1122.356z"/>
			<path id="path4012" fill="#DA291C" d="M472.624,1120.631c-0.117,0.192-2.505,3.146-2.505,3.146l1.229,2.083l1.846-0.042
				l-0.854-1.821l1.967-2.958L472.624,1120.631z"/>
			<path id="path4014" fill="#DA291C" d="M467.065,1118.969c0,0-0.434,0.762-0.7,1.191c-0.271,0.425-0.658,0.954-0.983,1.325
				c-0.325,0.375-1.029,0.966-1.029,0.966s0.441,0.492,0.625,0.805c0.188,0.316,0.404,0.75,0.55,1.129
				c0.146,0.383,0.259,0.788,0.326,1.154c0.07,0.367,0.116,0.95,0.116,0.95l2.058,0.079c0,0-0.054-0.608-0.158-1.017
				c-0.1-0.412-0.308-1.012-0.491-1.421c-0.18-0.404-0.404-0.762-0.571-1.017c-0.171-0.254-0.404-0.517-0.404-0.517
				s0.426-0.3,0.646-0.5c0.221-0.2,0.454-0.438,0.691-0.733c0.233-0.296,0.417-0.579,0.596-0.887
				c0.175-0.309,0.505-0.971,0.505-0.971L467.065,1118.969z"/>
			<path id="path4115" fill="#DA291C" d="M461.791,1117.927l1.857,0.379c0,0-0.666,0.941-1,1.342
				c-0.333,0.4-0.642,0.741-0.979,1.058c-0.337,0.321-1.041,0.862-1.041,0.862s0.462,0.55,0.658,0.9
				c0.2,0.346,0.383,0.737,0.505,1.179c0.116,0.441,0.149,0.996,0.179,1.458c0.041,0.467-0.042,1.258-0.042,1.258l-1.954-0.066
				c0,0,0.092-0.896,0.066-1.35c-0.042-0.454-0.071-0.975-0.179-1.379c-0.112-0.409-0.258-0.775-0.463-1.163
				c-0.204-0.384-0.779-1.059-0.779-1.059s0.596-0.475,0.88-0.721c0.283-0.246,0.604-0.562,0.883-0.858s0.524-0.596,0.779-0.921
				c0.25-0.325,0.621-0.921,0.621-0.921H461.791z"/>
			<path id="path4117" fill="#DA291C" d="M455.486,1117.106c0.184,0.042,2.162,0.242,2.162,0.242s-0.513,0.962-0.763,1.379
				c-0.246,0.417-0.342,0.604-0.559,0.9c-0.216,0.296-0.487,0.604-0.679,0.8s-0.621,0.6-0.621,0.6s0.426,0.413,0.601,0.679
				c0.175,0.271,0.329,0.587,0.438,0.921c0.112,0.333,0.229,0.758,0.283,1.3c0.054,0.542,0,2.059,0,2.059l-2.142-0.075
				c0,0,0.05-1.196,0.042-1.642c-0.042-0.446-0.088-0.846-0.184-1.242c-0.096-0.392-0.38-0.979-0.438-1.079
				c-0.062-0.1-0.742-0.879-0.742-0.879s0.5-0.471,0.779-0.8c0.279-0.333,0.567-0.633,0.8-1c0.233-0.367,0.459-0.712,0.621-1.042
				C455.248,1117.902,455.486,1117.106,455.486,1117.106L455.486,1117.106z"/>
			<path id="path4119" fill="#DA291C" d="M432.082,1131.173c0.041,0.1,1.417-0.854,1.417-0.854
				c-0.613-0.829-1.034-1.417-1.646-2.237c0.642-0.554,1.363-1.142,1.93-1.575l2.079,2.934l1.179-0.929l-1.812-3.121l2.305-1.6
				c0.342,0.342,1.037,1.079,1.316,1.604c0.283,0.533,0.342,0.904,0.408,1.309c0.066,0.408,0.096,0.966,0.096,0.966l1.866-0.383
				c0,0,0-0.521-0.091-1c-0.1-0.479-0.229-1.091-0.45-1.454c-0.217-0.358-0.487-0.775-0.737-1.117
				c-0.246-0.333-0.742-0.854-0.787-0.938c0.903-0.542,1.629-0.996,2.675-1.575c0.533-0.258,1.213-0.629,1.213-0.629
				s-0.201,0.846-0.371,1.212c-0.163,0.367-0.529,0.784-0.529,0.784s0.658,0.521,0.949,0.954c0.288,0.433,0.562,1.116,0.676,1.637
				c0.112,0.521,0.079,1.304,0.079,1.304l1.749-0.179c0,0,0.051-0.841,0-1.287c-0.041-0.446-0.124-0.721-0.241-1.059
				c-0.112-0.337-0.258-0.629-0.45-0.95c-0.188-0.321-0.688-0.971-0.688-0.971s0.317-0.508,0.463-0.804
				c0.146-0.3,0.309-0.642,0.404-0.979c0.092-0.329,0.208-0.763,0.208-0.763s2.316-1.017,3.404-1.429c0,0-0.042,0.663-0.158,1.088
				c-0.125,0.425-0.3,0.812-0.517,1.154s-0.75,0.879-0.75,0.879s0.396,0.467,0.625,0.816c0.233,0.35,0.546,0.846,0.733,1.292
				c0.191,0.441,0.337,0.933,0.408,1.346c0.066,0.417,0.042,1.112,0.042,1.112l1.966,0.042c0,0,0.042-0.921,0-1.363
				c-0.041-0.437-0.07-0.825-0.232-1.262c-0.163-0.442-0.496-0.95-0.755-1.312c-0.258-0.358-0.767-0.858-0.767-0.858
				c0.904-1.275,1.68-2.75,2.104-3.821c5.004-1.667,9.024-2.358,14.108-2.625c6.591-0.346,13.337,0.367,19.308,2.167
				c6.829,2.067,10.384,4.221,10.384,4.221l4.142-1.283c0,0-5.704-3.487-12.158-5.562c-5.646-1.816-11.934-2.858-19.055-2.875
				c-10.195,0.092-19.179,2.783-27.054,6.642c-5.509,2.754-12.333,7.796-19.642,16.5c-4.892,5.829-7.575,12.542-8.713,15.592
				l3.65-0.5c0.612-1.908,4.708-9.721,8.325-13.979l0.517,0.538l1.237-1.175l-0.62-0.708c0.524-0.596,1.187-1.329,1.712-1.896
				l0.783,1.333l1.283-0.933l-1.108-1.388c0.759-0.746,1.342-1.295,2.125-2.033L432.082,1131.173z"/>
			<path id="path3061" fill="#DA291C" d="M502.935,1202.622l1.088-0.846l1.362,0.996l-1.392,4.054l-1.816-0.059l1.305-3.541
				L502.935,1202.622"/>
			<path id="path3065" fill="#DA291C" d="M506.536,1199.143l1.575-1.299c0.079,0.398,0.191,0.795,0.329,1.179
				c0.149,0.417,0.337,0.825,0.608,1.179c0.229,0.301,0.517,0.555,0.816,0.788c0.237,0.183,0.483,0.35,0.737,0.504l-1.921,3.725
				l-1.85,0.104c0.279-0.617,0.566-1.229,0.867-1.833c0.258-0.525,0.528-1.046,0.804-1.562c-0.375-0.242-0.713-0.538-1-0.876
				c-0.25-0.295-0.463-0.62-0.634-0.971C506.723,1199.781,506.611,1199.469,506.536,1199.143"/>
			<path id="path3069" fill="#DA291C" d="M511.299,1197.076l1.529-0.325c0.091,0.459,0.208,0.913,0.358,1.358
				c0.142,0.43,0.312,0.846,0.504,1.254c0.142,0.301,0.296,0.601,0.5,0.863c0.153,0.199,0.342,0.379,0.546,0.529l-1.942,3.912
				h-1.487c0.25-0.533,0.509-1.062,0.779-1.583c0.246-0.479,0.504-0.958,0.775-1.425c0.125-0.213,0.25-0.426,0.379-0.634
				c-0.195-0.221-0.375-0.458-0.541-0.704c-0.209-0.312-0.396-0.642-0.56-0.983c-0.17-0.354-0.316-0.717-0.454-1.087
				C511.544,1197.865,511.415,1197.473,511.299,1197.076"/>
			<path id="path3073" fill="#DA291C" d="M516.194,1199.69c-0.204-0.301-0.366-0.629-0.475-0.976
				c-0.092-0.292-0.146-0.591-0.184-0.892c-0.046-0.342-0.071-0.684-0.075-1.025l1.412-0.041c0,0.342,0.067,0.679,0.15,1.012
				c0.067,0.255,0.15,0.509,0.292,0.734c0.146,0.229,0.346,0.42,0.579,0.554c1.083-2.067,2.087-4.171,3.008-6.312
				c0.5-1.158,0.976-2.329,1.426-3.509l3.266,0.042c-0.499,1.616-1.083,3.212-1.741,4.771c-1.071,2.533-2.346,4.984-3.771,7.338
				c-2.267,3.746-4.912,7.267-7.904,10.463c-2.445,2.607-5.121,5.004-7.996,7.133c-3.012,2.233-6.241,4.176-9.629,5.783
				c-3.346,1.588-6.846,2.854-10.438,3.767l2.396-3.888c2.179-0.732,4.312-1.604,6.383-2.607c2.991-1.45,5.85-3.172,8.575-5.08
				c3.033-2.121,5.904-4.482,8.479-7.141c2.684-2.771,5.029-5.867,6.979-9.196l-0.733-0.921l0,0"/>
			<path id="path3872" fill="#DA291C" d="M409.494,1179.061l3.192,0.683l1.241,6.1l1.142,3.722l2.163,5.42l0.745-0.092l0.913,1.109
				l-0.613,1.137l0.812,1.463l0.854-1.25l1.088,1.171l-0.792,2.021l1.175,1.963l1.246-2.508l1.07,0.945l-1.087,3.316l2.204,2.884
				l-0.116-2.288l0.929-2.454l1.438,1.104l-0.787,1.262v4.08l2.104,2.232l0.858-1.453c-0.221-0.393-0.388-0.812-0.491-1.25
				c-0.125-0.537-0.158-1.097-0.121-1.65c0.046-0.713,0.208-1.421,0.471-2.083l1.634,0.999c-0.176,0.446-0.301,0.913-0.371,1.384
				c-0.071,0.462-0.092,0.933-0.071,1.399c0.042,0.701,0.163,1.396,0.388,2.059l-1.104,1.738l2.716,2.471l1.351-2.613
				c-0.296-0.629-0.521-1.295-0.667-1.975c-0.138-0.638-0.204-1.291-0.158-1.941c0.041-0.496,0.138-0.983,0.3-1.45l1.388,0.917
				l-0.229,1.541l0.066,1.783l0.704,1.597l-1.295,3.354l4.504,3.12c3.934,2.492,8.167,4.521,12.575,6.021
				c2.471,0.842,4.996,1.518,7.554,2.025l1.3,2.858c-3.266-0.509-6.491-1.279-9.629-2.312c-4.721-1.55-9.254-3.688-13.45-6.351
				c-3.907-2.479-7.528-5.412-10.767-8.716c-2.767-2.825-5.258-5.925-7.416-9.242c-2.825-4.337-5.075-9.05-6.662-13.975
				C410.716,1185.99,409.944,1182.547,409.494,1179.061"/>
			<path id="path4004" fill="#DA291C" d="M437.448,1208.731l1.755,0.517c0,0-0.084,2.333,0.054,3.071
				c0.134,0.733,0.246,0.908,0.483,1.333c0.233,0.425,0.938,1.054,0.938,1.054s-0.463,0.492-0.642,0.779
				c-0.175,0.292-0.316,0.476-0.413,0.946c-0.1,0.472,0,1.854,0,1.854h-1.582c0,0-0.109-1.066-0.076-1.559
				c0.042-0.483,0.192-0.926,0.33-1.325c0.141-0.392,0.508-1.017,0.508-1.017s-0.608-0.671-0.825-1.033
				c-0.221-0.363-0.346-0.383-0.517-1.154c-0.167-0.771-0.041-3.467-0.041-3.467H437.448z"/>
			<path id="path4006" fill="#DA291C" d="M442.435,1210.194l1.718,0.412c0,0-0.042,1.733,0.142,2.412
				c0.179,0.676,0.454,1.143,0.771,1.597c0.32,0.454,1.092,1.108,1.092,1.108s-0.476,0.945-0.592,1.604
				c-0.117,0.658,0,2.309,0,2.309l-1.921,0.041c0,0-0.15-1.699,0-2.387c0.142-0.684,0.725-1.662,0.725-1.662
				s-0.642-0.396-0.892-0.643s-0.408-0.445-0.596-0.816c-0.188-0.367-0.346-0.737-0.446-1.404c-0.104-0.666,0-2.562,0-2.562
				V1210.194z"/>
			<path id="path4008" fill="#DA291C" d="M447.973,1211.076l1.938,0.226c0,0,0.092,1.258,0.296,1.846
				c0.204,0.591,0.379,1.083,0.8,1.571c0.421,0.491,1.254,1.095,1.254,1.095s-0.204,0.676-0.254,1.071s-0.083,0.858-0.092,1.367
				c0,0.508,0.071,1.688,0.071,1.688l-1.871-0.092c0,0-0.042-0.913-0.042-1.346c0-0.434,0-0.617,0.092-1.139
				c0.092-0.524,0.525-1.254,0.525-1.254s-0.467-0.283-0.846-0.545c-0.438-0.309-0.767-0.775-1.046-1.184
				c-0.284-0.413-0.475-0.68-0.638-1.233c-0.167-0.555-0.208-2.071-0.208-2.071H447.973z"/>
		</g>
		<g id="layer3" transform="translate(-324.99,-325.01)">
			<path id="path3790-1" fill="#003DA5" d="M469.094,1076.66c-52.029,0-94.237,42.217-94.237,94.242
				c0,52.028,42.208,94.246,94.237,94.246s94.25-42.218,94.25-94.246C563.344,1118.877,521.124,1076.66,469.094,1076.66z
				 M469.094,1080.21c50.104,0,90.679,40.579,90.679,90.691s-40.575,90.696-90.679,90.696c-50.104,0-90.684-40.584-90.684-90.696
				S418.99,1080.21,469.094,1080.21z"/>
			<path id="path3086" fill="#003DA5" d="M481.157,1128.531L481.157,1128.531c1.862-0.429,3.721-0.879,5.57-1.354
				c1.792-0.458,3.579-0.938,5.358-1.438c1.992-0.558,3.979-1.133,5.942-1.787c2.72-0.909,5.383-1.992,7.995-3.175
				c2.213-1,4.392-2.075,6.483-3.304c1.742-1.021,3.425-2.158,4.913-3.521c1.233-1.134,2.329-2.417,3.245-3.817
				c0.134,0.971,0.163,1.954,0.083,2.929c-0.062,0.779-0.195,1.55-0.35,2.312c-0.171,0.85-0.375,1.692-0.608,2.525l4.746-2.092
				c2.066-0.912,4.237-1.675,6.491-1.767l-1.004,0.896c-0.713,0.804-1.396,1.629-2.046,2.483c-0.671,0.875-1.309,1.779-1.917,2.7
				c-0.958,1.45-1.846,2.95-2.654,4.488l-1.787,3.962l1.221-0.958c0.704-0.421,1.417-0.825,2.134-1.221s1.446-0.775,2.221-1.046
				c0.634-0.221,1.296-0.367,1.963-0.433c0.592-0.059,1.191-0.059,1.783,0c-0.347,0.292-0.667,0.612-0.959,0.958
				c-0.583,0.696-1.041,1.496-1.35,2.35c-0.5,1.092-0.938,2.212-1.309,3.354c-0.517,1.588-0.899,3.217-1.304,4.838
				c-0.388,1.558-0.796,3.112-1.221,4.658l-6.316-10.408l-7.492,12.196l-7.142-2.829l1.608,16.2l-8.054-7.667l-2.442,5.837
				l-10.116-1.587v1.917c-1.509-0.15-3.013-0.316-4.517-0.504c-1.988-0.246-3.972-0.53-5.926-0.955
				c-1.67-0.362-3.32-0.829-4.962-1.308c-1.737-0.508-3.467-1.038-5.184-1.612c-1.708-0.575-3.399-1.196-5.108-1.767
				c-1.184-0.396-2.375-0.762-3.57-1.108c1.329-0.196,2.666-0.342,4.008-0.446c1.15-0.087,2.305-0.142,3.459-0.129
				c1.392,0,2.779,0.125,4.153,0.329c-1.833-0.658-3.704-1.208-5.6-1.65c-1.879-0.438-3.783-0.767-5.696-1.012
				c-1.592-0.205-3.195-0.346-4.8-0.404c-1.438-0.05-2.875-0.042-4.312,0.045c-1.376,0.075-2.751,0.2-4.097,0.479
				c-1.225,0.254-2.421,0.642-3.57,1.133c-0.676,0.288-1.334,0.616-1.972,0.979c-1.729,0.767-3.07,2.358-3.533,4.195
				c-0.337,1.337-0.213,2.788,0.342,4.05c-1.225,0.042-2.454-0.316-3.475-0.996c-0.754-0.5-1.388-1.17-1.925-1.9
				c-0.492-0.667-0.909-1.392-1.2-2.167c-0.467-1.246-0.588-2.642-0.184-3.908c0.254-0.8,0.708-1.525,1.241-2.175
				c0.53-0.65,1.138-1.233,1.738-1.817c1.217-1.183,2.412-2.387,3.758-3.421c1.696-1.304,3.601-2.316,5.575-3.142
				c2.629-1.096,5.392-1.871,8.209-2.292c3.616-0.587,7.25-1.104,10.887-1.546c3.467-0.421,6.941-0.779,10.404-1.221
				c4.096-0.521,8.179-1.158,12.241-1.913"/>
			<path id="path3003" fill="#041E42" stroke="#000000" stroke-width="0.0888" d="M424.369,1147.056c0,0-1.679,0.658-2.412,1.133
				s-1.416,1.083-1.976,1.675c-0.562,0.592-0.954,1.284-1.25,1.75c-0.296,0.466-0.708,1.333-1.283,1.683
				c-0.57,0.35-3.417,0.692-5.496,1.05c-2.074,0.35-4.729,0.85-6.749,1.279c-2.013,0.429-3.625,0.792-5.354,1.237
				c-1.729,0.45-3.5,0.871-5.125,1.346c-1.617,0.471-3.304,1.021-4.6,1.476c-1.292,0.454-2.154,0.787-2.992,1.175
				c-0.833,0.392-1.362,0.742-1.825,1.029c-0.462,0.288-0.85,0.613-1.2,0.992c-0.346,0.383-0.55,0.929-0.55,0.929l43.329,0.134
				c0,0,0.408-0.579,0.654-0.842c0.246-0.258,0.467-0.475,1.033-0.783c0.562-0.308,1.267-0.55,1.991-0.725
				c0.726-0.171,1.426-0.204,2.139-0.217c0.712,0,1.45-0.042,2.295,0.175c0.851,0.205,1.729,0.554,2.422,0.929
				c0.687,0.375,1.287,0.838,1.771,1.216c0.479,0.388,0.887,0.892,1.366,1.284s0.913,0.762,1.476,1.154
				c0.566,0.392,1.241,0.887,1.912,1.188c0.671,0.304,1.271,0.483,1.967,0.617c0.695,0.129,1.404,0.175,2.2,0.167
				c0.796,0,1.791-0.142,2.604-0.388c0.808-0.246,1.554-0.654,2.212-1.045c0.658-0.388,1.221-0.837,1.737-1.258
				c0.521-0.421,0.904-0.829,1.388-1.254c0.483-0.425,0.941-0.925,1.517-1.304c0.575-0.383,1.233-0.679,1.854-0.9
				s1.166-0.371,1.837-0.446c0.671-0.071,23.801-0.042,23.801-0.042l-0.093-3.529c0,0-20.162,0.042-23.574,0
				c-0.679-0.058-1.195-0.188-1.671-0.333c-0.475-0.146-0.621-0.267-1.167-0.558c-0.545-0.296-1.129-0.68-1.737-1.146
				c-0.608-0.467-1.296-1.146-1.892-1.663c-0.6-0.521-1.108-1.033-1.691-1.446c-0.588-0.412-1.158-0.758-1.8-1.025
				c-0.646-0.267-1.338-0.462-2.038-0.558c-0.7-0.092-1.416-0.062-2.125,0c-0.713,0.066-1.362,0.138-2.125,0.396
				c-0.521,0.179-1.233,0.521-1.666,0.792c-0.754,0.479-1.342,1.012-2.055,1.55c-0.65,0.496-1.271,1.058-1.908,1.534
				c-0.713,0.533-1.309,1.016-2.142,1.492c-0.596,0.337-1.483,0.816-2.163,0.912c-0.858,0.116-1.295,0.125-1.954,0.075
				c-0.649-0.045-1.146-0.137-1.812-0.354c-0.667-0.212-1.347-0.508-2.021-0.938c-0.671-0.429-1.329-1.004-1.954-1.654
				c-0.621-0.65-1.271-1.42-1.746-2.254c-0.479-0.833-0.921-1.917-1.166-2.875c-0.246-0.958-0.192-2.837-0.192-2.837V1147.056z
				 M445.306,1154.081v4.517h-2.396c0,0,0.108-1.233,0.283-1.821c0.13-0.434,0.312-0.867,0.554-1.25
				c0.226-0.362,0.509-0.688,0.826-0.971c0.22-0.196,0.732-0.488,0.732-0.488V1154.081z"/>
			<path id="path4003" fill="#DA291C" d="M498.207,1152.669l7.025,6.621c0.583,0.438,1.412,0.896,1.991,0.608
				c0.392-0.25,0.741-0.788,0.638-1.455c-0.413-4.517-1.425-14.979-1.425-14.979l5.3,2.229l6.9-10.596l6.554,10.667l5.229-2.092
				c0,0-0.828,10.062-1.153,14.758c0.041,0.575,0.129,0.942,0.67,1.25c0.759,0.288,1.042,0,1.867-0.45
				c2.825-2.292,4.708-4.333,7.112-6.904l1.767,4.771l9.18-1.433l-0.621,10.042l3.142,1.325l-19.454,16.871l3.062,4l-15.75-1.283
				l-1.675,2.649l-1.533-2.508l-16.176,1.046l3.275-3.696l-19.729-17.292l3.421-0.975l-0.629-10.316l9.271,1.462L498.207,1152.669z"
				/>
			<path id="path4005" fill="#041E42" d="M383.594,1164.989l13.249,0.467l10.809,0.754l9.588,1.079l6.571,0.967
				c0,0-0.042,0.908,0.104,1.545c0.134,0.638,0.413,1.529,0.792,2.225c0.379,0.696,0.916,1.325,1.471,1.904
				c0.555,0.575,1.025,0.954,1.834,1.542c0.804,0.587,1.953,1.312,3.05,1.904c1.095,0.592,2.296,1.059,3.521,1.616
				s2.679,1.208,3.842,1.726c1.162,0.512,1.737,0.688,3.125,1.361c1.383,0.676,3.621,1.871,5.133,2.764
				c1.513,0.895,2.691,1.67,3.95,2.554c1.254,0.879,2.25,1.621,3.592,2.725c1.337,1.108,2.879,2.521,4.417,3.954
				c1.533,1.426,3.191,2.884,4.774,4.63c1.583,1.745,3.25,3.879,4.667,5.854c1.417,1.976,2.816,4.184,3.842,5.958
				c1.021,1.775,1.804,3.417,2.371,4.634c0.566,1.216,1.112,2.621,1.112,2.621s1.258-1.837,2.017-3.067
				c0.754-1.229,1.958-2.745,2.816-4.262c0.862-1.521,2.175-3.213,3.292-4.676c1.12-1.462,2.533-3.1,3.591-4.379
				c1.059-1.279,1.855-2.279,2.764-3.304c0.912-1.029,2.357-2.538,2.357-2.538l-7.825-0.074c0,0,1.188-2.538,1.922-4.08
				c0.733-1.545,1.662-3.537,2.495-5.029c0.838-1.495,1.579-2.633,2.417-3.986c0.837-1.354,2.646-4.246,2.646-4.246l7.071,6.32
				l-5.025,6.143c0,0,2.55-0.135,4.567-0.226c2.021-0.087,4.804-0.3,6.721-0.438c1.278-0.087,4.8-0.524,4.8-0.524
				s-3.209,2.791-5.029,4.486c-1.821,1.701-4.392,3.913-5.866,5.713c-1.551,1.888-2.488,2.667-4.188,4.629
				c-1.7,1.963-4.104,4.809-5.958,7.184c-1.854,2.371-3.475,4.629-5.171,7.037c-1.695,2.404-3.333,4.83-4.991,7.396
				c-1.659,2.566-3.196,5.013-4.955,8.008c-1.762,2.996-5.566,9.979-5.566,9.979s-1.833-4.788-2.763-7.25
				c-0.933-2.462-1.741-5.033-2.829-7.533c-1.087-2.5-2.45-5.005-3.708-7.441c-1.258-2.438-2.588-4.95-3.842-7.179
				c-1.254-2.234-2.129-3.771-3.662-6.213c-1.533-2.446-3.763-5.893-5.6-8.404c-1.838-2.509-3.792-4.867-5.351-6.68
				c-1.559-1.809-2.483-2.842-3.912-4.232c-1.43-1.396-3.104-2.855-4.667-4.097c-1.566-1.241-3.138-2.408-4.708-3.375
				c-1.566-0.966-3.233-1.833-4.667-2.441s-2.617-0.899-3.726-1.241s-1.941-0.504-3.021-0.738c-1.075-0.237-2.642-0.57-4.309-0.904
				c-1.662-0.338-2.987-0.654-5.532-1.316c-2.547-0.666-6.521-1.717-9.014-2.479c-2.491-0.763-4.22-1.363-5.962-2.013
				c-1.737-0.646-3.325-1.317-4.487-1.83s-2.513-1.183-2.513-1.183s-1.479-0.913-1.867-1.329
				C383.782,1165.539,383.594,1164.99,383.594,1164.989L383.594,1164.989z"/>
		</g>
		<g id="layer7" transform="translate(-324.99,-325.01)">
			<g id="g4944" transform="matrix(0.42628,0,0,0.4263,329.88,329.89)">
				<g>
					<path id="path4183" fill="#003DA5" d="M494.349,2153.406v-8.219h-2.935v-1.672h7.86v1.672h-2.928v8.219H494.349z"/>
					<path id="path4185" fill="#003DA5" d="M500.544,2153.406v-9.892h3.001l1.791,6.726l1.75-6.726h2.999v9.892h-1.833v-7.789
						l-1.959,7.789h-1.959l-1.936-7.789v7.789H500.544z"/>
				</g>
				<path id="path150-4" fill="#003DA5" d="M300.649,1812.623c0.094,1.651-0.044,3.321-1.255,4.717l10.896-0.637
					c-1.033-1.083-1.136-2.322-1.292-4.497v-0.07l-0.912-16.008l24.714,19.408l-2.08-35.516c-0.071-1.442,0-2.975,0.816-4.197
					l-10.337,0.625c0.79,0.93,1.049,2.092,1.216,3.887l0.98,16.63l-24.808-19.409L300.649,1812.623z"/>
				<path id="path154-8" fill="#003DA5" d="M174.744,1860.21c3.929-5.296,11.72-6.45,17.012-2.525
					c5.292,3.941,6.447,11.713,2.527,17.016c-3.936,5.296-11.723,6.442-17.014,2.516
					C171.979,1873.298,170.824,1865.507,174.744,1860.21 M172.306,1883.894c9.001,6.683,21.789,4.729,28.512-4.338
					c6.733-9.062,4.882-21.87-4.098-28.533c-8.996-6.675-21.802-4.729-28.526,4.33
					C161.473,1864.423,163.31,1877.218,172.306,1883.894"/>
				<path id="path158-8" fill="#003DA5" d="M353.014,1785.773l5.771,1.161l-5.429,26.814c-0.412,2.049-1.161,3.345-2.55,4.158
					l11.821,2.401c-0.836-1.255-1.287-2.939-0.891-4.855l5.427-26.803l6.389,1.283c2.27,0.458,3.949,1.742,5.012,2.78l0.163-9.4
					l-28.05-5.693l-3.455,8.613C349.273,1785.357,350.856,1785.394,353.014,1785.773"/>
				<path id="path162-2" fill="#003DA5" d="M147.569,1910.752l2.224-5.445l25.317,10.37c2.041,0.82,3.068,1.967,3.576,3.363
					l4.616-11.255c-1.409,0.596-3.143,0.712-4.941-0.041l-25.326-10.367l2.467-6.017c0.877-2.137,2.447-3.562,3.661-4.412
					l-9.193-1.922l-10.843,26.484l7.791,5.004C146.47,1914.352,146.786,1912.802,147.569,1910.752"/>
				<path id="path166-4" fill="#003DA5" d="M212.748,1822.99c2.706-1.959,4.662-2.292,6.763-1.125
					c1.42,0.783,1.998,2.595,2.066,3.038c0.069,0.324,0.426,3.183-2.978,5.662l-2.916,2.121l-5.638-7.704L212.748,1822.99z
					 M201.103,1826.706l18.712,26.029c0.458,0.992,0.774,2.229,0.554,3.571l9.562-6.971c-1.833-0.163-2.88-1.23-4.08-2.709
					l-8.107-11.146l21.012,7.442l9.006-6.558c-1.471-0.079-3.297-0.404-5.292-0.954l-13.842-4.729l0.254-0.667
					c1.665-4.246,0.871-7.374,0.694-7.954c-0.412-1.387-1.081-2.712-1.995-3.941c-1.226-1.688-2.708-2.976-4.417-3.843l-0.229-0.116
					c-1.375-0.633-2.575-1.001-3.888-1.172c-2.032-0.229-4.332,0.117-6.641,1.017c-0.46,0.171-2.696,1.171-4.449,2.445l-0.121,0.101
					l-10.758,7.816C198.452,1824.669,200.033,1825.227,201.103,1826.706"/>
				<path id="path170-5" fill="#003DA5" d="M254.749,1800.131c3.933-5.295,11.711-6.437,17.008-2.516
					c5.287,3.921,6.451,11.705,2.511,17c-3.92,5.296-11.702,6.459-16.998,2.524C251.981,1813.21,250.827,1805.427,254.749,1800.131
					 M252.307,1823.823c9.001,6.666,21.791,4.72,28.512-4.338c6.733-9.063,4.896-21.871-4.11-28.555
					c-8.999-6.675-21.786-4.725-28.512,4.342C241.478,1804.336,243.308,1817.148,252.307,1823.823"/>
				<path id="path174-5" fill="#003DA5" d="M394.024,1807.315c3.933-5.296,11.725-6.451,17.028-2.526
					c5.283,3.93,6.437,11.725,2.509,17.009c-3.924,5.295-11.709,6.45-17.012,2.524
					C391.245,1820.402,390.102,1812.599,394.024,1807.315 M391.598,1830.99c8.992,6.691,21.78,4.745,28.508-4.33
					c6.731-9.062,4.889-21.862-4.094-28.534c-9.01-6.674-21.809-4.736-28.538,4.33
					C380.757,1811.526,382.606,1824.323,391.598,1830.99"/>
				<path id="path178-1" fill="#003DA5" d="M235.631,2101.21c0.195-0.316,0.296-0.479,0.296-0.479
					c1.517-2.371,3.455-3.525,6.428-3.384l-7.345-4.657l-19.578,30.871c-3.026,4.749-0.783,11.344,4.82,14.908
					c5.622,3.553,12.433,2.937,15.537-1.897l19.635-30.953l-7.335-4.646c1.617,2.616,1.306,4.646-0.341,7.252
					c0,0-10.417,16.425-15.917,25.1c-1.72,2.524-5.727,2.976-8.88,0.967c-3.157-1.981-4.444-5.837-2.928-8.471
					C221.806,2123.012,235.569,2101.302,235.631,2101.21"/>
				<path id="path182-7" fill="#003DA5" d="M257.356,2106.864l-19.266,30.376c-0.27,0.424-0.729,1.146-0.729,1.146
					c-3.372,5.331-11.532,6.197-18.213,1.949c-2.314-1.461-4.117-3.344-5.395-5.404c-0.046-0.071-0.092-0.117-0.137-0.208
					c-2.289-3.849-2.69-8.325-0.525-11.74c0,0,0.16-0.273,0.69-1.139l19.276-30.383l-7.324-4.655c1.416,2.472,1.523,4.268-0.33,7.25
					l-16.384,25.833c-5.539,8.872-2.829,18.099,7.2,24.514c9.8,6.254,20.066,5.15,25.676-3.672l16.373-25.833
					c1.785-2.703,3.972-3.704,6.376-3.425L257.356,2106.864z"/>
				<path id="path186-1" fill="#003DA5" d="M466.865,2110.257l-9.175-9.434l-9.991-29.716c-0.263-1.086-1.102-2.896,0.515-7.938
					l-6.442,6.188l11.338,34.009l14.142,14.712l0.041-0.041l6.793-6.538c-2.925,1.026-5.125,0.504-7.216-1.255"/>
				<path id="path190-1" fill="#003DA5" d="M419.881,2090.427l-0.163,0.169l30.638,11.564l-10.426-31.026l-8.036,7.738
					c2.021-0.907,3.283-0.774,3.849-0.605c0.401,0.211,1.168,0.504,2.158,3.205l4.655,12.579l-12.336-5.049
					c-1.906-0.985-2.689-2.231-2.689-2.231c-0.774-1.386-0.108-2.841,0.273-3.958L419.881,2090.427z"/>
				<path id="path194-5" fill="#003DA5" d="M417.874,2092.37l-6.279,6.025c3.5-1.168,4.806-0.939,7.704-0.073l29.429,11.147
					l8.387,8.783c2.607,2.609,2.515,5.713,1.649,8.002l6.859-6.586l-14.171-14.698L417.874,2092.37L417.874,2092.37z"/>
				<path id="path198-2" fill="#003DA5" d="M379.454,2153.406l-7.397-29.787c-0.845-3.684,1.95-6.975,1.95-6.975l-8.408,2.084
					l8.696,35.012c0,0,1.734,5.083-0.955,9.248c-1.915,2.918-4.882,5.168-8.948,6.169c-3.805,0.916-8.369,0.541-11.759-1.75
					c-1.501-1.001-2.222-1.626-3.817-3.168l-2.971,4.959c8.85,8.581,19.775,4.833,19.775,4.833
					c4.066-1.042,7.576-3.001,10.142-5.708c3.429-3.583,4.793-8.21,4.087-12.959
					C379.848,2155.239,379.571,2153.823,379.454,2153.406"/>
				<path id="path202-7" fill="#003DA5" d="M362.989,2162.198c-2.731,0.793-4.896-0.041-4.957-0.082
					c-3.07-1.042-4.545-5.75-4.545-5.75l-3.562,5.958c1.386,1.624,4.401,3.583,4.401,3.583c4.002,2.458,8.27,1.5,9.61,1.166
					c5.242-1.292,9.764-6,8.325-11.834c0-0.041-8.912-35.906-8.912-35.906l-8.405,2.062c1.833,0.3,4.268,2.266,5.001,5.253
					l7.322,29.551C367.944,2158.991,365.722,2161.447,362.989,2162.198"/>
				<path id="path210-6" fill="#003DA5" d="M177.931,2038.66l1.631,3.425c1.223,2.575,0.882,5.063-1.251,6.073
					c-2.621,1.237-4.662-1.235-5.445-2.905l-1.627-3.418L177.931,2038.66z M180.668,2053.129c4.426-2.094,5.917-7.894,3.372-13.167
					l-3.801-8.022l-15.053,7.147l3.807,8.015C171.626,2052.662,176.439,2055.14,180.668,2053.129"/>
				<path id="path214-1" fill="#003DA5" d="M162.877,2057.71c-0.536,0.525-1.542,1.109-2.33,1.209
					c-2.169,0.261-4.245,0.403-6.712-4.934l-1.503-3.212l9.058-4.293l1.517,3.184c2.03,4.284,1.354,6.712-0.041,8.045
					 M166.779,2047.837L166.779,2047.837l-3.684-7.761l-17.429,8.272l3.686,7.75c2.039,4.362,6.614,11.184,13.947,7.708
					C171.528,2059.894,168.469,2051.429,166.779,2047.837"/>
				<path id="path218-4" fill="#003DA5" d="M147.269,2057.087l-4.662-9.818l38.712-18.372l4.795,10.093
					c3.068,6.458,1.097,13.591-4.467,16.232c-3.303,1.558-6.683,1.008-10.337-1.704l-0.408-0.307l0.076,0.504
					c0.683,5.216-1.812,9.85-6.701,12.157C157.711,2068.986,151.356,2065.701,147.269,2057.087 M166.657,2070.853L166.657,2070.853
					c3.986-1.885,6.925-5.106,7.94-9.921c0,0,3.789,1.771,9.335-0.845l0,0v-0.043c8.133-3.858,11.024-14.042,6.628-23.194
					l-8.524-17.967c0,2.362-1.125,4.637-4.092,5.97l-35.733,16.963c-3.368,1.521-6.016,1.189-8.176-1.049l8.758,18.436
					c7.042,14.817,18.664,14.088,23.864,11.642l0,0V2070.853z"/>
				<path id="path222-2" fill="#003DA5" d="M172.043,2097.611l35.743-31.83l-5.782-6.49c0.683,2.19,0.27,4.499-2.302,6.877
					c0,0-0.117,0.096-0.291,0.263c-0.071,0.062-26.279,23.405-29.353,26.145c-2.68,2.231-5.088,2.277-8.004,1.246l22.263,24.992
					l4.27-2.671h-0.041l-16.517-18.532H172.043z"/>
				<path id="path226-3" fill="#003DA5" d="M189.083,2105.826c0,0-4.192-4.708-6.696-7.505c3.407-3.044,22.249-19.866,25.362-22.619
					c0.041,0,0.041,0,0.041,0c0.078-0.046,0.142-0.115,0.213-0.183c0,0,4.325-3.2,7.095-1.505l-5.755-6.483l-0.041-0.043
					l-34.017,30.307l15.228,17.082l7.198-4.474c0,0-4.687-0.243-8.458-4.394l-0.167-0.186L189.083,2105.826z"/>
				<path id="path230-2" fill="#003DA5" d="M292.152,2160.906c-0.092,0-12.726-3.042-12.726-3.042l2.284-9.557l8.921,2.098
					l0.126,0.044c4.224,1.125,5.129,4.291,5.129,4.291l1.682-7.058l-19.848-4.721l-4.426,18.572l24.345,5.75l3.393-7.832
					C299.068,2160.615,296.865,2161.866,292.152,2160.906"/>
				<path id="path234-2" fill="#003DA5" d="M278.045,2140.69l20.073,4.753l1.684-7.106c0,0-2.325,2.577-6.506,1.585l-9.331-2.208
					l1.771-7.45l11.23,2.671c6.098,1.45,7.571,4.76,7.571,4.76l0.534-7.944l-23.131-5.487L278.045,2140.69L278.045,2140.69z"/>
				<path id="path238-1" fill="#003DA5" d="M274.973,2121.624c-9.246,38.907-9.159,38.574-9.216,38.824
					c-0.559,2.043-2.163,4.916-5.929,5.333l34.904,8.292l0,0l1.984-4.625l-26.405-6.249l9.904-41.713l24.98,5.938l0.325-5.017
					l-32.877-7.816C274.508,2116.302,275.633,2118.82,274.973,2121.624"/>
				<path id="path250-6" fill="#003DA5" d="M403.694,2142.447l1.161,17.918l0.156-0.085l8.641-4.54
					c-2.021-0.291-3.846-2.124-4.346-4.918l-0.417-6.3l12.059-6.323l5.237,4.059c1.329,1.102,3.411,3.235,1.267,6.222l8.712-4.577
					l0.183-0.101l-14.146-11.113L403.694,2142.447L403.694,2142.447z"/>
				<path id="path254-8" fill="#003DA5" d="M498.681,2048.341c-10.987-6.199-18.707,1.091-22.421,4.607l-0.163,0.144
					c-3.629,3.409-5.333,4.256-7.038,3.455c-0.394-0.193-0.591-0.332-0.873-0.516c-1.901-1.333-2.08-3.688-0.467-6.212
					c0.35-0.534,3.578-5.212,9.477-2.247l0.101,0.055l-2.337-6.483h-0.066c-2.213-0.067-7.796,0.467-11.58,6.655
					c-3.219,5.266-1.895,10.618,3.285,13.527c4.866,2.753,8.504-0.486,11.702-3.354l0.165-0.137l1.462-1.196
					c0.25-0.229,0.529-0.454,0.804-0.687c2.946-2.515,5.725-4.907,9.821-4.779c0.302,0,3.038,0.172,5.599,1.723
					c2.589,1.569,4.291,3.686,5.022,6.304c0.997,3.468,0.438,7.324-1.521,10.822c-2.082,3.681-5.395,6.215-9.338,7.129
					c-1.659,0.394-2.632,0.504-4.859,0.6h-0.041l1.588,5.473h0.041c10.213-0.474,15.173-7.942,16.419-10.224
					c0.291-0.463,0.373-0.735,0.373-0.735c2.041-3.604,3.001-7.452,2.793-11.145c-0.334-5.454-3.21-10.13-7.933-12.778"/>
				<path id="path258-5" fill="#003DA5" d="M489.657,2075.029c3.491-0.76,6.185-2.804,8.009-6.073
					c0.082-0.126,0.144-0.259,0.199-0.351l0.092-0.16c2.845-5.182,1.684-10.968-2.747-13.484c-3.445-1.968-6.508-2.013-9.379-0.146
					c-2.454,1.626-5.457,4.178-5.484,4.204c-4.923,4.355-9.154,7.429-14.982,4.245c-2.82-1.519-4.749-3.821-5.562-6.627
					c-0.921-3.191-0.341-6.847,1.688-10.263c1.054-1.805,5.104-7.722,12.6-7.55h0.041l-1.766-4.889v-0.046l0,0l-1.235,0.163
					c-5.175,0.715-10.966,4.833-13.782,9.83c-2.131,3.81-3.113,7.56-2.905,11.149c0.27,4.806,2.525,8.868,6.497,11.752
					c0.566,0.412,1.152,0.797,1.803,1.155c9.379,5.287,15.326-0.041,20.075-4.309l0.371-0.355c3.888-3.477,6.653-5.191,9.262-3.72
					c1.613,0.9,2.387,3.922,1.017,6.591c-1.134,2.192-2.813,3.051-3.301,3.264c-2.758,1.471-7.161-0.421-7.196-0.442l-0.073-0.043
					l1.911,6.625h0.055c1.755,0.211,4.754-0.518,4.799-0.527"/>
				<path id="path242-7" fill="#003DA5" d="M406.812,2126.01l5.537,4.428l-4.987,2.625L406.812,2126.01z M401.815,2116.485
					l1.62,23.478l16.852-8.875L401.815,2116.485z"/>
				<path id="path246-6" fill="#003DA5" d="M394.161,2101.927l2.951,53.769c-0.055,5.086-0.852,8.043-2.192,9.919l7.729-4.084
					l-3.338-49.882l39.25,30.962l7.379-3.885c-3.049-0.092-5.943-1.915-8.992-3.949L394.161,2101.927z"/>
			</g>
		</g>
	</g>
</g>
</svg>
