<?xml version="1.0" encoding="utf-8"?>
<!-- Generator: Adobe Illustrator 14.0.0, SVG Export Plug-In . SVG Version: 6.00 Build 43363)  -->
<!DOCTYPE svg PUBLIC "-//W3C//DTD SVG 1.1//EN" "http://www.w3.org/Graphics/SVG/1.1/DTD/svg11.dtd">
<svg version="1.1" xmlns="http://www.w3.org/2000/svg" xmlns:xlink="http://www.w3.org/1999/xlink" x="0px" y="0px" width="200px"
	 height="200px" viewBox="44 746 200 200" enable-background="new 44 746 200 200" xml:space="preserve">
<g id="Layer_1">
	<g>
		<path fill="#FFFFFF" stroke="#FFFFFF" stroke-width="0.5877" d="M7218.837,7645.277c-2.438,4.812-9.872,18.5-9.485,20.523
			c0.48,2.512,2.055,4.428,1.979,6.965c-0.05,1.572-1.985,5.439-3.489,6.526c-1.259,0.907-5.062,8.043-20.085,0.963l-2.007-1.058
			c-14.529-8.039-10.977-15.297-10.977-16.85c0-1.854,1.998-5.688,3.246-6.646c2.012-1.546,4.485-1.396,6.805-2.473
			c1.867-0.875,7.51-12.213,9.984-17.006l0.039-0.107c-49.488-24.303-83.552-75.2-83.552-134.059
			c0-82.435,66.83-149.265,149.265-149.265c82.436,0,149.266,66.83,149.266,149.265c0,82.436-66.83,149.266-149.266,149.266
			c-14.543,0-28.597-2.079-41.889-5.959L7218.837,7645.277z"/>
		<path fill="#FC1921" d="M7310.404,7445.783c2.517,1.566,5.261,3.033,7.347,4.908l23.97-30.517
			c4.913,4.281,8.823,8.417,12.65,14.433l-27.979,24.561c2.26,2.576,5.166,7.668,6.987,11.215l28.75-19.906
			c0.55,1.073,2.117,7.637,1.867,9.559l-28.22,18.234c0.455,2.035,0.771,2.481,1.106,5.184c0,0,32.472-18.421,32.487-18.653
			c-3.542-34.866-33.861-63.302-69.663-63.302c-14.872,0-28.646,4.697-39.925,12.686c-0.19,0.135,1.869,32.676,1.869,32.676
			c2.289-1.432,5.125-2.766,6.269-3.146l-0.571-29.678c2.77-2.195,6.537-4.008,9.448-5.061l-0.67,32.158
			c4.008-0.951,11.163-1.527,13.456-1.047l5.82-35.023c7.063-0.668,14.121,0.099,20.326,2.104l-13.551,35.209
			c2.684,0.821,5.577,2.053,8.221,3.407"/>
		<path fill="none" stroke="#FFFFFF" stroke-width="2.2041" d="M7286.66,7541.208c28.023,0,50.738-22.722,50.738-50.739
			c0-28.025-22.715-50.742-50.738-50.742s-50.743,22.717-50.743,50.742C7235.917,7518.486,7258.637,7541.208,7286.66,7541.208z"/>
		<path fill="#FC1921" d="M7244.924,7555.453c-1.412,2.329-12.27,8.79-14.615,5.148c-3.91-6.071,8.041-15.715,5.781-18.412
			c-1.359-1.615-6.973,2.603-11.557,7.881c0,0-2.547,4.88-6.016,11.029l-8.156,0.071c-0.5-0.377,10.377-16.298,8.266-18.151
			c-3-2.621-20.595,25.819-28.863,19.78c-0.695-0.512-2.562-2.624-0.076-7.938c-3.701,4.886-12.697,8.841-16.484,5.559
			c-8.127-7.044,13.936-30.667,22.833-22.48c0.696,0.638,0.948,1.26,0.896,1.754l1.196-1.885l8.045-0.072
			c-3.655,9.843-11.235,18.748-9.291,20.147c3.384,2.435,22.839-27.389,29.462-20.891c2.057,2.021,1.915,4.664,1.379,6.104
			c4.691-4.893,14.598-9.605,17.799-6.281c3.896,4.037-7.959,15.966-5.349,17.631c1.481,0.947,6.042-2.536,6.042-2.536
			 M7179.284,7555.41c4.358,4.835,17.543-10.475,14.856-14.801C7190.572,7536.122,7175.384,7551.083,7179.284,7555.41z"/>
		<path fill="#FC1921" d="M7267.668,7546.346c7.393,0.592,15.95-3.896,14.373-7.41c-0.93-2.072-6.518-1.259-9.811,0.094
			L7267.668,7546.346z M7291.758,7552.52c-8.088,7.346-16.791,10.088-19.658,7.897c-4.781-3.653-0.424-8.401-2.852-10.448
			c-0.664-0.554-1.775-0.699-3.591-0.57l9.399-14.584c5.045-2.584,13.289-3.978,14.672,0.744
			c1.932,6.596-7.273,12.303-13.658,13.357c4.859,0.891,0.054,6.299,5.027,6.949c2.213,0.293,8.666-4.321,12.039-8.986"/>
		<path fill="#FC1921" d="M7325.467,7549.889c-12.592,9.047-29.176,11.872-32.701,4.161c-5.813-12.713,26.438-28.647,30.25-18.911
			c2.709,6.916-10.131,13.102-20.711,13.198c-0.445,0.004-0.293-0.108-0.332,0.004c-0.924,2.681,0.383,5.616,5.344,5.574
			s12.326-2.099,19.324-8.338 M7302.721,7545.797c6.387-0.83,12.789-6.154,11.719-8.593
			C7312.932,7533.786,7304.098,7539.941,7302.721,7545.797z"/>
		<path fill="#FC1921" d="M7370.137,7539.989c-4.15,4.228-10.093,7.239-10.843,7.819c-11.747,9.047-29.151,12.367-33.028,4.828
			c-6.586-12.818,26.274-27.527,28.82-18.568c1.854,6.525-9.589,12.104-19.283,12.853c-0.441,0.039-0.293-0.108-0.328,0.007
			c-0.927,2.678,0.381,5.621,5.342,5.571c4.959-0.046,10.332-2.386,17.684-6.888c1.643-1.01,8.555-4.824,11.93-9.479
			 M7336.107,7544.166c7.273-0.286,13.812-6.092,11.936-8.708C7345.707,7532.189,7336.617,7539.643,7336.107,7544.166z"/>
		<path fill="#FC1921" d="M7364.875,7543.566c0.549,5.674-5.07,5.832-5.352,5.562c-0.866,0.95-0.199,5.04,4.131,5.253
			c7.199,0.362,7.092-9.106,6.14-12.625c-0.649-2.407-0.175-5.043,0.206-7.358c0.953-5.797,8.464-11.84,11.125-9.947
			c1.818,1.301,0.818,5.617-4.098,9.855c-0.922,0.894-1.522,1.041-0.188,3.783c1.446,2.977,3.925,10.139-0.116,15.605
			c-3.156,4.271-8.562,4.849-13.052,4.087c-2.872-0.489-6.085-2.396-7.411-4.548
			C7350.501,7543.921,7362.396,7537.529,7364.875,7543.566z"/>
		<path fill="#0C2D82" d="M7287.803,7515.884c1.081-1.507,2.096-2.905,3.092-4.229c0.239-0.319,0.877-1.403,1.195-2.216
			c1.734-4.449-2.631-11.25-8.762-14.142c-6.094-2.873-12.63-2.272-14.586,0.634c-0.489,0.723-1.081,1.648-1.196,2.026
			c-0.68,2.228-1.444,4.422-2.272,6.812c-9.666-6.455-15.342-13.385-12.715-18.396c4.873-9.294,20.09-7.728,35.982,0.079
			c15.895,7.803,26.643,19.652,22.15,28.181C7308.029,7519.695,7298.917,7519.592,7287.803,7515.884z"/>
		<path fill="#0C2D82" d="M7306.857,7534.792c-0.812,0.296-2.83,1.376-4.391,2.363c-3.15-3.582-14.222-11.253-20.144-13.31
			c-0.091-0.029,1.501-2.115,1.501-2.115c6.105,2.479,20.646,10.916,22.936,13.016"/>
		<g>
			<path fill="#0C2D82" d="M7335.686,7535.971c1.316-0.936,4.9-2.396,5.002-2.531c0.119-0.49,0.188-1.463,0.188-1.463
				c3.817-17.939-3.962-32.539-10.065-38.266c-5.959-5.589-3.125-1.413-1.146,1.146c1.406,1.815,2.08,2.881,2.671,4.004
				c3.104,5.891,1.633,5.16-2.479,0.955c-8.111-8.287-22.234-18.797-35.211-25.284c-17.717-8.86-39.412-13.075-51.433-12.694
				c4.961-2.29,7.685-2.536,12.783-3.052c4.521-0.457,2.75-1.354,0-1.146c-9.658,0.738-31.181,1.076-34.54,17.939
				c-2.855,14.318,8.777,26.527,20.036,30.916c9.786,3.814,20.138,8.361,20.138,8.361l1.049-3.207
				c-5.727-3.056-15.707-6.34-20.992-8.396c-6.873-2.671-19.172-12.136-17.561-25.003c2.674-21.354,42.809-14.324,69.469-0.953
				c11.551,5.795,27.014,17.03,34.612,24.363c8.709,8.403,10.235,11.219,10.808,20.108
				C7339.039,7527.203,7337.527,7532.095,7335.686,7535.971"/>
			<text transform="matrix(1 0 0 1 -6505.8574 -5942.416)" fill="#0C2D82" font-family="'Helvetica'" font-size="9"> </text>
		</g>
		<path fill="none" stroke="#FC1921" stroke-width="1.0213" stroke-linecap="round" stroke-linejoin="round" d="M7339.202,7414.514
			c2.675-3.439,9.508-12.236,12.024-14.128"/>
		<polyline fill="none" stroke="#FC1921" stroke-width="1.0213" stroke-linecap="round" stroke-linejoin="round" points="
			7339.968,7398.859 7345.312,7406.493 7355.234,7409.93 		"/>
		<polyline fill="none" stroke="#FC1921" stroke-width="1.0213" stroke-linecap="round" stroke-linejoin="round" points="
			7334.242,7404.202 7341.496,7411.457 7349.512,7415.271 		"/>
		<path fill="#FC1921" d="M7403.1,7501.54c0-78.821-63.896-142.722-142.715-142.722c-70.221,0-128.598,50.721-140.5,117.521
			l13.848-14.667c17.164-53.467,67.293-92.163,126.461-92.163c73.336,0,132.791,59.451,132.791,132.79l0.08,0.105
			c-0.863,24.806-5.724,35.441-14.613,41.854l-0.791,6.518c3.902-3.002,15.723-15.502,23.051-30.602
			c1.991-4.109,2.543-14.719,2.479-18.398L7403.1,7501.54z"/>
		<path fill="#FC1921" d="M7385.871,7546.229c-18.028,51.947-67.404,87.315-125.486,87.819
			c-69.363,0.601-132.197-57.979-132.197-131.319l0,0c-1.035-14.821,3.248-24.315,6.748-30.752
			c3.597-6.623,11.256-15.36,18.045-14.031c10.521,2.066,3.754,15.803-5.182,31.381c-8.732,15.229-19.314,31.223-10.799,40.427
			c6.893,7.451,21.002,5.756,29.632-2.81l-26.623,49.98l11.817,0.088l51.41-97.046l-11.906,0.33l-21.021,39.114
			c-6.773,6.347-17.779,12.174-24.07,7.826c-12.484-8.621,36.408-55.317,18.416-70.502c-14.369-12.125-29.979,5.979-34.928,14.564
			c-4.053,7.035-11.701,17.858-11.879,31.191l0.01-0.574c0,78.816,63.899,142.714,142.718,142.714
			c67.2,0,123.556-46.448,138.706-108.991c0.574-2.295,1.187-5.099,1.187-5.099
			C7396.459,7536.845,7385.871,7546.229,7385.871,7546.229z"/>
		
			<line fill="none" stroke="#FC1921" stroke-width="1.0213" stroke-linecap="round" stroke-linejoin="round" x1="7184.234" y1="7428.633" x2="7196.258" y2="7426.914"/>
		<path fill="none" stroke="#FC1921" stroke-width="1.0213" stroke-linecap="round" stroke-linejoin="round" d="M7163.626,7407.656
			c28.673,22.9,47.043,58.158,47.043,97.707c0,10.699-1.219,19.828-3.715,29.771"/>
		<path fill="none" stroke="#FC1921" stroke-width="1.0213" stroke-linecap="round" stroke-linejoin="round" d="M7195.812,7564.906
			c-6.367,11.812-14.619,22.438-24.426,31.432c-4.58,4.197-3.174,1.78-3.174,1.78"/>
		<polyline fill="none" stroke="#FC1921" stroke-width="1.0213" stroke-linecap="round" stroke-linejoin="round" points="
			7177.375,7406.884 7167.066,7410.701 7163.633,7421.197 		"/>
		
			<line fill="none" stroke="#FC1921" stroke-width="1.0213" stroke-linecap="round" stroke-linejoin="round" x1="7173.173" y1="7415.666" x2="7182.336" y2="7412.229"/>
		
			<line fill="none" stroke="#FC1921" stroke-width="1.0213" stroke-linecap="round" stroke-linejoin="round" x1="7176.229" y1="7419.1" x2="7185.771" y2="7416.043"/>
		
			<line fill="none" stroke="#FC1921" stroke-width="1.0213" stroke-linecap="round" stroke-linejoin="round" x1="7180.046" y1="7423.684" x2="7192.26" y2="7421.771"/>
		
			<line fill="none" stroke="#FC1921" stroke-width="1.0213" stroke-linecap="round" stroke-linejoin="round" x1="7190.732" y1="7436.848" x2="7203.902" y2="7435.702"/>
		<polyline fill="none" stroke="#FC1921" stroke-width="1.0213" stroke-linecap="round" stroke-linejoin="round" points="
			7187.486,7454.021 7195.505,7445.627 7208.863,7445.245 		"/>
		<polyline fill="none" stroke="#FC1921" stroke-width="1.0213" stroke-linecap="round" stroke-linejoin="round" points="
			7191.113,7462.232 7199.514,7454.021 7212.3,7454.789 		"/>
		
			<line fill="none" stroke="#FC1921" stroke-width="1.0213" stroke-linecap="round" stroke-linejoin="round" x1="7168.021" y1="7425.586" x2="7172.221" y2="7415.666"/>
		
			<line fill="none" stroke="#FC1921" stroke-width="1.0213" stroke-linecap="round" stroke-linejoin="round" x1="7172.982" y1="7430.551" x2="7177.182" y2="7420.246"/>
		
			<line fill="none" stroke="#FC1921" stroke-width="1.0213" stroke-linecap="round" stroke-linejoin="round" x1="7175.658" y1="7434.749" x2="7181.002" y2="7424.635"/>
		
			<line fill="none" stroke="#FC1921" stroke-width="1.0213" stroke-linecap="round" stroke-linejoin="round" x1="7179.279" y1="7439.52" x2="7185.389" y2="7430.359"/>
		
			<line fill="none" stroke="#FC1921" stroke-width="1.0213" stroke-linecap="round" stroke-linejoin="round" x1="7182.908" y1="7445.055" x2="7189.779" y2="7437.609"/>
		<polyline fill="none" stroke="#FC1921" stroke-width="1.0213" stroke-linecap="round" stroke-linejoin="round" points="
			7194.74,7473.109 7203.52,7464.331 7217.26,7465.475 		"/>
		
			<line fill="none" stroke="#FC1921" stroke-width="1.0213" stroke-linecap="round" stroke-linejoin="round" x1="7206.955" y1="7474.827" x2="7219.359" y2="7478.07"/>
		
			<line fill="none" stroke="#FC1921" stroke-width="1.0213" stroke-linecap="round" stroke-linejoin="round" x1="7206.764" y1="7474.445" x2="7203.137" y2="7478.07"/>
		
			<line fill="none" stroke="#FC1921" stroke-width="1.0213" stroke-linecap="round" stroke-linejoin="round" x1="7209.436" y1="7486.852" x2="7220.889" y2="7490.855"/>
		
			<line fill="none" stroke="#FC1921" stroke-width="1.0213" stroke-linecap="round" stroke-linejoin="round" x1="7200.273" y1="7494.863" x2="7209.244" y2="7485.896"/>
		<polyline fill="none" stroke="#FC1921" stroke-width="1.0213" stroke-linecap="round" stroke-linejoin="round" points="
			7222.986,7506.129 7210.391,7500.784 7200.273,7508.797 		"/>
		<polyline fill="none" stroke="#FC1921" stroke-width="1.0213" stroke-linecap="round" stroke-linejoin="round" points="
			7200.466,7520.63 7210.201,7514.143 7222.029,7518.915 		"/>
		<polyline fill="none" stroke="#FC1921" stroke-width="1.0213" stroke-linecap="round" stroke-linejoin="round" points="
			7197.605,7531.51 7208.863,7526.928 7220.697,7531.889 		"/>
		
			<line fill="none" stroke="#FC1921" stroke-width="1.0213" stroke-linecap="round" stroke-linejoin="round" x1="7206.955" y1="7535.134" x2="7212.872" y2="7540.102"/>
		
			<line fill="none" stroke="#FC1921" stroke-width="1.0213" stroke-linecap="round" stroke-linejoin="round" x1="7204.091" y1="7546.587" x2="7206.193" y2="7548.305"/>
		
			<line fill="none" stroke="#FC1921" stroke-width="1.0213" stroke-linecap="round" stroke-linejoin="round" x1="7211.035" y1="7551.738" x2="7212.938" y2="7552.952"/>
		
			<line fill="none" stroke="#FC1921" stroke-width="1.0213" stroke-linecap="round" stroke-linejoin="round" x1="7204.475" y1="7559.182" x2="7208.482" y2="7562.809"/>
		
			<line fill="none" stroke="#FC1921" stroke-width="1.0213" stroke-linecap="round" stroke-linejoin="round" x1="7195.314" y1="7565.673" x2="7202.564" y2="7572.35"/>
		
			<line fill="none" stroke="#FC1921" stroke-width="1.0213" stroke-linecap="round" stroke-linejoin="round" x1="7194.359" y1="7566.625" x2="7186.154" y2="7565.859"/>
		<polyline fill="none" stroke="#FC1921" stroke-width="1.0213" stroke-linecap="round" stroke-linejoin="round" points="
			7197.221,7581.324 7190.732,7573.111 7181.002,7571.971 		"/>
		<polyline fill="none" stroke="#FC1921" stroke-width="1.0213" stroke-linecap="round" stroke-linejoin="round" points="
			7175.837,7578.448 7185,7579.4 7191.107,7587.993 		"/>
		<polyline fill="none" stroke="#FC1921" stroke-width="1.0213" stroke-linecap="round" stroke-linejoin="round" points="
			7170.493,7583.793 7179.273,7586.464 7185.764,7593.334 		"/>
		<polyline fill="none" stroke="#FC1921" stroke-width="1.0213" stroke-linecap="round" stroke-linejoin="round" points="
			7167.25,7588.755 7175.076,7591.044 7180.802,7597.533 		"/>
		<polyline fill="none" stroke="#FC1921" stroke-width="1.0213" stroke-linecap="round" stroke-linejoin="round" points="
			7173.928,7601.924 7170.111,7595.816 7165.15,7593.909 		"/>
		<path fill="none" stroke="#FC1921" stroke-width="1.0213" stroke-linecap="round" stroke-linejoin="round" d="M7327.373,7556.501
			c4.197,7.635,22.521,30.151,32.439,35.118"/>
		
			<line fill="none" stroke="#FC1921" stroke-width="1.0213" stroke-linecap="round" stroke-linejoin="round" x1="7320.5" y1="7555.738" x2="7324.316" y2="7555.357"/>
		<polyline fill="none" stroke="#FC1921" stroke-width="1.0213" stroke-linecap="round" stroke-linejoin="round" points="
			7333.096,7558.409 7330.044,7561.461 7321.646,7562.991 		"/>
		
			<line fill="none" stroke="#FC1921" stroke-width="1.0213" stroke-linecap="round" stroke-linejoin="round" x1="7325.083" y1="7569.857" x2="7336.532" y2="7569.477"/>
		<polyline fill="none" stroke="#FC1921" stroke-width="1.0213" stroke-linecap="round" stroke-linejoin="round" points="
			7346.457,7567.952 7340.35,7575.203 7331.189,7577.881 		"/>
		<polyline fill="none" stroke="#FC1921" stroke-width="1.0213" stroke-linecap="round" stroke-linejoin="round" points="
			7351.036,7572.913 7345.503,7579.785 7335.389,7584.364 		"/>
		
			<line fill="none" stroke="#FC1921" stroke-width="1.0213" stroke-linecap="round" stroke-linejoin="round" x1="7339.968" y1="7588.943" x2="7348.365" y2="7583.982"/>
		<polyline fill="none" stroke="#FC1921" stroke-width="1.0213" stroke-linecap="round" stroke-linejoin="round" points="
			7358.29,7580.934 7352.943,7587.418 7344.93,7592.764 		"/>
		
			<line fill="none" stroke="#FC1921" stroke-width="1.0213" stroke-linecap="round" stroke-linejoin="round" x1="7356" y1="7575.969" x2="7349.893" y2="7584.364"/>
		
			<line fill="none" stroke="#FC1921" stroke-width="1.0213" stroke-linecap="round" stroke-linejoin="round" x1="7341.496" y1="7561.846" x2="7335.77" y2="7568.336"/>
		<polyline fill="none" stroke="#FC1921" stroke-width="1.0213" stroke-linecap="round" stroke-linejoin="round" points="
			7361.723,7585.13 7359.051,7590.477 7351.801,7595.434 		"/>
		<path fill="#FC1921" d="M7238.566,7594.023c-7.988,13.949-28.168,51.955-34.953,67.64c-1.773,4.096-2.191,5.948-0.432,8.015
			c0.338,0.4,0.885,1.397,0.977,1.758c0.367,1.403-1.232,3.228-2.073,3.778c-1.745,1.136-5.502,1.425-12.251-1.665
			c-6.747-3.09-8.441-6.847-8.544-8.931c-0.049-1.004,0.483-3.366,1.836-3.899c0.345-0.134,1.472-0.279,1.994-0.238
			c2.704,0.211,4.183-1.545,6.456-5.388c9.304-15.729,29.176-52.354,36.117-66.473c4.066-8.279,26.606-52.015,37.574-83.677
			c0.823-2.385,1.586-4.697,2.267-6.93c0.114-0.378,0.706-1.304,1.194-2.025c1.955-2.905,8.494-3.506,14.59-0.635
			c6.125,2.888,10.492,9.691,8.755,14.137c-0.315,0.814-0.952,1.9-1.192,2.221c-0.999,1.32-2.043,2.746-3.124,4.248
			C7271.837,7538.098,7247.645,7578.176,7238.566,7594.023z M7187.881,7661.745c0.115,0.323,0.533,0.743,1.66,0.479
			c0.453-0.113,0.809-0.533,1.376-1.162c0.949-1.057,2.103-2.676,2.431-4.336c0.213-0.715-0.223-0.377-0.384-0.045
			c-0.165,0.33-3.173,4.147-4.757,4.56C7187.988,7661.301,7187.877,7661.188,7187.881,7661.745z M7213.828,7624.46
			c-2.057,4.104-14.537,28.124-20.148,35.379c-0.152,0.193-0.296,0.375-0.441,0.545c-0.146,0.208-0.524,0.392-0.67,0.546
			c-0.176,0.188-0.114,0.336-0.227,0.438c-0.095,0.111,0.053,0.214-0.02,0.318c-0.086,0.133-0.389,0.26-0.496,0.385
			c-0.253,0.271-0.164,0.516-0.375,0.716c-0.371,0.364-0.965,0.585-0.965,0.585c-0.658,0.119-0.432,1,0.121,1.213
			c0.306,0.118,0.611,0.314,0.92,0.496c0.246,0.146,0.496,0.245,0.746,0.591c0.197,0.272-0.129,0.675-0.147,1.05
			c-0.021,0.291,0.099,0.573-0.114,0.783c-0.297,0.287-0.943,0.438-1.482,0.28c-0.641-0.191-1.469-0.688-2.23-1.054
			c-0.947-0.455-1.787-0.76-2.031-0.729c-0.22,0.03-0.713,0.155-0.863,0.383c-0.105,0.15-0.151,0.352,0.132,0.592
			c0.128,0.104,0.522,0.334,0.746,0.459c0.348,0.197,0.653,0.521,1.094,0.742c0.174,0.086,0.332-0.06,0.49,0.01
			c0.213,0.094,0.427,0.41,0.67,0.533c0.289,0.146,0.681,0.389,0.95,0.51c0.18,0.078,0.354,0.416,0.521,0.527
			c0.102,0.065,0.197-0.088,0.292-0.043c0.322,0.16,0.599,0.215,0.806,0.374c0.354,0.289,0.778,0.587,1.187,0.74
			c0.667,0.249,1.301-0.004,1.563-1.206c0.424-1.932,0.953-4.143,1.379-5.631c0.089-0.319,0.32-0.982,0.642-1.887
			c0.062-0.17-0.092-0.352-0.022-0.537c1.281-3.536,3.912-9.788,5.576-13.4c2.213-4.816,12.295-23.045,12.403-23.378
			C7213.939,7624.457,7214.695,7622.96,7213.828,7624.46z M7228.309,7596.211c1.68-3.238,51.808-88.62,56.344-96.432
			c0,0,1.332,0.759,1.121,1.861c-4.566,6.877-33.221,54.988-35.605,59.644c-2.381,4.651-19.631,34.137-30.463,55.185
			c0,0,43.841-74.712,45.579-77.816c1.708-3.059,20.681-33.698,21.827-35.448c0,0,1.195-1.972,1.14-1.86
			c-2.985-4.087-8.548-6.367-13.616-6.212c-0.421,1.987-18.693,46.695-24.324,57.55
			C7244.948,7563.016,7230.477,7592.227,7228.309,7596.211L7228.309,7596.211z M7209.675,7640.372
			c3.013-5.646,42.914-77.853,68.482-116.757c0.704-1.07,11.893-17.723,11.948-18.485c0.062-0.86-0.571-1.868-0.904-2.144
			c-0.559,0.895-6.811,10.99-12.253,19.447c-23.433,38.008-64.513,110.735-66.902,116.336c-0.088,0.215-0.606,1.66-0.696,1.856
			c-0.127,0.274,0.063,0.088-0.146,0.368c-0.564,0.742-1.068,2.068-1.564,2.852c-0.125,0.196-0.259,0.383-0.387,0.58
			c-0.05,0.088,0.014,0.227-0.029,0.317c-0.119,0.268-0.299,0.51-0.404,0.788c-0.041,0.096,0.021,0.232-0.027,0.312
			c-0.334,0.546-0.43,1.091-0.831,1.58c-0.056,0.065,0.015,0.218-0.033,0.308c-0.03,0.059-0.171,0.07-0.185,0.123
			c-0.21,0.75-0.749,1.234-1.088,1.889c-0.049,0.087-0.016,0.211-0.014,0.322c-0.107-0.029-0.189,0.026-0.209,0.115
			c-0.06,0.271-0.168,0.512-0.257,0.756c-0.075,0.203-0.303,0.401-0.348,0.584c-0.104,0.414-0.513,0.657-0.487,1.097
			c-0.324,0.11-0.22,0.222-0.229,0.327c-0.01,0.103-0.1,0.189-0.166,0.264c-0.275,0.295-0.406,0.702-0.528,1.088
			c-0.101,0.324-0.36,0.561-0.476,0.873c-0.026,0.064,0.017,0.154-0.021,0.203c-0.103,0.164,0.099,0.328,0.065,0.468
			c-0.045,0.17-0.443,0.456-0.516,0.604c-0.039,0.086-0.082,0.052-0.125,0.127c-0.416,0.679-0.322,1.353-0.687,2.033
			c-0.062,0.119-0.298,0.315-0.371,0.414c-0.493,0.627-0.365,1.426-0.838,2.01c0.079,0.332-0.194,0.568-0.233,0.881
			c-0.01,0.082,0.057,0.146,0.042,0.229c-0.028,0.284-0.131,0.519-0.184,0.78c-0.185,0.976-0.351,1.883-0.624,2.917
			c-0.2,0.768-0.717,1.105-0.814,1.936c-0.027,0.244,0.193,0.25,0.209,0.332c0.022,0.125,0.045,0.244,0.139,0.314
			c0.082,0.066,0.174-0.018,0.199-0.104c0.209-0.625,0.224-1.068,0.506-1.674c0.115-0.246-0.242-0.582-0.162-0.853
			c0.257-0.813,1.147-1.522,1.384-2.338c0.388-0.154,0.063-0.582,0.213-0.884c0.046-0.082,0.129-0.099,0.211-0.135
			c0.146-0.065-0.146-0.283-0.082-0.404c0.2-0.387,0.621-0.741,0.874-1.104c0.17-0.242,0.377-0.469,0.477-0.707
			c0.174-0.418,0.42-0.684,0.42-1.087c0.002-0.473,0.521-0.86,0.5-1.328c-0.006-0.124,0.142-0.231,0.168-0.337
			c0.134-0.615,0.199-1.189,0.43-1.775c0.074-0.19,0.02-0.426,0.02-0.648c0.289,0.027-0.039-0.34,0.217-0.333
			c-0.078-0.272,0.069-0.545,0.158-0.744c0.368-0.797,0.654-1.649,0.828-2.565c0.039-0.209,0.217-0.363,0.289-0.563
			c0.036-0.099-0.029-0.252,0.026-0.312c0.146-0.154,0.217-0.344,0.407-0.48c0.035-0.02-0.006-0.131,0.019-0.195
			c0.089-0.254,0.408-0.365,0.447-0.668c0.01-0.049,0.157-0.063,0.181-0.121c0.292-0.748,0.627-1.352,0.816-2.109
			c0.105-0.424,0.666-0.734,0.629-1.205c-0.004-0.032,0.158-0.059,0.174-0.118c0.15-0.489,0.131-0.903,0.43-1.33
			c0.053-0.083-0.003-0.217,0.026-0.319c0.021-0.088,0.378-0.106,0.397-0.139c0.252-0.395,0.049-1.021,0.19-1.427
			c0.075-0.226,0.499-0.333,0.634-0.511c0.092-0.119,0.069-0.272,0.178-0.363c0.025-0.021-0.026-0.073-0.023-0.08
			c0.062-0.148,0.072-0.23,0.197-0.35c0.06-0.051,0.096-0.162,0.066-0.265c0.082,0.067,0.029-0.118,0.111-0.054
			c-0.003-0.059-0.003-0.107-0.003-0.164 M7242.264,7564.552c3.506-4.821,20.674-40.86,29.252-66.747l-1.101,0.229
			C7269.504,7501.411,7260.624,7529.618,7242.264,7564.552z"/>
		<path fill="#0C2D82" d="M7261.555,7446.514c8.686-6.01,29.684-11.18,48.475-1.049c13.845,7.465,23.857,19.754,26.719,37.691
			l-10.496,6.016c-9.921-11.263-18.893-17.941-25.766-21.378c-6.869-3.433-22.9-10.305-38.168-11.065L7261.555,7446.514z
			 M7317.238,7454.891l-5.164,2.357l-5.139-2.977l0.599,5.623l-4.491,3.879l5.762,1.098l2.221,5.559l3.052-5.062l5.71-0.292
			l-3.723-4.423L7317.238,7454.891z M7331.975,7477.666l-3.42-0.025l-2.049-2.931l-1.104,3.22l-3.44,0.973l2.868,2.065l-0.208,3.604
			l2.96-1.987l3.189,1.294l-0.907-3.363L7331.975,7477.666z M7289.771,7444.568l-2.475,4.156l-5.039,0.406l3.145,3.643l-1.266,4.896
			l4.566-2.025l4.248,2.813l-0.315-5.022l3.856-2.975l-4.748-1.291L7289.771,7444.568z M7269.723,7446.001l-0.986,3.039
			l-3.188,0.994l2.557,1.894l-0.103,3.334l2.647-1.968l3.147,1.19l-0.937-3.188l2.05-2.48l-3.245-0.135L7269.723,7446.001z"/>
		<path fill="#0C2D82" d="M7358.277,7564.76h-2.27v6.176h-1.533v-6.176h-2.264v-1.34h6.064v1.34H7358.277z M7368.553,7570.936
			h-1.535v-5.979h-0.035l-2.174,5.979h-1.482l-2.105-5.979h-0.031v5.979h-1.539v-7.516h2.662l1.748,4.907h0.035l1.819-4.907h2.64
			v7.516H7368.553z"/>
	</g>
</g>
<g id="svg12082">
</g>
<g id="svg31568">
</g>
<g id="CLEVELAND_INDIANS">
</g>
<g id="svg2562">
</g>
<g id="svg3060">
</g>
<g id="svg3067">
</g>
<g id="svg3477">
	<g>
		<g id="layer2">
			<path id="path3525" fill="#FFFFFF" d="M244,846c0,55.229-44.771,100-100,100S44,901.229,44,846s44.771-100,100-100
				S244,790.771,244,846z"/>
		</g>
		<g id="layer3">
			<path id="path4315" fill="#BA122B" stroke="#000000" stroke-width="0.0833" d="M239.784,846.002
				c0.003,52.904-42.88,95.794-95.782,95.797s-95.791-42.882-95.794-95.786c0-0.004,0-0.008,0-0.011
				c-0.003-52.904,42.88-95.794,95.783-95.797c52.901-0.003,95.79,42.882,95.793,95.787
				C239.784,845.996,239.784,845.999,239.784,846.002z"/>
			<path id="path3306" fill="#14225A" d="M216.312,926.629h-0.042l-1.216-3.559h-1.801v5.438h1.034v-4.328h0.041l1.45,4.328h0.996
				l1.512-4.328l0,0v4.328h1.046v-5.438h-1.808l-1.25,3.559H216.312z"/>
			<path id="path3310" fill="#14225A" d="M208.167,924.037h1.55v4.471h1.054v-4.471h1.546v-0.975h-4.149V924.037z"/>
		</g>
		<g id="layer4">
			<path id="path4318" fill="#14225A" stroke="#000000" stroke-width="0.0833" d="M234.376,846.208
				c0.007,50.027-40.542,90.589-90.57,90.597c-50.028,0.007-90.59-40.543-90.598-90.57c0-0.009,0-0.018,0-0.026
				c-0.007-50.028,40.543-90.589,90.57-90.597c50.028-0.007,90.59,40.542,90.598,90.57
				C234.376,846.19,234.376,846.199,234.376,846.208z"/>
		</g>
		<g id="layer6">
			<path id="path3789" fill="none" stroke="#BA122F" stroke-width="3.75" d="M207.406,845.987
				c0.004,35.019-28.38,63.411-63.398,63.416c-35.019,0.004-63.41-28.381-63.414-63.399c0-0.005,0-0.011,0-0.016
				c-0.005-35.018,28.38-63.41,63.398-63.414s63.41,28.38,63.414,63.399C207.406,845.977,207.406,845.982,207.406,845.987z"/>
		</g>
		<g id="layer7">
			<path id="path3796" fill="#FFFFFF" d="M202.333,846c0,32.217-26.116,58.334-58.333,58.334S85.667,878.217,85.667,846
				s26.116-58.333,58.333-58.333S202.333,813.783,202.333,846z"/>
		</g>
		<g id="layer8">
			<path id="path3799" fill="#BA122B" d="M71.025,860.881l-4.586-3.332l-4.561,3.371l1.74-5.414l-4.601-3.312l5.663-0.013
				l1.716-5.419l1.759,5.406l5.662-0.034l-4.575,3.353L71.025,860.881z"/>
			<path id="path3799-1" fill="#BA122B" d="M225.981,860.98l-4.587-3.332l-4.561,3.371l1.741-5.414l-4.602-3.312l5.663-0.013
				l1.717-5.419l1.758,5.406l5.662-0.035l-4.575,3.354L225.981,860.98z"/>
			<g id="g3384" transform="matrix(0.76972,0,0,0.76847,9.3362,105.86)">
				<path id="path3230" fill="#FFFFFF" d="M89.092,932.882l-9.754-10.296l14.129,0.041l0.35-0.82l-16.566-14.975l-1.652,3.858
					l9.263,8.125l-13.178,0.058l-0.341,0.792l9.108,9.521l-12.309-0.963l-1.724,4.054l22.35,1.412l0.325-0.787V932.882z"/>
				<path id="path3234" fill="#FFFFFF" d="M111.924,883.457c0.859,0,1.814-0.124,3.009-0.385l1.463-0.31
					c0.762-0.158,1.483-0.311,2.104-0.311c0.83,0,1.383,0.278,1.846,0.917c0.304,0.411,0.416,0.862,0.341,1.336
					c-0.112,0.716-0.653,1.461-1.52,2.092c-1.479,1.074-3.084,1.225-4.663,0.43l-0.459-0.226l-1.837,3.53l0.483,0.231
					c1.188,0.581,2.421,0.876,3.667,0.876c1.779,0,3.492-0.589,5.088-1.756c3.53-2.567,4.371-6.023,2.192-9.012
					c-1.284-1.756-2.864-2.577-4.971-2.577c-0.855,0-1.829,0.127-3.15,0.409l-1.472,0.312c-0.896,0.19-1.607,0.318-2.183,0.318
					c-0.77,0-1.221-0.22-1.657-0.824c-0.655-0.902-0.438-1.885,0.579-2.625c1.025-0.748,1.979-0.829,3.234-0.292l0.499,0.215
					l1.366-3.61l-0.457-0.196c-2.397-1.023-4.725-0.733-6.913,0.864c-1.379,1.006-2.296,2.364-2.57,3.831
					c-0.275,1.471,0.095,3,1.042,4.305C108.204,882.676,109.78,883.457,111.924,883.457"/>
				<path id="path3238" fill="#FFFFFF" d="M138.121,879.882l-2.18-5.655l7.891-3.038l2.18,5.656l3.876-1.495l-7.488-19.457
					l-3.884,1.495l3.942,10.245l-7.891,3.042l-3.938-10.248l-3.884,1.492l7.492,19.455L138.121,879.882z"/>
				<path id="path3242" fill="#FFFFFF" d="M163.65,872.961l-2.987-20.629l-4.118,0.595l2.989,20.629L163.65,872.961z"/>
				<path id="path3246" fill="#FFFFFF" d="M178.325,860.039l10.95,13.417l0.974,0.071l1.629-21.073l-3.942-0.302l-0.941,12.2
					l-10.958-13.413l-0.967-0.075l-1.638,21.071l3.946,0.306L178.325,860.039z"/>
				<path id="path3250" fill="#FFFFFF" d="M208.499,879.053c1.684,0.647,3.259,0.965,4.808,0.965c1.222,0,2.417-0.201,3.659-0.615
					l0.23-0.077l2.886-7.491l-8.603-3.315l-1.375,3.554l4.954,1.905l-0.801,2.055c-1.325,0.233-2.733,0.037-4.366-0.592
					c-3.821-1.471-5.409-5.018-3.947-8.823c1.08-2.801,3.396-4.539,6.038-4.539c0.775,0,1.554,0.15,2.326,0.443
					c2.638,1.018,3.391,2.466,3.937,3.866l0.192,0.493l3.692-1.524l-0.175-0.471c-1.062-2.838-3.025-4.725-6.179-5.939
					c-1.3-0.503-2.641-0.754-3.993-0.754c-4.42,0-8.183,2.639-9.82,6.889C199.776,870.769,202.583,876.772,208.499,879.053"/>
				<path id="path3254" fill="#FFFFFF" d="M229.92,890.932l10.029-13.766l4.754,3.462l2.247-3.075l-12.871-9.378l-2.238,3.075
					l4.755,3.465l-10.034,13.766L229.92,890.932L229.92,890.932z"/>
				<path id="path3258" fill="#FFFFFF" d="M243.212,898.81c-0.282,2.784,0.563,5.567,2.384,7.838
					c2.092,2.613,5.137,4.117,8.362,4.117c2.405,0,4.726-0.833,6.693-2.408c2.3-1.842,3.721-4.408,4.013-7.233
					c0.274-2.779-0.571-5.563-2.388-7.829c-2.092-2.618-5.142-4.119-8.363-4.119c-2.408,0-4.721,0.834-6.691,2.406
					c-2.3,1.842-3.725,4.413-4.008,7.229 M249.888,894.919c1.359-1.087,2.9-1.658,4.458-1.658c1.904,0,3.65,0.871,4.912,2.446
					c2.342,2.929,1.804,6.846-1.279,9.312c-1.355,1.088-2.896,1.662-4.454,1.662c-1.904,0-3.645-0.875-4.913-2.454
					C246.27,901.306,246.805,897.385,249.888,894.919"/>
				<path id="path3262" fill="#FFFFFF" d="M257.713,925.686l11.378-4.5l-7.166,15.525l-0.088,0.2l0.345,0.912l19.675-7.775
					l-1.463-3.675l-11.379,4.496l7.255-15.721l-0.345-0.912l-19.675,7.771L257.713,925.686L257.713,925.686z"/>
				<path id="path3266" fill="#FFFFFF" d="M100.758,1016.34l-10.283,6.641l4.033-16.841l-0.525-0.83l-17.755,11.479l2.148,3.321
					l10.282-6.641l-4.047,16.849l0.547,0.808l17.746-11.47L100.758,1016.34L100.758,1016.34z"/>
				<path id="path3270" fill="#FFFFFF" d="M123.425,1043.311l5.192,2.758l-7.97,15.059l3.667,1.942l7.979-15.054l5.199,2.754
					l1.784-3.364l-14.068-7.457L123.425,1043.311z"/>
				<path id="path3274" fill="#FFFFFF" d="M141.592,1070.056l3.995,1.159l5.801-20.025l-3.995-1.159L141.592,1070.056
					L141.592,1070.056z"/>
				<path id="path3278" fill="#FFFFFF" d="M170.567,1053.836c-6.076-0.28-10.947,4.196-11.221,10.187
					c-0.271,5.988,4.232,10.892,10.249,11.164c0.18,0,0.355,0,0.534,0c5.829,0,10.425-4.388,10.683-10.206
					c0.272-5.983-4.229-10.883-10.245-11.157 M169.771,1071.31c-3.747-0.17-6.333-3.154-6.155-7.104
					c0.175-3.847,2.824-6.529,6.438-6.529c0.108,0,0.225,0,0.337,0c1.824,0.083,3.45,0.845,4.562,2.146
					c1.113,1.295,1.675,3.057,1.587,4.966c-0.179,3.958-2.975,6.679-6.77,6.517"/>
				<path id="path3282" fill="#FFFFFF" d="M201.795,1050.227l3.037,11.859l-14.504-9.051l-0.183-0.117l-0.954,0.241l5.258,20.476
					l3.83-0.987l-3.042-11.854l14.509,9.053l0.183,0.117l0.95-0.246l-5.254-20.47L201.795,1050.227L201.795,1050.227z"/>
				<path id="path3286" fill="#FFFFFF" d="M249.7,1040.998l-12.021-12.075l-2.95,2.933l14.708,14.776l9.142-9.1l-2.688-2.697
					L249.7,1040.998z"/>
				<path id="path3290" fill="#FFFFFF" d="M268.821,1012.773c-1.096-0.67-2.15-1-3.216-1c-1.722,0-3.292,0.826-5.117,2.071
					l-1.242,0.849c-1.25,0.851-2.054,1.309-2.742,1.309c-0.325,0-0.65-0.104-1.004-0.325c-0.955-0.582-1.125-1.571-0.463-2.641
					c0.646-1.05,1.483-1.5,2.784-1.5h0.646l-0.109-3.863h-0.62c-2.541,0-4.541,1.15-5.945,3.416
					c-0.892,1.459-1.222,3.063-0.925,4.521c0.299,1.472,1.221,2.746,2.596,3.587c1.012,0.625,2.008,0.929,3.058,0.929
					c1.517,0,3.042-0.604,5.088-2.016l1.233-0.846c1.021-0.691,1.904-1.292,2.758-1.292c0.376,0,0.746,0.117,1.129,0.351
					c0.434,0.266,0.709,0.646,0.821,1.104c0.167,0.712-0.049,1.604-0.617,2.521c-0.962,1.561-2.37,2.295-4.15,2.162l-0.511-0.042
					l-0.359,3.958l0.533,0.042c0.204,0,0.401,0,0.6,0c2.975,0,5.516-1.479,7.163-4.154c1.233-1.996,1.666-3.958,1.262-5.688
					c-0.341-1.421-1.255-2.62-2.65-3.478"/>
				<path id="path3294" fill="#FFFFFF" d="M93.862,1041.048l3.196,2.796l3.333-1.633l5.759,5.03l-1.196,3.52l3.309,2.887
					l7.112-22.046l-0.629-0.537L93.862,1041.048L93.862,1041.048z M107.679,1042.719l-0.225,0.666l-3.387-2.974l0.625-0.305
					l4.645-2.28L107.679,1042.719z"/>
				<path id="path3298" fill="#FFFFFF" d="M220.062,1041.611l2.962,22.958l3.65-2.163l-0.513-3.678l6.575-3.901l2.975,2.234
					l3.78-2.234l-18.721-13.65L220.062,1041.611L220.062,1041.611z M228.93,1051.965l0.562,0.424l-3.887,2.287l-0.096-0.691
					l-0.717-5.125L228.93,1051.965z"/>
				<path id="path3302" fill="#FFFFFF" d="M101.029,909.669l-1.738-3.288l4.847-5.904l3.554,1.08l2.787-3.392l-22.262-6.42
					l-0.516,0.644l10.637,20.564L101.029,909.669L101.029,909.669z M94.629,897.582l4.951,1.504l0.671,0.208l-2.871,3.479
					L94.629,897.582z"/>
			</g>
		</g>
		<g id="layer5">
			<g id="g3791">
				<path id="path3467" fill="#14225A" d="M176.325,804.925c-8.209-6.579-15.65,1.646-15.65,6.35
					c8.2,1.754,15.537,9.975,12.259,31.333c-2.684,17.466-12.976,28.342-19.438,28.559c5.358-7.362,8.967-15.663,10.921-23.771
					c5.887-24.253-3.53-32.07-10.979-32.429c-9.055-0.467-18.134,11.887-20.658,26.467c-2.004,11.55-1.741,23.35,5.267,32
					c-6.213,7.834-21.112,10.263-18.5-8.643c2.191-15.808,10.033-33.253,14.388-41.82l0.129-0.229
					c2.325-4.788,4.179-8.175,4.967-9.529l-1.755-0.042c-16.941,0.292-30.454,4.217-36.724,12.816
					c-5.896,8.054-6.067,16.542-1.205,21.55l0.717,0.725c1.43,1.426,3.292,2.168,5.154,2.168l0,0c1.688,0,3.379-0.621,4.662-1.909
					c1.292-1.274,1.93-2.996,1.93-4.688c0-1.866-0.75-3.729-2.172-5.158c-0.774-0.746-1.637-1.316-2.558-1.683l0.042-0.05
					l0.438-0.904c1.146-1.996,3.142-3.821,5.725-5.112c2.046-1.021,4.43-1.729,7.021-1.988l-0.396,0.854
					c-3.596,6.688-8.85,19.4-10.521,26.013c-5.163,20.725,3.199,32.854,12.241,34.554c10.892,2.037,19.238-3.25,23.658-10.075
					c5.264,3.35,19.171,5.271,29.63-13.379c12.029-21.471,12.471-53.133,1.421-62 M145.555,866.275
					c-2.059-5.029-3.005-10.95-3.005-16.58c0-6.791,1.358-13.104,3.7-16.816c1.529-2.445,3.379-3.625,5.438-3.487
					c0.738,0.042,1.571,0.295,2.171,1.716c0.479,1.15,0.691,2.679,0.691,4.45C154.55,844.412,149.263,859.517,145.555,866.275"/>
				<path id="path3469" fill="#BA122B" d="M175.096,806.462c-2.625-2.1-5.337-2.579-7.85-1.358
					c-2.112,1.017-3.708,3.038-4.325,4.763c5.066,1.712,12.771,6.962,12.771,23.121c0,2.95-0.263,6.234-0.837,9.929
					c-2.517,16.476-11.676,27.675-19.009,29.83c-2.166,0.638-4.125,0.458-5.729-0.422c7.263-8.949,10.747-18.57,12.396-25.403
					c1.287-5.309,1.808-9.667,1.808-13.233c0-6.367-1.62-10.237-3.337-12.542c-2.608-3.475-5.904-4.141-7.654-4.233
					c-7.696-0.375-16.216,11.017-18.608,24.854c-0.691,4-1.059,7.696-1.059,11.075c0,8.684,2.296,15.425,6.875,20.434
					c-3.392,5.328-10.299,8.971-15.771,7.725c-2.417-0.546-7.479-2.805-7.479-12.104c0-1.322,0.1-2.764,0.32-4.363
					c1.991-14.262,8.521-30.054,13.133-39.592l0.113-0.204c2.004-4.196,3.725-7.508,4.875-9.529h-0.309
					c-16.475,0.554-27.967,4.667-33.296,11.945c0,0-4.445,5.696-4.292,11.476c0.088,3.358,1.267,6.321,3.83,8.396l0.333,0.262
					c2,1.566,4.775,1.533,6.467-0.179c1.854-1.867,1.733-4.992-0.251-6.987c-1.033-1.034-2.354-1.571-3.653-1.588h-0.042
					c1.171-6.612,8.779-11.725,17.979-11.725l1.212,0.042l-0.17,0.333l-1.913,3.575c-3.408,6.329-8.671,18.863-10.338,25.542
					c-2.611,10.462-1.854,19.649,2.121,25.857c2.204,3.445,5.254,5.672,8.559,6.297c7.287,1.365,12.604-0.955,15.787-3.139
					c2.65-1.82,5.246-4.666,7.067-7.68c2.17,1.409,5.824,2.918,8.892,2.876c5.204-0.075,12.816-2.663,19.471-14.538
					c5.55-9.904,8.883-22.591,9.112-34.8c0.241-11.67-2.458-20.896-7.2-24.708 M151.792,827.462
					c11.624,0.725-1.479,37.038-6.538,42.846C136.941,855.267,140.046,826.721,151.792,827.462"/>
			</g>
		</g>
	</g>
</g>
</svg>
